<?xml version="1.0" standalone="no"?>
<!DOCTYPE svg PUBLIC "-//W3C//DTD SVG 1.1//EN" "http://www.w3.org/Graphics/SVG/1.1/DTD/svg11.dtd">
<svg width="272" height="214" viewBox="-136 -107 272 214" xmlns="http://www.w3.org/2000/svg" version="1.1">
<title>OpenSCAD Model</title>
<path d="
M 107,41.0122 L 136,12.0122 L 136,-12.0122 L 107,-41.0122 L 107,-107 L -107,-107
 L -107,-41.0122 L -136,-12.0122 L -136,12.0122 L -107,41.0122 L -107,107 L 107,107
 z
M 104.448,-103.001 L 104.343,-103.008 L 104.24,-103.023 L 104.137,-103.045 L 104.036,-103.073 L 103.938,-103.109
 L 103.842,-103.152 L 103.75,-103.201 L 103.661,-103.256 L 103.577,-103.318 L 103.496,-103.385 L 103.421,-103.458
 L 103.351,-103.536 L 103.286,-103.618 L 103.228,-103.705 L 103.176,-103.796 L 103.13,-103.89 L 103.09,-103.987
 L 103.058,-104.087 L 103.033,-104.188 L 103.015,-104.291 L 103.004,-104.395 L 103,-104.5 L 103.004,-104.605
 L 103.015,-104.709 L 103.033,-104.812 L 103.058,-104.913 L 103.09,-105.013 L 103.13,-105.11 L 103.176,-105.204
 L 103.228,-105.295 L 103.286,-105.382 L 103.351,-105.464 L 103.421,-105.542 L 103.496,-105.615 L 103.577,-105.682
 L 103.661,-105.744 L 103.75,-105.799 L 103.842,-105.848 L 103.938,-105.891 L 104.036,-105.927 L 104.137,-105.955
 L 104.24,-105.977 L 104.343,-105.992 L 104.448,-105.999 L 104.552,-105.999 L 104.657,-105.992 L 104.76,-105.977
 L 104.863,-105.955 L 104.964,-105.927 L 105.062,-105.891 L 105.158,-105.848 L 105.25,-105.799 L 105.339,-105.744
 L 105.423,-105.682 L 105.504,-105.615 L 105.579,-105.542 L 105.649,-105.464 L 105.714,-105.382 L 105.772,-105.295
 L 105.824,-105.204 L 105.87,-105.11 L 105.91,-105.013 L 105.942,-104.913 L 105.967,-104.812 L 105.985,-104.709
 L 105.996,-104.605 L 106,-104.5 L 105.996,-104.395 L 105.985,-104.291 L 105.967,-104.188 L 105.942,-104.087
 L 105.91,-103.987 L 105.87,-103.89 L 105.824,-103.796 L 105.772,-103.705 L 105.714,-103.618 L 105.649,-103.536
 L 105.579,-103.458 L 105.504,-103.385 L 105.423,-103.318 L 105.339,-103.256 L 105.25,-103.201 L 105.158,-103.152
 L 105.062,-103.109 L 104.964,-103.073 L 104.863,-103.045 L 104.76,-103.023 L 104.657,-103.008 L 104.552,-103.001
 z
M -104.552,-103.001 L -104.657,-103.008 L -104.76,-103.023 L -104.863,-103.045 L -104.964,-103.073 L -105.062,-103.109
 L -105.158,-103.152 L -105.25,-103.201 L -105.339,-103.256 L -105.423,-103.318 L -105.504,-103.385 L -105.579,-103.458
 L -105.649,-103.536 L -105.714,-103.618 L -105.772,-103.705 L -105.824,-103.796 L -105.87,-103.89 L -105.91,-103.987
 L -105.942,-104.087 L -105.967,-104.188 L -105.985,-104.291 L -105.996,-104.395 L -106,-104.5 L -105.996,-104.605
 L -105.985,-104.709 L -105.967,-104.812 L -105.942,-104.913 L -105.91,-105.013 L -105.87,-105.11 L -105.824,-105.204
 L -105.772,-105.295 L -105.714,-105.382 L -105.649,-105.464 L -105.579,-105.542 L -105.504,-105.615 L -105.423,-105.682
 L -105.339,-105.744 L -105.25,-105.799 L -105.158,-105.848 L -105.062,-105.891 L -104.964,-105.927 L -104.863,-105.955
 L -104.76,-105.977 L -104.657,-105.992 L -104.552,-105.999 L -104.448,-105.999 L -104.343,-105.992 L -104.24,-105.977
 L -104.137,-105.955 L -104.036,-105.927 L -103.938,-105.891 L -103.842,-105.848 L -103.75,-105.799 L -103.661,-105.744
 L -103.577,-105.682 L -103.496,-105.615 L -103.421,-105.542 L -103.351,-105.464 L -103.286,-105.382 L -103.228,-105.295
 L -103.176,-105.204 L -103.13,-105.11 L -103.09,-105.013 L -103.058,-104.913 L -103.033,-104.812 L -103.015,-104.709
 L -103.004,-104.605 L -103,-104.5 L -103.004,-104.395 L -103.015,-104.291 L -103.033,-104.188 L -103.058,-104.087
 L -103.09,-103.987 L -103.13,-103.89 L -103.176,-103.796 L -103.228,-103.705 L -103.286,-103.618 L -103.351,-103.536
 L -103.421,-103.458 L -103.496,-103.385 L -103.577,-103.318 L -103.661,-103.256 L -103.75,-103.201 L -103.842,-103.152
 L -103.938,-103.109 L -104.036,-103.073 L -104.137,-103.045 L -104.24,-103.023 L -104.343,-103.008 L -104.448,-103.001
 z
M -0.0523376,-103.001 L -0.156784,-103.008 L -0.260468,-103.023 L -0.362869,-103.045 L -0.463516,-103.073 L -0.561905,-103.109
 L -0.657547,-103.152 L -0.75,-103.201 L -0.838776,-103.256 L -0.923477,-103.318 L -1.00369,-103.385 L -1.07899,-103.458
 L -1.14906,-103.536 L -1.21352,-103.618 L -1.27206,-103.705 L -1.32442,-103.796 L -1.37032,-103.89 L -1.40953,-103.987
 L -1.44188,-104.087 L -1.46721,-104.188 L -1.4854,-104.291 L -1.49634,-104.395 L -1.5,-104.5 L -1.49634,-104.605
 L -1.4854,-104.709 L -1.46721,-104.812 L -1.44188,-104.913 L -1.40953,-105.013 L -1.37032,-105.11 L -1.32442,-105.204
 L -1.27206,-105.295 L -1.21352,-105.382 L -1.14906,-105.464 L -1.07899,-105.542 L -1.00369,-105.615 L -0.923477,-105.682
 L -0.838776,-105.744 L -0.749985,-105.799 L -0.657547,-105.848 L -0.561905,-105.891 L -0.463516,-105.927 L -0.362869,-105.955
 L -0.260468,-105.977 L -0.156784,-105.992 L -0.0523376,-105.999 L 0.0523376,-105.999 L 0.156784,-105.992 L 0.260468,-105.977
 L 0.362869,-105.955 L 0.463516,-105.927 L 0.561905,-105.891 L 0.657547,-105.848 L 0.75,-105.799 L 0.838776,-105.744
 L 0.923477,-105.682 L 1.00369,-105.615 L 1.07899,-105.542 L 1.14906,-105.464 L 1.21352,-105.382 L 1.27206,-105.295
 L 1.32442,-105.204 L 1.37032,-105.11 L 1.40953,-105.013 L 1.44188,-104.913 L 1.46721,-104.812 L 1.4854,-104.709
 L 1.49634,-104.605 L 1.5,-104.5 L 1.49634,-104.395 L 1.4854,-104.291 L 1.46721,-104.188 L 1.44188,-104.087
 L 1.40953,-103.987 L 1.37032,-103.89 L 1.32442,-103.796 L 1.27206,-103.705 L 1.21352,-103.618 L 1.14906,-103.536
 L 1.07899,-103.458 L 1.00369,-103.385 L 0.923477,-103.318 L 0.838776,-103.256 L 0.75,-103.201 L 0.657547,-103.152
 L 0.561905,-103.109 L 0.463516,-103.073 L 0.362869,-103.045 L 0.260468,-103.023 L 0.156784,-103.008 L 0.0523376,-103.001
 z
M 76.9302,-100.001 L 76.7909,-100.011 L 76.6527,-100.03 L 76.5161,-100.059 L 76.382,-100.098 L 76.2508,-100.146
 L 76.1232,-100.202 L 76,-100.268 L 75.8816,-100.342 L 75.7687,-100.424 L 75.6617,-100.514 L 75.5613,-100.611
 L 75.4679,-100.714 L 75.382,-100.824 L 75.3039,-100.94 L 75.2341,-101.061 L 75.1729,-101.187 L 75.1206,-101.316
 L 75.0775,-101.449 L 75.0437,-101.584 L 75.0195,-101.722 L 75.0049,-101.86 L 75,-102 L 75.0049,-102.14
 L 75.0195,-102.278 L 75.0437,-102.416 L 75.0775,-102.551 L 75.1206,-102.684 L 75.1729,-102.813 L 75.2341,-102.939
 L 75.3039,-103.06 L 75.382,-103.176 L 75.4679,-103.286 L 75.5613,-103.389 L 75.6617,-103.486 L 75.7687,-103.576
 L 75.8816,-103.658 L 76,-103.732 L 76.1232,-103.798 L 76.2508,-103.854 L 76.382,-103.902 L 76.5161,-103.941
 L 76.6527,-103.97 L 76.7909,-103.989 L 76.9302,-103.999 L 77.0698,-103.999 L 77.209,-103.989 L 77.3473,-103.97
 L 77.4838,-103.941 L 77.618,-103.902 L 77.7492,-103.854 L 77.8767,-103.798 L 78,-103.732 L 78.1184,-103.658
 L 78.2313,-103.576 L 78.3383,-103.486 L 78.4387,-103.389 L 78.5321,-103.286 L 78.618,-103.176 L 78.6961,-103.06
 L 78.7659,-102.939 L 78.8271,-102.813 L 78.8794,-102.684 L 78.9225,-102.551 L 78.9563,-102.416 L 78.9805,-102.278
 L 78.9951,-102.14 L 79,-102 L 78.9951,-101.86 L 78.9805,-101.722 L 78.9563,-101.584 L 78.9225,-101.449
 L 78.8794,-101.316 L 78.8271,-101.187 L 78.7659,-101.061 L 78.6961,-100.94 L 78.618,-100.824 L 78.5321,-100.714
 L 78.4387,-100.611 L 78.3383,-100.514 L 78.2313,-100.424 L 78.1184,-100.342 L 78,-100.268 L 77.8767,-100.202
 L 77.7492,-100.146 L 77.618,-100.098 L 77.4838,-100.059 L 77.3473,-100.03 L 77.209,-100.011 L 77.0698,-100.001
 z
M -77.0698,-100.001 L -77.209,-100.011 L -77.3473,-100.03 L -77.4838,-100.059 L -77.618,-100.098 L -77.7492,-100.146
 L -77.8767,-100.202 L -78,-100.268 L -78.1184,-100.342 L -78.2313,-100.424 L -78.3383,-100.514 L -78.4387,-100.611
 L -78.5321,-100.714 L -78.618,-100.824 L -78.6961,-100.94 L -78.7659,-101.061 L -78.8271,-101.187 L -78.8794,-101.316
 L -78.9225,-101.449 L -78.9563,-101.584 L -78.9805,-101.722 L -78.9951,-101.86 L -79,-102 L -78.9951,-102.14
 L -78.9805,-102.278 L -78.9563,-102.416 L -78.9225,-102.551 L -78.8794,-102.684 L -78.8271,-102.813 L -78.7659,-102.939
 L -78.6961,-103.06 L -78.618,-103.176 L -78.5321,-103.286 L -78.4387,-103.389 L -78.3383,-103.486 L -78.2313,-103.576
 L -78.1184,-103.658 L -78,-103.732 L -77.8767,-103.798 L -77.7492,-103.854 L -77.618,-103.902 L -77.4838,-103.941
 L -77.3473,-103.97 L -77.209,-103.989 L -77.0698,-103.999 L -76.9302,-103.999 L -76.7909,-103.989 L -76.6527,-103.97
 L -76.5161,-103.941 L -76.382,-103.902 L -76.2508,-103.854 L -76.1232,-103.798 L -76,-103.732 L -75.8816,-103.658
 L -75.7687,-103.576 L -75.6617,-103.486 L -75.5613,-103.389 L -75.4679,-103.286 L -75.382,-103.176 L -75.3039,-103.06
 L -75.2341,-102.939 L -75.1729,-102.813 L -75.1206,-102.684 L -75.0775,-102.551 L -75.0437,-102.416 L -75.0195,-102.278
 L -75.0049,-102.14 L -75,-102 L -75.0049,-101.86 L -75.0195,-101.722 L -75.0437,-101.584 L -75.0775,-101.449
 L -75.1206,-101.316 L -75.1729,-101.187 L -75.2341,-101.061 L -75.3039,-100.94 L -75.382,-100.824 L -75.4679,-100.714
 L -75.5613,-100.611 L -75.6617,-100.514 L -75.7687,-100.424 L -75.8816,-100.342 L -76,-100.268 L -76.1232,-100.202
 L -76.2508,-100.146 L -76.382,-100.098 L -76.5161,-100.059 L -76.6527,-100.03 L -76.7909,-100.011 L -76.9302,-100.001
 z
M 101.93,-75.0012 L 101.791,-75.011 L 101.653,-75.0304 L 101.516,-75.0594 L 101.382,-75.0979 L 101.251,-75.1456
 L 101.123,-75.2024 L 101,-75.2679 L 100.882,-75.3419 L 100.769,-75.424 L 100.662,-75.5137 L 100.561,-75.6107
 L 100.468,-75.7144 L 100.382,-75.8244 L 100.304,-75.9402 L 100.234,-76.0611 L 100.173,-76.1865 L 100.121,-76.3159
 L 100.077,-76.4487 L 100.044,-76.5842 L 100.019,-76.7216 L 100.005,-76.8605 L 100,-77 L 100.005,-77.1395
 L 100.019,-77.2783 L 100.044,-77.4158 L 100.077,-77.5513 L 100.121,-77.684 L 100.173,-77.8135 L 100.234,-77.9389
 L 100.304,-78.0598 L 100.382,-78.1756 L 100.468,-78.2856 L 100.561,-78.3893 L 100.662,-78.4863 L 100.769,-78.576
 L 100.882,-78.6581 L 101,-78.732 L 101.123,-78.7976 L 101.251,-78.8544 L 101.382,-78.9021 L 101.516,-78.9406
 L 101.653,-78.9696 L 101.791,-78.989 L 101.93,-78.9988 L 102.07,-78.9988 L 102.209,-78.989 L 102.347,-78.9696
 L 102.484,-78.9406 L 102.618,-78.9021 L 102.749,-78.8544 L 102.877,-78.7976 L 103,-78.732 L 103.118,-78.6581
 L 103.231,-78.576 L 103.338,-78.4863 L 103.439,-78.3893 L 103.532,-78.2856 L 103.618,-78.1756 L 103.696,-78.0598
 L 103.766,-77.9389 L 103.827,-77.8135 L 103.879,-77.684 L 103.923,-77.5513 L 103.956,-77.4158 L 103.981,-77.2783
 L 103.995,-77.1395 L 104,-77 L 103.995,-76.8605 L 103.981,-76.7216 L 103.956,-76.5842 L 103.923,-76.4487
 L 103.879,-76.3159 L 103.827,-76.1865 L 103.766,-76.0611 L 103.696,-75.9402 L 103.618,-75.8244 L 103.532,-75.7144
 L 103.439,-75.6107 L 103.338,-75.5137 L 103.231,-75.424 L 103.118,-75.3419 L 103,-75.2679 L 102.877,-75.2024
 L 102.749,-75.1456 L 102.618,-75.0979 L 102.484,-75.0594 L 102.347,-75.0304 L 102.209,-75.011 L 102.07,-75.0012
 z
M -102.07,-75.0012 L -102.209,-75.011 L -102.347,-75.0304 L -102.484,-75.0594 L -102.618,-75.0979 L -102.749,-75.1456
 L -102.877,-75.2024 L -103,-75.2679 L -103.118,-75.3419 L -103.231,-75.424 L -103.338,-75.5137 L -103.439,-75.6107
 L -103.532,-75.7144 L -103.618,-75.8244 L -103.696,-75.9402 L -103.766,-76.0611 L -103.827,-76.1865 L -103.879,-76.3159
 L -103.923,-76.4487 L -103.956,-76.5842 L -103.981,-76.7216 L -103.995,-76.8605 L -104,-77 L -103.995,-77.1395
 L -103.981,-77.2783 L -103.956,-77.4158 L -103.923,-77.5513 L -103.879,-77.684 L -103.827,-77.8135 L -103.766,-77.9389
 L -103.696,-78.0598 L -103.618,-78.1756 L -103.532,-78.2856 L -103.439,-78.3893 L -103.338,-78.4863 L -103.231,-78.576
 L -103.118,-78.6581 L -103,-78.732 L -102.877,-78.7976 L -102.749,-78.8544 L -102.618,-78.9021 L -102.484,-78.9406
 L -102.347,-78.9696 L -102.209,-78.989 L -102.07,-78.9988 L -101.93,-78.9988 L -101.791,-78.989 L -101.653,-78.9696
 L -101.516,-78.9406 L -101.382,-78.9021 L -101.251,-78.8544 L -101.123,-78.7976 L -101,-78.732 L -100.882,-78.6581
 L -100.769,-78.576 L -100.662,-78.4863 L -100.561,-78.3893 L -100.468,-78.2856 L -100.382,-78.1756 L -100.304,-78.0598
 L -100.234,-77.9389 L -100.173,-77.8135 L -100.121,-77.684 L -100.077,-77.5513 L -100.044,-77.4158 L -100.019,-77.2783
 L -100.005,-77.1395 L -100,-77 L -100.005,-76.8605 L -100.019,-76.7216 L -100.044,-76.5842 L -100.077,-76.4487
 L -100.121,-76.3159 L -100.173,-76.1865 L -100.234,-76.0611 L -100.304,-75.9402 L -100.382,-75.8244 L -100.468,-75.7144
 L -100.561,-75.6107 L -100.662,-75.5137 L -100.769,-75.424 L -100.882,-75.3419 L -101,-75.2679 L -101.123,-75.2024
 L -101.251,-75.1456 L -101.382,-75.0979 L -101.516,-75.0594 L -101.653,-75.0304 L -101.791,-75.011 L -101.93,-75.0012
 z
M -126.809,-7.39429 L -126.928,-7.40257 L -127.045,-7.41908 L -127.161,-7.44376 L -127.275,-7.47646 L -127.387,-7.51704
 L -127.495,-7.56531 L -127.6,-7.62102 L -127.701,-7.6839 L -127.797,-7.75365 L -127.888,-7.82991 L -127.973,-7.91234
 L -128.052,-8.00052 L -128.125,-8.09402 L -128.192,-8.1924 L -128.251,-8.29515 L -128.303,-8.40181 L -128.347,-8.51183
 L -128.384,-8.62468 L -128.413,-8.73981 L -128.433,-8.85666 L -128.446,-8.97467 L -128.45,-9.09326 L -128.446,-9.21184
 L -128.433,-9.32985 L -128.413,-9.44672 L -128.384,-9.56184 L -128.347,-9.6747 L -128.303,-9.78471 L -128.251,-9.89136
 L -128.192,-9.99413 L -128.125,-10.0925 L -128.052,-10.186 L -127.973,-10.2742 L -127.888,-10.3566 L -127.797,-10.4329
 L -127.701,-10.5026 L -127.6,-10.5655 L -127.495,-10.6212 L -127.387,-10.6695 L -127.275,-10.7101 L -127.161,-10.7428
 L -127.045,-10.7674 L -126.928,-10.784 L -126.809,-10.7922 L -126.691,-10.7922 L -126.572,-10.784 L -126.455,-10.7674
 L -126.339,-10.7428 L -126.225,-10.7101 L -126.113,-10.6695 L -126.005,-10.6212 L -125.9,-10.5655 L -125.799,-10.5026
 L -125.703,-10.4329 L -125.612,-10.3566 L -125.527,-10.2742 L -125.448,-10.186 L -125.375,-10.0925 L -125.308,-9.99413
 L -125.249,-9.89136 L -125.197,-9.78471 L -125.153,-9.6747 L -125.116,-9.56184 L -125.087,-9.44672 L -125.067,-9.32985
 L -125.054,-9.21184 L -125.05,-9.09326 L -125.054,-8.97467 L -125.067,-8.85666 L -125.087,-8.73981 L -125.116,-8.62468
 L -125.153,-8.51183 L -125.197,-8.40181 L -125.249,-8.29515 L -125.308,-8.1924 L -125.375,-8.09402 L -125.448,-8.00052
 L -125.527,-7.91234 L -125.612,-7.82991 L -125.703,-7.75365 L -125.799,-7.6839 L -125.9,-7.62102 L -126.005,-7.56531
 L -126.113,-7.51704 L -126.225,-7.47646 L -126.339,-7.44376 L -126.455,-7.41908 L -126.572,-7.40257 L -126.691,-7.39429
 z
M -116.309,-7.39429 L -116.428,-7.40257 L -116.545,-7.41908 L -116.661,-7.44376 L -116.775,-7.47646 L -116.887,-7.51704
 L -116.995,-7.56531 L -117.1,-7.62102 L -117.201,-7.6839 L -117.297,-7.75365 L -117.388,-7.82991 L -117.473,-7.91234
 L -117.552,-8.00052 L -117.625,-8.09402 L -117.692,-8.1924 L -117.751,-8.29515 L -117.803,-8.40181 L -117.847,-8.51183
 L -117.884,-8.62468 L -117.913,-8.73981 L -117.933,-8.85666 L -117.946,-8.97467 L -117.95,-9.09326 L -117.946,-9.21184
 L -117.933,-9.32985 L -117.913,-9.44672 L -117.884,-9.56184 L -117.847,-9.6747 L -117.803,-9.78471 L -117.751,-9.89136
 L -117.692,-9.99413 L -117.625,-10.0925 L -117.552,-10.186 L -117.473,-10.2742 L -117.388,-10.3566 L -117.297,-10.4329
 L -117.201,-10.5026 L -117.1,-10.5655 L -116.995,-10.6212 L -116.887,-10.6695 L -116.775,-10.7101 L -116.661,-10.7428
 L -116.545,-10.7674 L -116.428,-10.784 L -116.309,-10.7922 L -116.191,-10.7922 L -116.072,-10.784 L -115.955,-10.7674
 L -115.839,-10.7428 L -115.725,-10.7101 L -115.613,-10.6695 L -115.505,-10.6212 L -115.4,-10.5655 L -115.299,-10.5026
 L -115.203,-10.4329 L -115.112,-10.3566 L -115.027,-10.2742 L -114.948,-10.186 L -114.875,-10.0925 L -114.808,-9.99413
 L -114.749,-9.89136 L -114.697,-9.78471 L -114.653,-9.6747 L -114.616,-9.56184 L -114.587,-9.44672 L -114.567,-9.32985
 L -114.554,-9.21184 L -114.55,-9.09326 L -114.554,-8.97467 L -114.567,-8.85666 L -114.587,-8.73981 L -114.616,-8.62468
 L -114.653,-8.51183 L -114.697,-8.40181 L -114.749,-8.29515 L -114.808,-8.1924 L -114.875,-8.09402 L -114.948,-8.00052
 L -115.027,-7.91234 L -115.112,-7.82991 L -115.203,-7.75365 L -115.299,-7.6839 L -115.4,-7.62102 L -115.505,-7.56531
 L -115.613,-7.51704 L -115.725,-7.47646 L -115.839,-7.44376 L -115.955,-7.41908 L -116.072,-7.40257 L -116.191,-7.39429
 z
M 126.691,-7.39429 L 126.572,-7.40257 L 126.455,-7.41908 L 126.339,-7.44376 L 126.225,-7.47646 L 126.113,-7.51704
 L 126.005,-7.56531 L 125.9,-7.62102 L 125.799,-7.6839 L 125.703,-7.75365 L 125.612,-7.82991 L 125.527,-7.91234
 L 125.448,-8.00052 L 125.375,-8.09402 L 125.308,-8.1924 L 125.249,-8.29515 L 125.197,-8.40181 L 125.153,-8.51183
 L 125.116,-8.62468 L 125.087,-8.73981 L 125.067,-8.85666 L 125.054,-8.97467 L 125.05,-9.09326 L 125.054,-9.21184
 L 125.067,-9.32985 L 125.087,-9.44672 L 125.116,-9.56184 L 125.153,-9.6747 L 125.197,-9.78471 L 125.249,-9.89136
 L 125.308,-9.99413 L 125.375,-10.0925 L 125.448,-10.186 L 125.527,-10.2742 L 125.612,-10.3566 L 125.703,-10.4329
 L 125.799,-10.5026 L 125.9,-10.5655 L 126.005,-10.6212 L 126.113,-10.6695 L 126.225,-10.7101 L 126.339,-10.7428
 L 126.455,-10.7674 L 126.572,-10.784 L 126.691,-10.7922 L 126.809,-10.7922 L 126.928,-10.784 L 127.045,-10.7674
 L 127.161,-10.7428 L 127.275,-10.7101 L 127.387,-10.6695 L 127.495,-10.6212 L 127.6,-10.5655 L 127.701,-10.5026
 L 127.797,-10.4329 L 127.888,-10.3566 L 127.973,-10.2742 L 128.052,-10.186 L 128.125,-10.0925 L 128.192,-9.99413
 L 128.251,-9.89136 L 128.303,-9.78471 L 128.347,-9.6747 L 128.384,-9.56184 L 128.413,-9.44672 L 128.433,-9.32985
 L 128.446,-9.21184 L 128.45,-9.09326 L 128.446,-8.97467 L 128.433,-8.85666 L 128.413,-8.73981 L 128.384,-8.62468
 L 128.347,-8.51183 L 128.303,-8.40181 L 128.251,-8.29515 L 128.192,-8.1924 L 128.125,-8.09402 L 128.052,-8.00052
 L 127.973,-7.91234 L 127.888,-7.82991 L 127.797,-7.75365 L 127.701,-7.6839 L 127.6,-7.62102 L 127.495,-7.56531
 L 127.387,-7.51704 L 127.275,-7.47646 L 127.161,-7.44376 L 127.045,-7.41908 L 126.928,-7.40257 L 126.809,-7.39429
 z
M 116.191,-7.39429 L 116.072,-7.40257 L 115.955,-7.41908 L 115.839,-7.44376 L 115.725,-7.47646 L 115.613,-7.51704
 L 115.505,-7.56531 L 115.4,-7.62102 L 115.299,-7.6839 L 115.203,-7.75365 L 115.112,-7.82991 L 115.027,-7.91234
 L 114.948,-8.00052 L 114.875,-8.09402 L 114.808,-8.1924 L 114.749,-8.29515 L 114.697,-8.40181 L 114.653,-8.51183
 L 114.616,-8.62468 L 114.587,-8.73981 L 114.567,-8.85666 L 114.554,-8.97467 L 114.55,-9.09326 L 114.554,-9.21184
 L 114.567,-9.32985 L 114.587,-9.44672 L 114.616,-9.56184 L 114.653,-9.6747 L 114.697,-9.78471 L 114.749,-9.89136
 L 114.808,-9.99413 L 114.875,-10.0925 L 114.948,-10.186 L 115.027,-10.2742 L 115.112,-10.3566 L 115.203,-10.4329
 L 115.299,-10.5026 L 115.4,-10.5655 L 115.505,-10.6212 L 115.613,-10.6695 L 115.725,-10.7101 L 115.839,-10.7428
 L 115.955,-10.7674 L 116.072,-10.784 L 116.191,-10.7922 L 116.309,-10.7922 L 116.428,-10.784 L 116.545,-10.7674
 L 116.661,-10.7428 L 116.775,-10.7101 L 116.887,-10.6695 L 116.995,-10.6212 L 117.1,-10.5655 L 117.201,-10.5026
 L 117.297,-10.4329 L 117.388,-10.3566 L 117.473,-10.2742 L 117.552,-10.186 L 117.625,-10.0925 L 117.692,-9.99413
 L 117.751,-9.89136 L 117.803,-9.78471 L 117.847,-9.6747 L 117.884,-9.56184 L 117.913,-9.44672 L 117.933,-9.32985
 L 117.946,-9.21184 L 117.95,-9.09326 L 117.946,-8.97467 L 117.933,-8.85666 L 117.913,-8.73981 L 117.884,-8.62468
 L 117.847,-8.51183 L 117.803,-8.40181 L 117.751,-8.29515 L 117.692,-8.1924 L 117.625,-8.09402 L 117.552,-8.00052
 L 117.473,-7.91234 L 117.388,-7.82991 L 117.297,-7.75365 L 117.201,-7.6839 L 117.1,-7.62102 L 116.995,-7.56531
 L 116.887,-7.51704 L 116.775,-7.47646 L 116.661,-7.44376 L 116.545,-7.41908 L 116.428,-7.40257 L 116.309,-7.39429
 z
M 121.326,4.99695 L 120.977,4.9726 L 120.632,4.92403 L 120.29,4.85147 L 119.955,4.75528 L 119.627,4.63591
 L 119.308,4.49396 L 119,4.33012 L 118.704,4.14519 L 118.422,3.94005 L 118.154,3.71571 L 117.903,3.47328
 L 117.67,3.21393 L 117.455,2.93892 L 117.26,2.64958 L 117.085,2.34735 L 116.932,2.03368 L 116.802,1.7101
 L 116.694,1.37817 L 116.609,1.03955 L 116.549,0.695862 L 116.512,0.34877 L 116.5,-0 L 116.512,-0.34877
 L 116.549,-0.695862 L 116.609,-1.03955 L 116.694,-1.37817 L 116.802,-1.7101 L 116.932,-2.03368 L 117.085,-2.34735
 L 117.26,-2.64958 L 117.455,-2.93892 L 117.67,-3.21393 L 117.903,-3.47328 L 118.154,-3.71571 L 118.422,-3.94005
 L 118.704,-4.14519 L 119,-4.33012 L 119.308,-4.49396 L 119.627,-4.63591 L 119.955,-4.75528 L 120.29,-4.85147
 L 120.632,-4.92403 L 120.977,-4.9726 L 121.326,-4.99695 L 121.674,-4.99695 L 122.023,-4.9726 L 122.368,-4.92403
 L 122.71,-4.85147 L 123.045,-4.75528 L 123.373,-4.63591 L 123.692,-4.49396 L 124,-4.33012 L 124.296,-4.14519
 L 124.578,-3.94005 L 124.846,-3.71571 L 125.097,-3.47328 L 125.33,-3.21393 L 125.545,-2.93892 L 125.74,-2.64958
 L 125.915,-2.34735 L 126.068,-2.03368 L 126.198,-1.7101 L 126.306,-1.37817 L 126.391,-1.03955 L 126.451,-0.695862
 L 126.488,-0.34877 L 126.5,-0 L 126.488,0.34877 L 126.451,0.695862 L 126.391,1.03955 L 126.306,1.37817
 L 126.198,1.7101 L 126.068,2.03368 L 125.915,2.34735 L 125.74,2.64958 L 125.545,2.93892 L 125.33,3.21393
 L 125.097,3.47328 L 124.846,3.71571 L 124.578,3.94005 L 124.296,4.14519 L 124,4.33012 L 123.692,4.49396
 L 123.373,4.63591 L 123.045,4.75528 L 122.71,4.85147 L 122.368,4.92403 L 122.023,4.9726 L 121.674,4.99695
 z
M -121.674,4.99695 L -122.023,4.9726 L -122.368,4.92403 L -122.71,4.85147 L -123.045,4.75528 L -123.373,4.63591
 L -123.692,4.49396 L -124,4.33012 L -124.296,4.14519 L -124.578,3.94005 L -124.846,3.71571 L -125.097,3.47328
 L -125.33,3.21393 L -125.545,2.93892 L -125.74,2.64958 L -125.915,2.34735 L -126.068,2.03368 L -126.198,1.7101
 L -126.306,1.37817 L -126.391,1.03955 L -126.451,0.695862 L -126.488,0.34877 L -126.5,-0 L -126.488,-0.34877
 L -126.451,-0.695862 L -126.391,-1.03955 L -126.306,-1.37817 L -126.198,-1.7101 L -126.068,-2.03368 L -125.915,-2.34735
 L -125.74,-2.64958 L -125.545,-2.93892 L -125.33,-3.21393 L -125.097,-3.47328 L -124.846,-3.71571 L -124.578,-3.94005
 L -124.296,-4.14519 L -124,-4.33012 L -123.692,-4.49396 L -123.373,-4.63591 L -123.045,-4.75528 L -122.71,-4.85147
 L -122.368,-4.92403 L -122.023,-4.9726 L -121.674,-4.99695 L -121.326,-4.99695 L -120.977,-4.9726 L -120.632,-4.92403
 L -120.29,-4.85147 L -119.955,-4.75528 L -119.627,-4.63591 L -119.308,-4.49396 L -119,-4.33012 L -118.704,-4.14519
 L -118.422,-3.94005 L -118.154,-3.71571 L -117.903,-3.47328 L -117.67,-3.21393 L -117.455,-2.93892 L -117.26,-2.64958
 L -117.085,-2.34735 L -116.932,-2.03368 L -116.802,-1.7101 L -116.694,-1.37817 L -116.609,-1.03955 L -116.549,-0.695862
 L -116.512,-0.34877 L -116.5,-0 L -116.512,0.34877 L -116.549,0.695862 L -116.609,1.03955 L -116.694,1.37817
 L -116.802,1.7101 L -116.932,2.03368 L -117.085,2.34735 L -117.26,2.64958 L -117.455,2.93892 L -117.67,3.21393
 L -117.903,3.47328 L -118.154,3.71571 L -118.422,3.94005 L -118.704,4.14519 L -119,4.33012 L -119.308,4.49396
 L -119.627,4.63591 L -119.955,4.75528 L -120.29,4.85147 L -120.632,4.92403 L -120.977,4.9726 L -121.326,4.99695
 z
M 126.691,10.7922 L 126.572,10.784 L 126.455,10.7674 L 126.339,10.7428 L 126.225,10.7101 L 126.113,10.6695
 L 126.005,10.6212 L 125.9,10.5655 L 125.799,10.5026 L 125.703,10.4329 L 125.612,10.3566 L 125.527,10.2742
 L 125.448,10.186 L 125.375,10.0925 L 125.308,9.99413 L 125.249,9.89136 L 125.197,9.78471 L 125.153,9.6747
 L 125.116,9.56184 L 125.087,9.44672 L 125.067,9.32985 L 125.054,9.21184 L 125.05,9.09326 L 125.054,8.97467
 L 125.067,8.85666 L 125.087,8.73981 L 125.116,8.62468 L 125.153,8.51183 L 125.197,8.40181 L 125.249,8.29515
 L 125.308,8.1924 L 125.375,8.09402 L 125.448,8.00052 L 125.527,7.91234 L 125.612,7.82991 L 125.703,7.75365
 L 125.799,7.6839 L 125.9,7.62102 L 126.005,7.56531 L 126.113,7.51704 L 126.225,7.47646 L 126.339,7.44376
 L 126.455,7.41908 L 126.572,7.40257 L 126.691,7.39429 L 126.809,7.39429 L 126.928,7.40257 L 127.045,7.41908
 L 127.161,7.44376 L 127.275,7.47646 L 127.387,7.51704 L 127.495,7.56531 L 127.6,7.62102 L 127.701,7.6839
 L 127.797,7.75365 L 127.888,7.82991 L 127.973,7.91234 L 128.052,8.00052 L 128.125,8.09402 L 128.192,8.1924
 L 128.251,8.29515 L 128.303,8.40181 L 128.347,8.51183 L 128.384,8.62468 L 128.413,8.73981 L 128.433,8.85666
 L 128.446,8.97467 L 128.45,9.09326 L 128.446,9.21184 L 128.433,9.32985 L 128.413,9.44672 L 128.384,9.56184
 L 128.347,9.6747 L 128.303,9.78471 L 128.251,9.89136 L 128.192,9.99413 L 128.125,10.0925 L 128.052,10.186
 L 127.973,10.2742 L 127.888,10.3566 L 127.797,10.4329 L 127.701,10.5026 L 127.6,10.5655 L 127.495,10.6212
 L 127.387,10.6695 L 127.275,10.7101 L 127.161,10.7428 L 127.045,10.7674 L 126.928,10.784 L 126.809,10.7922
 z
M -126.809,10.7922 L -126.928,10.784 L -127.045,10.7674 L -127.161,10.7428 L -127.275,10.7101 L -127.387,10.6695
 L -127.495,10.6212 L -127.6,10.5655 L -127.701,10.5026 L -127.797,10.4329 L -127.888,10.3566 L -127.973,10.2742
 L -128.052,10.186 L -128.125,10.0925 L -128.192,9.99413 L -128.251,9.89136 L -128.303,9.78471 L -128.347,9.6747
 L -128.384,9.56184 L -128.413,9.44672 L -128.433,9.32985 L -128.446,9.21184 L -128.45,9.09326 L -128.446,8.97467
 L -128.433,8.85666 L -128.413,8.73981 L -128.384,8.62468 L -128.347,8.51183 L -128.303,8.40181 L -128.251,8.29515
 L -128.192,8.1924 L -128.125,8.09402 L -128.052,8.00052 L -127.973,7.91234 L -127.888,7.82991 L -127.797,7.75365
 L -127.701,7.6839 L -127.6,7.62102 L -127.495,7.56531 L -127.387,7.51704 L -127.275,7.47646 L -127.161,7.44376
 L -127.045,7.41908 L -126.928,7.40257 L -126.809,7.39429 L -126.691,7.39429 L -126.572,7.40257 L -126.455,7.41908
 L -126.339,7.44376 L -126.225,7.47646 L -126.113,7.51704 L -126.005,7.56531 L -125.9,7.62102 L -125.799,7.6839
 L -125.703,7.75365 L -125.612,7.82991 L -125.527,7.91234 L -125.448,8.00052 L -125.375,8.09402 L -125.308,8.1924
 L -125.249,8.29515 L -125.197,8.40181 L -125.153,8.51183 L -125.116,8.62468 L -125.087,8.73981 L -125.067,8.85666
 L -125.054,8.97467 L -125.05,9.09326 L -125.054,9.21184 L -125.067,9.32985 L -125.087,9.44672 L -125.116,9.56184
 L -125.153,9.6747 L -125.197,9.78471 L -125.249,9.89136 L -125.308,9.99413 L -125.375,10.0925 L -125.448,10.186
 L -125.527,10.2742 L -125.612,10.3566 L -125.703,10.4329 L -125.799,10.5026 L -125.9,10.5655 L -126.005,10.6212
 L -126.113,10.6695 L -126.225,10.7101 L -126.339,10.7428 L -126.455,10.7674 L -126.572,10.784 L -126.691,10.7922
 z
M 116.191,10.7922 L 116.072,10.784 L 115.955,10.7674 L 115.839,10.7428 L 115.725,10.7101 L 115.613,10.6695
 L 115.505,10.6212 L 115.4,10.5655 L 115.299,10.5026 L 115.203,10.4329 L 115.112,10.3566 L 115.027,10.2742
 L 114.948,10.186 L 114.875,10.0925 L 114.808,9.99413 L 114.749,9.89136 L 114.697,9.78471 L 114.653,9.6747
 L 114.616,9.56184 L 114.587,9.44672 L 114.567,9.32985 L 114.554,9.21184 L 114.55,9.09326 L 114.554,8.97467
 L 114.567,8.85666 L 114.587,8.73981 L 114.616,8.62468 L 114.653,8.51183 L 114.697,8.40181 L 114.749,8.29515
 L 114.808,8.1924 L 114.875,8.09402 L 114.948,8.00052 L 115.027,7.91234 L 115.112,7.82991 L 115.203,7.75365
 L 115.299,7.6839 L 115.4,7.62102 L 115.505,7.56531 L 115.613,7.51704 L 115.725,7.47646 L 115.839,7.44376
 L 115.955,7.41908 L 116.072,7.40257 L 116.191,7.39429 L 116.309,7.39429 L 116.428,7.40257 L 116.545,7.41908
 L 116.661,7.44376 L 116.775,7.47646 L 116.887,7.51704 L 116.995,7.56531 L 117.1,7.62102 L 117.201,7.6839
 L 117.297,7.75365 L 117.388,7.82991 L 117.473,7.91234 L 117.552,8.00052 L 117.625,8.09402 L 117.692,8.1924
 L 117.751,8.29515 L 117.803,8.40181 L 117.847,8.51183 L 117.884,8.62468 L 117.913,8.73981 L 117.933,8.85666
 L 117.946,8.97467 L 117.95,9.09326 L 117.946,9.21184 L 117.933,9.32985 L 117.913,9.44672 L 117.884,9.56184
 L 117.847,9.6747 L 117.803,9.78471 L 117.751,9.89136 L 117.692,9.99413 L 117.625,10.0925 L 117.552,10.186
 L 117.473,10.2742 L 117.388,10.3566 L 117.297,10.4329 L 117.201,10.5026 L 117.1,10.5655 L 116.995,10.6212
 L 116.887,10.6695 L 116.775,10.7101 L 116.661,10.7428 L 116.545,10.7674 L 116.428,10.784 L 116.309,10.7922
 z
M -116.309,10.7922 L -116.428,10.784 L -116.545,10.7674 L -116.661,10.7428 L -116.775,10.7101 L -116.887,10.6695
 L -116.995,10.6212 L -117.1,10.5655 L -117.201,10.5026 L -117.297,10.4329 L -117.388,10.3566 L -117.473,10.2742
 L -117.552,10.186 L -117.625,10.0925 L -117.692,9.99413 L -117.751,9.89136 L -117.803,9.78471 L -117.847,9.6747
 L -117.884,9.56184 L -117.913,9.44672 L -117.933,9.32985 L -117.946,9.21184 L -117.95,9.09326 L -117.946,8.97467
 L -117.933,8.85666 L -117.913,8.73981 L -117.884,8.62468 L -117.847,8.51183 L -117.803,8.40181 L -117.751,8.29515
 L -117.692,8.1924 L -117.625,8.09402 L -117.552,8.00052 L -117.473,7.91234 L -117.388,7.82991 L -117.297,7.75365
 L -117.201,7.6839 L -117.1,7.62102 L -116.995,7.56531 L -116.887,7.51704 L -116.775,7.47646 L -116.661,7.44376
 L -116.545,7.41908 L -116.428,7.40257 L -116.309,7.39429 L -116.191,7.39429 L -116.072,7.40257 L -115.955,7.41908
 L -115.839,7.44376 L -115.725,7.47646 L -115.613,7.51704 L -115.505,7.56531 L -115.4,7.62102 L -115.299,7.6839
 L -115.203,7.75365 L -115.112,7.82991 L -115.027,7.91234 L -114.948,8.00052 L -114.875,8.09402 L -114.808,8.1924
 L -114.749,8.29515 L -114.697,8.40181 L -114.653,8.51183 L -114.616,8.62468 L -114.587,8.73981 L -114.567,8.85666
 L -114.554,8.97467 L -114.55,9.09326 L -114.554,9.21184 L -114.567,9.32985 L -114.587,9.44672 L -114.616,9.56184
 L -114.653,9.6747 L -114.697,9.78471 L -114.749,9.89136 L -114.808,9.99413 L -114.875,10.0925 L -114.948,10.186
 L -115.027,10.2742 L -115.112,10.3566 L -115.203,10.4329 L -115.299,10.5026 L -115.4,10.5655 L -115.505,10.6212
 L -115.613,10.6695 L -115.725,10.7101 L -115.839,10.7428 L -115.955,10.7674 L -116.072,10.784 L -116.191,10.7922
 z
M -102.07,78.9988 L -102.209,78.989 L -102.347,78.9696 L -102.484,78.9406 L -102.618,78.9021 L -102.749,78.8544
 L -102.877,78.7976 L -103,78.732 L -103.118,78.6581 L -103.231,78.576 L -103.338,78.4863 L -103.439,78.3893
 L -103.532,78.2856 L -103.618,78.1756 L -103.696,78.0598 L -103.766,77.9389 L -103.827,77.8135 L -103.879,77.684
 L -103.923,77.5513 L -103.956,77.4158 L -103.981,77.2783 L -103.995,77.1395 L -104,77 L -103.995,76.8605
 L -103.981,76.7216 L -103.956,76.5842 L -103.923,76.4487 L -103.879,76.3159 L -103.827,76.1865 L -103.766,76.0611
 L -103.696,75.9402 L -103.618,75.8244 L -103.532,75.7144 L -103.439,75.6107 L -103.338,75.5137 L -103.231,75.424
 L -103.118,75.3419 L -103,75.2679 L -102.877,75.2024 L -102.749,75.1456 L -102.618,75.0979 L -102.484,75.0594
 L -102.347,75.0304 L -102.209,75.011 L -102.07,75.0012 L -101.93,75.0012 L -101.791,75.011 L -101.653,75.0304
 L -101.516,75.0594 L -101.382,75.0979 L -101.251,75.1456 L -101.123,75.2024 L -101,75.2679 L -100.882,75.3419
 L -100.769,75.424 L -100.662,75.5137 L -100.561,75.6107 L -100.468,75.7144 L -100.382,75.8244 L -100.304,75.9402
 L -100.234,76.0611 L -100.173,76.1865 L -100.121,76.3159 L -100.077,76.4487 L -100.044,76.5842 L -100.019,76.7216
 L -100.005,76.8605 L -100,77 L -100.005,77.1395 L -100.019,77.2783 L -100.044,77.4158 L -100.077,77.5513
 L -100.121,77.684 L -100.173,77.8135 L -100.234,77.9389 L -100.304,78.0598 L -100.382,78.1756 L -100.468,78.2856
 L -100.561,78.3893 L -100.662,78.4863 L -100.769,78.576 L -100.882,78.6581 L -101,78.732 L -101.123,78.7976
 L -101.251,78.8544 L -101.382,78.9021 L -101.516,78.9406 L -101.653,78.9696 L -101.791,78.989 L -101.93,78.9988
 z
M 101.93,78.9988 L 101.791,78.989 L 101.653,78.9696 L 101.516,78.9406 L 101.382,78.9021 L 101.251,78.8544
 L 101.123,78.7976 L 101,78.732 L 100.882,78.6581 L 100.769,78.576 L 100.662,78.4863 L 100.561,78.3893
 L 100.468,78.2856 L 100.382,78.1756 L 100.304,78.0598 L 100.234,77.9389 L 100.173,77.8135 L 100.121,77.684
 L 100.077,77.5513 L 100.044,77.4158 L 100.019,77.2783 L 100.005,77.1395 L 100,77 L 100.005,76.8605
 L 100.019,76.7216 L 100.044,76.5842 L 100.077,76.4487 L 100.121,76.3159 L 100.173,76.1865 L 100.234,76.0611
 L 100.304,75.9402 L 100.382,75.8244 L 100.468,75.7144 L 100.561,75.6107 L 100.662,75.5137 L 100.769,75.424
 L 100.882,75.3419 L 101,75.2679 L 101.123,75.2024 L 101.251,75.1456 L 101.382,75.0979 L 101.516,75.0594
 L 101.653,75.0304 L 101.791,75.011 L 101.93,75.0012 L 102.07,75.0012 L 102.209,75.011 L 102.347,75.0304
 L 102.484,75.0594 L 102.618,75.0979 L 102.749,75.1456 L 102.877,75.2024 L 103,75.2679 L 103.118,75.3419
 L 103.231,75.424 L 103.338,75.5137 L 103.439,75.6107 L 103.532,75.7144 L 103.618,75.8244 L 103.696,75.9402
 L 103.766,76.0611 L 103.827,76.1865 L 103.879,76.3159 L 103.923,76.4487 L 103.956,76.5842 L 103.981,76.7216
 L 103.995,76.8605 L 104,77 L 103.995,77.1395 L 103.981,77.2783 L 103.956,77.4158 L 103.923,77.5513
 L 103.879,77.684 L 103.827,77.8135 L 103.766,77.9389 L 103.696,78.0598 L 103.618,78.1756 L 103.532,78.2856
 L 103.439,78.3893 L 103.338,78.4863 L 103.231,78.576 L 103.118,78.6581 L 103,78.732 L 102.877,78.7976
 L 102.749,78.8544 L 102.618,78.9021 L 102.484,78.9406 L 102.347,78.9696 L 102.209,78.989 L 102.07,78.9988
 z
M -77.0698,103.999 L -77.209,103.989 L -77.3473,103.97 L -77.4838,103.941 L -77.618,103.902 L -77.7492,103.854
 L -77.8767,103.798 L -78,103.732 L -78.1184,103.658 L -78.2313,103.576 L -78.3383,103.486 L -78.4387,103.389
 L -78.5321,103.286 L -78.618,103.176 L -78.6961,103.06 L -78.7659,102.939 L -78.8271,102.813 L -78.8794,102.684
 L -78.9225,102.551 L -78.9563,102.416 L -78.9805,102.278 L -78.9951,102.14 L -79,102 L -78.9951,101.86
 L -78.9805,101.722 L -78.9563,101.584 L -78.9225,101.449 L -78.8794,101.316 L -78.8271,101.187 L -78.7659,101.061
 L -78.6961,100.94 L -78.618,100.824 L -78.5321,100.714 L -78.4387,100.611 L -78.3383,100.514 L -78.2313,100.424
 L -78.1184,100.342 L -78,100.268 L -77.8767,100.202 L -77.7492,100.146 L -77.618,100.098 L -77.4838,100.059
 L -77.3473,100.03 L -77.209,100.011 L -77.0698,100.001 L -76.9302,100.001 L -76.7909,100.011 L -76.6527,100.03
 L -76.5161,100.059 L -76.382,100.098 L -76.2508,100.146 L -76.1232,100.202 L -76,100.268 L -75.8816,100.342
 L -75.7687,100.424 L -75.6617,100.514 L -75.5613,100.611 L -75.4679,100.714 L -75.382,100.824 L -75.3039,100.94
 L -75.2341,101.061 L -75.1729,101.187 L -75.1206,101.316 L -75.0775,101.449 L -75.0437,101.584 L -75.0195,101.722
 L -75.0049,101.86 L -75,102 L -75.0049,102.14 L -75.0195,102.278 L -75.0437,102.416 L -75.0775,102.551
 L -75.1206,102.684 L -75.1729,102.813 L -75.2341,102.939 L -75.3039,103.06 L -75.382,103.176 L -75.4679,103.286
 L -75.5613,103.389 L -75.6617,103.486 L -75.7687,103.576 L -75.8816,103.658 L -76,103.732 L -76.1232,103.798
 L -76.2508,103.854 L -76.382,103.902 L -76.5161,103.941 L -76.6527,103.97 L -76.7909,103.989 L -76.9302,103.999
 z
M 76.9302,103.999 L 76.7909,103.989 L 76.6527,103.97 L 76.5161,103.941 L 76.382,103.902 L 76.2508,103.854
 L 76.1232,103.798 L 76,103.732 L 75.8816,103.658 L 75.7687,103.576 L 75.6617,103.486 L 75.5613,103.389
 L 75.4679,103.286 L 75.382,103.176 L 75.3039,103.06 L 75.2341,102.939 L 75.1729,102.813 L 75.1206,102.684
 L 75.0775,102.551 L 75.0437,102.416 L 75.0195,102.278 L 75.0049,102.14 L 75,102 L 75.0049,101.86
 L 75.0195,101.722 L 75.0437,101.584 L 75.0775,101.449 L 75.1206,101.316 L 75.1729,101.187 L 75.2341,101.061
 L 75.3039,100.94 L 75.382,100.824 L 75.4679,100.714 L 75.5613,100.611 L 75.6617,100.514 L 75.7687,100.424
 L 75.8816,100.342 L 76,100.268 L 76.1232,100.202 L 76.2508,100.146 L 76.382,100.098 L 76.5161,100.059
 L 76.6527,100.03 L 76.7909,100.011 L 76.9302,100.001 L 77.0698,100.001 L 77.209,100.011 L 77.3473,100.03
 L 77.4838,100.059 L 77.618,100.098 L 77.7492,100.146 L 77.8767,100.202 L 78,100.268 L 78.1184,100.342
 L 78.2313,100.424 L 78.3383,100.514 L 78.4387,100.611 L 78.5321,100.714 L 78.618,100.824 L 78.6961,100.94
 L 78.7659,101.061 L 78.8271,101.187 L 78.8794,101.316 L 78.9225,101.449 L 78.9563,101.584 L 78.9805,101.722
 L 78.9951,101.86 L 79,102 L 78.9951,102.14 L 78.9805,102.278 L 78.9563,102.416 L 78.9225,102.551
 L 78.8794,102.684 L 78.8271,102.813 L 78.7659,102.939 L 78.6961,103.06 L 78.618,103.176 L 78.5321,103.286
 L 78.4387,103.389 L 78.3383,103.486 L 78.2313,103.576 L 78.1184,103.658 L 78,103.732 L 77.8767,103.798
 L 77.7492,103.854 L 77.618,103.902 L 77.4838,103.941 L 77.3473,103.97 L 77.209,103.989 L 77.0698,103.999
 z
M -104.552,105.999 L -104.657,105.992 L -104.76,105.977 L -104.863,105.955 L -104.964,105.927 L -105.062,105.891
 L -105.158,105.848 L -105.25,105.799 L -105.339,105.744 L -105.423,105.682 L -105.504,105.615 L -105.579,105.542
 L -105.649,105.464 L -105.714,105.382 L -105.772,105.295 L -105.824,105.204 L -105.87,105.11 L -105.91,105.013
 L -105.942,104.913 L -105.967,104.812 L -105.985,104.709 L -105.996,104.605 L -106,104.5 L -105.996,104.395
 L -105.985,104.291 L -105.967,104.188 L -105.942,104.087 L -105.91,103.987 L -105.87,103.89 L -105.824,103.796
 L -105.772,103.705 L -105.714,103.618 L -105.649,103.536 L -105.579,103.458 L -105.504,103.385 L -105.423,103.318
 L -105.339,103.256 L -105.25,103.201 L -105.158,103.152 L -105.062,103.109 L -104.964,103.073 L -104.863,103.045
 L -104.76,103.023 L -104.657,103.008 L -104.552,103.001 L -104.448,103.001 L -104.343,103.008 L -104.24,103.023
 L -104.137,103.045 L -104.036,103.073 L -103.938,103.109 L -103.842,103.152 L -103.75,103.201 L -103.661,103.256
 L -103.577,103.318 L -103.496,103.385 L -103.421,103.458 L -103.351,103.536 L -103.286,103.618 L -103.228,103.705
 L -103.176,103.796 L -103.13,103.89 L -103.09,103.987 L -103.058,104.087 L -103.033,104.188 L -103.015,104.291
 L -103.004,104.395 L -103,104.5 L -103.004,104.605 L -103.015,104.709 L -103.033,104.812 L -103.058,104.913
 L -103.09,105.013 L -103.13,105.11 L -103.176,105.204 L -103.228,105.295 L -103.286,105.382 L -103.351,105.464
 L -103.421,105.542 L -103.496,105.615 L -103.577,105.682 L -103.661,105.744 L -103.75,105.799 L -103.842,105.848
 L -103.938,105.891 L -104.036,105.927 L -104.137,105.955 L -104.24,105.977 L -104.343,105.992 L -104.448,105.999
 z
M 104.448,105.999 L 104.343,105.992 L 104.24,105.977 L 104.137,105.955 L 104.036,105.927 L 103.938,105.891
 L 103.842,105.848 L 103.75,105.799 L 103.661,105.744 L 103.577,105.682 L 103.496,105.615 L 103.421,105.542
 L 103.351,105.464 L 103.286,105.382 L 103.228,105.295 L 103.176,105.204 L 103.13,105.11 L 103.09,105.013
 L 103.058,104.913 L 103.033,104.812 L 103.015,104.709 L 103.004,104.605 L 103,104.5 L 103.004,104.395
 L 103.015,104.291 L 103.033,104.188 L 103.058,104.087 L 103.09,103.987 L 103.13,103.89 L 103.176,103.796
 L 103.228,103.705 L 103.286,103.618 L 103.351,103.536 L 103.421,103.458 L 103.496,103.385 L 103.577,103.318
 L 103.661,103.256 L 103.75,103.201 L 103.842,103.152 L 103.938,103.109 L 104.036,103.073 L 104.137,103.045
 L 104.24,103.023 L 104.343,103.008 L 104.448,103.001 L 104.552,103.001 L 104.657,103.008 L 104.76,103.023
 L 104.863,103.045 L 104.964,103.073 L 105.062,103.109 L 105.158,103.152 L 105.25,103.201 L 105.339,103.256
 L 105.423,103.318 L 105.504,103.385 L 105.579,103.458 L 105.649,103.536 L 105.714,103.618 L 105.772,103.705
 L 105.824,103.796 L 105.87,103.89 L 105.91,103.987 L 105.942,104.087 L 105.967,104.188 L 105.985,104.291
 L 105.996,104.395 L 106,104.5 L 105.996,104.605 L 105.985,104.709 L 105.967,104.812 L 105.942,104.913
 L 105.91,105.013 L 105.87,105.11 L 105.824,105.204 L 105.772,105.295 L 105.714,105.382 L 105.649,105.464
 L 105.579,105.542 L 105.504,105.615 L 105.423,105.682 L 105.339,105.744 L 105.25,105.799 L 105.158,105.848
 L 105.062,105.891 L 104.964,105.927 L 104.863,105.955 L 104.76,105.977 L 104.657,105.992 L 104.552,105.999
 z
" stroke="black" fill="lightgray" stroke-width="0.5"/></svg>
