  0
SECTION
  2
BLOCKS
  0
ENDSEC
  0
SECTION
  2
ENTITIES
  0
LINE
  8
0
 10
107
 20
-65.0538
 11
150.5
 21
-19.0538
  0
LINE
  8
0
 10
150.5
 20
-19.0538
 11
150.5
 21
19.0538
  0
LINE
  8
0
 10
150.5
 20
19.0538
 11
107
 21
65.0538
  0
LINE
  8
0
 10
107
 20
65.0538
 11
107
 21
107
  0
LINE
  8
0
 10
107
 20
107
 11
-107
 21
107
  0
LINE
  8
0
 10
-107
 20
107
 11
-107
 21
65.0538
  0
LINE
  8
0
 10
-107
 20
65.0538
 11
-150.5
 21
19.0538
  0
LINE
  8
0
 10
-150.5
 20
19.0538
 11
-150.5
 21
-19.0538
  0
LINE
  8
0
 10
-150.5
 20
-19.0538
 11
-107
 21
-65.0538
  0
LINE
  8
0
 10
-107
 20
-65.0538
 11
-107
 21
-107
  0
LINE
  8
0
 10
-107
 20
-107
 11
107
 21
-107
  0
LINE
  8
0
 10
107
 20
-107
 11
107
 21
-65.0538
  0
LINE
  8
0
 10
104.448
 20
103.001
 11
104.343
 21
103.008
  0
LINE
  8
0
 10
104.343
 20
103.008
 11
104.24
 21
103.023
  0
LINE
  8
0
 10
104.24
 20
103.023
 11
104.137
 21
103.045
  0
LINE
  8
0
 10
104.137
 20
103.045
 11
104.036
 21
103.073
  0
LINE
  8
0
 10
104.036
 20
103.073
 11
103.938
 21
103.109
  0
LINE
  8
0
 10
103.938
 20
103.109
 11
103.842
 21
103.152
  0
LINE
  8
0
 10
103.842
 20
103.152
 11
103.75
 21
103.201
  0
LINE
  8
0
 10
103.75
 20
103.201
 11
103.661
 21
103.256
  0
LINE
  8
0
 10
103.661
 20
103.256
 11
103.577
 21
103.318
  0
LINE
  8
0
 10
103.577
 20
103.318
 11
103.496
 21
103.385
  0
LINE
  8
0
 10
103.496
 20
103.385
 11
103.421
 21
103.458
  0
LINE
  8
0
 10
103.421
 20
103.458
 11
103.351
 21
103.536
  0
LINE
  8
0
 10
103.351
 20
103.536
 11
103.286
 21
103.618
  0
LINE
  8
0
 10
103.286
 20
103.618
 11
103.228
 21
103.705
  0
LINE
  8
0
 10
103.228
 20
103.705
 11
103.176
 21
103.796
  0
LINE
  8
0
 10
103.176
 20
103.796
 11
103.13
 21
103.89
  0
LINE
  8
0
 10
103.13
 20
103.89
 11
103.09
 21
103.987
  0
LINE
  8
0
 10
103.09
 20
103.987
 11
103.058
 21
104.087
  0
LINE
  8
0
 10
103.058
 20
104.087
 11
103.033
 21
104.188
  0
LINE
  8
0
 10
103.033
 20
104.188
 11
103.015
 21
104.291
  0
LINE
  8
0
 10
103.015
 20
104.291
 11
103.004
 21
104.395
  0
LINE
  8
0
 10
103.004
 20
104.395
 11
103
 21
104.5
  0
LINE
  8
0
 10
103
 20
104.5
 11
103.004
 21
104.605
  0
LINE
  8
0
 10
103.004
 20
104.605
 11
103.015
 21
104.709
  0
LINE
  8
0
 10
103.015
 20
104.709
 11
103.033
 21
104.812
  0
LINE
  8
0
 10
103.033
 20
104.812
 11
103.058
 21
104.913
  0
LINE
  8
0
 10
103.058
 20
104.913
 11
103.09
 21
105.013
  0
LINE
  8
0
 10
103.09
 20
105.013
 11
103.13
 21
105.11
  0
LINE
  8
0
 10
103.13
 20
105.11
 11
103.176
 21
105.204
  0
LINE
  8
0
 10
103.176
 20
105.204
 11
103.228
 21
105.295
  0
LINE
  8
0
 10
103.228
 20
105.295
 11
103.286
 21
105.382
  0
LINE
  8
0
 10
103.286
 20
105.382
 11
103.351
 21
105.464
  0
LINE
  8
0
 10
103.351
 20
105.464
 11
103.421
 21
105.542
  0
LINE
  8
0
 10
103.421
 20
105.542
 11
103.496
 21
105.615
  0
LINE
  8
0
 10
103.496
 20
105.615
 11
103.577
 21
105.682
  0
LINE
  8
0
 10
103.577
 20
105.682
 11
103.661
 21
105.744
  0
LINE
  8
0
 10
103.661
 20
105.744
 11
103.75
 21
105.799
  0
LINE
  8
0
 10
103.75
 20
105.799
 11
103.842
 21
105.848
  0
LINE
  8
0
 10
103.842
 20
105.848
 11
103.938
 21
105.891
  0
LINE
  8
0
 10
103.938
 20
105.891
 11
104.036
 21
105.927
  0
LINE
  8
0
 10
104.036
 20
105.927
 11
104.137
 21
105.955
  0
LINE
  8
0
 10
104.137
 20
105.955
 11
104.24
 21
105.977
  0
LINE
  8
0
 10
104.24
 20
105.977
 11
104.343
 21
105.992
  0
LINE
  8
0
 10
104.343
 20
105.992
 11
104.448
 21
105.999
  0
LINE
  8
0
 10
104.448
 20
105.999
 11
104.552
 21
105.999
  0
LINE
  8
0
 10
104.552
 20
105.999
 11
104.657
 21
105.992
  0
LINE
  8
0
 10
104.657
 20
105.992
 11
104.76
 21
105.977
  0
LINE
  8
0
 10
104.76
 20
105.977
 11
104.863
 21
105.955
  0
LINE
  8
0
 10
104.863
 20
105.955
 11
104.964
 21
105.927
  0
LINE
  8
0
 10
104.964
 20
105.927
 11
105.062
 21
105.891
  0
LINE
  8
0
 10
105.062
 20
105.891
 11
105.158
 21
105.848
  0
LINE
  8
0
 10
105.158
 20
105.848
 11
105.25
 21
105.799
  0
LINE
  8
0
 10
105.25
 20
105.799
 11
105.339
 21
105.744
  0
LINE
  8
0
 10
105.339
 20
105.744
 11
105.423
 21
105.682
  0
LINE
  8
0
 10
105.423
 20
105.682
 11
105.504
 21
105.615
  0
LINE
  8
0
 10
105.504
 20
105.615
 11
105.579
 21
105.542
  0
LINE
  8
0
 10
105.579
 20
105.542
 11
105.649
 21
105.464
  0
LINE
  8
0
 10
105.649
 20
105.464
 11
105.714
 21
105.382
  0
LINE
  8
0
 10
105.714
 20
105.382
 11
105.772
 21
105.295
  0
LINE
  8
0
 10
105.772
 20
105.295
 11
105.824
 21
105.204
  0
LINE
  8
0
 10
105.824
 20
105.204
 11
105.87
 21
105.11
  0
LINE
  8
0
 10
105.87
 20
105.11
 11
105.91
 21
105.013
  0
LINE
  8
0
 10
105.91
 20
105.013
 11
105.942
 21
104.913
  0
LINE
  8
0
 10
105.942
 20
104.913
 11
105.967
 21
104.812
  0
LINE
  8
0
 10
105.967
 20
104.812
 11
105.985
 21
104.709
  0
LINE
  8
0
 10
105.985
 20
104.709
 11
105.996
 21
104.605
  0
LINE
  8
0
 10
105.996
 20
104.605
 11
106
 21
104.5
  0
LINE
  8
0
 10
106
 20
104.5
 11
105.996
 21
104.395
  0
LINE
  8
0
 10
105.996
 20
104.395
 11
105.985
 21
104.291
  0
LINE
  8
0
 10
105.985
 20
104.291
 11
105.967
 21
104.188
  0
LINE
  8
0
 10
105.967
 20
104.188
 11
105.942
 21
104.087
  0
LINE
  8
0
 10
105.942
 20
104.087
 11
105.91
 21
103.987
  0
LINE
  8
0
 10
105.91
 20
103.987
 11
105.87
 21
103.89
  0
LINE
  8
0
 10
105.87
 20
103.89
 11
105.824
 21
103.796
  0
LINE
  8
0
 10
105.824
 20
103.796
 11
105.772
 21
103.705
  0
LINE
  8
0
 10
105.772
 20
103.705
 11
105.714
 21
103.618
  0
LINE
  8
0
 10
105.714
 20
103.618
 11
105.649
 21
103.536
  0
LINE
  8
0
 10
105.649
 20
103.536
 11
105.579
 21
103.458
  0
LINE
  8
0
 10
105.579
 20
103.458
 11
105.504
 21
103.385
  0
LINE
  8
0
 10
105.504
 20
103.385
 11
105.423
 21
103.318
  0
LINE
  8
0
 10
105.423
 20
103.318
 11
105.339
 21
103.256
  0
LINE
  8
0
 10
105.339
 20
103.256
 11
105.25
 21
103.201
  0
LINE
  8
0
 10
105.25
 20
103.201
 11
105.158
 21
103.152
  0
LINE
  8
0
 10
105.158
 20
103.152
 11
105.062
 21
103.109
  0
LINE
  8
0
 10
105.062
 20
103.109
 11
104.964
 21
103.073
  0
LINE
  8
0
 10
104.964
 20
103.073
 11
104.863
 21
103.045
  0
LINE
  8
0
 10
104.863
 20
103.045
 11
104.76
 21
103.023
  0
LINE
  8
0
 10
104.76
 20
103.023
 11
104.657
 21
103.008
  0
LINE
  8
0
 10
104.657
 20
103.008
 11
104.552
 21
103.001
  0
LINE
  8
0
 10
104.552
 20
103.001
 11
104.448
 21
103.001
  0
LINE
  8
0
 10
-104.552
 20
103.001
 11
-104.657
 21
103.008
  0
LINE
  8
0
 10
-104.657
 20
103.008
 11
-104.76
 21
103.023
  0
LINE
  8
0
 10
-104.76
 20
103.023
 11
-104.863
 21
103.045
  0
LINE
  8
0
 10
-104.863
 20
103.045
 11
-104.964
 21
103.073
  0
LINE
  8
0
 10
-104.964
 20
103.073
 11
-105.062
 21
103.109
  0
LINE
  8
0
 10
-105.062
 20
103.109
 11
-105.158
 21
103.152
  0
LINE
  8
0
 10
-105.158
 20
103.152
 11
-105.25
 21
103.201
  0
LINE
  8
0
 10
-105.25
 20
103.201
 11
-105.339
 21
103.256
  0
LINE
  8
0
 10
-105.339
 20
103.256
 11
-105.423
 21
103.318
  0
LINE
  8
0
 10
-105.423
 20
103.318
 11
-105.504
 21
103.385
  0
LINE
  8
0
 10
-105.504
 20
103.385
 11
-105.579
 21
103.458
  0
LINE
  8
0
 10
-105.579
 20
103.458
 11
-105.649
 21
103.536
  0
LINE
  8
0
 10
-105.649
 20
103.536
 11
-105.714
 21
103.618
  0
LINE
  8
0
 10
-105.714
 20
103.618
 11
-105.772
 21
103.705
  0
LINE
  8
0
 10
-105.772
 20
103.705
 11
-105.824
 21
103.796
  0
LINE
  8
0
 10
-105.824
 20
103.796
 11
-105.87
 21
103.89
  0
LINE
  8
0
 10
-105.87
 20
103.89
 11
-105.91
 21
103.987
  0
LINE
  8
0
 10
-105.91
 20
103.987
 11
-105.942
 21
104.087
  0
LINE
  8
0
 10
-105.942
 20
104.087
 11
-105.967
 21
104.188
  0
LINE
  8
0
 10
-105.967
 20
104.188
 11
-105.985
 21
104.291
  0
LINE
  8
0
 10
-105.985
 20
104.291
 11
-105.996
 21
104.395
  0
LINE
  8
0
 10
-105.996
 20
104.395
 11
-106
 21
104.5
  0
LINE
  8
0
 10
-106
 20
104.5
 11
-105.996
 21
104.605
  0
LINE
  8
0
 10
-105.996
 20
104.605
 11
-105.985
 21
104.709
  0
LINE
  8
0
 10
-105.985
 20
104.709
 11
-105.967
 21
104.812
  0
LINE
  8
0
 10
-105.967
 20
104.812
 11
-105.942
 21
104.913
  0
LINE
  8
0
 10
-105.942
 20
104.913
 11
-105.91
 21
105.013
  0
LINE
  8
0
 10
-105.91
 20
105.013
 11
-105.87
 21
105.11
  0
LINE
  8
0
 10
-105.87
 20
105.11
 11
-105.824
 21
105.204
  0
LINE
  8
0
 10
-105.824
 20
105.204
 11
-105.772
 21
105.295
  0
LINE
  8
0
 10
-105.772
 20
105.295
 11
-105.714
 21
105.382
  0
LINE
  8
0
 10
-105.714
 20
105.382
 11
-105.649
 21
105.464
  0
LINE
  8
0
 10
-105.649
 20
105.464
 11
-105.579
 21
105.542
  0
LINE
  8
0
 10
-105.579
 20
105.542
 11
-105.504
 21
105.615
  0
LINE
  8
0
 10
-105.504
 20
105.615
 11
-105.423
 21
105.682
  0
LINE
  8
0
 10
-105.423
 20
105.682
 11
-105.339
 21
105.744
  0
LINE
  8
0
 10
-105.339
 20
105.744
 11
-105.25
 21
105.799
  0
LINE
  8
0
 10
-105.25
 20
105.799
 11
-105.158
 21
105.848
  0
LINE
  8
0
 10
-105.158
 20
105.848
 11
-105.062
 21
105.891
  0
LINE
  8
0
 10
-105.062
 20
105.891
 11
-104.964
 21
105.927
  0
LINE
  8
0
 10
-104.964
 20
105.927
 11
-104.863
 21
105.955
  0
LINE
  8
0
 10
-104.863
 20
105.955
 11
-104.76
 21
105.977
  0
LINE
  8
0
 10
-104.76
 20
105.977
 11
-104.657
 21
105.992
  0
LINE
  8
0
 10
-104.657
 20
105.992
 11
-104.552
 21
105.999
  0
LINE
  8
0
 10
-104.552
 20
105.999
 11
-104.448
 21
105.999
  0
LINE
  8
0
 10
-104.448
 20
105.999
 11
-104.343
 21
105.992
  0
LINE
  8
0
 10
-104.343
 20
105.992
 11
-104.24
 21
105.977
  0
LINE
  8
0
 10
-104.24
 20
105.977
 11
-104.137
 21
105.955
  0
LINE
  8
0
 10
-104.137
 20
105.955
 11
-104.036
 21
105.927
  0
LINE
  8
0
 10
-104.036
 20
105.927
 11
-103.938
 21
105.891
  0
LINE
  8
0
 10
-103.938
 20
105.891
 11
-103.842
 21
105.848
  0
LINE
  8
0
 10
-103.842
 20
105.848
 11
-103.75
 21
105.799
  0
LINE
  8
0
 10
-103.75
 20
105.799
 11
-103.661
 21
105.744
  0
LINE
  8
0
 10
-103.661
 20
105.744
 11
-103.577
 21
105.682
  0
LINE
  8
0
 10
-103.577
 20
105.682
 11
-103.496
 21
105.615
  0
LINE
  8
0
 10
-103.496
 20
105.615
 11
-103.421
 21
105.542
  0
LINE
  8
0
 10
-103.421
 20
105.542
 11
-103.351
 21
105.464
  0
LINE
  8
0
 10
-103.351
 20
105.464
 11
-103.286
 21
105.382
  0
LINE
  8
0
 10
-103.286
 20
105.382
 11
-103.228
 21
105.295
  0
LINE
  8
0
 10
-103.228
 20
105.295
 11
-103.176
 21
105.204
  0
LINE
  8
0
 10
-103.176
 20
105.204
 11
-103.13
 21
105.11
  0
LINE
  8
0
 10
-103.13
 20
105.11
 11
-103.09
 21
105.013
  0
LINE
  8
0
 10
-103.09
 20
105.013
 11
-103.058
 21
104.913
  0
LINE
  8
0
 10
-103.058
 20
104.913
 11
-103.033
 21
104.812
  0
LINE
  8
0
 10
-103.033
 20
104.812
 11
-103.015
 21
104.709
  0
LINE
  8
0
 10
-103.015
 20
104.709
 11
-103.004
 21
104.605
  0
LINE
  8
0
 10
-103.004
 20
104.605
 11
-103
 21
104.5
  0
LINE
  8
0
 10
-103
 20
104.5
 11
-103.004
 21
104.395
  0
LINE
  8
0
 10
-103.004
 20
104.395
 11
-103.015
 21
104.291
  0
LINE
  8
0
 10
-103.015
 20
104.291
 11
-103.033
 21
104.188
  0
LINE
  8
0
 10
-103.033
 20
104.188
 11
-103.058
 21
104.087
  0
LINE
  8
0
 10
-103.058
 20
104.087
 11
-103.09
 21
103.987
  0
LINE
  8
0
 10
-103.09
 20
103.987
 11
-103.13
 21
103.89
  0
LINE
  8
0
 10
-103.13
 20
103.89
 11
-103.176
 21
103.796
  0
LINE
  8
0
 10
-103.176
 20
103.796
 11
-103.228
 21
103.705
  0
LINE
  8
0
 10
-103.228
 20
103.705
 11
-103.286
 21
103.618
  0
LINE
  8
0
 10
-103.286
 20
103.618
 11
-103.351
 21
103.536
  0
LINE
  8
0
 10
-103.351
 20
103.536
 11
-103.421
 21
103.458
  0
LINE
  8
0
 10
-103.421
 20
103.458
 11
-103.496
 21
103.385
  0
LINE
  8
0
 10
-103.496
 20
103.385
 11
-103.577
 21
103.318
  0
LINE
  8
0
 10
-103.577
 20
103.318
 11
-103.661
 21
103.256
  0
LINE
  8
0
 10
-103.661
 20
103.256
 11
-103.75
 21
103.201
  0
LINE
  8
0
 10
-103.75
 20
103.201
 11
-103.842
 21
103.152
  0
LINE
  8
0
 10
-103.842
 20
103.152
 11
-103.938
 21
103.109
  0
LINE
  8
0
 10
-103.938
 20
103.109
 11
-104.036
 21
103.073
  0
LINE
  8
0
 10
-104.036
 20
103.073
 11
-104.137
 21
103.045
  0
LINE
  8
0
 10
-104.137
 20
103.045
 11
-104.24
 21
103.023
  0
LINE
  8
0
 10
-104.24
 20
103.023
 11
-104.343
 21
103.008
  0
LINE
  8
0
 10
-104.343
 20
103.008
 11
-104.448
 21
103.001
  0
LINE
  8
0
 10
-104.448
 20
103.001
 11
-104.552
 21
103.001
  0
LINE
  8
0
 10
-0.0523376
 20
103.001
 11
-0.156784
 21
103.008
  0
LINE
  8
0
 10
-0.156784
 20
103.008
 11
-0.260468
 21
103.023
  0
LINE
  8
0
 10
-0.260468
 20
103.023
 11
-0.362869
 21
103.045
  0
LINE
  8
0
 10
-0.362869
 20
103.045
 11
-0.463516
 21
103.073
  0
LINE
  8
0
 10
-0.463516
 20
103.073
 11
-0.561905
 21
103.109
  0
LINE
  8
0
 10
-0.561905
 20
103.109
 11
-0.657547
 21
103.152
  0
LINE
  8
0
 10
-0.657547
 20
103.152
 11
-0.75
 21
103.201
  0
LINE
  8
0
 10
-0.75
 20
103.201
 11
-0.838776
 21
103.256
  0
LINE
  8
0
 10
-0.838776
 20
103.256
 11
-0.923477
 21
103.318
  0
LINE
  8
0
 10
-0.923477
 20
103.318
 11
-1.00369
 21
103.385
  0
LINE
  8
0
 10
-1.00369
 20
103.385
 11
-1.07899
 21
103.458
  0
LINE
  8
0
 10
-1.07899
 20
103.458
 11
-1.14906
 21
103.536
  0
LINE
  8
0
 10
-1.14906
 20
103.536
 11
-1.21352
 21
103.618
  0
LINE
  8
0
 10
-1.21352
 20
103.618
 11
-1.27206
 21
103.705
  0
LINE
  8
0
 10
-1.27206
 20
103.705
 11
-1.32442
 21
103.796
  0
LINE
  8
0
 10
-1.32442
 20
103.796
 11
-1.37032
 21
103.89
  0
LINE
  8
0
 10
-1.37032
 20
103.89
 11
-1.40953
 21
103.987
  0
LINE
  8
0
 10
-1.40953
 20
103.987
 11
-1.44188
 21
104.087
  0
LINE
  8
0
 10
-1.44188
 20
104.087
 11
-1.46721
 21
104.188
  0
LINE
  8
0
 10
-1.46721
 20
104.188
 11
-1.4854
 21
104.291
  0
LINE
  8
0
 10
-1.4854
 20
104.291
 11
-1.49634
 21
104.395
  0
LINE
  8
0
 10
-1.49634
 20
104.395
 11
-1.5
 21
104.5
  0
LINE
  8
0
 10
-1.5
 20
104.5
 11
-1.49634
 21
104.605
  0
LINE
  8
0
 10
-1.49634
 20
104.605
 11
-1.4854
 21
104.709
  0
LINE
  8
0
 10
-1.4854
 20
104.709
 11
-1.46721
 21
104.812
  0
LINE
  8
0
 10
-1.46721
 20
104.812
 11
-1.44188
 21
104.913
  0
LINE
  8
0
 10
-1.44188
 20
104.913
 11
-1.40953
 21
105.013
  0
LINE
  8
0
 10
-1.40953
 20
105.013
 11
-1.37032
 21
105.11
  0
LINE
  8
0
 10
-1.37032
 20
105.11
 11
-1.32442
 21
105.204
  0
LINE
  8
0
 10
-1.32442
 20
105.204
 11
-1.27206
 21
105.295
  0
LINE
  8
0
 10
-1.27206
 20
105.295
 11
-1.21352
 21
105.382
  0
LINE
  8
0
 10
-1.21352
 20
105.382
 11
-1.14906
 21
105.464
  0
LINE
  8
0
 10
-1.14906
 20
105.464
 11
-1.07899
 21
105.542
  0
LINE
  8
0
 10
-1.07899
 20
105.542
 11
-1.00369
 21
105.615
  0
LINE
  8
0
 10
-1.00369
 20
105.615
 11
-0.923477
 21
105.682
  0
LINE
  8
0
 10
-0.923477
 20
105.682
 11
-0.838776
 21
105.744
  0
LINE
  8
0
 10
-0.838776
 20
105.744
 11
-0.749985
 21
105.799
  0
LINE
  8
0
 10
-0.749985
 20
105.799
 11
-0.657547
 21
105.848
  0
LINE
  8
0
 10
-0.657547
 20
105.848
 11
-0.561905
 21
105.891
  0
LINE
  8
0
 10
-0.561905
 20
105.891
 11
-0.463516
 21
105.927
  0
LINE
  8
0
 10
-0.463516
 20
105.927
 11
-0.362869
 21
105.955
  0
LINE
  8
0
 10
-0.362869
 20
105.955
 11
-0.260468
 21
105.977
  0
LINE
  8
0
 10
-0.260468
 20
105.977
 11
-0.156784
 21
105.992
  0
LINE
  8
0
 10
-0.156784
 20
105.992
 11
-0.0523376
 21
105.999
  0
LINE
  8
0
 10
-0.0523376
 20
105.999
 11
0.0523376
 21
105.999
  0
LINE
  8
0
 10
0.0523376
 20
105.999
 11
0.156784
 21
105.992
  0
LINE
  8
0
 10
0.156784
 20
105.992
 11
0.260468
 21
105.977
  0
LINE
  8
0
 10
0.260468
 20
105.977
 11
0.362869
 21
105.955
  0
LINE
  8
0
 10
0.362869
 20
105.955
 11
0.463516
 21
105.927
  0
LINE
  8
0
 10
0.463516
 20
105.927
 11
0.561905
 21
105.891
  0
LINE
  8
0
 10
0.561905
 20
105.891
 11
0.657547
 21
105.848
  0
LINE
  8
0
 10
0.657547
 20
105.848
 11
0.75
 21
105.799
  0
LINE
  8
0
 10
0.75
 20
105.799
 11
0.838776
 21
105.744
  0
LINE
  8
0
 10
0.838776
 20
105.744
 11
0.923477
 21
105.682
  0
LINE
  8
0
 10
0.923477
 20
105.682
 11
1.00369
 21
105.615
  0
LINE
  8
0
 10
1.00369
 20
105.615
 11
1.07899
 21
105.542
  0
LINE
  8
0
 10
1.07899
 20
105.542
 11
1.14906
 21
105.464
  0
LINE
  8
0
 10
1.14906
 20
105.464
 11
1.21352
 21
105.382
  0
LINE
  8
0
 10
1.21352
 20
105.382
 11
1.27206
 21
105.295
  0
LINE
  8
0
 10
1.27206
 20
105.295
 11
1.32442
 21
105.204
  0
LINE
  8
0
 10
1.32442
 20
105.204
 11
1.37032
 21
105.11
  0
LINE
  8
0
 10
1.37032
 20
105.11
 11
1.40953
 21
105.013
  0
LINE
  8
0
 10
1.40953
 20
105.013
 11
1.44188
 21
104.913
  0
LINE
  8
0
 10
1.44188
 20
104.913
 11
1.46721
 21
104.812
  0
LINE
  8
0
 10
1.46721
 20
104.812
 11
1.4854
 21
104.709
  0
LINE
  8
0
 10
1.4854
 20
104.709
 11
1.49634
 21
104.605
  0
LINE
  8
0
 10
1.49634
 20
104.605
 11
1.5
 21
104.5
  0
LINE
  8
0
 10
1.5
 20
104.5
 11
1.49634
 21
104.395
  0
LINE
  8
0
 10
1.49634
 20
104.395
 11
1.4854
 21
104.291
  0
LINE
  8
0
 10
1.4854
 20
104.291
 11
1.46721
 21
104.188
  0
LINE
  8
0
 10
1.46721
 20
104.188
 11
1.44188
 21
104.087
  0
LINE
  8
0
 10
1.44188
 20
104.087
 11
1.40953
 21
103.987
  0
LINE
  8
0
 10
1.40953
 20
103.987
 11
1.37032
 21
103.89
  0
LINE
  8
0
 10
1.37032
 20
103.89
 11
1.32442
 21
103.796
  0
LINE
  8
0
 10
1.32442
 20
103.796
 11
1.27206
 21
103.705
  0
LINE
  8
0
 10
1.27206
 20
103.705
 11
1.21352
 21
103.618
  0
LINE
  8
0
 10
1.21352
 20
103.618
 11
1.14906
 21
103.536
  0
LINE
  8
0
 10
1.14906
 20
103.536
 11
1.07899
 21
103.458
  0
LINE
  8
0
 10
1.07899
 20
103.458
 11
1.00369
 21
103.385
  0
LINE
  8
0
 10
1.00369
 20
103.385
 11
0.923477
 21
103.318
  0
LINE
  8
0
 10
0.923477
 20
103.318
 11
0.838776
 21
103.256
  0
LINE
  8
0
 10
0.838776
 20
103.256
 11
0.75
 21
103.201
  0
LINE
  8
0
 10
0.75
 20
103.201
 11
0.657547
 21
103.152
  0
LINE
  8
0
 10
0.657547
 20
103.152
 11
0.561905
 21
103.109
  0
LINE
  8
0
 10
0.561905
 20
103.109
 11
0.463516
 21
103.073
  0
LINE
  8
0
 10
0.463516
 20
103.073
 11
0.362869
 21
103.045
  0
LINE
  8
0
 10
0.362869
 20
103.045
 11
0.260468
 21
103.023
  0
LINE
  8
0
 10
0.260468
 20
103.023
 11
0.156784
 21
103.008
  0
LINE
  8
0
 10
0.156784
 20
103.008
 11
0.0523376
 21
103.001
  0
LINE
  8
0
 10
0.0523376
 20
103.001
 11
-0.0523376
 21
103.001
  0
LINE
  8
0
 10
76.9302
 20
100.001
 11
76.7909
 21
100.011
  0
LINE
  8
0
 10
76.7909
 20
100.011
 11
76.6527
 21
100.03
  0
LINE
  8
0
 10
76.6527
 20
100.03
 11
76.5161
 21
100.059
  0
LINE
  8
0
 10
76.5161
 20
100.059
 11
76.382
 21
100.098
  0
LINE
  8
0
 10
76.382
 20
100.098
 11
76.2508
 21
100.146
  0
LINE
  8
0
 10
76.2508
 20
100.146
 11
76.1232
 21
100.202
  0
LINE
  8
0
 10
76.1232
 20
100.202
 11
76
 21
100.268
  0
LINE
  8
0
 10
76
 20
100.268
 11
75.8816
 21
100.342
  0
LINE
  8
0
 10
75.8816
 20
100.342
 11
75.7687
 21
100.424
  0
LINE
  8
0
 10
75.7687
 20
100.424
 11
75.6617
 21
100.514
  0
LINE
  8
0
 10
75.6617
 20
100.514
 11
75.5613
 21
100.611
  0
LINE
  8
0
 10
75.5613
 20
100.611
 11
75.4679
 21
100.714
  0
LINE
  8
0
 10
75.4679
 20
100.714
 11
75.382
 21
100.824
  0
LINE
  8
0
 10
75.382
 20
100.824
 11
75.3039
 21
100.94
  0
LINE
  8
0
 10
75.3039
 20
100.94
 11
75.2341
 21
101.061
  0
LINE
  8
0
 10
75.2341
 20
101.061
 11
75.1729
 21
101.187
  0
LINE
  8
0
 10
75.1729
 20
101.187
 11
75.1206
 21
101.316
  0
LINE
  8
0
 10
75.1206
 20
101.316
 11
75.0775
 21
101.449
  0
LINE
  8
0
 10
75.0775
 20
101.449
 11
75.0437
 21
101.584
  0
LINE
  8
0
 10
75.0437
 20
101.584
 11
75.0195
 21
101.722
  0
LINE
  8
0
 10
75.0195
 20
101.722
 11
75.0049
 21
101.86
  0
LINE
  8
0
 10
75.0049
 20
101.86
 11
75
 21
102
  0
LINE
  8
0
 10
75
 20
102
 11
75.0049
 21
102.14
  0
LINE
  8
0
 10
75.0049
 20
102.14
 11
75.0195
 21
102.278
  0
LINE
  8
0
 10
75.0195
 20
102.278
 11
75.0437
 21
102.416
  0
LINE
  8
0
 10
75.0437
 20
102.416
 11
75.0775
 21
102.551
  0
LINE
  8
0
 10
75.0775
 20
102.551
 11
75.1206
 21
102.684
  0
LINE
  8
0
 10
75.1206
 20
102.684
 11
75.1729
 21
102.813
  0
LINE
  8
0
 10
75.1729
 20
102.813
 11
75.2341
 21
102.939
  0
LINE
  8
0
 10
75.2341
 20
102.939
 11
75.3039
 21
103.06
  0
LINE
  8
0
 10
75.3039
 20
103.06
 11
75.382
 21
103.176
  0
LINE
  8
0
 10
75.382
 20
103.176
 11
75.4679
 21
103.286
  0
LINE
  8
0
 10
75.4679
 20
103.286
 11
75.5613
 21
103.389
  0
LINE
  8
0
 10
75.5613
 20
103.389
 11
75.6617
 21
103.486
  0
LINE
  8
0
 10
75.6617
 20
103.486
 11
75.7687
 21
103.576
  0
LINE
  8
0
 10
75.7687
 20
103.576
 11
75.8816
 21
103.658
  0
LINE
  8
0
 10
75.8816
 20
103.658
 11
76
 21
103.732
  0
LINE
  8
0
 10
76
 20
103.732
 11
76.1232
 21
103.798
  0
LINE
  8
0
 10
76.1232
 20
103.798
 11
76.2508
 21
103.854
  0
LINE
  8
0
 10
76.2508
 20
103.854
 11
76.382
 21
103.902
  0
LINE
  8
0
 10
76.382
 20
103.902
 11
76.5161
 21
103.941
  0
LINE
  8
0
 10
76.5161
 20
103.941
 11
76.6527
 21
103.97
  0
LINE
  8
0
 10
76.6527
 20
103.97
 11
76.7909
 21
103.989
  0
LINE
  8
0
 10
76.7909
 20
103.989
 11
76.9302
 21
103.999
  0
LINE
  8
0
 10
76.9302
 20
103.999
 11
77.0698
 21
103.999
  0
LINE
  8
0
 10
77.0698
 20
103.999
 11
77.209
 21
103.989
  0
LINE
  8
0
 10
77.209
 20
103.989
 11
77.3473
 21
103.97
  0
LINE
  8
0
 10
77.3473
 20
103.97
 11
77.4838
 21
103.941
  0
LINE
  8
0
 10
77.4838
 20
103.941
 11
77.618
 21
103.902
  0
LINE
  8
0
 10
77.618
 20
103.902
 11
77.7492
 21
103.854
  0
LINE
  8
0
 10
77.7492
 20
103.854
 11
77.8767
 21
103.798
  0
LINE
  8
0
 10
77.8767
 20
103.798
 11
78
 21
103.732
  0
LINE
  8
0
 10
78
 20
103.732
 11
78.1184
 21
103.658
  0
LINE
  8
0
 10
78.1184
 20
103.658
 11
78.2313
 21
103.576
  0
LINE
  8
0
 10
78.2313
 20
103.576
 11
78.3383
 21
103.486
  0
LINE
  8
0
 10
78.3383
 20
103.486
 11
78.4387
 21
103.389
  0
LINE
  8
0
 10
78.4387
 20
103.389
 11
78.5321
 21
103.286
  0
LINE
  8
0
 10
78.5321
 20
103.286
 11
78.618
 21
103.176
  0
LINE
  8
0
 10
78.618
 20
103.176
 11
78.6961
 21
103.06
  0
LINE
  8
0
 10
78.6961
 20
103.06
 11
78.7659
 21
102.939
  0
LINE
  8
0
 10
78.7659
 20
102.939
 11
78.8271
 21
102.813
  0
LINE
  8
0
 10
78.8271
 20
102.813
 11
78.8794
 21
102.684
  0
LINE
  8
0
 10
78.8794
 20
102.684
 11
78.9225
 21
102.551
  0
LINE
  8
0
 10
78.9225
 20
102.551
 11
78.9563
 21
102.416
  0
LINE
  8
0
 10
78.9563
 20
102.416
 11
78.9805
 21
102.278
  0
LINE
  8
0
 10
78.9805
 20
102.278
 11
78.9951
 21
102.14
  0
LINE
  8
0
 10
78.9951
 20
102.14
 11
79
 21
102
  0
LINE
  8
0
 10
79
 20
102
 11
78.9951
 21
101.86
  0
LINE
  8
0
 10
78.9951
 20
101.86
 11
78.9805
 21
101.722
  0
LINE
  8
0
 10
78.9805
 20
101.722
 11
78.9563
 21
101.584
  0
LINE
  8
0
 10
78.9563
 20
101.584
 11
78.9225
 21
101.449
  0
LINE
  8
0
 10
78.9225
 20
101.449
 11
78.8794
 21
101.316
  0
LINE
  8
0
 10
78.8794
 20
101.316
 11
78.8271
 21
101.187
  0
LINE
  8
0
 10
78.8271
 20
101.187
 11
78.7659
 21
101.061
  0
LINE
  8
0
 10
78.7659
 20
101.061
 11
78.6961
 21
100.94
  0
LINE
  8
0
 10
78.6961
 20
100.94
 11
78.618
 21
100.824
  0
LINE
  8
0
 10
78.618
 20
100.824
 11
78.5321
 21
100.714
  0
LINE
  8
0
 10
78.5321
 20
100.714
 11
78.4387
 21
100.611
  0
LINE
  8
0
 10
78.4387
 20
100.611
 11
78.3383
 21
100.514
  0
LINE
  8
0
 10
78.3383
 20
100.514
 11
78.2313
 21
100.424
  0
LINE
  8
0
 10
78.2313
 20
100.424
 11
78.1184
 21
100.342
  0
LINE
  8
0
 10
78.1184
 20
100.342
 11
78
 21
100.268
  0
LINE
  8
0
 10
78
 20
100.268
 11
77.8767
 21
100.202
  0
LINE
  8
0
 10
77.8767
 20
100.202
 11
77.7492
 21
100.146
  0
LINE
  8
0
 10
77.7492
 20
100.146
 11
77.618
 21
100.098
  0
LINE
  8
0
 10
77.618
 20
100.098
 11
77.4838
 21
100.059
  0
LINE
  8
0
 10
77.4838
 20
100.059
 11
77.3473
 21
100.03
  0
LINE
  8
0
 10
77.3473
 20
100.03
 11
77.209
 21
100.011
  0
LINE
  8
0
 10
77.209
 20
100.011
 11
77.0698
 21
100.001
  0
LINE
  8
0
 10
77.0698
 20
100.001
 11
76.9302
 21
100.001
  0
LINE
  8
0
 10
-77.0698
 20
100.001
 11
-77.209
 21
100.011
  0
LINE
  8
0
 10
-77.209
 20
100.011
 11
-77.3473
 21
100.03
  0
LINE
  8
0
 10
-77.3473
 20
100.03
 11
-77.4838
 21
100.059
  0
LINE
  8
0
 10
-77.4838
 20
100.059
 11
-77.618
 21
100.098
  0
LINE
  8
0
 10
-77.618
 20
100.098
 11
-77.7492
 21
100.146
  0
LINE
  8
0
 10
-77.7492
 20
100.146
 11
-77.8767
 21
100.202
  0
LINE
  8
0
 10
-77.8767
 20
100.202
 11
-78
 21
100.268
  0
LINE
  8
0
 10
-78
 20
100.268
 11
-78.1184
 21
100.342
  0
LINE
  8
0
 10
-78.1184
 20
100.342
 11
-78.2313
 21
100.424
  0
LINE
  8
0
 10
-78.2313
 20
100.424
 11
-78.3383
 21
100.514
  0
LINE
  8
0
 10
-78.3383
 20
100.514
 11
-78.4387
 21
100.611
  0
LINE
  8
0
 10
-78.4387
 20
100.611
 11
-78.5321
 21
100.714
  0
LINE
  8
0
 10
-78.5321
 20
100.714
 11
-78.618
 21
100.824
  0
LINE
  8
0
 10
-78.618
 20
100.824
 11
-78.6961
 21
100.94
  0
LINE
  8
0
 10
-78.6961
 20
100.94
 11
-78.7659
 21
101.061
  0
LINE
  8
0
 10
-78.7659
 20
101.061
 11
-78.8271
 21
101.187
  0
LINE
  8
0
 10
-78.8271
 20
101.187
 11
-78.8794
 21
101.316
  0
LINE
  8
0
 10
-78.8794
 20
101.316
 11
-78.9225
 21
101.449
  0
LINE
  8
0
 10
-78.9225
 20
101.449
 11
-78.9563
 21
101.584
  0
LINE
  8
0
 10
-78.9563
 20
101.584
 11
-78.9805
 21
101.722
  0
LINE
  8
0
 10
-78.9805
 20
101.722
 11
-78.9951
 21
101.86
  0
LINE
  8
0
 10
-78.9951
 20
101.86
 11
-79
 21
102
  0
LINE
  8
0
 10
-79
 20
102
 11
-78.9951
 21
102.14
  0
LINE
  8
0
 10
-78.9951
 20
102.14
 11
-78.9805
 21
102.278
  0
LINE
  8
0
 10
-78.9805
 20
102.278
 11
-78.9563
 21
102.416
  0
LINE
  8
0
 10
-78.9563
 20
102.416
 11
-78.9225
 21
102.551
  0
LINE
  8
0
 10
-78.9225
 20
102.551
 11
-78.8794
 21
102.684
  0
LINE
  8
0
 10
-78.8794
 20
102.684
 11
-78.8271
 21
102.813
  0
LINE
  8
0
 10
-78.8271
 20
102.813
 11
-78.7659
 21
102.939
  0
LINE
  8
0
 10
-78.7659
 20
102.939
 11
-78.6961
 21
103.06
  0
LINE
  8
0
 10
-78.6961
 20
103.06
 11
-78.618
 21
103.176
  0
LINE
  8
0
 10
-78.618
 20
103.176
 11
-78.5321
 21
103.286
  0
LINE
  8
0
 10
-78.5321
 20
103.286
 11
-78.4387
 21
103.389
  0
LINE
  8
0
 10
-78.4387
 20
103.389
 11
-78.3383
 21
103.486
  0
LINE
  8
0
 10
-78.3383
 20
103.486
 11
-78.2313
 21
103.576
  0
LINE
  8
0
 10
-78.2313
 20
103.576
 11
-78.1184
 21
103.658
  0
LINE
  8
0
 10
-78.1184
 20
103.658
 11
-78
 21
103.732
  0
LINE
  8
0
 10
-78
 20
103.732
 11
-77.8767
 21
103.798
  0
LINE
  8
0
 10
-77.8767
 20
103.798
 11
-77.7492
 21
103.854
  0
LINE
  8
0
 10
-77.7492
 20
103.854
 11
-77.618
 21
103.902
  0
LINE
  8
0
 10
-77.618
 20
103.902
 11
-77.4838
 21
103.941
  0
LINE
  8
0
 10
-77.4838
 20
103.941
 11
-77.3473
 21
103.97
  0
LINE
  8
0
 10
-77.3473
 20
103.97
 11
-77.209
 21
103.989
  0
LINE
  8
0
 10
-77.209
 20
103.989
 11
-77.0698
 21
103.999
  0
LINE
  8
0
 10
-77.0698
 20
103.999
 11
-76.9302
 21
103.999
  0
LINE
  8
0
 10
-76.9302
 20
103.999
 11
-76.7909
 21
103.989
  0
LINE
  8
0
 10
-76.7909
 20
103.989
 11
-76.6527
 21
103.97
  0
LINE
  8
0
 10
-76.6527
 20
103.97
 11
-76.5161
 21
103.941
  0
LINE
  8
0
 10
-76.5161
 20
103.941
 11
-76.382
 21
103.902
  0
LINE
  8
0
 10
-76.382
 20
103.902
 11
-76.2508
 21
103.854
  0
LINE
  8
0
 10
-76.2508
 20
103.854
 11
-76.1232
 21
103.798
  0
LINE
  8
0
 10
-76.1232
 20
103.798
 11
-76
 21
103.732
  0
LINE
  8
0
 10
-76
 20
103.732
 11
-75.8816
 21
103.658
  0
LINE
  8
0
 10
-75.8816
 20
103.658
 11
-75.7687
 21
103.576
  0
LINE
  8
0
 10
-75.7687
 20
103.576
 11
-75.6617
 21
103.486
  0
LINE
  8
0
 10
-75.6617
 20
103.486
 11
-75.5613
 21
103.389
  0
LINE
  8
0
 10
-75.5613
 20
103.389
 11
-75.4679
 21
103.286
  0
LINE
  8
0
 10
-75.4679
 20
103.286
 11
-75.382
 21
103.176
  0
LINE
  8
0
 10
-75.382
 20
103.176
 11
-75.3039
 21
103.06
  0
LINE
  8
0
 10
-75.3039
 20
103.06
 11
-75.2341
 21
102.939
  0
LINE
  8
0
 10
-75.2341
 20
102.939
 11
-75.1729
 21
102.813
  0
LINE
  8
0
 10
-75.1729
 20
102.813
 11
-75.1206
 21
102.684
  0
LINE
  8
0
 10
-75.1206
 20
102.684
 11
-75.0775
 21
102.551
  0
LINE
  8
0
 10
-75.0775
 20
102.551
 11
-75.0437
 21
102.416
  0
LINE
  8
0
 10
-75.0437
 20
102.416
 11
-75.0195
 21
102.278
  0
LINE
  8
0
 10
-75.0195
 20
102.278
 11
-75.0049
 21
102.14
  0
LINE
  8
0
 10
-75.0049
 20
102.14
 11
-75
 21
102
  0
LINE
  8
0
 10
-75
 20
102
 11
-75.0049
 21
101.86
  0
LINE
  8
0
 10
-75.0049
 20
101.86
 11
-75.0195
 21
101.722
  0
LINE
  8
0
 10
-75.0195
 20
101.722
 11
-75.0437
 21
101.584
  0
LINE
  8
0
 10
-75.0437
 20
101.584
 11
-75.0775
 21
101.449
  0
LINE
  8
0
 10
-75.0775
 20
101.449
 11
-75.1206
 21
101.316
  0
LINE
  8
0
 10
-75.1206
 20
101.316
 11
-75.1729
 21
101.187
  0
LINE
  8
0
 10
-75.1729
 20
101.187
 11
-75.2341
 21
101.061
  0
LINE
  8
0
 10
-75.2341
 20
101.061
 11
-75.3039
 21
100.94
  0
LINE
  8
0
 10
-75.3039
 20
100.94
 11
-75.382
 21
100.824
  0
LINE
  8
0
 10
-75.382
 20
100.824
 11
-75.4679
 21
100.714
  0
LINE
  8
0
 10
-75.4679
 20
100.714
 11
-75.5613
 21
100.611
  0
LINE
  8
0
 10
-75.5613
 20
100.611
 11
-75.6617
 21
100.514
  0
LINE
  8
0
 10
-75.6617
 20
100.514
 11
-75.7687
 21
100.424
  0
LINE
  8
0
 10
-75.7687
 20
100.424
 11
-75.8816
 21
100.342
  0
LINE
  8
0
 10
-75.8816
 20
100.342
 11
-76
 21
100.268
  0
LINE
  8
0
 10
-76
 20
100.268
 11
-76.1232
 21
100.202
  0
LINE
  8
0
 10
-76.1232
 20
100.202
 11
-76.2508
 21
100.146
  0
LINE
  8
0
 10
-76.2508
 20
100.146
 11
-76.382
 21
100.098
  0
LINE
  8
0
 10
-76.382
 20
100.098
 11
-76.5161
 21
100.059
  0
LINE
  8
0
 10
-76.5161
 20
100.059
 11
-76.6527
 21
100.03
  0
LINE
  8
0
 10
-76.6527
 20
100.03
 11
-76.7909
 21
100.011
  0
LINE
  8
0
 10
-76.7909
 20
100.011
 11
-76.9302
 21
100.001
  0
LINE
  8
0
 10
-76.9302
 20
100.001
 11
-77.0698
 21
100.001
  0
LINE
  8
0
 10
101.93
 20
75.0012
 11
101.791
 21
75.011
  0
LINE
  8
0
 10
101.791
 20
75.011
 11
101.653
 21
75.0304
  0
LINE
  8
0
 10
101.653
 20
75.0304
 11
101.516
 21
75.0594
  0
LINE
  8
0
 10
101.516
 20
75.0594
 11
101.382
 21
75.0979
  0
LINE
  8
0
 10
101.382
 20
75.0979
 11
101.251
 21
75.1456
  0
LINE
  8
0
 10
101.251
 20
75.1456
 11
101.123
 21
75.2024
  0
LINE
  8
0
 10
101.123
 20
75.2024
 11
101
 21
75.2679
  0
LINE
  8
0
 10
101
 20
75.2679
 11
100.882
 21
75.3419
  0
LINE
  8
0
 10
100.882
 20
75.3419
 11
100.769
 21
75.424
  0
LINE
  8
0
 10
100.769
 20
75.424
 11
100.662
 21
75.5137
  0
LINE
  8
0
 10
100.662
 20
75.5137
 11
100.561
 21
75.6107
  0
LINE
  8
0
 10
100.561
 20
75.6107
 11
100.468
 21
75.7144
  0
LINE
  8
0
 10
100.468
 20
75.7144
 11
100.382
 21
75.8244
  0
LINE
  8
0
 10
100.382
 20
75.8244
 11
100.304
 21
75.9402
  0
LINE
  8
0
 10
100.304
 20
75.9402
 11
100.234
 21
76.0611
  0
LINE
  8
0
 10
100.234
 20
76.0611
 11
100.173
 21
76.1865
  0
LINE
  8
0
 10
100.173
 20
76.1865
 11
100.121
 21
76.3159
  0
LINE
  8
0
 10
100.121
 20
76.3159
 11
100.077
 21
76.4487
  0
LINE
  8
0
 10
100.077
 20
76.4487
 11
100.044
 21
76.5842
  0
LINE
  8
0
 10
100.044
 20
76.5842
 11
100.019
 21
76.7216
  0
LINE
  8
0
 10
100.019
 20
76.7216
 11
100.005
 21
76.8605
  0
LINE
  8
0
 10
100.005
 20
76.8605
 11
100
 21
77
  0
LINE
  8
0
 10
100
 20
77
 11
100.005
 21
77.1395
  0
LINE
  8
0
 10
100.005
 20
77.1395
 11
100.019
 21
77.2783
  0
LINE
  8
0
 10
100.019
 20
77.2783
 11
100.044
 21
77.4158
  0
LINE
  8
0
 10
100.044
 20
77.4158
 11
100.077
 21
77.5513
  0
LINE
  8
0
 10
100.077
 20
77.5513
 11
100.121
 21
77.684
  0
LINE
  8
0
 10
100.121
 20
77.684
 11
100.173
 21
77.8135
  0
LINE
  8
0
 10
100.173
 20
77.8135
 11
100.234
 21
77.9389
  0
LINE
  8
0
 10
100.234
 20
77.9389
 11
100.304
 21
78.0598
  0
LINE
  8
0
 10
100.304
 20
78.0598
 11
100.382
 21
78.1756
  0
LINE
  8
0
 10
100.382
 20
78.1756
 11
100.468
 21
78.2856
  0
LINE
  8
0
 10
100.468
 20
78.2856
 11
100.561
 21
78.3893
  0
LINE
  8
0
 10
100.561
 20
78.3893
 11
100.662
 21
78.4863
  0
LINE
  8
0
 10
100.662
 20
78.4863
 11
100.769
 21
78.576
  0
LINE
  8
0
 10
100.769
 20
78.576
 11
100.882
 21
78.6581
  0
LINE
  8
0
 10
100.882
 20
78.6581
 11
101
 21
78.732
  0
LINE
  8
0
 10
101
 20
78.732
 11
101.123
 21
78.7976
  0
LINE
  8
0
 10
101.123
 20
78.7976
 11
101.251
 21
78.8544
  0
LINE
  8
0
 10
101.251
 20
78.8544
 11
101.382
 21
78.9021
  0
LINE
  8
0
 10
101.382
 20
78.9021
 11
101.516
 21
78.9406
  0
LINE
  8
0
 10
101.516
 20
78.9406
 11
101.653
 21
78.9696
  0
LINE
  8
0
 10
101.653
 20
78.9696
 11
101.791
 21
78.989
  0
LINE
  8
0
 10
101.791
 20
78.989
 11
101.93
 21
78.9988
  0
LINE
  8
0
 10
101.93
 20
78.9988
 11
102.07
 21
78.9988
  0
LINE
  8
0
 10
102.07
 20
78.9988
 11
102.209
 21
78.989
  0
LINE
  8
0
 10
102.209
 20
78.989
 11
102.347
 21
78.9696
  0
LINE
  8
0
 10
102.347
 20
78.9696
 11
102.484
 21
78.9406
  0
LINE
  8
0
 10
102.484
 20
78.9406
 11
102.618
 21
78.9021
  0
LINE
  8
0
 10
102.618
 20
78.9021
 11
102.749
 21
78.8544
  0
LINE
  8
0
 10
102.749
 20
78.8544
 11
102.877
 21
78.7976
  0
LINE
  8
0
 10
102.877
 20
78.7976
 11
103
 21
78.732
  0
LINE
  8
0
 10
103
 20
78.732
 11
103.118
 21
78.6581
  0
LINE
  8
0
 10
103.118
 20
78.6581
 11
103.231
 21
78.576
  0
LINE
  8
0
 10
103.231
 20
78.576
 11
103.338
 21
78.4863
  0
LINE
  8
0
 10
103.338
 20
78.4863
 11
103.439
 21
78.3893
  0
LINE
  8
0
 10
103.439
 20
78.3893
 11
103.532
 21
78.2856
  0
LINE
  8
0
 10
103.532
 20
78.2856
 11
103.618
 21
78.1756
  0
LINE
  8
0
 10
103.618
 20
78.1756
 11
103.696
 21
78.0598
  0
LINE
  8
0
 10
103.696
 20
78.0598
 11
103.766
 21
77.9389
  0
LINE
  8
0
 10
103.766
 20
77.9389
 11
103.827
 21
77.8135
  0
LINE
  8
0
 10
103.827
 20
77.8135
 11
103.879
 21
77.684
  0
LINE
  8
0
 10
103.879
 20
77.684
 11
103.923
 21
77.5513
  0
LINE
  8
0
 10
103.923
 20
77.5513
 11
103.956
 21
77.4158
  0
LINE
  8
0
 10
103.956
 20
77.4158
 11
103.981
 21
77.2783
  0
LINE
  8
0
 10
103.981
 20
77.2783
 11
103.995
 21
77.1395
  0
LINE
  8
0
 10
103.995
 20
77.1395
 11
104
 21
77
  0
LINE
  8
0
 10
104
 20
77
 11
103.995
 21
76.8605
  0
LINE
  8
0
 10
103.995
 20
76.8605
 11
103.981
 21
76.7216
  0
LINE
  8
0
 10
103.981
 20
76.7216
 11
103.956
 21
76.5842
  0
LINE
  8
0
 10
103.956
 20
76.5842
 11
103.923
 21
76.4487
  0
LINE
  8
0
 10
103.923
 20
76.4487
 11
103.879
 21
76.3159
  0
LINE
  8
0
 10
103.879
 20
76.3159
 11
103.827
 21
76.1865
  0
LINE
  8
0
 10
103.827
 20
76.1865
 11
103.766
 21
76.0611
  0
LINE
  8
0
 10
103.766
 20
76.0611
 11
103.696
 21
75.9402
  0
LINE
  8
0
 10
103.696
 20
75.9402
 11
103.618
 21
75.8244
  0
LINE
  8
0
 10
103.618
 20
75.8244
 11
103.532
 21
75.7144
  0
LINE
  8
0
 10
103.532
 20
75.7144
 11
103.439
 21
75.6107
  0
LINE
  8
0
 10
103.439
 20
75.6107
 11
103.338
 21
75.5137
  0
LINE
  8
0
 10
103.338
 20
75.5137
 11
103.231
 21
75.424
  0
LINE
  8
0
 10
103.231
 20
75.424
 11
103.118
 21
75.3419
  0
LINE
  8
0
 10
103.118
 20
75.3419
 11
103
 21
75.2679
  0
LINE
  8
0
 10
103
 20
75.2679
 11
102.877
 21
75.2024
  0
LINE
  8
0
 10
102.877
 20
75.2024
 11
102.749
 21
75.1456
  0
LINE
  8
0
 10
102.749
 20
75.1456
 11
102.618
 21
75.0979
  0
LINE
  8
0
 10
102.618
 20
75.0979
 11
102.484
 21
75.0594
  0
LINE
  8
0
 10
102.484
 20
75.0594
 11
102.347
 21
75.0304
  0
LINE
  8
0
 10
102.347
 20
75.0304
 11
102.209
 21
75.011
  0
LINE
  8
0
 10
102.209
 20
75.011
 11
102.07
 21
75.0012
  0
LINE
  8
0
 10
102.07
 20
75.0012
 11
101.93
 21
75.0012
  0
LINE
  8
0
 10
-102.07
 20
75.0012
 11
-102.209
 21
75.011
  0
LINE
  8
0
 10
-102.209
 20
75.011
 11
-102.347
 21
75.0304
  0
LINE
  8
0
 10
-102.347
 20
75.0304
 11
-102.484
 21
75.0594
  0
LINE
  8
0
 10
-102.484
 20
75.0594
 11
-102.618
 21
75.0979
  0
LINE
  8
0
 10
-102.618
 20
75.0979
 11
-102.749
 21
75.1456
  0
LINE
  8
0
 10
-102.749
 20
75.1456
 11
-102.877
 21
75.2024
  0
LINE
  8
0
 10
-102.877
 20
75.2024
 11
-103
 21
75.2679
  0
LINE
  8
0
 10
-103
 20
75.2679
 11
-103.118
 21
75.3419
  0
LINE
  8
0
 10
-103.118
 20
75.3419
 11
-103.231
 21
75.424
  0
LINE
  8
0
 10
-103.231
 20
75.424
 11
-103.338
 21
75.5137
  0
LINE
  8
0
 10
-103.338
 20
75.5137
 11
-103.439
 21
75.6107
  0
LINE
  8
0
 10
-103.439
 20
75.6107
 11
-103.532
 21
75.7144
  0
LINE
  8
0
 10
-103.532
 20
75.7144
 11
-103.618
 21
75.8244
  0
LINE
  8
0
 10
-103.618
 20
75.8244
 11
-103.696
 21
75.9402
  0
LINE
  8
0
 10
-103.696
 20
75.9402
 11
-103.766
 21
76.0611
  0
LINE
  8
0
 10
-103.766
 20
76.0611
 11
-103.827
 21
76.1865
  0
LINE
  8
0
 10
-103.827
 20
76.1865
 11
-103.879
 21
76.3159
  0
LINE
  8
0
 10
-103.879
 20
76.3159
 11
-103.923
 21
76.4487
  0
LINE
  8
0
 10
-103.923
 20
76.4487
 11
-103.956
 21
76.5842
  0
LINE
  8
0
 10
-103.956
 20
76.5842
 11
-103.981
 21
76.7216
  0
LINE
  8
0
 10
-103.981
 20
76.7216
 11
-103.995
 21
76.8605
  0
LINE
  8
0
 10
-103.995
 20
76.8605
 11
-104
 21
77
  0
LINE
  8
0
 10
-104
 20
77
 11
-103.995
 21
77.1395
  0
LINE
  8
0
 10
-103.995
 20
77.1395
 11
-103.981
 21
77.2783
  0
LINE
  8
0
 10
-103.981
 20
77.2783
 11
-103.956
 21
77.4158
  0
LINE
  8
0
 10
-103.956
 20
77.4158
 11
-103.923
 21
77.5513
  0
LINE
  8
0
 10
-103.923
 20
77.5513
 11
-103.879
 21
77.684
  0
LINE
  8
0
 10
-103.879
 20
77.684
 11
-103.827
 21
77.8135
  0
LINE
  8
0
 10
-103.827
 20
77.8135
 11
-103.766
 21
77.9389
  0
LINE
  8
0
 10
-103.766
 20
77.9389
 11
-103.696
 21
78.0598
  0
LINE
  8
0
 10
-103.696
 20
78.0598
 11
-103.618
 21
78.1756
  0
LINE
  8
0
 10
-103.618
 20
78.1756
 11
-103.532
 21
78.2856
  0
LINE
  8
0
 10
-103.532
 20
78.2856
 11
-103.439
 21
78.3893
  0
LINE
  8
0
 10
-103.439
 20
78.3893
 11
-103.338
 21
78.4863
  0
LINE
  8
0
 10
-103.338
 20
78.4863
 11
-103.231
 21
78.576
  0
LINE
  8
0
 10
-103.231
 20
78.576
 11
-103.118
 21
78.6581
  0
LINE
  8
0
 10
-103.118
 20
78.6581
 11
-103
 21
78.732
  0
LINE
  8
0
 10
-103
 20
78.732
 11
-102.877
 21
78.7976
  0
LINE
  8
0
 10
-102.877
 20
78.7976
 11
-102.749
 21
78.8544
  0
LINE
  8
0
 10
-102.749
 20
78.8544
 11
-102.618
 21
78.9021
  0
LINE
  8
0
 10
-102.618
 20
78.9021
 11
-102.484
 21
78.9406
  0
LINE
  8
0
 10
-102.484
 20
78.9406
 11
-102.347
 21
78.9696
  0
LINE
  8
0
 10
-102.347
 20
78.9696
 11
-102.209
 21
78.989
  0
LINE
  8
0
 10
-102.209
 20
78.989
 11
-102.07
 21
78.9988
  0
LINE
  8
0
 10
-102.07
 20
78.9988
 11
-101.93
 21
78.9988
  0
LINE
  8
0
 10
-101.93
 20
78.9988
 11
-101.791
 21
78.989
  0
LINE
  8
0
 10
-101.791
 20
78.989
 11
-101.653
 21
78.9696
  0
LINE
  8
0
 10
-101.653
 20
78.9696
 11
-101.516
 21
78.9406
  0
LINE
  8
0
 10
-101.516
 20
78.9406
 11
-101.382
 21
78.9021
  0
LINE
  8
0
 10
-101.382
 20
78.9021
 11
-101.251
 21
78.8544
  0
LINE
  8
0
 10
-101.251
 20
78.8544
 11
-101.123
 21
78.7976
  0
LINE
  8
0
 10
-101.123
 20
78.7976
 11
-101
 21
78.732
  0
LINE
  8
0
 10
-101
 20
78.732
 11
-100.882
 21
78.6581
  0
LINE
  8
0
 10
-100.882
 20
78.6581
 11
-100.769
 21
78.576
  0
LINE
  8
0
 10
-100.769
 20
78.576
 11
-100.662
 21
78.4863
  0
LINE
  8
0
 10
-100.662
 20
78.4863
 11
-100.561
 21
78.3893
  0
LINE
  8
0
 10
-100.561
 20
78.3893
 11
-100.468
 21
78.2856
  0
LINE
  8
0
 10
-100.468
 20
78.2856
 11
-100.382
 21
78.1756
  0
LINE
  8
0
 10
-100.382
 20
78.1756
 11
-100.304
 21
78.0598
  0
LINE
  8
0
 10
-100.304
 20
78.0598
 11
-100.234
 21
77.9389
  0
LINE
  8
0
 10
-100.234
 20
77.9389
 11
-100.173
 21
77.8135
  0
LINE
  8
0
 10
-100.173
 20
77.8135
 11
-100.121
 21
77.684
  0
LINE
  8
0
 10
-100.121
 20
77.684
 11
-100.077
 21
77.5513
  0
LINE
  8
0
 10
-100.077
 20
77.5513
 11
-100.044
 21
77.4158
  0
LINE
  8
0
 10
-100.044
 20
77.4158
 11
-100.019
 21
77.2783
  0
LINE
  8
0
 10
-100.019
 20
77.2783
 11
-100.005
 21
77.1395
  0
LINE
  8
0
 10
-100.005
 20
77.1395
 11
-100
 21
77
  0
LINE
  8
0
 10
-100
 20
77
 11
-100.005
 21
76.8605
  0
LINE
  8
0
 10
-100.005
 20
76.8605
 11
-100.019
 21
76.7216
  0
LINE
  8
0
 10
-100.019
 20
76.7216
 11
-100.044
 21
76.5842
  0
LINE
  8
0
 10
-100.044
 20
76.5842
 11
-100.077
 21
76.4487
  0
LINE
  8
0
 10
-100.077
 20
76.4487
 11
-100.121
 21
76.3159
  0
LINE
  8
0
 10
-100.121
 20
76.3159
 11
-100.173
 21
76.1865
  0
LINE
  8
0
 10
-100.173
 20
76.1865
 11
-100.234
 21
76.0611
  0
LINE
  8
0
 10
-100.234
 20
76.0611
 11
-100.304
 21
75.9402
  0
LINE
  8
0
 10
-100.304
 20
75.9402
 11
-100.382
 21
75.8244
  0
LINE
  8
0
 10
-100.382
 20
75.8244
 11
-100.468
 21
75.7144
  0
LINE
  8
0
 10
-100.468
 20
75.7144
 11
-100.561
 21
75.6107
  0
LINE
  8
0
 10
-100.561
 20
75.6107
 11
-100.662
 21
75.5137
  0
LINE
  8
0
 10
-100.662
 20
75.5137
 11
-100.769
 21
75.424
  0
LINE
  8
0
 10
-100.769
 20
75.424
 11
-100.882
 21
75.3419
  0
LINE
  8
0
 10
-100.882
 20
75.3419
 11
-101
 21
75.2679
  0
LINE
  8
0
 10
-101
 20
75.2679
 11
-101.123
 21
75.2024
  0
LINE
  8
0
 10
-101.123
 20
75.2024
 11
-101.251
 21
75.1456
  0
LINE
  8
0
 10
-101.251
 20
75.1456
 11
-101.382
 21
75.0979
  0
LINE
  8
0
 10
-101.382
 20
75.0979
 11
-101.516
 21
75.0594
  0
LINE
  8
0
 10
-101.516
 20
75.0594
 11
-101.653
 21
75.0304
  0
LINE
  8
0
 10
-101.653
 20
75.0304
 11
-101.791
 21
75.011
  0
LINE
  8
0
 10
-101.791
 20
75.011
 11
-101.93
 21
75.0012
  0
LINE
  8
0
 10
-101.93
 20
75.0012
 11
-102.07
 21
75.0012
  0
LINE
  8
0
 10
-141.054
 20
8.2618
 11
-141.242
 21
8.27493
  0
LINE
  8
0
 10
-141.242
 20
8.27493
 11
-141.429
 21
8.30116
  0
LINE
  8
0
 10
-141.429
 20
8.30116
 11
-141.613
 21
8.34035
  0
LINE
  8
0
 10
-141.613
 20
8.34035
 11
-141.794
 21
8.39229
  0
LINE
  8
0
 10
-141.794
 20
8.39229
 11
-141.972
 21
8.45676
  0
LINE
  8
0
 10
-141.972
 20
8.45676
 11
-142.144
 21
8.5334
  0
LINE
  8
0
 10
-142.144
 20
8.5334
 11
-142.31
 21
8.62187
  0
LINE
  8
0
 10
-142.31
 20
8.62187
 11
-142.47
 21
8.72174
  0
LINE
  8
0
 10
-142.47
 20
8.72174
 11
-142.622
 21
8.83252
  0
LINE
  8
0
 10
-142.622
 20
8.83252
 11
-142.767
 21
8.95366
  0
LINE
  8
0
 10
-142.767
 20
8.95366
 11
-142.902
 21
9.08456
  0
LINE
  8
0
 10
-142.902
 20
9.08456
 11
-143.028
 21
9.22462
  0
LINE
  8
0
 10
-143.028
 20
9.22462
 11
-143.145
 21
9.37312
  0
LINE
  8
0
 10
-143.145
 20
9.37312
 11
-143.25
 21
9.52936
  0
LINE
  8
0
 10
-143.25
 20
9.52936
 11
-143.344
 21
9.69258
  0
LINE
  8
0
 10
-143.344
 20
9.69258
 11
-143.427
 21
9.86195
  0
LINE
  8
0
 10
-143.427
 20
9.86195
 11
-143.497
 21
10.0367
  0
LINE
  8
0
 10
-143.497
 20
10.0367
 11
-143.556
 21
10.2159
  0
LINE
  8
0
 10
-143.556
 20
10.2159
 11
-143.601
 21
10.3988
  0
LINE
  8
0
 10
-143.601
 20
10.3988
 11
-143.634
 21
10.5844
  0
LINE
  8
0
 10
-143.634
 20
10.5844
 11
-143.654
 21
10.7718
  0
LINE
  8
0
 10
-143.654
 20
10.7718
 11
-143.66
 21
10.9601
  0
LINE
  8
0
 10
-143.66
 20
10.9601
 11
-143.654
 21
11.1485
  0
LINE
  8
0
 10
-143.654
 20
11.1485
 11
-143.634
 21
11.3359
  0
LINE
  8
0
 10
-143.634
 20
11.3359
 11
-143.601
 21
11.5215
  0
LINE
  8
0
 10
-143.601
 20
11.5215
 11
-143.556
 21
11.7044
  0
LINE
  8
0
 10
-143.556
 20
11.7044
 11
-143.497
 21
11.8836
  0
LINE
  8
0
 10
-143.497
 20
11.8836
 11
-143.427
 21
12.0583
  0
LINE
  8
0
 10
-143.427
 20
12.0583
 11
-143.344
 21
12.2277
  0
LINE
  8
0
 10
-143.344
 20
12.2277
 11
-143.25
 21
12.3909
  0
LINE
  8
0
 10
-143.25
 20
12.3909
 11
-143.145
 21
12.5472
  0
LINE
  8
0
 10
-143.145
 20
12.5472
 11
-143.028
 21
12.6957
  0
LINE
  8
0
 10
-143.028
 20
12.6957
 11
-142.902
 21
12.8357
  0
LINE
  8
0
 10
-142.902
 20
12.8357
 11
-142.767
 21
12.9666
  0
LINE
  8
0
 10
-142.767
 20
12.9666
 11
-142.622
 21
13.0878
  0
LINE
  8
0
 10
-142.622
 20
13.0878
 11
-142.47
 21
13.1985
  0
LINE
  8
0
 10
-142.47
 20
13.1985
 11
-142.31
 21
13.2984
  0
LINE
  8
0
 10
-142.31
 20
13.2984
 11
-142.144
 21
13.3869
  0
LINE
  8
0
 10
-142.144
 20
13.3869
 11
-141.972
 21
13.4635
  0
LINE
  8
0
 10
-141.972
 20
13.4635
 11
-141.794
 21
13.528
  0
LINE
  8
0
 10
-141.794
 20
13.528
 11
-141.613
 21
13.5799
  0
LINE
  8
0
 10
-141.613
 20
13.5799
 11
-141.429
 21
13.6191
  0
LINE
  8
0
 10
-141.429
 20
13.6191
 11
-141.242
 21
13.6454
  0
LINE
  8
0
 10
-141.242
 20
13.6454
 11
-141.054
 21
13.6585
  0
LINE
  8
0
 10
-141.054
 20
13.6585
 11
-140.866
 21
13.6585
  0
LINE
  8
0
 10
-140.866
 20
13.6585
 11
-140.678
 21
13.6454
  0
LINE
  8
0
 10
-140.678
 20
13.6454
 11
-140.491
 21
13.6191
  0
LINE
  8
0
 10
-140.491
 20
13.6191
 11
-140.307
 21
13.5799
  0
LINE
  8
0
 10
-140.307
 20
13.5799
 11
-140.126
 21
13.528
  0
LINE
  8
0
 10
-140.126
 20
13.528
 11
-139.949
 21
13.4635
  0
LINE
  8
0
 10
-139.949
 20
13.4635
 11
-139.777
 21
13.3869
  0
LINE
  8
0
 10
-139.777
 20
13.3869
 11
-139.61
 21
13.2984
  0
LINE
  8
0
 10
-139.61
 20
13.2984
 11
-139.45
 21
13.1985
  0
LINE
  8
0
 10
-139.45
 20
13.1985
 11
-139.298
 21
13.0878
  0
LINE
  8
0
 10
-139.298
 20
13.0878
 11
-139.153
 21
12.9666
  0
LINE
  8
0
 10
-139.153
 20
12.9666
 11
-139.018
 21
12.8357
  0
LINE
  8
0
 10
-139.018
 20
12.8357
 11
-138.892
 21
12.6957
  0
LINE
  8
0
 10
-138.892
 20
12.6957
 11
-138.776
 21
12.5472
  0
LINE
  8
0
 10
-138.776
 20
12.5472
 11
-138.67
 21
12.3909
  0
LINE
  8
0
 10
-138.67
 20
12.3909
 11
-138.576
 21
12.2277
  0
LINE
  8
0
 10
-138.576
 20
12.2277
 11
-138.494
 21
12.0583
  0
LINE
  8
0
 10
-138.494
 20
12.0583
 11
-138.423
 21
11.8836
  0
LINE
  8
0
 10
-138.423
 20
11.8836
 11
-138.365
 21
11.7044
  0
LINE
  8
0
 10
-138.365
 20
11.7044
 11
-138.319
 21
11.5215
  0
LINE
  8
0
 10
-138.319
 20
11.5215
 11
-138.286
 21
11.3359
  0
LINE
  8
0
 10
-138.286
 20
11.3359
 11
-138.267
 21
11.1485
  0
LINE
  8
0
 10
-138.267
 20
11.1485
 11
-138.26
 21
10.9601
  0
LINE
  8
0
 10
-138.26
 20
10.9601
 11
-138.267
 21
10.7718
  0
LINE
  8
0
 10
-138.267
 20
10.7718
 11
-138.286
 21
10.5844
  0
LINE
  8
0
 10
-138.286
 20
10.5844
 11
-138.319
 21
10.3988
  0
LINE
  8
0
 10
-138.319
 20
10.3988
 11
-138.365
 21
10.2159
  0
LINE
  8
0
 10
-138.365
 20
10.2159
 11
-138.423
 21
10.0367
  0
LINE
  8
0
 10
-138.423
 20
10.0367
 11
-138.494
 21
9.86195
  0
LINE
  8
0
 10
-138.494
 20
9.86195
 11
-138.576
 21
9.69258
  0
LINE
  8
0
 10
-138.576
 20
9.69258
 11
-138.67
 21
9.52936
  0
LINE
  8
0
 10
-138.67
 20
9.52936
 11
-138.776
 21
9.37312
  0
LINE
  8
0
 10
-138.776
 20
9.37312
 11
-138.892
 21
9.22462
  0
LINE
  8
0
 10
-138.892
 20
9.22462
 11
-139.018
 21
9.08456
  0
LINE
  8
0
 10
-139.018
 20
9.08456
 11
-139.153
 21
8.95366
  0
LINE
  8
0
 10
-139.153
 20
8.95366
 11
-139.298
 21
8.83252
  0
LINE
  8
0
 10
-139.298
 20
8.83252
 11
-139.45
 21
8.72174
  0
LINE
  8
0
 10
-139.45
 20
8.72174
 11
-139.61
 21
8.62187
  0
LINE
  8
0
 10
-139.61
 20
8.62187
 11
-139.777
 21
8.5334
  0
LINE
  8
0
 10
-139.777
 20
8.5334
 11
-139.949
 21
8.45676
  0
LINE
  8
0
 10
-139.949
 20
8.45676
 11
-140.126
 21
8.39229
  0
LINE
  8
0
 10
-140.126
 20
8.39229
 11
-140.307
 21
8.34035
  0
LINE
  8
0
 10
-140.307
 20
8.34035
 11
-140.491
 21
8.30116
  0
LINE
  8
0
 10
-140.491
 20
8.30116
 11
-140.678
 21
8.27493
  0
LINE
  8
0
 10
-140.678
 20
8.27493
 11
-140.866
 21
8.2618
  0
LINE
  8
0
 10
-140.866
 20
8.2618
 11
-141.054
 21
8.2618
  0
LINE
  8
0
 10
-119.134
 20
8.2618
 11
-119.322
 21
8.27493
  0
LINE
  8
0
 10
-119.322
 20
8.27493
 11
-119.509
 21
8.30116
  0
LINE
  8
0
 10
-119.509
 20
8.30116
 11
-119.693
 21
8.34035
  0
LINE
  8
0
 10
-119.693
 20
8.34035
 11
-119.874
 21
8.39229
  0
LINE
  8
0
 10
-119.874
 20
8.39229
 11
-120.051
 21
8.45676
  0
LINE
  8
0
 10
-120.051
 20
8.45676
 11
-120.223
 21
8.5334
  0
LINE
  8
0
 10
-120.223
 20
8.5334
 11
-120.39
 21
8.62187
  0
LINE
  8
0
 10
-120.39
 20
8.62187
 11
-120.55
 21
8.72174
  0
LINE
  8
0
 10
-120.55
 20
8.72174
 11
-120.702
 21
8.83252
  0
LINE
  8
0
 10
-120.702
 20
8.83252
 11
-120.846
 21
8.95366
  0
LINE
  8
0
 10
-120.846
 20
8.95366
 11
-120.982
 21
9.08456
  0
LINE
  8
0
 10
-120.982
 20
9.08456
 11
-121.108
 21
9.22462
  0
LINE
  8
0
 10
-121.108
 20
9.22462
 11
-121.224
 21
9.37312
  0
LINE
  8
0
 10
-121.224
 20
9.37312
 11
-121.33
 21
9.52936
  0
LINE
  8
0
 10
-121.33
 20
9.52936
 11
-121.424
 21
9.69258
  0
LINE
  8
0
 10
-121.424
 20
9.69258
 11
-121.506
 21
9.86195
  0
LINE
  8
0
 10
-121.506
 20
9.86195
 11
-121.577
 21
10.0367
  0
LINE
  8
0
 10
-121.577
 20
10.0367
 11
-121.635
 21
10.2159
  0
LINE
  8
0
 10
-121.635
 20
10.2159
 11
-121.681
 21
10.3988
  0
LINE
  8
0
 10
-121.681
 20
10.3988
 11
-121.714
 21
10.5844
  0
LINE
  8
0
 10
-121.714
 20
10.5844
 11
-121.733
 21
10.7718
  0
LINE
  8
0
 10
-121.733
 20
10.7718
 11
-121.74
 21
10.9601
  0
LINE
  8
0
 10
-121.74
 20
10.9601
 11
-121.733
 21
11.1485
  0
LINE
  8
0
 10
-121.733
 20
11.1485
 11
-121.714
 21
11.3359
  0
LINE
  8
0
 10
-121.714
 20
11.3359
 11
-121.681
 21
11.5215
  0
LINE
  8
0
 10
-121.681
 20
11.5215
 11
-121.635
 21
11.7044
  0
LINE
  8
0
 10
-121.635
 20
11.7044
 11
-121.577
 21
11.8836
  0
LINE
  8
0
 10
-121.577
 20
11.8836
 11
-121.506
 21
12.0583
  0
LINE
  8
0
 10
-121.506
 20
12.0583
 11
-121.424
 21
12.2277
  0
LINE
  8
0
 10
-121.424
 20
12.2277
 11
-121.33
 21
12.3909
  0
LINE
  8
0
 10
-121.33
 20
12.3909
 11
-121.224
 21
12.5472
  0
LINE
  8
0
 10
-121.224
 20
12.5472
 11
-121.108
 21
12.6957
  0
LINE
  8
0
 10
-121.108
 20
12.6957
 11
-120.982
 21
12.8357
  0
LINE
  8
0
 10
-120.982
 20
12.8357
 11
-120.846
 21
12.9666
  0
LINE
  8
0
 10
-120.846
 20
12.9666
 11
-120.702
 21
13.0878
  0
LINE
  8
0
 10
-120.702
 20
13.0878
 11
-120.55
 21
13.1985
  0
LINE
  8
0
 10
-120.55
 20
13.1985
 11
-120.39
 21
13.2984
  0
LINE
  8
0
 10
-120.39
 20
13.2984
 11
-120.223
 21
13.3869
  0
LINE
  8
0
 10
-120.223
 20
13.3869
 11
-120.051
 21
13.4635
  0
LINE
  8
0
 10
-120.051
 20
13.4635
 11
-119.874
 21
13.528
  0
LINE
  8
0
 10
-119.874
 20
13.528
 11
-119.693
 21
13.5799
  0
LINE
  8
0
 10
-119.693
 20
13.5799
 11
-119.509
 21
13.6191
  0
LINE
  8
0
 10
-119.509
 20
13.6191
 11
-119.322
 21
13.6454
  0
LINE
  8
0
 10
-119.322
 20
13.6454
 11
-119.134
 21
13.6585
  0
LINE
  8
0
 10
-119.134
 20
13.6585
 11
-118.946
 21
13.6585
  0
LINE
  8
0
 10
-118.946
 20
13.6585
 11
-118.758
 21
13.6454
  0
LINE
  8
0
 10
-118.758
 20
13.6454
 11
-118.571
 21
13.6191
  0
LINE
  8
0
 10
-118.571
 20
13.6191
 11
-118.387
 21
13.5799
  0
LINE
  8
0
 10
-118.387
 20
13.5799
 11
-118.205
 21
13.528
  0
LINE
  8
0
 10
-118.205
 20
13.528
 11
-118.028
 21
13.4635
  0
LINE
  8
0
 10
-118.028
 20
13.4635
 11
-117.856
 21
13.3869
  0
LINE
  8
0
 10
-117.856
 20
13.3869
 11
-117.69
 21
13.2984
  0
LINE
  8
0
 10
-117.69
 20
13.2984
 11
-117.53
 21
13.1985
  0
LINE
  8
0
 10
-117.53
 20
13.1985
 11
-117.378
 21
13.0878
  0
LINE
  8
0
 10
-117.378
 20
13.0878
 11
-117.233
 21
12.9666
  0
LINE
  8
0
 10
-117.233
 20
12.9666
 11
-117.098
 21
12.8357
  0
LINE
  8
0
 10
-117.098
 20
12.8357
 11
-116.972
 21
12.6957
  0
LINE
  8
0
 10
-116.972
 20
12.6957
 11
-116.855
 21
12.5472
  0
LINE
  8
0
 10
-116.855
 20
12.5472
 11
-116.75
 21
12.3909
  0
LINE
  8
0
 10
-116.75
 20
12.3909
 11
-116.656
 21
12.2277
  0
LINE
  8
0
 10
-116.656
 20
12.2277
 11
-116.573
 21
12.0583
  0
LINE
  8
0
 10
-116.573
 20
12.0583
 11
-116.503
 21
11.8836
  0
LINE
  8
0
 10
-116.503
 20
11.8836
 11
-116.444
 21
11.7044
  0
LINE
  8
0
 10
-116.444
 20
11.7044
 11
-116.399
 21
11.5215
  0
LINE
  8
0
 10
-116.399
 20
11.5215
 11
-116.366
 21
11.3359
  0
LINE
  8
0
 10
-116.366
 20
11.3359
 11
-116.346
 21
11.1485
  0
LINE
  8
0
 10
-116.346
 20
11.1485
 11
-116.34
 21
10.9601
  0
LINE
  8
0
 10
-116.34
 20
10.9601
 11
-116.346
 21
10.7718
  0
LINE
  8
0
 10
-116.346
 20
10.7718
 11
-116.366
 21
10.5844
  0
LINE
  8
0
 10
-116.366
 20
10.5844
 11
-116.399
 21
10.3988
  0
LINE
  8
0
 10
-116.399
 20
10.3988
 11
-116.444
 21
10.2159
  0
LINE
  8
0
 10
-116.444
 20
10.2159
 11
-116.503
 21
10.0367
  0
LINE
  8
0
 10
-116.503
 20
10.0367
 11
-116.573
 21
9.86195
  0
LINE
  8
0
 10
-116.573
 20
9.86195
 11
-116.656
 21
9.69258
  0
LINE
  8
0
 10
-116.656
 20
9.69258
 11
-116.75
 21
9.52936
  0
LINE
  8
0
 10
-116.75
 20
9.52936
 11
-116.855
 21
9.37312
  0
LINE
  8
0
 10
-116.855
 20
9.37312
 11
-116.972
 21
9.22462
  0
LINE
  8
0
 10
-116.972
 20
9.22462
 11
-117.098
 21
9.08456
  0
LINE
  8
0
 10
-117.098
 20
9.08456
 11
-117.233
 21
8.95366
  0
LINE
  8
0
 10
-117.233
 20
8.95366
 11
-117.378
 21
8.83252
  0
LINE
  8
0
 10
-117.378
 20
8.83252
 11
-117.53
 21
8.72174
  0
LINE
  8
0
 10
-117.53
 20
8.72174
 11
-117.69
 21
8.62187
  0
LINE
  8
0
 10
-117.69
 20
8.62187
 11
-117.856
 21
8.5334
  0
LINE
  8
0
 10
-117.856
 20
8.5334
 11
-118.028
 21
8.45676
  0
LINE
  8
0
 10
-118.028
 20
8.45676
 11
-118.205
 21
8.39229
  0
LINE
  8
0
 10
-118.205
 20
8.39229
 11
-118.387
 21
8.34035
  0
LINE
  8
0
 10
-118.387
 20
8.34035
 11
-118.571
 21
8.30116
  0
LINE
  8
0
 10
-118.571
 20
8.30116
 11
-118.758
 21
8.27493
  0
LINE
  8
0
 10
-118.758
 20
8.27493
 11
-118.946
 21
8.2618
  0
LINE
  8
0
 10
-118.946
 20
8.2618
 11
-119.134
 21
8.2618
  0
LINE
  8
0
 10
140.866
 20
8.2618
 11
140.678
 21
8.27493
  0
LINE
  8
0
 10
140.678
 20
8.27493
 11
140.491
 21
8.30116
  0
LINE
  8
0
 10
140.491
 20
8.30116
 11
140.307
 21
8.34035
  0
LINE
  8
0
 10
140.307
 20
8.34035
 11
140.126
 21
8.39229
  0
LINE
  8
0
 10
140.126
 20
8.39229
 11
139.949
 21
8.45676
  0
LINE
  8
0
 10
139.949
 20
8.45676
 11
139.777
 21
8.5334
  0
LINE
  8
0
 10
139.777
 20
8.5334
 11
139.61
 21
8.62187
  0
LINE
  8
0
 10
139.61
 20
8.62187
 11
139.45
 21
8.72174
  0
LINE
  8
0
 10
139.45
 20
8.72174
 11
139.298
 21
8.83252
  0
LINE
  8
0
 10
139.298
 20
8.83252
 11
139.153
 21
8.95366
  0
LINE
  8
0
 10
139.153
 20
8.95366
 11
139.018
 21
9.08456
  0
LINE
  8
0
 10
139.018
 20
9.08456
 11
138.892
 21
9.22462
  0
LINE
  8
0
 10
138.892
 20
9.22462
 11
138.776
 21
9.37312
  0
LINE
  8
0
 10
138.776
 20
9.37312
 11
138.67
 21
9.52936
  0
LINE
  8
0
 10
138.67
 20
9.52936
 11
138.576
 21
9.69258
  0
LINE
  8
0
 10
138.576
 20
9.69258
 11
138.494
 21
9.86195
  0
LINE
  8
0
 10
138.494
 20
9.86195
 11
138.423
 21
10.0367
  0
LINE
  8
0
 10
138.423
 20
10.0367
 11
138.365
 21
10.2159
  0
LINE
  8
0
 10
138.365
 20
10.2159
 11
138.319
 21
10.3988
  0
LINE
  8
0
 10
138.319
 20
10.3988
 11
138.286
 21
10.5844
  0
LINE
  8
0
 10
138.286
 20
10.5844
 11
138.267
 21
10.7718
  0
LINE
  8
0
 10
138.267
 20
10.7718
 11
138.26
 21
10.9601
  0
LINE
  8
0
 10
138.26
 20
10.9601
 11
138.267
 21
11.1485
  0
LINE
  8
0
 10
138.267
 20
11.1485
 11
138.286
 21
11.3359
  0
LINE
  8
0
 10
138.286
 20
11.3359
 11
138.319
 21
11.5215
  0
LINE
  8
0
 10
138.319
 20
11.5215
 11
138.365
 21
11.7044
  0
LINE
  8
0
 10
138.365
 20
11.7044
 11
138.423
 21
11.8836
  0
LINE
  8
0
 10
138.423
 20
11.8836
 11
138.494
 21
12.0583
  0
LINE
  8
0
 10
138.494
 20
12.0583
 11
138.576
 21
12.2277
  0
LINE
  8
0
 10
138.576
 20
12.2277
 11
138.67
 21
12.3909
  0
LINE
  8
0
 10
138.67
 20
12.3909
 11
138.776
 21
12.5472
  0
LINE
  8
0
 10
138.776
 20
12.5472
 11
138.892
 21
12.6957
  0
LINE
  8
0
 10
138.892
 20
12.6957
 11
139.018
 21
12.8357
  0
LINE
  8
0
 10
139.018
 20
12.8357
 11
139.153
 21
12.9666
  0
LINE
  8
0
 10
139.153
 20
12.9666
 11
139.298
 21
13.0878
  0
LINE
  8
0
 10
139.298
 20
13.0878
 11
139.45
 21
13.1985
  0
LINE
  8
0
 10
139.45
 20
13.1985
 11
139.61
 21
13.2984
  0
LINE
  8
0
 10
139.61
 20
13.2984
 11
139.777
 21
13.3869
  0
LINE
  8
0
 10
139.777
 20
13.3869
 11
139.949
 21
13.4635
  0
LINE
  8
0
 10
139.949
 20
13.4635
 11
140.126
 21
13.528
  0
LINE
  8
0
 10
140.126
 20
13.528
 11
140.307
 21
13.5799
  0
LINE
  8
0
 10
140.307
 20
13.5799
 11
140.491
 21
13.6191
  0
LINE
  8
0
 10
140.491
 20
13.6191
 11
140.678
 21
13.6454
  0
LINE
  8
0
 10
140.678
 20
13.6454
 11
140.866
 21
13.6585
  0
LINE
  8
0
 10
140.866
 20
13.6585
 11
141.054
 21
13.6585
  0
LINE
  8
0
 10
141.054
 20
13.6585
 11
141.242
 21
13.6454
  0
LINE
  8
0
 10
141.242
 20
13.6454
 11
141.429
 21
13.6191
  0
LINE
  8
0
 10
141.429
 20
13.6191
 11
141.613
 21
13.5799
  0
LINE
  8
0
 10
141.613
 20
13.5799
 11
141.794
 21
13.528
  0
LINE
  8
0
 10
141.794
 20
13.528
 11
141.972
 21
13.4635
  0
LINE
  8
0
 10
141.972
 20
13.4635
 11
142.144
 21
13.3869
  0
LINE
  8
0
 10
142.144
 20
13.3869
 11
142.31
 21
13.2984
  0
LINE
  8
0
 10
142.31
 20
13.2984
 11
142.47
 21
13.1985
  0
LINE
  8
0
 10
142.47
 20
13.1985
 11
142.622
 21
13.0878
  0
LINE
  8
0
 10
142.622
 20
13.0878
 11
142.767
 21
12.9666
  0
LINE
  8
0
 10
142.767
 20
12.9666
 11
142.902
 21
12.8357
  0
LINE
  8
0
 10
142.902
 20
12.8357
 11
143.028
 21
12.6957
  0
LINE
  8
0
 10
143.028
 20
12.6957
 11
143.145
 21
12.5472
  0
LINE
  8
0
 10
143.145
 20
12.5472
 11
143.25
 21
12.3909
  0
LINE
  8
0
 10
143.25
 20
12.3909
 11
143.344
 21
12.2277
  0
LINE
  8
0
 10
143.344
 20
12.2277
 11
143.427
 21
12.0583
  0
LINE
  8
0
 10
143.427
 20
12.0583
 11
143.497
 21
11.8836
  0
LINE
  8
0
 10
143.497
 20
11.8836
 11
143.556
 21
11.7044
  0
LINE
  8
0
 10
143.556
 20
11.7044
 11
143.601
 21
11.5215
  0
LINE
  8
0
 10
143.601
 20
11.5215
 11
143.634
 21
11.3359
  0
LINE
  8
0
 10
143.634
 20
11.3359
 11
143.654
 21
11.1485
  0
LINE
  8
0
 10
143.654
 20
11.1485
 11
143.66
 21
10.9601
  0
LINE
  8
0
 10
143.66
 20
10.9601
 11
143.654
 21
10.7718
  0
LINE
  8
0
 10
143.654
 20
10.7718
 11
143.634
 21
10.5844
  0
LINE
  8
0
 10
143.634
 20
10.5844
 11
143.601
 21
10.3988
  0
LINE
  8
0
 10
143.601
 20
10.3988
 11
143.556
 21
10.2159
  0
LINE
  8
0
 10
143.556
 20
10.2159
 11
143.497
 21
10.0367
  0
LINE
  8
0
 10
143.497
 20
10.0367
 11
143.427
 21
9.86195
  0
LINE
  8
0
 10
143.427
 20
9.86195
 11
143.344
 21
9.69258
  0
LINE
  8
0
 10
143.344
 20
9.69258
 11
143.25
 21
9.52936
  0
LINE
  8
0
 10
143.25
 20
9.52936
 11
143.145
 21
9.37312
  0
LINE
  8
0
 10
143.145
 20
9.37312
 11
143.028
 21
9.22462
  0
LINE
  8
0
 10
143.028
 20
9.22462
 11
142.902
 21
9.08456
  0
LINE
  8
0
 10
142.902
 20
9.08456
 11
142.767
 21
8.95366
  0
LINE
  8
0
 10
142.767
 20
8.95366
 11
142.622
 21
8.83252
  0
LINE
  8
0
 10
142.622
 20
8.83252
 11
142.47
 21
8.72174
  0
LINE
  8
0
 10
142.47
 20
8.72174
 11
142.31
 21
8.62187
  0
LINE
  8
0
 10
142.31
 20
8.62187
 11
142.144
 21
8.5334
  0
LINE
  8
0
 10
142.144
 20
8.5334
 11
141.972
 21
8.45676
  0
LINE
  8
0
 10
141.972
 20
8.45676
 11
141.794
 21
8.39229
  0
LINE
  8
0
 10
141.794
 20
8.39229
 11
141.613
 21
8.34035
  0
LINE
  8
0
 10
141.613
 20
8.34035
 11
141.429
 21
8.30116
  0
LINE
  8
0
 10
141.429
 20
8.30116
 11
141.242
 21
8.27493
  0
LINE
  8
0
 10
141.242
 20
8.27493
 11
141.054
 21
8.2618
  0
LINE
  8
0
 10
141.054
 20
8.2618
 11
140.866
 21
8.2618
  0
LINE
  8
0
 10
118.946
 20
8.2618
 11
118.758
 21
8.27493
  0
LINE
  8
0
 10
118.758
 20
8.27493
 11
118.571
 21
8.30116
  0
LINE
  8
0
 10
118.571
 20
8.30116
 11
118.387
 21
8.34035
  0
LINE
  8
0
 10
118.387
 20
8.34035
 11
118.205
 21
8.39229
  0
LINE
  8
0
 10
118.205
 20
8.39229
 11
118.028
 21
8.45676
  0
LINE
  8
0
 10
118.028
 20
8.45676
 11
117.856
 21
8.5334
  0
LINE
  8
0
 10
117.856
 20
8.5334
 11
117.69
 21
8.62187
  0
LINE
  8
0
 10
117.69
 20
8.62187
 11
117.53
 21
8.72174
  0
LINE
  8
0
 10
117.53
 20
8.72174
 11
117.378
 21
8.83252
  0
LINE
  8
0
 10
117.378
 20
8.83252
 11
117.233
 21
8.95366
  0
LINE
  8
0
 10
117.233
 20
8.95366
 11
117.098
 21
9.08456
  0
LINE
  8
0
 10
117.098
 20
9.08456
 11
116.972
 21
9.22462
  0
LINE
  8
0
 10
116.972
 20
9.22462
 11
116.855
 21
9.37312
  0
LINE
  8
0
 10
116.855
 20
9.37312
 11
116.75
 21
9.52936
  0
LINE
  8
0
 10
116.75
 20
9.52936
 11
116.656
 21
9.69258
  0
LINE
  8
0
 10
116.656
 20
9.69258
 11
116.573
 21
9.86195
  0
LINE
  8
0
 10
116.573
 20
9.86195
 11
116.503
 21
10.0367
  0
LINE
  8
0
 10
116.503
 20
10.0367
 11
116.444
 21
10.2159
  0
LINE
  8
0
 10
116.444
 20
10.2159
 11
116.399
 21
10.3988
  0
LINE
  8
0
 10
116.399
 20
10.3988
 11
116.366
 21
10.5844
  0
LINE
  8
0
 10
116.366
 20
10.5844
 11
116.346
 21
10.7718
  0
LINE
  8
0
 10
116.346
 20
10.7718
 11
116.34
 21
10.9601
  0
LINE
  8
0
 10
116.34
 20
10.9601
 11
116.346
 21
11.1485
  0
LINE
  8
0
 10
116.346
 20
11.1485
 11
116.366
 21
11.3359
  0
LINE
  8
0
 10
116.366
 20
11.3359
 11
116.399
 21
11.5215
  0
LINE
  8
0
 10
116.399
 20
11.5215
 11
116.444
 21
11.7044
  0
LINE
  8
0
 10
116.444
 20
11.7044
 11
116.503
 21
11.8836
  0
LINE
  8
0
 10
116.503
 20
11.8836
 11
116.573
 21
12.0583
  0
LINE
  8
0
 10
116.573
 20
12.0583
 11
116.656
 21
12.2277
  0
LINE
  8
0
 10
116.656
 20
12.2277
 11
116.75
 21
12.3909
  0
LINE
  8
0
 10
116.75
 20
12.3909
 11
116.855
 21
12.5472
  0
LINE
  8
0
 10
116.855
 20
12.5472
 11
116.972
 21
12.6957
  0
LINE
  8
0
 10
116.972
 20
12.6957
 11
117.098
 21
12.8357
  0
LINE
  8
0
 10
117.098
 20
12.8357
 11
117.233
 21
12.9666
  0
LINE
  8
0
 10
117.233
 20
12.9666
 11
117.378
 21
13.0878
  0
LINE
  8
0
 10
117.378
 20
13.0878
 11
117.53
 21
13.1985
  0
LINE
  8
0
 10
117.53
 20
13.1985
 11
117.69
 21
13.2984
  0
LINE
  8
0
 10
117.69
 20
13.2984
 11
117.856
 21
13.3869
  0
LINE
  8
0
 10
117.856
 20
13.3869
 11
118.028
 21
13.4635
  0
LINE
  8
0
 10
118.028
 20
13.4635
 11
118.205
 21
13.528
  0
LINE
  8
0
 10
118.205
 20
13.528
 11
118.387
 21
13.5799
  0
LINE
  8
0
 10
118.387
 20
13.5799
 11
118.571
 21
13.6191
  0
LINE
  8
0
 10
118.571
 20
13.6191
 11
118.758
 21
13.6454
  0
LINE
  8
0
 10
118.758
 20
13.6454
 11
118.946
 21
13.6585
  0
LINE
  8
0
 10
118.946
 20
13.6585
 11
119.134
 21
13.6585
  0
LINE
  8
0
 10
119.134
 20
13.6585
 11
119.322
 21
13.6454
  0
LINE
  8
0
 10
119.322
 20
13.6454
 11
119.509
 21
13.6191
  0
LINE
  8
0
 10
119.509
 20
13.6191
 11
119.693
 21
13.5799
  0
LINE
  8
0
 10
119.693
 20
13.5799
 11
119.874
 21
13.528
  0
LINE
  8
0
 10
119.874
 20
13.528
 11
120.051
 21
13.4635
  0
LINE
  8
0
 10
120.051
 20
13.4635
 11
120.223
 21
13.3869
  0
LINE
  8
0
 10
120.223
 20
13.3869
 11
120.39
 21
13.2984
  0
LINE
  8
0
 10
120.39
 20
13.2984
 11
120.55
 21
13.1985
  0
LINE
  8
0
 10
120.55
 20
13.1985
 11
120.702
 21
13.0878
  0
LINE
  8
0
 10
120.702
 20
13.0878
 11
120.846
 21
12.9666
  0
LINE
  8
0
 10
120.846
 20
12.9666
 11
120.982
 21
12.8357
  0
LINE
  8
0
 10
120.982
 20
12.8357
 11
121.108
 21
12.6957
  0
LINE
  8
0
 10
121.108
 20
12.6957
 11
121.224
 21
12.5472
  0
LINE
  8
0
 10
121.224
 20
12.5472
 11
121.33
 21
12.3909
  0
LINE
  8
0
 10
121.33
 20
12.3909
 11
121.424
 21
12.2277
  0
LINE
  8
0
 10
121.424
 20
12.2277
 11
121.506
 21
12.0583
  0
LINE
  8
0
 10
121.506
 20
12.0583
 11
121.577
 21
11.8836
  0
LINE
  8
0
 10
121.577
 20
11.8836
 11
121.635
 21
11.7044
  0
LINE
  8
0
 10
121.635
 20
11.7044
 11
121.681
 21
11.5215
  0
LINE
  8
0
 10
121.681
 20
11.5215
 11
121.714
 21
11.3359
  0
LINE
  8
0
 10
121.714
 20
11.3359
 11
121.733
 21
11.1485
  0
LINE
  8
0
 10
121.733
 20
11.1485
 11
121.74
 21
10.9601
  0
LINE
  8
0
 10
121.74
 20
10.9601
 11
121.733
 21
10.7718
  0
LINE
  8
0
 10
121.733
 20
10.7718
 11
121.714
 21
10.5844
  0
LINE
  8
0
 10
121.714
 20
10.5844
 11
121.681
 21
10.3988
  0
LINE
  8
0
 10
121.681
 20
10.3988
 11
121.635
 21
10.2159
  0
LINE
  8
0
 10
121.635
 20
10.2159
 11
121.577
 21
10.0367
  0
LINE
  8
0
 10
121.577
 20
10.0367
 11
121.506
 21
9.86195
  0
LINE
  8
0
 10
121.506
 20
9.86195
 11
121.424
 21
9.69258
  0
LINE
  8
0
 10
121.424
 20
9.69258
 11
121.33
 21
9.52936
  0
LINE
  8
0
 10
121.33
 20
9.52936
 11
121.224
 21
9.37312
  0
LINE
  8
0
 10
121.224
 20
9.37312
 11
121.108
 21
9.22462
  0
LINE
  8
0
 10
121.108
 20
9.22462
 11
120.982
 21
9.08456
  0
LINE
  8
0
 10
120.982
 20
9.08456
 11
120.846
 21
8.95366
  0
LINE
  8
0
 10
120.846
 20
8.95366
 11
120.702
 21
8.83252
  0
LINE
  8
0
 10
120.702
 20
8.83252
 11
120.55
 21
8.72174
  0
LINE
  8
0
 10
120.55
 20
8.72174
 11
120.39
 21
8.62187
  0
LINE
  8
0
 10
120.39
 20
8.62187
 11
120.223
 21
8.5334
  0
LINE
  8
0
 10
120.223
 20
8.5334
 11
120.051
 21
8.45676
  0
LINE
  8
0
 10
120.051
 20
8.45676
 11
119.874
 21
8.39229
  0
LINE
  8
0
 10
119.874
 20
8.39229
 11
119.693
 21
8.34035
  0
LINE
  8
0
 10
119.693
 20
8.34035
 11
119.509
 21
8.30116
  0
LINE
  8
0
 10
119.509
 20
8.30116
 11
119.322
 21
8.27493
  0
LINE
  8
0
 10
119.322
 20
8.27493
 11
119.134
 21
8.2618
  0
LINE
  8
0
 10
119.134
 20
8.2618
 11
118.946
 21
8.2618
  0
LINE
  8
0
 10
129.721
 20
-7.99512
 11
129.164
 21
-7.95616
  0
LINE
  8
0
 10
129.164
 20
-7.95616
 11
128.611
 21
-7.87845
  0
LINE
  8
0
 10
128.611
 20
-7.87845
 11
128.065
 21
-7.76236
  0
LINE
  8
0
 10
128.065
 20
-7.76236
 11
127.528
 21
-7.60844
  0
LINE
  8
0
 10
127.528
 20
-7.60844
 11
127.003
 21
-7.41747
  0
LINE
  8
0
 10
127.003
 20
-7.41747
 11
126.493
 21
-7.19034
  0
LINE
  8
0
 10
126.493
 20
-7.19034
 11
126
 21
-6.92819
  0
LINE
  8
0
 10
126
 20
-6.92819
 11
125.526
 21
-6.63229
  0
LINE
  8
0
 10
125.526
 20
-6.63229
 11
125.075
 21
-6.30408
  0
LINE
  8
0
 10
125.075
 20
-6.30408
 11
124.647
 21
-5.94514
  0
LINE
  8
0
 10
124.647
 20
-5.94514
 11
124.245
 21
-5.55727
  0
LINE
  8
0
 10
124.245
 20
-5.55727
 11
123.872
 21
-5.14229
  0
LINE
  8
0
 10
123.872
 20
-5.14229
 11
123.528
 21
-4.70227
  0
LINE
  8
0
 10
123.528
 20
-4.70227
 11
123.216
 21
-4.23935
  0
LINE
  8
0
 10
123.216
 20
-4.23935
 11
122.936
 21
-3.75577
  0
LINE
  8
0
 10
122.936
 20
-3.75577
 11
122.692
 21
-3.25389
  0
LINE
  8
0
 10
122.692
 20
-3.25389
 11
122.482
 21
-2.73616
  0
LINE
  8
0
 10
122.482
 20
-2.73616
 11
122.31
 21
-2.20509
  0
LINE
  8
0
 10
122.31
 20
-2.20509
 11
122.175
 21
-1.66328
  0
LINE
  8
0
 10
122.175
 20
-1.66328
 11
122.078
 21
-1.11337
  0
LINE
  8
0
 10
122.078
 20
-1.11337
 11
122.019
 21
-0.558044
  0
LINE
  8
0
 10
122.019
 20
-0.558044
 11
122
 21
0
  0
LINE
  8
0
 10
122
 20
0
 11
122.019
 21
0.558044
  0
LINE
  8
0
 10
122.019
 20
0.558044
 11
122.078
 21
1.11337
  0
LINE
  8
0
 10
122.078
 20
1.11337
 11
122.175
 21
1.66328
  0
LINE
  8
0
 10
122.175
 20
1.66328
 11
122.31
 21
2.20509
  0
LINE
  8
0
 10
122.31
 20
2.20509
 11
122.482
 21
2.73616
  0
LINE
  8
0
 10
122.482
 20
2.73616
 11
122.692
 21
3.25389
  0
LINE
  8
0
 10
122.692
 20
3.25389
 11
122.936
 21
3.75577
  0
LINE
  8
0
 10
122.936
 20
3.75577
 11
123.216
 21
4.23935
  0
LINE
  8
0
 10
123.216
 20
4.23935
 11
123.528
 21
4.70227
  0
LINE
  8
0
 10
123.528
 20
4.70227
 11
123.872
 21
5.14229
  0
LINE
  8
0
 10
123.872
 20
5.14229
 11
124.245
 21
5.55727
  0
LINE
  8
0
 10
124.245
 20
5.55727
 11
124.647
 21
5.94514
  0
LINE
  8
0
 10
124.647
 20
5.94514
 11
125.075
 21
6.30408
  0
LINE
  8
0
 10
125.075
 20
6.30408
 11
125.526
 21
6.63229
  0
LINE
  8
0
 10
125.526
 20
6.63229
 11
126
 21
6.92819
  0
LINE
  8
0
 10
126
 20
6.92819
 11
126.493
 21
7.19034
  0
LINE
  8
0
 10
126.493
 20
7.19034
 11
127.003
 21
7.41747
  0
LINE
  8
0
 10
127.003
 20
7.41747
 11
127.528
 21
7.60844
  0
LINE
  8
0
 10
127.528
 20
7.60844
 11
128.065
 21
7.76236
  0
LINE
  8
0
 10
128.065
 20
7.76236
 11
128.611
 21
7.87845
  0
LINE
  8
0
 10
128.611
 20
7.87845
 11
129.164
 21
7.95616
  0
LINE
  8
0
 10
129.164
 20
7.95616
 11
129.721
 21
7.99512
  0
LINE
  8
0
 10
129.721
 20
7.99512
 11
130.279
 21
7.99512
  0
LINE
  8
0
 10
130.279
 20
7.99512
 11
130.836
 21
7.95616
  0
LINE
  8
0
 10
130.836
 20
7.95616
 11
131.389
 21
7.87845
  0
LINE
  8
0
 10
131.389
 20
7.87845
 11
131.935
 21
7.76236
  0
LINE
  8
0
 10
131.935
 20
7.76236
 11
132.472
 21
7.60844
  0
LINE
  8
0
 10
132.472
 20
7.60844
 11
132.997
 21
7.41747
  0
LINE
  8
0
 10
132.997
 20
7.41747
 11
133.507
 21
7.19034
  0
LINE
  8
0
 10
133.507
 20
7.19034
 11
134
 21
6.92819
  0
LINE
  8
0
 10
134
 20
6.92819
 11
134.474
 21
6.63229
  0
LINE
  8
0
 10
134.474
 20
6.63229
 11
134.925
 21
6.30408
  0
LINE
  8
0
 10
134.925
 20
6.30408
 11
135.353
 21
5.94514
  0
LINE
  8
0
 10
135.353
 20
5.94514
 11
135.755
 21
5.55727
  0
LINE
  8
0
 10
135.755
 20
5.55727
 11
136.128
 21
5.14229
  0
LINE
  8
0
 10
136.128
 20
5.14229
 11
136.472
 21
4.70227
  0
LINE
  8
0
 10
136.472
 20
4.70227
 11
136.784
 21
4.23935
  0
LINE
  8
0
 10
136.784
 20
4.23935
 11
137.064
 21
3.75577
  0
LINE
  8
0
 10
137.064
 20
3.75577
 11
137.308
 21
3.25389
  0
LINE
  8
0
 10
137.308
 20
3.25389
 11
137.518
 21
2.73616
  0
LINE
  8
0
 10
137.518
 20
2.73616
 11
137.69
 21
2.20509
  0
LINE
  8
0
 10
137.69
 20
2.20509
 11
137.825
 21
1.66328
  0
LINE
  8
0
 10
137.825
 20
1.66328
 11
137.922
 21
1.11337
  0
LINE
  8
0
 10
137.922
 20
1.11337
 11
137.98
 21
0.558044
  0
LINE
  8
0
 10
137.98
 20
0.558044
 11
138
 21
0
  0
LINE
  8
0
 10
138
 20
0
 11
137.98
 21
-0.558044
  0
LINE
  8
0
 10
137.98
 20
-0.558044
 11
137.922
 21
-1.11337
  0
LINE
  8
0
 10
137.922
 20
-1.11337
 11
137.825
 21
-1.66328
  0
LINE
  8
0
 10
137.825
 20
-1.66328
 11
137.69
 21
-2.20509
  0
LINE
  8
0
 10
137.69
 20
-2.20509
 11
137.518
 21
-2.73616
  0
LINE
  8
0
 10
137.518
 20
-2.73616
 11
137.308
 21
-3.25389
  0
LINE
  8
0
 10
137.308
 20
-3.25389
 11
137.064
 21
-3.75577
  0
LINE
  8
0
 10
137.064
 20
-3.75577
 11
136.784
 21
-4.23935
  0
LINE
  8
0
 10
136.784
 20
-4.23935
 11
136.472
 21
-4.70227
  0
LINE
  8
0
 10
136.472
 20
-4.70227
 11
136.128
 21
-5.14229
  0
LINE
  8
0
 10
136.128
 20
-5.14229
 11
135.755
 21
-5.55727
  0
LINE
  8
0
 10
135.755
 20
-5.55727
 11
135.353
 21
-5.94514
  0
LINE
  8
0
 10
135.353
 20
-5.94514
 11
134.925
 21
-6.30408
  0
LINE
  8
0
 10
134.925
 20
-6.30408
 11
134.474
 21
-6.63229
  0
LINE
  8
0
 10
134.474
 20
-6.63229
 11
134
 21
-6.92819
  0
LINE
  8
0
 10
134
 20
-6.92819
 11
133.507
 21
-7.19034
  0
LINE
  8
0
 10
133.507
 20
-7.19034
 11
132.997
 21
-7.41747
  0
LINE
  8
0
 10
132.997
 20
-7.41747
 11
132.472
 21
-7.60844
  0
LINE
  8
0
 10
132.472
 20
-7.60844
 11
131.935
 21
-7.76236
  0
LINE
  8
0
 10
131.935
 20
-7.76236
 11
131.389
 21
-7.87845
  0
LINE
  8
0
 10
131.389
 20
-7.87845
 11
130.836
 21
-7.95616
  0
LINE
  8
0
 10
130.836
 20
-7.95616
 11
130.279
 21
-7.99512
  0
LINE
  8
0
 10
130.279
 20
-7.99512
 11
129.721
 21
-7.99512
  0
LINE
  8
0
 10
-130.279
 20
-7.99512
 11
-130.836
 21
-7.95616
  0
LINE
  8
0
 10
-130.836
 20
-7.95616
 11
-131.389
 21
-7.87845
  0
LINE
  8
0
 10
-131.389
 20
-7.87845
 11
-131.935
 21
-7.76236
  0
LINE
  8
0
 10
-131.935
 20
-7.76236
 11
-132.472
 21
-7.60844
  0
LINE
  8
0
 10
-132.472
 20
-7.60844
 11
-132.997
 21
-7.41747
  0
LINE
  8
0
 10
-132.997
 20
-7.41747
 11
-133.507
 21
-7.19034
  0
LINE
  8
0
 10
-133.507
 20
-7.19034
 11
-134
 21
-6.92819
  0
LINE
  8
0
 10
-134
 20
-6.92819
 11
-134.474
 21
-6.63229
  0
LINE
  8
0
 10
-134.474
 20
-6.63229
 11
-134.925
 21
-6.30408
  0
LINE
  8
0
 10
-134.925
 20
-6.30408
 11
-135.353
 21
-5.94514
  0
LINE
  8
0
 10
-135.353
 20
-5.94514
 11
-135.755
 21
-5.55727
  0
LINE
  8
0
 10
-135.755
 20
-5.55727
 11
-136.128
 21
-5.14229
  0
LINE
  8
0
 10
-136.128
 20
-5.14229
 11
-136.472
 21
-4.70227
  0
LINE
  8
0
 10
-136.472
 20
-4.70227
 11
-136.784
 21
-4.23935
  0
LINE
  8
0
 10
-136.784
 20
-4.23935
 11
-137.064
 21
-3.75577
  0
LINE
  8
0
 10
-137.064
 20
-3.75577
 11
-137.308
 21
-3.25389
  0
LINE
  8
0
 10
-137.308
 20
-3.25389
 11
-137.518
 21
-2.73616
  0
LINE
  8
0
 10
-137.518
 20
-2.73616
 11
-137.69
 21
-2.20509
  0
LINE
  8
0
 10
-137.69
 20
-2.20509
 11
-137.825
 21
-1.66328
  0
LINE
  8
0
 10
-137.825
 20
-1.66328
 11
-137.922
 21
-1.11337
  0
LINE
  8
0
 10
-137.922
 20
-1.11337
 11
-137.98
 21
-0.558044
  0
LINE
  8
0
 10
-137.98
 20
-0.558044
 11
-138
 21
0
  0
LINE
  8
0
 10
-138
 20
0
 11
-137.98
 21
0.558044
  0
LINE
  8
0
 10
-137.98
 20
0.558044
 11
-137.922
 21
1.11337
  0
LINE
  8
0
 10
-137.922
 20
1.11337
 11
-137.825
 21
1.66328
  0
LINE
  8
0
 10
-137.825
 20
1.66328
 11
-137.69
 21
2.20509
  0
LINE
  8
0
 10
-137.69
 20
2.20509
 11
-137.518
 21
2.73616
  0
LINE
  8
0
 10
-137.518
 20
2.73616
 11
-137.308
 21
3.25389
  0
LINE
  8
0
 10
-137.308
 20
3.25389
 11
-137.064
 21
3.75577
  0
LINE
  8
0
 10
-137.064
 20
3.75577
 11
-136.784
 21
4.23935
  0
LINE
  8
0
 10
-136.784
 20
4.23935
 11
-136.472
 21
4.70227
  0
LINE
  8
0
 10
-136.472
 20
4.70227
 11
-136.128
 21
5.14229
  0
LINE
  8
0
 10
-136.128
 20
5.14229
 11
-135.755
 21
5.55727
  0
LINE
  8
0
 10
-135.755
 20
5.55727
 11
-135.353
 21
5.94514
  0
LINE
  8
0
 10
-135.353
 20
5.94514
 11
-134.925
 21
6.30408
  0
LINE
  8
0
 10
-134.925
 20
6.30408
 11
-134.474
 21
6.63229
  0
LINE
  8
0
 10
-134.474
 20
6.63229
 11
-134
 21
6.92819
  0
LINE
  8
0
 10
-134
 20
6.92819
 11
-133.507
 21
7.19034
  0
LINE
  8
0
 10
-133.507
 20
7.19034
 11
-132.997
 21
7.41747
  0
LINE
  8
0
 10
-132.997
 20
7.41747
 11
-132.472
 21
7.60844
  0
LINE
  8
0
 10
-132.472
 20
7.60844
 11
-131.935
 21
7.76236
  0
LINE
  8
0
 10
-131.935
 20
7.76236
 11
-131.389
 21
7.87845
  0
LINE
  8
0
 10
-131.389
 20
7.87845
 11
-130.836
 21
7.95616
  0
LINE
  8
0
 10
-130.836
 20
7.95616
 11
-130.279
 21
7.99512
  0
LINE
  8
0
 10
-130.279
 20
7.99512
 11
-129.721
 21
7.99512
  0
LINE
  8
0
 10
-129.721
 20
7.99512
 11
-129.164
 21
7.95616
  0
LINE
  8
0
 10
-129.164
 20
7.95616
 11
-128.611
 21
7.87845
  0
LINE
  8
0
 10
-128.611
 20
7.87845
 11
-128.065
 21
7.76236
  0
LINE
  8
0
 10
-128.065
 20
7.76236
 11
-127.528
 21
7.60844
  0
LINE
  8
0
 10
-127.528
 20
7.60844
 11
-127.003
 21
7.41747
  0
LINE
  8
0
 10
-127.003
 20
7.41747
 11
-126.493
 21
7.19034
  0
LINE
  8
0
 10
-126.493
 20
7.19034
 11
-126
 21
6.92819
  0
LINE
  8
0
 10
-126
 20
6.92819
 11
-125.526
 21
6.63229
  0
LINE
  8
0
 10
-125.526
 20
6.63229
 11
-125.075
 21
6.30408
  0
LINE
  8
0
 10
-125.075
 20
6.30408
 11
-124.647
 21
5.94514
  0
LINE
  8
0
 10
-124.647
 20
5.94514
 11
-124.245
 21
5.55727
  0
LINE
  8
0
 10
-124.245
 20
5.55727
 11
-123.872
 21
5.14229
  0
LINE
  8
0
 10
-123.872
 20
5.14229
 11
-123.528
 21
4.70227
  0
LINE
  8
0
 10
-123.528
 20
4.70227
 11
-123.216
 21
4.23935
  0
LINE
  8
0
 10
-123.216
 20
4.23935
 11
-122.936
 21
3.75577
  0
LINE
  8
0
 10
-122.936
 20
3.75577
 11
-122.692
 21
3.25389
  0
LINE
  8
0
 10
-122.692
 20
3.25389
 11
-122.482
 21
2.73616
  0
LINE
  8
0
 10
-122.482
 20
2.73616
 11
-122.31
 21
2.20509
  0
LINE
  8
0
 10
-122.31
 20
2.20509
 11
-122.175
 21
1.66328
  0
LINE
  8
0
 10
-122.175
 20
1.66328
 11
-122.078
 21
1.11337
  0
LINE
  8
0
 10
-122.078
 20
1.11337
 11
-122.019
 21
0.558044
  0
LINE
  8
0
 10
-122.019
 20
0.558044
 11
-122
 21
0
  0
LINE
  8
0
 10
-122
 20
0
 11
-122.019
 21
-0.558044
  0
LINE
  8
0
 10
-122.019
 20
-0.558044
 11
-122.078
 21
-1.11337
  0
LINE
  8
0
 10
-122.078
 20
-1.11337
 11
-122.175
 21
-1.66328
  0
LINE
  8
0
 10
-122.175
 20
-1.66328
 11
-122.31
 21
-2.20509
  0
LINE
  8
0
 10
-122.31
 20
-2.20509
 11
-122.482
 21
-2.73616
  0
LINE
  8
0
 10
-122.482
 20
-2.73616
 11
-122.692
 21
-3.25389
  0
LINE
  8
0
 10
-122.692
 20
-3.25389
 11
-122.936
 21
-3.75577
  0
LINE
  8
0
 10
-122.936
 20
-3.75577
 11
-123.216
 21
-4.23935
  0
LINE
  8
0
 10
-123.216
 20
-4.23935
 11
-123.528
 21
-4.70227
  0
LINE
  8
0
 10
-123.528
 20
-4.70227
 11
-123.872
 21
-5.14229
  0
LINE
  8
0
 10
-123.872
 20
-5.14229
 11
-124.245
 21
-5.55727
  0
LINE
  8
0
 10
-124.245
 20
-5.55727
 11
-124.647
 21
-5.94514
  0
LINE
  8
0
 10
-124.647
 20
-5.94514
 11
-125.075
 21
-6.30408
  0
LINE
  8
0
 10
-125.075
 20
-6.30408
 11
-125.526
 21
-6.63229
  0
LINE
  8
0
 10
-125.526
 20
-6.63229
 11
-126
 21
-6.92819
  0
LINE
  8
0
 10
-126
 20
-6.92819
 11
-126.493
 21
-7.19034
  0
LINE
  8
0
 10
-126.493
 20
-7.19034
 11
-127.003
 21
-7.41747
  0
LINE
  8
0
 10
-127.003
 20
-7.41747
 11
-127.528
 21
-7.60844
  0
LINE
  8
0
 10
-127.528
 20
-7.60844
 11
-128.065
 21
-7.76236
  0
LINE
  8
0
 10
-128.065
 20
-7.76236
 11
-128.611
 21
-7.87845
  0
LINE
  8
0
 10
-128.611
 20
-7.87845
 11
-129.164
 21
-7.95616
  0
LINE
  8
0
 10
-129.164
 20
-7.95616
 11
-129.721
 21
-7.99512
  0
LINE
  8
0
 10
-129.721
 20
-7.99512
 11
-130.279
 21
-7.99512
  0
LINE
  8
0
 10
140.866
 20
-13.6585
 11
140.678
 21
-13.6454
  0
LINE
  8
0
 10
140.678
 20
-13.6454
 11
140.491
 21
-13.6191
  0
LINE
  8
0
 10
140.491
 20
-13.6191
 11
140.307
 21
-13.5799
  0
LINE
  8
0
 10
140.307
 20
-13.5799
 11
140.126
 21
-13.528
  0
LINE
  8
0
 10
140.126
 20
-13.528
 11
139.949
 21
-13.4635
  0
LINE
  8
0
 10
139.949
 20
-13.4635
 11
139.777
 21
-13.3869
  0
LINE
  8
0
 10
139.777
 20
-13.3869
 11
139.61
 21
-13.2984
  0
LINE
  8
0
 10
139.61
 20
-13.2984
 11
139.45
 21
-13.1985
  0
LINE
  8
0
 10
139.45
 20
-13.1985
 11
139.298
 21
-13.0878
  0
LINE
  8
0
 10
139.298
 20
-13.0878
 11
139.153
 21
-12.9666
  0
LINE
  8
0
 10
139.153
 20
-12.9666
 11
139.018
 21
-12.8357
  0
LINE
  8
0
 10
139.018
 20
-12.8357
 11
138.892
 21
-12.6957
  0
LINE
  8
0
 10
138.892
 20
-12.6957
 11
138.776
 21
-12.5472
  0
LINE
  8
0
 10
138.776
 20
-12.5472
 11
138.67
 21
-12.3909
  0
LINE
  8
0
 10
138.67
 20
-12.3909
 11
138.576
 21
-12.2277
  0
LINE
  8
0
 10
138.576
 20
-12.2277
 11
138.494
 21
-12.0583
  0
LINE
  8
0
 10
138.494
 20
-12.0583
 11
138.423
 21
-11.8836
  0
LINE
  8
0
 10
138.423
 20
-11.8836
 11
138.365
 21
-11.7044
  0
LINE
  8
0
 10
138.365
 20
-11.7044
 11
138.319
 21
-11.5215
  0
LINE
  8
0
 10
138.319
 20
-11.5215
 11
138.286
 21
-11.3359
  0
LINE
  8
0
 10
138.286
 20
-11.3359
 11
138.267
 21
-11.1485
  0
LINE
  8
0
 10
138.267
 20
-11.1485
 11
138.26
 21
-10.9601
  0
LINE
  8
0
 10
138.26
 20
-10.9601
 11
138.267
 21
-10.7718
  0
LINE
  8
0
 10
138.267
 20
-10.7718
 11
138.286
 21
-10.5844
  0
LINE
  8
0
 10
138.286
 20
-10.5844
 11
138.319
 21
-10.3988
  0
LINE
  8
0
 10
138.319
 20
-10.3988
 11
138.365
 21
-10.2159
  0
LINE
  8
0
 10
138.365
 20
-10.2159
 11
138.423
 21
-10.0367
  0
LINE
  8
0
 10
138.423
 20
-10.0367
 11
138.494
 21
-9.86195
  0
LINE
  8
0
 10
138.494
 20
-9.86195
 11
138.576
 21
-9.69258
  0
LINE
  8
0
 10
138.576
 20
-9.69258
 11
138.67
 21
-9.52936
  0
LINE
  8
0
 10
138.67
 20
-9.52936
 11
138.776
 21
-9.37312
  0
LINE
  8
0
 10
138.776
 20
-9.37312
 11
138.892
 21
-9.22462
  0
LINE
  8
0
 10
138.892
 20
-9.22462
 11
139.018
 21
-9.08456
  0
LINE
  8
0
 10
139.018
 20
-9.08456
 11
139.153
 21
-8.95366
  0
LINE
  8
0
 10
139.153
 20
-8.95366
 11
139.298
 21
-8.83252
  0
LINE
  8
0
 10
139.298
 20
-8.83252
 11
139.45
 21
-8.72174
  0
LINE
  8
0
 10
139.45
 20
-8.72174
 11
139.61
 21
-8.62187
  0
LINE
  8
0
 10
139.61
 20
-8.62187
 11
139.777
 21
-8.5334
  0
LINE
  8
0
 10
139.777
 20
-8.5334
 11
139.949
 21
-8.45676
  0
LINE
  8
0
 10
139.949
 20
-8.45676
 11
140.126
 21
-8.39229
  0
LINE
  8
0
 10
140.126
 20
-8.39229
 11
140.307
 21
-8.34035
  0
LINE
  8
0
 10
140.307
 20
-8.34035
 11
140.491
 21
-8.30116
  0
LINE
  8
0
 10
140.491
 20
-8.30116
 11
140.678
 21
-8.27493
  0
LINE
  8
0
 10
140.678
 20
-8.27493
 11
140.866
 21
-8.2618
  0
LINE
  8
0
 10
140.866
 20
-8.2618
 11
141.054
 21
-8.2618
  0
LINE
  8
0
 10
141.054
 20
-8.2618
 11
141.242
 21
-8.27493
  0
LINE
  8
0
 10
141.242
 20
-8.27493
 11
141.429
 21
-8.30116
  0
LINE
  8
0
 10
141.429
 20
-8.30116
 11
141.613
 21
-8.34035
  0
LINE
  8
0
 10
141.613
 20
-8.34035
 11
141.794
 21
-8.39229
  0
LINE
  8
0
 10
141.794
 20
-8.39229
 11
141.972
 21
-8.45676
  0
LINE
  8
0
 10
141.972
 20
-8.45676
 11
142.144
 21
-8.5334
  0
LINE
  8
0
 10
142.144
 20
-8.5334
 11
142.31
 21
-8.62187
  0
LINE
  8
0
 10
142.31
 20
-8.62187
 11
142.47
 21
-8.72174
  0
LINE
  8
0
 10
142.47
 20
-8.72174
 11
142.622
 21
-8.83252
  0
LINE
  8
0
 10
142.622
 20
-8.83252
 11
142.767
 21
-8.95366
  0
LINE
  8
0
 10
142.767
 20
-8.95366
 11
142.902
 21
-9.08456
  0
LINE
  8
0
 10
142.902
 20
-9.08456
 11
143.028
 21
-9.22462
  0
LINE
  8
0
 10
143.028
 20
-9.22462
 11
143.145
 21
-9.37312
  0
LINE
  8
0
 10
143.145
 20
-9.37312
 11
143.25
 21
-9.52936
  0
LINE
  8
0
 10
143.25
 20
-9.52936
 11
143.344
 21
-9.69258
  0
LINE
  8
0
 10
143.344
 20
-9.69258
 11
143.427
 21
-9.86195
  0
LINE
  8
0
 10
143.427
 20
-9.86195
 11
143.497
 21
-10.0367
  0
LINE
  8
0
 10
143.497
 20
-10.0367
 11
143.556
 21
-10.2159
  0
LINE
  8
0
 10
143.556
 20
-10.2159
 11
143.601
 21
-10.3988
  0
LINE
  8
0
 10
143.601
 20
-10.3988
 11
143.634
 21
-10.5844
  0
LINE
  8
0
 10
143.634
 20
-10.5844
 11
143.654
 21
-10.7718
  0
LINE
  8
0
 10
143.654
 20
-10.7718
 11
143.66
 21
-10.9601
  0
LINE
  8
0
 10
143.66
 20
-10.9601
 11
143.654
 21
-11.1485
  0
LINE
  8
0
 10
143.654
 20
-11.1485
 11
143.634
 21
-11.3359
  0
LINE
  8
0
 10
143.634
 20
-11.3359
 11
143.601
 21
-11.5215
  0
LINE
  8
0
 10
143.601
 20
-11.5215
 11
143.556
 21
-11.7044
  0
LINE
  8
0
 10
143.556
 20
-11.7044
 11
143.497
 21
-11.8836
  0
LINE
  8
0
 10
143.497
 20
-11.8836
 11
143.427
 21
-12.0583
  0
LINE
  8
0
 10
143.427
 20
-12.0583
 11
143.344
 21
-12.2277
  0
LINE
  8
0
 10
143.344
 20
-12.2277
 11
143.25
 21
-12.3909
  0
LINE
  8
0
 10
143.25
 20
-12.3909
 11
143.145
 21
-12.5472
  0
LINE
  8
0
 10
143.145
 20
-12.5472
 11
143.028
 21
-12.6957
  0
LINE
  8
0
 10
143.028
 20
-12.6957
 11
142.902
 21
-12.8357
  0
LINE
  8
0
 10
142.902
 20
-12.8357
 11
142.767
 21
-12.9666
  0
LINE
  8
0
 10
142.767
 20
-12.9666
 11
142.622
 21
-13.0878
  0
LINE
  8
0
 10
142.622
 20
-13.0878
 11
142.47
 21
-13.1985
  0
LINE
  8
0
 10
142.47
 20
-13.1985
 11
142.31
 21
-13.2984
  0
LINE
  8
0
 10
142.31
 20
-13.2984
 11
142.144
 21
-13.3869
  0
LINE
  8
0
 10
142.144
 20
-13.3869
 11
141.972
 21
-13.4635
  0
LINE
  8
0
 10
141.972
 20
-13.4635
 11
141.794
 21
-13.528
  0
LINE
  8
0
 10
141.794
 20
-13.528
 11
141.613
 21
-13.5799
  0
LINE
  8
0
 10
141.613
 20
-13.5799
 11
141.429
 21
-13.6191
  0
LINE
  8
0
 10
141.429
 20
-13.6191
 11
141.242
 21
-13.6454
  0
LINE
  8
0
 10
141.242
 20
-13.6454
 11
141.054
 21
-13.6585
  0
LINE
  8
0
 10
141.054
 20
-13.6585
 11
140.866
 21
-13.6585
  0
LINE
  8
0
 10
-141.054
 20
-13.6585
 11
-141.242
 21
-13.6454
  0
LINE
  8
0
 10
-141.242
 20
-13.6454
 11
-141.429
 21
-13.6191
  0
LINE
  8
0
 10
-141.429
 20
-13.6191
 11
-141.613
 21
-13.5799
  0
LINE
  8
0
 10
-141.613
 20
-13.5799
 11
-141.794
 21
-13.528
  0
LINE
  8
0
 10
-141.794
 20
-13.528
 11
-141.972
 21
-13.4635
  0
LINE
  8
0
 10
-141.972
 20
-13.4635
 11
-142.144
 21
-13.3869
  0
LINE
  8
0
 10
-142.144
 20
-13.3869
 11
-142.31
 21
-13.2984
  0
LINE
  8
0
 10
-142.31
 20
-13.2984
 11
-142.47
 21
-13.1985
  0
LINE
  8
0
 10
-142.47
 20
-13.1985
 11
-142.622
 21
-13.0878
  0
LINE
  8
0
 10
-142.622
 20
-13.0878
 11
-142.767
 21
-12.9666
  0
LINE
  8
0
 10
-142.767
 20
-12.9666
 11
-142.902
 21
-12.8357
  0
LINE
  8
0
 10
-142.902
 20
-12.8357
 11
-143.028
 21
-12.6957
  0
LINE
  8
0
 10
-143.028
 20
-12.6957
 11
-143.145
 21
-12.5472
  0
LINE
  8
0
 10
-143.145
 20
-12.5472
 11
-143.25
 21
-12.3909
  0
LINE
  8
0
 10
-143.25
 20
-12.3909
 11
-143.344
 21
-12.2277
  0
LINE
  8
0
 10
-143.344
 20
-12.2277
 11
-143.427
 21
-12.0583
  0
LINE
  8
0
 10
-143.427
 20
-12.0583
 11
-143.497
 21
-11.8836
  0
LINE
  8
0
 10
-143.497
 20
-11.8836
 11
-143.556
 21
-11.7044
  0
LINE
  8
0
 10
-143.556
 20
-11.7044
 11
-143.601
 21
-11.5215
  0
LINE
  8
0
 10
-143.601
 20
-11.5215
 11
-143.634
 21
-11.3359
  0
LINE
  8
0
 10
-143.634
 20
-11.3359
 11
-143.654
 21
-11.1485
  0
LINE
  8
0
 10
-143.654
 20
-11.1485
 11
-143.66
 21
-10.9601
  0
LINE
  8
0
 10
-143.66
 20
-10.9601
 11
-143.654
 21
-10.7718
  0
LINE
  8
0
 10
-143.654
 20
-10.7718
 11
-143.634
 21
-10.5844
  0
LINE
  8
0
 10
-143.634
 20
-10.5844
 11
-143.601
 21
-10.3988
  0
LINE
  8
0
 10
-143.601
 20
-10.3988
 11
-143.556
 21
-10.2159
  0
LINE
  8
0
 10
-143.556
 20
-10.2159
 11
-143.497
 21
-10.0367
  0
LINE
  8
0
 10
-143.497
 20
-10.0367
 11
-143.427
 21
-9.86195
  0
LINE
  8
0
 10
-143.427
 20
-9.86195
 11
-143.344
 21
-9.69258
  0
LINE
  8
0
 10
-143.344
 20
-9.69258
 11
-143.25
 21
-9.52936
  0
LINE
  8
0
 10
-143.25
 20
-9.52936
 11
-143.145
 21
-9.37312
  0
LINE
  8
0
 10
-143.145
 20
-9.37312
 11
-143.028
 21
-9.22462
  0
LINE
  8
0
 10
-143.028
 20
-9.22462
 11
-142.902
 21
-9.08456
  0
LINE
  8
0
 10
-142.902
 20
-9.08456
 11
-142.767
 21
-8.95366
  0
LINE
  8
0
 10
-142.767
 20
-8.95366
 11
-142.622
 21
-8.83252
  0
LINE
  8
0
 10
-142.622
 20
-8.83252
 11
-142.47
 21
-8.72174
  0
LINE
  8
0
 10
-142.47
 20
-8.72174
 11
-142.31
 21
-8.62187
  0
LINE
  8
0
 10
-142.31
 20
-8.62187
 11
-142.144
 21
-8.5334
  0
LINE
  8
0
 10
-142.144
 20
-8.5334
 11
-141.972
 21
-8.45676
  0
LINE
  8
0
 10
-141.972
 20
-8.45676
 11
-141.794
 21
-8.39229
  0
LINE
  8
0
 10
-141.794
 20
-8.39229
 11
-141.613
 21
-8.34035
  0
LINE
  8
0
 10
-141.613
 20
-8.34035
 11
-141.429
 21
-8.30116
  0
LINE
  8
0
 10
-141.429
 20
-8.30116
 11
-141.242
 21
-8.27493
  0
LINE
  8
0
 10
-141.242
 20
-8.27493
 11
-141.054
 21
-8.2618
  0
LINE
  8
0
 10
-141.054
 20
-8.2618
 11
-140.866
 21
-8.2618
  0
LINE
  8
0
 10
-140.866
 20
-8.2618
 11
-140.678
 21
-8.27493
  0
LINE
  8
0
 10
-140.678
 20
-8.27493
 11
-140.491
 21
-8.30116
  0
LINE
  8
0
 10
-140.491
 20
-8.30116
 11
-140.307
 21
-8.34035
  0
LINE
  8
0
 10
-140.307
 20
-8.34035
 11
-140.126
 21
-8.39229
  0
LINE
  8
0
 10
-140.126
 20
-8.39229
 11
-139.949
 21
-8.45676
  0
LINE
  8
0
 10
-139.949
 20
-8.45676
 11
-139.777
 21
-8.5334
  0
LINE
  8
0
 10
-139.777
 20
-8.5334
 11
-139.61
 21
-8.62187
  0
LINE
  8
0
 10
-139.61
 20
-8.62187
 11
-139.45
 21
-8.72174
  0
LINE
  8
0
 10
-139.45
 20
-8.72174
 11
-139.298
 21
-8.83252
  0
LINE
  8
0
 10
-139.298
 20
-8.83252
 11
-139.153
 21
-8.95366
  0
LINE
  8
0
 10
-139.153
 20
-8.95366
 11
-139.018
 21
-9.08456
  0
LINE
  8
0
 10
-139.018
 20
-9.08456
 11
-138.892
 21
-9.22462
  0
LINE
  8
0
 10
-138.892
 20
-9.22462
 11
-138.776
 21
-9.37312
  0
LINE
  8
0
 10
-138.776
 20
-9.37312
 11
-138.67
 21
-9.52936
  0
LINE
  8
0
 10
-138.67
 20
-9.52936
 11
-138.576
 21
-9.69258
  0
LINE
  8
0
 10
-138.576
 20
-9.69258
 11
-138.494
 21
-9.86195
  0
LINE
  8
0
 10
-138.494
 20
-9.86195
 11
-138.423
 21
-10.0367
  0
LINE
  8
0
 10
-138.423
 20
-10.0367
 11
-138.365
 21
-10.2159
  0
LINE
  8
0
 10
-138.365
 20
-10.2159
 11
-138.319
 21
-10.3988
  0
LINE
  8
0
 10
-138.319
 20
-10.3988
 11
-138.286
 21
-10.5844
  0
LINE
  8
0
 10
-138.286
 20
-10.5844
 11
-138.267
 21
-10.7718
  0
LINE
  8
0
 10
-138.267
 20
-10.7718
 11
-138.26
 21
-10.9601
  0
LINE
  8
0
 10
-138.26
 20
-10.9601
 11
-138.267
 21
-11.1485
  0
LINE
  8
0
 10
-138.267
 20
-11.1485
 11
-138.286
 21
-11.3359
  0
LINE
  8
0
 10
-138.286
 20
-11.3359
 11
-138.319
 21
-11.5215
  0
LINE
  8
0
 10
-138.319
 20
-11.5215
 11
-138.365
 21
-11.7044
  0
LINE
  8
0
 10
-138.365
 20
-11.7044
 11
-138.423
 21
-11.8836
  0
LINE
  8
0
 10
-138.423
 20
-11.8836
 11
-138.494
 21
-12.0583
  0
LINE
  8
0
 10
-138.494
 20
-12.0583
 11
-138.576
 21
-12.2277
  0
LINE
  8
0
 10
-138.576
 20
-12.2277
 11
-138.67
 21
-12.3909
  0
LINE
  8
0
 10
-138.67
 20
-12.3909
 11
-138.776
 21
-12.5472
  0
LINE
  8
0
 10
-138.776
 20
-12.5472
 11
-138.892
 21
-12.6957
  0
LINE
  8
0
 10
-138.892
 20
-12.6957
 11
-139.018
 21
-12.8357
  0
LINE
  8
0
 10
-139.018
 20
-12.8357
 11
-139.153
 21
-12.9666
  0
LINE
  8
0
 10
-139.153
 20
-12.9666
 11
-139.298
 21
-13.0878
  0
LINE
  8
0
 10
-139.298
 20
-13.0878
 11
-139.45
 21
-13.1985
  0
LINE
  8
0
 10
-139.45
 20
-13.1985
 11
-139.61
 21
-13.2984
  0
LINE
  8
0
 10
-139.61
 20
-13.2984
 11
-139.777
 21
-13.3869
  0
LINE
  8
0
 10
-139.777
 20
-13.3869
 11
-139.949
 21
-13.4635
  0
LINE
  8
0
 10
-139.949
 20
-13.4635
 11
-140.126
 21
-13.528
  0
LINE
  8
0
 10
-140.126
 20
-13.528
 11
-140.307
 21
-13.5799
  0
LINE
  8
0
 10
-140.307
 20
-13.5799
 11
-140.491
 21
-13.6191
  0
LINE
  8
0
 10
-140.491
 20
-13.6191
 11
-140.678
 21
-13.6454
  0
LINE
  8
0
 10
-140.678
 20
-13.6454
 11
-140.866
 21
-13.6585
  0
LINE
  8
0
 10
-140.866
 20
-13.6585
 11
-141.054
 21
-13.6585
  0
LINE
  8
0
 10
118.946
 20
-13.6585
 11
118.758
 21
-13.6454
  0
LINE
  8
0
 10
118.758
 20
-13.6454
 11
118.571
 21
-13.6191
  0
LINE
  8
0
 10
118.571
 20
-13.6191
 11
118.387
 21
-13.5799
  0
LINE
  8
0
 10
118.387
 20
-13.5799
 11
118.205
 21
-13.528
  0
LINE
  8
0
 10
118.205
 20
-13.528
 11
118.028
 21
-13.4635
  0
LINE
  8
0
 10
118.028
 20
-13.4635
 11
117.856
 21
-13.3869
  0
LINE
  8
0
 10
117.856
 20
-13.3869
 11
117.69
 21
-13.2984
  0
LINE
  8
0
 10
117.69
 20
-13.2984
 11
117.53
 21
-13.1985
  0
LINE
  8
0
 10
117.53
 20
-13.1985
 11
117.378
 21
-13.0878
  0
LINE
  8
0
 10
117.378
 20
-13.0878
 11
117.233
 21
-12.9666
  0
LINE
  8
0
 10
117.233
 20
-12.9666
 11
117.098
 21
-12.8357
  0
LINE
  8
0
 10
117.098
 20
-12.8357
 11
116.972
 21
-12.6957
  0
LINE
  8
0
 10
116.972
 20
-12.6957
 11
116.855
 21
-12.5472
  0
LINE
  8
0
 10
116.855
 20
-12.5472
 11
116.75
 21
-12.3909
  0
LINE
  8
0
 10
116.75
 20
-12.3909
 11
116.656
 21
-12.2277
  0
LINE
  8
0
 10
116.656
 20
-12.2277
 11
116.573
 21
-12.0583
  0
LINE
  8
0
 10
116.573
 20
-12.0583
 11
116.503
 21
-11.8836
  0
LINE
  8
0
 10
116.503
 20
-11.8836
 11
116.444
 21
-11.7044
  0
LINE
  8
0
 10
116.444
 20
-11.7044
 11
116.399
 21
-11.5215
  0
LINE
  8
0
 10
116.399
 20
-11.5215
 11
116.366
 21
-11.3359
  0
LINE
  8
0
 10
116.366
 20
-11.3359
 11
116.346
 21
-11.1485
  0
LINE
  8
0
 10
116.346
 20
-11.1485
 11
116.34
 21
-10.9601
  0
LINE
  8
0
 10
116.34
 20
-10.9601
 11
116.346
 21
-10.7718
  0
LINE
  8
0
 10
116.346
 20
-10.7718
 11
116.366
 21
-10.5844
  0
LINE
  8
0
 10
116.366
 20
-10.5844
 11
116.399
 21
-10.3988
  0
LINE
  8
0
 10
116.399
 20
-10.3988
 11
116.444
 21
-10.2159
  0
LINE
  8
0
 10
116.444
 20
-10.2159
 11
116.503
 21
-10.0367
  0
LINE
  8
0
 10
116.503
 20
-10.0367
 11
116.573
 21
-9.86195
  0
LINE
  8
0
 10
116.573
 20
-9.86195
 11
116.656
 21
-9.69258
  0
LINE
  8
0
 10
116.656
 20
-9.69258
 11
116.75
 21
-9.52936
  0
LINE
  8
0
 10
116.75
 20
-9.52936
 11
116.855
 21
-9.37312
  0
LINE
  8
0
 10
116.855
 20
-9.37312
 11
116.972
 21
-9.22462
  0
LINE
  8
0
 10
116.972
 20
-9.22462
 11
117.098
 21
-9.08456
  0
LINE
  8
0
 10
117.098
 20
-9.08456
 11
117.233
 21
-8.95366
  0
LINE
  8
0
 10
117.233
 20
-8.95366
 11
117.378
 21
-8.83252
  0
LINE
  8
0
 10
117.378
 20
-8.83252
 11
117.53
 21
-8.72174
  0
LINE
  8
0
 10
117.53
 20
-8.72174
 11
117.69
 21
-8.62187
  0
LINE
  8
0
 10
117.69
 20
-8.62187
 11
117.856
 21
-8.5334
  0
LINE
  8
0
 10
117.856
 20
-8.5334
 11
118.028
 21
-8.45676
  0
LINE
  8
0
 10
118.028
 20
-8.45676
 11
118.205
 21
-8.39229
  0
LINE
  8
0
 10
118.205
 20
-8.39229
 11
118.387
 21
-8.34035
  0
LINE
  8
0
 10
118.387
 20
-8.34035
 11
118.571
 21
-8.30116
  0
LINE
  8
0
 10
118.571
 20
-8.30116
 11
118.758
 21
-8.27493
  0
LINE
  8
0
 10
118.758
 20
-8.27493
 11
118.946
 21
-8.2618
  0
LINE
  8
0
 10
118.946
 20
-8.2618
 11
119.134
 21
-8.2618
  0
LINE
  8
0
 10
119.134
 20
-8.2618
 11
119.322
 21
-8.27493
  0
LINE
  8
0
 10
119.322
 20
-8.27493
 11
119.509
 21
-8.30116
  0
LINE
  8
0
 10
119.509
 20
-8.30116
 11
119.693
 21
-8.34035
  0
LINE
  8
0
 10
119.693
 20
-8.34035
 11
119.874
 21
-8.39229
  0
LINE
  8
0
 10
119.874
 20
-8.39229
 11
120.051
 21
-8.45676
  0
LINE
  8
0
 10
120.051
 20
-8.45676
 11
120.223
 21
-8.5334
  0
LINE
  8
0
 10
120.223
 20
-8.5334
 11
120.39
 21
-8.62187
  0
LINE
  8
0
 10
120.39
 20
-8.62187
 11
120.55
 21
-8.72174
  0
LINE
  8
0
 10
120.55
 20
-8.72174
 11
120.702
 21
-8.83252
  0
LINE
  8
0
 10
120.702
 20
-8.83252
 11
120.846
 21
-8.95366
  0
LINE
  8
0
 10
120.846
 20
-8.95366
 11
120.982
 21
-9.08456
  0
LINE
  8
0
 10
120.982
 20
-9.08456
 11
121.108
 21
-9.22462
  0
LINE
  8
0
 10
121.108
 20
-9.22462
 11
121.224
 21
-9.37312
  0
LINE
  8
0
 10
121.224
 20
-9.37312
 11
121.33
 21
-9.52936
  0
LINE
  8
0
 10
121.33
 20
-9.52936
 11
121.424
 21
-9.69258
  0
LINE
  8
0
 10
121.424
 20
-9.69258
 11
121.506
 21
-9.86195
  0
LINE
  8
0
 10
121.506
 20
-9.86195
 11
121.577
 21
-10.0367
  0
LINE
  8
0
 10
121.577
 20
-10.0367
 11
121.635
 21
-10.2159
  0
LINE
  8
0
 10
121.635
 20
-10.2159
 11
121.681
 21
-10.3988
  0
LINE
  8
0
 10
121.681
 20
-10.3988
 11
121.714
 21
-10.5844
  0
LINE
  8
0
 10
121.714
 20
-10.5844
 11
121.733
 21
-10.7718
  0
LINE
  8
0
 10
121.733
 20
-10.7718
 11
121.74
 21
-10.9601
  0
LINE
  8
0
 10
121.74
 20
-10.9601
 11
121.733
 21
-11.1485
  0
LINE
  8
0
 10
121.733
 20
-11.1485
 11
121.714
 21
-11.3359
  0
LINE
  8
0
 10
121.714
 20
-11.3359
 11
121.681
 21
-11.5215
  0
LINE
  8
0
 10
121.681
 20
-11.5215
 11
121.635
 21
-11.7044
  0
LINE
  8
0
 10
121.635
 20
-11.7044
 11
121.577
 21
-11.8836
  0
LINE
  8
0
 10
121.577
 20
-11.8836
 11
121.506
 21
-12.0583
  0
LINE
  8
0
 10
121.506
 20
-12.0583
 11
121.424
 21
-12.2277
  0
LINE
  8
0
 10
121.424
 20
-12.2277
 11
121.33
 21
-12.3909
  0
LINE
  8
0
 10
121.33
 20
-12.3909
 11
121.224
 21
-12.5472
  0
LINE
  8
0
 10
121.224
 20
-12.5472
 11
121.108
 21
-12.6957
  0
LINE
  8
0
 10
121.108
 20
-12.6957
 11
120.982
 21
-12.8357
  0
LINE
  8
0
 10
120.982
 20
-12.8357
 11
120.846
 21
-12.9666
  0
LINE
  8
0
 10
120.846
 20
-12.9666
 11
120.702
 21
-13.0878
  0
LINE
  8
0
 10
120.702
 20
-13.0878
 11
120.55
 21
-13.1985
  0
LINE
  8
0
 10
120.55
 20
-13.1985
 11
120.39
 21
-13.2984
  0
LINE
  8
0
 10
120.39
 20
-13.2984
 11
120.223
 21
-13.3869
  0
LINE
  8
0
 10
120.223
 20
-13.3869
 11
120.051
 21
-13.4635
  0
LINE
  8
0
 10
120.051
 20
-13.4635
 11
119.874
 21
-13.528
  0
LINE
  8
0
 10
119.874
 20
-13.528
 11
119.693
 21
-13.5799
  0
LINE
  8
0
 10
119.693
 20
-13.5799
 11
119.509
 21
-13.6191
  0
LINE
  8
0
 10
119.509
 20
-13.6191
 11
119.322
 21
-13.6454
  0
LINE
  8
0
 10
119.322
 20
-13.6454
 11
119.134
 21
-13.6585
  0
LINE
  8
0
 10
119.134
 20
-13.6585
 11
118.946
 21
-13.6585
  0
LINE
  8
0
 10
-119.134
 20
-13.6585
 11
-119.322
 21
-13.6454
  0
LINE
  8
0
 10
-119.322
 20
-13.6454
 11
-119.509
 21
-13.6191
  0
LINE
  8
0
 10
-119.509
 20
-13.6191
 11
-119.693
 21
-13.5799
  0
LINE
  8
0
 10
-119.693
 20
-13.5799
 11
-119.874
 21
-13.528
  0
LINE
  8
0
 10
-119.874
 20
-13.528
 11
-120.051
 21
-13.4635
  0
LINE
  8
0
 10
-120.051
 20
-13.4635
 11
-120.223
 21
-13.3869
  0
LINE
  8
0
 10
-120.223
 20
-13.3869
 11
-120.39
 21
-13.2984
  0
LINE
  8
0
 10
-120.39
 20
-13.2984
 11
-120.55
 21
-13.1985
  0
LINE
  8
0
 10
-120.55
 20
-13.1985
 11
-120.702
 21
-13.0878
  0
LINE
  8
0
 10
-120.702
 20
-13.0878
 11
-120.846
 21
-12.9666
  0
LINE
  8
0
 10
-120.846
 20
-12.9666
 11
-120.982
 21
-12.8357
  0
LINE
  8
0
 10
-120.982
 20
-12.8357
 11
-121.108
 21
-12.6957
  0
LINE
  8
0
 10
-121.108
 20
-12.6957
 11
-121.224
 21
-12.5472
  0
LINE
  8
0
 10
-121.224
 20
-12.5472
 11
-121.33
 21
-12.3909
  0
LINE
  8
0
 10
-121.33
 20
-12.3909
 11
-121.424
 21
-12.2277
  0
LINE
  8
0
 10
-121.424
 20
-12.2277
 11
-121.506
 21
-12.0583
  0
LINE
  8
0
 10
-121.506
 20
-12.0583
 11
-121.577
 21
-11.8836
  0
LINE
  8
0
 10
-121.577
 20
-11.8836
 11
-121.635
 21
-11.7044
  0
LINE
  8
0
 10
-121.635
 20
-11.7044
 11
-121.681
 21
-11.5215
  0
LINE
  8
0
 10
-121.681
 20
-11.5215
 11
-121.714
 21
-11.3359
  0
LINE
  8
0
 10
-121.714
 20
-11.3359
 11
-121.733
 21
-11.1485
  0
LINE
  8
0
 10
-121.733
 20
-11.1485
 11
-121.74
 21
-10.9601
  0
LINE
  8
0
 10
-121.74
 20
-10.9601
 11
-121.733
 21
-10.7718
  0
LINE
  8
0
 10
-121.733
 20
-10.7718
 11
-121.714
 21
-10.5844
  0
LINE
  8
0
 10
-121.714
 20
-10.5844
 11
-121.681
 21
-10.3988
  0
LINE
  8
0
 10
-121.681
 20
-10.3988
 11
-121.635
 21
-10.2159
  0
LINE
  8
0
 10
-121.635
 20
-10.2159
 11
-121.577
 21
-10.0367
  0
LINE
  8
0
 10
-121.577
 20
-10.0367
 11
-121.506
 21
-9.86195
  0
LINE
  8
0
 10
-121.506
 20
-9.86195
 11
-121.424
 21
-9.69258
  0
LINE
  8
0
 10
-121.424
 20
-9.69258
 11
-121.33
 21
-9.52936
  0
LINE
  8
0
 10
-121.33
 20
-9.52936
 11
-121.224
 21
-9.37312
  0
LINE
  8
0
 10
-121.224
 20
-9.37312
 11
-121.108
 21
-9.22462
  0
LINE
  8
0
 10
-121.108
 20
-9.22462
 11
-120.982
 21
-9.08456
  0
LINE
  8
0
 10
-120.982
 20
-9.08456
 11
-120.846
 21
-8.95366
  0
LINE
  8
0
 10
-120.846
 20
-8.95366
 11
-120.702
 21
-8.83252
  0
LINE
  8
0
 10
-120.702
 20
-8.83252
 11
-120.55
 21
-8.72174
  0
LINE
  8
0
 10
-120.55
 20
-8.72174
 11
-120.39
 21
-8.62187
  0
LINE
  8
0
 10
-120.39
 20
-8.62187
 11
-120.223
 21
-8.5334
  0
LINE
  8
0
 10
-120.223
 20
-8.5334
 11
-120.051
 21
-8.45676
  0
LINE
  8
0
 10
-120.051
 20
-8.45676
 11
-119.874
 21
-8.39229
  0
LINE
  8
0
 10
-119.874
 20
-8.39229
 11
-119.693
 21
-8.34035
  0
LINE
  8
0
 10
-119.693
 20
-8.34035
 11
-119.509
 21
-8.30116
  0
LINE
  8
0
 10
-119.509
 20
-8.30116
 11
-119.322
 21
-8.27493
  0
LINE
  8
0
 10
-119.322
 20
-8.27493
 11
-119.134
 21
-8.2618
  0
LINE
  8
0
 10
-119.134
 20
-8.2618
 11
-118.946
 21
-8.2618
  0
LINE
  8
0
 10
-118.946
 20
-8.2618
 11
-118.758
 21
-8.27493
  0
LINE
  8
0
 10
-118.758
 20
-8.27493
 11
-118.571
 21
-8.30116
  0
LINE
  8
0
 10
-118.571
 20
-8.30116
 11
-118.387
 21
-8.34035
  0
LINE
  8
0
 10
-118.387
 20
-8.34035
 11
-118.205
 21
-8.39229
  0
LINE
  8
0
 10
-118.205
 20
-8.39229
 11
-118.028
 21
-8.45676
  0
LINE
  8
0
 10
-118.028
 20
-8.45676
 11
-117.856
 21
-8.5334
  0
LINE
  8
0
 10
-117.856
 20
-8.5334
 11
-117.69
 21
-8.62187
  0
LINE
  8
0
 10
-117.69
 20
-8.62187
 11
-117.53
 21
-8.72174
  0
LINE
  8
0
 10
-117.53
 20
-8.72174
 11
-117.378
 21
-8.83252
  0
LINE
  8
0
 10
-117.378
 20
-8.83252
 11
-117.233
 21
-8.95366
  0
LINE
  8
0
 10
-117.233
 20
-8.95366
 11
-117.098
 21
-9.08456
  0
LINE
  8
0
 10
-117.098
 20
-9.08456
 11
-116.972
 21
-9.22462
  0
LINE
  8
0
 10
-116.972
 20
-9.22462
 11
-116.855
 21
-9.37312
  0
LINE
  8
0
 10
-116.855
 20
-9.37312
 11
-116.75
 21
-9.52936
  0
LINE
  8
0
 10
-116.75
 20
-9.52936
 11
-116.656
 21
-9.69258
  0
LINE
  8
0
 10
-116.656
 20
-9.69258
 11
-116.573
 21
-9.86195
  0
LINE
  8
0
 10
-116.573
 20
-9.86195
 11
-116.503
 21
-10.0367
  0
LINE
  8
0
 10
-116.503
 20
-10.0367
 11
-116.444
 21
-10.2159
  0
LINE
  8
0
 10
-116.444
 20
-10.2159
 11
-116.399
 21
-10.3988
  0
LINE
  8
0
 10
-116.399
 20
-10.3988
 11
-116.366
 21
-10.5844
  0
LINE
  8
0
 10
-116.366
 20
-10.5844
 11
-116.346
 21
-10.7718
  0
LINE
  8
0
 10
-116.346
 20
-10.7718
 11
-116.34
 21
-10.9601
  0
LINE
  8
0
 10
-116.34
 20
-10.9601
 11
-116.346
 21
-11.1485
  0
LINE
  8
0
 10
-116.346
 20
-11.1485
 11
-116.366
 21
-11.3359
  0
LINE
  8
0
 10
-116.366
 20
-11.3359
 11
-116.399
 21
-11.5215
  0
LINE
  8
0
 10
-116.399
 20
-11.5215
 11
-116.444
 21
-11.7044
  0
LINE
  8
0
 10
-116.444
 20
-11.7044
 11
-116.503
 21
-11.8836
  0
LINE
  8
0
 10
-116.503
 20
-11.8836
 11
-116.573
 21
-12.0583
  0
LINE
  8
0
 10
-116.573
 20
-12.0583
 11
-116.656
 21
-12.2277
  0
LINE
  8
0
 10
-116.656
 20
-12.2277
 11
-116.75
 21
-12.3909
  0
LINE
  8
0
 10
-116.75
 20
-12.3909
 11
-116.855
 21
-12.5472
  0
LINE
  8
0
 10
-116.855
 20
-12.5472
 11
-116.972
 21
-12.6957
  0
LINE
  8
0
 10
-116.972
 20
-12.6957
 11
-117.098
 21
-12.8357
  0
LINE
  8
0
 10
-117.098
 20
-12.8357
 11
-117.233
 21
-12.9666
  0
LINE
  8
0
 10
-117.233
 20
-12.9666
 11
-117.378
 21
-13.0878
  0
LINE
  8
0
 10
-117.378
 20
-13.0878
 11
-117.53
 21
-13.1985
  0
LINE
  8
0
 10
-117.53
 20
-13.1985
 11
-117.69
 21
-13.2984
  0
LINE
  8
0
 10
-117.69
 20
-13.2984
 11
-117.856
 21
-13.3869
  0
LINE
  8
0
 10
-117.856
 20
-13.3869
 11
-118.028
 21
-13.4635
  0
LINE
  8
0
 10
-118.028
 20
-13.4635
 11
-118.205
 21
-13.528
  0
LINE
  8
0
 10
-118.205
 20
-13.528
 11
-118.387
 21
-13.5799
  0
LINE
  8
0
 10
-118.387
 20
-13.5799
 11
-118.571
 21
-13.6191
  0
LINE
  8
0
 10
-118.571
 20
-13.6191
 11
-118.758
 21
-13.6454
  0
LINE
  8
0
 10
-118.758
 20
-13.6454
 11
-118.946
 21
-13.6585
  0
LINE
  8
0
 10
-118.946
 20
-13.6585
 11
-119.134
 21
-13.6585
  0
LINE
  8
0
 10
-102.07
 20
-78.9988
 11
-102.209
 21
-78.989
  0
LINE
  8
0
 10
-102.209
 20
-78.989
 11
-102.347
 21
-78.9696
  0
LINE
  8
0
 10
-102.347
 20
-78.9696
 11
-102.484
 21
-78.9406
  0
LINE
  8
0
 10
-102.484
 20
-78.9406
 11
-102.618
 21
-78.9021
  0
LINE
  8
0
 10
-102.618
 20
-78.9021
 11
-102.749
 21
-78.8544
  0
LINE
  8
0
 10
-102.749
 20
-78.8544
 11
-102.877
 21
-78.7976
  0
LINE
  8
0
 10
-102.877
 20
-78.7976
 11
-103
 21
-78.732
  0
LINE
  8
0
 10
-103
 20
-78.732
 11
-103.118
 21
-78.6581
  0
LINE
  8
0
 10
-103.118
 20
-78.6581
 11
-103.231
 21
-78.576
  0
LINE
  8
0
 10
-103.231
 20
-78.576
 11
-103.338
 21
-78.4863
  0
LINE
  8
0
 10
-103.338
 20
-78.4863
 11
-103.439
 21
-78.3893
  0
LINE
  8
0
 10
-103.439
 20
-78.3893
 11
-103.532
 21
-78.2856
  0
LINE
  8
0
 10
-103.532
 20
-78.2856
 11
-103.618
 21
-78.1756
  0
LINE
  8
0
 10
-103.618
 20
-78.1756
 11
-103.696
 21
-78.0598
  0
LINE
  8
0
 10
-103.696
 20
-78.0598
 11
-103.766
 21
-77.9389
  0
LINE
  8
0
 10
-103.766
 20
-77.9389
 11
-103.827
 21
-77.8135
  0
LINE
  8
0
 10
-103.827
 20
-77.8135
 11
-103.879
 21
-77.684
  0
LINE
  8
0
 10
-103.879
 20
-77.684
 11
-103.923
 21
-77.5513
  0
LINE
  8
0
 10
-103.923
 20
-77.5513
 11
-103.956
 21
-77.4158
  0
LINE
  8
0
 10
-103.956
 20
-77.4158
 11
-103.981
 21
-77.2783
  0
LINE
  8
0
 10
-103.981
 20
-77.2783
 11
-103.995
 21
-77.1395
  0
LINE
  8
0
 10
-103.995
 20
-77.1395
 11
-104
 21
-77
  0
LINE
  8
0
 10
-104
 20
-77
 11
-103.995
 21
-76.8605
  0
LINE
  8
0
 10
-103.995
 20
-76.8605
 11
-103.981
 21
-76.7216
  0
LINE
  8
0
 10
-103.981
 20
-76.7216
 11
-103.956
 21
-76.5842
  0
LINE
  8
0
 10
-103.956
 20
-76.5842
 11
-103.923
 21
-76.4487
  0
LINE
  8
0
 10
-103.923
 20
-76.4487
 11
-103.879
 21
-76.3159
  0
LINE
  8
0
 10
-103.879
 20
-76.3159
 11
-103.827
 21
-76.1865
  0
LINE
  8
0
 10
-103.827
 20
-76.1865
 11
-103.766
 21
-76.0611
  0
LINE
  8
0
 10
-103.766
 20
-76.0611
 11
-103.696
 21
-75.9402
  0
LINE
  8
0
 10
-103.696
 20
-75.9402
 11
-103.618
 21
-75.8244
  0
LINE
  8
0
 10
-103.618
 20
-75.8244
 11
-103.532
 21
-75.7144
  0
LINE
  8
0
 10
-103.532
 20
-75.7144
 11
-103.439
 21
-75.6107
  0
LINE
  8
0
 10
-103.439
 20
-75.6107
 11
-103.338
 21
-75.5137
  0
LINE
  8
0
 10
-103.338
 20
-75.5137
 11
-103.231
 21
-75.424
  0
LINE
  8
0
 10
-103.231
 20
-75.424
 11
-103.118
 21
-75.3419
  0
LINE
  8
0
 10
-103.118
 20
-75.3419
 11
-103
 21
-75.2679
  0
LINE
  8
0
 10
-103
 20
-75.2679
 11
-102.877
 21
-75.2024
  0
LINE
  8
0
 10
-102.877
 20
-75.2024
 11
-102.749
 21
-75.1456
  0
LINE
  8
0
 10
-102.749
 20
-75.1456
 11
-102.618
 21
-75.0979
  0
LINE
  8
0
 10
-102.618
 20
-75.0979
 11
-102.484
 21
-75.0594
  0
LINE
  8
0
 10
-102.484
 20
-75.0594
 11
-102.347
 21
-75.0304
  0
LINE
  8
0
 10
-102.347
 20
-75.0304
 11
-102.209
 21
-75.011
  0
LINE
  8
0
 10
-102.209
 20
-75.011
 11
-102.07
 21
-75.0012
  0
LINE
  8
0
 10
-102.07
 20
-75.0012
 11
-101.93
 21
-75.0012
  0
LINE
  8
0
 10
-101.93
 20
-75.0012
 11
-101.791
 21
-75.011
  0
LINE
  8
0
 10
-101.791
 20
-75.011
 11
-101.653
 21
-75.0304
  0
LINE
  8
0
 10
-101.653
 20
-75.0304
 11
-101.516
 21
-75.0594
  0
LINE
  8
0
 10
-101.516
 20
-75.0594
 11
-101.382
 21
-75.0979
  0
LINE
  8
0
 10
-101.382
 20
-75.0979
 11
-101.251
 21
-75.1456
  0
LINE
  8
0
 10
-101.251
 20
-75.1456
 11
-101.123
 21
-75.2024
  0
LINE
  8
0
 10
-101.123
 20
-75.2024
 11
-101
 21
-75.2679
  0
LINE
  8
0
 10
-101
 20
-75.2679
 11
-100.882
 21
-75.3419
  0
LINE
  8
0
 10
-100.882
 20
-75.3419
 11
-100.769
 21
-75.424
  0
LINE
  8
0
 10
-100.769
 20
-75.424
 11
-100.662
 21
-75.5137
  0
LINE
  8
0
 10
-100.662
 20
-75.5137
 11
-100.561
 21
-75.6107
  0
LINE
  8
0
 10
-100.561
 20
-75.6107
 11
-100.468
 21
-75.7144
  0
LINE
  8
0
 10
-100.468
 20
-75.7144
 11
-100.382
 21
-75.8244
  0
LINE
  8
0
 10
-100.382
 20
-75.8244
 11
-100.304
 21
-75.9402
  0
LINE
  8
0
 10
-100.304
 20
-75.9402
 11
-100.234
 21
-76.0611
  0
LINE
  8
0
 10
-100.234
 20
-76.0611
 11
-100.173
 21
-76.1865
  0
LINE
  8
0
 10
-100.173
 20
-76.1865
 11
-100.121
 21
-76.3159
  0
LINE
  8
0
 10
-100.121
 20
-76.3159
 11
-100.077
 21
-76.4487
  0
LINE
  8
0
 10
-100.077
 20
-76.4487
 11
-100.044
 21
-76.5842
  0
LINE
  8
0
 10
-100.044
 20
-76.5842
 11
-100.019
 21
-76.7216
  0
LINE
  8
0
 10
-100.019
 20
-76.7216
 11
-100.005
 21
-76.8605
  0
LINE
  8
0
 10
-100.005
 20
-76.8605
 11
-100
 21
-77
  0
LINE
  8
0
 10
-100
 20
-77
 11
-100.005
 21
-77.1395
  0
LINE
  8
0
 10
-100.005
 20
-77.1395
 11
-100.019
 21
-77.2783
  0
LINE
  8
0
 10
-100.019
 20
-77.2783
 11
-100.044
 21
-77.4158
  0
LINE
  8
0
 10
-100.044
 20
-77.4158
 11
-100.077
 21
-77.5513
  0
LINE
  8
0
 10
-100.077
 20
-77.5513
 11
-100.121
 21
-77.684
  0
LINE
  8
0
 10
-100.121
 20
-77.684
 11
-100.173
 21
-77.8135
  0
LINE
  8
0
 10
-100.173
 20
-77.8135
 11
-100.234
 21
-77.9389
  0
LINE
  8
0
 10
-100.234
 20
-77.9389
 11
-100.304
 21
-78.0598
  0
LINE
  8
0
 10
-100.304
 20
-78.0598
 11
-100.382
 21
-78.1756
  0
LINE
  8
0
 10
-100.382
 20
-78.1756
 11
-100.468
 21
-78.2856
  0
LINE
  8
0
 10
-100.468
 20
-78.2856
 11
-100.561
 21
-78.3893
  0
LINE
  8
0
 10
-100.561
 20
-78.3893
 11
-100.662
 21
-78.4863
  0
LINE
  8
0
 10
-100.662
 20
-78.4863
 11
-100.769
 21
-78.576
  0
LINE
  8
0
 10
-100.769
 20
-78.576
 11
-100.882
 21
-78.6581
  0
LINE
  8
0
 10
-100.882
 20
-78.6581
 11
-101
 21
-78.732
  0
LINE
  8
0
 10
-101
 20
-78.732
 11
-101.123
 21
-78.7976
  0
LINE
  8
0
 10
-101.123
 20
-78.7976
 11
-101.251
 21
-78.8544
  0
LINE
  8
0
 10
-101.251
 20
-78.8544
 11
-101.382
 21
-78.9021
  0
LINE
  8
0
 10
-101.382
 20
-78.9021
 11
-101.516
 21
-78.9406
  0
LINE
  8
0
 10
-101.516
 20
-78.9406
 11
-101.653
 21
-78.9696
  0
LINE
  8
0
 10
-101.653
 20
-78.9696
 11
-101.791
 21
-78.989
  0
LINE
  8
0
 10
-101.791
 20
-78.989
 11
-101.93
 21
-78.9988
  0
LINE
  8
0
 10
-101.93
 20
-78.9988
 11
-102.07
 21
-78.9988
  0
LINE
  8
0
 10
101.93
 20
-78.9988
 11
101.791
 21
-78.989
  0
LINE
  8
0
 10
101.791
 20
-78.989
 11
101.653
 21
-78.9696
  0
LINE
  8
0
 10
101.653
 20
-78.9696
 11
101.516
 21
-78.9406
  0
LINE
  8
0
 10
101.516
 20
-78.9406
 11
101.382
 21
-78.9021
  0
LINE
  8
0
 10
101.382
 20
-78.9021
 11
101.251
 21
-78.8544
  0
LINE
  8
0
 10
101.251
 20
-78.8544
 11
101.123
 21
-78.7976
  0
LINE
  8
0
 10
101.123
 20
-78.7976
 11
101
 21
-78.732
  0
LINE
  8
0
 10
101
 20
-78.732
 11
100.882
 21
-78.6581
  0
LINE
  8
0
 10
100.882
 20
-78.6581
 11
100.769
 21
-78.576
  0
LINE
  8
0
 10
100.769
 20
-78.576
 11
100.662
 21
-78.4863
  0
LINE
  8
0
 10
100.662
 20
-78.4863
 11
100.561
 21
-78.3893
  0
LINE
  8
0
 10
100.561
 20
-78.3893
 11
100.468
 21
-78.2856
  0
LINE
  8
0
 10
100.468
 20
-78.2856
 11
100.382
 21
-78.1756
  0
LINE
  8
0
 10
100.382
 20
-78.1756
 11
100.304
 21
-78.0598
  0
LINE
  8
0
 10
100.304
 20
-78.0598
 11
100.234
 21
-77.9389
  0
LINE
  8
0
 10
100.234
 20
-77.9389
 11
100.173
 21
-77.8135
  0
LINE
  8
0
 10
100.173
 20
-77.8135
 11
100.121
 21
-77.684
  0
LINE
  8
0
 10
100.121
 20
-77.684
 11
100.077
 21
-77.5513
  0
LINE
  8
0
 10
100.077
 20
-77.5513
 11
100.044
 21
-77.4158
  0
LINE
  8
0
 10
100.044
 20
-77.4158
 11
100.019
 21
-77.2783
  0
LINE
  8
0
 10
100.019
 20
-77.2783
 11
100.005
 21
-77.1395
  0
LINE
  8
0
 10
100.005
 20
-77.1395
 11
100
 21
-77
  0
LINE
  8
0
 10
100
 20
-77
 11
100.005
 21
-76.8605
  0
LINE
  8
0
 10
100.005
 20
-76.8605
 11
100.019
 21
-76.7216
  0
LINE
  8
0
 10
100.019
 20
-76.7216
 11
100.044
 21
-76.5842
  0
LINE
  8
0
 10
100.044
 20
-76.5842
 11
100.077
 21
-76.4487
  0
LINE
  8
0
 10
100.077
 20
-76.4487
 11
100.121
 21
-76.3159
  0
LINE
  8
0
 10
100.121
 20
-76.3159
 11
100.173
 21
-76.1865
  0
LINE
  8
0
 10
100.173
 20
-76.1865
 11
100.234
 21
-76.0611
  0
LINE
  8
0
 10
100.234
 20
-76.0611
 11
100.304
 21
-75.9402
  0
LINE
  8
0
 10
100.304
 20
-75.9402
 11
100.382
 21
-75.8244
  0
LINE
  8
0
 10
100.382
 20
-75.8244
 11
100.468
 21
-75.7144
  0
LINE
  8
0
 10
100.468
 20
-75.7144
 11
100.561
 21
-75.6107
  0
LINE
  8
0
 10
100.561
 20
-75.6107
 11
100.662
 21
-75.5137
  0
LINE
  8
0
 10
100.662
 20
-75.5137
 11
100.769
 21
-75.424
  0
LINE
  8
0
 10
100.769
 20
-75.424
 11
100.882
 21
-75.3419
  0
LINE
  8
0
 10
100.882
 20
-75.3419
 11
101
 21
-75.2679
  0
LINE
  8
0
 10
101
 20
-75.2679
 11
101.123
 21
-75.2024
  0
LINE
  8
0
 10
101.123
 20
-75.2024
 11
101.251
 21
-75.1456
  0
LINE
  8
0
 10
101.251
 20
-75.1456
 11
101.382
 21
-75.0979
  0
LINE
  8
0
 10
101.382
 20
-75.0979
 11
101.516
 21
-75.0594
  0
LINE
  8
0
 10
101.516
 20
-75.0594
 11
101.653
 21
-75.0304
  0
LINE
  8
0
 10
101.653
 20
-75.0304
 11
101.791
 21
-75.011
  0
LINE
  8
0
 10
101.791
 20
-75.011
 11
101.93
 21
-75.0012
  0
LINE
  8
0
 10
101.93
 20
-75.0012
 11
102.07
 21
-75.0012
  0
LINE
  8
0
 10
102.07
 20
-75.0012
 11
102.209
 21
-75.011
  0
LINE
  8
0
 10
102.209
 20
-75.011
 11
102.347
 21
-75.0304
  0
LINE
  8
0
 10
102.347
 20
-75.0304
 11
102.484
 21
-75.0594
  0
LINE
  8
0
 10
102.484
 20
-75.0594
 11
102.618
 21
-75.0979
  0
LINE
  8
0
 10
102.618
 20
-75.0979
 11
102.749
 21
-75.1456
  0
LINE
  8
0
 10
102.749
 20
-75.1456
 11
102.877
 21
-75.2024
  0
LINE
  8
0
 10
102.877
 20
-75.2024
 11
103
 21
-75.2679
  0
LINE
  8
0
 10
103
 20
-75.2679
 11
103.118
 21
-75.3419
  0
LINE
  8
0
 10
103.118
 20
-75.3419
 11
103.231
 21
-75.424
  0
LINE
  8
0
 10
103.231
 20
-75.424
 11
103.338
 21
-75.5137
  0
LINE
  8
0
 10
103.338
 20
-75.5137
 11
103.439
 21
-75.6107
  0
LINE
  8
0
 10
103.439
 20
-75.6107
 11
103.532
 21
-75.7144
  0
LINE
  8
0
 10
103.532
 20
-75.7144
 11
103.618
 21
-75.8244
  0
LINE
  8
0
 10
103.618
 20
-75.8244
 11
103.696
 21
-75.9402
  0
LINE
  8
0
 10
103.696
 20
-75.9402
 11
103.766
 21
-76.0611
  0
LINE
  8
0
 10
103.766
 20
-76.0611
 11
103.827
 21
-76.1865
  0
LINE
  8
0
 10
103.827
 20
-76.1865
 11
103.879
 21
-76.3159
  0
LINE
  8
0
 10
103.879
 20
-76.3159
 11
103.923
 21
-76.4487
  0
LINE
  8
0
 10
103.923
 20
-76.4487
 11
103.956
 21
-76.5842
  0
LINE
  8
0
 10
103.956
 20
-76.5842
 11
103.981
 21
-76.7216
  0
LINE
  8
0
 10
103.981
 20
-76.7216
 11
103.995
 21
-76.8605
  0
LINE
  8
0
 10
103.995
 20
-76.8605
 11
104
 21
-77
  0
LINE
  8
0
 10
104
 20
-77
 11
103.995
 21
-77.1395
  0
LINE
  8
0
 10
103.995
 20
-77.1395
 11
103.981
 21
-77.2783
  0
LINE
  8
0
 10
103.981
 20
-77.2783
 11
103.956
 21
-77.4158
  0
LINE
  8
0
 10
103.956
 20
-77.4158
 11
103.923
 21
-77.5513
  0
LINE
  8
0
 10
103.923
 20
-77.5513
 11
103.879
 21
-77.684
  0
LINE
  8
0
 10
103.879
 20
-77.684
 11
103.827
 21
-77.8135
  0
LINE
  8
0
 10
103.827
 20
-77.8135
 11
103.766
 21
-77.9389
  0
LINE
  8
0
 10
103.766
 20
-77.9389
 11
103.696
 21
-78.0598
  0
LINE
  8
0
 10
103.696
 20
-78.0598
 11
103.618
 21
-78.1756
  0
LINE
  8
0
 10
103.618
 20
-78.1756
 11
103.532
 21
-78.2856
  0
LINE
  8
0
 10
103.532
 20
-78.2856
 11
103.439
 21
-78.3893
  0
LINE
  8
0
 10
103.439
 20
-78.3893
 11
103.338
 21
-78.4863
  0
LINE
  8
0
 10
103.338
 20
-78.4863
 11
103.231
 21
-78.576
  0
LINE
  8
0
 10
103.231
 20
-78.576
 11
103.118
 21
-78.6581
  0
LINE
  8
0
 10
103.118
 20
-78.6581
 11
103
 21
-78.732
  0
LINE
  8
0
 10
103
 20
-78.732
 11
102.877
 21
-78.7976
  0
LINE
  8
0
 10
102.877
 20
-78.7976
 11
102.749
 21
-78.8544
  0
LINE
  8
0
 10
102.749
 20
-78.8544
 11
102.618
 21
-78.9021
  0
LINE
  8
0
 10
102.618
 20
-78.9021
 11
102.484
 21
-78.9406
  0
LINE
  8
0
 10
102.484
 20
-78.9406
 11
102.347
 21
-78.9696
  0
LINE
  8
0
 10
102.347
 20
-78.9696
 11
102.209
 21
-78.989
  0
LINE
  8
0
 10
102.209
 20
-78.989
 11
102.07
 21
-78.9988
  0
LINE
  8
0
 10
102.07
 20
-78.9988
 11
101.93
 21
-78.9988
  0
LINE
  8
0
 10
-77.0698
 20
-103.999
 11
-77.209
 21
-103.989
  0
LINE
  8
0
 10
-77.209
 20
-103.989
 11
-77.3473
 21
-103.97
  0
LINE
  8
0
 10
-77.3473
 20
-103.97
 11
-77.4838
 21
-103.941
  0
LINE
  8
0
 10
-77.4838
 20
-103.941
 11
-77.618
 21
-103.902
  0
LINE
  8
0
 10
-77.618
 20
-103.902
 11
-77.7492
 21
-103.854
  0
LINE
  8
0
 10
-77.7492
 20
-103.854
 11
-77.8767
 21
-103.798
  0
LINE
  8
0
 10
-77.8767
 20
-103.798
 11
-78
 21
-103.732
  0
LINE
  8
0
 10
-78
 20
-103.732
 11
-78.1184
 21
-103.658
  0
LINE
  8
0
 10
-78.1184
 20
-103.658
 11
-78.2313
 21
-103.576
  0
LINE
  8
0
 10
-78.2313
 20
-103.576
 11
-78.3383
 21
-103.486
  0
LINE
  8
0
 10
-78.3383
 20
-103.486
 11
-78.4387
 21
-103.389
  0
LINE
  8
0
 10
-78.4387
 20
-103.389
 11
-78.5321
 21
-103.286
  0
LINE
  8
0
 10
-78.5321
 20
-103.286
 11
-78.618
 21
-103.176
  0
LINE
  8
0
 10
-78.618
 20
-103.176
 11
-78.6961
 21
-103.06
  0
LINE
  8
0
 10
-78.6961
 20
-103.06
 11
-78.7659
 21
-102.939
  0
LINE
  8
0
 10
-78.7659
 20
-102.939
 11
-78.8271
 21
-102.813
  0
LINE
  8
0
 10
-78.8271
 20
-102.813
 11
-78.8794
 21
-102.684
  0
LINE
  8
0
 10
-78.8794
 20
-102.684
 11
-78.9225
 21
-102.551
  0
LINE
  8
0
 10
-78.9225
 20
-102.551
 11
-78.9563
 21
-102.416
  0
LINE
  8
0
 10
-78.9563
 20
-102.416
 11
-78.9805
 21
-102.278
  0
LINE
  8
0
 10
-78.9805
 20
-102.278
 11
-78.9951
 21
-102.14
  0
LINE
  8
0
 10
-78.9951
 20
-102.14
 11
-79
 21
-102
  0
LINE
  8
0
 10
-79
 20
-102
 11
-78.9951
 21
-101.86
  0
LINE
  8
0
 10
-78.9951
 20
-101.86
 11
-78.9805
 21
-101.722
  0
LINE
  8
0
 10
-78.9805
 20
-101.722
 11
-78.9563
 21
-101.584
  0
LINE
  8
0
 10
-78.9563
 20
-101.584
 11
-78.9225
 21
-101.449
  0
LINE
  8
0
 10
-78.9225
 20
-101.449
 11
-78.8794
 21
-101.316
  0
LINE
  8
0
 10
-78.8794
 20
-101.316
 11
-78.8271
 21
-101.187
  0
LINE
  8
0
 10
-78.8271
 20
-101.187
 11
-78.7659
 21
-101.061
  0
LINE
  8
0
 10
-78.7659
 20
-101.061
 11
-78.6961
 21
-100.94
  0
LINE
  8
0
 10
-78.6961
 20
-100.94
 11
-78.618
 21
-100.824
  0
LINE
  8
0
 10
-78.618
 20
-100.824
 11
-78.5321
 21
-100.714
  0
LINE
  8
0
 10
-78.5321
 20
-100.714
 11
-78.4387
 21
-100.611
  0
LINE
  8
0
 10
-78.4387
 20
-100.611
 11
-78.3383
 21
-100.514
  0
LINE
  8
0
 10
-78.3383
 20
-100.514
 11
-78.2313
 21
-100.424
  0
LINE
  8
0
 10
-78.2313
 20
-100.424
 11
-78.1184
 21
-100.342
  0
LINE
  8
0
 10
-78.1184
 20
-100.342
 11
-78
 21
-100.268
  0
LINE
  8
0
 10
-78
 20
-100.268
 11
-77.8767
 21
-100.202
  0
LINE
  8
0
 10
-77.8767
 20
-100.202
 11
-77.7492
 21
-100.146
  0
LINE
  8
0
 10
-77.7492
 20
-100.146
 11
-77.618
 21
-100.098
  0
LINE
  8
0
 10
-77.618
 20
-100.098
 11
-77.4838
 21
-100.059
  0
LINE
  8
0
 10
-77.4838
 20
-100.059
 11
-77.3473
 21
-100.03
  0
LINE
  8
0
 10
-77.3473
 20
-100.03
 11
-77.209
 21
-100.011
  0
LINE
  8
0
 10
-77.209
 20
-100.011
 11
-77.0698
 21
-100.001
  0
LINE
  8
0
 10
-77.0698
 20
-100.001
 11
-76.9302
 21
-100.001
  0
LINE
  8
0
 10
-76.9302
 20
-100.001
 11
-76.7909
 21
-100.011
  0
LINE
  8
0
 10
-76.7909
 20
-100.011
 11
-76.6527
 21
-100.03
  0
LINE
  8
0
 10
-76.6527
 20
-100.03
 11
-76.5161
 21
-100.059
  0
LINE
  8
0
 10
-76.5161
 20
-100.059
 11
-76.382
 21
-100.098
  0
LINE
  8
0
 10
-76.382
 20
-100.098
 11
-76.2508
 21
-100.146
  0
LINE
  8
0
 10
-76.2508
 20
-100.146
 11
-76.1232
 21
-100.202
  0
LINE
  8
0
 10
-76.1232
 20
-100.202
 11
-76
 21
-100.268
  0
LINE
  8
0
 10
-76
 20
-100.268
 11
-75.8816
 21
-100.342
  0
LINE
  8
0
 10
-75.8816
 20
-100.342
 11
-75.7687
 21
-100.424
  0
LINE
  8
0
 10
-75.7687
 20
-100.424
 11
-75.6617
 21
-100.514
  0
LINE
  8
0
 10
-75.6617
 20
-100.514
 11
-75.5613
 21
-100.611
  0
LINE
  8
0
 10
-75.5613
 20
-100.611
 11
-75.4679
 21
-100.714
  0
LINE
  8
0
 10
-75.4679
 20
-100.714
 11
-75.382
 21
-100.824
  0
LINE
  8
0
 10
-75.382
 20
-100.824
 11
-75.3039
 21
-100.94
  0
LINE
  8
0
 10
-75.3039
 20
-100.94
 11
-75.2341
 21
-101.061
  0
LINE
  8
0
 10
-75.2341
 20
-101.061
 11
-75.1729
 21
-101.187
  0
LINE
  8
0
 10
-75.1729
 20
-101.187
 11
-75.1206
 21
-101.316
  0
LINE
  8
0
 10
-75.1206
 20
-101.316
 11
-75.0775
 21
-101.449
  0
LINE
  8
0
 10
-75.0775
 20
-101.449
 11
-75.0437
 21
-101.584
  0
LINE
  8
0
 10
-75.0437
 20
-101.584
 11
-75.0195
 21
-101.722
  0
LINE
  8
0
 10
-75.0195
 20
-101.722
 11
-75.0049
 21
-101.86
  0
LINE
  8
0
 10
-75.0049
 20
-101.86
 11
-75
 21
-102
  0
LINE
  8
0
 10
-75
 20
-102
 11
-75.0049
 21
-102.14
  0
LINE
  8
0
 10
-75.0049
 20
-102.14
 11
-75.0195
 21
-102.278
  0
LINE
  8
0
 10
-75.0195
 20
-102.278
 11
-75.0437
 21
-102.416
  0
LINE
  8
0
 10
-75.0437
 20
-102.416
 11
-75.0775
 21
-102.551
  0
LINE
  8
0
 10
-75.0775
 20
-102.551
 11
-75.1206
 21
-102.684
  0
LINE
  8
0
 10
-75.1206
 20
-102.684
 11
-75.1729
 21
-102.813
  0
LINE
  8
0
 10
-75.1729
 20
-102.813
 11
-75.2341
 21
-102.939
  0
LINE
  8
0
 10
-75.2341
 20
-102.939
 11
-75.3039
 21
-103.06
  0
LINE
  8
0
 10
-75.3039
 20
-103.06
 11
-75.382
 21
-103.176
  0
LINE
  8
0
 10
-75.382
 20
-103.176
 11
-75.4679
 21
-103.286
  0
LINE
  8
0
 10
-75.4679
 20
-103.286
 11
-75.5613
 21
-103.389
  0
LINE
  8
0
 10
-75.5613
 20
-103.389
 11
-75.6617
 21
-103.486
  0
LINE
  8
0
 10
-75.6617
 20
-103.486
 11
-75.7687
 21
-103.576
  0
LINE
  8
0
 10
-75.7687
 20
-103.576
 11
-75.8816
 21
-103.658
  0
LINE
  8
0
 10
-75.8816
 20
-103.658
 11
-76
 21
-103.732
  0
LINE
  8
0
 10
-76
 20
-103.732
 11
-76.1232
 21
-103.798
  0
LINE
  8
0
 10
-76.1232
 20
-103.798
 11
-76.2508
 21
-103.854
  0
LINE
  8
0
 10
-76.2508
 20
-103.854
 11
-76.382
 21
-103.902
  0
LINE
  8
0
 10
-76.382
 20
-103.902
 11
-76.5161
 21
-103.941
  0
LINE
  8
0
 10
-76.5161
 20
-103.941
 11
-76.6527
 21
-103.97
  0
LINE
  8
0
 10
-76.6527
 20
-103.97
 11
-76.7909
 21
-103.989
  0
LINE
  8
0
 10
-76.7909
 20
-103.989
 11
-76.9302
 21
-103.999
  0
LINE
  8
0
 10
-76.9302
 20
-103.999
 11
-77.0698
 21
-103.999
  0
LINE
  8
0
 10
76.9302
 20
-103.999
 11
76.7909
 21
-103.989
  0
LINE
  8
0
 10
76.7909
 20
-103.989
 11
76.6527
 21
-103.97
  0
LINE
  8
0
 10
76.6527
 20
-103.97
 11
76.5161
 21
-103.941
  0
LINE
  8
0
 10
76.5161
 20
-103.941
 11
76.382
 21
-103.902
  0
LINE
  8
0
 10
76.382
 20
-103.902
 11
76.2508
 21
-103.854
  0
LINE
  8
0
 10
76.2508
 20
-103.854
 11
76.1232
 21
-103.798
  0
LINE
  8
0
 10
76.1232
 20
-103.798
 11
76
 21
-103.732
  0
LINE
  8
0
 10
76
 20
-103.732
 11
75.8816
 21
-103.658
  0
LINE
  8
0
 10
75.8816
 20
-103.658
 11
75.7687
 21
-103.576
  0
LINE
  8
0
 10
75.7687
 20
-103.576
 11
75.6617
 21
-103.486
  0
LINE
  8
0
 10
75.6617
 20
-103.486
 11
75.5613
 21
-103.389
  0
LINE
  8
0
 10
75.5613
 20
-103.389
 11
75.4679
 21
-103.286
  0
LINE
  8
0
 10
75.4679
 20
-103.286
 11
75.382
 21
-103.176
  0
LINE
  8
0
 10
75.382
 20
-103.176
 11
75.3039
 21
-103.06
  0
LINE
  8
0
 10
75.3039
 20
-103.06
 11
75.2341
 21
-102.939
  0
LINE
  8
0
 10
75.2341
 20
-102.939
 11
75.1729
 21
-102.813
  0
LINE
  8
0
 10
75.1729
 20
-102.813
 11
75.1206
 21
-102.684
  0
LINE
  8
0
 10
75.1206
 20
-102.684
 11
75.0775
 21
-102.551
  0
LINE
  8
0
 10
75.0775
 20
-102.551
 11
75.0437
 21
-102.416
  0
LINE
  8
0
 10
75.0437
 20
-102.416
 11
75.0195
 21
-102.278
  0
LINE
  8
0
 10
75.0195
 20
-102.278
 11
75.0049
 21
-102.14
  0
LINE
  8
0
 10
75.0049
 20
-102.14
 11
75
 21
-102
  0
LINE
  8
0
 10
75
 20
-102
 11
75.0049
 21
-101.86
  0
LINE
  8
0
 10
75.0049
 20
-101.86
 11
75.0195
 21
-101.722
  0
LINE
  8
0
 10
75.0195
 20
-101.722
 11
75.0437
 21
-101.584
  0
LINE
  8
0
 10
75.0437
 20
-101.584
 11
75.0775
 21
-101.449
  0
LINE
  8
0
 10
75.0775
 20
-101.449
 11
75.1206
 21
-101.316
  0
LINE
  8
0
 10
75.1206
 20
-101.316
 11
75.1729
 21
-101.187
  0
LINE
  8
0
 10
75.1729
 20
-101.187
 11
75.2341
 21
-101.061
  0
LINE
  8
0
 10
75.2341
 20
-101.061
 11
75.3039
 21
-100.94
  0
LINE
  8
0
 10
75.3039
 20
-100.94
 11
75.382
 21
-100.824
  0
LINE
  8
0
 10
75.382
 20
-100.824
 11
75.4679
 21
-100.714
  0
LINE
  8
0
 10
75.4679
 20
-100.714
 11
75.5613
 21
-100.611
  0
LINE
  8
0
 10
75.5613
 20
-100.611
 11
75.6617
 21
-100.514
  0
LINE
  8
0
 10
75.6617
 20
-100.514
 11
75.7687
 21
-100.424
  0
LINE
  8
0
 10
75.7687
 20
-100.424
 11
75.8816
 21
-100.342
  0
LINE
  8
0
 10
75.8816
 20
-100.342
 11
76
 21
-100.268
  0
LINE
  8
0
 10
76
 20
-100.268
 11
76.1232
 21
-100.202
  0
LINE
  8
0
 10
76.1232
 20
-100.202
 11
76.2508
 21
-100.146
  0
LINE
  8
0
 10
76.2508
 20
-100.146
 11
76.382
 21
-100.098
  0
LINE
  8
0
 10
76.382
 20
-100.098
 11
76.5161
 21
-100.059
  0
LINE
  8
0
 10
76.5161
 20
-100.059
 11
76.6527
 21
-100.03
  0
LINE
  8
0
 10
76.6527
 20
-100.03
 11
76.7909
 21
-100.011
  0
LINE
  8
0
 10
76.7909
 20
-100.011
 11
76.9302
 21
-100.001
  0
LINE
  8
0
 10
76.9302
 20
-100.001
 11
77.0698
 21
-100.001
  0
LINE
  8
0
 10
77.0698
 20
-100.001
 11
77.209
 21
-100.011
  0
LINE
  8
0
 10
77.209
 20
-100.011
 11
77.3473
 21
-100.03
  0
LINE
  8
0
 10
77.3473
 20
-100.03
 11
77.4838
 21
-100.059
  0
LINE
  8
0
 10
77.4838
 20
-100.059
 11
77.618
 21
-100.098
  0
LINE
  8
0
 10
77.618
 20
-100.098
 11
77.7492
 21
-100.146
  0
LINE
  8
0
 10
77.7492
 20
-100.146
 11
77.8767
 21
-100.202
  0
LINE
  8
0
 10
77.8767
 20
-100.202
 11
78
 21
-100.268
  0
LINE
  8
0
 10
78
 20
-100.268
 11
78.1184
 21
-100.342
  0
LINE
  8
0
 10
78.1184
 20
-100.342
 11
78.2313
 21
-100.424
  0
LINE
  8
0
 10
78.2313
 20
-100.424
 11
78.3383
 21
-100.514
  0
LINE
  8
0
 10
78.3383
 20
-100.514
 11
78.4387
 21
-100.611
  0
LINE
  8
0
 10
78.4387
 20
-100.611
 11
78.5321
 21
-100.714
  0
LINE
  8
0
 10
78.5321
 20
-100.714
 11
78.618
 21
-100.824
  0
LINE
  8
0
 10
78.618
 20
-100.824
 11
78.6961
 21
-100.94
  0
LINE
  8
0
 10
78.6961
 20
-100.94
 11
78.7659
 21
-101.061
  0
LINE
  8
0
 10
78.7659
 20
-101.061
 11
78.8271
 21
-101.187
  0
LINE
  8
0
 10
78.8271
 20
-101.187
 11
78.8794
 21
-101.316
  0
LINE
  8
0
 10
78.8794
 20
-101.316
 11
78.9225
 21
-101.449
  0
LINE
  8
0
 10
78.9225
 20
-101.449
 11
78.9563
 21
-101.584
  0
LINE
  8
0
 10
78.9563
 20
-101.584
 11
78.9805
 21
-101.722
  0
LINE
  8
0
 10
78.9805
 20
-101.722
 11
78.9951
 21
-101.86
  0
LINE
  8
0
 10
78.9951
 20
-101.86
 11
79
 21
-102
  0
LINE
  8
0
 10
79
 20
-102
 11
78.9951
 21
-102.14
  0
LINE
  8
0
 10
78.9951
 20
-102.14
 11
78.9805
 21
-102.278
  0
LINE
  8
0
 10
78.9805
 20
-102.278
 11
78.9563
 21
-102.416
  0
LINE
  8
0
 10
78.9563
 20
-102.416
 11
78.9225
 21
-102.551
  0
LINE
  8
0
 10
78.9225
 20
-102.551
 11
78.8794
 21
-102.684
  0
LINE
  8
0
 10
78.8794
 20
-102.684
 11
78.8271
 21
-102.813
  0
LINE
  8
0
 10
78.8271
 20
-102.813
 11
78.7659
 21
-102.939
  0
LINE
  8
0
 10
78.7659
 20
-102.939
 11
78.6961
 21
-103.06
  0
LINE
  8
0
 10
78.6961
 20
-103.06
 11
78.618
 21
-103.176
  0
LINE
  8
0
 10
78.618
 20
-103.176
 11
78.5321
 21
-103.286
  0
LINE
  8
0
 10
78.5321
 20
-103.286
 11
78.4387
 21
-103.389
  0
LINE
  8
0
 10
78.4387
 20
-103.389
 11
78.3383
 21
-103.486
  0
LINE
  8
0
 10
78.3383
 20
-103.486
 11
78.2313
 21
-103.576
  0
LINE
  8
0
 10
78.2313
 20
-103.576
 11
78.1184
 21
-103.658
  0
LINE
  8
0
 10
78.1184
 20
-103.658
 11
78
 21
-103.732
  0
LINE
  8
0
 10
78
 20
-103.732
 11
77.8767
 21
-103.798
  0
LINE
  8
0
 10
77.8767
 20
-103.798
 11
77.7492
 21
-103.854
  0
LINE
  8
0
 10
77.7492
 20
-103.854
 11
77.618
 21
-103.902
  0
LINE
  8
0
 10
77.618
 20
-103.902
 11
77.4838
 21
-103.941
  0
LINE
  8
0
 10
77.4838
 20
-103.941
 11
77.3473
 21
-103.97
  0
LINE
  8
0
 10
77.3473
 20
-103.97
 11
77.209
 21
-103.989
  0
LINE
  8
0
 10
77.209
 20
-103.989
 11
77.0698
 21
-103.999
  0
LINE
  8
0
 10
77.0698
 20
-103.999
 11
76.9302
 21
-103.999
  0
LINE
  8
0
 10
-104.552
 20
-105.999
 11
-104.657
 21
-105.992
  0
LINE
  8
0
 10
-104.657
 20
-105.992
 11
-104.76
 21
-105.977
  0
LINE
  8
0
 10
-104.76
 20
-105.977
 11
-104.863
 21
-105.955
  0
LINE
  8
0
 10
-104.863
 20
-105.955
 11
-104.964
 21
-105.927
  0
LINE
  8
0
 10
-104.964
 20
-105.927
 11
-105.062
 21
-105.891
  0
LINE
  8
0
 10
-105.062
 20
-105.891
 11
-105.158
 21
-105.848
  0
LINE
  8
0
 10
-105.158
 20
-105.848
 11
-105.25
 21
-105.799
  0
LINE
  8
0
 10
-105.25
 20
-105.799
 11
-105.339
 21
-105.744
  0
LINE
  8
0
 10
-105.339
 20
-105.744
 11
-105.423
 21
-105.682
  0
LINE
  8
0
 10
-105.423
 20
-105.682
 11
-105.504
 21
-105.615
  0
LINE
  8
0
 10
-105.504
 20
-105.615
 11
-105.579
 21
-105.542
  0
LINE
  8
0
 10
-105.579
 20
-105.542
 11
-105.649
 21
-105.464
  0
LINE
  8
0
 10
-105.649
 20
-105.464
 11
-105.714
 21
-105.382
  0
LINE
  8
0
 10
-105.714
 20
-105.382
 11
-105.772
 21
-105.295
  0
LINE
  8
0
 10
-105.772
 20
-105.295
 11
-105.824
 21
-105.204
  0
LINE
  8
0
 10
-105.824
 20
-105.204
 11
-105.87
 21
-105.11
  0
LINE
  8
0
 10
-105.87
 20
-105.11
 11
-105.91
 21
-105.013
  0
LINE
  8
0
 10
-105.91
 20
-105.013
 11
-105.942
 21
-104.913
  0
LINE
  8
0
 10
-105.942
 20
-104.913
 11
-105.967
 21
-104.812
  0
LINE
  8
0
 10
-105.967
 20
-104.812
 11
-105.985
 21
-104.709
  0
LINE
  8
0
 10
-105.985
 20
-104.709
 11
-105.996
 21
-104.605
  0
LINE
  8
0
 10
-105.996
 20
-104.605
 11
-106
 21
-104.5
  0
LINE
  8
0
 10
-106
 20
-104.5
 11
-105.996
 21
-104.395
  0
LINE
  8
0
 10
-105.996
 20
-104.395
 11
-105.985
 21
-104.291
  0
LINE
  8
0
 10
-105.985
 20
-104.291
 11
-105.967
 21
-104.188
  0
LINE
  8
0
 10
-105.967
 20
-104.188
 11
-105.942
 21
-104.087
  0
LINE
  8
0
 10
-105.942
 20
-104.087
 11
-105.91
 21
-103.987
  0
LINE
  8
0
 10
-105.91
 20
-103.987
 11
-105.87
 21
-103.89
  0
LINE
  8
0
 10
-105.87
 20
-103.89
 11
-105.824
 21
-103.796
  0
LINE
  8
0
 10
-105.824
 20
-103.796
 11
-105.772
 21
-103.705
  0
LINE
  8
0
 10
-105.772
 20
-103.705
 11
-105.714
 21
-103.618
  0
LINE
  8
0
 10
-105.714
 20
-103.618
 11
-105.649
 21
-103.536
  0
LINE
  8
0
 10
-105.649
 20
-103.536
 11
-105.579
 21
-103.458
  0
LINE
  8
0
 10
-105.579
 20
-103.458
 11
-105.504
 21
-103.385
  0
LINE
  8
0
 10
-105.504
 20
-103.385
 11
-105.423
 21
-103.318
  0
LINE
  8
0
 10
-105.423
 20
-103.318
 11
-105.339
 21
-103.256
  0
LINE
  8
0
 10
-105.339
 20
-103.256
 11
-105.25
 21
-103.201
  0
LINE
  8
0
 10
-105.25
 20
-103.201
 11
-105.158
 21
-103.152
  0
LINE
  8
0
 10
-105.158
 20
-103.152
 11
-105.062
 21
-103.109
  0
LINE
  8
0
 10
-105.062
 20
-103.109
 11
-104.964
 21
-103.073
  0
LINE
  8
0
 10
-104.964
 20
-103.073
 11
-104.863
 21
-103.045
  0
LINE
  8
0
 10
-104.863
 20
-103.045
 11
-104.76
 21
-103.023
  0
LINE
  8
0
 10
-104.76
 20
-103.023
 11
-104.657
 21
-103.008
  0
LINE
  8
0
 10
-104.657
 20
-103.008
 11
-104.552
 21
-103.001
  0
LINE
  8
0
 10
-104.552
 20
-103.001
 11
-104.448
 21
-103.001
  0
LINE
  8
0
 10
-104.448
 20
-103.001
 11
-104.343
 21
-103.008
  0
LINE
  8
0
 10
-104.343
 20
-103.008
 11
-104.24
 21
-103.023
  0
LINE
  8
0
 10
-104.24
 20
-103.023
 11
-104.137
 21
-103.045
  0
LINE
  8
0
 10
-104.137
 20
-103.045
 11
-104.036
 21
-103.073
  0
LINE
  8
0
 10
-104.036
 20
-103.073
 11
-103.938
 21
-103.109
  0
LINE
  8
0
 10
-103.938
 20
-103.109
 11
-103.842
 21
-103.152
  0
LINE
  8
0
 10
-103.842
 20
-103.152
 11
-103.75
 21
-103.201
  0
LINE
  8
0
 10
-103.75
 20
-103.201
 11
-103.661
 21
-103.256
  0
LINE
  8
0
 10
-103.661
 20
-103.256
 11
-103.577
 21
-103.318
  0
LINE
  8
0
 10
-103.577
 20
-103.318
 11
-103.496
 21
-103.385
  0
LINE
  8
0
 10
-103.496
 20
-103.385
 11
-103.421
 21
-103.458
  0
LINE
  8
0
 10
-103.421
 20
-103.458
 11
-103.351
 21
-103.536
  0
LINE
  8
0
 10
-103.351
 20
-103.536
 11
-103.286
 21
-103.618
  0
LINE
  8
0
 10
-103.286
 20
-103.618
 11
-103.228
 21
-103.705
  0
LINE
  8
0
 10
-103.228
 20
-103.705
 11
-103.176
 21
-103.796
  0
LINE
  8
0
 10
-103.176
 20
-103.796
 11
-103.13
 21
-103.89
  0
LINE
  8
0
 10
-103.13
 20
-103.89
 11
-103.09
 21
-103.987
  0
LINE
  8
0
 10
-103.09
 20
-103.987
 11
-103.058
 21
-104.087
  0
LINE
  8
0
 10
-103.058
 20
-104.087
 11
-103.033
 21
-104.188
  0
LINE
  8
0
 10
-103.033
 20
-104.188
 11
-103.015
 21
-104.291
  0
LINE
  8
0
 10
-103.015
 20
-104.291
 11
-103.004
 21
-104.395
  0
LINE
  8
0
 10
-103.004
 20
-104.395
 11
-103
 21
-104.5
  0
LINE
  8
0
 10
-103
 20
-104.5
 11
-103.004
 21
-104.605
  0
LINE
  8
0
 10
-103.004
 20
-104.605
 11
-103.015
 21
-104.709
  0
LINE
  8
0
 10
-103.015
 20
-104.709
 11
-103.033
 21
-104.812
  0
LINE
  8
0
 10
-103.033
 20
-104.812
 11
-103.058
 21
-104.913
  0
LINE
  8
0
 10
-103.058
 20
-104.913
 11
-103.09
 21
-105.013
  0
LINE
  8
0
 10
-103.09
 20
-105.013
 11
-103.13
 21
-105.11
  0
LINE
  8
0
 10
-103.13
 20
-105.11
 11
-103.176
 21
-105.204
  0
LINE
  8
0
 10
-103.176
 20
-105.204
 11
-103.228
 21
-105.295
  0
LINE
  8
0
 10
-103.228
 20
-105.295
 11
-103.286
 21
-105.382
  0
LINE
  8
0
 10
-103.286
 20
-105.382
 11
-103.351
 21
-105.464
  0
LINE
  8
0
 10
-103.351
 20
-105.464
 11
-103.421
 21
-105.542
  0
LINE
  8
0
 10
-103.421
 20
-105.542
 11
-103.496
 21
-105.615
  0
LINE
  8
0
 10
-103.496
 20
-105.615
 11
-103.577
 21
-105.682
  0
LINE
  8
0
 10
-103.577
 20
-105.682
 11
-103.661
 21
-105.744
  0
LINE
  8
0
 10
-103.661
 20
-105.744
 11
-103.75
 21
-105.799
  0
LINE
  8
0
 10
-103.75
 20
-105.799
 11
-103.842
 21
-105.848
  0
LINE
  8
0
 10
-103.842
 20
-105.848
 11
-103.938
 21
-105.891
  0
LINE
  8
0
 10
-103.938
 20
-105.891
 11
-104.036
 21
-105.927
  0
LINE
  8
0
 10
-104.036
 20
-105.927
 11
-104.137
 21
-105.955
  0
LINE
  8
0
 10
-104.137
 20
-105.955
 11
-104.24
 21
-105.977
  0
LINE
  8
0
 10
-104.24
 20
-105.977
 11
-104.343
 21
-105.992
  0
LINE
  8
0
 10
-104.343
 20
-105.992
 11
-104.448
 21
-105.999
  0
LINE
  8
0
 10
-104.448
 20
-105.999
 11
-104.552
 21
-105.999
  0
LINE
  8
0
 10
104.448
 20
-105.999
 11
104.343
 21
-105.992
  0
LINE
  8
0
 10
104.343
 20
-105.992
 11
104.24
 21
-105.977
  0
LINE
  8
0
 10
104.24
 20
-105.977
 11
104.137
 21
-105.955
  0
LINE
  8
0
 10
104.137
 20
-105.955
 11
104.036
 21
-105.927
  0
LINE
  8
0
 10
104.036
 20
-105.927
 11
103.938
 21
-105.891
  0
LINE
  8
0
 10
103.938
 20
-105.891
 11
103.842
 21
-105.848
  0
LINE
  8
0
 10
103.842
 20
-105.848
 11
103.75
 21
-105.799
  0
LINE
  8
0
 10
103.75
 20
-105.799
 11
103.661
 21
-105.744
  0
LINE
  8
0
 10
103.661
 20
-105.744
 11
103.577
 21
-105.682
  0
LINE
  8
0
 10
103.577
 20
-105.682
 11
103.496
 21
-105.615
  0
LINE
  8
0
 10
103.496
 20
-105.615
 11
103.421
 21
-105.542
  0
LINE
  8
0
 10
103.421
 20
-105.542
 11
103.351
 21
-105.464
  0
LINE
  8
0
 10
103.351
 20
-105.464
 11
103.286
 21
-105.382
  0
LINE
  8
0
 10
103.286
 20
-105.382
 11
103.228
 21
-105.295
  0
LINE
  8
0
 10
103.228
 20
-105.295
 11
103.176
 21
-105.204
  0
LINE
  8
0
 10
103.176
 20
-105.204
 11
103.13
 21
-105.11
  0
LINE
  8
0
 10
103.13
 20
-105.11
 11
103.09
 21
-105.013
  0
LINE
  8
0
 10
103.09
 20
-105.013
 11
103.058
 21
-104.913
  0
LINE
  8
0
 10
103.058
 20
-104.913
 11
103.033
 21
-104.812
  0
LINE
  8
0
 10
103.033
 20
-104.812
 11
103.015
 21
-104.709
  0
LINE
  8
0
 10
103.015
 20
-104.709
 11
103.004
 21
-104.605
  0
LINE
  8
0
 10
103.004
 20
-104.605
 11
103
 21
-104.5
  0
LINE
  8
0
 10
103
 20
-104.5
 11
103.004
 21
-104.395
  0
LINE
  8
0
 10
103.004
 20
-104.395
 11
103.015
 21
-104.291
  0
LINE
  8
0
 10
103.015
 20
-104.291
 11
103.033
 21
-104.188
  0
LINE
  8
0
 10
103.033
 20
-104.188
 11
103.058
 21
-104.087
  0
LINE
  8
0
 10
103.058
 20
-104.087
 11
103.09
 21
-103.987
  0
LINE
  8
0
 10
103.09
 20
-103.987
 11
103.13
 21
-103.89
  0
LINE
  8
0
 10
103.13
 20
-103.89
 11
103.176
 21
-103.796
  0
LINE
  8
0
 10
103.176
 20
-103.796
 11
103.228
 21
-103.705
  0
LINE
  8
0
 10
103.228
 20
-103.705
 11
103.286
 21
-103.618
  0
LINE
  8
0
 10
103.286
 20
-103.618
 11
103.351
 21
-103.536
  0
LINE
  8
0
 10
103.351
 20
-103.536
 11
103.421
 21
-103.458
  0
LINE
  8
0
 10
103.421
 20
-103.458
 11
103.496
 21
-103.385
  0
LINE
  8
0
 10
103.496
 20
-103.385
 11
103.577
 21
-103.318
  0
LINE
  8
0
 10
103.577
 20
-103.318
 11
103.661
 21
-103.256
  0
LINE
  8
0
 10
103.661
 20
-103.256
 11
103.75
 21
-103.201
  0
LINE
  8
0
 10
103.75
 20
-103.201
 11
103.842
 21
-103.152
  0
LINE
  8
0
 10
103.842
 20
-103.152
 11
103.938
 21
-103.109
  0
LINE
  8
0
 10
103.938
 20
-103.109
 11
104.036
 21
-103.073
  0
LINE
  8
0
 10
104.036
 20
-103.073
 11
104.137
 21
-103.045
  0
LINE
  8
0
 10
104.137
 20
-103.045
 11
104.24
 21
-103.023
  0
LINE
  8
0
 10
104.24
 20
-103.023
 11
104.343
 21
-103.008
  0
LINE
  8
0
 10
104.343
 20
-103.008
 11
104.448
 21
-103.001
  0
LINE
  8
0
 10
104.448
 20
-103.001
 11
104.552
 21
-103.001
  0
LINE
  8
0
 10
104.552
 20
-103.001
 11
104.657
 21
-103.008
  0
LINE
  8
0
 10
104.657
 20
-103.008
 11
104.76
 21
-103.023
  0
LINE
  8
0
 10
104.76
 20
-103.023
 11
104.863
 21
-103.045
  0
LINE
  8
0
 10
104.863
 20
-103.045
 11
104.964
 21
-103.073
  0
LINE
  8
0
 10
104.964
 20
-103.073
 11
105.062
 21
-103.109
  0
LINE
  8
0
 10
105.062
 20
-103.109
 11
105.158
 21
-103.152
  0
LINE
  8
0
 10
105.158
 20
-103.152
 11
105.25
 21
-103.201
  0
LINE
  8
0
 10
105.25
 20
-103.201
 11
105.339
 21
-103.256
  0
LINE
  8
0
 10
105.339
 20
-103.256
 11
105.423
 21
-103.318
  0
LINE
  8
0
 10
105.423
 20
-103.318
 11
105.504
 21
-103.385
  0
LINE
  8
0
 10
105.504
 20
-103.385
 11
105.579
 21
-103.458
  0
LINE
  8
0
 10
105.579
 20
-103.458
 11
105.649
 21
-103.536
  0
LINE
  8
0
 10
105.649
 20
-103.536
 11
105.714
 21
-103.618
  0
LINE
  8
0
 10
105.714
 20
-103.618
 11
105.772
 21
-103.705
  0
LINE
  8
0
 10
105.772
 20
-103.705
 11
105.824
 21
-103.796
  0
LINE
  8
0
 10
105.824
 20
-103.796
 11
105.87
 21
-103.89
  0
LINE
  8
0
 10
105.87
 20
-103.89
 11
105.91
 21
-103.987
  0
LINE
  8
0
 10
105.91
 20
-103.987
 11
105.942
 21
-104.087
  0
LINE
  8
0
 10
105.942
 20
-104.087
 11
105.967
 21
-104.188
  0
LINE
  8
0
 10
105.967
 20
-104.188
 11
105.985
 21
-104.291
  0
LINE
  8
0
 10
105.985
 20
-104.291
 11
105.996
 21
-104.395
  0
LINE
  8
0
 10
105.996
 20
-104.395
 11
106
 21
-104.5
  0
LINE
  8
0
 10
106
 20
-104.5
 11
105.996
 21
-104.605
  0
LINE
  8
0
 10
105.996
 20
-104.605
 11
105.985
 21
-104.709
  0
LINE
  8
0
 10
105.985
 20
-104.709
 11
105.967
 21
-104.812
  0
LINE
  8
0
 10
105.967
 20
-104.812
 11
105.942
 21
-104.913
  0
LINE
  8
0
 10
105.942
 20
-104.913
 11
105.91
 21
-105.013
  0
LINE
  8
0
 10
105.91
 20
-105.013
 11
105.87
 21
-105.11
  0
LINE
  8
0
 10
105.87
 20
-105.11
 11
105.824
 21
-105.204
  0
LINE
  8
0
 10
105.824
 20
-105.204
 11
105.772
 21
-105.295
  0
LINE
  8
0
 10
105.772
 20
-105.295
 11
105.714
 21
-105.382
  0
LINE
  8
0
 10
105.714
 20
-105.382
 11
105.649
 21
-105.464
  0
LINE
  8
0
 10
105.649
 20
-105.464
 11
105.579
 21
-105.542
  0
LINE
  8
0
 10
105.579
 20
-105.542
 11
105.504
 21
-105.615
  0
LINE
  8
0
 10
105.504
 20
-105.615
 11
105.423
 21
-105.682
  0
LINE
  8
0
 10
105.423
 20
-105.682
 11
105.339
 21
-105.744
  0
LINE
  8
0
 10
105.339
 20
-105.744
 11
105.25
 21
-105.799
  0
LINE
  8
0
 10
105.25
 20
-105.799
 11
105.158
 21
-105.848
  0
LINE
  8
0
 10
105.158
 20
-105.848
 11
105.062
 21
-105.891
  0
LINE
  8
0
 10
105.062
 20
-105.891
 11
104.964
 21
-105.927
  0
LINE
  8
0
 10
104.964
 20
-105.927
 11
104.863
 21
-105.955
  0
LINE
  8
0
 10
104.863
 20
-105.955
 11
104.76
 21
-105.977
  0
LINE
  8
0
 10
104.76
 20
-105.977
 11
104.657
 21
-105.992
  0
LINE
  8
0
 10
104.657
 20
-105.992
 11
104.552
 21
-105.999
  0
LINE
  8
0
 10
104.552
 20
-105.999
 11
104.448
 21
-105.999
  0
ENDSEC
  0
SECTION
  2
OBJECTS
  0
DICTIONARY
  0
ENDSEC
  0
EOF
