<?xml version="1.0" standalone="no"?>
<!DOCTYPE svg PUBLIC "-//W3C//DTD SVG 1.1//EN" "http://www.w3.org/Graphics/SVG/1.1/DTD/svg11.dtd">
<svg width="306" height="214" viewBox="-153 -107 306 214" xmlns="http://www.w3.org/2000/svg" version="1.1">
<title>OpenSCAD Model</title>
<path d="
M 107,65.0538 L 153,19.0538 L 153,-19.0538 L 107,-65.0538 L 107,-107 L -107,-107
 L -107,-65.0538 L -153,-19.0538 L -153,19.0538 L -107,65.0538 L -107,107 L 107,107
 z
M 104.448,-103.001 L 104.343,-103.008 L 104.24,-103.023 L 104.137,-103.045 L 104.036,-103.073 L 103.938,-103.109
 L 103.842,-103.152 L 103.75,-103.201 L 103.661,-103.256 L 103.577,-103.318 L 103.496,-103.385 L 103.421,-103.458
 L 103.351,-103.536 L 103.286,-103.618 L 103.228,-103.705 L 103.176,-103.796 L 103.13,-103.89 L 103.09,-103.987
 L 103.058,-104.087 L 103.033,-104.188 L 103.015,-104.291 L 103.004,-104.395 L 103,-104.5 L 103.004,-104.605
 L 103.015,-104.709 L 103.033,-104.812 L 103.058,-104.913 L 103.09,-105.013 L 103.13,-105.11 L 103.176,-105.204
 L 103.228,-105.295 L 103.286,-105.382 L 103.351,-105.464 L 103.421,-105.542 L 103.496,-105.615 L 103.577,-105.682
 L 103.661,-105.744 L 103.75,-105.799 L 103.842,-105.848 L 103.938,-105.891 L 104.036,-105.927 L 104.137,-105.955
 L 104.24,-105.977 L 104.343,-105.992 L 104.448,-105.999 L 104.552,-105.999 L 104.657,-105.992 L 104.76,-105.977
 L 104.863,-105.955 L 104.964,-105.927 L 105.062,-105.891 L 105.158,-105.848 L 105.25,-105.799 L 105.339,-105.744
 L 105.423,-105.682 L 105.504,-105.615 L 105.579,-105.542 L 105.649,-105.464 L 105.714,-105.382 L 105.772,-105.295
 L 105.824,-105.204 L 105.87,-105.11 L 105.91,-105.013 L 105.942,-104.913 L 105.967,-104.812 L 105.985,-104.709
 L 105.996,-104.605 L 106,-104.5 L 105.996,-104.395 L 105.985,-104.291 L 105.967,-104.188 L 105.942,-104.087
 L 105.91,-103.987 L 105.87,-103.89 L 105.824,-103.796 L 105.772,-103.705 L 105.714,-103.618 L 105.649,-103.536
 L 105.579,-103.458 L 105.504,-103.385 L 105.423,-103.318 L 105.339,-103.256 L 105.25,-103.201 L 105.158,-103.152
 L 105.062,-103.109 L 104.964,-103.073 L 104.863,-103.045 L 104.76,-103.023 L 104.657,-103.008 L 104.552,-103.001
 z
M -104.552,-103.001 L -104.657,-103.008 L -104.76,-103.023 L -104.863,-103.045 L -104.964,-103.073 L -105.062,-103.109
 L -105.158,-103.152 L -105.25,-103.201 L -105.339,-103.256 L -105.423,-103.318 L -105.504,-103.385 L -105.579,-103.458
 L -105.649,-103.536 L -105.714,-103.618 L -105.772,-103.705 L -105.824,-103.796 L -105.87,-103.89 L -105.91,-103.987
 L -105.942,-104.087 L -105.967,-104.188 L -105.985,-104.291 L -105.996,-104.395 L -106,-104.5 L -105.996,-104.605
 L -105.985,-104.709 L -105.967,-104.812 L -105.942,-104.913 L -105.91,-105.013 L -105.87,-105.11 L -105.824,-105.204
 L -105.772,-105.295 L -105.714,-105.382 L -105.649,-105.464 L -105.579,-105.542 L -105.504,-105.615 L -105.423,-105.682
 L -105.339,-105.744 L -105.25,-105.799 L -105.158,-105.848 L -105.062,-105.891 L -104.964,-105.927 L -104.863,-105.955
 L -104.76,-105.977 L -104.657,-105.992 L -104.552,-105.999 L -104.448,-105.999 L -104.343,-105.992 L -104.24,-105.977
 L -104.137,-105.955 L -104.036,-105.927 L -103.938,-105.891 L -103.842,-105.848 L -103.75,-105.799 L -103.661,-105.744
 L -103.577,-105.682 L -103.496,-105.615 L -103.421,-105.542 L -103.351,-105.464 L -103.286,-105.382 L -103.228,-105.295
 L -103.176,-105.204 L -103.13,-105.11 L -103.09,-105.013 L -103.058,-104.913 L -103.033,-104.812 L -103.015,-104.709
 L -103.004,-104.605 L -103,-104.5 L -103.004,-104.395 L -103.015,-104.291 L -103.033,-104.188 L -103.058,-104.087
 L -103.09,-103.987 L -103.13,-103.89 L -103.176,-103.796 L -103.228,-103.705 L -103.286,-103.618 L -103.351,-103.536
 L -103.421,-103.458 L -103.496,-103.385 L -103.577,-103.318 L -103.661,-103.256 L -103.75,-103.201 L -103.842,-103.152
 L -103.938,-103.109 L -104.036,-103.073 L -104.137,-103.045 L -104.24,-103.023 L -104.343,-103.008 L -104.448,-103.001
 z
M -0.0523376,-103.001 L -0.156784,-103.008 L -0.260468,-103.023 L -0.362869,-103.045 L -0.463516,-103.073 L -0.561905,-103.109
 L -0.657547,-103.152 L -0.75,-103.201 L -0.838776,-103.256 L -0.923477,-103.318 L -1.00369,-103.385 L -1.07899,-103.458
 L -1.14906,-103.536 L -1.21352,-103.618 L -1.27206,-103.705 L -1.32442,-103.796 L -1.37032,-103.89 L -1.40953,-103.987
 L -1.44188,-104.087 L -1.46721,-104.188 L -1.4854,-104.291 L -1.49634,-104.395 L -1.5,-104.5 L -1.49634,-104.605
 L -1.4854,-104.709 L -1.46721,-104.812 L -1.44188,-104.913 L -1.40953,-105.013 L -1.37032,-105.11 L -1.32442,-105.204
 L -1.27206,-105.295 L -1.21352,-105.382 L -1.14906,-105.464 L -1.07899,-105.542 L -1.00369,-105.615 L -0.923477,-105.682
 L -0.838776,-105.744 L -0.749985,-105.799 L -0.657547,-105.848 L -0.561905,-105.891 L -0.463516,-105.927 L -0.362869,-105.955
 L -0.260468,-105.977 L -0.156784,-105.992 L -0.0523376,-105.999 L 0.0523376,-105.999 L 0.156784,-105.992 L 0.260468,-105.977
 L 0.362869,-105.955 L 0.463516,-105.927 L 0.561905,-105.891 L 0.657547,-105.848 L 0.75,-105.799 L 0.838776,-105.744
 L 0.923477,-105.682 L 1.00369,-105.615 L 1.07899,-105.542 L 1.14906,-105.464 L 1.21352,-105.382 L 1.27206,-105.295
 L 1.32442,-105.204 L 1.37032,-105.11 L 1.40953,-105.013 L 1.44188,-104.913 L 1.46721,-104.812 L 1.4854,-104.709
 L 1.49634,-104.605 L 1.5,-104.5 L 1.49634,-104.395 L 1.4854,-104.291 L 1.46721,-104.188 L 1.44188,-104.087
 L 1.40953,-103.987 L 1.37032,-103.89 L 1.32442,-103.796 L 1.27206,-103.705 L 1.21352,-103.618 L 1.14906,-103.536
 L 1.07899,-103.458 L 1.00369,-103.385 L 0.923477,-103.318 L 0.838776,-103.256 L 0.75,-103.201 L 0.657547,-103.152
 L 0.561905,-103.109 L 0.463516,-103.073 L 0.362869,-103.045 L 0.260468,-103.023 L 0.156784,-103.008 L 0.0523376,-103.001
 z
M 76.9302,-100.001 L 76.7909,-100.011 L 76.6527,-100.03 L 76.5161,-100.059 L 76.382,-100.098 L 76.2508,-100.146
 L 76.1232,-100.202 L 76,-100.268 L 75.8816,-100.342 L 75.7687,-100.424 L 75.6617,-100.514 L 75.5613,-100.611
 L 75.4679,-100.714 L 75.382,-100.824 L 75.3039,-100.94 L 75.2341,-101.061 L 75.1729,-101.187 L 75.1206,-101.316
 L 75.0775,-101.449 L 75.0437,-101.584 L 75.0195,-101.722 L 75.0049,-101.86 L 75,-102 L 75.0049,-102.14
 L 75.0195,-102.278 L 75.0437,-102.416 L 75.0775,-102.551 L 75.1206,-102.684 L 75.1729,-102.813 L 75.2341,-102.939
 L 75.3039,-103.06 L 75.382,-103.176 L 75.4679,-103.286 L 75.5613,-103.389 L 75.6617,-103.486 L 75.7687,-103.576
 L 75.8816,-103.658 L 76,-103.732 L 76.1232,-103.798 L 76.2508,-103.854 L 76.382,-103.902 L 76.5161,-103.941
 L 76.6527,-103.97 L 76.7909,-103.989 L 76.9302,-103.999 L 77.0698,-103.999 L 77.209,-103.989 L 77.3473,-103.97
 L 77.4838,-103.941 L 77.618,-103.902 L 77.7492,-103.854 L 77.8767,-103.798 L 78,-103.732 L 78.1184,-103.658
 L 78.2313,-103.576 L 78.3383,-103.486 L 78.4387,-103.389 L 78.5321,-103.286 L 78.618,-103.176 L 78.6961,-103.06
 L 78.7659,-102.939 L 78.8271,-102.813 L 78.8794,-102.684 L 78.9225,-102.551 L 78.9563,-102.416 L 78.9805,-102.278
 L 78.9951,-102.14 L 79,-102 L 78.9951,-101.86 L 78.9805,-101.722 L 78.9563,-101.584 L 78.9225,-101.449
 L 78.8794,-101.316 L 78.8271,-101.187 L 78.7659,-101.061 L 78.6961,-100.94 L 78.618,-100.824 L 78.5321,-100.714
 L 78.4387,-100.611 L 78.3383,-100.514 L 78.2313,-100.424 L 78.1184,-100.342 L 78,-100.268 L 77.8767,-100.202
 L 77.7492,-100.146 L 77.618,-100.098 L 77.4838,-100.059 L 77.3473,-100.03 L 77.209,-100.011 L 77.0698,-100.001
 z
M -77.0698,-100.001 L -77.209,-100.011 L -77.3473,-100.03 L -77.4838,-100.059 L -77.618,-100.098 L -77.7492,-100.146
 L -77.8767,-100.202 L -78,-100.268 L -78.1184,-100.342 L -78.2313,-100.424 L -78.3383,-100.514 L -78.4387,-100.611
 L -78.5321,-100.714 L -78.618,-100.824 L -78.6961,-100.94 L -78.7659,-101.061 L -78.8271,-101.187 L -78.8794,-101.316
 L -78.9225,-101.449 L -78.9563,-101.584 L -78.9805,-101.722 L -78.9951,-101.86 L -79,-102 L -78.9951,-102.14
 L -78.9805,-102.278 L -78.9563,-102.416 L -78.9225,-102.551 L -78.8794,-102.684 L -78.8271,-102.813 L -78.7659,-102.939
 L -78.6961,-103.06 L -78.618,-103.176 L -78.5321,-103.286 L -78.4387,-103.389 L -78.3383,-103.486 L -78.2313,-103.576
 L -78.1184,-103.658 L -78,-103.732 L -77.8767,-103.798 L -77.7492,-103.854 L -77.618,-103.902 L -77.4838,-103.941
 L -77.3473,-103.97 L -77.209,-103.989 L -77.0698,-103.999 L -76.9302,-103.999 L -76.7909,-103.989 L -76.6527,-103.97
 L -76.5161,-103.941 L -76.382,-103.902 L -76.2508,-103.854 L -76.1232,-103.798 L -76,-103.732 L -75.8816,-103.658
 L -75.7687,-103.576 L -75.6617,-103.486 L -75.5613,-103.389 L -75.4679,-103.286 L -75.382,-103.176 L -75.3039,-103.06
 L -75.2341,-102.939 L -75.1729,-102.813 L -75.1206,-102.684 L -75.0775,-102.551 L -75.0437,-102.416 L -75.0195,-102.278
 L -75.0049,-102.14 L -75,-102 L -75.0049,-101.86 L -75.0195,-101.722 L -75.0437,-101.584 L -75.0775,-101.449
 L -75.1206,-101.316 L -75.1729,-101.187 L -75.2341,-101.061 L -75.3039,-100.94 L -75.382,-100.824 L -75.4679,-100.714
 L -75.5613,-100.611 L -75.6617,-100.514 L -75.7687,-100.424 L -75.8816,-100.342 L -76,-100.268 L -76.1232,-100.202
 L -76.2508,-100.146 L -76.382,-100.098 L -76.5161,-100.059 L -76.6527,-100.03 L -76.7909,-100.011 L -76.9302,-100.001
 z
M 101.93,-75.0012 L 101.791,-75.011 L 101.653,-75.0304 L 101.516,-75.0594 L 101.382,-75.0979 L 101.251,-75.1456
 L 101.123,-75.2024 L 101,-75.2679 L 100.882,-75.3419 L 100.769,-75.424 L 100.662,-75.5137 L 100.561,-75.6107
 L 100.468,-75.7144 L 100.382,-75.8244 L 100.304,-75.9402 L 100.234,-76.0611 L 100.173,-76.1865 L 100.121,-76.3159
 L 100.077,-76.4487 L 100.044,-76.5842 L 100.019,-76.7216 L 100.005,-76.8605 L 100,-77 L 100.005,-77.1395
 L 100.019,-77.2783 L 100.044,-77.4158 L 100.077,-77.5513 L 100.121,-77.684 L 100.173,-77.8135 L 100.234,-77.9389
 L 100.304,-78.0598 L 100.382,-78.1756 L 100.468,-78.2856 L 100.561,-78.3893 L 100.662,-78.4863 L 100.769,-78.576
 L 100.882,-78.6581 L 101,-78.732 L 101.123,-78.7976 L 101.251,-78.8544 L 101.382,-78.9021 L 101.516,-78.9406
 L 101.653,-78.9696 L 101.791,-78.989 L 101.93,-78.9988 L 102.07,-78.9988 L 102.209,-78.989 L 102.347,-78.9696
 L 102.484,-78.9406 L 102.618,-78.9021 L 102.749,-78.8544 L 102.877,-78.7976 L 103,-78.732 L 103.118,-78.6581
 L 103.231,-78.576 L 103.338,-78.4863 L 103.439,-78.3893 L 103.532,-78.2856 L 103.618,-78.1756 L 103.696,-78.0598
 L 103.766,-77.9389 L 103.827,-77.8135 L 103.879,-77.684 L 103.923,-77.5513 L 103.956,-77.4158 L 103.981,-77.2783
 L 103.995,-77.1395 L 104,-77 L 103.995,-76.8605 L 103.981,-76.7216 L 103.956,-76.5842 L 103.923,-76.4487
 L 103.879,-76.3159 L 103.827,-76.1865 L 103.766,-76.0611 L 103.696,-75.9402 L 103.618,-75.8244 L 103.532,-75.7144
 L 103.439,-75.6107 L 103.338,-75.5137 L 103.231,-75.424 L 103.118,-75.3419 L 103,-75.2679 L 102.877,-75.2024
 L 102.749,-75.1456 L 102.618,-75.0979 L 102.484,-75.0594 L 102.347,-75.0304 L 102.209,-75.011 L 102.07,-75.0012
 z
M -102.07,-75.0012 L -102.209,-75.011 L -102.347,-75.0304 L -102.484,-75.0594 L -102.618,-75.0979 L -102.749,-75.1456
 L -102.877,-75.2024 L -103,-75.2679 L -103.118,-75.3419 L -103.231,-75.424 L -103.338,-75.5137 L -103.439,-75.6107
 L -103.532,-75.7144 L -103.618,-75.8244 L -103.696,-75.9402 L -103.766,-76.0611 L -103.827,-76.1865 L -103.879,-76.3159
 L -103.923,-76.4487 L -103.956,-76.5842 L -103.981,-76.7216 L -103.995,-76.8605 L -104,-77 L -103.995,-77.1395
 L -103.981,-77.2783 L -103.956,-77.4158 L -103.923,-77.5513 L -103.879,-77.684 L -103.827,-77.8135 L -103.766,-77.9389
 L -103.696,-78.0598 L -103.618,-78.1756 L -103.532,-78.2856 L -103.439,-78.3893 L -103.338,-78.4863 L -103.231,-78.576
 L -103.118,-78.6581 L -103,-78.732 L -102.877,-78.7976 L -102.749,-78.8544 L -102.618,-78.9021 L -102.484,-78.9406
 L -102.347,-78.9696 L -102.209,-78.989 L -102.07,-78.9988 L -101.93,-78.9988 L -101.791,-78.989 L -101.653,-78.9696
 L -101.516,-78.9406 L -101.382,-78.9021 L -101.251,-78.8544 L -101.123,-78.7976 L -101,-78.732 L -100.882,-78.6581
 L -100.769,-78.576 L -100.662,-78.4863 L -100.561,-78.3893 L -100.468,-78.2856 L -100.382,-78.1756 L -100.304,-78.0598
 L -100.234,-77.9389 L -100.173,-77.8135 L -100.121,-77.684 L -100.077,-77.5513 L -100.044,-77.4158 L -100.019,-77.2783
 L -100.005,-77.1395 L -100,-77 L -100.005,-76.8605 L -100.019,-76.7216 L -100.044,-76.5842 L -100.077,-76.4487
 L -100.121,-76.3159 L -100.173,-76.1865 L -100.234,-76.0611 L -100.304,-75.9402 L -100.382,-75.8244 L -100.468,-75.7144
 L -100.561,-75.6107 L -100.662,-75.5137 L -100.769,-75.424 L -100.882,-75.3419 L -101,-75.2679 L -101.123,-75.2024
 L -101.251,-75.1456 L -101.382,-75.0979 L -101.516,-75.0594 L -101.653,-75.0304 L -101.791,-75.011 L -101.93,-75.0012
 z
M -141.054,-8.2618 L -141.242,-8.27493 L -141.429,-8.30116 L -141.613,-8.34035 L -141.794,-8.39229 L -141.972,-8.45676
 L -142.144,-8.5334 L -142.31,-8.62187 L -142.47,-8.72174 L -142.622,-8.83252 L -142.767,-8.95366 L -142.902,-9.08456
 L -143.028,-9.22462 L -143.145,-9.37312 L -143.25,-9.52936 L -143.344,-9.69258 L -143.427,-9.86195 L -143.497,-10.0367
 L -143.556,-10.2159 L -143.601,-10.3988 L -143.634,-10.5844 L -143.654,-10.7718 L -143.66,-10.9601 L -143.654,-11.1485
 L -143.634,-11.3359 L -143.601,-11.5215 L -143.556,-11.7044 L -143.497,-11.8836 L -143.427,-12.0583 L -143.344,-12.2277
 L -143.25,-12.3909 L -143.145,-12.5472 L -143.028,-12.6957 L -142.902,-12.8357 L -142.767,-12.9666 L -142.622,-13.0878
 L -142.47,-13.1985 L -142.31,-13.2984 L -142.144,-13.3869 L -141.972,-13.4635 L -141.794,-13.528 L -141.613,-13.5799
 L -141.429,-13.6191 L -141.242,-13.6454 L -141.054,-13.6585 L -140.866,-13.6585 L -140.678,-13.6454 L -140.491,-13.6191
 L -140.307,-13.5799 L -140.126,-13.528 L -139.949,-13.4635 L -139.777,-13.3869 L -139.61,-13.2984 L -139.45,-13.1985
 L -139.298,-13.0878 L -139.153,-12.9666 L -139.018,-12.8357 L -138.892,-12.6957 L -138.776,-12.5472 L -138.67,-12.3909
 L -138.576,-12.2277 L -138.494,-12.0583 L -138.423,-11.8836 L -138.365,-11.7044 L -138.319,-11.5215 L -138.286,-11.3359
 L -138.267,-11.1485 L -138.26,-10.9601 L -138.267,-10.7718 L -138.286,-10.5844 L -138.319,-10.3988 L -138.365,-10.2159
 L -138.423,-10.0367 L -138.494,-9.86195 L -138.576,-9.69258 L -138.67,-9.52936 L -138.776,-9.37312 L -138.892,-9.22462
 L -139.018,-9.08456 L -139.153,-8.95366 L -139.298,-8.83252 L -139.45,-8.72174 L -139.61,-8.62187 L -139.777,-8.5334
 L -139.949,-8.45676 L -140.126,-8.39229 L -140.307,-8.34035 L -140.491,-8.30116 L -140.678,-8.27493 L -140.866,-8.2618
 z
M -119.134,-8.2618 L -119.322,-8.27493 L -119.509,-8.30116 L -119.693,-8.34035 L -119.874,-8.39229 L -120.051,-8.45676
 L -120.223,-8.5334 L -120.39,-8.62187 L -120.55,-8.72174 L -120.702,-8.83252 L -120.846,-8.95366 L -120.982,-9.08456
 L -121.108,-9.22462 L -121.224,-9.37312 L -121.33,-9.52936 L -121.424,-9.69258 L -121.506,-9.86195 L -121.577,-10.0367
 L -121.635,-10.2159 L -121.681,-10.3988 L -121.714,-10.5844 L -121.733,-10.7718 L -121.74,-10.9601 L -121.733,-11.1485
 L -121.714,-11.3359 L -121.681,-11.5215 L -121.635,-11.7044 L -121.577,-11.8836 L -121.506,-12.0583 L -121.424,-12.2277
 L -121.33,-12.3909 L -121.224,-12.5472 L -121.108,-12.6957 L -120.982,-12.8357 L -120.846,-12.9666 L -120.702,-13.0878
 L -120.55,-13.1985 L -120.39,-13.2984 L -120.223,-13.3869 L -120.051,-13.4635 L -119.874,-13.528 L -119.693,-13.5799
 L -119.509,-13.6191 L -119.322,-13.6454 L -119.134,-13.6585 L -118.946,-13.6585 L -118.758,-13.6454 L -118.571,-13.6191
 L -118.387,-13.5799 L -118.205,-13.528 L -118.028,-13.4635 L -117.856,-13.3869 L -117.69,-13.2984 L -117.53,-13.1985
 L -117.378,-13.0878 L -117.233,-12.9666 L -117.098,-12.8357 L -116.972,-12.6957 L -116.855,-12.5472 L -116.75,-12.3909
 L -116.656,-12.2277 L -116.573,-12.0583 L -116.503,-11.8836 L -116.444,-11.7044 L -116.399,-11.5215 L -116.366,-11.3359
 L -116.346,-11.1485 L -116.34,-10.9601 L -116.346,-10.7718 L -116.366,-10.5844 L -116.399,-10.3988 L -116.444,-10.2159
 L -116.503,-10.0367 L -116.573,-9.86195 L -116.656,-9.69258 L -116.75,-9.52936 L -116.855,-9.37312 L -116.972,-9.22462
 L -117.098,-9.08456 L -117.233,-8.95366 L -117.378,-8.83252 L -117.53,-8.72174 L -117.69,-8.62187 L -117.856,-8.5334
 L -118.028,-8.45676 L -118.205,-8.39229 L -118.387,-8.34035 L -118.571,-8.30116 L -118.758,-8.27493 L -118.946,-8.2618
 z
M 140.866,-8.2618 L 140.678,-8.27493 L 140.491,-8.30116 L 140.307,-8.34035 L 140.126,-8.39229 L 139.949,-8.45676
 L 139.777,-8.5334 L 139.61,-8.62187 L 139.45,-8.72174 L 139.298,-8.83252 L 139.153,-8.95366 L 139.018,-9.08456
 L 138.892,-9.22462 L 138.776,-9.37312 L 138.67,-9.52936 L 138.576,-9.69258 L 138.494,-9.86195 L 138.423,-10.0367
 L 138.365,-10.2159 L 138.319,-10.3988 L 138.286,-10.5844 L 138.267,-10.7718 L 138.26,-10.9601 L 138.267,-11.1485
 L 138.286,-11.3359 L 138.319,-11.5215 L 138.365,-11.7044 L 138.423,-11.8836 L 138.494,-12.0583 L 138.576,-12.2277
 L 138.67,-12.3909 L 138.776,-12.5472 L 138.892,-12.6957 L 139.018,-12.8357 L 139.153,-12.9666 L 139.298,-13.0878
 L 139.45,-13.1985 L 139.61,-13.2984 L 139.777,-13.3869 L 139.949,-13.4635 L 140.126,-13.528 L 140.307,-13.5799
 L 140.491,-13.6191 L 140.678,-13.6454 L 140.866,-13.6585 L 141.054,-13.6585 L 141.242,-13.6454 L 141.429,-13.6191
 L 141.613,-13.5799 L 141.794,-13.528 L 141.972,-13.4635 L 142.144,-13.3869 L 142.31,-13.2984 L 142.47,-13.1985
 L 142.622,-13.0878 L 142.767,-12.9666 L 142.902,-12.8357 L 143.028,-12.6957 L 143.145,-12.5472 L 143.25,-12.3909
 L 143.344,-12.2277 L 143.427,-12.0583 L 143.497,-11.8836 L 143.556,-11.7044 L 143.601,-11.5215 L 143.634,-11.3359
 L 143.654,-11.1485 L 143.66,-10.9601 L 143.654,-10.7718 L 143.634,-10.5844 L 143.601,-10.3988 L 143.556,-10.2159
 L 143.497,-10.0367 L 143.427,-9.86195 L 143.344,-9.69258 L 143.25,-9.52936 L 143.145,-9.37312 L 143.028,-9.22462
 L 142.902,-9.08456 L 142.767,-8.95366 L 142.622,-8.83252 L 142.47,-8.72174 L 142.31,-8.62187 L 142.144,-8.5334
 L 141.972,-8.45676 L 141.794,-8.39229 L 141.613,-8.34035 L 141.429,-8.30116 L 141.242,-8.27493 L 141.054,-8.2618
 z
M 118.946,-8.2618 L 118.758,-8.27493 L 118.571,-8.30116 L 118.387,-8.34035 L 118.205,-8.39229 L 118.028,-8.45676
 L 117.856,-8.5334 L 117.69,-8.62187 L 117.53,-8.72174 L 117.378,-8.83252 L 117.233,-8.95366 L 117.098,-9.08456
 L 116.972,-9.22462 L 116.855,-9.37312 L 116.75,-9.52936 L 116.656,-9.69258 L 116.573,-9.86195 L 116.503,-10.0367
 L 116.444,-10.2159 L 116.399,-10.3988 L 116.366,-10.5844 L 116.346,-10.7718 L 116.34,-10.9601 L 116.346,-11.1485
 L 116.366,-11.3359 L 116.399,-11.5215 L 116.444,-11.7044 L 116.503,-11.8836 L 116.573,-12.0583 L 116.656,-12.2277
 L 116.75,-12.3909 L 116.855,-12.5472 L 116.972,-12.6957 L 117.098,-12.8357 L 117.233,-12.9666 L 117.378,-13.0878
 L 117.53,-13.1985 L 117.69,-13.2984 L 117.856,-13.3869 L 118.028,-13.4635 L 118.205,-13.528 L 118.387,-13.5799
 L 118.571,-13.6191 L 118.758,-13.6454 L 118.946,-13.6585 L 119.134,-13.6585 L 119.322,-13.6454 L 119.509,-13.6191
 L 119.693,-13.5799 L 119.874,-13.528 L 120.051,-13.4635 L 120.223,-13.3869 L 120.39,-13.2984 L 120.55,-13.1985
 L 120.702,-13.0878 L 120.846,-12.9666 L 120.982,-12.8357 L 121.108,-12.6957 L 121.224,-12.5472 L 121.33,-12.3909
 L 121.424,-12.2277 L 121.506,-12.0583 L 121.577,-11.8836 L 121.635,-11.7044 L 121.681,-11.5215 L 121.714,-11.3359
 L 121.733,-11.1485 L 121.74,-10.9601 L 121.733,-10.7718 L 121.714,-10.5844 L 121.681,-10.3988 L 121.635,-10.2159
 L 121.577,-10.0367 L 121.506,-9.86195 L 121.424,-9.69258 L 121.33,-9.52936 L 121.224,-9.37312 L 121.108,-9.22462
 L 120.982,-9.08456 L 120.846,-8.95366 L 120.702,-8.83252 L 120.55,-8.72174 L 120.39,-8.62187 L 120.223,-8.5334
 L 120.051,-8.45676 L 119.874,-8.39229 L 119.693,-8.34035 L 119.509,-8.30116 L 119.322,-8.27493 L 119.134,-8.2618
 z
M 129.721,7.99512 L 129.164,7.95616 L 128.611,7.87845 L 128.065,7.76236 L 127.528,7.60844 L 127.003,7.41747
 L 126.493,7.19034 L 126,6.92819 L 125.526,6.63229 L 125.075,6.30408 L 124.647,5.94514 L 124.245,5.55727
 L 123.872,5.14229 L 123.528,4.70227 L 123.216,4.23935 L 122.936,3.75577 L 122.692,3.25389 L 122.482,2.73616
 L 122.31,2.20509 L 122.175,1.66328 L 122.078,1.11337 L 122.019,0.558044 L 122,-0 L 122.019,-0.558044
 L 122.078,-1.11337 L 122.175,-1.66328 L 122.31,-2.20509 L 122.482,-2.73616 L 122.692,-3.25389 L 122.936,-3.75577
 L 123.216,-4.23935 L 123.528,-4.70227 L 123.872,-5.14229 L 124.245,-5.55727 L 124.647,-5.94514 L 125.075,-6.30408
 L 125.526,-6.63229 L 126,-6.92819 L 126.493,-7.19034 L 127.003,-7.41747 L 127.528,-7.60844 L 128.065,-7.76236
 L 128.611,-7.87845 L 129.164,-7.95616 L 129.721,-7.99512 L 130.279,-7.99512 L 130.836,-7.95616 L 131.389,-7.87845
 L 131.935,-7.76236 L 132.472,-7.60844 L 132.997,-7.41747 L 133.507,-7.19034 L 134,-6.92819 L 134.474,-6.63229
 L 134.925,-6.30408 L 135.353,-5.94514 L 135.755,-5.55727 L 136.128,-5.14229 L 136.472,-4.70227 L 136.784,-4.23935
 L 137.064,-3.75577 L 137.308,-3.25389 L 137.518,-2.73616 L 137.69,-2.20509 L 137.825,-1.66328 L 137.922,-1.11337
 L 137.98,-0.558044 L 138,-0 L 137.98,0.558044 L 137.922,1.11337 L 137.825,1.66328 L 137.69,2.20509
 L 137.518,2.73616 L 137.308,3.25389 L 137.064,3.75577 L 136.784,4.23935 L 136.472,4.70227 L 136.128,5.14229
 L 135.755,5.55727 L 135.353,5.94514 L 134.925,6.30408 L 134.474,6.63229 L 134,6.92819 L 133.507,7.19034
 L 132.997,7.41747 L 132.472,7.60844 L 131.935,7.76236 L 131.389,7.87845 L 130.836,7.95616 L 130.279,7.99512
 z
M -130.279,7.99512 L -130.836,7.95616 L -131.389,7.87845 L -131.935,7.76236 L -132.472,7.60844 L -132.997,7.41747
 L -133.507,7.19034 L -134,6.92819 L -134.474,6.63229 L -134.925,6.30408 L -135.353,5.94514 L -135.755,5.55727
 L -136.128,5.14229 L -136.472,4.70227 L -136.784,4.23935 L -137.064,3.75577 L -137.308,3.25389 L -137.518,2.73616
 L -137.69,2.20509 L -137.825,1.66328 L -137.922,1.11337 L -137.98,0.558044 L -138,-0 L -137.98,-0.558044
 L -137.922,-1.11337 L -137.825,-1.66328 L -137.69,-2.20509 L -137.518,-2.73616 L -137.308,-3.25389 L -137.064,-3.75577
 L -136.784,-4.23935 L -136.472,-4.70227 L -136.128,-5.14229 L -135.755,-5.55727 L -135.353,-5.94514 L -134.925,-6.30408
 L -134.474,-6.63229 L -134,-6.92819 L -133.507,-7.19034 L -132.997,-7.41747 L -132.472,-7.60844 L -131.935,-7.76236
 L -131.389,-7.87845 L -130.836,-7.95616 L -130.279,-7.99512 L -129.721,-7.99512 L -129.164,-7.95616 L -128.611,-7.87845
 L -128.065,-7.76236 L -127.528,-7.60844 L -127.003,-7.41747 L -126.493,-7.19034 L -126,-6.92819 L -125.526,-6.63229
 L -125.075,-6.30408 L -124.647,-5.94514 L -124.245,-5.55727 L -123.872,-5.14229 L -123.528,-4.70227 L -123.216,-4.23935
 L -122.936,-3.75577 L -122.692,-3.25389 L -122.482,-2.73616 L -122.31,-2.20509 L -122.175,-1.66328 L -122.078,-1.11337
 L -122.019,-0.558044 L -122,-0 L -122.019,0.558044 L -122.078,1.11337 L -122.175,1.66328 L -122.31,2.20509
 L -122.482,2.73616 L -122.692,3.25389 L -122.936,3.75577 L -123.216,4.23935 L -123.528,4.70227 L -123.872,5.14229
 L -124.245,5.55727 L -124.647,5.94514 L -125.075,6.30408 L -125.526,6.63229 L -126,6.92819 L -126.493,7.19034
 L -127.003,7.41747 L -127.528,7.60844 L -128.065,7.76236 L -128.611,7.87845 L -129.164,7.95616 L -129.721,7.99512
 z
M 140.866,13.6585 L 140.678,13.6454 L 140.491,13.6191 L 140.307,13.5799 L 140.126,13.528 L 139.949,13.4635
 L 139.777,13.3869 L 139.61,13.2984 L 139.45,13.1985 L 139.298,13.0878 L 139.153,12.9666 L 139.018,12.8357
 L 138.892,12.6957 L 138.776,12.5472 L 138.67,12.3909 L 138.576,12.2277 L 138.494,12.0583 L 138.423,11.8836
 L 138.365,11.7044 L 138.319,11.5215 L 138.286,11.3359 L 138.267,11.1485 L 138.26,10.9601 L 138.267,10.7718
 L 138.286,10.5844 L 138.319,10.3988 L 138.365,10.2159 L 138.423,10.0367 L 138.494,9.86195 L 138.576,9.69258
 L 138.67,9.52936 L 138.776,9.37312 L 138.892,9.22462 L 139.018,9.08456 L 139.153,8.95366 L 139.298,8.83252
 L 139.45,8.72174 L 139.61,8.62187 L 139.777,8.5334 L 139.949,8.45676 L 140.126,8.39229 L 140.307,8.34035
 L 140.491,8.30116 L 140.678,8.27493 L 140.866,8.2618 L 141.054,8.2618 L 141.242,8.27493 L 141.429,8.30116
 L 141.613,8.34035 L 141.794,8.39229 L 141.972,8.45676 L 142.144,8.5334 L 142.31,8.62187 L 142.47,8.72174
 L 142.622,8.83252 L 142.767,8.95366 L 142.902,9.08456 L 143.028,9.22462 L 143.145,9.37312 L 143.25,9.52936
 L 143.344,9.69258 L 143.427,9.86195 L 143.497,10.0367 L 143.556,10.2159 L 143.601,10.3988 L 143.634,10.5844
 L 143.654,10.7718 L 143.66,10.9601 L 143.654,11.1485 L 143.634,11.3359 L 143.601,11.5215 L 143.556,11.7044
 L 143.497,11.8836 L 143.427,12.0583 L 143.344,12.2277 L 143.25,12.3909 L 143.145,12.5472 L 143.028,12.6957
 L 142.902,12.8357 L 142.767,12.9666 L 142.622,13.0878 L 142.47,13.1985 L 142.31,13.2984 L 142.144,13.3869
 L 141.972,13.4635 L 141.794,13.528 L 141.613,13.5799 L 141.429,13.6191 L 141.242,13.6454 L 141.054,13.6585
 z
M -141.054,13.6585 L -141.242,13.6454 L -141.429,13.6191 L -141.613,13.5799 L -141.794,13.528 L -141.972,13.4635
 L -142.144,13.3869 L -142.31,13.2984 L -142.47,13.1985 L -142.622,13.0878 L -142.767,12.9666 L -142.902,12.8357
 L -143.028,12.6957 L -143.145,12.5472 L -143.25,12.3909 L -143.344,12.2277 L -143.427,12.0583 L -143.497,11.8836
 L -143.556,11.7044 L -143.601,11.5215 L -143.634,11.3359 L -143.654,11.1485 L -143.66,10.9601 L -143.654,10.7718
 L -143.634,10.5844 L -143.601,10.3988 L -143.556,10.2159 L -143.497,10.0367 L -143.427,9.86195 L -143.344,9.69258
 L -143.25,9.52936 L -143.145,9.37312 L -143.028,9.22462 L -142.902,9.08456 L -142.767,8.95366 L -142.622,8.83252
 L -142.47,8.72174 L -142.31,8.62187 L -142.144,8.5334 L -141.972,8.45676 L -141.794,8.39229 L -141.613,8.34035
 L -141.429,8.30116 L -141.242,8.27493 L -141.054,8.2618 L -140.866,8.2618 L -140.678,8.27493 L -140.491,8.30116
 L -140.307,8.34035 L -140.126,8.39229 L -139.949,8.45676 L -139.777,8.5334 L -139.61,8.62187 L -139.45,8.72174
 L -139.298,8.83252 L -139.153,8.95366 L -139.018,9.08456 L -138.892,9.22462 L -138.776,9.37312 L -138.67,9.52936
 L -138.576,9.69258 L -138.494,9.86195 L -138.423,10.0367 L -138.365,10.2159 L -138.319,10.3988 L -138.286,10.5844
 L -138.267,10.7718 L -138.26,10.9601 L -138.267,11.1485 L -138.286,11.3359 L -138.319,11.5215 L -138.365,11.7044
 L -138.423,11.8836 L -138.494,12.0583 L -138.576,12.2277 L -138.67,12.3909 L -138.776,12.5472 L -138.892,12.6957
 L -139.018,12.8357 L -139.153,12.9666 L -139.298,13.0878 L -139.45,13.1985 L -139.61,13.2984 L -139.777,13.3869
 L -139.949,13.4635 L -140.126,13.528 L -140.307,13.5799 L -140.491,13.6191 L -140.678,13.6454 L -140.866,13.6585
 z
M 118.946,13.6585 L 118.758,13.6454 L 118.571,13.6191 L 118.387,13.5799 L 118.205,13.528 L 118.028,13.4635
 L 117.856,13.3869 L 117.69,13.2984 L 117.53,13.1985 L 117.378,13.0878 L 117.233,12.9666 L 117.098,12.8357
 L 116.972,12.6957 L 116.855,12.5472 L 116.75,12.3909 L 116.656,12.2277 L 116.573,12.0583 L 116.503,11.8836
 L 116.444,11.7044 L 116.399,11.5215 L 116.366,11.3359 L 116.346,11.1485 L 116.34,10.9601 L 116.346,10.7718
 L 116.366,10.5844 L 116.399,10.3988 L 116.444,10.2159 L 116.503,10.0367 L 116.573,9.86195 L 116.656,9.69258
 L 116.75,9.52936 L 116.855,9.37312 L 116.972,9.22462 L 117.098,9.08456 L 117.233,8.95366 L 117.378,8.83252
 L 117.53,8.72174 L 117.69,8.62187 L 117.856,8.5334 L 118.028,8.45676 L 118.205,8.39229 L 118.387,8.34035
 L 118.571,8.30116 L 118.758,8.27493 L 118.946,8.2618 L 119.134,8.2618 L 119.322,8.27493 L 119.509,8.30116
 L 119.693,8.34035 L 119.874,8.39229 L 120.051,8.45676 L 120.223,8.5334 L 120.39,8.62187 L 120.55,8.72174
 L 120.702,8.83252 L 120.846,8.95366 L 120.982,9.08456 L 121.108,9.22462 L 121.224,9.37312 L 121.33,9.52936
 L 121.424,9.69258 L 121.506,9.86195 L 121.577,10.0367 L 121.635,10.2159 L 121.681,10.3988 L 121.714,10.5844
 L 121.733,10.7718 L 121.74,10.9601 L 121.733,11.1485 L 121.714,11.3359 L 121.681,11.5215 L 121.635,11.7044
 L 121.577,11.8836 L 121.506,12.0583 L 121.424,12.2277 L 121.33,12.3909 L 121.224,12.5472 L 121.108,12.6957
 L 120.982,12.8357 L 120.846,12.9666 L 120.702,13.0878 L 120.55,13.1985 L 120.39,13.2984 L 120.223,13.3869
 L 120.051,13.4635 L 119.874,13.528 L 119.693,13.5799 L 119.509,13.6191 L 119.322,13.6454 L 119.134,13.6585
 z
M -119.134,13.6585 L -119.322,13.6454 L -119.509,13.6191 L -119.693,13.5799 L -119.874,13.528 L -120.051,13.4635
 L -120.223,13.3869 L -120.39,13.2984 L -120.55,13.1985 L -120.702,13.0878 L -120.846,12.9666 L -120.982,12.8357
 L -121.108,12.6957 L -121.224,12.5472 L -121.33,12.3909 L -121.424,12.2277 L -121.506,12.0583 L -121.577,11.8836
 L -121.635,11.7044 L -121.681,11.5215 L -121.714,11.3359 L -121.733,11.1485 L -121.74,10.9601 L -121.733,10.7718
 L -121.714,10.5844 L -121.681,10.3988 L -121.635,10.2159 L -121.577,10.0367 L -121.506,9.86195 L -121.424,9.69258
 L -121.33,9.52936 L -121.224,9.37312 L -121.108,9.22462 L -120.982,9.08456 L -120.846,8.95366 L -120.702,8.83252
 L -120.55,8.72174 L -120.39,8.62187 L -120.223,8.5334 L -120.051,8.45676 L -119.874,8.39229 L -119.693,8.34035
 L -119.509,8.30116 L -119.322,8.27493 L -119.134,8.2618 L -118.946,8.2618 L -118.758,8.27493 L -118.571,8.30116
 L -118.387,8.34035 L -118.205,8.39229 L -118.028,8.45676 L -117.856,8.5334 L -117.69,8.62187 L -117.53,8.72174
 L -117.378,8.83252 L -117.233,8.95366 L -117.098,9.08456 L -116.972,9.22462 L -116.855,9.37312 L -116.75,9.52936
 L -116.656,9.69258 L -116.573,9.86195 L -116.503,10.0367 L -116.444,10.2159 L -116.399,10.3988 L -116.366,10.5844
 L -116.346,10.7718 L -116.34,10.9601 L -116.346,11.1485 L -116.366,11.3359 L -116.399,11.5215 L -116.444,11.7044
 L -116.503,11.8836 L -116.573,12.0583 L -116.656,12.2277 L -116.75,12.3909 L -116.855,12.5472 L -116.972,12.6957
 L -117.098,12.8357 L -117.233,12.9666 L -117.378,13.0878 L -117.53,13.1985 L -117.69,13.2984 L -117.856,13.3869
 L -118.028,13.4635 L -118.205,13.528 L -118.387,13.5799 L -118.571,13.6191 L -118.758,13.6454 L -118.946,13.6585
 z
M -102.07,78.9988 L -102.209,78.989 L -102.347,78.9696 L -102.484,78.9406 L -102.618,78.9021 L -102.749,78.8544
 L -102.877,78.7976 L -103,78.732 L -103.118,78.6581 L -103.231,78.576 L -103.338,78.4863 L -103.439,78.3893
 L -103.532,78.2856 L -103.618,78.1756 L -103.696,78.0598 L -103.766,77.9389 L -103.827,77.8135 L -103.879,77.684
 L -103.923,77.5513 L -103.956,77.4158 L -103.981,77.2783 L -103.995,77.1395 L -104,77 L -103.995,76.8605
 L -103.981,76.7216 L -103.956,76.5842 L -103.923,76.4487 L -103.879,76.3159 L -103.827,76.1865 L -103.766,76.0611
 L -103.696,75.9402 L -103.618,75.8244 L -103.532,75.7144 L -103.439,75.6107 L -103.338,75.5137 L -103.231,75.424
 L -103.118,75.3419 L -103,75.2679 L -102.877,75.2024 L -102.749,75.1456 L -102.618,75.0979 L -102.484,75.0594
 L -102.347,75.0304 L -102.209,75.011 L -102.07,75.0012 L -101.93,75.0012 L -101.791,75.011 L -101.653,75.0304
 L -101.516,75.0594 L -101.382,75.0979 L -101.251,75.1456 L -101.123,75.2024 L -101,75.2679 L -100.882,75.3419
 L -100.769,75.424 L -100.662,75.5137 L -100.561,75.6107 L -100.468,75.7144 L -100.382,75.8244 L -100.304,75.9402
 L -100.234,76.0611 L -100.173,76.1865 L -100.121,76.3159 L -100.077,76.4487 L -100.044,76.5842 L -100.019,76.7216
 L -100.005,76.8605 L -100,77 L -100.005,77.1395 L -100.019,77.2783 L -100.044,77.4158 L -100.077,77.5513
 L -100.121,77.684 L -100.173,77.8135 L -100.234,77.9389 L -100.304,78.0598 L -100.382,78.1756 L -100.468,78.2856
 L -100.561,78.3893 L -100.662,78.4863 L -100.769,78.576 L -100.882,78.6581 L -101,78.732 L -101.123,78.7976
 L -101.251,78.8544 L -101.382,78.9021 L -101.516,78.9406 L -101.653,78.9696 L -101.791,78.989 L -101.93,78.9988
 z
M 101.93,78.9988 L 101.791,78.989 L 101.653,78.9696 L 101.516,78.9406 L 101.382,78.9021 L 101.251,78.8544
 L 101.123,78.7976 L 101,78.732 L 100.882,78.6581 L 100.769,78.576 L 100.662,78.4863 L 100.561,78.3893
 L 100.468,78.2856 L 100.382,78.1756 L 100.304,78.0598 L 100.234,77.9389 L 100.173,77.8135 L 100.121,77.684
 L 100.077,77.5513 L 100.044,77.4158 L 100.019,77.2783 L 100.005,77.1395 L 100,77 L 100.005,76.8605
 L 100.019,76.7216 L 100.044,76.5842 L 100.077,76.4487 L 100.121,76.3159 L 100.173,76.1865 L 100.234,76.0611
 L 100.304,75.9402 L 100.382,75.8244 L 100.468,75.7144 L 100.561,75.6107 L 100.662,75.5137 L 100.769,75.424
 L 100.882,75.3419 L 101,75.2679 L 101.123,75.2024 L 101.251,75.1456 L 101.382,75.0979 L 101.516,75.0594
 L 101.653,75.0304 L 101.791,75.011 L 101.93,75.0012 L 102.07,75.0012 L 102.209,75.011 L 102.347,75.0304
 L 102.484,75.0594 L 102.618,75.0979 L 102.749,75.1456 L 102.877,75.2024 L 103,75.2679 L 103.118,75.3419
 L 103.231,75.424 L 103.338,75.5137 L 103.439,75.6107 L 103.532,75.7144 L 103.618,75.8244 L 103.696,75.9402
 L 103.766,76.0611 L 103.827,76.1865 L 103.879,76.3159 L 103.923,76.4487 L 103.956,76.5842 L 103.981,76.7216
 L 103.995,76.8605 L 104,77 L 103.995,77.1395 L 103.981,77.2783 L 103.956,77.4158 L 103.923,77.5513
 L 103.879,77.684 L 103.827,77.8135 L 103.766,77.9389 L 103.696,78.0598 L 103.618,78.1756 L 103.532,78.2856
 L 103.439,78.3893 L 103.338,78.4863 L 103.231,78.576 L 103.118,78.6581 L 103,78.732 L 102.877,78.7976
 L 102.749,78.8544 L 102.618,78.9021 L 102.484,78.9406 L 102.347,78.9696 L 102.209,78.989 L 102.07,78.9988
 z
M -77.0698,103.999 L -77.209,103.989 L -77.3473,103.97 L -77.4838,103.941 L -77.618,103.902 L -77.7492,103.854
 L -77.8767,103.798 L -78,103.732 L -78.1184,103.658 L -78.2313,103.576 L -78.3383,103.486 L -78.4387,103.389
 L -78.5321,103.286 L -78.618,103.176 L -78.6961,103.06 L -78.7659,102.939 L -78.8271,102.813 L -78.8794,102.684
 L -78.9225,102.551 L -78.9563,102.416 L -78.9805,102.278 L -78.9951,102.14 L -79,102 L -78.9951,101.86
 L -78.9805,101.722 L -78.9563,101.584 L -78.9225,101.449 L -78.8794,101.316 L -78.8271,101.187 L -78.7659,101.061
 L -78.6961,100.94 L -78.618,100.824 L -78.5321,100.714 L -78.4387,100.611 L -78.3383,100.514 L -78.2313,100.424
 L -78.1184,100.342 L -78,100.268 L -77.8767,100.202 L -77.7492,100.146 L -77.618,100.098 L -77.4838,100.059
 L -77.3473,100.03 L -77.209,100.011 L -77.0698,100.001 L -76.9302,100.001 L -76.7909,100.011 L -76.6527,100.03
 L -76.5161,100.059 L -76.382,100.098 L -76.2508,100.146 L -76.1232,100.202 L -76,100.268 L -75.8816,100.342
 L -75.7687,100.424 L -75.6617,100.514 L -75.5613,100.611 L -75.4679,100.714 L -75.382,100.824 L -75.3039,100.94
 L -75.2341,101.061 L -75.1729,101.187 L -75.1206,101.316 L -75.0775,101.449 L -75.0437,101.584 L -75.0195,101.722
 L -75.0049,101.86 L -75,102 L -75.0049,102.14 L -75.0195,102.278 L -75.0437,102.416 L -75.0775,102.551
 L -75.1206,102.684 L -75.1729,102.813 L -75.2341,102.939 L -75.3039,103.06 L -75.382,103.176 L -75.4679,103.286
 L -75.5613,103.389 L -75.6617,103.486 L -75.7687,103.576 L -75.8816,103.658 L -76,103.732 L -76.1232,103.798
 L -76.2508,103.854 L -76.382,103.902 L -76.5161,103.941 L -76.6527,103.97 L -76.7909,103.989 L -76.9302,103.999
 z
M 76.9302,103.999 L 76.7909,103.989 L 76.6527,103.97 L 76.5161,103.941 L 76.382,103.902 L 76.2508,103.854
 L 76.1232,103.798 L 76,103.732 L 75.8816,103.658 L 75.7687,103.576 L 75.6617,103.486 L 75.5613,103.389
 L 75.4679,103.286 L 75.382,103.176 L 75.3039,103.06 L 75.2341,102.939 L 75.1729,102.813 L 75.1206,102.684
 L 75.0775,102.551 L 75.0437,102.416 L 75.0195,102.278 L 75.0049,102.14 L 75,102 L 75.0049,101.86
 L 75.0195,101.722 L 75.0437,101.584 L 75.0775,101.449 L 75.1206,101.316 L 75.1729,101.187 L 75.2341,101.061
 L 75.3039,100.94 L 75.382,100.824 L 75.4679,100.714 L 75.5613,100.611 L 75.6617,100.514 L 75.7687,100.424
 L 75.8816,100.342 L 76,100.268 L 76.1232,100.202 L 76.2508,100.146 L 76.382,100.098 L 76.5161,100.059
 L 76.6527,100.03 L 76.7909,100.011 L 76.9302,100.001 L 77.0698,100.001 L 77.209,100.011 L 77.3473,100.03
 L 77.4838,100.059 L 77.618,100.098 L 77.7492,100.146 L 77.8767,100.202 L 78,100.268 L 78.1184,100.342
 L 78.2313,100.424 L 78.3383,100.514 L 78.4387,100.611 L 78.5321,100.714 L 78.618,100.824 L 78.6961,100.94
 L 78.7659,101.061 L 78.8271,101.187 L 78.8794,101.316 L 78.9225,101.449 L 78.9563,101.584 L 78.9805,101.722
 L 78.9951,101.86 L 79,102 L 78.9951,102.14 L 78.9805,102.278 L 78.9563,102.416 L 78.9225,102.551
 L 78.8794,102.684 L 78.8271,102.813 L 78.7659,102.939 L 78.6961,103.06 L 78.618,103.176 L 78.5321,103.286
 L 78.4387,103.389 L 78.3383,103.486 L 78.2313,103.576 L 78.1184,103.658 L 78,103.732 L 77.8767,103.798
 L 77.7492,103.854 L 77.618,103.902 L 77.4838,103.941 L 77.3473,103.97 L 77.209,103.989 L 77.0698,103.999
 z
M -104.552,105.999 L -104.657,105.992 L -104.76,105.977 L -104.863,105.955 L -104.964,105.927 L -105.062,105.891
 L -105.158,105.848 L -105.25,105.799 L -105.339,105.744 L -105.423,105.682 L -105.504,105.615 L -105.579,105.542
 L -105.649,105.464 L -105.714,105.382 L -105.772,105.295 L -105.824,105.204 L -105.87,105.11 L -105.91,105.013
 L -105.942,104.913 L -105.967,104.812 L -105.985,104.709 L -105.996,104.605 L -106,104.5 L -105.996,104.395
 L -105.985,104.291 L -105.967,104.188 L -105.942,104.087 L -105.91,103.987 L -105.87,103.89 L -105.824,103.796
 L -105.772,103.705 L -105.714,103.618 L -105.649,103.536 L -105.579,103.458 L -105.504,103.385 L -105.423,103.318
 L -105.339,103.256 L -105.25,103.201 L -105.158,103.152 L -105.062,103.109 L -104.964,103.073 L -104.863,103.045
 L -104.76,103.023 L -104.657,103.008 L -104.552,103.001 L -104.448,103.001 L -104.343,103.008 L -104.24,103.023
 L -104.137,103.045 L -104.036,103.073 L -103.938,103.109 L -103.842,103.152 L -103.75,103.201 L -103.661,103.256
 L -103.577,103.318 L -103.496,103.385 L -103.421,103.458 L -103.351,103.536 L -103.286,103.618 L -103.228,103.705
 L -103.176,103.796 L -103.13,103.89 L -103.09,103.987 L -103.058,104.087 L -103.033,104.188 L -103.015,104.291
 L -103.004,104.395 L -103,104.5 L -103.004,104.605 L -103.015,104.709 L -103.033,104.812 L -103.058,104.913
 L -103.09,105.013 L -103.13,105.11 L -103.176,105.204 L -103.228,105.295 L -103.286,105.382 L -103.351,105.464
 L -103.421,105.542 L -103.496,105.615 L -103.577,105.682 L -103.661,105.744 L -103.75,105.799 L -103.842,105.848
 L -103.938,105.891 L -104.036,105.927 L -104.137,105.955 L -104.24,105.977 L -104.343,105.992 L -104.448,105.999
 z
M 104.448,105.999 L 104.343,105.992 L 104.24,105.977 L 104.137,105.955 L 104.036,105.927 L 103.938,105.891
 L 103.842,105.848 L 103.75,105.799 L 103.661,105.744 L 103.577,105.682 L 103.496,105.615 L 103.421,105.542
 L 103.351,105.464 L 103.286,105.382 L 103.228,105.295 L 103.176,105.204 L 103.13,105.11 L 103.09,105.013
 L 103.058,104.913 L 103.033,104.812 L 103.015,104.709 L 103.004,104.605 L 103,104.5 L 103.004,104.395
 L 103.015,104.291 L 103.033,104.188 L 103.058,104.087 L 103.09,103.987 L 103.13,103.89 L 103.176,103.796
 L 103.228,103.705 L 103.286,103.618 L 103.351,103.536 L 103.421,103.458 L 103.496,103.385 L 103.577,103.318
 L 103.661,103.256 L 103.75,103.201 L 103.842,103.152 L 103.938,103.109 L 104.036,103.073 L 104.137,103.045
 L 104.24,103.023 L 104.343,103.008 L 104.448,103.001 L 104.552,103.001 L 104.657,103.008 L 104.76,103.023
 L 104.863,103.045 L 104.964,103.073 L 105.062,103.109 L 105.158,103.152 L 105.25,103.201 L 105.339,103.256
 L 105.423,103.318 L 105.504,103.385 L 105.579,103.458 L 105.649,103.536 L 105.714,103.618 L 105.772,103.705
 L 105.824,103.796 L 105.87,103.89 L 105.91,103.987 L 105.942,104.087 L 105.967,104.188 L 105.985,104.291
 L 105.996,104.395 L 106,104.5 L 105.996,104.605 L 105.985,104.709 L 105.967,104.812 L 105.942,104.913
 L 105.91,105.013 L 105.87,105.11 L 105.824,105.204 L 105.772,105.295 L 105.714,105.382 L 105.649,105.464
 L 105.579,105.542 L 105.504,105.615 L 105.423,105.682 L 105.339,105.744 L 105.25,105.799 L 105.158,105.848
 L 105.062,105.891 L 104.964,105.927 L 104.863,105.955 L 104.76,105.977 L 104.657,105.992 L 104.552,105.999
 z
" stroke="black" fill="lightgray" stroke-width="0.5"/></svg>
