<?xml version="1.0" standalone="no"?>
<!DOCTYPE svg PUBLIC "-//W3C//DTD SVG 1.1//EN" "http://www.w3.org/Graphics/SVG/1.1/DTD/svg11.dtd">
<svg width="296" height="214" viewBox="-148 -107 296 214" xmlns="http://www.w3.org/2000/svg" version="1.1">
<title>OpenSCAD Model</title>
<path d="
M 107,57.9827 L 148,16.9827 L 148,-16.9827 L 107,-57.9827 L 107,-107 L -107,-107
 L -107,-57.9827 L -148,-16.9827 L -148,16.9827 L -107,57.9827 L -107,107 L 107,107
 z
M 104.448,-103.001 L 104.343,-103.008 L 104.24,-103.023 L 104.137,-103.045 L 104.036,-103.073 L 103.938,-103.109
 L 103.842,-103.152 L 103.75,-103.201 L 103.661,-103.256 L 103.577,-103.318 L 103.496,-103.385 L 103.421,-103.458
 L 103.351,-103.536 L 103.286,-103.618 L 103.228,-103.705 L 103.176,-103.796 L 103.13,-103.89 L 103.09,-103.987
 L 103.058,-104.087 L 103.033,-104.188 L 103.015,-104.291 L 103.004,-104.395 L 103,-104.5 L 103.004,-104.605
 L 103.015,-104.709 L 103.033,-104.812 L 103.058,-104.913 L 103.09,-105.013 L 103.13,-105.11 L 103.176,-105.204
 L 103.228,-105.295 L 103.286,-105.382 L 103.351,-105.464 L 103.421,-105.542 L 103.496,-105.615 L 103.577,-105.682
 L 103.661,-105.744 L 103.75,-105.799 L 103.842,-105.848 L 103.938,-105.891 L 104.036,-105.927 L 104.137,-105.955
 L 104.24,-105.977 L 104.343,-105.992 L 104.448,-105.999 L 104.552,-105.999 L 104.657,-105.992 L 104.76,-105.977
 L 104.863,-105.955 L 104.964,-105.927 L 105.062,-105.891 L 105.158,-105.848 L 105.25,-105.799 L 105.339,-105.744
 L 105.423,-105.682 L 105.504,-105.615 L 105.579,-105.542 L 105.649,-105.464 L 105.714,-105.382 L 105.772,-105.295
 L 105.824,-105.204 L 105.87,-105.11 L 105.91,-105.013 L 105.942,-104.913 L 105.967,-104.812 L 105.985,-104.709
 L 105.996,-104.605 L 106,-104.5 L 105.996,-104.395 L 105.985,-104.291 L 105.967,-104.188 L 105.942,-104.087
 L 105.91,-103.987 L 105.87,-103.89 L 105.824,-103.796 L 105.772,-103.705 L 105.714,-103.618 L 105.649,-103.536
 L 105.579,-103.458 L 105.504,-103.385 L 105.423,-103.318 L 105.339,-103.256 L 105.25,-103.201 L 105.158,-103.152
 L 105.062,-103.109 L 104.964,-103.073 L 104.863,-103.045 L 104.76,-103.023 L 104.657,-103.008 L 104.552,-103.001
 z
M -104.552,-103.001 L -104.657,-103.008 L -104.76,-103.023 L -104.863,-103.045 L -104.964,-103.073 L -105.062,-103.109
 L -105.158,-103.152 L -105.25,-103.201 L -105.339,-103.256 L -105.423,-103.318 L -105.504,-103.385 L -105.579,-103.458
 L -105.649,-103.536 L -105.714,-103.618 L -105.772,-103.705 L -105.824,-103.796 L -105.87,-103.89 L -105.91,-103.987
 L -105.942,-104.087 L -105.967,-104.188 L -105.985,-104.291 L -105.996,-104.395 L -106,-104.5 L -105.996,-104.605
 L -105.985,-104.709 L -105.967,-104.812 L -105.942,-104.913 L -105.91,-105.013 L -105.87,-105.11 L -105.824,-105.204
 L -105.772,-105.295 L -105.714,-105.382 L -105.649,-105.464 L -105.579,-105.542 L -105.504,-105.615 L -105.423,-105.682
 L -105.339,-105.744 L -105.25,-105.799 L -105.158,-105.848 L -105.062,-105.891 L -104.964,-105.927 L -104.863,-105.955
 L -104.76,-105.977 L -104.657,-105.992 L -104.552,-105.999 L -104.448,-105.999 L -104.343,-105.992 L -104.24,-105.977
 L -104.137,-105.955 L -104.036,-105.927 L -103.938,-105.891 L -103.842,-105.848 L -103.75,-105.799 L -103.661,-105.744
 L -103.577,-105.682 L -103.496,-105.615 L -103.421,-105.542 L -103.351,-105.464 L -103.286,-105.382 L -103.228,-105.295
 L -103.176,-105.204 L -103.13,-105.11 L -103.09,-105.013 L -103.058,-104.913 L -103.033,-104.812 L -103.015,-104.709
 L -103.004,-104.605 L -103,-104.5 L -103.004,-104.395 L -103.015,-104.291 L -103.033,-104.188 L -103.058,-104.087
 L -103.09,-103.987 L -103.13,-103.89 L -103.176,-103.796 L -103.228,-103.705 L -103.286,-103.618 L -103.351,-103.536
 L -103.421,-103.458 L -103.496,-103.385 L -103.577,-103.318 L -103.661,-103.256 L -103.75,-103.201 L -103.842,-103.152
 L -103.938,-103.109 L -104.036,-103.073 L -104.137,-103.045 L -104.24,-103.023 L -104.343,-103.008 L -104.448,-103.001
 z
M -0.0523376,-103.001 L -0.156784,-103.008 L -0.260468,-103.023 L -0.362869,-103.045 L -0.463516,-103.073 L -0.561905,-103.109
 L -0.657547,-103.152 L -0.75,-103.201 L -0.838776,-103.256 L -0.923477,-103.318 L -1.00369,-103.385 L -1.07899,-103.458
 L -1.14906,-103.536 L -1.21352,-103.618 L -1.27206,-103.705 L -1.32442,-103.796 L -1.37032,-103.89 L -1.40953,-103.987
 L -1.44188,-104.087 L -1.46721,-104.188 L -1.4854,-104.291 L -1.49634,-104.395 L -1.5,-104.5 L -1.49634,-104.605
 L -1.4854,-104.709 L -1.46721,-104.812 L -1.44188,-104.913 L -1.40953,-105.013 L -1.37032,-105.11 L -1.32442,-105.204
 L -1.27206,-105.295 L -1.21352,-105.382 L -1.14906,-105.464 L -1.07899,-105.542 L -1.00369,-105.615 L -0.923477,-105.682
 L -0.838776,-105.744 L -0.749985,-105.799 L -0.657547,-105.848 L -0.561905,-105.891 L -0.463516,-105.927 L -0.362869,-105.955
 L -0.260468,-105.977 L -0.156784,-105.992 L -0.0523376,-105.999 L 0.0523376,-105.999 L 0.156784,-105.992 L 0.260468,-105.977
 L 0.362869,-105.955 L 0.463516,-105.927 L 0.561905,-105.891 L 0.657547,-105.848 L 0.75,-105.799 L 0.838776,-105.744
 L 0.923477,-105.682 L 1.00369,-105.615 L 1.07899,-105.542 L 1.14906,-105.464 L 1.21352,-105.382 L 1.27206,-105.295
 L 1.32442,-105.204 L 1.37032,-105.11 L 1.40953,-105.013 L 1.44188,-104.913 L 1.46721,-104.812 L 1.4854,-104.709
 L 1.49634,-104.605 L 1.5,-104.5 L 1.49634,-104.395 L 1.4854,-104.291 L 1.46721,-104.188 L 1.44188,-104.087
 L 1.40953,-103.987 L 1.37032,-103.89 L 1.32442,-103.796 L 1.27206,-103.705 L 1.21352,-103.618 L 1.14906,-103.536
 L 1.07899,-103.458 L 1.00369,-103.385 L 0.923477,-103.318 L 0.838776,-103.256 L 0.75,-103.201 L 0.657547,-103.152
 L 0.561905,-103.109 L 0.463516,-103.073 L 0.362869,-103.045 L 0.260468,-103.023 L 0.156784,-103.008 L 0.0523376,-103.001
 z
M 76.9302,-100.001 L 76.7909,-100.011 L 76.6527,-100.03 L 76.5161,-100.059 L 76.382,-100.098 L 76.2508,-100.146
 L 76.1232,-100.202 L 76,-100.268 L 75.8816,-100.342 L 75.7687,-100.424 L 75.6617,-100.514 L 75.5613,-100.611
 L 75.4679,-100.714 L 75.382,-100.824 L 75.3039,-100.94 L 75.2341,-101.061 L 75.1729,-101.187 L 75.1206,-101.316
 L 75.0775,-101.449 L 75.0437,-101.584 L 75.0195,-101.722 L 75.0049,-101.86 L 75,-102 L 75.0049,-102.14
 L 75.0195,-102.278 L 75.0437,-102.416 L 75.0775,-102.551 L 75.1206,-102.684 L 75.1729,-102.813 L 75.2341,-102.939
 L 75.3039,-103.06 L 75.382,-103.176 L 75.4679,-103.286 L 75.5613,-103.389 L 75.6617,-103.486 L 75.7687,-103.576
 L 75.8816,-103.658 L 76,-103.732 L 76.1232,-103.798 L 76.2508,-103.854 L 76.382,-103.902 L 76.5161,-103.941
 L 76.6527,-103.97 L 76.7909,-103.989 L 76.9302,-103.999 L 77.0698,-103.999 L 77.209,-103.989 L 77.3473,-103.97
 L 77.4838,-103.941 L 77.618,-103.902 L 77.7492,-103.854 L 77.8767,-103.798 L 78,-103.732 L 78.1184,-103.658
 L 78.2313,-103.576 L 78.3383,-103.486 L 78.4387,-103.389 L 78.5321,-103.286 L 78.618,-103.176 L 78.6961,-103.06
 L 78.7659,-102.939 L 78.8271,-102.813 L 78.8794,-102.684 L 78.9225,-102.551 L 78.9563,-102.416 L 78.9805,-102.278
 L 78.9951,-102.14 L 79,-102 L 78.9951,-101.86 L 78.9805,-101.722 L 78.9563,-101.584 L 78.9225,-101.449
 L 78.8794,-101.316 L 78.8271,-101.187 L 78.7659,-101.061 L 78.6961,-100.94 L 78.618,-100.824 L 78.5321,-100.714
 L 78.4387,-100.611 L 78.3383,-100.514 L 78.2313,-100.424 L 78.1184,-100.342 L 78,-100.268 L 77.8767,-100.202
 L 77.7492,-100.146 L 77.618,-100.098 L 77.4838,-100.059 L 77.3473,-100.03 L 77.209,-100.011 L 77.0698,-100.001
 z
M -77.0698,-100.001 L -77.209,-100.011 L -77.3473,-100.03 L -77.4838,-100.059 L -77.618,-100.098 L -77.7492,-100.146
 L -77.8767,-100.202 L -78,-100.268 L -78.1184,-100.342 L -78.2313,-100.424 L -78.3383,-100.514 L -78.4387,-100.611
 L -78.5321,-100.714 L -78.618,-100.824 L -78.6961,-100.94 L -78.7659,-101.061 L -78.8271,-101.187 L -78.8794,-101.316
 L -78.9225,-101.449 L -78.9563,-101.584 L -78.9805,-101.722 L -78.9951,-101.86 L -79,-102 L -78.9951,-102.14
 L -78.9805,-102.278 L -78.9563,-102.416 L -78.9225,-102.551 L -78.8794,-102.684 L -78.8271,-102.813 L -78.7659,-102.939
 L -78.6961,-103.06 L -78.618,-103.176 L -78.5321,-103.286 L -78.4387,-103.389 L -78.3383,-103.486 L -78.2313,-103.576
 L -78.1184,-103.658 L -78,-103.732 L -77.8767,-103.798 L -77.7492,-103.854 L -77.618,-103.902 L -77.4838,-103.941
 L -77.3473,-103.97 L -77.209,-103.989 L -77.0698,-103.999 L -76.9302,-103.999 L -76.7909,-103.989 L -76.6527,-103.97
 L -76.5161,-103.941 L -76.382,-103.902 L -76.2508,-103.854 L -76.1232,-103.798 L -76,-103.732 L -75.8816,-103.658
 L -75.7687,-103.576 L -75.6617,-103.486 L -75.5613,-103.389 L -75.4679,-103.286 L -75.382,-103.176 L -75.3039,-103.06
 L -75.2341,-102.939 L -75.1729,-102.813 L -75.1206,-102.684 L -75.0775,-102.551 L -75.0437,-102.416 L -75.0195,-102.278
 L -75.0049,-102.14 L -75,-102 L -75.0049,-101.86 L -75.0195,-101.722 L -75.0437,-101.584 L -75.0775,-101.449
 L -75.1206,-101.316 L -75.1729,-101.187 L -75.2341,-101.061 L -75.3039,-100.94 L -75.382,-100.824 L -75.4679,-100.714
 L -75.5613,-100.611 L -75.6617,-100.514 L -75.7687,-100.424 L -75.8816,-100.342 L -76,-100.268 L -76.1232,-100.202
 L -76.2508,-100.146 L -76.382,-100.098 L -76.5161,-100.059 L -76.6527,-100.03 L -76.7909,-100.011 L -76.9302,-100.001
 z
M 101.93,-75.0012 L 101.791,-75.011 L 101.653,-75.0304 L 101.516,-75.0594 L 101.382,-75.0979 L 101.251,-75.1456
 L 101.123,-75.2024 L 101,-75.2679 L 100.882,-75.3419 L 100.769,-75.424 L 100.662,-75.5137 L 100.561,-75.6107
 L 100.468,-75.7144 L 100.382,-75.8244 L 100.304,-75.9402 L 100.234,-76.0611 L 100.173,-76.1865 L 100.121,-76.3159
 L 100.077,-76.4487 L 100.044,-76.5842 L 100.019,-76.7216 L 100.005,-76.8605 L 100,-77 L 100.005,-77.1395
 L 100.019,-77.2783 L 100.044,-77.4158 L 100.077,-77.5513 L 100.121,-77.684 L 100.173,-77.8135 L 100.234,-77.9389
 L 100.304,-78.0598 L 100.382,-78.1756 L 100.468,-78.2856 L 100.561,-78.3893 L 100.662,-78.4863 L 100.769,-78.576
 L 100.882,-78.6581 L 101,-78.732 L 101.123,-78.7976 L 101.251,-78.8544 L 101.382,-78.9021 L 101.516,-78.9406
 L 101.653,-78.9696 L 101.791,-78.989 L 101.93,-78.9988 L 102.07,-78.9988 L 102.209,-78.989 L 102.347,-78.9696
 L 102.484,-78.9406 L 102.618,-78.9021 L 102.749,-78.8544 L 102.877,-78.7976 L 103,-78.732 L 103.118,-78.6581
 L 103.231,-78.576 L 103.338,-78.4863 L 103.439,-78.3893 L 103.532,-78.2856 L 103.618,-78.1756 L 103.696,-78.0598
 L 103.766,-77.9389 L 103.827,-77.8135 L 103.879,-77.684 L 103.923,-77.5513 L 103.956,-77.4158 L 103.981,-77.2783
 L 103.995,-77.1395 L 104,-77 L 103.995,-76.8605 L 103.981,-76.7216 L 103.956,-76.5842 L 103.923,-76.4487
 L 103.879,-76.3159 L 103.827,-76.1865 L 103.766,-76.0611 L 103.696,-75.9402 L 103.618,-75.8244 L 103.532,-75.7144
 L 103.439,-75.6107 L 103.338,-75.5137 L 103.231,-75.424 L 103.118,-75.3419 L 103,-75.2679 L 102.877,-75.2024
 L 102.749,-75.1456 L 102.618,-75.0979 L 102.484,-75.0594 L 102.347,-75.0304 L 102.209,-75.011 L 102.07,-75.0012
 z
M -102.07,-75.0012 L -102.209,-75.011 L -102.347,-75.0304 L -102.484,-75.0594 L -102.618,-75.0979 L -102.749,-75.1456
 L -102.877,-75.2024 L -103,-75.2679 L -103.118,-75.3419 L -103.231,-75.424 L -103.338,-75.5137 L -103.439,-75.6107
 L -103.532,-75.7144 L -103.618,-75.8244 L -103.696,-75.9402 L -103.766,-76.0611 L -103.827,-76.1865 L -103.879,-76.3159
 L -103.923,-76.4487 L -103.956,-76.5842 L -103.981,-76.7216 L -103.995,-76.8605 L -104,-77 L -103.995,-77.1395
 L -103.981,-77.2783 L -103.956,-77.4158 L -103.923,-77.5513 L -103.879,-77.684 L -103.827,-77.8135 L -103.766,-77.9389
 L -103.696,-78.0598 L -103.618,-78.1756 L -103.532,-78.2856 L -103.439,-78.3893 L -103.338,-78.4863 L -103.231,-78.576
 L -103.118,-78.6581 L -103,-78.732 L -102.877,-78.7976 L -102.749,-78.8544 L -102.618,-78.9021 L -102.484,-78.9406
 L -102.347,-78.9696 L -102.209,-78.989 L -102.07,-78.9988 L -101.93,-78.9988 L -101.791,-78.989 L -101.653,-78.9696
 L -101.516,-78.9406 L -101.382,-78.9021 L -101.251,-78.8544 L -101.123,-78.7976 L -101,-78.732 L -100.882,-78.6581
 L -100.769,-78.576 L -100.662,-78.4863 L -100.561,-78.3893 L -100.468,-78.2856 L -100.382,-78.1756 L -100.304,-78.0598
 L -100.234,-77.9389 L -100.173,-77.8135 L -100.121,-77.684 L -100.077,-77.5513 L -100.044,-77.4158 L -100.019,-77.2783
 L -100.005,-77.1395 L -100,-77 L -100.005,-76.8605 L -100.019,-76.7216 L -100.044,-76.5842 L -100.077,-76.4487
 L -100.121,-76.3159 L -100.173,-76.1865 L -100.234,-76.0611 L -100.304,-75.9402 L -100.382,-75.8244 L -100.468,-75.7144
 L -100.561,-75.6107 L -100.662,-75.5137 L -100.769,-75.424 L -100.882,-75.3419 L -101,-75.2679 L -101.123,-75.2024
 L -101.251,-75.1456 L -101.382,-75.0979 L -101.516,-75.0594 L -101.653,-75.0304 L -101.791,-75.011 L -101.93,-75.0012
 z
M -138.554,-8.2618 L -138.742,-8.27493 L -138.929,-8.30116 L -139.113,-8.34035 L -139.294,-8.39229 L -139.472,-8.45676
 L -139.644,-8.5334 L -139.81,-8.62187 L -139.97,-8.72174 L -140.122,-8.83252 L -140.267,-8.95366 L -140.402,-9.08456
 L -140.528,-9.22462 L -140.645,-9.37312 L -140.75,-9.52936 L -140.844,-9.69258 L -140.927,-9.86195 L -140.997,-10.0367
 L -141.056,-10.2159 L -141.101,-10.3988 L -141.134,-10.5844 L -141.154,-10.7718 L -141.16,-10.9601 L -141.154,-11.1485
 L -141.134,-11.3359 L -141.101,-11.5215 L -141.056,-11.7044 L -140.997,-11.8836 L -140.927,-12.0583 L -140.844,-12.2277
 L -140.75,-12.3909 L -140.645,-12.5472 L -140.528,-12.6957 L -140.402,-12.8357 L -140.267,-12.9666 L -140.122,-13.0878
 L -139.97,-13.1985 L -139.81,-13.2984 L -139.644,-13.3869 L -139.472,-13.4635 L -139.294,-13.528 L -139.113,-13.5799
 L -138.929,-13.6191 L -138.742,-13.6454 L -138.554,-13.6585 L -138.366,-13.6585 L -138.178,-13.6454 L -137.991,-13.6191
 L -137.807,-13.5799 L -137.626,-13.528 L -137.449,-13.4635 L -137.277,-13.3869 L -137.11,-13.2984 L -136.95,-13.1985
 L -136.798,-13.0878 L -136.653,-12.9666 L -136.518,-12.8357 L -136.392,-12.6957 L -136.276,-12.5472 L -136.17,-12.3909
 L -136.076,-12.2277 L -135.994,-12.0583 L -135.923,-11.8836 L -135.865,-11.7044 L -135.819,-11.5215 L -135.786,-11.3359
 L -135.767,-11.1485 L -135.76,-10.9601 L -135.767,-10.7718 L -135.786,-10.5844 L -135.819,-10.3988 L -135.865,-10.2159
 L -135.923,-10.0367 L -135.994,-9.86195 L -136.076,-9.69258 L -136.17,-9.52936 L -136.276,-9.37312 L -136.392,-9.22462
 L -136.518,-9.08456 L -136.653,-8.95366 L -136.798,-8.83252 L -136.95,-8.72174 L -137.11,-8.62187 L -137.277,-8.5334
 L -137.449,-8.45676 L -137.626,-8.39229 L -137.807,-8.34035 L -137.991,-8.30116 L -138.178,-8.27493 L -138.366,-8.2618
 z
M -116.634,-8.2618 L -116.822,-8.27493 L -117.009,-8.30116 L -117.193,-8.34035 L -117.374,-8.39229 L -117.551,-8.45676
 L -117.723,-8.5334 L -117.89,-8.62187 L -118.05,-8.72174 L -118.202,-8.83252 L -118.346,-8.95366 L -118.482,-9.08456
 L -118.608,-9.22462 L -118.724,-9.37312 L -118.83,-9.52936 L -118.924,-9.69258 L -119.006,-9.86195 L -119.077,-10.0367
 L -119.135,-10.2159 L -119.181,-10.3988 L -119.214,-10.5844 L -119.233,-10.7718 L -119.24,-10.9601 L -119.233,-11.1485
 L -119.214,-11.3359 L -119.181,-11.5215 L -119.135,-11.7044 L -119.077,-11.8836 L -119.006,-12.0583 L -118.924,-12.2277
 L -118.83,-12.3909 L -118.724,-12.5472 L -118.608,-12.6957 L -118.482,-12.8357 L -118.346,-12.9666 L -118.202,-13.0878
 L -118.05,-13.1985 L -117.89,-13.2984 L -117.723,-13.3869 L -117.551,-13.4635 L -117.374,-13.528 L -117.193,-13.5799
 L -117.009,-13.6191 L -116.822,-13.6454 L -116.634,-13.6585 L -116.446,-13.6585 L -116.258,-13.6454 L -116.071,-13.6191
 L -115.887,-13.5799 L -115.705,-13.528 L -115.528,-13.4635 L -115.356,-13.3869 L -115.19,-13.2984 L -115.03,-13.1985
 L -114.878,-13.0878 L -114.733,-12.9666 L -114.598,-12.8357 L -114.472,-12.6957 L -114.355,-12.5472 L -114.25,-12.3909
 L -114.156,-12.2277 L -114.073,-12.0583 L -114.003,-11.8836 L -113.944,-11.7044 L -113.899,-11.5215 L -113.866,-11.3359
 L -113.846,-11.1485 L -113.84,-10.9601 L -113.846,-10.7718 L -113.866,-10.5844 L -113.899,-10.3988 L -113.944,-10.2159
 L -114.003,-10.0367 L -114.073,-9.86195 L -114.156,-9.69258 L -114.25,-9.52936 L -114.355,-9.37312 L -114.472,-9.22462
 L -114.598,-9.08456 L -114.733,-8.95366 L -114.878,-8.83252 L -115.03,-8.72174 L -115.19,-8.62187 L -115.356,-8.5334
 L -115.528,-8.45676 L -115.705,-8.39229 L -115.887,-8.34035 L -116.071,-8.30116 L -116.258,-8.27493 L -116.446,-8.2618
 z
M 138.366,-8.2618 L 138.178,-8.27493 L 137.991,-8.30116 L 137.807,-8.34035 L 137.626,-8.39229 L 137.449,-8.45676
 L 137.277,-8.5334 L 137.11,-8.62187 L 136.95,-8.72174 L 136.798,-8.83252 L 136.653,-8.95366 L 136.518,-9.08456
 L 136.392,-9.22462 L 136.276,-9.37312 L 136.17,-9.52936 L 136.076,-9.69258 L 135.994,-9.86195 L 135.923,-10.0367
 L 135.865,-10.2159 L 135.819,-10.3988 L 135.786,-10.5844 L 135.767,-10.7718 L 135.76,-10.9601 L 135.767,-11.1485
 L 135.786,-11.3359 L 135.819,-11.5215 L 135.865,-11.7044 L 135.923,-11.8836 L 135.994,-12.0583 L 136.076,-12.2277
 L 136.17,-12.3909 L 136.276,-12.5472 L 136.392,-12.6957 L 136.518,-12.8357 L 136.653,-12.9666 L 136.798,-13.0878
 L 136.95,-13.1985 L 137.11,-13.2984 L 137.277,-13.3869 L 137.449,-13.4635 L 137.626,-13.528 L 137.807,-13.5799
 L 137.991,-13.6191 L 138.178,-13.6454 L 138.366,-13.6585 L 138.554,-13.6585 L 138.742,-13.6454 L 138.929,-13.6191
 L 139.113,-13.5799 L 139.294,-13.528 L 139.472,-13.4635 L 139.644,-13.3869 L 139.81,-13.2984 L 139.97,-13.1985
 L 140.122,-13.0878 L 140.267,-12.9666 L 140.402,-12.8357 L 140.528,-12.6957 L 140.645,-12.5472 L 140.75,-12.3909
 L 140.844,-12.2277 L 140.927,-12.0583 L 140.997,-11.8836 L 141.056,-11.7044 L 141.101,-11.5215 L 141.134,-11.3359
 L 141.154,-11.1485 L 141.16,-10.9601 L 141.154,-10.7718 L 141.134,-10.5844 L 141.101,-10.3988 L 141.056,-10.2159
 L 140.997,-10.0367 L 140.927,-9.86195 L 140.844,-9.69258 L 140.75,-9.52936 L 140.645,-9.37312 L 140.528,-9.22462
 L 140.402,-9.08456 L 140.267,-8.95366 L 140.122,-8.83252 L 139.97,-8.72174 L 139.81,-8.62187 L 139.644,-8.5334
 L 139.472,-8.45676 L 139.294,-8.39229 L 139.113,-8.34035 L 138.929,-8.30116 L 138.742,-8.27493 L 138.554,-8.2618
 z
M 116.446,-8.2618 L 116.258,-8.27493 L 116.071,-8.30116 L 115.887,-8.34035 L 115.705,-8.39229 L 115.528,-8.45676
 L 115.356,-8.5334 L 115.19,-8.62187 L 115.03,-8.72174 L 114.878,-8.83252 L 114.733,-8.95366 L 114.598,-9.08456
 L 114.472,-9.22462 L 114.355,-9.37312 L 114.25,-9.52936 L 114.156,-9.69258 L 114.073,-9.86195 L 114.003,-10.0367
 L 113.944,-10.2159 L 113.899,-10.3988 L 113.866,-10.5844 L 113.846,-10.7718 L 113.84,-10.9601 L 113.846,-11.1485
 L 113.866,-11.3359 L 113.899,-11.5215 L 113.944,-11.7044 L 114.003,-11.8836 L 114.073,-12.0583 L 114.156,-12.2277
 L 114.25,-12.3909 L 114.355,-12.5472 L 114.472,-12.6957 L 114.598,-12.8357 L 114.733,-12.9666 L 114.878,-13.0878
 L 115.03,-13.1985 L 115.19,-13.2984 L 115.356,-13.3869 L 115.528,-13.4635 L 115.705,-13.528 L 115.887,-13.5799
 L 116.071,-13.6191 L 116.258,-13.6454 L 116.446,-13.6585 L 116.634,-13.6585 L 116.822,-13.6454 L 117.009,-13.6191
 L 117.193,-13.5799 L 117.374,-13.528 L 117.551,-13.4635 L 117.723,-13.3869 L 117.89,-13.2984 L 118.05,-13.1985
 L 118.202,-13.0878 L 118.346,-12.9666 L 118.482,-12.8357 L 118.608,-12.6957 L 118.724,-12.5472 L 118.83,-12.3909
 L 118.924,-12.2277 L 119.006,-12.0583 L 119.077,-11.8836 L 119.135,-11.7044 L 119.181,-11.5215 L 119.214,-11.3359
 L 119.233,-11.1485 L 119.24,-10.9601 L 119.233,-10.7718 L 119.214,-10.5844 L 119.181,-10.3988 L 119.135,-10.2159
 L 119.077,-10.0367 L 119.006,-9.86195 L 118.924,-9.69258 L 118.83,-9.52936 L 118.724,-9.37312 L 118.608,-9.22462
 L 118.482,-9.08456 L 118.346,-8.95366 L 118.202,-8.83252 L 118.05,-8.72174 L 117.89,-8.62187 L 117.723,-8.5334
 L 117.551,-8.45676 L 117.374,-8.39229 L 117.193,-8.34035 L 117.009,-8.30116 L 116.822,-8.27493 L 116.634,-8.2618
 z
M 127.221,7.99512 L 126.664,7.95616 L 126.111,7.87845 L 125.565,7.76236 L 125.028,7.60844 L 124.503,7.41747
 L 123.993,7.19034 L 123.5,6.92819 L 123.026,6.63229 L 122.575,6.30408 L 122.147,5.94514 L 121.745,5.55727
 L 121.372,5.14229 L 121.028,4.70227 L 120.716,4.23935 L 120.436,3.75577 L 120.192,3.25389 L 119.982,2.73616
 L 119.81,2.20509 L 119.675,1.66328 L 119.578,1.11337 L 119.519,0.558044 L 119.5,-0 L 119.519,-0.558044
 L 119.578,-1.11337 L 119.675,-1.66328 L 119.81,-2.20509 L 119.982,-2.73616 L 120.192,-3.25389 L 120.436,-3.75577
 L 120.716,-4.23935 L 121.028,-4.70227 L 121.372,-5.14229 L 121.745,-5.55727 L 122.147,-5.94514 L 122.575,-6.30408
 L 123.026,-6.63229 L 123.5,-6.92819 L 123.993,-7.19034 L 124.503,-7.41747 L 125.028,-7.60844 L 125.565,-7.76236
 L 126.111,-7.87845 L 126.664,-7.95616 L 127.221,-7.99512 L 127.779,-7.99512 L 128.336,-7.95616 L 128.889,-7.87845
 L 129.435,-7.76236 L 129.972,-7.60844 L 130.497,-7.41747 L 131.007,-7.19034 L 131.5,-6.92819 L 131.974,-6.63229
 L 132.425,-6.30408 L 132.853,-5.94514 L 133.255,-5.55727 L 133.628,-5.14229 L 133.972,-4.70227 L 134.284,-4.23935
 L 134.564,-3.75577 L 134.808,-3.25389 L 135.018,-2.73616 L 135.19,-2.20509 L 135.325,-1.66328 L 135.422,-1.11337
 L 135.48,-0.558044 L 135.5,-0 L 135.48,0.558044 L 135.422,1.11337 L 135.325,1.66328 L 135.19,2.20509
 L 135.018,2.73616 L 134.808,3.25389 L 134.564,3.75577 L 134.284,4.23935 L 133.972,4.70227 L 133.628,5.14229
 L 133.255,5.55727 L 132.853,5.94514 L 132.425,6.30408 L 131.974,6.63229 L 131.5,6.92819 L 131.007,7.19034
 L 130.497,7.41747 L 129.972,7.60844 L 129.435,7.76236 L 128.889,7.87845 L 128.336,7.95616 L 127.779,7.99512
 z
M -127.779,7.99512 L -128.336,7.95616 L -128.889,7.87845 L -129.435,7.76236 L -129.972,7.60844 L -130.497,7.41747
 L -131.007,7.19034 L -131.5,6.92819 L -131.974,6.63229 L -132.425,6.30408 L -132.853,5.94514 L -133.255,5.55727
 L -133.628,5.14229 L -133.972,4.70227 L -134.284,4.23935 L -134.564,3.75577 L -134.808,3.25389 L -135.018,2.73616
 L -135.19,2.20509 L -135.325,1.66328 L -135.422,1.11337 L -135.48,0.558044 L -135.5,-0 L -135.48,-0.558044
 L -135.422,-1.11337 L -135.325,-1.66328 L -135.19,-2.20509 L -135.018,-2.73616 L -134.808,-3.25389 L -134.564,-3.75577
 L -134.284,-4.23935 L -133.972,-4.70227 L -133.628,-5.14229 L -133.255,-5.55727 L -132.853,-5.94514 L -132.425,-6.30408
 L -131.974,-6.63229 L -131.5,-6.92819 L -131.007,-7.19034 L -130.497,-7.41747 L -129.972,-7.60844 L -129.435,-7.76236
 L -128.889,-7.87845 L -128.336,-7.95616 L -127.779,-7.99512 L -127.221,-7.99512 L -126.664,-7.95616 L -126.111,-7.87845
 L -125.565,-7.76236 L -125.028,-7.60844 L -124.503,-7.41747 L -123.993,-7.19034 L -123.5,-6.92819 L -123.026,-6.63229
 L -122.575,-6.30408 L -122.147,-5.94514 L -121.745,-5.55727 L -121.372,-5.14229 L -121.028,-4.70227 L -120.716,-4.23935
 L -120.436,-3.75577 L -120.192,-3.25389 L -119.982,-2.73616 L -119.81,-2.20509 L -119.675,-1.66328 L -119.578,-1.11337
 L -119.519,-0.558044 L -119.5,-0 L -119.519,0.558044 L -119.578,1.11337 L -119.675,1.66328 L -119.81,2.20509
 L -119.982,2.73616 L -120.192,3.25389 L -120.436,3.75577 L -120.716,4.23935 L -121.028,4.70227 L -121.372,5.14229
 L -121.745,5.55727 L -122.147,5.94514 L -122.575,6.30408 L -123.026,6.63229 L -123.5,6.92819 L -123.993,7.19034
 L -124.503,7.41747 L -125.028,7.60844 L -125.565,7.76236 L -126.111,7.87845 L -126.664,7.95616 L -127.221,7.99512
 z
M 138.366,13.6585 L 138.178,13.6454 L 137.991,13.6191 L 137.807,13.5799 L 137.626,13.528 L 137.449,13.4635
 L 137.277,13.3869 L 137.11,13.2984 L 136.95,13.1985 L 136.798,13.0878 L 136.653,12.9666 L 136.518,12.8357
 L 136.392,12.6957 L 136.276,12.5472 L 136.17,12.3909 L 136.076,12.2277 L 135.994,12.0583 L 135.923,11.8836
 L 135.865,11.7044 L 135.819,11.5215 L 135.786,11.3359 L 135.767,11.1485 L 135.76,10.9601 L 135.767,10.7718
 L 135.786,10.5844 L 135.819,10.3988 L 135.865,10.2159 L 135.923,10.0367 L 135.994,9.86195 L 136.076,9.69258
 L 136.17,9.52936 L 136.276,9.37312 L 136.392,9.22462 L 136.518,9.08456 L 136.653,8.95366 L 136.798,8.83252
 L 136.95,8.72174 L 137.11,8.62187 L 137.277,8.5334 L 137.449,8.45676 L 137.626,8.39229 L 137.807,8.34035
 L 137.991,8.30116 L 138.178,8.27493 L 138.366,8.2618 L 138.554,8.2618 L 138.742,8.27493 L 138.929,8.30116
 L 139.113,8.34035 L 139.294,8.39229 L 139.472,8.45676 L 139.644,8.5334 L 139.81,8.62187 L 139.97,8.72174
 L 140.122,8.83252 L 140.267,8.95366 L 140.402,9.08456 L 140.528,9.22462 L 140.645,9.37312 L 140.75,9.52936
 L 140.844,9.69258 L 140.927,9.86195 L 140.997,10.0367 L 141.056,10.2159 L 141.101,10.3988 L 141.134,10.5844
 L 141.154,10.7718 L 141.16,10.9601 L 141.154,11.1485 L 141.134,11.3359 L 141.101,11.5215 L 141.056,11.7044
 L 140.997,11.8836 L 140.927,12.0583 L 140.844,12.2277 L 140.75,12.3909 L 140.645,12.5472 L 140.528,12.6957
 L 140.402,12.8357 L 140.267,12.9666 L 140.122,13.0878 L 139.97,13.1985 L 139.81,13.2984 L 139.644,13.3869
 L 139.472,13.4635 L 139.294,13.528 L 139.113,13.5799 L 138.929,13.6191 L 138.742,13.6454 L 138.554,13.6585
 z
M -138.554,13.6585 L -138.742,13.6454 L -138.929,13.6191 L -139.113,13.5799 L -139.294,13.528 L -139.472,13.4635
 L -139.644,13.3869 L -139.81,13.2984 L -139.97,13.1985 L -140.122,13.0878 L -140.267,12.9666 L -140.402,12.8357
 L -140.528,12.6957 L -140.645,12.5472 L -140.75,12.3909 L -140.844,12.2277 L -140.927,12.0583 L -140.997,11.8836
 L -141.056,11.7044 L -141.101,11.5215 L -141.134,11.3359 L -141.154,11.1485 L -141.16,10.9601 L -141.154,10.7718
 L -141.134,10.5844 L -141.101,10.3988 L -141.056,10.2159 L -140.997,10.0367 L -140.927,9.86195 L -140.844,9.69258
 L -140.75,9.52936 L -140.645,9.37312 L -140.528,9.22462 L -140.402,9.08456 L -140.267,8.95366 L -140.122,8.83252
 L -139.97,8.72174 L -139.81,8.62187 L -139.644,8.5334 L -139.472,8.45676 L -139.294,8.39229 L -139.113,8.34035
 L -138.929,8.30116 L -138.742,8.27493 L -138.554,8.2618 L -138.366,8.2618 L -138.178,8.27493 L -137.991,8.30116
 L -137.807,8.34035 L -137.626,8.39229 L -137.449,8.45676 L -137.277,8.5334 L -137.11,8.62187 L -136.95,8.72174
 L -136.798,8.83252 L -136.653,8.95366 L -136.518,9.08456 L -136.392,9.22462 L -136.276,9.37312 L -136.17,9.52936
 L -136.076,9.69258 L -135.994,9.86195 L -135.923,10.0367 L -135.865,10.2159 L -135.819,10.3988 L -135.786,10.5844
 L -135.767,10.7718 L -135.76,10.9601 L -135.767,11.1485 L -135.786,11.3359 L -135.819,11.5215 L -135.865,11.7044
 L -135.923,11.8836 L -135.994,12.0583 L -136.076,12.2277 L -136.17,12.3909 L -136.276,12.5472 L -136.392,12.6957
 L -136.518,12.8357 L -136.653,12.9666 L -136.798,13.0878 L -136.95,13.1985 L -137.11,13.2984 L -137.277,13.3869
 L -137.449,13.4635 L -137.626,13.528 L -137.807,13.5799 L -137.991,13.6191 L -138.178,13.6454 L -138.366,13.6585
 z
M 116.446,13.6585 L 116.258,13.6454 L 116.071,13.6191 L 115.887,13.5799 L 115.705,13.528 L 115.528,13.4635
 L 115.356,13.3869 L 115.19,13.2984 L 115.03,13.1985 L 114.878,13.0878 L 114.733,12.9666 L 114.598,12.8357
 L 114.472,12.6957 L 114.355,12.5472 L 114.25,12.3909 L 114.156,12.2277 L 114.073,12.0583 L 114.003,11.8836
 L 113.944,11.7044 L 113.899,11.5215 L 113.866,11.3359 L 113.846,11.1485 L 113.84,10.9601 L 113.846,10.7718
 L 113.866,10.5844 L 113.899,10.3988 L 113.944,10.2159 L 114.003,10.0367 L 114.073,9.86195 L 114.156,9.69258
 L 114.25,9.52936 L 114.355,9.37312 L 114.472,9.22462 L 114.598,9.08456 L 114.733,8.95366 L 114.878,8.83252
 L 115.03,8.72174 L 115.19,8.62187 L 115.356,8.5334 L 115.528,8.45676 L 115.705,8.39229 L 115.887,8.34035
 L 116.071,8.30116 L 116.258,8.27493 L 116.446,8.2618 L 116.634,8.2618 L 116.822,8.27493 L 117.009,8.30116
 L 117.193,8.34035 L 117.374,8.39229 L 117.551,8.45676 L 117.723,8.5334 L 117.89,8.62187 L 118.05,8.72174
 L 118.202,8.83252 L 118.346,8.95366 L 118.482,9.08456 L 118.608,9.22462 L 118.724,9.37312 L 118.83,9.52936
 L 118.924,9.69258 L 119.006,9.86195 L 119.077,10.0367 L 119.135,10.2159 L 119.181,10.3988 L 119.214,10.5844
 L 119.233,10.7718 L 119.24,10.9601 L 119.233,11.1485 L 119.214,11.3359 L 119.181,11.5215 L 119.135,11.7044
 L 119.077,11.8836 L 119.006,12.0583 L 118.924,12.2277 L 118.83,12.3909 L 118.724,12.5472 L 118.608,12.6957
 L 118.482,12.8357 L 118.346,12.9666 L 118.202,13.0878 L 118.05,13.1985 L 117.89,13.2984 L 117.723,13.3869
 L 117.551,13.4635 L 117.374,13.528 L 117.193,13.5799 L 117.009,13.6191 L 116.822,13.6454 L 116.634,13.6585
 z
M -116.634,13.6585 L -116.822,13.6454 L -117.009,13.6191 L -117.193,13.5799 L -117.374,13.528 L -117.551,13.4635
 L -117.723,13.3869 L -117.89,13.2984 L -118.05,13.1985 L -118.202,13.0878 L -118.346,12.9666 L -118.482,12.8357
 L -118.608,12.6957 L -118.724,12.5472 L -118.83,12.3909 L -118.924,12.2277 L -119.006,12.0583 L -119.077,11.8836
 L -119.135,11.7044 L -119.181,11.5215 L -119.214,11.3359 L -119.233,11.1485 L -119.24,10.9601 L -119.233,10.7718
 L -119.214,10.5844 L -119.181,10.3988 L -119.135,10.2159 L -119.077,10.0367 L -119.006,9.86195 L -118.924,9.69258
 L -118.83,9.52936 L -118.724,9.37312 L -118.608,9.22462 L -118.482,9.08456 L -118.346,8.95366 L -118.202,8.83252
 L -118.05,8.72174 L -117.89,8.62187 L -117.723,8.5334 L -117.551,8.45676 L -117.374,8.39229 L -117.193,8.34035
 L -117.009,8.30116 L -116.822,8.27493 L -116.634,8.2618 L -116.446,8.2618 L -116.258,8.27493 L -116.071,8.30116
 L -115.887,8.34035 L -115.705,8.39229 L -115.528,8.45676 L -115.356,8.5334 L -115.19,8.62187 L -115.03,8.72174
 L -114.878,8.83252 L -114.733,8.95366 L -114.598,9.08456 L -114.472,9.22462 L -114.355,9.37312 L -114.25,9.52936
 L -114.156,9.69258 L -114.073,9.86195 L -114.003,10.0367 L -113.944,10.2159 L -113.899,10.3988 L -113.866,10.5844
 L -113.846,10.7718 L -113.84,10.9601 L -113.846,11.1485 L -113.866,11.3359 L -113.899,11.5215 L -113.944,11.7044
 L -114.003,11.8836 L -114.073,12.0583 L -114.156,12.2277 L -114.25,12.3909 L -114.355,12.5472 L -114.472,12.6957
 L -114.598,12.8357 L -114.733,12.9666 L -114.878,13.0878 L -115.03,13.1985 L -115.19,13.2984 L -115.356,13.3869
 L -115.528,13.4635 L -115.705,13.528 L -115.887,13.5799 L -116.071,13.6191 L -116.258,13.6454 L -116.446,13.6585
 z
M -102.07,78.9988 L -102.209,78.989 L -102.347,78.9696 L -102.484,78.9406 L -102.618,78.9021 L -102.749,78.8544
 L -102.877,78.7976 L -103,78.732 L -103.118,78.6581 L -103.231,78.576 L -103.338,78.4863 L -103.439,78.3893
 L -103.532,78.2856 L -103.618,78.1756 L -103.696,78.0598 L -103.766,77.9389 L -103.827,77.8135 L -103.879,77.684
 L -103.923,77.5513 L -103.956,77.4158 L -103.981,77.2783 L -103.995,77.1395 L -104,77 L -103.995,76.8605
 L -103.981,76.7216 L -103.956,76.5842 L -103.923,76.4487 L -103.879,76.3159 L -103.827,76.1865 L -103.766,76.0611
 L -103.696,75.9402 L -103.618,75.8244 L -103.532,75.7144 L -103.439,75.6107 L -103.338,75.5137 L -103.231,75.424
 L -103.118,75.3419 L -103,75.2679 L -102.877,75.2024 L -102.749,75.1456 L -102.618,75.0979 L -102.484,75.0594
 L -102.347,75.0304 L -102.209,75.011 L -102.07,75.0012 L -101.93,75.0012 L -101.791,75.011 L -101.653,75.0304
 L -101.516,75.0594 L -101.382,75.0979 L -101.251,75.1456 L -101.123,75.2024 L -101,75.2679 L -100.882,75.3419
 L -100.769,75.424 L -100.662,75.5137 L -100.561,75.6107 L -100.468,75.7144 L -100.382,75.8244 L -100.304,75.9402
 L -100.234,76.0611 L -100.173,76.1865 L -100.121,76.3159 L -100.077,76.4487 L -100.044,76.5842 L -100.019,76.7216
 L -100.005,76.8605 L -100,77 L -100.005,77.1395 L -100.019,77.2783 L -100.044,77.4158 L -100.077,77.5513
 L -100.121,77.684 L -100.173,77.8135 L -100.234,77.9389 L -100.304,78.0598 L -100.382,78.1756 L -100.468,78.2856
 L -100.561,78.3893 L -100.662,78.4863 L -100.769,78.576 L -100.882,78.6581 L -101,78.732 L -101.123,78.7976
 L -101.251,78.8544 L -101.382,78.9021 L -101.516,78.9406 L -101.653,78.9696 L -101.791,78.989 L -101.93,78.9988
 z
M 101.93,78.9988 L 101.791,78.989 L 101.653,78.9696 L 101.516,78.9406 L 101.382,78.9021 L 101.251,78.8544
 L 101.123,78.7976 L 101,78.732 L 100.882,78.6581 L 100.769,78.576 L 100.662,78.4863 L 100.561,78.3893
 L 100.468,78.2856 L 100.382,78.1756 L 100.304,78.0598 L 100.234,77.9389 L 100.173,77.8135 L 100.121,77.684
 L 100.077,77.5513 L 100.044,77.4158 L 100.019,77.2783 L 100.005,77.1395 L 100,77 L 100.005,76.8605
 L 100.019,76.7216 L 100.044,76.5842 L 100.077,76.4487 L 100.121,76.3159 L 100.173,76.1865 L 100.234,76.0611
 L 100.304,75.9402 L 100.382,75.8244 L 100.468,75.7144 L 100.561,75.6107 L 100.662,75.5137 L 100.769,75.424
 L 100.882,75.3419 L 101,75.2679 L 101.123,75.2024 L 101.251,75.1456 L 101.382,75.0979 L 101.516,75.0594
 L 101.653,75.0304 L 101.791,75.011 L 101.93,75.0012 L 102.07,75.0012 L 102.209,75.011 L 102.347,75.0304
 L 102.484,75.0594 L 102.618,75.0979 L 102.749,75.1456 L 102.877,75.2024 L 103,75.2679 L 103.118,75.3419
 L 103.231,75.424 L 103.338,75.5137 L 103.439,75.6107 L 103.532,75.7144 L 103.618,75.8244 L 103.696,75.9402
 L 103.766,76.0611 L 103.827,76.1865 L 103.879,76.3159 L 103.923,76.4487 L 103.956,76.5842 L 103.981,76.7216
 L 103.995,76.8605 L 104,77 L 103.995,77.1395 L 103.981,77.2783 L 103.956,77.4158 L 103.923,77.5513
 L 103.879,77.684 L 103.827,77.8135 L 103.766,77.9389 L 103.696,78.0598 L 103.618,78.1756 L 103.532,78.2856
 L 103.439,78.3893 L 103.338,78.4863 L 103.231,78.576 L 103.118,78.6581 L 103,78.732 L 102.877,78.7976
 L 102.749,78.8544 L 102.618,78.9021 L 102.484,78.9406 L 102.347,78.9696 L 102.209,78.989 L 102.07,78.9988
 z
M -77.0698,103.999 L -77.209,103.989 L -77.3473,103.97 L -77.4838,103.941 L -77.618,103.902 L -77.7492,103.854
 L -77.8767,103.798 L -78,103.732 L -78.1184,103.658 L -78.2313,103.576 L -78.3383,103.486 L -78.4387,103.389
 L -78.5321,103.286 L -78.618,103.176 L -78.6961,103.06 L -78.7659,102.939 L -78.8271,102.813 L -78.8794,102.684
 L -78.9225,102.551 L -78.9563,102.416 L -78.9805,102.278 L -78.9951,102.14 L -79,102 L -78.9951,101.86
 L -78.9805,101.722 L -78.9563,101.584 L -78.9225,101.449 L -78.8794,101.316 L -78.8271,101.187 L -78.7659,101.061
 L -78.6961,100.94 L -78.618,100.824 L -78.5321,100.714 L -78.4387,100.611 L -78.3383,100.514 L -78.2313,100.424
 L -78.1184,100.342 L -78,100.268 L -77.8767,100.202 L -77.7492,100.146 L -77.618,100.098 L -77.4838,100.059
 L -77.3473,100.03 L -77.209,100.011 L -77.0698,100.001 L -76.9302,100.001 L -76.7909,100.011 L -76.6527,100.03
 L -76.5161,100.059 L -76.382,100.098 L -76.2508,100.146 L -76.1232,100.202 L -76,100.268 L -75.8816,100.342
 L -75.7687,100.424 L -75.6617,100.514 L -75.5613,100.611 L -75.4679,100.714 L -75.382,100.824 L -75.3039,100.94
 L -75.2341,101.061 L -75.1729,101.187 L -75.1206,101.316 L -75.0775,101.449 L -75.0437,101.584 L -75.0195,101.722
 L -75.0049,101.86 L -75,102 L -75.0049,102.14 L -75.0195,102.278 L -75.0437,102.416 L -75.0775,102.551
 L -75.1206,102.684 L -75.1729,102.813 L -75.2341,102.939 L -75.3039,103.06 L -75.382,103.176 L -75.4679,103.286
 L -75.5613,103.389 L -75.6617,103.486 L -75.7687,103.576 L -75.8816,103.658 L -76,103.732 L -76.1232,103.798
 L -76.2508,103.854 L -76.382,103.902 L -76.5161,103.941 L -76.6527,103.97 L -76.7909,103.989 L -76.9302,103.999
 z
M 76.9302,103.999 L 76.7909,103.989 L 76.6527,103.97 L 76.5161,103.941 L 76.382,103.902 L 76.2508,103.854
 L 76.1232,103.798 L 76,103.732 L 75.8816,103.658 L 75.7687,103.576 L 75.6617,103.486 L 75.5613,103.389
 L 75.4679,103.286 L 75.382,103.176 L 75.3039,103.06 L 75.2341,102.939 L 75.1729,102.813 L 75.1206,102.684
 L 75.0775,102.551 L 75.0437,102.416 L 75.0195,102.278 L 75.0049,102.14 L 75,102 L 75.0049,101.86
 L 75.0195,101.722 L 75.0437,101.584 L 75.0775,101.449 L 75.1206,101.316 L 75.1729,101.187 L 75.2341,101.061
 L 75.3039,100.94 L 75.382,100.824 L 75.4679,100.714 L 75.5613,100.611 L 75.6617,100.514 L 75.7687,100.424
 L 75.8816,100.342 L 76,100.268 L 76.1232,100.202 L 76.2508,100.146 L 76.382,100.098 L 76.5161,100.059
 L 76.6527,100.03 L 76.7909,100.011 L 76.9302,100.001 L 77.0698,100.001 L 77.209,100.011 L 77.3473,100.03
 L 77.4838,100.059 L 77.618,100.098 L 77.7492,100.146 L 77.8767,100.202 L 78,100.268 L 78.1184,100.342
 L 78.2313,100.424 L 78.3383,100.514 L 78.4387,100.611 L 78.5321,100.714 L 78.618,100.824 L 78.6961,100.94
 L 78.7659,101.061 L 78.8271,101.187 L 78.8794,101.316 L 78.9225,101.449 L 78.9563,101.584 L 78.9805,101.722
 L 78.9951,101.86 L 79,102 L 78.9951,102.14 L 78.9805,102.278 L 78.9563,102.416 L 78.9225,102.551
 L 78.8794,102.684 L 78.8271,102.813 L 78.7659,102.939 L 78.6961,103.06 L 78.618,103.176 L 78.5321,103.286
 L 78.4387,103.389 L 78.3383,103.486 L 78.2313,103.576 L 78.1184,103.658 L 78,103.732 L 77.8767,103.798
 L 77.7492,103.854 L 77.618,103.902 L 77.4838,103.941 L 77.3473,103.97 L 77.209,103.989 L 77.0698,103.999
 z
M -104.552,105.999 L -104.657,105.992 L -104.76,105.977 L -104.863,105.955 L -104.964,105.927 L -105.062,105.891
 L -105.158,105.848 L -105.25,105.799 L -105.339,105.744 L -105.423,105.682 L -105.504,105.615 L -105.579,105.542
 L -105.649,105.464 L -105.714,105.382 L -105.772,105.295 L -105.824,105.204 L -105.87,105.11 L -105.91,105.013
 L -105.942,104.913 L -105.967,104.812 L -105.985,104.709 L -105.996,104.605 L -106,104.5 L -105.996,104.395
 L -105.985,104.291 L -105.967,104.188 L -105.942,104.087 L -105.91,103.987 L -105.87,103.89 L -105.824,103.796
 L -105.772,103.705 L -105.714,103.618 L -105.649,103.536 L -105.579,103.458 L -105.504,103.385 L -105.423,103.318
 L -105.339,103.256 L -105.25,103.201 L -105.158,103.152 L -105.062,103.109 L -104.964,103.073 L -104.863,103.045
 L -104.76,103.023 L -104.657,103.008 L -104.552,103.001 L -104.448,103.001 L -104.343,103.008 L -104.24,103.023
 L -104.137,103.045 L -104.036,103.073 L -103.938,103.109 L -103.842,103.152 L -103.75,103.201 L -103.661,103.256
 L -103.577,103.318 L -103.496,103.385 L -103.421,103.458 L -103.351,103.536 L -103.286,103.618 L -103.228,103.705
 L -103.176,103.796 L -103.13,103.89 L -103.09,103.987 L -103.058,104.087 L -103.033,104.188 L -103.015,104.291
 L -103.004,104.395 L -103,104.5 L -103.004,104.605 L -103.015,104.709 L -103.033,104.812 L -103.058,104.913
 L -103.09,105.013 L -103.13,105.11 L -103.176,105.204 L -103.228,105.295 L -103.286,105.382 L -103.351,105.464
 L -103.421,105.542 L -103.496,105.615 L -103.577,105.682 L -103.661,105.744 L -103.75,105.799 L -103.842,105.848
 L -103.938,105.891 L -104.036,105.927 L -104.137,105.955 L -104.24,105.977 L -104.343,105.992 L -104.448,105.999
 z
M 104.448,105.999 L 104.343,105.992 L 104.24,105.977 L 104.137,105.955 L 104.036,105.927 L 103.938,105.891
 L 103.842,105.848 L 103.75,105.799 L 103.661,105.744 L 103.577,105.682 L 103.496,105.615 L 103.421,105.542
 L 103.351,105.464 L 103.286,105.382 L 103.228,105.295 L 103.176,105.204 L 103.13,105.11 L 103.09,105.013
 L 103.058,104.913 L 103.033,104.812 L 103.015,104.709 L 103.004,104.605 L 103,104.5 L 103.004,104.395
 L 103.015,104.291 L 103.033,104.188 L 103.058,104.087 L 103.09,103.987 L 103.13,103.89 L 103.176,103.796
 L 103.228,103.705 L 103.286,103.618 L 103.351,103.536 L 103.421,103.458 L 103.496,103.385 L 103.577,103.318
 L 103.661,103.256 L 103.75,103.201 L 103.842,103.152 L 103.938,103.109 L 104.036,103.073 L 104.137,103.045
 L 104.24,103.023 L 104.343,103.008 L 104.448,103.001 L 104.552,103.001 L 104.657,103.008 L 104.76,103.023
 L 104.863,103.045 L 104.964,103.073 L 105.062,103.109 L 105.158,103.152 L 105.25,103.201 L 105.339,103.256
 L 105.423,103.318 L 105.504,103.385 L 105.579,103.458 L 105.649,103.536 L 105.714,103.618 L 105.772,103.705
 L 105.824,103.796 L 105.87,103.89 L 105.91,103.987 L 105.942,104.087 L 105.967,104.188 L 105.985,104.291
 L 105.996,104.395 L 106,104.5 L 105.996,104.605 L 105.985,104.709 L 105.967,104.812 L 105.942,104.913
 L 105.91,105.013 L 105.87,105.11 L 105.824,105.204 L 105.772,105.295 L 105.714,105.382 L 105.649,105.464
 L 105.579,105.542 L 105.504,105.615 L 105.423,105.682 L 105.339,105.744 L 105.25,105.799 L 105.158,105.848
 L 105.062,105.891 L 104.964,105.927 L 104.863,105.955 L 104.76,105.977 L 104.657,105.992 L 104.552,105.999
 z
" stroke="black" fill="lightgray" stroke-width="0.5"/></svg>
