  0
SECTION
  2
BLOCKS
  0
ENDSEC
  0
SECTION
  2
ENTITIES
  0
LINE
  8
0
 10
2.82227
 20
41.1479
 11
4.68849
 21
41.4102
  0
LINE
  8
0
 10
4.68849
 20
41.4102
 11
28.5
 21
45.5
  0
LINE
  8
0
 10
28.5
 20
45.5
 11
47
 21
53
  0
LINE
  8
0
 10
47
 20
53
 11
47
 21
83
  0
LINE
  8
0
 10
47
 20
83
 11
28.5
 21
90.5
  0
LINE
  8
0
 10
28.5
 20
90.5
 11
4.68849
 21
94.5898
  0
LINE
  8
0
 10
4.68849
 20
94.5898
 11
2.82227
 21
94.8521
  0
LINE
  8
0
 10
2.82227
 20
94.8521
 11
0.942276
 21
94.9836
  0
LINE
  8
0
 10
0.942276
 20
94.9836
 11
-0.942276
 21
94.9836
  0
LINE
  8
0
 10
-0.942276
 20
94.9836
 11
-2.82227
 21
94.8521
  0
LINE
  8
0
 10
-2.82227
 20
94.8521
 11
-4.68849
 21
94.5898
  0
LINE
  8
0
 10
-4.68849
 20
94.5898
 11
-28.5
 21
90.5
  0
LINE
  8
0
 10
-28.5
 20
90.5
 11
-47
 21
83
  0
LINE
  8
0
 10
-47
 20
83
 11
-47
 21
53
  0
LINE
  8
0
 10
-47
 20
53
 11
-28.5
 21
45.5
  0
LINE
  8
0
 10
-28.5
 20
45.5
 11
-4.68849
 21
41.4102
  0
LINE
  8
0
 10
-4.68849
 20
41.4102
 11
-2.82227
 21
41.1479
  0
LINE
  8
0
 10
-2.82227
 20
41.1479
 11
-0.942276
 21
41.0164
  0
LINE
  8
0
 10
-0.942276
 20
41.0164
 11
0.942276
 21
41.0164
  0
LINE
  8
0
 10
0.942276
 20
41.0164
 11
2.82227
 21
41.1479
  0
LINE
  8
0
 10
26.9476
 20
84.2509
 11
26.8432
 21
84.2582
  0
LINE
  8
0
 10
26.8432
 20
84.2582
 11
26.7395
 21
84.2728
  0
LINE
  8
0
 10
26.7395
 20
84.2728
 11
26.6371
 21
84.2946
  0
LINE
  8
0
 10
26.6371
 20
84.2946
 11
26.5365
 21
84.3234
  0
LINE
  8
0
 10
26.5365
 20
84.3234
 11
26.4381
 21
84.3592
  0
LINE
  8
0
 10
26.4381
 20
84.3592
 11
26.3424
 21
84.4018
  0
LINE
  8
0
 10
26.3424
 20
84.4018
 11
26.25
 21
84.451
  0
LINE
  8
0
 10
26.25
 20
84.451
 11
26.1612
 21
84.5064
  0
LINE
  8
0
 10
26.1612
 20
84.5064
 11
26.0765
 21
84.568
  0
LINE
  8
0
 10
26.0765
 20
84.568
 11
25.9963
 21
84.6353
  0
LINE
  8
0
 10
25.9963
 20
84.6353
 11
25.921
 21
84.708
  0
LINE
  8
0
 10
25.921
 20
84.708
 11
25.8509
 21
84.7858
  0
LINE
  8
0
 10
25.8509
 20
84.7858
 11
25.7865
 21
84.8683
  0
LINE
  8
0
 10
25.7865
 20
84.8683
 11
25.7279
 21
84.9551
  0
LINE
  8
0
 10
25.7279
 20
84.9551
 11
25.6756
 21
85.0458
  0
LINE
  8
0
 10
25.6756
 20
85.0458
 11
25.6297
 21
85.1399
  0
LINE
  8
0
 10
25.6297
 20
85.1399
 11
25.5905
 21
85.237
  0
LINE
  8
0
 10
25.5905
 20
85.237
 11
25.5581
 21
85.3365
  0
LINE
  8
0
 10
25.5581
 20
85.3365
 11
25.5328
 21
85.4381
  0
LINE
  8
0
 10
25.5328
 20
85.4381
 11
25.5146
 21
85.5412
  0
LINE
  8
0
 10
25.5146
 20
85.5412
 11
25.5036
 21
85.6454
  0
LINE
  8
0
 10
25.5036
 20
85.6454
 11
25.5
 21
85.75
  0
LINE
  8
0
 10
25.5
 20
85.75
 11
25.5036
 21
85.8546
  0
LINE
  8
0
 10
25.5036
 20
85.8546
 11
25.5146
 21
85.9588
  0
LINE
  8
0
 10
25.5146
 20
85.9588
 11
25.5328
 21
86.0619
  0
LINE
  8
0
 10
25.5328
 20
86.0619
 11
25.5581
 21
86.1635
  0
LINE
  8
0
 10
25.5581
 20
86.1635
 11
25.5905
 21
86.263
  0
LINE
  8
0
 10
25.5905
 20
86.263
 11
25.6297
 21
86.3601
  0
LINE
  8
0
 10
25.6297
 20
86.3601
 11
25.6756
 21
86.4542
  0
LINE
  8
0
 10
25.6756
 20
86.4542
 11
25.7279
 21
86.5449
  0
LINE
  8
0
 10
25.7279
 20
86.5449
 11
25.7865
 21
86.6317
  0
LINE
  8
0
 10
25.7865
 20
86.6317
 11
25.8509
 21
86.7142
  0
LINE
  8
0
 10
25.8509
 20
86.7142
 11
25.921
 21
86.792
  0
LINE
  8
0
 10
25.921
 20
86.792
 11
25.9963
 21
86.8647
  0
LINE
  8
0
 10
25.9963
 20
86.8647
 11
26.0765
 21
86.932
  0
LINE
  8
0
 10
26.0765
 20
86.932
 11
26.1612
 21
86.9935
  0
LINE
  8
0
 10
26.1612
 20
86.9935
 11
26.25
 21
87.049
  0
LINE
  8
0
 10
26.25
 20
87.049
 11
26.3424
 21
87.0982
  0
LINE
  8
0
 10
26.3424
 20
87.0982
 11
26.4381
 21
87.1408
  0
LINE
  8
0
 10
26.4381
 20
87.1408
 11
26.5365
 21
87.1766
  0
LINE
  8
0
 10
26.5365
 20
87.1766
 11
26.6371
 21
87.2054
  0
LINE
  8
0
 10
26.6371
 20
87.2054
 11
26.7395
 21
87.2272
  0
LINE
  8
0
 10
26.7395
 20
87.2272
 11
26.8432
 21
87.2418
  0
LINE
  8
0
 10
26.8432
 20
87.2418
 11
26.9476
 21
87.2491
  0
LINE
  8
0
 10
26.9476
 20
87.2491
 11
27.0523
 21
87.2491
  0
LINE
  8
0
 10
27.0523
 20
87.2491
 11
27.1568
 21
87.2418
  0
LINE
  8
0
 10
27.1568
 20
87.2418
 11
27.2605
 21
87.2272
  0
LINE
  8
0
 10
27.2605
 20
87.2272
 11
27.3629
 21
87.2054
  0
LINE
  8
0
 10
27.3629
 20
87.2054
 11
27.4635
 21
87.1766
  0
LINE
  8
0
 10
27.4635
 20
87.1766
 11
27.5619
 21
87.1408
  0
LINE
  8
0
 10
27.5619
 20
87.1408
 11
27.6575
 21
87.0982
  0
LINE
  8
0
 10
27.6575
 20
87.0982
 11
27.75
 21
87.049
  0
LINE
  8
0
 10
27.75
 20
87.049
 11
27.8388
 21
86.9935
  0
LINE
  8
0
 10
27.8388
 20
86.9935
 11
27.9235
 21
86.932
  0
LINE
  8
0
 10
27.9235
 20
86.932
 11
28.0037
 21
86.8647
  0
LINE
  8
0
 10
28.0037
 20
86.8647
 11
28.079
 21
86.792
  0
LINE
  8
0
 10
28.079
 20
86.792
 11
28.1491
 21
86.7142
  0
LINE
  8
0
 10
28.1491
 20
86.7142
 11
28.2135
 21
86.6317
  0
LINE
  8
0
 10
28.2135
 20
86.6317
 11
28.2721
 21
86.5449
  0
LINE
  8
0
 10
28.2721
 20
86.5449
 11
28.3244
 21
86.4542
  0
LINE
  8
0
 10
28.3244
 20
86.4542
 11
28.3703
 21
86.3601
  0
LINE
  8
0
 10
28.3703
 20
86.3601
 11
28.4095
 21
86.263
  0
LINE
  8
0
 10
28.4095
 20
86.263
 11
28.4419
 21
86.1635
  0
LINE
  8
0
 10
28.4419
 20
86.1635
 11
28.4672
 21
86.0619
  0
LINE
  8
0
 10
28.4672
 20
86.0619
 11
28.4854
 21
85.9588
  0
LINE
  8
0
 10
28.4854
 20
85.9588
 11
28.4963
 21
85.8546
  0
LINE
  8
0
 10
28.4963
 20
85.8546
 11
28.5
 21
85.75
  0
LINE
  8
0
 10
28.5
 20
85.75
 11
28.4963
 21
85.6454
  0
LINE
  8
0
 10
28.4963
 20
85.6454
 11
28.4854
 21
85.5412
  0
LINE
  8
0
 10
28.4854
 20
85.5412
 11
28.4672
 21
85.4381
  0
LINE
  8
0
 10
28.4672
 20
85.4381
 11
28.4419
 21
85.3365
  0
LINE
  8
0
 10
28.4419
 20
85.3365
 11
28.4095
 21
85.237
  0
LINE
  8
0
 10
28.4095
 20
85.237
 11
28.3703
 21
85.1399
  0
LINE
  8
0
 10
28.3703
 20
85.1399
 11
28.3244
 21
85.0458
  0
LINE
  8
0
 10
28.3244
 20
85.0458
 11
28.2721
 21
84.9551
  0
LINE
  8
0
 10
28.2721
 20
84.9551
 11
28.2135
 21
84.8683
  0
LINE
  8
0
 10
28.2135
 20
84.8683
 11
28.1491
 21
84.7858
  0
LINE
  8
0
 10
28.1491
 20
84.7858
 11
28.079
 21
84.708
  0
LINE
  8
0
 10
28.079
 20
84.708
 11
28.0037
 21
84.6353
  0
LINE
  8
0
 10
28.0037
 20
84.6353
 11
27.9235
 21
84.568
  0
LINE
  8
0
 10
27.9235
 20
84.568
 11
27.8388
 21
84.5064
  0
LINE
  8
0
 10
27.8388
 20
84.5064
 11
27.75
 21
84.451
  0
LINE
  8
0
 10
27.75
 20
84.451
 11
27.6575
 21
84.4018
  0
LINE
  8
0
 10
27.6575
 20
84.4018
 11
27.5619
 21
84.3592
  0
LINE
  8
0
 10
27.5619
 20
84.3592
 11
27.4635
 21
84.3234
  0
LINE
  8
0
 10
27.4635
 20
84.3234
 11
27.3629
 21
84.2946
  0
LINE
  8
0
 10
27.3629
 20
84.2946
 11
27.2605
 21
84.2728
  0
LINE
  8
0
 10
27.2605
 20
84.2728
 11
27.1568
 21
84.2582
  0
LINE
  8
0
 10
27.1568
 20
84.2582
 11
27.0523
 21
84.2509
  0
LINE
  8
0
 10
27.0523
 20
84.2509
 11
26.9476
 21
84.2509
  0
LINE
  8
0
 10
-27.0523
 20
84.2509
 11
-27.1568
 21
84.2582
  0
LINE
  8
0
 10
-27.1568
 20
84.2582
 11
-27.2605
 21
84.2728
  0
LINE
  8
0
 10
-27.2605
 20
84.2728
 11
-27.3629
 21
84.2946
  0
LINE
  8
0
 10
-27.3629
 20
84.2946
 11
-27.4635
 21
84.3234
  0
LINE
  8
0
 10
-27.4635
 20
84.3234
 11
-27.5619
 21
84.3592
  0
LINE
  8
0
 10
-27.5619
 20
84.3592
 11
-27.6575
 21
84.4018
  0
LINE
  8
0
 10
-27.6575
 20
84.4018
 11
-27.75
 21
84.451
  0
LINE
  8
0
 10
-27.75
 20
84.451
 11
-27.8388
 21
84.5064
  0
LINE
  8
0
 10
-27.8388
 20
84.5064
 11
-27.9235
 21
84.568
  0
LINE
  8
0
 10
-27.9235
 20
84.568
 11
-28.0037
 21
84.6353
  0
LINE
  8
0
 10
-28.0037
 20
84.6353
 11
-28.079
 21
84.708
  0
LINE
  8
0
 10
-28.079
 20
84.708
 11
-28.1491
 21
84.7858
  0
LINE
  8
0
 10
-28.1491
 20
84.7858
 11
-28.2135
 21
84.8683
  0
LINE
  8
0
 10
-28.2135
 20
84.8683
 11
-28.2721
 21
84.9551
  0
LINE
  8
0
 10
-28.2721
 20
84.9551
 11
-28.3244
 21
85.0458
  0
LINE
  8
0
 10
-28.3244
 20
85.0458
 11
-28.3703
 21
85.1399
  0
LINE
  8
0
 10
-28.3703
 20
85.1399
 11
-28.4095
 21
85.237
  0
LINE
  8
0
 10
-28.4095
 20
85.237
 11
-28.4419
 21
85.3365
  0
LINE
  8
0
 10
-28.4419
 20
85.3365
 11
-28.4672
 21
85.4381
  0
LINE
  8
0
 10
-28.4672
 20
85.4381
 11
-28.4854
 21
85.5412
  0
LINE
  8
0
 10
-28.4854
 20
85.5412
 11
-28.4963
 21
85.6454
  0
LINE
  8
0
 10
-28.4963
 20
85.6454
 11
-28.5
 21
85.75
  0
LINE
  8
0
 10
-28.5
 20
85.75
 11
-28.4963
 21
85.8546
  0
LINE
  8
0
 10
-28.4963
 20
85.8546
 11
-28.4854
 21
85.9588
  0
LINE
  8
0
 10
-28.4854
 20
85.9588
 11
-28.4672
 21
86.0619
  0
LINE
  8
0
 10
-28.4672
 20
86.0619
 11
-28.4419
 21
86.1635
  0
LINE
  8
0
 10
-28.4419
 20
86.1635
 11
-28.4095
 21
86.263
  0
LINE
  8
0
 10
-28.4095
 20
86.263
 11
-28.3703
 21
86.3601
  0
LINE
  8
0
 10
-28.3703
 20
86.3601
 11
-28.3244
 21
86.4542
  0
LINE
  8
0
 10
-28.3244
 20
86.4542
 11
-28.2721
 21
86.5449
  0
LINE
  8
0
 10
-28.2721
 20
86.5449
 11
-28.2135
 21
86.6317
  0
LINE
  8
0
 10
-28.2135
 20
86.6317
 11
-28.1491
 21
86.7142
  0
LINE
  8
0
 10
-28.1491
 20
86.7142
 11
-28.079
 21
86.792
  0
LINE
  8
0
 10
-28.079
 20
86.792
 11
-28.0037
 21
86.8647
  0
LINE
  8
0
 10
-28.0037
 20
86.8647
 11
-27.9235
 21
86.932
  0
LINE
  8
0
 10
-27.9235
 20
86.932
 11
-27.8388
 21
86.9935
  0
LINE
  8
0
 10
-27.8388
 20
86.9935
 11
-27.75
 21
87.049
  0
LINE
  8
0
 10
-27.75
 20
87.049
 11
-27.6575
 21
87.0982
  0
LINE
  8
0
 10
-27.6575
 20
87.0982
 11
-27.5619
 21
87.1408
  0
LINE
  8
0
 10
-27.5619
 20
87.1408
 11
-27.4635
 21
87.1766
  0
LINE
  8
0
 10
-27.4635
 20
87.1766
 11
-27.3629
 21
87.2054
  0
LINE
  8
0
 10
-27.3629
 20
87.2054
 11
-27.2605
 21
87.2272
  0
LINE
  8
0
 10
-27.2605
 20
87.2272
 11
-27.1568
 21
87.2418
  0
LINE
  8
0
 10
-27.1568
 20
87.2418
 11
-27.0523
 21
87.2491
  0
LINE
  8
0
 10
-27.0523
 20
87.2491
 11
-26.9476
 21
87.2491
  0
LINE
  8
0
 10
-26.9476
 20
87.2491
 11
-26.8432
 21
87.2418
  0
LINE
  8
0
 10
-26.8432
 20
87.2418
 11
-26.7395
 21
87.2272
  0
LINE
  8
0
 10
-26.7395
 20
87.2272
 11
-26.6371
 21
87.2054
  0
LINE
  8
0
 10
-26.6371
 20
87.2054
 11
-26.5365
 21
87.1766
  0
LINE
  8
0
 10
-26.5365
 20
87.1766
 11
-26.4381
 21
87.1408
  0
LINE
  8
0
 10
-26.4381
 20
87.1408
 11
-26.3424
 21
87.0982
  0
LINE
  8
0
 10
-26.3424
 20
87.0982
 11
-26.25
 21
87.049
  0
LINE
  8
0
 10
-26.25
 20
87.049
 11
-26.1612
 21
86.9935
  0
LINE
  8
0
 10
-26.1612
 20
86.9935
 11
-26.0765
 21
86.932
  0
LINE
  8
0
 10
-26.0765
 20
86.932
 11
-25.9963
 21
86.8647
  0
LINE
  8
0
 10
-25.9963
 20
86.8647
 11
-25.921
 21
86.792
  0
LINE
  8
0
 10
-25.921
 20
86.792
 11
-25.8509
 21
86.7142
  0
LINE
  8
0
 10
-25.8509
 20
86.7142
 11
-25.7865
 21
86.6317
  0
LINE
  8
0
 10
-25.7865
 20
86.6317
 11
-25.7279
 21
86.5449
  0
LINE
  8
0
 10
-25.7279
 20
86.5449
 11
-25.6756
 21
86.4542
  0
LINE
  8
0
 10
-25.6756
 20
86.4542
 11
-25.6297
 21
86.3601
  0
LINE
  8
0
 10
-25.6297
 20
86.3601
 11
-25.5905
 21
86.263
  0
LINE
  8
0
 10
-25.5905
 20
86.263
 11
-25.5581
 21
86.1635
  0
LINE
  8
0
 10
-25.5581
 20
86.1635
 11
-25.5328
 21
86.0619
  0
LINE
  8
0
 10
-25.5328
 20
86.0619
 11
-25.5146
 21
85.9588
  0
LINE
  8
0
 10
-25.5146
 20
85.9588
 11
-25.5036
 21
85.8546
  0
LINE
  8
0
 10
-25.5036
 20
85.8546
 11
-25.5
 21
85.75
  0
LINE
  8
0
 10
-25.5
 20
85.75
 11
-25.5036
 21
85.6454
  0
LINE
  8
0
 10
-25.5036
 20
85.6454
 11
-25.5146
 21
85.5412
  0
LINE
  8
0
 10
-25.5146
 20
85.5412
 11
-25.5328
 21
85.4381
  0
LINE
  8
0
 10
-25.5328
 20
85.4381
 11
-25.5581
 21
85.3365
  0
LINE
  8
0
 10
-25.5581
 20
85.3365
 11
-25.5905
 21
85.237
  0
LINE
  8
0
 10
-25.5905
 20
85.237
 11
-25.6297
 21
85.1399
  0
LINE
  8
0
 10
-25.6297
 20
85.1399
 11
-25.6756
 21
85.0458
  0
LINE
  8
0
 10
-25.6756
 20
85.0458
 11
-25.7279
 21
84.9551
  0
LINE
  8
0
 10
-25.7279
 20
84.9551
 11
-25.7865
 21
84.8683
  0
LINE
  8
0
 10
-25.7865
 20
84.8683
 11
-25.8509
 21
84.7858
  0
LINE
  8
0
 10
-25.8509
 20
84.7858
 11
-25.921
 21
84.708
  0
LINE
  8
0
 10
-25.921
 20
84.708
 11
-25.9963
 21
84.6353
  0
LINE
  8
0
 10
-25.9963
 20
84.6353
 11
-26.0765
 21
84.568
  0
LINE
  8
0
 10
-26.0765
 20
84.568
 11
-26.1612
 21
84.5064
  0
LINE
  8
0
 10
-26.1612
 20
84.5064
 11
-26.25
 21
84.451
  0
LINE
  8
0
 10
-26.25
 20
84.451
 11
-26.3424
 21
84.4018
  0
LINE
  8
0
 10
-26.3424
 20
84.4018
 11
-26.4381
 21
84.3592
  0
LINE
  8
0
 10
-26.4381
 20
84.3592
 11
-26.5365
 21
84.3234
  0
LINE
  8
0
 10
-26.5365
 20
84.3234
 11
-26.6371
 21
84.2946
  0
LINE
  8
0
 10
-26.6371
 20
84.2946
 11
-26.7395
 21
84.2728
  0
LINE
  8
0
 10
-26.7395
 20
84.2728
 11
-26.8432
 21
84.2582
  0
LINE
  8
0
 10
-26.8432
 20
84.2582
 11
-26.9476
 21
84.2509
  0
LINE
  8
0
 10
-26.9476
 20
84.2509
 11
-27.0523
 21
84.2509
  0
LINE
  8
0
 10
-0.610733
 20
50.5107
 11
-1.82924
 21
50.5959
  0
LINE
  8
0
 10
-1.82924
 20
50.5959
 11
-3.03883
 21
50.7659
  0
LINE
  8
0
 10
-3.03883
 20
50.7659
 11
-4.23363
 21
51.0198
  0
LINE
  8
0
 10
-4.23363
 20
51.0198
 11
-5.40779
 21
51.3565
  0
LINE
  8
0
 10
-5.40779
 20
51.3565
 11
-6.5556
 21
51.7743
  0
LINE
  8
0
 10
-6.5556
 20
51.7743
 11
-7.67149
 21
52.2711
  0
LINE
  8
0
 10
-7.67149
 20
52.2711
 11
-8.75
 21
52.8446
  0
LINE
  8
0
 10
-8.75
 20
52.8446
 11
-9.78587
 21
53.4919
  0
LINE
  8
0
 10
-9.78587
 20
53.4919
 11
-10.7741
 21
54.2098
  0
LINE
  8
0
 10
-10.7741
 20
54.2098
 11
-11.7098
 21
54.995
  0
LINE
  8
0
 10
-11.7098
 20
54.995
 11
-12.5884
 21
55.8435
  0
LINE
  8
0
 10
-12.5884
 20
55.8435
 11
-13.4058
 21
56.7512
  0
LINE
  8
0
 10
-13.4058
 20
56.7512
 11
-14.1578
 21
57.7138
  0
LINE
  8
0
 10
-14.1578
 20
57.7138
 11
-14.8408
 21
58.7264
  0
LINE
  8
0
 10
-14.8408
 20
58.7264
 11
-15.4516
 21
59.7843
  0
LINE
  8
0
 10
-15.4516
 20
59.7843
 11
-15.987
 21
60.8821
  0
LINE
  8
0
 10
-15.987
 20
60.8821
 11
-16.4446
 21
62.0146
  0
LINE
  8
0
 10
-16.4446
 20
62.0146
 11
-16.8221
 21
63.1764
  0
LINE
  8
0
 10
-16.8221
 20
63.1764
 11
-17.1176
 21
64.3616
  0
LINE
  8
0
 10
-17.1176
 20
64.3616
 11
-17.3297
 21
65.5645
  0
LINE
  8
0
 10
-17.3297
 20
65.5645
 11
-17.4574
 21
66.7793
  0
LINE
  8
0
 10
-17.4574
 20
66.7793
 11
-17.5
 21
68
  0
LINE
  8
0
 10
-17.5
 20
68
 11
-17.4574
 21
69.2207
  0
LINE
  8
0
 10
-17.4574
 20
69.2207
 11
-17.3297
 21
70.4355
  0
LINE
  8
0
 10
-17.3297
 20
70.4355
 11
-17.1176
 21
71.6384
  0
LINE
  8
0
 10
-17.1176
 20
71.6384
 11
-16.8221
 21
72.8236
  0
LINE
  8
0
 10
-16.8221
 20
72.8236
 11
-16.4446
 21
73.9854
  0
LINE
  8
0
 10
-16.4446
 20
73.9854
 11
-15.987
 21
75.1179
  0
LINE
  8
0
 10
-15.987
 20
75.1179
 11
-15.4516
 21
76.2157
  0
LINE
  8
0
 10
-15.4516
 20
76.2157
 11
-14.8408
 21
77.2736
  0
LINE
  8
0
 10
-14.8408
 20
77.2736
 11
-14.1578
 21
78.2862
  0
LINE
  8
0
 10
-14.1578
 20
78.2862
 11
-13.4058
 21
79.2488
  0
LINE
  8
0
 10
-13.4058
 20
79.2488
 11
-12.5884
 21
80.1565
  0
LINE
  8
0
 10
-12.5884
 20
80.1565
 11
-11.7098
 21
81.005
  0
LINE
  8
0
 10
-11.7098
 20
81.005
 11
-10.7741
 21
81.7902
  0
LINE
  8
0
 10
-10.7741
 20
81.7902
 11
-9.78587
 21
82.5081
  0
LINE
  8
0
 10
-9.78587
 20
82.5081
 11
-8.74998
 21
83.1554
  0
LINE
  8
0
 10
-8.74998
 20
83.1554
 11
-7.67149
 21
83.7289
  0
LINE
  8
0
 10
-7.67149
 20
83.7289
 11
-6.5556
 21
84.2257
  0
LINE
  8
0
 10
-6.5556
 20
84.2257
 11
-5.40779
 21
84.6435
  0
LINE
  8
0
 10
-5.40779
 20
84.6435
 11
-4.23363
 21
84.9802
  0
LINE
  8
0
 10
-4.23363
 20
84.9802
 11
-3.03883
 21
85.2341
  0
LINE
  8
0
 10
-3.03883
 20
85.2341
 11
-1.82924
 21
85.4041
  0
LINE
  8
0
 10
-1.82924
 20
85.4041
 11
-0.610733
 21
85.4893
  0
LINE
  8
0
 10
-0.610733
 20
85.4893
 11
0.610733
 21
85.4893
  0
LINE
  8
0
 10
0.610733
 20
85.4893
 11
1.82924
 21
85.4041
  0
LINE
  8
0
 10
1.82924
 20
85.4041
 11
3.03883
 21
85.2341
  0
LINE
  8
0
 10
3.03883
 20
85.2341
 11
4.23363
 21
84.9802
  0
LINE
  8
0
 10
4.23363
 20
84.9802
 11
5.40779
 21
84.6435
  0
LINE
  8
0
 10
5.40779
 20
84.6435
 11
6.5556
 21
84.2257
  0
LINE
  8
0
 10
6.5556
 20
84.2257
 11
7.67149
 21
83.7289
  0
LINE
  8
0
 10
7.67149
 20
83.7289
 11
8.75
 21
83.1554
  0
LINE
  8
0
 10
8.75
 20
83.1554
 11
9.78587
 21
82.5081
  0
LINE
  8
0
 10
9.78587
 20
82.5081
 11
10.7741
 21
81.7902
  0
LINE
  8
0
 10
10.7741
 20
81.7902
 11
11.7098
 21
81.005
  0
LINE
  8
0
 10
11.7098
 20
81.005
 11
12.5884
 21
80.1565
  0
LINE
  8
0
 10
12.5884
 20
80.1565
 11
13.4058
 21
79.2488
  0
LINE
  8
0
 10
13.4058
 20
79.2488
 11
14.1578
 21
78.2862
  0
LINE
  8
0
 10
14.1578
 20
78.2862
 11
14.8408
 21
77.2736
  0
LINE
  8
0
 10
14.8408
 20
77.2736
 11
15.4516
 21
76.2157
  0
LINE
  8
0
 10
15.4516
 20
76.2157
 11
15.987
 21
75.1179
  0
LINE
  8
0
 10
15.987
 20
75.1179
 11
16.4446
 21
73.9854
  0
LINE
  8
0
 10
16.4446
 20
73.9854
 11
16.8221
 21
72.8236
  0
LINE
  8
0
 10
16.8221
 20
72.8236
 11
17.1176
 21
71.6384
  0
LINE
  8
0
 10
17.1176
 20
71.6384
 11
17.3297
 21
70.4355
  0
LINE
  8
0
 10
17.3297
 20
70.4355
 11
17.4574
 21
69.2207
  0
LINE
  8
0
 10
17.4574
 20
69.2207
 11
17.5
 21
68
  0
LINE
  8
0
 10
17.5
 20
68
 11
17.4574
 21
66.7793
  0
LINE
  8
0
 10
17.4574
 20
66.7793
 11
17.3297
 21
65.5645
  0
LINE
  8
0
 10
17.3297
 20
65.5645
 11
17.1176
 21
64.3616
  0
LINE
  8
0
 10
17.1176
 20
64.3616
 11
16.8221
 21
63.1764
  0
LINE
  8
0
 10
16.8221
 20
63.1764
 11
16.4446
 21
62.0146
  0
LINE
  8
0
 10
16.4446
 20
62.0146
 11
15.987
 21
60.8821
  0
LINE
  8
0
 10
15.987
 20
60.8821
 11
15.4516
 21
59.7843
  0
LINE
  8
0
 10
15.4516
 20
59.7843
 11
14.8408
 21
58.7264
  0
LINE
  8
0
 10
14.8408
 20
58.7264
 11
14.1578
 21
57.7138
  0
LINE
  8
0
 10
14.1578
 20
57.7138
 11
13.4058
 21
56.7512
  0
LINE
  8
0
 10
13.4058
 20
56.7512
 11
12.5884
 21
55.8435
  0
LINE
  8
0
 10
12.5884
 20
55.8435
 11
11.7098
 21
54.995
  0
LINE
  8
0
 10
11.7098
 20
54.995
 11
10.7741
 21
54.2098
  0
LINE
  8
0
 10
10.7741
 20
54.2098
 11
9.78587
 21
53.4919
  0
LINE
  8
0
 10
9.78587
 20
53.4919
 11
8.75
 21
52.8446
  0
LINE
  8
0
 10
8.75
 20
52.8446
 11
7.67149
 21
52.2711
  0
LINE
  8
0
 10
7.67149
 20
52.2711
 11
6.5556
 21
51.7743
  0
LINE
  8
0
 10
6.5556
 20
51.7743
 11
5.40779
 21
51.3565
  0
LINE
  8
0
 10
5.40779
 20
51.3565
 11
4.23363
 21
51.0198
  0
LINE
  8
0
 10
4.23363
 20
51.0198
 11
3.03883
 21
50.7659
  0
LINE
  8
0
 10
3.03883
 20
50.7659
 11
1.82924
 21
50.5959
  0
LINE
  8
0
 10
1.82924
 20
50.5959
 11
0.610733
 21
50.5107
  0
LINE
  8
0
 10
0.610733
 20
50.5107
 11
-0.610733
 21
50.5107
  0
LINE
  8
0
 10
36.9302
 20
66.0012
 11
36.7909
 21
66.011
  0
LINE
  8
0
 10
36.7909
 20
66.011
 11
36.6527
 21
66.0304
  0
LINE
  8
0
 10
36.6527
 20
66.0304
 11
36.5161
 21
66.0594
  0
LINE
  8
0
 10
36.5161
 20
66.0594
 11
36.382
 21
66.0979
  0
LINE
  8
0
 10
36.382
 20
66.0979
 11
36.2508
 21
66.1456
  0
LINE
  8
0
 10
36.2508
 20
66.1456
 11
36.1232
 21
66.2024
  0
LINE
  8
0
 10
36.1232
 20
66.2024
 11
36
 21
66.268
  0
LINE
  8
0
 10
36
 20
66.268
 11
35.8816
 21
66.3419
  0
LINE
  8
0
 10
35.8816
 20
66.3419
 11
35.7687
 21
66.424
  0
LINE
  8
0
 10
35.7687
 20
66.424
 11
35.6617
 21
66.5137
  0
LINE
  8
0
 10
35.6617
 20
66.5137
 11
35.5613
 21
66.6107
  0
LINE
  8
0
 10
35.5613
 20
66.6107
 11
35.4679
 21
66.7144
  0
LINE
  8
0
 10
35.4679
 20
66.7144
 11
35.382
 21
66.8244
  0
LINE
  8
0
 10
35.382
 20
66.8244
 11
35.3039
 21
66.9402
  0
LINE
  8
0
 10
35.3039
 20
66.9402
 11
35.2341
 21
67.0611
  0
LINE
  8
0
 10
35.2341
 20
67.0611
 11
35.1729
 21
67.1865
  0
LINE
  8
0
 10
35.1729
 20
67.1865
 11
35.1206
 21
67.316
  0
LINE
  8
0
 10
35.1206
 20
67.316
 11
35.0775
 21
67.4487
  0
LINE
  8
0
 10
35.0775
 20
67.4487
 11
35.0437
 21
67.5842
  0
LINE
  8
0
 10
35.0437
 20
67.5842
 11
35.0195
 21
67.7217
  0
LINE
  8
0
 10
35.0195
 20
67.7217
 11
35.0049
 21
67.8605
  0
LINE
  8
0
 10
35.0049
 20
67.8605
 11
35
 21
68
  0
LINE
  8
0
 10
35
 20
68
 11
35.0049
 21
68.1395
  0
LINE
  8
0
 10
35.0049
 20
68.1395
 11
35.0195
 21
68.2783
  0
LINE
  8
0
 10
35.0195
 20
68.2783
 11
35.0437
 21
68.4158
  0
LINE
  8
0
 10
35.0437
 20
68.4158
 11
35.0775
 21
68.5513
  0
LINE
  8
0
 10
35.0775
 20
68.5513
 11
35.1206
 21
68.684
  0
LINE
  8
0
 10
35.1206
 20
68.684
 11
35.1729
 21
68.8135
  0
LINE
  8
0
 10
35.1729
 20
68.8135
 11
35.2341
 21
68.9389
  0
LINE
  8
0
 10
35.2341
 20
68.9389
 11
35.3039
 21
69.0598
  0
LINE
  8
0
 10
35.3039
 20
69.0598
 11
35.382
 21
69.1756
  0
LINE
  8
0
 10
35.382
 20
69.1756
 11
35.4679
 21
69.2856
  0
LINE
  8
0
 10
35.4679
 20
69.2856
 11
35.5613
 21
69.3893
  0
LINE
  8
0
 10
35.5613
 20
69.3893
 11
35.6617
 21
69.4863
  0
LINE
  8
0
 10
35.6617
 20
69.4863
 11
35.7687
 21
69.576
  0
LINE
  8
0
 10
35.7687
 20
69.576
 11
35.8816
 21
69.6581
  0
LINE
  8
0
 10
35.8816
 20
69.6581
 11
36
 21
69.732
  0
LINE
  8
0
 10
36
 20
69.732
 11
36.1232
 21
69.7976
  0
LINE
  8
0
 10
36.1232
 20
69.7976
 11
36.2508
 21
69.8544
  0
LINE
  8
0
 10
36.2508
 20
69.8544
 11
36.382
 21
69.9021
  0
LINE
  8
0
 10
36.382
 20
69.9021
 11
36.5161
 21
69.9406
  0
LINE
  8
0
 10
36.5161
 20
69.9406
 11
36.6527
 21
69.9696
  0
LINE
  8
0
 10
36.6527
 20
69.9696
 11
36.7909
 21
69.989
  0
LINE
  8
0
 10
36.7909
 20
69.989
 11
36.9302
 21
69.9988
  0
LINE
  8
0
 10
36.9302
 20
69.9988
 11
37.0698
 21
69.9988
  0
LINE
  8
0
 10
37.0698
 20
69.9988
 11
37.209
 21
69.989
  0
LINE
  8
0
 10
37.209
 20
69.989
 11
37.3473
 21
69.9696
  0
LINE
  8
0
 10
37.3473
 20
69.9696
 11
37.4838
 21
69.9406
  0
LINE
  8
0
 10
37.4838
 20
69.9406
 11
37.618
 21
69.9021
  0
LINE
  8
0
 10
37.618
 20
69.9021
 11
37.7492
 21
69.8544
  0
LINE
  8
0
 10
37.7492
 20
69.8544
 11
37.8767
 21
69.7976
  0
LINE
  8
0
 10
37.8767
 20
69.7976
 11
38
 21
69.732
  0
LINE
  8
0
 10
38
 20
69.732
 11
38.1184
 21
69.6581
  0
LINE
  8
0
 10
38.1184
 20
69.6581
 11
38.2313
 21
69.576
  0
LINE
  8
0
 10
38.2313
 20
69.576
 11
38.3383
 21
69.4863
  0
LINE
  8
0
 10
38.3383
 20
69.4863
 11
38.4387
 21
69.3893
  0
LINE
  8
0
 10
38.4387
 20
69.3893
 11
38.5321
 21
69.2856
  0
LINE
  8
0
 10
38.5321
 20
69.2856
 11
38.618
 21
69.1756
  0
LINE
  8
0
 10
38.618
 20
69.1756
 11
38.6961
 21
69.0598
  0
LINE
  8
0
 10
38.6961
 20
69.0598
 11
38.7659
 21
68.9389
  0
LINE
  8
0
 10
38.7659
 20
68.9389
 11
38.8271
 21
68.8135
  0
LINE
  8
0
 10
38.8271
 20
68.8135
 11
38.8794
 21
68.684
  0
LINE
  8
0
 10
38.8794
 20
68.684
 11
38.9225
 21
68.5513
  0
LINE
  8
0
 10
38.9225
 20
68.5513
 11
38.9563
 21
68.4158
  0
LINE
  8
0
 10
38.9563
 20
68.4158
 11
38.9805
 21
68.2783
  0
LINE
  8
0
 10
38.9805
 20
68.2783
 11
38.9951
 21
68.1395
  0
LINE
  8
0
 10
38.9951
 20
68.1395
 11
39
 21
68
  0
LINE
  8
0
 10
39
 20
68
 11
38.9951
 21
67.8605
  0
LINE
  8
0
 10
38.9951
 20
67.8605
 11
38.9805
 21
67.7217
  0
LINE
  8
0
 10
38.9805
 20
67.7217
 11
38.9563
 21
67.5842
  0
LINE
  8
0
 10
38.9563
 20
67.5842
 11
38.9225
 21
67.4487
  0
LINE
  8
0
 10
38.9225
 20
67.4487
 11
38.8794
 21
67.316
  0
LINE
  8
0
 10
38.8794
 20
67.316
 11
38.8271
 21
67.1865
  0
LINE
  8
0
 10
38.8271
 20
67.1865
 11
38.7659
 21
67.0611
  0
LINE
  8
0
 10
38.7659
 20
67.0611
 11
38.6961
 21
66.9402
  0
LINE
  8
0
 10
38.6961
 20
66.9402
 11
38.618
 21
66.8244
  0
LINE
  8
0
 10
38.618
 20
66.8244
 11
38.5321
 21
66.7144
  0
LINE
  8
0
 10
38.5321
 20
66.7144
 11
38.4387
 21
66.6107
  0
LINE
  8
0
 10
38.4387
 20
66.6107
 11
38.3383
 21
66.5137
  0
LINE
  8
0
 10
38.3383
 20
66.5137
 11
38.2313
 21
66.424
  0
LINE
  8
0
 10
38.2313
 20
66.424
 11
38.1184
 21
66.3419
  0
LINE
  8
0
 10
38.1184
 20
66.3419
 11
38
 21
66.268
  0
LINE
  8
0
 10
38
 20
66.268
 11
37.8767
 21
66.2024
  0
LINE
  8
0
 10
37.8767
 20
66.2024
 11
37.7492
 21
66.1456
  0
LINE
  8
0
 10
37.7492
 20
66.1456
 11
37.618
 21
66.0979
  0
LINE
  8
0
 10
37.618
 20
66.0979
 11
37.4838
 21
66.0594
  0
LINE
  8
0
 10
37.4838
 20
66.0594
 11
37.3473
 21
66.0304
  0
LINE
  8
0
 10
37.3473
 20
66.0304
 11
37.209
 21
66.011
  0
LINE
  8
0
 10
37.209
 20
66.011
 11
37.0698
 21
66.0012
  0
LINE
  8
0
 10
37.0698
 20
66.0012
 11
36.9302
 21
66.0012
  0
LINE
  8
0
 10
-37.0698
 20
66.0012
 11
-37.209
 21
66.011
  0
LINE
  8
0
 10
-37.209
 20
66.011
 11
-37.3473
 21
66.0304
  0
LINE
  8
0
 10
-37.3473
 20
66.0304
 11
-37.4838
 21
66.0594
  0
LINE
  8
0
 10
-37.4838
 20
66.0594
 11
-37.618
 21
66.0979
  0
LINE
  8
0
 10
-37.618
 20
66.0979
 11
-37.7492
 21
66.1456
  0
LINE
  8
0
 10
-37.7492
 20
66.1456
 11
-37.8767
 21
66.2024
  0
LINE
  8
0
 10
-37.8767
 20
66.2024
 11
-38
 21
66.268
  0
LINE
  8
0
 10
-38
 20
66.268
 11
-38.1184
 21
66.3419
  0
LINE
  8
0
 10
-38.1184
 20
66.3419
 11
-38.2313
 21
66.424
  0
LINE
  8
0
 10
-38.2313
 20
66.424
 11
-38.3383
 21
66.5137
  0
LINE
  8
0
 10
-38.3383
 20
66.5137
 11
-38.4387
 21
66.6107
  0
LINE
  8
0
 10
-38.4387
 20
66.6107
 11
-38.5321
 21
66.7144
  0
LINE
  8
0
 10
-38.5321
 20
66.7144
 11
-38.618
 21
66.8244
  0
LINE
  8
0
 10
-38.618
 20
66.8244
 11
-38.6961
 21
66.9402
  0
LINE
  8
0
 10
-38.6961
 20
66.9402
 11
-38.7659
 21
67.0611
  0
LINE
  8
0
 10
-38.7659
 20
67.0611
 11
-38.8271
 21
67.1865
  0
LINE
  8
0
 10
-38.8271
 20
67.1865
 11
-38.8794
 21
67.316
  0
LINE
  8
0
 10
-38.8794
 20
67.316
 11
-38.9225
 21
67.4487
  0
LINE
  8
0
 10
-38.9225
 20
67.4487
 11
-38.9563
 21
67.5842
  0
LINE
  8
0
 10
-38.9563
 20
67.5842
 11
-38.9805
 21
67.7217
  0
LINE
  8
0
 10
-38.9805
 20
67.7217
 11
-38.9951
 21
67.8605
  0
LINE
  8
0
 10
-38.9951
 20
67.8605
 11
-39
 21
68
  0
LINE
  8
0
 10
-39
 20
68
 11
-38.9951
 21
68.1395
  0
LINE
  8
0
 10
-38.9951
 20
68.1395
 11
-38.9805
 21
68.2783
  0
LINE
  8
0
 10
-38.9805
 20
68.2783
 11
-38.9563
 21
68.4158
  0
LINE
  8
0
 10
-38.9563
 20
68.4158
 11
-38.9225
 21
68.5513
  0
LINE
  8
0
 10
-38.9225
 20
68.5513
 11
-38.8794
 21
68.684
  0
LINE
  8
0
 10
-38.8794
 20
68.684
 11
-38.8271
 21
68.8135
  0
LINE
  8
0
 10
-38.8271
 20
68.8135
 11
-38.7659
 21
68.9389
  0
LINE
  8
0
 10
-38.7659
 20
68.9389
 11
-38.6961
 21
69.0598
  0
LINE
  8
0
 10
-38.6961
 20
69.0598
 11
-38.618
 21
69.1756
  0
LINE
  8
0
 10
-38.618
 20
69.1756
 11
-38.5321
 21
69.2856
  0
LINE
  8
0
 10
-38.5321
 20
69.2856
 11
-38.4387
 21
69.3893
  0
LINE
  8
0
 10
-38.4387
 20
69.3893
 11
-38.3383
 21
69.4863
  0
LINE
  8
0
 10
-38.3383
 20
69.4863
 11
-38.2313
 21
69.576
  0
LINE
  8
0
 10
-38.2313
 20
69.576
 11
-38.1184
 21
69.6581
  0
LINE
  8
0
 10
-38.1184
 20
69.6581
 11
-38
 21
69.732
  0
LINE
  8
0
 10
-38
 20
69.732
 11
-37.8767
 21
69.7976
  0
LINE
  8
0
 10
-37.8767
 20
69.7976
 11
-37.7492
 21
69.8544
  0
LINE
  8
0
 10
-37.7492
 20
69.8544
 11
-37.618
 21
69.9021
  0
LINE
  8
0
 10
-37.618
 20
69.9021
 11
-37.4838
 21
69.9406
  0
LINE
  8
0
 10
-37.4838
 20
69.9406
 11
-37.3473
 21
69.9696
  0
LINE
  8
0
 10
-37.3473
 20
69.9696
 11
-37.209
 21
69.989
  0
LINE
  8
0
 10
-37.209
 20
69.989
 11
-37.0698
 21
69.9988
  0
LINE
  8
0
 10
-37.0698
 20
69.9988
 11
-36.9302
 21
69.9988
  0
LINE
  8
0
 10
-36.9302
 20
69.9988
 11
-36.7909
 21
69.989
  0
LINE
  8
0
 10
-36.7909
 20
69.989
 11
-36.6527
 21
69.9696
  0
LINE
  8
0
 10
-36.6527
 20
69.9696
 11
-36.5161
 21
69.9406
  0
LINE
  8
0
 10
-36.5161
 20
69.9406
 11
-36.382
 21
69.9021
  0
LINE
  8
0
 10
-36.382
 20
69.9021
 11
-36.2508
 21
69.8544
  0
LINE
  8
0
 10
-36.2508
 20
69.8544
 11
-36.1232
 21
69.7976
  0
LINE
  8
0
 10
-36.1232
 20
69.7976
 11
-36
 21
69.732
  0
LINE
  8
0
 10
-36
 20
69.732
 11
-35.8816
 21
69.6581
  0
LINE
  8
0
 10
-35.8816
 20
69.6581
 11
-35.7687
 21
69.576
  0
LINE
  8
0
 10
-35.7687
 20
69.576
 11
-35.6617
 21
69.4863
  0
LINE
  8
0
 10
-35.6617
 20
69.4863
 11
-35.5613
 21
69.3893
  0
LINE
  8
0
 10
-35.5613
 20
69.3893
 11
-35.4679
 21
69.2856
  0
LINE
  8
0
 10
-35.4679
 20
69.2856
 11
-35.382
 21
69.1756
  0
LINE
  8
0
 10
-35.382
 20
69.1756
 11
-35.3039
 21
69.0598
  0
LINE
  8
0
 10
-35.3039
 20
69.0598
 11
-35.2341
 21
68.9389
  0
LINE
  8
0
 10
-35.2341
 20
68.9389
 11
-35.1729
 21
68.8135
  0
LINE
  8
0
 10
-35.1729
 20
68.8135
 11
-35.1206
 21
68.684
  0
LINE
  8
0
 10
-35.1206
 20
68.684
 11
-35.0775
 21
68.5513
  0
LINE
  8
0
 10
-35.0775
 20
68.5513
 11
-35.0437
 21
68.4158
  0
LINE
  8
0
 10
-35.0437
 20
68.4158
 11
-35.0195
 21
68.2783
  0
LINE
  8
0
 10
-35.0195
 20
68.2783
 11
-35.0049
 21
68.1395
  0
LINE
  8
0
 10
-35.0049
 20
68.1395
 11
-35
 21
68
  0
LINE
  8
0
 10
-35
 20
68
 11
-35.0049
 21
67.8605
  0
LINE
  8
0
 10
-35.0049
 20
67.8605
 11
-35.0195
 21
67.7217
  0
LINE
  8
0
 10
-35.0195
 20
67.7217
 11
-35.0437
 21
67.5842
  0
LINE
  8
0
 10
-35.0437
 20
67.5842
 11
-35.0775
 21
67.4487
  0
LINE
  8
0
 10
-35.0775
 20
67.4487
 11
-35.1206
 21
67.316
  0
LINE
  8
0
 10
-35.1206
 20
67.316
 11
-35.1729
 21
67.1865
  0
LINE
  8
0
 10
-35.1729
 20
67.1865
 11
-35.2341
 21
67.0611
  0
LINE
  8
0
 10
-35.2341
 20
67.0611
 11
-35.3039
 21
66.9402
  0
LINE
  8
0
 10
-35.3039
 20
66.9402
 11
-35.382
 21
66.8244
  0
LINE
  8
0
 10
-35.382
 20
66.8244
 11
-35.4679
 21
66.7144
  0
LINE
  8
0
 10
-35.4679
 20
66.7144
 11
-35.5613
 21
66.6107
  0
LINE
  8
0
 10
-35.5613
 20
66.6107
 11
-35.6617
 21
66.5137
  0
LINE
  8
0
 10
-35.6617
 20
66.5137
 11
-35.7687
 21
66.424
  0
LINE
  8
0
 10
-35.7687
 20
66.424
 11
-35.8816
 21
66.3419
  0
LINE
  8
0
 10
-35.8816
 20
66.3419
 11
-36
 21
66.268
  0
LINE
  8
0
 10
-36
 20
66.268
 11
-36.1232
 21
66.2024
  0
LINE
  8
0
 10
-36.1232
 20
66.2024
 11
-36.2508
 21
66.1456
  0
LINE
  8
0
 10
-36.2508
 20
66.1456
 11
-36.382
 21
66.0979
  0
LINE
  8
0
 10
-36.382
 20
66.0979
 11
-36.5161
 21
66.0594
  0
LINE
  8
0
 10
-36.5161
 20
66.0594
 11
-36.6527
 21
66.0304
  0
LINE
  8
0
 10
-36.6527
 20
66.0304
 11
-36.7909
 21
66.011
  0
LINE
  8
0
 10
-36.7909
 20
66.011
 11
-36.9302
 21
66.0012
  0
LINE
  8
0
 10
-36.9302
 20
66.0012
 11
-37.0698
 21
66.0012
  0
LINE
  8
0
 10
26.9476
 20
48.7509
 11
26.8432
 21
48.7582
  0
LINE
  8
0
 10
26.8432
 20
48.7582
 11
26.7395
 21
48.7728
  0
LINE
  8
0
 10
26.7395
 20
48.7728
 11
26.6371
 21
48.7946
  0
LINE
  8
0
 10
26.6371
 20
48.7946
 11
26.5365
 21
48.8234
  0
LINE
  8
0
 10
26.5365
 20
48.8234
 11
26.4381
 21
48.8592
  0
LINE
  8
0
 10
26.4381
 20
48.8592
 11
26.3424
 21
48.9018
  0
LINE
  8
0
 10
26.3424
 20
48.9018
 11
26.25
 21
48.951
  0
LINE
  8
0
 10
26.25
 20
48.951
 11
26.1612
 21
49.0065
  0
LINE
  8
0
 10
26.1612
 20
49.0065
 11
26.0765
 21
49.068
  0
LINE
  8
0
 10
26.0765
 20
49.068
 11
25.9963
 21
49.1353
  0
LINE
  8
0
 10
25.9963
 20
49.1353
 11
25.921
 21
49.208
  0
LINE
  8
0
 10
25.921
 20
49.208
 11
25.8509
 21
49.2858
  0
LINE
  8
0
 10
25.8509
 20
49.2858
 11
25.7865
 21
49.3683
  0
LINE
  8
0
 10
25.7865
 20
49.3683
 11
25.7279
 21
49.4551
  0
LINE
  8
0
 10
25.7279
 20
49.4551
 11
25.6756
 21
49.5458
  0
LINE
  8
0
 10
25.6756
 20
49.5458
 11
25.6297
 21
49.6399
  0
LINE
  8
0
 10
25.6297
 20
49.6399
 11
25.5905
 21
49.737
  0
LINE
  8
0
 10
25.5905
 20
49.737
 11
25.5581
 21
49.8365
  0
LINE
  8
0
 10
25.5581
 20
49.8365
 11
25.5328
 21
49.9381
  0
LINE
  8
0
 10
25.5328
 20
49.9381
 11
25.5146
 21
50.0412
  0
LINE
  8
0
 10
25.5146
 20
50.0412
 11
25.5036
 21
50.1454
  0
LINE
  8
0
 10
25.5036
 20
50.1454
 11
25.5
 21
50.25
  0
LINE
  8
0
 10
25.5
 20
50.25
 11
25.5036
 21
50.3546
  0
LINE
  8
0
 10
25.5036
 20
50.3546
 11
25.5146
 21
50.4588
  0
LINE
  8
0
 10
25.5146
 20
50.4588
 11
25.5328
 21
50.5619
  0
LINE
  8
0
 10
25.5328
 20
50.5619
 11
25.5581
 21
50.6635
  0
LINE
  8
0
 10
25.5581
 20
50.6635
 11
25.5905
 21
50.763
  0
LINE
  8
0
 10
25.5905
 20
50.763
 11
25.6297
 21
50.8601
  0
LINE
  8
0
 10
25.6297
 20
50.8601
 11
25.6756
 21
50.9542
  0
LINE
  8
0
 10
25.6756
 20
50.9542
 11
25.7279
 21
51.0449
  0
LINE
  8
0
 10
25.7279
 20
51.0449
 11
25.7865
 21
51.1317
  0
LINE
  8
0
 10
25.7865
 20
51.1317
 11
25.8509
 21
51.2142
  0
LINE
  8
0
 10
25.8509
 20
51.2142
 11
25.921
 21
51.292
  0
LINE
  8
0
 10
25.921
 20
51.292
 11
25.9963
 21
51.3647
  0
LINE
  8
0
 10
25.9963
 20
51.3647
 11
26.0765
 21
51.432
  0
LINE
  8
0
 10
26.0765
 20
51.432
 11
26.1612
 21
51.4936
  0
LINE
  8
0
 10
26.1612
 20
51.4936
 11
26.25
 21
51.549
  0
LINE
  8
0
 10
26.25
 20
51.549
 11
26.3424
 21
51.5982
  0
LINE
  8
0
 10
26.3424
 20
51.5982
 11
26.4381
 21
51.6408
  0
LINE
  8
0
 10
26.4381
 20
51.6408
 11
26.5365
 21
51.6766
  0
LINE
  8
0
 10
26.5365
 20
51.6766
 11
26.6371
 21
51.7054
  0
LINE
  8
0
 10
26.6371
 20
51.7054
 11
26.7395
 21
51.7272
  0
LINE
  8
0
 10
26.7395
 20
51.7272
 11
26.8432
 21
51.7418
  0
LINE
  8
0
 10
26.8432
 20
51.7418
 11
26.9476
 21
51.7491
  0
LINE
  8
0
 10
26.9476
 20
51.7491
 11
27.0523
 21
51.7491
  0
LINE
  8
0
 10
27.0523
 20
51.7491
 11
27.1568
 21
51.7418
  0
LINE
  8
0
 10
27.1568
 20
51.7418
 11
27.2605
 21
51.7272
  0
LINE
  8
0
 10
27.2605
 20
51.7272
 11
27.3629
 21
51.7054
  0
LINE
  8
0
 10
27.3629
 20
51.7054
 11
27.4635
 21
51.6766
  0
LINE
  8
0
 10
27.4635
 20
51.6766
 11
27.5619
 21
51.6408
  0
LINE
  8
0
 10
27.5619
 20
51.6408
 11
27.6575
 21
51.5982
  0
LINE
  8
0
 10
27.6575
 20
51.5982
 11
27.75
 21
51.549
  0
LINE
  8
0
 10
27.75
 20
51.549
 11
27.8388
 21
51.4936
  0
LINE
  8
0
 10
27.8388
 20
51.4936
 11
27.9235
 21
51.432
  0
LINE
  8
0
 10
27.9235
 20
51.432
 11
28.0037
 21
51.3647
  0
LINE
  8
0
 10
28.0037
 20
51.3647
 11
28.079
 21
51.292
  0
LINE
  8
0
 10
28.079
 20
51.292
 11
28.1491
 21
51.2142
  0
LINE
  8
0
 10
28.1491
 20
51.2142
 11
28.2135
 21
51.1317
  0
LINE
  8
0
 10
28.2135
 20
51.1317
 11
28.2721
 21
51.0449
  0
LINE
  8
0
 10
28.2721
 20
51.0449
 11
28.3244
 21
50.9542
  0
LINE
  8
0
 10
28.3244
 20
50.9542
 11
28.3703
 21
50.8601
  0
LINE
  8
0
 10
28.3703
 20
50.8601
 11
28.4095
 21
50.763
  0
LINE
  8
0
 10
28.4095
 20
50.763
 11
28.4419
 21
50.6635
  0
LINE
  8
0
 10
28.4419
 20
50.6635
 11
28.4672
 21
50.5619
  0
LINE
  8
0
 10
28.4672
 20
50.5619
 11
28.4854
 21
50.4588
  0
LINE
  8
0
 10
28.4854
 20
50.4588
 11
28.4963
 21
50.3546
  0
LINE
  8
0
 10
28.4963
 20
50.3546
 11
28.5
 21
50.25
  0
LINE
  8
0
 10
28.5
 20
50.25
 11
28.4963
 21
50.1454
  0
LINE
  8
0
 10
28.4963
 20
50.1454
 11
28.4854
 21
50.0412
  0
LINE
  8
0
 10
28.4854
 20
50.0412
 11
28.4672
 21
49.9381
  0
LINE
  8
0
 10
28.4672
 20
49.9381
 11
28.4419
 21
49.8365
  0
LINE
  8
0
 10
28.4419
 20
49.8365
 11
28.4095
 21
49.737
  0
LINE
  8
0
 10
28.4095
 20
49.737
 11
28.3703
 21
49.6399
  0
LINE
  8
0
 10
28.3703
 20
49.6399
 11
28.3244
 21
49.5458
  0
LINE
  8
0
 10
28.3244
 20
49.5458
 11
28.2721
 21
49.4551
  0
LINE
  8
0
 10
28.2721
 20
49.4551
 11
28.2135
 21
49.3683
  0
LINE
  8
0
 10
28.2135
 20
49.3683
 11
28.1491
 21
49.2858
  0
LINE
  8
0
 10
28.1491
 20
49.2858
 11
28.079
 21
49.208
  0
LINE
  8
0
 10
28.079
 20
49.208
 11
28.0037
 21
49.1353
  0
LINE
  8
0
 10
28.0037
 20
49.1353
 11
27.9235
 21
49.068
  0
LINE
  8
0
 10
27.9235
 20
49.068
 11
27.8388
 21
49.0065
  0
LINE
  8
0
 10
27.8388
 20
49.0065
 11
27.75
 21
48.951
  0
LINE
  8
0
 10
27.75
 20
48.951
 11
27.6575
 21
48.9018
  0
LINE
  8
0
 10
27.6575
 20
48.9018
 11
27.5619
 21
48.8592
  0
LINE
  8
0
 10
27.5619
 20
48.8592
 11
27.4635
 21
48.8234
  0
LINE
  8
0
 10
27.4635
 20
48.8234
 11
27.3629
 21
48.7946
  0
LINE
  8
0
 10
27.3629
 20
48.7946
 11
27.2605
 21
48.7728
  0
LINE
  8
0
 10
27.2605
 20
48.7728
 11
27.1568
 21
48.7582
  0
LINE
  8
0
 10
27.1568
 20
48.7582
 11
27.0523
 21
48.7509
  0
LINE
  8
0
 10
27.0523
 20
48.7509
 11
26.9476
 21
48.7509
  0
LINE
  8
0
 10
-27.0523
 20
48.7509
 11
-27.1568
 21
48.7582
  0
LINE
  8
0
 10
-27.1568
 20
48.7582
 11
-27.2605
 21
48.7728
  0
LINE
  8
0
 10
-27.2605
 20
48.7728
 11
-27.3629
 21
48.7946
  0
LINE
  8
0
 10
-27.3629
 20
48.7946
 11
-27.4635
 21
48.8234
  0
LINE
  8
0
 10
-27.4635
 20
48.8234
 11
-27.5619
 21
48.8592
  0
LINE
  8
0
 10
-27.5619
 20
48.8592
 11
-27.6575
 21
48.9018
  0
LINE
  8
0
 10
-27.6575
 20
48.9018
 11
-27.75
 21
48.951
  0
LINE
  8
0
 10
-27.75
 20
48.951
 11
-27.8388
 21
49.0065
  0
LINE
  8
0
 10
-27.8388
 20
49.0065
 11
-27.9235
 21
49.068
  0
LINE
  8
0
 10
-27.9235
 20
49.068
 11
-28.0037
 21
49.1353
  0
LINE
  8
0
 10
-28.0037
 20
49.1353
 11
-28.079
 21
49.208
  0
LINE
  8
0
 10
-28.079
 20
49.208
 11
-28.1491
 21
49.2858
  0
LINE
  8
0
 10
-28.1491
 20
49.2858
 11
-28.2135
 21
49.3683
  0
LINE
  8
0
 10
-28.2135
 20
49.3683
 11
-28.2721
 21
49.4551
  0
LINE
  8
0
 10
-28.2721
 20
49.4551
 11
-28.3244
 21
49.5458
  0
LINE
  8
0
 10
-28.3244
 20
49.5458
 11
-28.3703
 21
49.6399
  0
LINE
  8
0
 10
-28.3703
 20
49.6399
 11
-28.4095
 21
49.737
  0
LINE
  8
0
 10
-28.4095
 20
49.737
 11
-28.4419
 21
49.8365
  0
LINE
  8
0
 10
-28.4419
 20
49.8365
 11
-28.4672
 21
49.9381
  0
LINE
  8
0
 10
-28.4672
 20
49.9381
 11
-28.4854
 21
50.0412
  0
LINE
  8
0
 10
-28.4854
 20
50.0412
 11
-28.4963
 21
50.1454
  0
LINE
  8
0
 10
-28.4963
 20
50.1454
 11
-28.5
 21
50.25
  0
LINE
  8
0
 10
-28.5
 20
50.25
 11
-28.4963
 21
50.3546
  0
LINE
  8
0
 10
-28.4963
 20
50.3546
 11
-28.4854
 21
50.4588
  0
LINE
  8
0
 10
-28.4854
 20
50.4588
 11
-28.4672
 21
50.5619
  0
LINE
  8
0
 10
-28.4672
 20
50.5619
 11
-28.4419
 21
50.6635
  0
LINE
  8
0
 10
-28.4419
 20
50.6635
 11
-28.4095
 21
50.763
  0
LINE
  8
0
 10
-28.4095
 20
50.763
 11
-28.3703
 21
50.8601
  0
LINE
  8
0
 10
-28.3703
 20
50.8601
 11
-28.3244
 21
50.9542
  0
LINE
  8
0
 10
-28.3244
 20
50.9542
 11
-28.2721
 21
51.0449
  0
LINE
  8
0
 10
-28.2721
 20
51.0449
 11
-28.2135
 21
51.1317
  0
LINE
  8
0
 10
-28.2135
 20
51.1317
 11
-28.1491
 21
51.2142
  0
LINE
  8
0
 10
-28.1491
 20
51.2142
 11
-28.079
 21
51.292
  0
LINE
  8
0
 10
-28.079
 20
51.292
 11
-28.0037
 21
51.3647
  0
LINE
  8
0
 10
-28.0037
 20
51.3647
 11
-27.9235
 21
51.432
  0
LINE
  8
0
 10
-27.9235
 20
51.432
 11
-27.8388
 21
51.4936
  0
LINE
  8
0
 10
-27.8388
 20
51.4936
 11
-27.75
 21
51.549
  0
LINE
  8
0
 10
-27.75
 20
51.549
 11
-27.6575
 21
51.5982
  0
LINE
  8
0
 10
-27.6575
 20
51.5982
 11
-27.5619
 21
51.6408
  0
LINE
  8
0
 10
-27.5619
 20
51.6408
 11
-27.4635
 21
51.6766
  0
LINE
  8
0
 10
-27.4635
 20
51.6766
 11
-27.3629
 21
51.7054
  0
LINE
  8
0
 10
-27.3629
 20
51.7054
 11
-27.2605
 21
51.7272
  0
LINE
  8
0
 10
-27.2605
 20
51.7272
 11
-27.1568
 21
51.7418
  0
LINE
  8
0
 10
-27.1568
 20
51.7418
 11
-27.0523
 21
51.7491
  0
LINE
  8
0
 10
-27.0523
 20
51.7491
 11
-26.9476
 21
51.7491
  0
LINE
  8
0
 10
-26.9476
 20
51.7491
 11
-26.8432
 21
51.7418
  0
LINE
  8
0
 10
-26.8432
 20
51.7418
 11
-26.7395
 21
51.7272
  0
LINE
  8
0
 10
-26.7395
 20
51.7272
 11
-26.6371
 21
51.7054
  0
LINE
  8
0
 10
-26.6371
 20
51.7054
 11
-26.5365
 21
51.6766
  0
LINE
  8
0
 10
-26.5365
 20
51.6766
 11
-26.4381
 21
51.6408
  0
LINE
  8
0
 10
-26.4381
 20
51.6408
 11
-26.3424
 21
51.5982
  0
LINE
  8
0
 10
-26.3424
 20
51.5982
 11
-26.25
 21
51.549
  0
LINE
  8
0
 10
-26.25
 20
51.549
 11
-26.1612
 21
51.4936
  0
LINE
  8
0
 10
-26.1612
 20
51.4936
 11
-26.0765
 21
51.432
  0
LINE
  8
0
 10
-26.0765
 20
51.432
 11
-25.9963
 21
51.3647
  0
LINE
  8
0
 10
-25.9963
 20
51.3647
 11
-25.921
 21
51.292
  0
LINE
  8
0
 10
-25.921
 20
51.292
 11
-25.8509
 21
51.2142
  0
LINE
  8
0
 10
-25.8509
 20
51.2142
 11
-25.7865
 21
51.1317
  0
LINE
  8
0
 10
-25.7865
 20
51.1317
 11
-25.7279
 21
51.0449
  0
LINE
  8
0
 10
-25.7279
 20
51.0449
 11
-25.6756
 21
50.9542
  0
LINE
  8
0
 10
-25.6756
 20
50.9542
 11
-25.6297
 21
50.8601
  0
LINE
  8
0
 10
-25.6297
 20
50.8601
 11
-25.5905
 21
50.763
  0
LINE
  8
0
 10
-25.5905
 20
50.763
 11
-25.5581
 21
50.6635
  0
LINE
  8
0
 10
-25.5581
 20
50.6635
 11
-25.5328
 21
50.5619
  0
LINE
  8
0
 10
-25.5328
 20
50.5619
 11
-25.5146
 21
50.4588
  0
LINE
  8
0
 10
-25.5146
 20
50.4588
 11
-25.5036
 21
50.3546
  0
LINE
  8
0
 10
-25.5036
 20
50.3546
 11
-25.5
 21
50.25
  0
LINE
  8
0
 10
-25.5
 20
50.25
 11
-25.5036
 21
50.1454
  0
LINE
  8
0
 10
-25.5036
 20
50.1454
 11
-25.5146
 21
50.0412
  0
LINE
  8
0
 10
-25.5146
 20
50.0412
 11
-25.5328
 21
49.9381
  0
LINE
  8
0
 10
-25.5328
 20
49.9381
 11
-25.5581
 21
49.8365
  0
LINE
  8
0
 10
-25.5581
 20
49.8365
 11
-25.5905
 21
49.737
  0
LINE
  8
0
 10
-25.5905
 20
49.737
 11
-25.6297
 21
49.6399
  0
LINE
  8
0
 10
-25.6297
 20
49.6399
 11
-25.6756
 21
49.5458
  0
LINE
  8
0
 10
-25.6756
 20
49.5458
 11
-25.7279
 21
49.4551
  0
LINE
  8
0
 10
-25.7279
 20
49.4551
 11
-25.7865
 21
49.3683
  0
LINE
  8
0
 10
-25.7865
 20
49.3683
 11
-25.8509
 21
49.2858
  0
LINE
  8
0
 10
-25.8509
 20
49.2858
 11
-25.921
 21
49.208
  0
LINE
  8
0
 10
-25.921
 20
49.208
 11
-25.9963
 21
49.1353
  0
LINE
  8
0
 10
-25.9963
 20
49.1353
 11
-26.0765
 21
49.068
  0
LINE
  8
0
 10
-26.0765
 20
49.068
 11
-26.1612
 21
49.0065
  0
LINE
  8
0
 10
-26.1612
 20
49.0065
 11
-26.25
 21
48.951
  0
LINE
  8
0
 10
-26.25
 20
48.951
 11
-26.3424
 21
48.9018
  0
LINE
  8
0
 10
-26.3424
 20
48.9018
 11
-26.4381
 21
48.8592
  0
LINE
  8
0
 10
-26.4381
 20
48.8592
 11
-26.5365
 21
48.8234
  0
LINE
  8
0
 10
-26.5365
 20
48.8234
 11
-26.6371
 21
48.7946
  0
LINE
  8
0
 10
-26.6371
 20
48.7946
 11
-26.7395
 21
48.7728
  0
LINE
  8
0
 10
-26.7395
 20
48.7728
 11
-26.8432
 21
48.7582
  0
LINE
  8
0
 10
-26.8432
 20
48.7582
 11
-26.9476
 21
48.7509
  0
LINE
  8
0
 10
-26.9476
 20
48.7509
 11
-27.0523
 21
48.7509
  0
LINE
  8
0
 10
1.77698
 20
2.09314
 11
2.95201
 21
2.25827
  0
LINE
  8
0
 10
2.95201
 20
2.25827
 11
4.11267
 21
2.50497
  0
LINE
  8
0
 10
4.11267
 20
2.50497
 11
5.25328
 21
2.83205
  0
LINE
  8
0
 10
5.25328
 20
2.83205
 11
6.3683
 21
3.23788
  0
LINE
  8
0
 10
6.3683
 20
3.23788
 11
7.4523
 21
3.7205
  0
LINE
  8
0
 10
7.4523
 20
3.7205
 11
8.5
 21
4.27757
  0
LINE
  8
0
 10
8.5
 20
4.27757
 11
9.50627
 21
4.90637
  0
LINE
  8
0
 10
9.50627
 20
4.90637
 11
10.4662
 21
5.60382
  0
LINE
  8
0
 10
10.4662
 20
5.60382
 11
11.3752
 21
6.36655
  0
LINE
  8
0
 10
11.3752
 20
6.36655
 11
12.2288
 21
7.19081
  0
LINE
  8
0
 10
12.2288
 20
7.19081
 11
13.0228
 21
8.07262
  0
LINE
  8
0
 10
13.0228
 20
8.07262
 11
13.7533
 21
9.00766
  0
LINE
  8
0
 10
13.7533
 20
9.00766
 11
14.4168
 21
9.99138
  0
LINE
  8
0
 10
14.4168
 20
9.99138
 11
15.0101
 21
11.019
  0
LINE
  8
0
 10
15.0101
 20
11.019
 11
15.5303
 21
12.0855
  0
LINE
  8
0
 10
15.5303
 20
12.0855
 11
15.9748
 21
13.1857
  0
LINE
  8
0
 10
15.9748
 20
13.1857
 11
16.3414
 21
14.3142
  0
LINE
  8
0
 10
16.3414
 20
14.3142
 11
16.6285
 21
15.4655
  0
LINE
  8
0
 10
16.6285
 20
15.4655
 11
16.8345
 21
16.6341
  0
LINE
  8
0
 10
16.8345
 20
16.6341
 11
16.9586
 21
17.8141
  0
LINE
  8
0
 10
16.9586
 20
17.8141
 11
17
 21
19
  0
LINE
  8
0
 10
17
 20
19
 11
16.9586
 21
20.1859
  0
LINE
  8
0
 10
16.9586
 20
20.1859
 11
16.8345
 21
21.3659
  0
LINE
  8
0
 10
16.8345
 20
21.3659
 11
16.6285
 21
22.5345
  0
LINE
  8
0
 10
16.6285
 20
22.5345
 11
16.3414
 21
23.6858
  0
LINE
  8
0
 10
16.3414
 20
23.6858
 11
15.9748
 21
24.8143
  0
LINE
  8
0
 10
15.9748
 20
24.8143
 11
15.5303
 21
25.9145
  0
LINE
  8
0
 10
15.5303
 20
25.9145
 11
15.0101
 21
26.981
  0
LINE
  8
0
 10
15.0101
 20
26.981
 11
14.4168
 21
28.0086
  0
LINE
  8
0
 10
14.4168
 20
28.0086
 11
13.7533
 21
28.9923
  0
LINE
  8
0
 10
13.7533
 20
28.9923
 11
13.0228
 21
29.9274
  0
LINE
  8
0
 10
13.0228
 20
29.9274
 11
12.2288
 21
30.8092
  0
LINE
  8
0
 10
12.2288
 20
30.8092
 11
11.3752
 21
31.6335
  0
LINE
  8
0
 10
11.3752
 20
31.6335
 11
10.4662
 21
32.3962
  0
LINE
  8
0
 10
10.4662
 20
32.3962
 11
9.50627
 21
33.0936
  0
LINE
  8
0
 10
9.50627
 20
33.0936
 11
8.5
 21
33.7224
  0
LINE
  8
0
 10
8.5
 20
33.7224
 11
7.4523
 21
34.2795
  0
LINE
  8
0
 10
7.4523
 20
34.2795
 11
6.3683
 21
34.7621
  0
LINE
  8
0
 10
6.3683
 20
34.7621
 11
5.25328
 21
35.168
  0
LINE
  8
0
 10
5.25328
 20
35.168
 11
4.11267
 21
35.495
  0
LINE
  8
0
 10
4.11267
 20
35.495
 11
2.95201
 21
35.7417
  0
LINE
  8
0
 10
2.95201
 20
35.7417
 11
1.77698
 21
35.9069
  0
LINE
  8
0
 10
1.77698
 20
35.9069
 11
0.593277
 21
35.9896
  0
LINE
  8
0
 10
0.593277
 20
35.9896
 11
-0.593277
 21
35.9896
  0
LINE
  8
0
 10
-0.593277
 20
35.9896
 11
-1.77698
 21
35.9069
  0
LINE
  8
0
 10
-1.77698
 20
35.9069
 11
-2.95201
 21
35.7417
  0
LINE
  8
0
 10
-2.95201
 20
35.7417
 11
-4.11267
 21
35.495
  0
LINE
  8
0
 10
-4.11267
 20
35.495
 11
-5.25328
 21
35.168
  0
LINE
  8
0
 10
-5.25328
 20
35.168
 11
-6.3683
 21
34.7621
  0
LINE
  8
0
 10
-6.3683
 20
34.7621
 11
-7.4523
 21
34.2795
  0
LINE
  8
0
 10
-7.4523
 20
34.2795
 11
-8.49998
 21
33.7224
  0
LINE
  8
0
 10
-8.49998
 20
33.7224
 11
-9.50627
 21
33.0936
  0
LINE
  8
0
 10
-9.50627
 20
33.0936
 11
-10.4662
 21
32.3962
  0
LINE
  8
0
 10
-10.4662
 20
32.3962
 11
-11.3752
 21
31.6335
  0
LINE
  8
0
 10
-11.3752
 20
31.6335
 11
-12.2288
 21
30.8092
  0
LINE
  8
0
 10
-12.2288
 20
30.8092
 11
-13.0228
 21
29.9274
  0
LINE
  8
0
 10
-13.0228
 20
29.9274
 11
-13.7533
 21
28.9923
  0
LINE
  8
0
 10
-13.7533
 20
28.9923
 11
-14.4168
 21
28.0086
  0
LINE
  8
0
 10
-14.4168
 20
28.0086
 11
-15.0101
 21
26.981
  0
LINE
  8
0
 10
-15.0101
 20
26.981
 11
-15.5303
 21
25.9145
  0
LINE
  8
0
 10
-15.5303
 20
25.9145
 11
-15.9748
 21
24.8143
  0
LINE
  8
0
 10
-15.9748
 20
24.8143
 11
-16.3414
 21
23.6858
  0
LINE
  8
0
 10
-16.3414
 20
23.6858
 11
-16.6285
 21
22.5345
  0
LINE
  8
0
 10
-16.6285
 20
22.5345
 11
-16.8345
 21
21.3659
  0
LINE
  8
0
 10
-16.8345
 20
21.3659
 11
-16.9586
 21
20.1859
  0
LINE
  8
0
 10
-16.9586
 20
20.1859
 11
-17
 21
19
  0
LINE
  8
0
 10
-17
 20
19
 11
-16.9586
 21
17.8141
  0
LINE
  8
0
 10
-16.9586
 20
17.8141
 11
-16.8345
 21
16.6341
  0
LINE
  8
0
 10
-16.8345
 20
16.6341
 11
-16.6285
 21
15.4655
  0
LINE
  8
0
 10
-16.6285
 20
15.4655
 11
-16.3414
 21
14.3142
  0
LINE
  8
0
 10
-16.3414
 20
14.3142
 11
-15.9748
 21
13.1857
  0
LINE
  8
0
 10
-15.9748
 20
13.1857
 11
-15.5303
 21
12.0855
  0
LINE
  8
0
 10
-15.5303
 20
12.0855
 11
-15.0101
 21
11.019
  0
LINE
  8
0
 10
-15.0101
 20
11.019
 11
-14.4168
 21
9.99138
  0
LINE
  8
0
 10
-14.4168
 20
9.99138
 11
-13.7533
 21
9.00766
  0
LINE
  8
0
 10
-13.7533
 20
9.00766
 11
-13.0228
 21
8.07262
  0
LINE
  8
0
 10
-13.0228
 20
8.07262
 11
-12.2288
 21
7.19081
  0
LINE
  8
0
 10
-12.2288
 20
7.19081
 11
-11.3752
 21
6.36655
  0
LINE
  8
0
 10
-11.3752
 20
6.36655
 11
-10.4662
 21
5.60382
  0
LINE
  8
0
 10
-10.4662
 20
5.60382
 11
-9.50627
 21
4.90637
  0
LINE
  8
0
 10
-9.50627
 20
4.90637
 11
-8.5
 21
4.27757
  0
LINE
  8
0
 10
-8.5
 20
4.27757
 11
-7.4523
 21
3.7205
  0
LINE
  8
0
 10
-7.4523
 20
3.7205
 11
-6.3683
 21
3.23788
  0
LINE
  8
0
 10
-6.3683
 20
3.23788
 11
-5.25328
 21
2.83205
  0
LINE
  8
0
 10
-5.25328
 20
2.83205
 11
-4.11267
 21
2.50497
  0
LINE
  8
0
 10
-4.11267
 20
2.50497
 11
-2.95201
 21
2.25827
  0
LINE
  8
0
 10
-2.95201
 20
2.25827
 11
-1.77698
 21
2.09314
  0
LINE
  8
0
 10
-1.77698
 20
2.09314
 11
-0.593277
 21
2.01036
  0
LINE
  8
0
 10
-0.593277
 20
2.01036
 11
0.593277
 21
2.01036
  0
LINE
  8
0
 10
0.593277
 20
2.01036
 11
1.77698
 21
2.09314
  0
LINE
  8
0
 10
-0.0872345
 20
16.5015
 11
-0.261307
 21
16.5137
  0
LINE
  8
0
 10
-0.261307
 20
16.5137
 11
-0.434113
 21
16.538
  0
LINE
  8
0
 10
-0.434113
 20
16.538
 11
-0.604797
 21
16.5743
  0
LINE
  8
0
 10
-0.604797
 20
16.5743
 11
-0.772537
 21
16.6224
  0
LINE
  8
0
 10
-0.772537
 20
16.6224
 11
-0.936508
 21
16.6821
  0
LINE
  8
0
 10
-0.936508
 20
16.6821
 11
-1.09592
 21
16.753
  0
LINE
  8
0
 10
-1.09592
 20
16.753
 11
-1.25
 21
16.8349
  0
LINE
  8
0
 10
-1.25
 20
16.8349
 11
-1.39798
 21
16.9274
  0
LINE
  8
0
 10
-1.39798
 20
16.9274
 11
-1.53914
 21
17.03
  0
LINE
  8
0
 10
-1.53914
 20
17.03
 11
-1.67282
 21
17.1422
  0
LINE
  8
0
 10
-1.67282
 20
17.1422
 11
-1.79834
 21
17.2634
  0
LINE
  8
0
 10
-1.79834
 20
17.2634
 11
-1.9151
 21
17.393
  0
LINE
  8
0
 10
-1.9151
 20
17.393
 11
-2.02254
 21
17.5305
  0
LINE
  8
0
 10
-2.02254
 20
17.5305
 11
-2.12012
 21
17.6752
  0
LINE
  8
0
 10
-2.12012
 20
17.6752
 11
-2.20737
 21
17.8263
  0
LINE
  8
0
 10
-2.20737
 20
17.8263
 11
-2.28386
 21
17.9832
  0
LINE
  8
0
 10
-2.28386
 20
17.9832
 11
-2.34923
 21
18.145
  0
LINE
  8
0
 10
-2.34923
 20
18.145
 11
-2.40315
 21
18.3109
  0
LINE
  8
0
 10
-2.40315
 20
18.3109
 11
-2.44536
 21
18.4802
  0
LINE
  8
0
 10
-2.44536
 20
18.4802
 11
-2.47566
 21
18.6521
  0
LINE
  8
0
 10
-2.47566
 20
18.6521
 11
-2.4939
 21
18.8256
  0
LINE
  8
0
 10
-2.4939
 20
18.8256
 11
-2.5
 21
19
  0
LINE
  8
0
 10
-2.5
 20
19
 11
-2.4939
 21
19.1744
  0
LINE
  8
0
 10
-2.4939
 20
19.1744
 11
-2.47566
 21
19.3479
  0
LINE
  8
0
 10
-2.47566
 20
19.3479
 11
-2.44536
 21
19.5198
  0
LINE
  8
0
 10
-2.44536
 20
19.5198
 11
-2.40315
 21
19.6891
  0
LINE
  8
0
 10
-2.40315
 20
19.6891
 11
-2.34923
 21
19.855
  0
LINE
  8
0
 10
-2.34923
 20
19.855
 11
-2.28386
 21
20.0168
  0
LINE
  8
0
 10
-2.28386
 20
20.0168
 11
-2.20737
 21
20.1737
  0
LINE
  8
0
 10
-2.20737
 20
20.1737
 11
-2.12012
 21
20.3248
  0
LINE
  8
0
 10
-2.12012
 20
20.3248
 11
-2.02254
 21
20.4695
  0
LINE
  8
0
 10
-2.02254
 20
20.4695
 11
-1.9151
 21
20.607
  0
LINE
  8
0
 10
-1.9151
 20
20.607
 11
-1.79834
 21
20.7366
  0
LINE
  8
0
 10
-1.79834
 20
20.7366
 11
-1.67282
 21
20.8578
  0
LINE
  8
0
 10
-1.67282
 20
20.8578
 11
-1.53914
 21
20.97
  0
LINE
  8
0
 10
-1.53914
 20
20.97
 11
-1.39798
 21
21.0726
  0
LINE
  8
0
 10
-1.39798
 20
21.0726
 11
-1.24998
 21
21.1651
  0
LINE
  8
0
 10
-1.24998
 20
21.1651
 11
-1.09592
 21
21.247
  0
LINE
  8
0
 10
-1.09592
 20
21.247
 11
-0.936508
 21
21.3179
  0
LINE
  8
0
 10
-0.936508
 20
21.3179
 11
-0.772537
 21
21.3776
  0
LINE
  8
0
 10
-0.772537
 20
21.3776
 11
-0.604797
 21
21.4257
  0
LINE
  8
0
 10
-0.604797
 20
21.4257
 11
-0.434113
 21
21.462
  0
LINE
  8
0
 10
-0.434113
 20
21.462
 11
-0.261307
 21
21.4863
  0
LINE
  8
0
 10
-0.261307
 20
21.4863
 11
-0.0872345
 21
21.4985
  0
LINE
  8
0
 10
-0.0872345
 20
21.4985
 11
0.0872345
 21
21.4985
  0
LINE
  8
0
 10
0.0872345
 20
21.4985
 11
0.261307
 21
21.4863
  0
LINE
  8
0
 10
0.261307
 20
21.4863
 11
0.434113
 21
21.462
  0
LINE
  8
0
 10
0.434113
 20
21.462
 11
0.604797
 21
21.4257
  0
LINE
  8
0
 10
0.604797
 20
21.4257
 11
0.772537
 21
21.3776
  0
LINE
  8
0
 10
0.772537
 20
21.3776
 11
0.936508
 21
21.3179
  0
LINE
  8
0
 10
0.936508
 20
21.3179
 11
1.09592
 21
21.247
  0
LINE
  8
0
 10
1.09592
 20
21.247
 11
1.25
 21
21.1651
  0
LINE
  8
0
 10
1.25
 20
21.1651
 11
1.39798
 21
21.0726
  0
LINE
  8
0
 10
1.39798
 20
21.0726
 11
1.53914
 21
20.97
  0
LINE
  8
0
 10
1.53914
 20
20.97
 11
1.67282
 21
20.8578
  0
LINE
  8
0
 10
1.67282
 20
20.8578
 11
1.79834
 21
20.7366
  0
LINE
  8
0
 10
1.79834
 20
20.7366
 11
1.9151
 21
20.607
  0
LINE
  8
0
 10
1.9151
 20
20.607
 11
2.02254
 21
20.4695
  0
LINE
  8
0
 10
2.02254
 20
20.4695
 11
2.12012
 21
20.3248
  0
LINE
  8
0
 10
2.12012
 20
20.3248
 11
2.20737
 21
20.1737
  0
LINE
  8
0
 10
2.20737
 20
20.1737
 11
2.28386
 21
20.0168
  0
LINE
  8
0
 10
2.28386
 20
20.0168
 11
2.34923
 21
19.855
  0
LINE
  8
0
 10
2.34923
 20
19.855
 11
2.40315
 21
19.6891
  0
LINE
  8
0
 10
2.40315
 20
19.6891
 11
2.44536
 21
19.5198
  0
LINE
  8
0
 10
2.44536
 20
19.5198
 11
2.47566
 21
19.3479
  0
LINE
  8
0
 10
2.47566
 20
19.3479
 11
2.4939
 21
19.1744
  0
LINE
  8
0
 10
2.4939
 20
19.1744
 11
2.5
 21
19
  0
LINE
  8
0
 10
2.5
 20
19
 11
2.4939
 21
18.8256
  0
LINE
  8
0
 10
2.4939
 20
18.8256
 11
2.47566
 21
18.6521
  0
LINE
  8
0
 10
2.47566
 20
18.6521
 11
2.44536
 21
18.4802
  0
LINE
  8
0
 10
2.44536
 20
18.4802
 11
2.40315
 21
18.3109
  0
LINE
  8
0
 10
2.40315
 20
18.3109
 11
2.34923
 21
18.145
  0
LINE
  8
0
 10
2.34923
 20
18.145
 11
2.28386
 21
17.9832
  0
LINE
  8
0
 10
2.28386
 20
17.9832
 11
2.20737
 21
17.8263
  0
LINE
  8
0
 10
2.20737
 20
17.8263
 11
2.12012
 21
17.6752
  0
LINE
  8
0
 10
2.12012
 20
17.6752
 11
2.02254
 21
17.5305
  0
LINE
  8
0
 10
2.02254
 20
17.5305
 11
1.9151
 21
17.393
  0
LINE
  8
0
 10
1.9151
 20
17.393
 11
1.79834
 21
17.2634
  0
LINE
  8
0
 10
1.79834
 20
17.2634
 11
1.67282
 21
17.1422
  0
LINE
  8
0
 10
1.67282
 20
17.1422
 11
1.53914
 21
17.03
  0
LINE
  8
0
 10
1.53914
 20
17.03
 11
1.39798
 21
16.9274
  0
LINE
  8
0
 10
1.39798
 20
16.9274
 11
1.25
 21
16.8349
  0
LINE
  8
0
 10
1.25
 20
16.8349
 11
1.09592
 21
16.753
  0
LINE
  8
0
 10
1.09592
 20
16.753
 11
0.936508
 21
16.6821
  0
LINE
  8
0
 10
0.936508
 20
16.6821
 11
0.772537
 21
16.6224
  0
LINE
  8
0
 10
0.772537
 20
16.6224
 11
0.604797
 21
16.5743
  0
LINE
  8
0
 10
0.604797
 20
16.5743
 11
0.434113
 21
16.538
  0
LINE
  8
0
 10
0.434113
 20
16.538
 11
0.261307
 21
16.5137
  0
LINE
  8
0
 10
0.261307
 20
16.5137
 11
0.0872345
 21
16.5015
  0
LINE
  8
0
 10
0.0872345
 20
16.5015
 11
-0.0872345
 21
16.5015
  0
LINE
  8
0
 10
-36.8605
 20
-25.4951
 11
-36.7216
 21
-25.4805
  0
LINE
  8
0
 10
-36.7216
 20
-25.4805
 11
-36.5842
 21
-25.4563
  0
LINE
  8
0
 10
-36.5842
 20
-25.4563
 11
-36.4487
 21
-25.4225
  0
LINE
  8
0
 10
-36.4487
 20
-25.4225
 11
-36.3159
 21
-25.3794
  0
LINE
  8
0
 10
-36.3159
 20
-25.3794
 11
-36.1865
 21
-25.3271
  0
LINE
  8
0
 10
-36.1865
 20
-25.3271
 11
-36.0611
 21
-25.2659
  0
LINE
  8
0
 10
-36.0611
 20
-25.2659
 11
-35.9402
 21
-25.1961
  0
LINE
  8
0
 10
-35.9402
 20
-25.1961
 11
-35.8244
 21
-25.118
  0
LINE
  8
0
 10
-35.8244
 20
-25.118
 11
-35.7144
 21
-25.0321
  0
LINE
  8
0
 10
-35.7144
 20
-25.0321
 11
-20.6107
 21
-11.4387
  0
LINE
  8
0
 10
-20.6107
 20
-11.4387
 11
-20.5137
 21
-11.3382
  0
LINE
  8
0
 10
-20.5137
 20
-11.3382
 11
-20.424
 21
-11.2313
  0
LINE
  8
0
 10
-20.424
 20
-11.2313
 11
-20.3419
 21
-11.1184
  0
LINE
  8
0
 10
-20.3419
 20
-11.1184
 11
-20.2679
 21
-11
  0
LINE
  8
0
 10
-20.2679
 20
-11
 11
-20.2024
 21
-10.8767
  0
LINE
  8
0
 10
-20.2024
 20
-10.8767
 11
-20.1456
 21
-10.7492
  0
LINE
  8
0
 10
-20.1456
 20
-10.7492
 11
-20.0979
 21
-10.618
  0
LINE
  8
0
 10
-20.0979
 20
-10.618
 11
-20.0594
 21
-10.4838
  0
LINE
  8
0
 10
-20.0594
 20
-10.4838
 11
-20.0304
 21
-10.3473
  0
LINE
  8
0
 10
-20.0304
 20
-10.3473
 11
-20.011
 21
-10.209
  0
LINE
  8
0
 10
-20.011
 20
-10.209
 11
-20.0012
 21
-10.0698
  0
LINE
  8
0
 10
-20.0012
 20
-10.0698
 11
-20.0012
 21
10.0698
  0
LINE
  8
0
 10
-20.0012
 20
10.0698
 11
-20.011
 21
10.209
  0
LINE
  8
0
 10
-20.011
 20
10.209
 11
-20.0304
 21
10.3473
  0
LINE
  8
0
 10
-20.0304
 20
10.3473
 11
-20.0594
 21
10.4838
  0
LINE
  8
0
 10
-20.0594
 20
10.4838
 11
-20.0979
 21
10.618
  0
LINE
  8
0
 10
-20.0979
 20
10.618
 11
-20.1456
 21
10.7492
  0
LINE
  8
0
 10
-20.1456
 20
10.7492
 11
-20.2024
 21
10.8767
  0
LINE
  8
0
 10
-20.2024
 20
10.8767
 11
-20.268
 21
11
  0
LINE
  8
0
 10
-20.268
 20
11
 11
-20.3419
 21
11.1184
  0
LINE
  8
0
 10
-20.3419
 20
11.1184
 11
-20.424
 21
11.2313
  0
LINE
  8
0
 10
-20.424
 20
11.2313
 11
-20.5137
 21
11.3383
  0
LINE
  8
0
 10
-20.5137
 20
11.3383
 11
-20.6107
 21
11.4387
  0
LINE
  8
0
 10
-20.6107
 20
11.4387
 11
-35.7144
 21
25.0321
  0
LINE
  8
0
 10
-35.7144
 20
25.0321
 11
-35.8244
 21
25.118
  0
LINE
  8
0
 10
-35.8244
 20
25.118
 11
-35.9402
 21
25.1961
  0
LINE
  8
0
 10
-35.9402
 20
25.1961
 11
-36.0611
 21
25.2659
  0
LINE
  8
0
 10
-36.0611
 20
25.2659
 11
-36.1865
 21
25.3271
  0
LINE
  8
0
 10
-36.1865
 20
25.3271
 11
-36.316
 21
25.3794
  0
LINE
  8
0
 10
-36.316
 20
25.3794
 11
-36.4487
 21
25.4225
  0
LINE
  8
0
 10
-36.4487
 20
25.4225
 11
-36.5842
 21
25.4563
  0
LINE
  8
0
 10
-36.5842
 20
25.4563
 11
-36.7217
 21
25.4805
  0
LINE
  8
0
 10
-36.7217
 20
25.4805
 11
-36.8605
 21
25.4951
  0
LINE
  8
0
 10
-36.8605
 20
25.4951
 11
-37
 21
25.5
  0
LINE
  8
0
 10
-37
 20
25.5
 11
-47
 21
25.5
  0
LINE
  8
0
 10
-47
 20
25.5
 11
-47.1395
 21
25.4951
  0
LINE
  8
0
 10
-47.1395
 20
25.4951
 11
-47.2783
 21
25.4805
  0
LINE
  8
0
 10
-47.2783
 20
25.4805
 11
-47.4158
 21
25.4563
  0
LINE
  8
0
 10
-47.4158
 20
25.4563
 11
-47.5513
 21
25.4225
  0
LINE
  8
0
 10
-47.5513
 20
25.4225
 11
-47.684
 21
25.3794
  0
LINE
  8
0
 10
-47.684
 20
25.3794
 11
-47.8135
 21
25.3271
  0
LINE
  8
0
 10
-47.8135
 20
25.3271
 11
-47.9389
 21
25.2659
  0
LINE
  8
0
 10
-47.9389
 20
25.2659
 11
-48.0598
 21
25.1961
  0
LINE
  8
0
 10
-48.0598
 20
25.1961
 11
-48.1756
 21
25.118
  0
LINE
  8
0
 10
-48.1756
 20
25.118
 11
-48.2856
 21
25.0321
  0
LINE
  8
0
 10
-48.2856
 20
25.0321
 11
-48.3893
 21
24.9387
  0
LINE
  8
0
 10
-48.3893
 20
24.9387
 11
-48.4863
 21
24.8383
  0
LINE
  8
0
 10
-48.4863
 20
24.8383
 11
-48.576
 21
24.7313
  0
LINE
  8
0
 10
-48.576
 20
24.7313
 11
-48.6581
 21
24.6184
  0
LINE
  8
0
 10
-48.6581
 20
24.6184
 11
-48.732
 21
24.5
  0
LINE
  8
0
 10
-48.732
 20
24.5
 11
-48.7976
 21
24.3767
  0
LINE
  8
0
 10
-48.7976
 20
24.3767
 11
-48.8544
 21
24.2492
  0
LINE
  8
0
 10
-48.8544
 20
24.2492
 11
-48.9021
 21
24.118
  0
LINE
  8
0
 10
-48.9021
 20
24.118
 11
-48.9406
 21
23.9838
  0
LINE
  8
0
 10
-48.9406
 20
23.9838
 11
-48.9696
 21
23.8473
  0
LINE
  8
0
 10
-48.9696
 20
23.8473
 11
-48.989
 21
23.709
  0
LINE
  8
0
 10
-48.989
 20
23.709
 11
-48.9988
 21
23.5698
  0
LINE
  8
0
 10
-48.9988
 20
23.5698
 11
-48.9988
 21
-23.5698
  0
LINE
  8
0
 10
-48.9988
 20
-23.5698
 11
-48.989
 21
-23.709
  0
LINE
  8
0
 10
-48.989
 20
-23.709
 11
-48.9696
 21
-23.8473
  0
LINE
  8
0
 10
-48.9696
 20
-23.8473
 11
-48.9406
 21
-23.9838
  0
LINE
  8
0
 10
-48.9406
 20
-23.9838
 11
-48.9021
 21
-24.118
  0
LINE
  8
0
 10
-48.9021
 20
-24.118
 11
-48.8543
 21
-24.2492
  0
LINE
  8
0
 10
-48.8543
 20
-24.2492
 11
-48.7976
 21
-24.3767
  0
LINE
  8
0
 10
-48.7976
 20
-24.3767
 11
-48.732
 21
-24.5
  0
LINE
  8
0
 10
-48.732
 20
-24.5
 11
-48.6581
 21
-24.6184
  0
LINE
  8
0
 10
-48.6581
 20
-24.6184
 11
-48.576
 21
-24.7313
  0
LINE
  8
0
 10
-48.576
 20
-24.7313
 11
-48.4863
 21
-24.8383
  0
LINE
  8
0
 10
-48.4863
 20
-24.8383
 11
-48.3893
 21
-24.9387
  0
LINE
  8
0
 10
-48.3893
 20
-24.9387
 11
-48.2856
 21
-25.0321
  0
LINE
  8
0
 10
-48.2856
 20
-25.0321
 11
-48.1756
 21
-25.118
  0
LINE
  8
0
 10
-48.1756
 20
-25.118
 11
-48.0598
 21
-25.1961
  0
LINE
  8
0
 10
-48.0598
 20
-25.1961
 11
-47.9389
 21
-25.2659
  0
LINE
  8
0
 10
-47.9389
 20
-25.2659
 11
-47.8134
 21
-25.3271
  0
LINE
  8
0
 10
-47.8134
 20
-25.3271
 11
-47.684
 21
-25.3794
  0
LINE
  8
0
 10
-47.684
 20
-25.3794
 11
-47.5513
 21
-25.4225
  0
LINE
  8
0
 10
-47.5513
 20
-25.4225
 11
-47.4158
 21
-25.4563
  0
LINE
  8
0
 10
-47.4158
 20
-25.4563
 11
-47.2783
 21
-25.4805
  0
LINE
  8
0
 10
-47.2783
 20
-25.4805
 11
-47.1395
 21
-25.4951
  0
LINE
  8
0
 10
-47.1395
 20
-25.4951
 11
-47
 21
-25.5
  0
LINE
  8
0
 10
-47
 20
-25.5
 11
-37
 21
-25.5
  0
LINE
  8
0
 10
-37
 20
-25.5
 11
-36.8605
 21
-25.4951
  0
LINE
  8
0
 10
-42.1395
 20
16.5049
 11
-42.2783
 21
16.5195
  0
LINE
  8
0
 10
-42.2783
 20
16.5195
 11
-42.4158
 21
16.5437
  0
LINE
  8
0
 10
-42.4158
 20
16.5437
 11
-42.5513
 21
16.5775
  0
LINE
  8
0
 10
-42.5513
 20
16.5775
 11
-42.684
 21
16.6206
  0
LINE
  8
0
 10
-42.684
 20
16.6206
 11
-42.8135
 21
16.6729
  0
LINE
  8
0
 10
-42.8135
 20
16.6729
 11
-42.9389
 21
16.7341
  0
LINE
  8
0
 10
-42.9389
 20
16.7341
 11
-43.0598
 21
16.8039
  0
LINE
  8
0
 10
-43.0598
 20
16.8039
 11
-43.1756
 21
16.882
  0
LINE
  8
0
 10
-43.1756
 20
16.882
 11
-43.2856
 21
16.9679
  0
LINE
  8
0
 10
-43.2856
 20
16.9679
 11
-43.3893
 21
17.0613
  0
LINE
  8
0
 10
-43.3893
 20
17.0613
 11
-43.4863
 21
17.1617
  0
LINE
  8
0
 10
-43.4863
 20
17.1617
 11
-43.576
 21
17.2687
  0
LINE
  8
0
 10
-43.576
 20
17.2687
 11
-43.6581
 21
17.3816
  0
LINE
  8
0
 10
-43.6581
 20
17.3816
 11
-43.732
 21
17.5
  0
LINE
  8
0
 10
-43.732
 20
17.5
 11
-43.7976
 21
17.6232
  0
LINE
  8
0
 10
-43.7976
 20
17.6232
 11
-43.8544
 21
17.7508
  0
LINE
  8
0
 10
-43.8544
 20
17.7508
 11
-43.9021
 21
17.882
  0
LINE
  8
0
 10
-43.9021
 20
17.882
 11
-43.9406
 21
18.0161
  0
LINE
  8
0
 10
-43.9406
 20
18.0161
 11
-43.9696
 21
18.1527
  0
LINE
  8
0
 10
-43.9696
 20
18.1527
 11
-43.989
 21
18.2909
  0
LINE
  8
0
 10
-43.989
 20
18.2909
 11
-43.9988
 21
18.4302
  0
LINE
  8
0
 10
-43.9988
 20
18.4302
 11
-43.9988
 21
18.5698
  0
LINE
  8
0
 10
-43.9988
 20
18.5698
 11
-43.989
 21
18.709
  0
LINE
  8
0
 10
-43.989
 20
18.709
 11
-43.9696
 21
18.8473
  0
LINE
  8
0
 10
-43.9696
 20
18.8473
 11
-43.9406
 21
18.9838
  0
LINE
  8
0
 10
-43.9406
 20
18.9838
 11
-43.9021
 21
19.118
  0
LINE
  8
0
 10
-43.9021
 20
19.118
 11
-43.8544
 21
19.2492
  0
LINE
  8
0
 10
-43.8544
 20
19.2492
 11
-43.7976
 21
19.3767
  0
LINE
  8
0
 10
-43.7976
 20
19.3767
 11
-43.732
 21
19.5
  0
LINE
  8
0
 10
-43.732
 20
19.5
 11
-43.6581
 21
19.6184
  0
LINE
  8
0
 10
-43.6581
 20
19.6184
 11
-43.576
 21
19.7313
  0
LINE
  8
0
 10
-43.576
 20
19.7313
 11
-43.4863
 21
19.8383
  0
LINE
  8
0
 10
-43.4863
 20
19.8383
 11
-43.3893
 21
19.9387
  0
LINE
  8
0
 10
-43.3893
 20
19.9387
 11
-43.2856
 21
20.0321
  0
LINE
  8
0
 10
-43.2856
 20
20.0321
 11
-43.1756
 21
20.118
  0
LINE
  8
0
 10
-43.1756
 20
20.118
 11
-43.0598
 21
20.1961
  0
LINE
  8
0
 10
-43.0598
 20
20.1961
 11
-42.9389
 21
20.2659
  0
LINE
  8
0
 10
-42.9389
 20
20.2659
 11
-42.8135
 21
20.3271
  0
LINE
  8
0
 10
-42.8135
 20
20.3271
 11
-42.684
 21
20.3794
  0
LINE
  8
0
 10
-42.684
 20
20.3794
 11
-42.5513
 21
20.4225
  0
LINE
  8
0
 10
-42.5513
 20
20.4225
 11
-42.4158
 21
20.4563
  0
LINE
  8
0
 10
-42.4158
 20
20.4563
 11
-42.2783
 21
20.4805
  0
LINE
  8
0
 10
-42.2783
 20
20.4805
 11
-42.1395
 21
20.4951
  0
LINE
  8
0
 10
-42.1395
 20
20.4951
 11
-42
 21
20.5
  0
LINE
  8
0
 10
-42
 20
20.5
 11
-41.8605
 21
20.4951
  0
LINE
  8
0
 10
-41.8605
 20
20.4951
 11
-41.7217
 21
20.4805
  0
LINE
  8
0
 10
-41.7217
 20
20.4805
 11
-41.5842
 21
20.4563
  0
LINE
  8
0
 10
-41.5842
 20
20.4563
 11
-41.4487
 21
20.4225
  0
LINE
  8
0
 10
-41.4487
 20
20.4225
 11
-41.316
 21
20.3794
  0
LINE
  8
0
 10
-41.316
 20
20.3794
 11
-41.1865
 21
20.3271
  0
LINE
  8
0
 10
-41.1865
 20
20.3271
 11
-41.0611
 21
20.2659
  0
LINE
  8
0
 10
-41.0611
 20
20.2659
 11
-40.9402
 21
20.1961
  0
LINE
  8
0
 10
-40.9402
 20
20.1961
 11
-40.8244
 21
20.118
  0
LINE
  8
0
 10
-40.8244
 20
20.118
 11
-40.7144
 21
20.0321
  0
LINE
  8
0
 10
-40.7144
 20
20.0321
 11
-40.6107
 21
19.9387
  0
LINE
  8
0
 10
-40.6107
 20
19.9387
 11
-40.5137
 21
19.8383
  0
LINE
  8
0
 10
-40.5137
 20
19.8383
 11
-40.424
 21
19.7313
  0
LINE
  8
0
 10
-40.424
 20
19.7313
 11
-40.3419
 21
19.6184
  0
LINE
  8
0
 10
-40.3419
 20
19.6184
 11
-40.268
 21
19.5
  0
LINE
  8
0
 10
-40.268
 20
19.5
 11
-40.2024
 21
19.3767
  0
LINE
  8
0
 10
-40.2024
 20
19.3767
 11
-40.1456
 21
19.2492
  0
LINE
  8
0
 10
-40.1456
 20
19.2492
 11
-40.0979
 21
19.118
  0
LINE
  8
0
 10
-40.0979
 20
19.118
 11
-40.0594
 21
18.9838
  0
LINE
  8
0
 10
-40.0594
 20
18.9838
 11
-40.0304
 21
18.8473
  0
LINE
  8
0
 10
-40.0304
 20
18.8473
 11
-40.011
 21
18.709
  0
LINE
  8
0
 10
-40.011
 20
18.709
 11
-40.0012
 21
18.5698
  0
LINE
  8
0
 10
-40.0012
 20
18.5698
 11
-40.0012
 21
18.4302
  0
LINE
  8
0
 10
-40.0012
 20
18.4302
 11
-40.011
 21
18.2909
  0
LINE
  8
0
 10
-40.011
 20
18.2909
 11
-40.0304
 21
18.1527
  0
LINE
  8
0
 10
-40.0304
 20
18.1527
 11
-40.0594
 21
18.0161
  0
LINE
  8
0
 10
-40.0594
 20
18.0161
 11
-40.0979
 21
17.882
  0
LINE
  8
0
 10
-40.0979
 20
17.882
 11
-40.1456
 21
17.7508
  0
LINE
  8
0
 10
-40.1456
 20
17.7508
 11
-40.2024
 21
17.6232
  0
LINE
  8
0
 10
-40.2024
 20
17.6232
 11
-40.268
 21
17.5
  0
LINE
  8
0
 10
-40.268
 20
17.5
 11
-40.3419
 21
17.3816
  0
LINE
  8
0
 10
-40.3419
 20
17.3816
 11
-40.424
 21
17.2687
  0
LINE
  8
0
 10
-40.424
 20
17.2687
 11
-40.5137
 21
17.1617
  0
LINE
  8
0
 10
-40.5137
 20
17.1617
 11
-40.6107
 21
17.0613
  0
LINE
  8
0
 10
-40.6107
 20
17.0613
 11
-40.7144
 21
16.9679
  0
LINE
  8
0
 10
-40.7144
 20
16.9679
 11
-40.8244
 21
16.882
  0
LINE
  8
0
 10
-40.8244
 20
16.882
 11
-40.9402
 21
16.8039
  0
LINE
  8
0
 10
-40.9402
 20
16.8039
 11
-41.0611
 21
16.7341
  0
LINE
  8
0
 10
-41.0611
 20
16.7341
 11
-41.1865
 21
16.6729
  0
LINE
  8
0
 10
-41.1865
 20
16.6729
 11
-41.316
 21
16.6206
  0
LINE
  8
0
 10
-41.316
 20
16.6206
 11
-41.4487
 21
16.5775
  0
LINE
  8
0
 10
-41.4487
 20
16.5775
 11
-41.5842
 21
16.5437
  0
LINE
  8
0
 10
-41.5842
 20
16.5437
 11
-41.7217
 21
16.5195
  0
LINE
  8
0
 10
-41.7217
 20
16.5195
 11
-41.8605
 21
16.5049
  0
LINE
  8
0
 10
-41.8605
 20
16.5049
 11
-42
 21
16.5
  0
LINE
  8
0
 10
-42
 20
16.5
 11
-42.1395
 21
16.5049
  0
LINE
  8
0
 10
-27.1395
 20
-1.9951
 11
-27.2784
 21
-1.98051
  0
LINE
  8
0
 10
-27.2784
 20
-1.98051
 11
-27.4158
 21
-1.95627
  0
LINE
  8
0
 10
-27.4158
 20
-1.95627
 11
-27.5513
 21
-1.9225
  0
LINE
  8
0
 10
-27.5513
 20
-1.9225
 11
-27.6841
 21
-1.87936
  0
LINE
  8
0
 10
-27.6841
 20
-1.87936
 11
-27.8135
 21
-1.82707
  0
LINE
  8
0
 10
-27.8135
 20
-1.82707
 11
-27.9389
 21
-1.76587
  0
LINE
  8
0
 10
-27.9389
 20
-1.76587
 11
-28.0598
 21
-1.69608
  0
LINE
  8
0
 10
-28.0598
 20
-1.69608
 11
-28.1756
 21
-1.61801
  0
LINE
  8
0
 10
-28.1756
 20
-1.61801
 11
-28.2856
 21
-1.53206
  0
LINE
  8
0
 10
-28.2856
 20
-1.53206
 11
-28.3893
 21
-1.43866
  0
LINE
  8
0
 10
-28.3893
 20
-1.43866
 11
-28.4863
 21
-1.33824
  0
LINE
  8
0
 10
-28.4863
 20
-1.33824
 11
-28.576
 21
-1.23129
  0
LINE
  8
0
 10
-28.576
 20
-1.23129
 11
-28.6581
 21
-1.11836
  0
LINE
  8
0
 10
-28.6581
 20
-1.11836
 11
-28.7321
 21
-0.999985
  0
LINE
  8
0
 10
-28.7321
 20
-0.999985
 11
-28.7976
 21
-0.876724
  0
LINE
  8
0
 10
-28.7976
 20
-0.876724
 11
-28.8544
 21
-0.749191
  0
LINE
  8
0
 10
-28.8544
 20
-0.749191
 11
-28.9021
 21
-0.618011
  0
LINE
  8
0
 10
-28.9021
 20
-0.618011
 11
-28.9406
 21
-0.483826
  0
LINE
  8
0
 10
-28.9406
 20
-0.483826
 11
-28.9696
 21
-0.347275
  0
LINE
  8
0
 10
-28.9696
 20
-0.347275
 11
-28.989
 21
-0.20903
  0
LINE
  8
0
 10
-28.989
 20
-0.20903
 11
-28.9988
 21
-0.0697784
  0
LINE
  8
0
 10
-28.9988
 20
-0.0697784
 11
-28.9988
 21
0.0697937
  0
LINE
  8
0
 10
-28.9988
 20
0.0697937
 11
-28.989
 21
0.209045
  0
LINE
  8
0
 10
-28.989
 20
0.209045
 11
-28.9696
 21
0.34729
  0
LINE
  8
0
 10
-28.9696
 20
0.34729
 11
-28.9406
 21
0.483841
  0
LINE
  8
0
 10
-28.9406
 20
0.483841
 11
-28.9021
 21
0.618027
  0
LINE
  8
0
 10
-28.9021
 20
0.618027
 11
-28.8544
 21
0.749207
  0
LINE
  8
0
 10
-28.8544
 20
0.749207
 11
-28.7976
 21
0.87674
  0
LINE
  8
0
 10
-28.7976
 20
0.87674
 11
-28.7321
 21
1
  0
LINE
  8
0
 10
-28.7321
 20
1
 11
-28.6581
 21
1.11838
  0
LINE
  8
0
 10
-28.6581
 20
1.11838
 11
-28.576
 21
1.23131
  0
LINE
  8
0
 10
-28.576
 20
1.23131
 11
-28.4863
 21
1.33826
  0
LINE
  8
0
 10
-28.4863
 20
1.33826
 11
-28.3893
 21
1.43867
  0
LINE
  8
0
 10
-28.3893
 20
1.43867
 11
-28.2856
 21
1.53207
  0
LINE
  8
0
 10
-28.2856
 20
1.53207
 11
-28.1756
 21
1.61803
  0
LINE
  8
0
 10
-28.1756
 20
1.61803
 11
-28.0598
 21
1.69609
  0
LINE
  8
0
 10
-28.0598
 20
1.69609
 11
-27.9389
 21
1.76588
  0
LINE
  8
0
 10
-27.9389
 20
1.76588
 11
-27.8135
 21
1.82709
  0
LINE
  8
0
 10
-27.8135
 20
1.82709
 11
-27.6841
 21
1.87938
  0
LINE
  8
0
 10
-27.6841
 20
1.87938
 11
-27.5513
 21
1.92252
  0
LINE
  8
0
 10
-27.5513
 20
1.92252
 11
-27.4158
 21
1.95628
  0
LINE
  8
0
 10
-27.4158
 20
1.95628
 11
-27.2784
 21
1.98053
  0
LINE
  8
0
 10
-27.2784
 20
1.98053
 11
-27.1395
 21
1.99512
  0
LINE
  8
0
 10
-27.1395
 20
1.99512
 11
-27
 21
2
  0
LINE
  8
0
 10
-27
 20
2
 11
-26.8605
 21
1.99512
  0
LINE
  8
0
 10
-26.8605
 20
1.99512
 11
-26.7217
 21
1.98053
  0
LINE
  8
0
 10
-26.7217
 20
1.98053
 11
-26.5842
 21
1.95628
  0
LINE
  8
0
 10
-26.5842
 20
1.95628
 11
-26.4487
 21
1.92252
  0
LINE
  8
0
 10
-26.4487
 20
1.92252
 11
-26.316
 21
1.87938
  0
LINE
  8
0
 10
-26.316
 20
1.87938
 11
-26.1865
 21
1.82709
  0
LINE
  8
0
 10
-26.1865
 20
1.82709
 11
-26.0611
 21
1.76588
  0
LINE
  8
0
 10
-26.0611
 20
1.76588
 11
-25.9402
 21
1.69609
  0
LINE
  8
0
 10
-25.9402
 20
1.69609
 11
-25.8244
 21
1.61803
  0
LINE
  8
0
 10
-25.8244
 20
1.61803
 11
-25.7144
 21
1.53207
  0
LINE
  8
0
 10
-25.7144
 20
1.53207
 11
-25.6107
 21
1.43867
  0
LINE
  8
0
 10
-25.6107
 20
1.43867
 11
-25.5137
 21
1.33826
  0
LINE
  8
0
 10
-25.5137
 20
1.33826
 11
-25.424
 21
1.23131
  0
LINE
  8
0
 10
-25.424
 20
1.23131
 11
-25.3419
 21
1.11838
  0
LINE
  8
0
 10
-25.3419
 20
1.11838
 11
-25.268
 21
0.999985
  0
LINE
  8
0
 10
-25.268
 20
0.999985
 11
-25.2024
 21
0.87674
  0
LINE
  8
0
 10
-25.2024
 20
0.87674
 11
-25.1456
 21
0.749207
  0
LINE
  8
0
 10
-25.1456
 20
0.749207
 11
-25.0979
 21
0.618027
  0
LINE
  8
0
 10
-25.0979
 20
0.618027
 11
-25.0594
 21
0.483841
  0
LINE
  8
0
 10
-25.0594
 20
0.483841
 11
-25.0304
 21
0.34729
  0
LINE
  8
0
 10
-25.0304
 20
0.34729
 11
-25.011
 21
0.209045
  0
LINE
  8
0
 10
-25.011
 20
0.209045
 11
-25.0012
 21
0.0697937
  0
LINE
  8
0
 10
-25.0012
 20
0.0697937
 11
-25.0012
 21
-0.0697784
  0
LINE
  8
0
 10
-25.0012
 20
-0.0697784
 11
-25.011
 21
-0.20903
  0
LINE
  8
0
 10
-25.011
 20
-0.20903
 11
-25.0304
 21
-0.347275
  0
LINE
  8
0
 10
-25.0304
 20
-0.347275
 11
-25.0594
 21
-0.483826
  0
LINE
  8
0
 10
-25.0594
 20
-0.483826
 11
-25.0979
 21
-0.618011
  0
LINE
  8
0
 10
-25.0979
 20
-0.618011
 11
-25.1456
 21
-0.749191
  0
LINE
  8
0
 10
-25.1456
 20
-0.749191
 11
-25.2024
 21
-0.876724
  0
LINE
  8
0
 10
-25.2024
 20
-0.876724
 11
-25.268
 21
-0.999985
  0
LINE
  8
0
 10
-25.268
 20
-0.999985
 11
-25.3419
 21
-1.11836
  0
LINE
  8
0
 10
-25.3419
 20
-1.11836
 11
-25.424
 21
-1.23129
  0
LINE
  8
0
 10
-25.424
 20
-1.23129
 11
-25.5137
 21
-1.33824
  0
LINE
  8
0
 10
-25.5137
 20
-1.33824
 11
-25.6107
 21
-1.43866
  0
LINE
  8
0
 10
-25.6107
 20
-1.43866
 11
-25.7144
 21
-1.53206
  0
LINE
  8
0
 10
-25.7144
 20
-1.53206
 11
-25.8244
 21
-1.61801
  0
LINE
  8
0
 10
-25.8244
 20
-1.61801
 11
-25.9402
 21
-1.69608
  0
LINE
  8
0
 10
-25.9402
 20
-1.69608
 11
-26.0611
 21
-1.76587
  0
LINE
  8
0
 10
-26.0611
 20
-1.76587
 11
-26.1865
 21
-1.82707
  0
LINE
  8
0
 10
-26.1865
 20
-1.82707
 11
-26.316
 21
-1.87936
  0
LINE
  8
0
 10
-26.316
 20
-1.87936
 11
-26.4487
 21
-1.9225
  0
LINE
  8
0
 10
-26.4487
 20
-1.9225
 11
-26.5842
 21
-1.95627
  0
LINE
  8
0
 10
-26.5842
 20
-1.95627
 11
-26.7217
 21
-1.98051
  0
LINE
  8
0
 10
-26.7217
 20
-1.98051
 11
-26.8605
 21
-1.9951
  0
LINE
  8
0
 10
-26.8605
 20
-1.9951
 11
-27
 21
-1.99998
  0
LINE
  8
0
 10
-27
 20
-1.99998
 11
-27.1395
 21
-1.9951
  0
LINE
  8
0
 10
-42.1395
 20
-1.99512
 11
-42.2783
 21
-1.98053
  0
LINE
  8
0
 10
-42.2783
 20
-1.98053
 11
-42.4158
 21
-1.95628
  0
LINE
  8
0
 10
-42.4158
 20
-1.95628
 11
-42.5513
 21
-1.92252
  0
LINE
  8
0
 10
-42.5513
 20
-1.92252
 11
-42.684
 21
-1.87938
  0
LINE
  8
0
 10
-42.684
 20
-1.87938
 11
-42.8135
 21
-1.82709
  0
LINE
  8
0
 10
-42.8135
 20
-1.82709
 11
-42.9389
 21
-1.76588
  0
LINE
  8
0
 10
-42.9389
 20
-1.76588
 11
-43.0598
 21
-1.69609
  0
LINE
  8
0
 10
-43.0598
 20
-1.69609
 11
-43.1756
 21
-1.61803
  0
LINE
  8
0
 10
-43.1756
 20
-1.61803
 11
-43.2856
 21
-1.53207
  0
LINE
  8
0
 10
-43.2856
 20
-1.53207
 11
-43.3893
 21
-1.43867
  0
LINE
  8
0
 10
-43.3893
 20
-1.43867
 11
-43.4863
 21
-1.33826
  0
LINE
  8
0
 10
-43.4863
 20
-1.33826
 11
-43.576
 21
-1.23131
  0
LINE
  8
0
 10
-43.576
 20
-1.23131
 11
-43.6581
 21
-1.11838
  0
LINE
  8
0
 10
-43.6581
 20
-1.11838
 11
-43.732
 21
-1
  0
LINE
  8
0
 10
-43.732
 20
-1
 11
-43.7976
 21
-0.87674
  0
LINE
  8
0
 10
-43.7976
 20
-0.87674
 11
-43.8544
 21
-0.749207
  0
LINE
  8
0
 10
-43.8544
 20
-0.749207
 11
-43.9021
 21
-0.618027
  0
LINE
  8
0
 10
-43.9021
 20
-0.618027
 11
-43.9406
 21
-0.483841
  0
LINE
  8
0
 10
-43.9406
 20
-0.483841
 11
-43.9696
 21
-0.34729
  0
LINE
  8
0
 10
-43.9696
 20
-0.34729
 11
-43.989
 21
-0.209045
  0
LINE
  8
0
 10
-43.989
 20
-0.209045
 11
-43.9988
 21
-0.0697937
  0
LINE
  8
0
 10
-43.9988
 20
-0.0697937
 11
-43.9988
 21
0.0697784
  0
LINE
  8
0
 10
-43.9988
 20
0.0697784
 11
-43.989
 21
0.20903
  0
LINE
  8
0
 10
-43.989
 20
0.20903
 11
-43.9696
 21
0.347275
  0
LINE
  8
0
 10
-43.9696
 20
0.347275
 11
-43.9406
 21
0.483826
  0
LINE
  8
0
 10
-43.9406
 20
0.483826
 11
-43.9021
 21
0.618011
  0
LINE
  8
0
 10
-43.9021
 20
0.618011
 11
-43.8544
 21
0.749191
  0
LINE
  8
0
 10
-43.8544
 20
0.749191
 11
-43.7976
 21
0.876724
  0
LINE
  8
0
 10
-43.7976
 20
0.876724
 11
-43.732
 21
0.999985
  0
LINE
  8
0
 10
-43.732
 20
0.999985
 11
-43.6581
 21
1.11836
  0
LINE
  8
0
 10
-43.6581
 20
1.11836
 11
-43.576
 21
1.23129
  0
LINE
  8
0
 10
-43.576
 20
1.23129
 11
-43.4863
 21
1.33824
  0
LINE
  8
0
 10
-43.4863
 20
1.33824
 11
-43.3893
 21
1.43866
  0
LINE
  8
0
 10
-43.3893
 20
1.43866
 11
-43.2856
 21
1.53206
  0
LINE
  8
0
 10
-43.2856
 20
1.53206
 11
-43.1756
 21
1.61801
  0
LINE
  8
0
 10
-43.1756
 20
1.61801
 11
-43.0598
 21
1.69608
  0
LINE
  8
0
 10
-43.0598
 20
1.69608
 11
-42.9389
 21
1.76587
  0
LINE
  8
0
 10
-42.9389
 20
1.76587
 11
-42.8135
 21
1.82707
  0
LINE
  8
0
 10
-42.8135
 20
1.82707
 11
-42.684
 21
1.87936
  0
LINE
  8
0
 10
-42.684
 20
1.87936
 11
-42.5513
 21
1.9225
  0
LINE
  8
0
 10
-42.5513
 20
1.9225
 11
-42.4158
 21
1.95628
  0
LINE
  8
0
 10
-42.4158
 20
1.95628
 11
-42.2783
 21
1.98053
  0
LINE
  8
0
 10
-42.2783
 20
1.98053
 11
-42.1395
 21
1.99512
  0
LINE
  8
0
 10
-42.1395
 20
1.99512
 11
-42
 21
2
  0
LINE
  8
0
 10
-42
 20
2
 11
-41.8605
 21
1.99512
  0
LINE
  8
0
 10
-41.8605
 20
1.99512
 11
-41.7217
 21
1.98053
  0
LINE
  8
0
 10
-41.7217
 20
1.98053
 11
-41.5842
 21
1.95628
  0
LINE
  8
0
 10
-41.5842
 20
1.95628
 11
-41.4487
 21
1.92252
  0
LINE
  8
0
 10
-41.4487
 20
1.92252
 11
-41.316
 21
1.87938
  0
LINE
  8
0
 10
-41.316
 20
1.87938
 11
-41.1865
 21
1.82709
  0
LINE
  8
0
 10
-41.1865
 20
1.82709
 11
-41.0611
 21
1.76588
  0
LINE
  8
0
 10
-41.0611
 20
1.76588
 11
-40.9402
 21
1.69609
  0
LINE
  8
0
 10
-40.9402
 20
1.69609
 11
-40.8244
 21
1.61803
  0
LINE
  8
0
 10
-40.8244
 20
1.61803
 11
-40.7144
 21
1.53207
  0
LINE
  8
0
 10
-40.7144
 20
1.53207
 11
-40.6107
 21
1.43867
  0
LINE
  8
0
 10
-40.6107
 20
1.43867
 11
-40.5137
 21
1.33826
  0
LINE
  8
0
 10
-40.5137
 20
1.33826
 11
-40.424
 21
1.23131
  0
LINE
  8
0
 10
-40.424
 20
1.23131
 11
-40.3419
 21
1.11838
  0
LINE
  8
0
 10
-40.3419
 20
1.11838
 11
-40.268
 21
0.999985
  0
LINE
  8
0
 10
-40.268
 20
0.999985
 11
-40.2024
 21
0.87674
  0
LINE
  8
0
 10
-40.2024
 20
0.87674
 11
-40.1456
 21
0.749207
  0
LINE
  8
0
 10
-40.1456
 20
0.749207
 11
-40.0979
 21
0.618027
  0
LINE
  8
0
 10
-40.0979
 20
0.618027
 11
-40.0594
 21
0.483841
  0
LINE
  8
0
 10
-40.0594
 20
0.483841
 11
-40.0304
 21
0.34729
  0
LINE
  8
0
 10
-40.0304
 20
0.34729
 11
-40.011
 21
0.209045
  0
LINE
  8
0
 10
-40.011
 20
0.209045
 11
-40.0012
 21
0.0697937
  0
LINE
  8
0
 10
-40.0012
 20
0.0697937
 11
-40.0012
 21
-0.0697784
  0
LINE
  8
0
 10
-40.0012
 20
-0.0697784
 11
-40.011
 21
-0.20903
  0
LINE
  8
0
 10
-40.011
 20
-0.20903
 11
-40.0304
 21
-0.347275
  0
LINE
  8
0
 10
-40.0304
 20
-0.347275
 11
-40.0594
 21
-0.483826
  0
LINE
  8
0
 10
-40.0594
 20
-0.483826
 11
-40.0979
 21
-0.618011
  0
LINE
  8
0
 10
-40.0979
 20
-0.618011
 11
-40.1456
 21
-0.749191
  0
LINE
  8
0
 10
-40.1456
 20
-0.749191
 11
-40.2024
 21
-0.876724
  0
LINE
  8
0
 10
-40.2024
 20
-0.876724
 11
-40.268
 21
-0.999985
  0
LINE
  8
0
 10
-40.268
 20
-0.999985
 11
-40.3419
 21
-1.11836
  0
LINE
  8
0
 10
-40.3419
 20
-1.11836
 11
-40.424
 21
-1.23129
  0
LINE
  8
0
 10
-40.424
 20
-1.23129
 11
-40.5137
 21
-1.33824
  0
LINE
  8
0
 10
-40.5137
 20
-1.33824
 11
-40.6107
 21
-1.43866
  0
LINE
  8
0
 10
-40.6107
 20
-1.43866
 11
-40.7144
 21
-1.53206
  0
LINE
  8
0
 10
-40.7144
 20
-1.53206
 11
-40.8244
 21
-1.61801
  0
LINE
  8
0
 10
-40.8244
 20
-1.61801
 11
-40.9402
 21
-1.69608
  0
LINE
  8
0
 10
-40.9402
 20
-1.69608
 11
-41.0611
 21
-1.76587
  0
LINE
  8
0
 10
-41.0611
 20
-1.76587
 11
-41.1865
 21
-1.82707
  0
LINE
  8
0
 10
-41.1865
 20
-1.82707
 11
-41.316
 21
-1.87936
  0
LINE
  8
0
 10
-41.316
 20
-1.87936
 11
-41.4487
 21
-1.9225
  0
LINE
  8
0
 10
-41.4487
 20
-1.9225
 11
-41.5842
 21
-1.95628
  0
LINE
  8
0
 10
-41.5842
 20
-1.95628
 11
-41.7217
 21
-1.98053
  0
LINE
  8
0
 10
-41.7217
 20
-1.98053
 11
-41.8605
 21
-1.99512
  0
LINE
  8
0
 10
-41.8605
 20
-1.99512
 11
-42
 21
-2
  0
LINE
  8
0
 10
-42
 20
-2
 11
-42.1395
 21
-1.99512
  0
LINE
  8
0
 10
-42.1395
 20
-20.4951
 11
-42.2783
 21
-20.4805
  0
LINE
  8
0
 10
-42.2783
 20
-20.4805
 11
-42.4158
 21
-20.4563
  0
LINE
  8
0
 10
-42.4158
 20
-20.4563
 11
-42.5513
 21
-20.4225
  0
LINE
  8
0
 10
-42.5513
 20
-20.4225
 11
-42.684
 21
-20.3794
  0
LINE
  8
0
 10
-42.684
 20
-20.3794
 11
-42.8134
 21
-20.3271
  0
LINE
  8
0
 10
-42.8134
 20
-20.3271
 11
-42.9389
 21
-20.2659
  0
LINE
  8
0
 10
-42.9389
 20
-20.2659
 11
-43.0598
 21
-20.1961
  0
LINE
  8
0
 10
-43.0598
 20
-20.1961
 11
-43.1756
 21
-20.118
  0
LINE
  8
0
 10
-43.1756
 20
-20.118
 11
-43.2856
 21
-20.0321
  0
LINE
  8
0
 10
-43.2856
 20
-20.0321
 11
-43.3893
 21
-19.9387
  0
LINE
  8
0
 10
-43.3893
 20
-19.9387
 11
-43.4863
 21
-19.8383
  0
LINE
  8
0
 10
-43.4863
 20
-19.8383
 11
-43.576
 21
-19.7313
  0
LINE
  8
0
 10
-43.576
 20
-19.7313
 11
-43.6581
 21
-19.6184
  0
LINE
  8
0
 10
-43.6581
 20
-19.6184
 11
-43.732
 21
-19.5
  0
LINE
  8
0
 10
-43.732
 20
-19.5
 11
-43.7976
 21
-19.3767
  0
LINE
  8
0
 10
-43.7976
 20
-19.3767
 11
-43.8543
 21
-19.2492
  0
LINE
  8
0
 10
-43.8543
 20
-19.2492
 11
-43.9021
 21
-19.118
  0
LINE
  8
0
 10
-43.9021
 20
-19.118
 11
-43.9406
 21
-18.9838
  0
LINE
  8
0
 10
-43.9406
 20
-18.9838
 11
-43.9696
 21
-18.8473
  0
LINE
  8
0
 10
-43.9696
 20
-18.8473
 11
-43.989
 21
-18.709
  0
LINE
  8
0
 10
-43.989
 20
-18.709
 11
-43.9988
 21
-18.5698
  0
LINE
  8
0
 10
-43.9988
 20
-18.5698
 11
-43.9988
 21
-18.4302
  0
LINE
  8
0
 10
-43.9988
 20
-18.4302
 11
-43.989
 21
-18.2909
  0
LINE
  8
0
 10
-43.989
 20
-18.2909
 11
-43.9696
 21
-18.1527
  0
LINE
  8
0
 10
-43.9696
 20
-18.1527
 11
-43.9406
 21
-18.0161
  0
LINE
  8
0
 10
-43.9406
 20
-18.0161
 11
-43.9021
 21
-17.882
  0
LINE
  8
0
 10
-43.9021
 20
-17.882
 11
-43.8543
 21
-17.7508
  0
LINE
  8
0
 10
-43.8543
 20
-17.7508
 11
-43.7976
 21
-17.6232
  0
LINE
  8
0
 10
-43.7976
 20
-17.6232
 11
-43.732
 21
-17.5
  0
LINE
  8
0
 10
-43.732
 20
-17.5
 11
-43.6581
 21
-17.3816
  0
LINE
  8
0
 10
-43.6581
 20
-17.3816
 11
-43.576
 21
-17.2687
  0
LINE
  8
0
 10
-43.576
 20
-17.2687
 11
-43.4863
 21
-17.1617
  0
LINE
  8
0
 10
-43.4863
 20
-17.1617
 11
-43.3893
 21
-17.0613
  0
LINE
  8
0
 10
-43.3893
 20
-17.0613
 11
-43.2856
 21
-16.9679
  0
LINE
  8
0
 10
-43.2856
 20
-16.9679
 11
-43.1756
 21
-16.882
  0
LINE
  8
0
 10
-43.1756
 20
-16.882
 11
-43.0598
 21
-16.8039
  0
LINE
  8
0
 10
-43.0598
 20
-16.8039
 11
-42.9389
 21
-16.7341
  0
LINE
  8
0
 10
-42.9389
 20
-16.7341
 11
-42.8134
 21
-16.6729
  0
LINE
  8
0
 10
-42.8134
 20
-16.6729
 11
-42.684
 21
-16.6206
  0
LINE
  8
0
 10
-42.684
 20
-16.6206
 11
-42.5513
 21
-16.5775
  0
LINE
  8
0
 10
-42.5513
 20
-16.5775
 11
-42.4158
 21
-16.5437
  0
LINE
  8
0
 10
-42.4158
 20
-16.5437
 11
-42.2783
 21
-16.5195
  0
LINE
  8
0
 10
-42.2783
 20
-16.5195
 11
-42.1395
 21
-16.5049
  0
LINE
  8
0
 10
-42.1395
 20
-16.5049
 11
-42
 21
-16.5
  0
LINE
  8
0
 10
-42
 20
-16.5
 11
-41.8605
 21
-16.5049
  0
LINE
  8
0
 10
-41.8605
 20
-16.5049
 11
-41.7216
 21
-16.5195
  0
LINE
  8
0
 10
-41.7216
 20
-16.5195
 11
-41.5842
 21
-16.5437
  0
LINE
  8
0
 10
-41.5842
 20
-16.5437
 11
-41.4487
 21
-16.5775
  0
LINE
  8
0
 10
-41.4487
 20
-16.5775
 11
-41.3159
 21
-16.6206
  0
LINE
  8
0
 10
-41.3159
 20
-16.6206
 11
-41.1865
 21
-16.6729
  0
LINE
  8
0
 10
-41.1865
 20
-16.6729
 11
-41.0611
 21
-16.7341
  0
LINE
  8
0
 10
-41.0611
 20
-16.7341
 11
-40.9402
 21
-16.8039
  0
LINE
  8
0
 10
-40.9402
 20
-16.8039
 11
-40.8244
 21
-16.882
  0
LINE
  8
0
 10
-40.8244
 20
-16.882
 11
-40.7144
 21
-16.9679
  0
LINE
  8
0
 10
-40.7144
 20
-16.9679
 11
-40.6107
 21
-17.0613
  0
LINE
  8
0
 10
-40.6107
 20
-17.0613
 11
-40.5137
 21
-17.1617
  0
LINE
  8
0
 10
-40.5137
 20
-17.1617
 11
-40.424
 21
-17.2687
  0
LINE
  8
0
 10
-40.424
 20
-17.2687
 11
-40.3419
 21
-17.3816
  0
LINE
  8
0
 10
-40.3419
 20
-17.3816
 11
-40.2679
 21
-17.5
  0
LINE
  8
0
 10
-40.2679
 20
-17.5
 11
-40.2024
 21
-17.6232
  0
LINE
  8
0
 10
-40.2024
 20
-17.6232
 11
-40.1456
 21
-17.7508
  0
LINE
  8
0
 10
-40.1456
 20
-17.7508
 11
-40.0979
 21
-17.882
  0
LINE
  8
0
 10
-40.0979
 20
-17.882
 11
-40.0594
 21
-18.0161
  0
LINE
  8
0
 10
-40.0594
 20
-18.0161
 11
-40.0304
 21
-18.1527
  0
LINE
  8
0
 10
-40.0304
 20
-18.1527
 11
-40.011
 21
-18.2909
  0
LINE
  8
0
 10
-40.011
 20
-18.2909
 11
-40.0012
 21
-18.4302
  0
LINE
  8
0
 10
-40.0012
 20
-18.4302
 11
-40.0012
 21
-18.5698
  0
LINE
  8
0
 10
-40.0012
 20
-18.5698
 11
-40.011
 21
-18.709
  0
LINE
  8
0
 10
-40.011
 20
-18.709
 11
-40.0304
 21
-18.8473
  0
LINE
  8
0
 10
-40.0304
 20
-18.8473
 11
-40.0594
 21
-18.9838
  0
LINE
  8
0
 10
-40.0594
 20
-18.9838
 11
-40.0979
 21
-19.118
  0
LINE
  8
0
 10
-40.0979
 20
-19.118
 11
-40.1456
 21
-19.2492
  0
LINE
  8
0
 10
-40.1456
 20
-19.2492
 11
-40.2024
 21
-19.3767
  0
LINE
  8
0
 10
-40.2024
 20
-19.3767
 11
-40.2679
 21
-19.5
  0
LINE
  8
0
 10
-40.2679
 20
-19.5
 11
-40.3419
 21
-19.6184
  0
LINE
  8
0
 10
-40.3419
 20
-19.6184
 11
-40.424
 21
-19.7313
  0
LINE
  8
0
 10
-40.424
 20
-19.7313
 11
-40.5137
 21
-19.8383
  0
LINE
  8
0
 10
-40.5137
 20
-19.8383
 11
-40.6107
 21
-19.9387
  0
LINE
  8
0
 10
-40.6107
 20
-19.9387
 11
-40.7144
 21
-20.0321
  0
LINE
  8
0
 10
-40.7144
 20
-20.0321
 11
-40.8244
 21
-20.118
  0
LINE
  8
0
 10
-40.8244
 20
-20.118
 11
-40.9402
 21
-20.1961
  0
LINE
  8
0
 10
-40.9402
 20
-20.1961
 11
-41.0611
 21
-20.2659
  0
LINE
  8
0
 10
-41.0611
 20
-20.2659
 11
-41.1865
 21
-20.3271
  0
LINE
  8
0
 10
-41.1865
 20
-20.3271
 11
-41.3159
 21
-20.3794
  0
LINE
  8
0
 10
-41.3159
 20
-20.3794
 11
-41.4487
 21
-20.4225
  0
LINE
  8
0
 10
-41.4487
 20
-20.4225
 11
-41.5842
 21
-20.4563
  0
LINE
  8
0
 10
-41.5842
 20
-20.4563
 11
-41.7216
 21
-20.4805
  0
LINE
  8
0
 10
-41.7216
 20
-20.4805
 11
-41.8605
 21
-20.4951
  0
LINE
  8
0
 10
-41.8605
 20
-20.4951
 11
-42
 21
-20.5
  0
LINE
  8
0
 10
-42
 20
-20.5
 11
-42.1395
 21
-20.4951
  0
LINE
  8
0
 10
47.1395
 20
-25.4951
 11
47.2783
 21
-25.4805
  0
LINE
  8
0
 10
47.2783
 20
-25.4805
 11
47.4158
 21
-25.4563
  0
LINE
  8
0
 10
47.4158
 20
-25.4563
 11
47.5513
 21
-25.4225
  0
LINE
  8
0
 10
47.5513
 20
-25.4225
 11
47.684
 21
-25.3794
  0
LINE
  8
0
 10
47.684
 20
-25.3794
 11
47.8134
 21
-25.3271
  0
LINE
  8
0
 10
47.8134
 20
-25.3271
 11
47.9389
 21
-25.2659
  0
LINE
  8
0
 10
47.9389
 20
-25.2659
 11
48.0598
 21
-25.1961
  0
LINE
  8
0
 10
48.0598
 20
-25.1961
 11
48.1756
 21
-25.118
  0
LINE
  8
0
 10
48.1756
 20
-25.118
 11
48.2856
 21
-25.0321
  0
LINE
  8
0
 10
48.2856
 20
-25.0321
 11
48.3893
 21
-24.9387
  0
LINE
  8
0
 10
48.3893
 20
-24.9387
 11
48.4863
 21
-24.8383
  0
LINE
  8
0
 10
48.4863
 20
-24.8383
 11
48.576
 21
-24.7313
  0
LINE
  8
0
 10
48.576
 20
-24.7313
 11
48.6581
 21
-24.6184
  0
LINE
  8
0
 10
48.6581
 20
-24.6184
 11
48.732
 21
-24.5
  0
LINE
  8
0
 10
48.732
 20
-24.5
 11
48.7976
 21
-24.3767
  0
LINE
  8
0
 10
48.7976
 20
-24.3767
 11
48.8543
 21
-24.2492
  0
LINE
  8
0
 10
48.8543
 20
-24.2492
 11
48.9021
 21
-24.118
  0
LINE
  8
0
 10
48.9021
 20
-24.118
 11
48.9406
 21
-23.9838
  0
LINE
  8
0
 10
48.9406
 20
-23.9838
 11
48.9696
 21
-23.8473
  0
LINE
  8
0
 10
48.9696
 20
-23.8473
 11
48.989
 21
-23.709
  0
LINE
  8
0
 10
48.989
 20
-23.709
 11
48.9988
 21
-23.5698
  0
LINE
  8
0
 10
48.9988
 20
-23.5698
 11
48.9988
 21
23.5698
  0
LINE
  8
0
 10
48.9988
 20
23.5698
 11
48.989
 21
23.709
  0
LINE
  8
0
 10
48.989
 20
23.709
 11
48.9696
 21
23.8473
  0
LINE
  8
0
 10
48.9696
 20
23.8473
 11
48.9406
 21
23.9838
  0
LINE
  8
0
 10
48.9406
 20
23.9838
 11
48.9021
 21
24.118
  0
LINE
  8
0
 10
48.9021
 20
24.118
 11
48.8544
 21
24.2492
  0
LINE
  8
0
 10
48.8544
 20
24.2492
 11
48.7976
 21
24.3767
  0
LINE
  8
0
 10
48.7976
 20
24.3767
 11
48.732
 21
24.5
  0
LINE
  8
0
 10
48.732
 20
24.5
 11
48.6581
 21
24.6184
  0
LINE
  8
0
 10
48.6581
 20
24.6184
 11
48.576
 21
24.7313
  0
LINE
  8
0
 10
48.576
 20
24.7313
 11
48.4863
 21
24.8383
  0
LINE
  8
0
 10
48.4863
 20
24.8383
 11
48.3893
 21
24.9387
  0
LINE
  8
0
 10
48.3893
 20
24.9387
 11
48.2856
 21
25.0321
  0
LINE
  8
0
 10
48.2856
 20
25.0321
 11
48.1756
 21
25.118
  0
LINE
  8
0
 10
48.1756
 20
25.118
 11
48.0598
 21
25.1961
  0
LINE
  8
0
 10
48.0598
 20
25.1961
 11
47.9389
 21
25.2659
  0
LINE
  8
0
 10
47.9389
 20
25.2659
 11
47.8135
 21
25.3271
  0
LINE
  8
0
 10
47.8135
 20
25.3271
 11
47.684
 21
25.3794
  0
LINE
  8
0
 10
47.684
 20
25.3794
 11
47.5513
 21
25.4225
  0
LINE
  8
0
 10
47.5513
 20
25.4225
 11
47.4158
 21
25.4563
  0
LINE
  8
0
 10
47.4158
 20
25.4563
 11
47.2783
 21
25.4805
  0
LINE
  8
0
 10
47.2783
 20
25.4805
 11
47.1395
 21
25.4951
  0
LINE
  8
0
 10
47.1395
 20
25.4951
 11
47
 21
25.5
  0
LINE
  8
0
 10
47
 20
25.5
 11
37
 21
25.5
  0
LINE
  8
0
 10
37
 20
25.5
 11
36.8605
 21
25.4951
  0
LINE
  8
0
 10
36.8605
 20
25.4951
 11
36.7217
 21
25.4805
  0
LINE
  8
0
 10
36.7217
 20
25.4805
 11
36.5842
 21
25.4563
  0
LINE
  8
0
 10
36.5842
 20
25.4563
 11
36.4487
 21
25.4225
  0
LINE
  8
0
 10
36.4487
 20
25.4225
 11
36.316
 21
25.3794
  0
LINE
  8
0
 10
36.316
 20
25.3794
 11
36.1865
 21
25.3271
  0
LINE
  8
0
 10
36.1865
 20
25.3271
 11
36.0611
 21
25.2659
  0
LINE
  8
0
 10
36.0611
 20
25.2659
 11
35.9402
 21
25.1961
  0
LINE
  8
0
 10
35.9402
 20
25.1961
 11
35.8244
 21
25.118
  0
LINE
  8
0
 10
35.8244
 20
25.118
 11
35.7144
 21
25.0321
  0
LINE
  8
0
 10
35.7144
 20
25.0321
 11
20.6107
 21
11.4387
  0
LINE
  8
0
 10
20.6107
 20
11.4387
 11
20.5137
 21
11.3383
  0
LINE
  8
0
 10
20.5137
 20
11.3383
 11
20.424
 21
11.2313
  0
LINE
  8
0
 10
20.424
 20
11.2313
 11
20.3419
 21
11.1184
  0
LINE
  8
0
 10
20.3419
 20
11.1184
 11
20.268
 21
11
  0
LINE
  8
0
 10
20.268
 20
11
 11
20.2024
 21
10.8767
  0
LINE
  8
0
 10
20.2024
 20
10.8767
 11
20.1456
 21
10.7492
  0
LINE
  8
0
 10
20.1456
 20
10.7492
 11
20.0979
 21
10.618
  0
LINE
  8
0
 10
20.0979
 20
10.618
 11
20.0594
 21
10.4838
  0
LINE
  8
0
 10
20.0594
 20
10.4838
 11
20.0304
 21
10.3473
  0
LINE
  8
0
 10
20.0304
 20
10.3473
 11
20.011
 21
10.209
  0
LINE
  8
0
 10
20.011
 20
10.209
 11
20.0012
 21
10.0698
  0
LINE
  8
0
 10
20.0012
 20
10.0698
 11
20.0012
 21
-10.0698
  0
LINE
  8
0
 10
20.0012
 20
-10.0698
 11
20.011
 21
-10.209
  0
LINE
  8
0
 10
20.011
 20
-10.209
 11
20.0304
 21
-10.3473
  0
LINE
  8
0
 10
20.0304
 20
-10.3473
 11
20.0594
 21
-10.4838
  0
LINE
  8
0
 10
20.0594
 20
-10.4838
 11
20.0979
 21
-10.618
  0
LINE
  8
0
 10
20.0979
 20
-10.618
 11
20.1456
 21
-10.7492
  0
LINE
  8
0
 10
20.1456
 20
-10.7492
 11
20.2024
 21
-10.8767
  0
LINE
  8
0
 10
20.2024
 20
-10.8767
 11
20.2679
 21
-11
  0
LINE
  8
0
 10
20.2679
 20
-11
 11
20.3419
 21
-11.1184
  0
LINE
  8
0
 10
20.3419
 20
-11.1184
 11
20.424
 21
-11.2313
  0
LINE
  8
0
 10
20.424
 20
-11.2313
 11
20.5137
 21
-11.3382
  0
LINE
  8
0
 10
20.5137
 20
-11.3382
 11
20.6107
 21
-11.4387
  0
LINE
  8
0
 10
20.6107
 20
-11.4387
 11
35.7144
 21
-25.0321
  0
LINE
  8
0
 10
35.7144
 20
-25.0321
 11
35.8244
 21
-25.118
  0
LINE
  8
0
 10
35.8244
 20
-25.118
 11
35.9402
 21
-25.1961
  0
LINE
  8
0
 10
35.9402
 20
-25.1961
 11
36.0611
 21
-25.2659
  0
LINE
  8
0
 10
36.0611
 20
-25.2659
 11
36.1865
 21
-25.3271
  0
LINE
  8
0
 10
36.1865
 20
-25.3271
 11
36.3159
 21
-25.3794
  0
LINE
  8
0
 10
36.3159
 20
-25.3794
 11
36.4487
 21
-25.4225
  0
LINE
  8
0
 10
36.4487
 20
-25.4225
 11
36.5842
 21
-25.4563
  0
LINE
  8
0
 10
36.5842
 20
-25.4563
 11
36.7216
 21
-25.4805
  0
LINE
  8
0
 10
36.7216
 20
-25.4805
 11
36.8605
 21
-25.4951
  0
LINE
  8
0
 10
36.8605
 20
-25.4951
 11
37
 21
-25.5
  0
LINE
  8
0
 10
37
 20
-25.5
 11
47
 21
-25.5
  0
LINE
  8
0
 10
47
 20
-25.5
 11
47.1395
 21
-25.4951
  0
LINE
  8
0
 10
41.8605
 20
16.5049
 11
41.7217
 21
16.5195
  0
LINE
  8
0
 10
41.7217
 20
16.5195
 11
41.5842
 21
16.5437
  0
LINE
  8
0
 10
41.5842
 20
16.5437
 11
41.4487
 21
16.5775
  0
LINE
  8
0
 10
41.4487
 20
16.5775
 11
41.316
 21
16.6206
  0
LINE
  8
0
 10
41.316
 20
16.6206
 11
41.1865
 21
16.6729
  0
LINE
  8
0
 10
41.1865
 20
16.6729
 11
41.0611
 21
16.7341
  0
LINE
  8
0
 10
41.0611
 20
16.7341
 11
40.9402
 21
16.8039
  0
LINE
  8
0
 10
40.9402
 20
16.8039
 11
40.8244
 21
16.882
  0
LINE
  8
0
 10
40.8244
 20
16.882
 11
40.7144
 21
16.9679
  0
LINE
  8
0
 10
40.7144
 20
16.9679
 11
40.6107
 21
17.0613
  0
LINE
  8
0
 10
40.6107
 20
17.0613
 11
40.5137
 21
17.1617
  0
LINE
  8
0
 10
40.5137
 20
17.1617
 11
40.424
 21
17.2687
  0
LINE
  8
0
 10
40.424
 20
17.2687
 11
40.3419
 21
17.3816
  0
LINE
  8
0
 10
40.3419
 20
17.3816
 11
40.268
 21
17.5
  0
LINE
  8
0
 10
40.268
 20
17.5
 11
40.2024
 21
17.6232
  0
LINE
  8
0
 10
40.2024
 20
17.6232
 11
40.1456
 21
17.7508
  0
LINE
  8
0
 10
40.1456
 20
17.7508
 11
40.0979
 21
17.882
  0
LINE
  8
0
 10
40.0979
 20
17.882
 11
40.0594
 21
18.0161
  0
LINE
  8
0
 10
40.0594
 20
18.0161
 11
40.0304
 21
18.1527
  0
LINE
  8
0
 10
40.0304
 20
18.1527
 11
40.011
 21
18.2909
  0
LINE
  8
0
 10
40.011
 20
18.2909
 11
40.0012
 21
18.4302
  0
LINE
  8
0
 10
40.0012
 20
18.4302
 11
40.0012
 21
18.5698
  0
LINE
  8
0
 10
40.0012
 20
18.5698
 11
40.011
 21
18.709
  0
LINE
  8
0
 10
40.011
 20
18.709
 11
40.0304
 21
18.8473
  0
LINE
  8
0
 10
40.0304
 20
18.8473
 11
40.0594
 21
18.9838
  0
LINE
  8
0
 10
40.0594
 20
18.9838
 11
40.0979
 21
19.118
  0
LINE
  8
0
 10
40.0979
 20
19.118
 11
40.1456
 21
19.2492
  0
LINE
  8
0
 10
40.1456
 20
19.2492
 11
40.2024
 21
19.3767
  0
LINE
  8
0
 10
40.2024
 20
19.3767
 11
40.268
 21
19.5
  0
LINE
  8
0
 10
40.268
 20
19.5
 11
40.3419
 21
19.6184
  0
LINE
  8
0
 10
40.3419
 20
19.6184
 11
40.424
 21
19.7313
  0
LINE
  8
0
 10
40.424
 20
19.7313
 11
40.5137
 21
19.8383
  0
LINE
  8
0
 10
40.5137
 20
19.8383
 11
40.6107
 21
19.9387
  0
LINE
  8
0
 10
40.6107
 20
19.9387
 11
40.7144
 21
20.0321
  0
LINE
  8
0
 10
40.7144
 20
20.0321
 11
40.8244
 21
20.118
  0
LINE
  8
0
 10
40.8244
 20
20.118
 11
40.9402
 21
20.1961
  0
LINE
  8
0
 10
40.9402
 20
20.1961
 11
41.0611
 21
20.2659
  0
LINE
  8
0
 10
41.0611
 20
20.2659
 11
41.1865
 21
20.3271
  0
LINE
  8
0
 10
41.1865
 20
20.3271
 11
41.316
 21
20.3794
  0
LINE
  8
0
 10
41.316
 20
20.3794
 11
41.4487
 21
20.4225
  0
LINE
  8
0
 10
41.4487
 20
20.4225
 11
41.5842
 21
20.4563
  0
LINE
  8
0
 10
41.5842
 20
20.4563
 11
41.7217
 21
20.4805
  0
LINE
  8
0
 10
41.7217
 20
20.4805
 11
41.8605
 21
20.4951
  0
LINE
  8
0
 10
41.8605
 20
20.4951
 11
42
 21
20.5
  0
LINE
  8
0
 10
42
 20
20.5
 11
42.1395
 21
20.4951
  0
LINE
  8
0
 10
42.1395
 20
20.4951
 11
42.2783
 21
20.4805
  0
LINE
  8
0
 10
42.2783
 20
20.4805
 11
42.4158
 21
20.4563
  0
LINE
  8
0
 10
42.4158
 20
20.4563
 11
42.5513
 21
20.4225
  0
LINE
  8
0
 10
42.5513
 20
20.4225
 11
42.684
 21
20.3794
  0
LINE
  8
0
 10
42.684
 20
20.3794
 11
42.8135
 21
20.3271
  0
LINE
  8
0
 10
42.8135
 20
20.3271
 11
42.9389
 21
20.2659
  0
LINE
  8
0
 10
42.9389
 20
20.2659
 11
43.0598
 21
20.1961
  0
LINE
  8
0
 10
43.0598
 20
20.1961
 11
43.1756
 21
20.118
  0
LINE
  8
0
 10
43.1756
 20
20.118
 11
43.2856
 21
20.0321
  0
LINE
  8
0
 10
43.2856
 20
20.0321
 11
43.3893
 21
19.9387
  0
LINE
  8
0
 10
43.3893
 20
19.9387
 11
43.4863
 21
19.8383
  0
LINE
  8
0
 10
43.4863
 20
19.8383
 11
43.576
 21
19.7313
  0
LINE
  8
0
 10
43.576
 20
19.7313
 11
43.6581
 21
19.6184
  0
LINE
  8
0
 10
43.6581
 20
19.6184
 11
43.732
 21
19.5
  0
LINE
  8
0
 10
43.732
 20
19.5
 11
43.7976
 21
19.3767
  0
LINE
  8
0
 10
43.7976
 20
19.3767
 11
43.8544
 21
19.2492
  0
LINE
  8
0
 10
43.8544
 20
19.2492
 11
43.9021
 21
19.118
  0
LINE
  8
0
 10
43.9021
 20
19.118
 11
43.9406
 21
18.9838
  0
LINE
  8
0
 10
43.9406
 20
18.9838
 11
43.9696
 21
18.8473
  0
LINE
  8
0
 10
43.9696
 20
18.8473
 11
43.989
 21
18.709
  0
LINE
  8
0
 10
43.989
 20
18.709
 11
43.9988
 21
18.5698
  0
LINE
  8
0
 10
43.9988
 20
18.5698
 11
43.9988
 21
18.4302
  0
LINE
  8
0
 10
43.9988
 20
18.4302
 11
43.989
 21
18.2909
  0
LINE
  8
0
 10
43.989
 20
18.2909
 11
43.9696
 21
18.1527
  0
LINE
  8
0
 10
43.9696
 20
18.1527
 11
43.9406
 21
18.0161
  0
LINE
  8
0
 10
43.9406
 20
18.0161
 11
43.9021
 21
17.882
  0
LINE
  8
0
 10
43.9021
 20
17.882
 11
43.8544
 21
17.7508
  0
LINE
  8
0
 10
43.8544
 20
17.7508
 11
43.7976
 21
17.6232
  0
LINE
  8
0
 10
43.7976
 20
17.6232
 11
43.732
 21
17.5
  0
LINE
  8
0
 10
43.732
 20
17.5
 11
43.6581
 21
17.3816
  0
LINE
  8
0
 10
43.6581
 20
17.3816
 11
43.576
 21
17.2687
  0
LINE
  8
0
 10
43.576
 20
17.2687
 11
43.4863
 21
17.1617
  0
LINE
  8
0
 10
43.4863
 20
17.1617
 11
43.3893
 21
17.0613
  0
LINE
  8
0
 10
43.3893
 20
17.0613
 11
43.2856
 21
16.9679
  0
LINE
  8
0
 10
43.2856
 20
16.9679
 11
43.1756
 21
16.882
  0
LINE
  8
0
 10
43.1756
 20
16.882
 11
43.0598
 21
16.8039
  0
LINE
  8
0
 10
43.0598
 20
16.8039
 11
42.9389
 21
16.7341
  0
LINE
  8
0
 10
42.9389
 20
16.7341
 11
42.8135
 21
16.6729
  0
LINE
  8
0
 10
42.8135
 20
16.6729
 11
42.684
 21
16.6206
  0
LINE
  8
0
 10
42.684
 20
16.6206
 11
42.5513
 21
16.5775
  0
LINE
  8
0
 10
42.5513
 20
16.5775
 11
42.4158
 21
16.5437
  0
LINE
  8
0
 10
42.4158
 20
16.5437
 11
42.2783
 21
16.5195
  0
LINE
  8
0
 10
42.2783
 20
16.5195
 11
42.1395
 21
16.5049
  0
LINE
  8
0
 10
42.1395
 20
16.5049
 11
42
 21
16.5
  0
LINE
  8
0
 10
42
 20
16.5
 11
41.8605
 21
16.5049
  0
LINE
  8
0
 10
26.8605
 20
-1.9951
 11
26.7217
 21
-1.98051
  0
LINE
  8
0
 10
26.7217
 20
-1.98051
 11
26.5842
 21
-1.95627
  0
LINE
  8
0
 10
26.5842
 20
-1.95627
 11
26.4487
 21
-1.9225
  0
LINE
  8
0
 10
26.4487
 20
-1.9225
 11
26.316
 21
-1.87936
  0
LINE
  8
0
 10
26.316
 20
-1.87936
 11
26.1865
 21
-1.82707
  0
LINE
  8
0
 10
26.1865
 20
-1.82707
 11
26.0611
 21
-1.76587
  0
LINE
  8
0
 10
26.0611
 20
-1.76587
 11
25.9402
 21
-1.69608
  0
LINE
  8
0
 10
25.9402
 20
-1.69608
 11
25.8244
 21
-1.61801
  0
LINE
  8
0
 10
25.8244
 20
-1.61801
 11
25.7144
 21
-1.53206
  0
LINE
  8
0
 10
25.7144
 20
-1.53206
 11
25.6107
 21
-1.43866
  0
LINE
  8
0
 10
25.6107
 20
-1.43866
 11
25.5137
 21
-1.33824
  0
LINE
  8
0
 10
25.5137
 20
-1.33824
 11
25.424
 21
-1.23129
  0
LINE
  8
0
 10
25.424
 20
-1.23129
 11
25.3419
 21
-1.11836
  0
LINE
  8
0
 10
25.3419
 20
-1.11836
 11
25.268
 21
-0.999969
  0
LINE
  8
0
 10
25.268
 20
-0.999969
 11
25.2024
 21
-0.876724
  0
LINE
  8
0
 10
25.2024
 20
-0.876724
 11
25.1456
 21
-0.749191
  0
LINE
  8
0
 10
25.1456
 20
-0.749191
 11
25.0979
 21
-0.618011
  0
LINE
  8
0
 10
25.0979
 20
-0.618011
 11
25.0594
 21
-0.483826
  0
LINE
  8
0
 10
25.0594
 20
-0.483826
 11
25.0304
 21
-0.347275
  0
LINE
  8
0
 10
25.0304
 20
-0.347275
 11
25.011
 21
-0.20903
  0
LINE
  8
0
 10
25.011
 20
-0.20903
 11
25.0012
 21
-0.0697784
  0
LINE
  8
0
 10
25.0012
 20
-0.0697784
 11
25.0012
 21
0.0697937
  0
LINE
  8
0
 10
25.0012
 20
0.0697937
 11
25.011
 21
0.209045
  0
LINE
  8
0
 10
25.011
 20
0.209045
 11
25.0304
 21
0.34729
  0
LINE
  8
0
 10
25.0304
 20
0.34729
 11
25.0594
 21
0.483841
  0
LINE
  8
0
 10
25.0594
 20
0.483841
 11
25.0979
 21
0.618027
  0
LINE
  8
0
 10
25.0979
 20
0.618027
 11
25.1456
 21
0.749207
  0
LINE
  8
0
 10
25.1456
 20
0.749207
 11
25.2024
 21
0.87674
  0
LINE
  8
0
 10
25.2024
 20
0.87674
 11
25.268
 21
1
  0
LINE
  8
0
 10
25.268
 20
1
 11
25.3419
 21
1.11838
  0
LINE
  8
0
 10
25.3419
 20
1.11838
 11
25.424
 21
1.23131
  0
LINE
  8
0
 10
25.424
 20
1.23131
 11
25.5137
 21
1.33826
  0
LINE
  8
0
 10
25.5137
 20
1.33826
 11
25.6107
 21
1.43867
  0
LINE
  8
0
 10
25.6107
 20
1.43867
 11
25.7144
 21
1.53207
  0
LINE
  8
0
 10
25.7144
 20
1.53207
 11
25.8244
 21
1.61803
  0
LINE
  8
0
 10
25.8244
 20
1.61803
 11
25.9402
 21
1.69609
  0
LINE
  8
0
 10
25.9402
 20
1.69609
 11
26.0611
 21
1.76588
  0
LINE
  8
0
 10
26.0611
 20
1.76588
 11
26.1865
 21
1.82709
  0
LINE
  8
0
 10
26.1865
 20
1.82709
 11
26.316
 21
1.87938
  0
LINE
  8
0
 10
26.316
 20
1.87938
 11
26.4487
 21
1.92252
  0
LINE
  8
0
 10
26.4487
 20
1.92252
 11
26.5842
 21
1.95628
  0
LINE
  8
0
 10
26.5842
 20
1.95628
 11
26.7217
 21
1.98053
  0
LINE
  8
0
 10
26.7217
 20
1.98053
 11
26.8605
 21
1.99512
  0
LINE
  8
0
 10
26.8605
 20
1.99512
 11
27
 21
2
  0
LINE
  8
0
 10
27
 20
2
 11
27.1395
 21
1.99512
  0
LINE
  8
0
 10
27.1395
 20
1.99512
 11
27.2784
 21
1.98053
  0
LINE
  8
0
 10
27.2784
 20
1.98053
 11
27.4158
 21
1.95628
  0
LINE
  8
0
 10
27.4158
 20
1.95628
 11
27.5513
 21
1.92252
  0
LINE
  8
0
 10
27.5513
 20
1.92252
 11
27.6841
 21
1.87938
  0
LINE
  8
0
 10
27.6841
 20
1.87938
 11
27.8135
 21
1.82709
  0
LINE
  8
0
 10
27.8135
 20
1.82709
 11
27.9389
 21
1.76588
  0
LINE
  8
0
 10
27.9389
 20
1.76588
 11
28.0598
 21
1.69609
  0
LINE
  8
0
 10
28.0598
 20
1.69609
 11
28.1756
 21
1.61803
  0
LINE
  8
0
 10
28.1756
 20
1.61803
 11
28.2856
 21
1.53207
  0
LINE
  8
0
 10
28.2856
 20
1.53207
 11
28.3893
 21
1.43867
  0
LINE
  8
0
 10
28.3893
 20
1.43867
 11
28.4863
 21
1.33826
  0
LINE
  8
0
 10
28.4863
 20
1.33826
 11
28.576
 21
1.23131
  0
LINE
  8
0
 10
28.576
 20
1.23131
 11
28.6581
 21
1.11838
  0
LINE
  8
0
 10
28.6581
 20
1.11838
 11
28.7321
 21
1
  0
LINE
  8
0
 10
28.7321
 20
1
 11
28.7976
 21
0.87674
  0
LINE
  8
0
 10
28.7976
 20
0.87674
 11
28.8544
 21
0.749207
  0
LINE
  8
0
 10
28.8544
 20
0.749207
 11
28.9021
 21
0.618027
  0
LINE
  8
0
 10
28.9021
 20
0.618027
 11
28.9406
 21
0.483841
  0
LINE
  8
0
 10
28.9406
 20
0.483841
 11
28.9696
 21
0.34729
  0
LINE
  8
0
 10
28.9696
 20
0.34729
 11
28.989
 21
0.209045
  0
LINE
  8
0
 10
28.989
 20
0.209045
 11
28.9988
 21
0.0697937
  0
LINE
  8
0
 10
28.9988
 20
0.0697937
 11
28.9988
 21
-0.0697784
  0
LINE
  8
0
 10
28.9988
 20
-0.0697784
 11
28.989
 21
-0.20903
  0
LINE
  8
0
 10
28.989
 20
-0.20903
 11
28.9696
 21
-0.347275
  0
LINE
  8
0
 10
28.9696
 20
-0.347275
 11
28.9406
 21
-0.483826
  0
LINE
  8
0
 10
28.9406
 20
-0.483826
 11
28.9021
 21
-0.618011
  0
LINE
  8
0
 10
28.9021
 20
-0.618011
 11
28.8544
 21
-0.749191
  0
LINE
  8
0
 10
28.8544
 20
-0.749191
 11
28.7976
 21
-0.876724
  0
LINE
  8
0
 10
28.7976
 20
-0.876724
 11
28.7321
 21
-0.999985
  0
LINE
  8
0
 10
28.7321
 20
-0.999985
 11
28.6581
 21
-1.11836
  0
LINE
  8
0
 10
28.6581
 20
-1.11836
 11
28.576
 21
-1.23129
  0
LINE
  8
0
 10
28.576
 20
-1.23129
 11
28.4863
 21
-1.33824
  0
LINE
  8
0
 10
28.4863
 20
-1.33824
 11
28.3893
 21
-1.43866
  0
LINE
  8
0
 10
28.3893
 20
-1.43866
 11
28.2856
 21
-1.53206
  0
LINE
  8
0
 10
28.2856
 20
-1.53206
 11
28.1756
 21
-1.61801
  0
LINE
  8
0
 10
28.1756
 20
-1.61801
 11
28.0598
 21
-1.69608
  0
LINE
  8
0
 10
28.0598
 20
-1.69608
 11
27.9389
 21
-1.76587
  0
LINE
  8
0
 10
27.9389
 20
-1.76587
 11
27.8135
 21
-1.82707
  0
LINE
  8
0
 10
27.8135
 20
-1.82707
 11
27.6841
 21
-1.87936
  0
LINE
  8
0
 10
27.6841
 20
-1.87936
 11
27.5513
 21
-1.9225
  0
LINE
  8
0
 10
27.5513
 20
-1.9225
 11
27.4158
 21
-1.95627
  0
LINE
  8
0
 10
27.4158
 20
-1.95627
 11
27.2784
 21
-1.98051
  0
LINE
  8
0
 10
27.2784
 20
-1.98051
 11
27.1395
 21
-1.9951
  0
LINE
  8
0
 10
27.1395
 20
-1.9951
 11
27
 21
-1.99998
  0
LINE
  8
0
 10
27
 20
-1.99998
 11
26.8605
 21
-1.9951
  0
LINE
  8
0
 10
41.8605
 20
-1.99512
 11
41.7217
 21
-1.98053
  0
LINE
  8
0
 10
41.7217
 20
-1.98053
 11
41.5842
 21
-1.95628
  0
LINE
  8
0
 10
41.5842
 20
-1.95628
 11
41.4487
 21
-1.9225
  0
LINE
  8
0
 10
41.4487
 20
-1.9225
 11
41.316
 21
-1.87936
  0
LINE
  8
0
 10
41.316
 20
-1.87936
 11
41.1865
 21
-1.82707
  0
LINE
  8
0
 10
41.1865
 20
-1.82707
 11
41.0611
 21
-1.76587
  0
LINE
  8
0
 10
41.0611
 20
-1.76587
 11
40.9402
 21
-1.69608
  0
LINE
  8
0
 10
40.9402
 20
-1.69608
 11
40.8244
 21
-1.61801
  0
LINE
  8
0
 10
40.8244
 20
-1.61801
 11
40.7144
 21
-1.53206
  0
LINE
  8
0
 10
40.7144
 20
-1.53206
 11
40.6107
 21
-1.43866
  0
LINE
  8
0
 10
40.6107
 20
-1.43866
 11
40.5137
 21
-1.33824
  0
LINE
  8
0
 10
40.5137
 20
-1.33824
 11
40.424
 21
-1.23129
  0
LINE
  8
0
 10
40.424
 20
-1.23129
 11
40.3419
 21
-1.11836
  0
LINE
  8
0
 10
40.3419
 20
-1.11836
 11
40.268
 21
-0.999969
  0
LINE
  8
0
 10
40.268
 20
-0.999969
 11
40.2024
 21
-0.876724
  0
LINE
  8
0
 10
40.2024
 20
-0.876724
 11
40.1456
 21
-0.749191
  0
LINE
  8
0
 10
40.1456
 20
-0.749191
 11
40.0979
 21
-0.618011
  0
LINE
  8
0
 10
40.0979
 20
-0.618011
 11
40.0594
 21
-0.483826
  0
LINE
  8
0
 10
40.0594
 20
-0.483826
 11
40.0304
 21
-0.347275
  0
LINE
  8
0
 10
40.0304
 20
-0.347275
 11
40.011
 21
-0.20903
  0
LINE
  8
0
 10
40.011
 20
-0.20903
 11
40.0012
 21
-0.0697784
  0
LINE
  8
0
 10
40.0012
 20
-0.0697784
 11
40.0012
 21
0.0697937
  0
LINE
  8
0
 10
40.0012
 20
0.0697937
 11
40.011
 21
0.209045
  0
LINE
  8
0
 10
40.011
 20
0.209045
 11
40.0304
 21
0.34729
  0
LINE
  8
0
 10
40.0304
 20
0.34729
 11
40.0594
 21
0.483841
  0
LINE
  8
0
 10
40.0594
 20
0.483841
 11
40.0979
 21
0.618027
  0
LINE
  8
0
 10
40.0979
 20
0.618027
 11
40.1456
 21
0.749207
  0
LINE
  8
0
 10
40.1456
 20
0.749207
 11
40.2024
 21
0.87674
  0
LINE
  8
0
 10
40.2024
 20
0.87674
 11
40.268
 21
1
  0
LINE
  8
0
 10
40.268
 20
1
 11
40.3419
 21
1.11838
  0
LINE
  8
0
 10
40.3419
 20
1.11838
 11
40.424
 21
1.23131
  0
LINE
  8
0
 10
40.424
 20
1.23131
 11
40.5137
 21
1.33826
  0
LINE
  8
0
 10
40.5137
 20
1.33826
 11
40.6107
 21
1.43867
  0
LINE
  8
0
 10
40.6107
 20
1.43867
 11
40.7144
 21
1.53207
  0
LINE
  8
0
 10
40.7144
 20
1.53207
 11
40.8244
 21
1.61803
  0
LINE
  8
0
 10
40.8244
 20
1.61803
 11
40.9402
 21
1.69609
  0
LINE
  8
0
 10
40.9402
 20
1.69609
 11
41.0611
 21
1.76588
  0
LINE
  8
0
 10
41.0611
 20
1.76588
 11
41.1865
 21
1.82709
  0
LINE
  8
0
 10
41.1865
 20
1.82709
 11
41.316
 21
1.87938
  0
LINE
  8
0
 10
41.316
 20
1.87938
 11
41.4487
 21
1.92252
  0
LINE
  8
0
 10
41.4487
 20
1.92252
 11
41.5842
 21
1.95628
  0
LINE
  8
0
 10
41.5842
 20
1.95628
 11
41.7217
 21
1.98053
  0
LINE
  8
0
 10
41.7217
 20
1.98053
 11
41.8605
 21
1.99512
  0
LINE
  8
0
 10
41.8605
 20
1.99512
 11
42
 21
2
  0
LINE
  8
0
 10
42
 20
2
 11
42.1395
 21
1.99512
  0
LINE
  8
0
 10
42.1395
 20
1.99512
 11
42.2783
 21
1.98053
  0
LINE
  8
0
 10
42.2783
 20
1.98053
 11
42.4158
 21
1.95628
  0
LINE
  8
0
 10
42.4158
 20
1.95628
 11
42.5513
 21
1.9225
  0
LINE
  8
0
 10
42.5513
 20
1.9225
 11
42.684
 21
1.87936
  0
LINE
  8
0
 10
42.684
 20
1.87936
 11
42.8135
 21
1.82707
  0
LINE
  8
0
 10
42.8135
 20
1.82707
 11
42.9389
 21
1.76587
  0
LINE
  8
0
 10
42.9389
 20
1.76587
 11
43.0598
 21
1.69608
  0
LINE
  8
0
 10
43.0598
 20
1.69608
 11
43.1756
 21
1.61801
  0
LINE
  8
0
 10
43.1756
 20
1.61801
 11
43.2856
 21
1.53206
  0
LINE
  8
0
 10
43.2856
 20
1.53206
 11
43.3893
 21
1.43866
  0
LINE
  8
0
 10
43.3893
 20
1.43866
 11
43.4863
 21
1.33824
  0
LINE
  8
0
 10
43.4863
 20
1.33824
 11
43.576
 21
1.23129
  0
LINE
  8
0
 10
43.576
 20
1.23129
 11
43.6581
 21
1.11836
  0
LINE
  8
0
 10
43.6581
 20
1.11836
 11
43.732
 21
0.999985
  0
LINE
  8
0
 10
43.732
 20
0.999985
 11
43.7976
 21
0.876724
  0
LINE
  8
0
 10
43.7976
 20
0.876724
 11
43.8544
 21
0.749191
  0
LINE
  8
0
 10
43.8544
 20
0.749191
 11
43.9021
 21
0.618011
  0
LINE
  8
0
 10
43.9021
 20
0.618011
 11
43.9406
 21
0.483826
  0
LINE
  8
0
 10
43.9406
 20
0.483826
 11
43.9696
 21
0.347275
  0
LINE
  8
0
 10
43.9696
 20
0.347275
 11
43.989
 21
0.20903
  0
LINE
  8
0
 10
43.989
 20
0.20903
 11
43.9988
 21
0.0697784
  0
LINE
  8
0
 10
43.9988
 20
0.0697784
 11
43.9988
 21
-0.0697937
  0
LINE
  8
0
 10
43.9988
 20
-0.0697937
 11
43.989
 21
-0.209045
  0
LINE
  8
0
 10
43.989
 20
-0.209045
 11
43.9696
 21
-0.34729
  0
LINE
  8
0
 10
43.9696
 20
-0.34729
 11
43.9406
 21
-0.483841
  0
LINE
  8
0
 10
43.9406
 20
-0.483841
 11
43.9021
 21
-0.618027
  0
LINE
  8
0
 10
43.9021
 20
-0.618027
 11
43.8544
 21
-0.749207
  0
LINE
  8
0
 10
43.8544
 20
-0.749207
 11
43.7976
 21
-0.87674
  0
LINE
  8
0
 10
43.7976
 20
-0.87674
 11
43.732
 21
-1
  0
LINE
  8
0
 10
43.732
 20
-1
 11
43.6581
 21
-1.11838
  0
LINE
  8
0
 10
43.6581
 20
-1.11838
 11
43.576
 21
-1.23131
  0
LINE
  8
0
 10
43.576
 20
-1.23131
 11
43.4863
 21
-1.33826
  0
LINE
  8
0
 10
43.4863
 20
-1.33826
 11
43.3893
 21
-1.43867
  0
LINE
  8
0
 10
43.3893
 20
-1.43867
 11
43.2856
 21
-1.53207
  0
LINE
  8
0
 10
43.2856
 20
-1.53207
 11
43.1756
 21
-1.61803
  0
LINE
  8
0
 10
43.1756
 20
-1.61803
 11
43.0598
 21
-1.69609
  0
LINE
  8
0
 10
43.0598
 20
-1.69609
 11
42.9389
 21
-1.76588
  0
LINE
  8
0
 10
42.9389
 20
-1.76588
 11
42.8135
 21
-1.82709
  0
LINE
  8
0
 10
42.8135
 20
-1.82709
 11
42.684
 21
-1.87938
  0
LINE
  8
0
 10
42.684
 20
-1.87938
 11
42.5513
 21
-1.92252
  0
LINE
  8
0
 10
42.5513
 20
-1.92252
 11
42.4158
 21
-1.95628
  0
LINE
  8
0
 10
42.4158
 20
-1.95628
 11
42.2783
 21
-1.98053
  0
LINE
  8
0
 10
42.2783
 20
-1.98053
 11
42.1395
 21
-1.99512
  0
LINE
  8
0
 10
42.1395
 20
-1.99512
 11
42
 21
-2
  0
LINE
  8
0
 10
42
 20
-2
 11
41.8605
 21
-1.99512
  0
LINE
  8
0
 10
41.8605
 20
-20.4951
 11
41.7216
 21
-20.4805
  0
LINE
  8
0
 10
41.7216
 20
-20.4805
 11
41.5842
 21
-20.4563
  0
LINE
  8
0
 10
41.5842
 20
-20.4563
 11
41.4487
 21
-20.4225
  0
LINE
  8
0
 10
41.4487
 20
-20.4225
 11
41.3159
 21
-20.3794
  0
LINE
  8
0
 10
41.3159
 20
-20.3794
 11
41.1865
 21
-20.3271
  0
LINE
  8
0
 10
41.1865
 20
-20.3271
 11
41.0611
 21
-20.2659
  0
LINE
  8
0
 10
41.0611
 20
-20.2659
 11
40.9402
 21
-20.1961
  0
LINE
  8
0
 10
40.9402
 20
-20.1961
 11
40.8244
 21
-20.118
  0
LINE
  8
0
 10
40.8244
 20
-20.118
 11
40.7144
 21
-20.0321
  0
LINE
  8
0
 10
40.7144
 20
-20.0321
 11
40.6107
 21
-19.9387
  0
LINE
  8
0
 10
40.6107
 20
-19.9387
 11
40.5137
 21
-19.8383
  0
LINE
  8
0
 10
40.5137
 20
-19.8383
 11
40.424
 21
-19.7313
  0
LINE
  8
0
 10
40.424
 20
-19.7313
 11
40.3419
 21
-19.6184
  0
LINE
  8
0
 10
40.3419
 20
-19.6184
 11
40.2679
 21
-19.5
  0
LINE
  8
0
 10
40.2679
 20
-19.5
 11
40.2024
 21
-19.3767
  0
LINE
  8
0
 10
40.2024
 20
-19.3767
 11
40.1456
 21
-19.2492
  0
LINE
  8
0
 10
40.1456
 20
-19.2492
 11
40.0979
 21
-19.118
  0
LINE
  8
0
 10
40.0979
 20
-19.118
 11
40.0594
 21
-18.9838
  0
LINE
  8
0
 10
40.0594
 20
-18.9838
 11
40.0304
 21
-18.8473
  0
LINE
  8
0
 10
40.0304
 20
-18.8473
 11
40.011
 21
-18.709
  0
LINE
  8
0
 10
40.011
 20
-18.709
 11
40.0012
 21
-18.5698
  0
LINE
  8
0
 10
40.0012
 20
-18.5698
 11
40.0012
 21
-18.4302
  0
LINE
  8
0
 10
40.0012
 20
-18.4302
 11
40.011
 21
-18.2909
  0
LINE
  8
0
 10
40.011
 20
-18.2909
 11
40.0304
 21
-18.1527
  0
LINE
  8
0
 10
40.0304
 20
-18.1527
 11
40.0594
 21
-18.0161
  0
LINE
  8
0
 10
40.0594
 20
-18.0161
 11
40.0979
 21
-17.882
  0
LINE
  8
0
 10
40.0979
 20
-17.882
 11
40.1456
 21
-17.7508
  0
LINE
  8
0
 10
40.1456
 20
-17.7508
 11
40.2024
 21
-17.6232
  0
LINE
  8
0
 10
40.2024
 20
-17.6232
 11
40.2679
 21
-17.5
  0
LINE
  8
0
 10
40.2679
 20
-17.5
 11
40.3419
 21
-17.3816
  0
LINE
  8
0
 10
40.3419
 20
-17.3816
 11
40.424
 21
-17.2687
  0
LINE
  8
0
 10
40.424
 20
-17.2687
 11
40.5137
 21
-17.1617
  0
LINE
  8
0
 10
40.5137
 20
-17.1617
 11
40.6107
 21
-17.0613
  0
LINE
  8
0
 10
40.6107
 20
-17.0613
 11
40.7144
 21
-16.9679
  0
LINE
  8
0
 10
40.7144
 20
-16.9679
 11
40.8244
 21
-16.882
  0
LINE
  8
0
 10
40.8244
 20
-16.882
 11
40.9402
 21
-16.8039
  0
LINE
  8
0
 10
40.9402
 20
-16.8039
 11
41.0611
 21
-16.7341
  0
LINE
  8
0
 10
41.0611
 20
-16.7341
 11
41.1865
 21
-16.6729
  0
LINE
  8
0
 10
41.1865
 20
-16.6729
 11
41.3159
 21
-16.6206
  0
LINE
  8
0
 10
41.3159
 20
-16.6206
 11
41.4487
 21
-16.5775
  0
LINE
  8
0
 10
41.4487
 20
-16.5775
 11
41.5842
 21
-16.5437
  0
LINE
  8
0
 10
41.5842
 20
-16.5437
 11
41.7216
 21
-16.5195
  0
LINE
  8
0
 10
41.7216
 20
-16.5195
 11
41.8605
 21
-16.5049
  0
LINE
  8
0
 10
41.8605
 20
-16.5049
 11
42
 21
-16.5
  0
LINE
  8
0
 10
42
 20
-16.5
 11
42.1395
 21
-16.5049
  0
LINE
  8
0
 10
42.1395
 20
-16.5049
 11
42.2783
 21
-16.5195
  0
LINE
  8
0
 10
42.2783
 20
-16.5195
 11
42.4158
 21
-16.5437
  0
LINE
  8
0
 10
42.4158
 20
-16.5437
 11
42.5513
 21
-16.5775
  0
LINE
  8
0
 10
42.5513
 20
-16.5775
 11
42.684
 21
-16.6206
  0
LINE
  8
0
 10
42.684
 20
-16.6206
 11
42.8134
 21
-16.6729
  0
LINE
  8
0
 10
42.8134
 20
-16.6729
 11
42.9389
 21
-16.7341
  0
LINE
  8
0
 10
42.9389
 20
-16.7341
 11
43.0598
 21
-16.8039
  0
LINE
  8
0
 10
43.0598
 20
-16.8039
 11
43.1756
 21
-16.882
  0
LINE
  8
0
 10
43.1756
 20
-16.882
 11
43.2856
 21
-16.9679
  0
LINE
  8
0
 10
43.2856
 20
-16.9679
 11
43.3893
 21
-17.0613
  0
LINE
  8
0
 10
43.3893
 20
-17.0613
 11
43.4863
 21
-17.1617
  0
LINE
  8
0
 10
43.4863
 20
-17.1617
 11
43.576
 21
-17.2687
  0
LINE
  8
0
 10
43.576
 20
-17.2687
 11
43.6581
 21
-17.3816
  0
LINE
  8
0
 10
43.6581
 20
-17.3816
 11
43.732
 21
-17.5
  0
LINE
  8
0
 10
43.732
 20
-17.5
 11
43.7976
 21
-17.6232
  0
LINE
  8
0
 10
43.7976
 20
-17.6232
 11
43.8543
 21
-17.7508
  0
LINE
  8
0
 10
43.8543
 20
-17.7508
 11
43.9021
 21
-17.882
  0
LINE
  8
0
 10
43.9021
 20
-17.882
 11
43.9406
 21
-18.0161
  0
LINE
  8
0
 10
43.9406
 20
-18.0161
 11
43.9696
 21
-18.1527
  0
LINE
  8
0
 10
43.9696
 20
-18.1527
 11
43.989
 21
-18.2909
  0
LINE
  8
0
 10
43.989
 20
-18.2909
 11
43.9988
 21
-18.4302
  0
LINE
  8
0
 10
43.9988
 20
-18.4302
 11
43.9988
 21
-18.5698
  0
LINE
  8
0
 10
43.9988
 20
-18.5698
 11
43.989
 21
-18.709
  0
LINE
  8
0
 10
43.989
 20
-18.709
 11
43.9696
 21
-18.8473
  0
LINE
  8
0
 10
43.9696
 20
-18.8473
 11
43.9406
 21
-18.9838
  0
LINE
  8
0
 10
43.9406
 20
-18.9838
 11
43.9021
 21
-19.118
  0
LINE
  8
0
 10
43.9021
 20
-19.118
 11
43.8543
 21
-19.2492
  0
LINE
  8
0
 10
43.8543
 20
-19.2492
 11
43.7976
 21
-19.3767
  0
LINE
  8
0
 10
43.7976
 20
-19.3767
 11
43.732
 21
-19.5
  0
LINE
  8
0
 10
43.732
 20
-19.5
 11
43.6581
 21
-19.6184
  0
LINE
  8
0
 10
43.6581
 20
-19.6184
 11
43.576
 21
-19.7313
  0
LINE
  8
0
 10
43.576
 20
-19.7313
 11
43.4863
 21
-19.8383
  0
LINE
  8
0
 10
43.4863
 20
-19.8383
 11
43.3893
 21
-19.9387
  0
LINE
  8
0
 10
43.3893
 20
-19.9387
 11
43.2856
 21
-20.0321
  0
LINE
  8
0
 10
43.2856
 20
-20.0321
 11
43.1756
 21
-20.118
  0
LINE
  8
0
 10
43.1756
 20
-20.118
 11
43.0598
 21
-20.1961
  0
LINE
  8
0
 10
43.0598
 20
-20.1961
 11
42.9389
 21
-20.2659
  0
LINE
  8
0
 10
42.9389
 20
-20.2659
 11
42.8134
 21
-20.3271
  0
LINE
  8
0
 10
42.8134
 20
-20.3271
 11
42.684
 21
-20.3794
  0
LINE
  8
0
 10
42.684
 20
-20.3794
 11
42.5513
 21
-20.4225
  0
LINE
  8
0
 10
42.5513
 20
-20.4225
 11
42.4158
 21
-20.4563
  0
LINE
  8
0
 10
42.4158
 20
-20.4563
 11
42.2783
 21
-20.4805
  0
LINE
  8
0
 10
42.2783
 20
-20.4805
 11
42.1395
 21
-20.4951
  0
LINE
  8
0
 10
42.1395
 20
-20.4951
 11
42
 21
-20.5
  0
LINE
  8
0
 10
42
 20
-20.5
 11
41.8605
 21
-20.4951
  0
LINE
  8
0
 10
1.77698
 20
-35.9069
 11
2.95201
 21
-35.7417
  0
LINE
  8
0
 10
2.95201
 20
-35.7417
 11
4.11267
 21
-35.495
  0
LINE
  8
0
 10
4.11267
 20
-35.495
 11
5.25328
 21
-35.168
  0
LINE
  8
0
 10
5.25328
 20
-35.168
 11
6.3683
 21
-34.7621
  0
LINE
  8
0
 10
6.3683
 20
-34.7621
 11
7.4523
 21
-34.2795
  0
LINE
  8
0
 10
7.4523
 20
-34.2795
 11
8.5
 21
-33.7224
  0
LINE
  8
0
 10
8.5
 20
-33.7224
 11
9.50627
 21
-33.0936
  0
LINE
  8
0
 10
9.50627
 20
-33.0936
 11
10.4662
 21
-32.3962
  0
LINE
  8
0
 10
10.4662
 20
-32.3962
 11
11.3752
 21
-31.6335
  0
LINE
  8
0
 10
11.3752
 20
-31.6335
 11
12.2288
 21
-30.8092
  0
LINE
  8
0
 10
12.2288
 20
-30.8092
 11
13.0228
 21
-29.9274
  0
LINE
  8
0
 10
13.0228
 20
-29.9274
 11
13.7533
 21
-28.9923
  0
LINE
  8
0
 10
13.7533
 20
-28.9923
 11
14.4168
 21
-28.0086
  0
LINE
  8
0
 10
14.4168
 20
-28.0086
 11
15.0101
 21
-26.981
  0
LINE
  8
0
 10
15.0101
 20
-26.981
 11
15.5303
 21
-25.9145
  0
LINE
  8
0
 10
15.5303
 20
-25.9145
 11
15.9748
 21
-24.8143
  0
LINE
  8
0
 10
15.9748
 20
-24.8143
 11
16.3414
 21
-23.6858
  0
LINE
  8
0
 10
16.3414
 20
-23.6858
 11
16.6285
 21
-22.5345
  0
LINE
  8
0
 10
16.6285
 20
-22.5345
 11
16.8345
 21
-21.3659
  0
LINE
  8
0
 10
16.8345
 20
-21.3659
 11
16.9586
 21
-20.1859
  0
LINE
  8
0
 10
16.9586
 20
-20.1859
 11
17
 21
-19
  0
LINE
  8
0
 10
17
 20
-19
 11
16.9586
 21
-17.8141
  0
LINE
  8
0
 10
16.9586
 20
-17.8141
 11
16.8345
 21
-16.6341
  0
LINE
  8
0
 10
16.8345
 20
-16.6341
 11
16.6285
 21
-15.4655
  0
LINE
  8
0
 10
16.6285
 20
-15.4655
 11
16.3414
 21
-14.3142
  0
LINE
  8
0
 10
16.3414
 20
-14.3142
 11
15.9748
 21
-13.1857
  0
LINE
  8
0
 10
15.9748
 20
-13.1857
 11
15.5303
 21
-12.0855
  0
LINE
  8
0
 10
15.5303
 20
-12.0855
 11
15.0101
 21
-11.019
  0
LINE
  8
0
 10
15.0101
 20
-11.019
 11
14.4168
 21
-9.99138
  0
LINE
  8
0
 10
14.4168
 20
-9.99138
 11
13.7533
 21
-9.00766
  0
LINE
  8
0
 10
13.7533
 20
-9.00766
 11
13.0228
 21
-8.07262
  0
LINE
  8
0
 10
13.0228
 20
-8.07262
 11
12.2288
 21
-7.19081
  0
LINE
  8
0
 10
12.2288
 20
-7.19081
 11
11.3752
 21
-6.36655
  0
LINE
  8
0
 10
11.3752
 20
-6.36655
 11
10.4662
 21
-5.60382
  0
LINE
  8
0
 10
10.4662
 20
-5.60382
 11
9.50627
 21
-4.90637
  0
LINE
  8
0
 10
9.50627
 20
-4.90637
 11
8.5
 21
-4.27757
  0
LINE
  8
0
 10
8.5
 20
-4.27757
 11
7.4523
 21
-3.7205
  0
LINE
  8
0
 10
7.4523
 20
-3.7205
 11
6.3683
 21
-3.23788
  0
LINE
  8
0
 10
6.3683
 20
-3.23788
 11
5.25328
 21
-2.83205
  0
LINE
  8
0
 10
5.25328
 20
-2.83205
 11
4.11267
 21
-2.50497
  0
LINE
  8
0
 10
4.11267
 20
-2.50497
 11
2.95201
 21
-2.25827
  0
LINE
  8
0
 10
2.95201
 20
-2.25827
 11
1.77698
 21
-2.09314
  0
LINE
  8
0
 10
1.77698
 20
-2.09314
 11
0.593277
 21
-2.01036
  0
LINE
  8
0
 10
0.593277
 20
-2.01036
 11
-0.593277
 21
-2.01036
  0
LINE
  8
0
 10
-0.593277
 20
-2.01036
 11
-1.77698
 21
-2.09314
  0
LINE
  8
0
 10
-1.77698
 20
-2.09314
 11
-2.95201
 21
-2.25827
  0
LINE
  8
0
 10
-2.95201
 20
-2.25827
 11
-4.11267
 21
-2.50497
  0
LINE
  8
0
 10
-4.11267
 20
-2.50497
 11
-5.25328
 21
-2.83205
  0
LINE
  8
0
 10
-5.25328
 20
-2.83205
 11
-6.3683
 21
-3.23788
  0
LINE
  8
0
 10
-6.3683
 20
-3.23788
 11
-7.4523
 21
-3.7205
  0
LINE
  8
0
 10
-7.4523
 20
-3.7205
 11
-8.49998
 21
-4.27757
  0
LINE
  8
0
 10
-8.49998
 20
-4.27757
 11
-9.50627
 21
-4.90637
  0
LINE
  8
0
 10
-9.50627
 20
-4.90637
 11
-10.4662
 21
-5.60382
  0
LINE
  8
0
 10
-10.4662
 20
-5.60382
 11
-11.3752
 21
-6.36655
  0
LINE
  8
0
 10
-11.3752
 20
-6.36655
 11
-12.2288
 21
-7.19081
  0
LINE
  8
0
 10
-12.2288
 20
-7.19081
 11
-13.0228
 21
-8.07262
  0
LINE
  8
0
 10
-13.0228
 20
-8.07262
 11
-13.7533
 21
-9.00766
  0
LINE
  8
0
 10
-13.7533
 20
-9.00766
 11
-14.4168
 21
-9.99138
  0
LINE
  8
0
 10
-14.4168
 20
-9.99138
 11
-15.0101
 21
-11.019
  0
LINE
  8
0
 10
-15.0101
 20
-11.019
 11
-15.5303
 21
-12.0855
  0
LINE
  8
0
 10
-15.5303
 20
-12.0855
 11
-15.9748
 21
-13.1857
  0
LINE
  8
0
 10
-15.9748
 20
-13.1857
 11
-16.3414
 21
-14.3142
  0
LINE
  8
0
 10
-16.3414
 20
-14.3142
 11
-16.6285
 21
-15.4655
  0
LINE
  8
0
 10
-16.6285
 20
-15.4655
 11
-16.8345
 21
-16.6341
  0
LINE
  8
0
 10
-16.8345
 20
-16.6341
 11
-16.9586
 21
-17.8141
  0
LINE
  8
0
 10
-16.9586
 20
-17.8141
 11
-17
 21
-19
  0
LINE
  8
0
 10
-17
 20
-19
 11
-16.9586
 21
-20.1859
  0
LINE
  8
0
 10
-16.9586
 20
-20.1859
 11
-16.8345
 21
-21.3659
  0
LINE
  8
0
 10
-16.8345
 20
-21.3659
 11
-16.6285
 21
-22.5345
  0
LINE
  8
0
 10
-16.6285
 20
-22.5345
 11
-16.3414
 21
-23.6858
  0
LINE
  8
0
 10
-16.3414
 20
-23.6858
 11
-15.9748
 21
-24.8143
  0
LINE
  8
0
 10
-15.9748
 20
-24.8143
 11
-15.5303
 21
-25.9145
  0
LINE
  8
0
 10
-15.5303
 20
-25.9145
 11
-15.0101
 21
-26.981
  0
LINE
  8
0
 10
-15.0101
 20
-26.981
 11
-14.4168
 21
-28.0086
  0
LINE
  8
0
 10
-14.4168
 20
-28.0086
 11
-13.7533
 21
-28.9923
  0
LINE
  8
0
 10
-13.7533
 20
-28.9923
 11
-13.0228
 21
-29.9274
  0
LINE
  8
0
 10
-13.0228
 20
-29.9274
 11
-12.2288
 21
-30.8092
  0
LINE
  8
0
 10
-12.2288
 20
-30.8092
 11
-11.3752
 21
-31.6335
  0
LINE
  8
0
 10
-11.3752
 20
-31.6335
 11
-10.4662
 21
-32.3962
  0
LINE
  8
0
 10
-10.4662
 20
-32.3962
 11
-9.50627
 21
-33.0936
  0
LINE
  8
0
 10
-9.50627
 20
-33.0936
 11
-8.5
 21
-33.7224
  0
LINE
  8
0
 10
-8.5
 20
-33.7224
 11
-7.4523
 21
-34.2795
  0
LINE
  8
0
 10
-7.4523
 20
-34.2795
 11
-6.3683
 21
-34.7621
  0
LINE
  8
0
 10
-6.3683
 20
-34.7621
 11
-5.25328
 21
-35.168
  0
LINE
  8
0
 10
-5.25328
 20
-35.168
 11
-4.11267
 21
-35.495
  0
LINE
  8
0
 10
-4.11267
 20
-35.495
 11
-2.95201
 21
-35.7417
  0
LINE
  8
0
 10
-2.95201
 20
-35.7417
 11
-1.77698
 21
-35.9069
  0
LINE
  8
0
 10
-1.77698
 20
-35.9069
 11
-0.593277
 21
-35.9896
  0
LINE
  8
0
 10
-0.593277
 20
-35.9896
 11
0.593277
 21
-35.9896
  0
LINE
  8
0
 10
0.593277
 20
-35.9896
 11
1.77698
 21
-35.9069
  0
LINE
  8
0
 10
-0.0872345
 20
-21.4985
 11
-0.261307
 21
-21.4863
  0
LINE
  8
0
 10
-0.261307
 20
-21.4863
 11
-0.434113
 21
-21.462
  0
LINE
  8
0
 10
-0.434113
 20
-21.462
 11
-0.604797
 21
-21.4257
  0
LINE
  8
0
 10
-0.604797
 20
-21.4257
 11
-0.772537
 21
-21.3776
  0
LINE
  8
0
 10
-0.772537
 20
-21.3776
 11
-0.936508
 21
-21.3179
  0
LINE
  8
0
 10
-0.936508
 20
-21.3179
 11
-1.09592
 21
-21.247
  0
LINE
  8
0
 10
-1.09592
 20
-21.247
 11
-1.25
 21
-21.1651
  0
LINE
  8
0
 10
-1.25
 20
-21.1651
 11
-1.39798
 21
-21.0726
  0
LINE
  8
0
 10
-1.39798
 20
-21.0726
 11
-1.53914
 21
-20.97
  0
LINE
  8
0
 10
-1.53914
 20
-20.97
 11
-1.67282
 21
-20.8578
  0
LINE
  8
0
 10
-1.67282
 20
-20.8578
 11
-1.79834
 21
-20.7366
  0
LINE
  8
0
 10
-1.79834
 20
-20.7366
 11
-1.9151
 21
-20.607
  0
LINE
  8
0
 10
-1.9151
 20
-20.607
 11
-2.02254
 21
-20.4695
  0
LINE
  8
0
 10
-2.02254
 20
-20.4695
 11
-2.12012
 21
-20.3248
  0
LINE
  8
0
 10
-2.12012
 20
-20.3248
 11
-2.20737
 21
-20.1737
  0
LINE
  8
0
 10
-2.20737
 20
-20.1737
 11
-2.28386
 21
-20.0168
  0
LINE
  8
0
 10
-2.28386
 20
-20.0168
 11
-2.34923
 21
-19.855
  0
LINE
  8
0
 10
-2.34923
 20
-19.855
 11
-2.40315
 21
-19.6891
  0
LINE
  8
0
 10
-2.40315
 20
-19.6891
 11
-2.44536
 21
-19.5198
  0
LINE
  8
0
 10
-2.44536
 20
-19.5198
 11
-2.47566
 21
-19.3479
  0
LINE
  8
0
 10
-2.47566
 20
-19.3479
 11
-2.4939
 21
-19.1744
  0
LINE
  8
0
 10
-2.4939
 20
-19.1744
 11
-2.5
 21
-19
  0
LINE
  8
0
 10
-2.5
 20
-19
 11
-2.4939
 21
-18.8256
  0
LINE
  8
0
 10
-2.4939
 20
-18.8256
 11
-2.47566
 21
-18.6521
  0
LINE
  8
0
 10
-2.47566
 20
-18.6521
 11
-2.44536
 21
-18.4802
  0
LINE
  8
0
 10
-2.44536
 20
-18.4802
 11
-2.40315
 21
-18.3109
  0
LINE
  8
0
 10
-2.40315
 20
-18.3109
 11
-2.34923
 21
-18.145
  0
LINE
  8
0
 10
-2.34923
 20
-18.145
 11
-2.28386
 21
-17.9832
  0
LINE
  8
0
 10
-2.28386
 20
-17.9832
 11
-2.20737
 21
-17.8263
  0
LINE
  8
0
 10
-2.20737
 20
-17.8263
 11
-2.12012
 21
-17.6752
  0
LINE
  8
0
 10
-2.12012
 20
-17.6752
 11
-2.02254
 21
-17.5305
  0
LINE
  8
0
 10
-2.02254
 20
-17.5305
 11
-1.9151
 21
-17.393
  0
LINE
  8
0
 10
-1.9151
 20
-17.393
 11
-1.79834
 21
-17.2634
  0
LINE
  8
0
 10
-1.79834
 20
-17.2634
 11
-1.67282
 21
-17.1422
  0
LINE
  8
0
 10
-1.67282
 20
-17.1422
 11
-1.53914
 21
-17.03
  0
LINE
  8
0
 10
-1.53914
 20
-17.03
 11
-1.39798
 21
-16.9274
  0
LINE
  8
0
 10
-1.39798
 20
-16.9274
 11
-1.24998
 21
-16.8349
  0
LINE
  8
0
 10
-1.24998
 20
-16.8349
 11
-1.09592
 21
-16.753
  0
LINE
  8
0
 10
-1.09592
 20
-16.753
 11
-0.936508
 21
-16.6821
  0
LINE
  8
0
 10
-0.936508
 20
-16.6821
 11
-0.772537
 21
-16.6224
  0
LINE
  8
0
 10
-0.772537
 20
-16.6224
 11
-0.604797
 21
-16.5743
  0
LINE
  8
0
 10
-0.604797
 20
-16.5743
 11
-0.434113
 21
-16.538
  0
LINE
  8
0
 10
-0.434113
 20
-16.538
 11
-0.261307
 21
-16.5137
  0
LINE
  8
0
 10
-0.261307
 20
-16.5137
 11
-0.0872345
 21
-16.5015
  0
LINE
  8
0
 10
-0.0872345
 20
-16.5015
 11
0.0872345
 21
-16.5015
  0
LINE
  8
0
 10
0.0872345
 20
-16.5015
 11
0.261307
 21
-16.5137
  0
LINE
  8
0
 10
0.261307
 20
-16.5137
 11
0.434113
 21
-16.538
  0
LINE
  8
0
 10
0.434113
 20
-16.538
 11
0.604797
 21
-16.5743
  0
LINE
  8
0
 10
0.604797
 20
-16.5743
 11
0.772537
 21
-16.6224
  0
LINE
  8
0
 10
0.772537
 20
-16.6224
 11
0.936508
 21
-16.6821
  0
LINE
  8
0
 10
0.936508
 20
-16.6821
 11
1.09592
 21
-16.753
  0
LINE
  8
0
 10
1.09592
 20
-16.753
 11
1.25
 21
-16.8349
  0
LINE
  8
0
 10
1.25
 20
-16.8349
 11
1.39798
 21
-16.9274
  0
LINE
  8
0
 10
1.39798
 20
-16.9274
 11
1.53914
 21
-17.03
  0
LINE
  8
0
 10
1.53914
 20
-17.03
 11
1.67282
 21
-17.1422
  0
LINE
  8
0
 10
1.67282
 20
-17.1422
 11
1.79834
 21
-17.2634
  0
LINE
  8
0
 10
1.79834
 20
-17.2634
 11
1.9151
 21
-17.393
  0
LINE
  8
0
 10
1.9151
 20
-17.393
 11
2.02254
 21
-17.5305
  0
LINE
  8
0
 10
2.02254
 20
-17.5305
 11
2.12012
 21
-17.6752
  0
LINE
  8
0
 10
2.12012
 20
-17.6752
 11
2.20737
 21
-17.8263
  0
LINE
  8
0
 10
2.20737
 20
-17.8263
 11
2.28386
 21
-17.9832
  0
LINE
  8
0
 10
2.28386
 20
-17.9832
 11
2.34923
 21
-18.145
  0
LINE
  8
0
 10
2.34923
 20
-18.145
 11
2.40315
 21
-18.3109
  0
LINE
  8
0
 10
2.40315
 20
-18.3109
 11
2.44536
 21
-18.4802
  0
LINE
  8
0
 10
2.44536
 20
-18.4802
 11
2.47566
 21
-18.6521
  0
LINE
  8
0
 10
2.47566
 20
-18.6521
 11
2.4939
 21
-18.8256
  0
LINE
  8
0
 10
2.4939
 20
-18.8256
 11
2.5
 21
-19
  0
LINE
  8
0
 10
2.5
 20
-19
 11
2.4939
 21
-19.1744
  0
LINE
  8
0
 10
2.4939
 20
-19.1744
 11
2.47566
 21
-19.3479
  0
LINE
  8
0
 10
2.47566
 20
-19.3479
 11
2.44536
 21
-19.5198
  0
LINE
  8
0
 10
2.44536
 20
-19.5198
 11
2.40315
 21
-19.6891
  0
LINE
  8
0
 10
2.40315
 20
-19.6891
 11
2.34923
 21
-19.855
  0
LINE
  8
0
 10
2.34923
 20
-19.855
 11
2.28386
 21
-20.0168
  0
LINE
  8
0
 10
2.28386
 20
-20.0168
 11
2.20737
 21
-20.1737
  0
LINE
  8
0
 10
2.20737
 20
-20.1737
 11
2.12012
 21
-20.3248
  0
LINE
  8
0
 10
2.12012
 20
-20.3248
 11
2.02254
 21
-20.4695
  0
LINE
  8
0
 10
2.02254
 20
-20.4695
 11
1.9151
 21
-20.607
  0
LINE
  8
0
 10
1.9151
 20
-20.607
 11
1.79834
 21
-20.7366
  0
LINE
  8
0
 10
1.79834
 20
-20.7366
 11
1.67282
 21
-20.8578
  0
LINE
  8
0
 10
1.67282
 20
-20.8578
 11
1.53914
 21
-20.97
  0
LINE
  8
0
 10
1.53914
 20
-20.97
 11
1.39798
 21
-21.0726
  0
LINE
  8
0
 10
1.39798
 20
-21.0726
 11
1.25
 21
-21.1651
  0
LINE
  8
0
 10
1.25
 20
-21.1651
 11
1.09592
 21
-21.247
  0
LINE
  8
0
 10
1.09592
 20
-21.247
 11
0.936508
 21
-21.3179
  0
LINE
  8
0
 10
0.936508
 20
-21.3179
 11
0.772537
 21
-21.3776
  0
LINE
  8
0
 10
0.772537
 20
-21.3776
 11
0.604797
 21
-21.4257
  0
LINE
  8
0
 10
0.604797
 20
-21.4257
 11
0.434113
 21
-21.462
  0
LINE
  8
0
 10
0.434113
 20
-21.462
 11
0.261307
 21
-21.4863
  0
LINE
  8
0
 10
0.261307
 20
-21.4863
 11
0.0872345
 21
-21.4985
  0
LINE
  8
0
 10
0.0872345
 20
-21.4985
 11
-0.0872345
 21
-21.4985
  0
LINE
  8
0
 10
2.82227
 20
-94.8521
 11
4.68849
 21
-94.5898
  0
LINE
  8
0
 10
4.68849
 20
-94.5898
 11
28.5
 21
-90.5
  0
LINE
  8
0
 10
28.5
 20
-90.5
 11
47
 21
-83
  0
LINE
  8
0
 10
47
 20
-83
 11
47
 21
-53
  0
LINE
  8
0
 10
47
 20
-53
 11
28.5
 21
-45.5
  0
LINE
  8
0
 10
28.5
 20
-45.5
 11
4.68849
 21
-41.4102
  0
LINE
  8
0
 10
4.68849
 20
-41.4102
 11
2.82227
 21
-41.1479
  0
LINE
  8
0
 10
2.82227
 20
-41.1479
 11
0.942276
 21
-41.0164
  0
LINE
  8
0
 10
0.942276
 20
-41.0164
 11
-0.942276
 21
-41.0164
  0
LINE
  8
0
 10
-0.942276
 20
-41.0164
 11
-2.82227
 21
-41.1479
  0
LINE
  8
0
 10
-2.82227
 20
-41.1479
 11
-4.68849
 21
-41.4102
  0
LINE
  8
0
 10
-4.68849
 20
-41.4102
 11
-28.5
 21
-45.5
  0
LINE
  8
0
 10
-28.5
 20
-45.5
 11
-47
 21
-53
  0
LINE
  8
0
 10
-47
 20
-53
 11
-47
 21
-83
  0
LINE
  8
0
 10
-47
 20
-83
 11
-28.5
 21
-90.5
  0
LINE
  8
0
 10
-28.5
 20
-90.5
 11
-4.68849
 21
-94.5898
  0
LINE
  8
0
 10
-4.68849
 20
-94.5898
 11
-2.82227
 21
-94.8521
  0
LINE
  8
0
 10
-2.82227
 20
-94.8521
 11
-0.942276
 21
-94.9836
  0
LINE
  8
0
 10
-0.942276
 20
-94.9836
 11
0.942276
 21
-94.9836
  0
LINE
  8
0
 10
0.942276
 20
-94.9836
 11
2.82227
 21
-94.8521
  0
LINE
  8
0
 10
-27.0523
 20
-51.7491
 11
-27.1568
 21
-51.7418
  0
LINE
  8
0
 10
-27.1568
 20
-51.7418
 11
-27.2605
 21
-51.7272
  0
LINE
  8
0
 10
-27.2605
 20
-51.7272
 11
-27.3629
 21
-51.7054
  0
LINE
  8
0
 10
-27.3629
 20
-51.7054
 11
-27.4635
 21
-51.6766
  0
LINE
  8
0
 10
-27.4635
 20
-51.6766
 11
-27.5619
 21
-51.6408
  0
LINE
  8
0
 10
-27.5619
 20
-51.6408
 11
-27.6575
 21
-51.5982
  0
LINE
  8
0
 10
-27.6575
 20
-51.5982
 11
-27.75
 21
-51.549
  0
LINE
  8
0
 10
-27.75
 20
-51.549
 11
-27.8388
 21
-51.4936
  0
LINE
  8
0
 10
-27.8388
 20
-51.4936
 11
-27.9235
 21
-51.432
  0
LINE
  8
0
 10
-27.9235
 20
-51.432
 11
-28.0037
 21
-51.3647
  0
LINE
  8
0
 10
-28.0037
 20
-51.3647
 11
-28.079
 21
-51.292
  0
LINE
  8
0
 10
-28.079
 20
-51.292
 11
-28.1491
 21
-51.2142
  0
LINE
  8
0
 10
-28.1491
 20
-51.2142
 11
-28.2135
 21
-51.1317
  0
LINE
  8
0
 10
-28.2135
 20
-51.1317
 11
-28.2721
 21
-51.0449
  0
LINE
  8
0
 10
-28.2721
 20
-51.0449
 11
-28.3244
 21
-50.9542
  0
LINE
  8
0
 10
-28.3244
 20
-50.9542
 11
-28.3703
 21
-50.8601
  0
LINE
  8
0
 10
-28.3703
 20
-50.8601
 11
-28.4095
 21
-50.763
  0
LINE
  8
0
 10
-28.4095
 20
-50.763
 11
-28.4419
 21
-50.6635
  0
LINE
  8
0
 10
-28.4419
 20
-50.6635
 11
-28.4672
 21
-50.5619
  0
LINE
  8
0
 10
-28.4672
 20
-50.5619
 11
-28.4854
 21
-50.4588
  0
LINE
  8
0
 10
-28.4854
 20
-50.4588
 11
-28.4963
 21
-50.3546
  0
LINE
  8
0
 10
-28.4963
 20
-50.3546
 11
-28.5
 21
-50.25
  0
LINE
  8
0
 10
-28.5
 20
-50.25
 11
-28.4963
 21
-50.1454
  0
LINE
  8
0
 10
-28.4963
 20
-50.1454
 11
-28.4854
 21
-50.0412
  0
LINE
  8
0
 10
-28.4854
 20
-50.0412
 11
-28.4672
 21
-49.9381
  0
LINE
  8
0
 10
-28.4672
 20
-49.9381
 11
-28.4419
 21
-49.8365
  0
LINE
  8
0
 10
-28.4419
 20
-49.8365
 11
-28.4095
 21
-49.737
  0
LINE
  8
0
 10
-28.4095
 20
-49.737
 11
-28.3703
 21
-49.6399
  0
LINE
  8
0
 10
-28.3703
 20
-49.6399
 11
-28.3244
 21
-49.5458
  0
LINE
  8
0
 10
-28.3244
 20
-49.5458
 11
-28.2721
 21
-49.4551
  0
LINE
  8
0
 10
-28.2721
 20
-49.4551
 11
-28.2135
 21
-49.3683
  0
LINE
  8
0
 10
-28.2135
 20
-49.3683
 11
-28.1491
 21
-49.2858
  0
LINE
  8
0
 10
-28.1491
 20
-49.2858
 11
-28.079
 21
-49.208
  0
LINE
  8
0
 10
-28.079
 20
-49.208
 11
-28.0037
 21
-49.1353
  0
LINE
  8
0
 10
-28.0037
 20
-49.1353
 11
-27.9235
 21
-49.068
  0
LINE
  8
0
 10
-27.9235
 20
-49.068
 11
-27.8388
 21
-49.0065
  0
LINE
  8
0
 10
-27.8388
 20
-49.0065
 11
-27.75
 21
-48.951
  0
LINE
  8
0
 10
-27.75
 20
-48.951
 11
-27.6575
 21
-48.9018
  0
LINE
  8
0
 10
-27.6575
 20
-48.9018
 11
-27.5619
 21
-48.8592
  0
LINE
  8
0
 10
-27.5619
 20
-48.8592
 11
-27.4635
 21
-48.8234
  0
LINE
  8
0
 10
-27.4635
 20
-48.8234
 11
-27.3629
 21
-48.7946
  0
LINE
  8
0
 10
-27.3629
 20
-48.7946
 11
-27.2605
 21
-48.7728
  0
LINE
  8
0
 10
-27.2605
 20
-48.7728
 11
-27.1568
 21
-48.7582
  0
LINE
  8
0
 10
-27.1568
 20
-48.7582
 11
-27.0523
 21
-48.7509
  0
LINE
  8
0
 10
-27.0523
 20
-48.7509
 11
-26.9476
 21
-48.7509
  0
LINE
  8
0
 10
-26.9476
 20
-48.7509
 11
-26.8432
 21
-48.7582
  0
LINE
  8
0
 10
-26.8432
 20
-48.7582
 11
-26.7395
 21
-48.7728
  0
LINE
  8
0
 10
-26.7395
 20
-48.7728
 11
-26.6371
 21
-48.7946
  0
LINE
  8
0
 10
-26.6371
 20
-48.7946
 11
-26.5365
 21
-48.8234
  0
LINE
  8
0
 10
-26.5365
 20
-48.8234
 11
-26.4381
 21
-48.8592
  0
LINE
  8
0
 10
-26.4381
 20
-48.8592
 11
-26.3424
 21
-48.9018
  0
LINE
  8
0
 10
-26.3424
 20
-48.9018
 11
-26.25
 21
-48.951
  0
LINE
  8
0
 10
-26.25
 20
-48.951
 11
-26.1612
 21
-49.0065
  0
LINE
  8
0
 10
-26.1612
 20
-49.0065
 11
-26.0765
 21
-49.068
  0
LINE
  8
0
 10
-26.0765
 20
-49.068
 11
-25.9963
 21
-49.1353
  0
LINE
  8
0
 10
-25.9963
 20
-49.1353
 11
-25.921
 21
-49.208
  0
LINE
  8
0
 10
-25.921
 20
-49.208
 11
-25.8509
 21
-49.2858
  0
LINE
  8
0
 10
-25.8509
 20
-49.2858
 11
-25.7865
 21
-49.3683
  0
LINE
  8
0
 10
-25.7865
 20
-49.3683
 11
-25.7279
 21
-49.4551
  0
LINE
  8
0
 10
-25.7279
 20
-49.4551
 11
-25.6756
 21
-49.5458
  0
LINE
  8
0
 10
-25.6756
 20
-49.5458
 11
-25.6297
 21
-49.6399
  0
LINE
  8
0
 10
-25.6297
 20
-49.6399
 11
-25.5905
 21
-49.737
  0
LINE
  8
0
 10
-25.5905
 20
-49.737
 11
-25.5581
 21
-49.8365
  0
LINE
  8
0
 10
-25.5581
 20
-49.8365
 11
-25.5328
 21
-49.9381
  0
LINE
  8
0
 10
-25.5328
 20
-49.9381
 11
-25.5146
 21
-50.0412
  0
LINE
  8
0
 10
-25.5146
 20
-50.0412
 11
-25.5036
 21
-50.1454
  0
LINE
  8
0
 10
-25.5036
 20
-50.1454
 11
-25.5
 21
-50.25
  0
LINE
  8
0
 10
-25.5
 20
-50.25
 11
-25.5036
 21
-50.3546
  0
LINE
  8
0
 10
-25.5036
 20
-50.3546
 11
-25.5146
 21
-50.4588
  0
LINE
  8
0
 10
-25.5146
 20
-50.4588
 11
-25.5328
 21
-50.5619
  0
LINE
  8
0
 10
-25.5328
 20
-50.5619
 11
-25.5581
 21
-50.6635
  0
LINE
  8
0
 10
-25.5581
 20
-50.6635
 11
-25.5905
 21
-50.763
  0
LINE
  8
0
 10
-25.5905
 20
-50.763
 11
-25.6297
 21
-50.8601
  0
LINE
  8
0
 10
-25.6297
 20
-50.8601
 11
-25.6756
 21
-50.9542
  0
LINE
  8
0
 10
-25.6756
 20
-50.9542
 11
-25.7279
 21
-51.0449
  0
LINE
  8
0
 10
-25.7279
 20
-51.0449
 11
-25.7865
 21
-51.1317
  0
LINE
  8
0
 10
-25.7865
 20
-51.1317
 11
-25.8509
 21
-51.2142
  0
LINE
  8
0
 10
-25.8509
 20
-51.2142
 11
-25.921
 21
-51.292
  0
LINE
  8
0
 10
-25.921
 20
-51.292
 11
-25.9963
 21
-51.3647
  0
LINE
  8
0
 10
-25.9963
 20
-51.3647
 11
-26.0765
 21
-51.432
  0
LINE
  8
0
 10
-26.0765
 20
-51.432
 11
-26.1612
 21
-51.4936
  0
LINE
  8
0
 10
-26.1612
 20
-51.4936
 11
-26.25
 21
-51.549
  0
LINE
  8
0
 10
-26.25
 20
-51.549
 11
-26.3424
 21
-51.5982
  0
LINE
  8
0
 10
-26.3424
 20
-51.5982
 11
-26.4381
 21
-51.6408
  0
LINE
  8
0
 10
-26.4381
 20
-51.6408
 11
-26.5365
 21
-51.6766
  0
LINE
  8
0
 10
-26.5365
 20
-51.6766
 11
-26.6371
 21
-51.7054
  0
LINE
  8
0
 10
-26.6371
 20
-51.7054
 11
-26.7395
 21
-51.7272
  0
LINE
  8
0
 10
-26.7395
 20
-51.7272
 11
-26.8432
 21
-51.7418
  0
LINE
  8
0
 10
-26.8432
 20
-51.7418
 11
-26.9476
 21
-51.7491
  0
LINE
  8
0
 10
-26.9476
 20
-51.7491
 11
-27.0523
 21
-51.7491
  0
LINE
  8
0
 10
26.9476
 20
-51.7491
 11
26.8432
 21
-51.7418
  0
LINE
  8
0
 10
26.8432
 20
-51.7418
 11
26.7395
 21
-51.7272
  0
LINE
  8
0
 10
26.7395
 20
-51.7272
 11
26.6371
 21
-51.7054
  0
LINE
  8
0
 10
26.6371
 20
-51.7054
 11
26.5365
 21
-51.6766
  0
LINE
  8
0
 10
26.5365
 20
-51.6766
 11
26.4381
 21
-51.6408
  0
LINE
  8
0
 10
26.4381
 20
-51.6408
 11
26.3424
 21
-51.5982
  0
LINE
  8
0
 10
26.3424
 20
-51.5982
 11
26.25
 21
-51.549
  0
LINE
  8
0
 10
26.25
 20
-51.549
 11
26.1612
 21
-51.4936
  0
LINE
  8
0
 10
26.1612
 20
-51.4936
 11
26.0765
 21
-51.432
  0
LINE
  8
0
 10
26.0765
 20
-51.432
 11
25.9963
 21
-51.3647
  0
LINE
  8
0
 10
25.9963
 20
-51.3647
 11
25.921
 21
-51.292
  0
LINE
  8
0
 10
25.921
 20
-51.292
 11
25.8509
 21
-51.2142
  0
LINE
  8
0
 10
25.8509
 20
-51.2142
 11
25.7865
 21
-51.1317
  0
LINE
  8
0
 10
25.7865
 20
-51.1317
 11
25.7279
 21
-51.0449
  0
LINE
  8
0
 10
25.7279
 20
-51.0449
 11
25.6756
 21
-50.9542
  0
LINE
  8
0
 10
25.6756
 20
-50.9542
 11
25.6297
 21
-50.8601
  0
LINE
  8
0
 10
25.6297
 20
-50.8601
 11
25.5905
 21
-50.763
  0
LINE
  8
0
 10
25.5905
 20
-50.763
 11
25.5581
 21
-50.6635
  0
LINE
  8
0
 10
25.5581
 20
-50.6635
 11
25.5328
 21
-50.5619
  0
LINE
  8
0
 10
25.5328
 20
-50.5619
 11
25.5146
 21
-50.4588
  0
LINE
  8
0
 10
25.5146
 20
-50.4588
 11
25.5036
 21
-50.3546
  0
LINE
  8
0
 10
25.5036
 20
-50.3546
 11
25.5
 21
-50.25
  0
LINE
  8
0
 10
25.5
 20
-50.25
 11
25.5036
 21
-50.1454
  0
LINE
  8
0
 10
25.5036
 20
-50.1454
 11
25.5146
 21
-50.0412
  0
LINE
  8
0
 10
25.5146
 20
-50.0412
 11
25.5328
 21
-49.9381
  0
LINE
  8
0
 10
25.5328
 20
-49.9381
 11
25.5581
 21
-49.8365
  0
LINE
  8
0
 10
25.5581
 20
-49.8365
 11
25.5905
 21
-49.737
  0
LINE
  8
0
 10
25.5905
 20
-49.737
 11
25.6297
 21
-49.6399
  0
LINE
  8
0
 10
25.6297
 20
-49.6399
 11
25.6756
 21
-49.5458
  0
LINE
  8
0
 10
25.6756
 20
-49.5458
 11
25.7279
 21
-49.4551
  0
LINE
  8
0
 10
25.7279
 20
-49.4551
 11
25.7865
 21
-49.3683
  0
LINE
  8
0
 10
25.7865
 20
-49.3683
 11
25.8509
 21
-49.2858
  0
LINE
  8
0
 10
25.8509
 20
-49.2858
 11
25.921
 21
-49.208
  0
LINE
  8
0
 10
25.921
 20
-49.208
 11
25.9963
 21
-49.1353
  0
LINE
  8
0
 10
25.9963
 20
-49.1353
 11
26.0765
 21
-49.068
  0
LINE
  8
0
 10
26.0765
 20
-49.068
 11
26.1612
 21
-49.0065
  0
LINE
  8
0
 10
26.1612
 20
-49.0065
 11
26.25
 21
-48.951
  0
LINE
  8
0
 10
26.25
 20
-48.951
 11
26.3424
 21
-48.9018
  0
LINE
  8
0
 10
26.3424
 20
-48.9018
 11
26.4381
 21
-48.8592
  0
LINE
  8
0
 10
26.4381
 20
-48.8592
 11
26.5365
 21
-48.8234
  0
LINE
  8
0
 10
26.5365
 20
-48.8234
 11
26.6371
 21
-48.7946
  0
LINE
  8
0
 10
26.6371
 20
-48.7946
 11
26.7395
 21
-48.7728
  0
LINE
  8
0
 10
26.7395
 20
-48.7728
 11
26.8432
 21
-48.7582
  0
LINE
  8
0
 10
26.8432
 20
-48.7582
 11
26.9476
 21
-48.7509
  0
LINE
  8
0
 10
26.9476
 20
-48.7509
 11
27.0523
 21
-48.7509
  0
LINE
  8
0
 10
27.0523
 20
-48.7509
 11
27.1568
 21
-48.7582
  0
LINE
  8
0
 10
27.1568
 20
-48.7582
 11
27.2605
 21
-48.7728
  0
LINE
  8
0
 10
27.2605
 20
-48.7728
 11
27.3629
 21
-48.7946
  0
LINE
  8
0
 10
27.3629
 20
-48.7946
 11
27.4635
 21
-48.8234
  0
LINE
  8
0
 10
27.4635
 20
-48.8234
 11
27.5619
 21
-48.8592
  0
LINE
  8
0
 10
27.5619
 20
-48.8592
 11
27.6575
 21
-48.9018
  0
LINE
  8
0
 10
27.6575
 20
-48.9018
 11
27.75
 21
-48.951
  0
LINE
  8
0
 10
27.75
 20
-48.951
 11
27.8388
 21
-49.0065
  0
LINE
  8
0
 10
27.8388
 20
-49.0065
 11
27.9235
 21
-49.068
  0
LINE
  8
0
 10
27.9235
 20
-49.068
 11
28.0037
 21
-49.1353
  0
LINE
  8
0
 10
28.0037
 20
-49.1353
 11
28.079
 21
-49.208
  0
LINE
  8
0
 10
28.079
 20
-49.208
 11
28.1491
 21
-49.2858
  0
LINE
  8
0
 10
28.1491
 20
-49.2858
 11
28.2135
 21
-49.3683
  0
LINE
  8
0
 10
28.2135
 20
-49.3683
 11
28.2721
 21
-49.4551
  0
LINE
  8
0
 10
28.2721
 20
-49.4551
 11
28.3244
 21
-49.5458
  0
LINE
  8
0
 10
28.3244
 20
-49.5458
 11
28.3703
 21
-49.6399
  0
LINE
  8
0
 10
28.3703
 20
-49.6399
 11
28.4095
 21
-49.737
  0
LINE
  8
0
 10
28.4095
 20
-49.737
 11
28.4419
 21
-49.8365
  0
LINE
  8
0
 10
28.4419
 20
-49.8365
 11
28.4672
 21
-49.9381
  0
LINE
  8
0
 10
28.4672
 20
-49.9381
 11
28.4854
 21
-50.0412
  0
LINE
  8
0
 10
28.4854
 20
-50.0412
 11
28.4963
 21
-50.1454
  0
LINE
  8
0
 10
28.4963
 20
-50.1454
 11
28.5
 21
-50.25
  0
LINE
  8
0
 10
28.5
 20
-50.25
 11
28.4963
 21
-50.3546
  0
LINE
  8
0
 10
28.4963
 20
-50.3546
 11
28.4854
 21
-50.4588
  0
LINE
  8
0
 10
28.4854
 20
-50.4588
 11
28.4672
 21
-50.5619
  0
LINE
  8
0
 10
28.4672
 20
-50.5619
 11
28.4419
 21
-50.6635
  0
LINE
  8
0
 10
28.4419
 20
-50.6635
 11
28.4095
 21
-50.763
  0
LINE
  8
0
 10
28.4095
 20
-50.763
 11
28.3703
 21
-50.8601
  0
LINE
  8
0
 10
28.3703
 20
-50.8601
 11
28.3244
 21
-50.9542
  0
LINE
  8
0
 10
28.3244
 20
-50.9542
 11
28.2721
 21
-51.0449
  0
LINE
  8
0
 10
28.2721
 20
-51.0449
 11
28.2135
 21
-51.1317
  0
LINE
  8
0
 10
28.2135
 20
-51.1317
 11
28.1491
 21
-51.2142
  0
LINE
  8
0
 10
28.1491
 20
-51.2142
 11
28.079
 21
-51.292
  0
LINE
  8
0
 10
28.079
 20
-51.292
 11
28.0037
 21
-51.3647
  0
LINE
  8
0
 10
28.0037
 20
-51.3647
 11
27.9235
 21
-51.432
  0
LINE
  8
0
 10
27.9235
 20
-51.432
 11
27.8388
 21
-51.4936
  0
LINE
  8
0
 10
27.8388
 20
-51.4936
 11
27.75
 21
-51.549
  0
LINE
  8
0
 10
27.75
 20
-51.549
 11
27.6575
 21
-51.5982
  0
LINE
  8
0
 10
27.6575
 20
-51.5982
 11
27.5619
 21
-51.6408
  0
LINE
  8
0
 10
27.5619
 20
-51.6408
 11
27.4635
 21
-51.6766
  0
LINE
  8
0
 10
27.4635
 20
-51.6766
 11
27.3629
 21
-51.7054
  0
LINE
  8
0
 10
27.3629
 20
-51.7054
 11
27.2605
 21
-51.7272
  0
LINE
  8
0
 10
27.2605
 20
-51.7272
 11
27.1568
 21
-51.7418
  0
LINE
  8
0
 10
27.1568
 20
-51.7418
 11
27.0523
 21
-51.7491
  0
LINE
  8
0
 10
27.0523
 20
-51.7491
 11
26.9476
 21
-51.7491
  0
LINE
  8
0
 10
-0.610733
 20
-85.4893
 11
-1.82924
 21
-85.4041
  0
LINE
  8
0
 10
-1.82924
 20
-85.4041
 11
-3.03883
 21
-85.2341
  0
LINE
  8
0
 10
-3.03883
 20
-85.2341
 11
-4.23363
 21
-84.9802
  0
LINE
  8
0
 10
-4.23363
 20
-84.9802
 11
-5.40779
 21
-84.6435
  0
LINE
  8
0
 10
-5.40779
 20
-84.6435
 11
-6.5556
 21
-84.2257
  0
LINE
  8
0
 10
-6.5556
 20
-84.2257
 11
-7.67149
 21
-83.7289
  0
LINE
  8
0
 10
-7.67149
 20
-83.7289
 11
-8.75
 21
-83.1554
  0
LINE
  8
0
 10
-8.75
 20
-83.1554
 11
-9.78587
 21
-82.5081
  0
LINE
  8
0
 10
-9.78587
 20
-82.5081
 11
-10.7741
 21
-81.7902
  0
LINE
  8
0
 10
-10.7741
 20
-81.7902
 11
-11.7098
 21
-81.005
  0
LINE
  8
0
 10
-11.7098
 20
-81.005
 11
-12.5884
 21
-80.1565
  0
LINE
  8
0
 10
-12.5884
 20
-80.1565
 11
-13.4058
 21
-79.2488
  0
LINE
  8
0
 10
-13.4058
 20
-79.2488
 11
-14.1578
 21
-78.2862
  0
LINE
  8
0
 10
-14.1578
 20
-78.2862
 11
-14.8408
 21
-77.2736
  0
LINE
  8
0
 10
-14.8408
 20
-77.2736
 11
-15.4516
 21
-76.2157
  0
LINE
  8
0
 10
-15.4516
 20
-76.2157
 11
-15.987
 21
-75.1179
  0
LINE
  8
0
 10
-15.987
 20
-75.1179
 11
-16.4446
 21
-73.9854
  0
LINE
  8
0
 10
-16.4446
 20
-73.9854
 11
-16.8221
 21
-72.8236
  0
LINE
  8
0
 10
-16.8221
 20
-72.8236
 11
-17.1176
 21
-71.6384
  0
LINE
  8
0
 10
-17.1176
 20
-71.6384
 11
-17.3297
 21
-70.4355
  0
LINE
  8
0
 10
-17.3297
 20
-70.4355
 11
-17.4574
 21
-69.2207
  0
LINE
  8
0
 10
-17.4574
 20
-69.2207
 11
-17.5
 21
-68
  0
LINE
  8
0
 10
-17.5
 20
-68
 11
-17.4574
 21
-66.7793
  0
LINE
  8
0
 10
-17.4574
 20
-66.7793
 11
-17.3297
 21
-65.5645
  0
LINE
  8
0
 10
-17.3297
 20
-65.5645
 11
-17.1176
 21
-64.3616
  0
LINE
  8
0
 10
-17.1176
 20
-64.3616
 11
-16.8221
 21
-63.1764
  0
LINE
  8
0
 10
-16.8221
 20
-63.1764
 11
-16.4446
 21
-62.0146
  0
LINE
  8
0
 10
-16.4446
 20
-62.0146
 11
-15.987
 21
-60.8821
  0
LINE
  8
0
 10
-15.987
 20
-60.8821
 11
-15.4516
 21
-59.7843
  0
LINE
  8
0
 10
-15.4516
 20
-59.7843
 11
-14.8408
 21
-58.7264
  0
LINE
  8
0
 10
-14.8408
 20
-58.7264
 11
-14.1578
 21
-57.7138
  0
LINE
  8
0
 10
-14.1578
 20
-57.7138
 11
-13.4058
 21
-56.7512
  0
LINE
  8
0
 10
-13.4058
 20
-56.7512
 11
-12.5884
 21
-55.8435
  0
LINE
  8
0
 10
-12.5884
 20
-55.8435
 11
-11.7098
 21
-54.995
  0
LINE
  8
0
 10
-11.7098
 20
-54.995
 11
-10.7741
 21
-54.2098
  0
LINE
  8
0
 10
-10.7741
 20
-54.2098
 11
-9.78587
 21
-53.4919
  0
LINE
  8
0
 10
-9.78587
 20
-53.4919
 11
-8.74998
 21
-52.8446
  0
LINE
  8
0
 10
-8.74998
 20
-52.8446
 11
-7.67149
 21
-52.2711
  0
LINE
  8
0
 10
-7.67149
 20
-52.2711
 11
-6.5556
 21
-51.7743
  0
LINE
  8
0
 10
-6.5556
 20
-51.7743
 11
-5.40779
 21
-51.3565
  0
LINE
  8
0
 10
-5.40779
 20
-51.3565
 11
-4.23363
 21
-51.0198
  0
LINE
  8
0
 10
-4.23363
 20
-51.0198
 11
-3.03883
 21
-50.7659
  0
LINE
  8
0
 10
-3.03883
 20
-50.7659
 11
-1.82924
 21
-50.5959
  0
LINE
  8
0
 10
-1.82924
 20
-50.5959
 11
-0.610733
 21
-50.5107
  0
LINE
  8
0
 10
-0.610733
 20
-50.5107
 11
0.610733
 21
-50.5107
  0
LINE
  8
0
 10
0.610733
 20
-50.5107
 11
1.82924
 21
-50.5959
  0
LINE
  8
0
 10
1.82924
 20
-50.5959
 11
3.03883
 21
-50.7659
  0
LINE
  8
0
 10
3.03883
 20
-50.7659
 11
4.23363
 21
-51.0198
  0
LINE
  8
0
 10
4.23363
 20
-51.0198
 11
5.40779
 21
-51.3565
  0
LINE
  8
0
 10
5.40779
 20
-51.3565
 11
6.5556
 21
-51.7743
  0
LINE
  8
0
 10
6.5556
 20
-51.7743
 11
7.67149
 21
-52.2711
  0
LINE
  8
0
 10
7.67149
 20
-52.2711
 11
8.75
 21
-52.8446
  0
LINE
  8
0
 10
8.75
 20
-52.8446
 11
9.78587
 21
-53.4919
  0
LINE
  8
0
 10
9.78587
 20
-53.4919
 11
10.7741
 21
-54.2098
  0
LINE
  8
0
 10
10.7741
 20
-54.2098
 11
11.7098
 21
-54.995
  0
LINE
  8
0
 10
11.7098
 20
-54.995
 11
12.5884
 21
-55.8435
  0
LINE
  8
0
 10
12.5884
 20
-55.8435
 11
13.4058
 21
-56.7512
  0
LINE
  8
0
 10
13.4058
 20
-56.7512
 11
14.1578
 21
-57.7138
  0
LINE
  8
0
 10
14.1578
 20
-57.7138
 11
14.8408
 21
-58.7264
  0
LINE
  8
0
 10
14.8408
 20
-58.7264
 11
15.4516
 21
-59.7843
  0
LINE
  8
0
 10
15.4516
 20
-59.7843
 11
15.987
 21
-60.8821
  0
LINE
  8
0
 10
15.987
 20
-60.8821
 11
16.4446
 21
-62.0146
  0
LINE
  8
0
 10
16.4446
 20
-62.0146
 11
16.8221
 21
-63.1764
  0
LINE
  8
0
 10
16.8221
 20
-63.1764
 11
17.1176
 21
-64.3616
  0
LINE
  8
0
 10
17.1176
 20
-64.3616
 11
17.3297
 21
-65.5645
  0
LINE
  8
0
 10
17.3297
 20
-65.5645
 11
17.4574
 21
-66.7793
  0
LINE
  8
0
 10
17.4574
 20
-66.7793
 11
17.5
 21
-68
  0
LINE
  8
0
 10
17.5
 20
-68
 11
17.4574
 21
-69.2207
  0
LINE
  8
0
 10
17.4574
 20
-69.2207
 11
17.3297
 21
-70.4355
  0
LINE
  8
0
 10
17.3297
 20
-70.4355
 11
17.1176
 21
-71.6384
  0
LINE
  8
0
 10
17.1176
 20
-71.6384
 11
16.8221
 21
-72.8236
  0
LINE
  8
0
 10
16.8221
 20
-72.8236
 11
16.4446
 21
-73.9854
  0
LINE
  8
0
 10
16.4446
 20
-73.9854
 11
15.987
 21
-75.1179
  0
LINE
  8
0
 10
15.987
 20
-75.1179
 11
15.4516
 21
-76.2157
  0
LINE
  8
0
 10
15.4516
 20
-76.2157
 11
14.8408
 21
-77.2736
  0
LINE
  8
0
 10
14.8408
 20
-77.2736
 11
14.1578
 21
-78.2862
  0
LINE
  8
0
 10
14.1578
 20
-78.2862
 11
13.4058
 21
-79.2488
  0
LINE
  8
0
 10
13.4058
 20
-79.2488
 11
12.5884
 21
-80.1565
  0
LINE
  8
0
 10
12.5884
 20
-80.1565
 11
11.7098
 21
-81.005
  0
LINE
  8
0
 10
11.7098
 20
-81.005
 11
10.7741
 21
-81.7902
  0
LINE
  8
0
 10
10.7741
 20
-81.7902
 11
9.78587
 21
-82.5081
  0
LINE
  8
0
 10
9.78587
 20
-82.5081
 11
8.75
 21
-83.1554
  0
LINE
  8
0
 10
8.75
 20
-83.1554
 11
7.67149
 21
-83.7289
  0
LINE
  8
0
 10
7.67149
 20
-83.7289
 11
6.5556
 21
-84.2257
  0
LINE
  8
0
 10
6.5556
 20
-84.2257
 11
5.40779
 21
-84.6435
  0
LINE
  8
0
 10
5.40779
 20
-84.6435
 11
4.23363
 21
-84.9802
  0
LINE
  8
0
 10
4.23363
 20
-84.9802
 11
3.03883
 21
-85.2341
  0
LINE
  8
0
 10
3.03883
 20
-85.2341
 11
1.82924
 21
-85.4041
  0
LINE
  8
0
 10
1.82924
 20
-85.4041
 11
0.610733
 21
-85.4893
  0
LINE
  8
0
 10
0.610733
 20
-85.4893
 11
-0.610733
 21
-85.4893
  0
LINE
  8
0
 10
-37.0698
 20
-69.9988
 11
-37.209
 21
-69.989
  0
LINE
  8
0
 10
-37.209
 20
-69.989
 11
-37.3473
 21
-69.9696
  0
LINE
  8
0
 10
-37.3473
 20
-69.9696
 11
-37.4838
 21
-69.9406
  0
LINE
  8
0
 10
-37.4838
 20
-69.9406
 11
-37.618
 21
-69.9021
  0
LINE
  8
0
 10
-37.618
 20
-69.9021
 11
-37.7492
 21
-69.8544
  0
LINE
  8
0
 10
-37.7492
 20
-69.8544
 11
-37.8767
 21
-69.7976
  0
LINE
  8
0
 10
-37.8767
 20
-69.7976
 11
-38
 21
-69.732
  0
LINE
  8
0
 10
-38
 20
-69.732
 11
-38.1184
 21
-69.6581
  0
LINE
  8
0
 10
-38.1184
 20
-69.6581
 11
-38.2313
 21
-69.576
  0
LINE
  8
0
 10
-38.2313
 20
-69.576
 11
-38.3383
 21
-69.4863
  0
LINE
  8
0
 10
-38.3383
 20
-69.4863
 11
-38.4387
 21
-69.3893
  0
LINE
  8
0
 10
-38.4387
 20
-69.3893
 11
-38.5321
 21
-69.2856
  0
LINE
  8
0
 10
-38.5321
 20
-69.2856
 11
-38.618
 21
-69.1756
  0
LINE
  8
0
 10
-38.618
 20
-69.1756
 11
-38.6961
 21
-69.0598
  0
LINE
  8
0
 10
-38.6961
 20
-69.0598
 11
-38.7659
 21
-68.9389
  0
LINE
  8
0
 10
-38.7659
 20
-68.9389
 11
-38.8271
 21
-68.8135
  0
LINE
  8
0
 10
-38.8271
 20
-68.8135
 11
-38.8794
 21
-68.684
  0
LINE
  8
0
 10
-38.8794
 20
-68.684
 11
-38.9225
 21
-68.5513
  0
LINE
  8
0
 10
-38.9225
 20
-68.5513
 11
-38.9563
 21
-68.4158
  0
LINE
  8
0
 10
-38.9563
 20
-68.4158
 11
-38.9805
 21
-68.2783
  0
LINE
  8
0
 10
-38.9805
 20
-68.2783
 11
-38.9951
 21
-68.1395
  0
LINE
  8
0
 10
-38.9951
 20
-68.1395
 11
-39
 21
-68
  0
LINE
  8
0
 10
-39
 20
-68
 11
-38.9951
 21
-67.8605
  0
LINE
  8
0
 10
-38.9951
 20
-67.8605
 11
-38.9805
 21
-67.7217
  0
LINE
  8
0
 10
-38.9805
 20
-67.7217
 11
-38.9563
 21
-67.5842
  0
LINE
  8
0
 10
-38.9563
 20
-67.5842
 11
-38.9225
 21
-67.4487
  0
LINE
  8
0
 10
-38.9225
 20
-67.4487
 11
-38.8794
 21
-67.316
  0
LINE
  8
0
 10
-38.8794
 20
-67.316
 11
-38.8271
 21
-67.1865
  0
LINE
  8
0
 10
-38.8271
 20
-67.1865
 11
-38.7659
 21
-67.0611
  0
LINE
  8
0
 10
-38.7659
 20
-67.0611
 11
-38.6961
 21
-66.9402
  0
LINE
  8
0
 10
-38.6961
 20
-66.9402
 11
-38.618
 21
-66.8244
  0
LINE
  8
0
 10
-38.618
 20
-66.8244
 11
-38.5321
 21
-66.7144
  0
LINE
  8
0
 10
-38.5321
 20
-66.7144
 11
-38.4387
 21
-66.6107
  0
LINE
  8
0
 10
-38.4387
 20
-66.6107
 11
-38.3383
 21
-66.5137
  0
LINE
  8
0
 10
-38.3383
 20
-66.5137
 11
-38.2313
 21
-66.424
  0
LINE
  8
0
 10
-38.2313
 20
-66.424
 11
-38.1184
 21
-66.3419
  0
LINE
  8
0
 10
-38.1184
 20
-66.3419
 11
-38
 21
-66.268
  0
LINE
  8
0
 10
-38
 20
-66.268
 11
-37.8767
 21
-66.2024
  0
LINE
  8
0
 10
-37.8767
 20
-66.2024
 11
-37.7492
 21
-66.1456
  0
LINE
  8
0
 10
-37.7492
 20
-66.1456
 11
-37.618
 21
-66.0979
  0
LINE
  8
0
 10
-37.618
 20
-66.0979
 11
-37.4838
 21
-66.0594
  0
LINE
  8
0
 10
-37.4838
 20
-66.0594
 11
-37.3473
 21
-66.0304
  0
LINE
  8
0
 10
-37.3473
 20
-66.0304
 11
-37.209
 21
-66.011
  0
LINE
  8
0
 10
-37.209
 20
-66.011
 11
-37.0698
 21
-66.0012
  0
LINE
  8
0
 10
-37.0698
 20
-66.0012
 11
-36.9302
 21
-66.0012
  0
LINE
  8
0
 10
-36.9302
 20
-66.0012
 11
-36.7909
 21
-66.011
  0
LINE
  8
0
 10
-36.7909
 20
-66.011
 11
-36.6527
 21
-66.0304
  0
LINE
  8
0
 10
-36.6527
 20
-66.0304
 11
-36.5161
 21
-66.0594
  0
LINE
  8
0
 10
-36.5161
 20
-66.0594
 11
-36.382
 21
-66.0979
  0
LINE
  8
0
 10
-36.382
 20
-66.0979
 11
-36.2508
 21
-66.1456
  0
LINE
  8
0
 10
-36.2508
 20
-66.1456
 11
-36.1232
 21
-66.2024
  0
LINE
  8
0
 10
-36.1232
 20
-66.2024
 11
-36
 21
-66.268
  0
LINE
  8
0
 10
-36
 20
-66.268
 11
-35.8816
 21
-66.3419
  0
LINE
  8
0
 10
-35.8816
 20
-66.3419
 11
-35.7687
 21
-66.424
  0
LINE
  8
0
 10
-35.7687
 20
-66.424
 11
-35.6617
 21
-66.5137
  0
LINE
  8
0
 10
-35.6617
 20
-66.5137
 11
-35.5613
 21
-66.6107
  0
LINE
  8
0
 10
-35.5613
 20
-66.6107
 11
-35.4679
 21
-66.7144
  0
LINE
  8
0
 10
-35.4679
 20
-66.7144
 11
-35.382
 21
-66.8244
  0
LINE
  8
0
 10
-35.382
 20
-66.8244
 11
-35.3039
 21
-66.9402
  0
LINE
  8
0
 10
-35.3039
 20
-66.9402
 11
-35.2341
 21
-67.0611
  0
LINE
  8
0
 10
-35.2341
 20
-67.0611
 11
-35.1729
 21
-67.1865
  0
LINE
  8
0
 10
-35.1729
 20
-67.1865
 11
-35.1206
 21
-67.316
  0
LINE
  8
0
 10
-35.1206
 20
-67.316
 11
-35.0775
 21
-67.4487
  0
LINE
  8
0
 10
-35.0775
 20
-67.4487
 11
-35.0437
 21
-67.5842
  0
LINE
  8
0
 10
-35.0437
 20
-67.5842
 11
-35.0195
 21
-67.7217
  0
LINE
  8
0
 10
-35.0195
 20
-67.7217
 11
-35.0049
 21
-67.8605
  0
LINE
  8
0
 10
-35.0049
 20
-67.8605
 11
-35
 21
-68
  0
LINE
  8
0
 10
-35
 20
-68
 11
-35.0049
 21
-68.1395
  0
LINE
  8
0
 10
-35.0049
 20
-68.1395
 11
-35.0195
 21
-68.2783
  0
LINE
  8
0
 10
-35.0195
 20
-68.2783
 11
-35.0437
 21
-68.4158
  0
LINE
  8
0
 10
-35.0437
 20
-68.4158
 11
-35.0775
 21
-68.5513
  0
LINE
  8
0
 10
-35.0775
 20
-68.5513
 11
-35.1206
 21
-68.684
  0
LINE
  8
0
 10
-35.1206
 20
-68.684
 11
-35.1729
 21
-68.8135
  0
LINE
  8
0
 10
-35.1729
 20
-68.8135
 11
-35.2341
 21
-68.9389
  0
LINE
  8
0
 10
-35.2341
 20
-68.9389
 11
-35.3039
 21
-69.0598
  0
LINE
  8
0
 10
-35.3039
 20
-69.0598
 11
-35.382
 21
-69.1756
  0
LINE
  8
0
 10
-35.382
 20
-69.1756
 11
-35.4679
 21
-69.2856
  0
LINE
  8
0
 10
-35.4679
 20
-69.2856
 11
-35.5613
 21
-69.3893
  0
LINE
  8
0
 10
-35.5613
 20
-69.3893
 11
-35.6617
 21
-69.4863
  0
LINE
  8
0
 10
-35.6617
 20
-69.4863
 11
-35.7687
 21
-69.576
  0
LINE
  8
0
 10
-35.7687
 20
-69.576
 11
-35.8816
 21
-69.6581
  0
LINE
  8
0
 10
-35.8816
 20
-69.6581
 11
-36
 21
-69.732
  0
LINE
  8
0
 10
-36
 20
-69.732
 11
-36.1232
 21
-69.7976
  0
LINE
  8
0
 10
-36.1232
 20
-69.7976
 11
-36.2508
 21
-69.8544
  0
LINE
  8
0
 10
-36.2508
 20
-69.8544
 11
-36.382
 21
-69.9021
  0
LINE
  8
0
 10
-36.382
 20
-69.9021
 11
-36.5161
 21
-69.9406
  0
LINE
  8
0
 10
-36.5161
 20
-69.9406
 11
-36.6527
 21
-69.9696
  0
LINE
  8
0
 10
-36.6527
 20
-69.9696
 11
-36.7909
 21
-69.989
  0
LINE
  8
0
 10
-36.7909
 20
-69.989
 11
-36.9302
 21
-69.9988
  0
LINE
  8
0
 10
-36.9302
 20
-69.9988
 11
-37.0698
 21
-69.9988
  0
LINE
  8
0
 10
36.9302
 20
-69.9988
 11
36.7909
 21
-69.989
  0
LINE
  8
0
 10
36.7909
 20
-69.989
 11
36.6527
 21
-69.9696
  0
LINE
  8
0
 10
36.6527
 20
-69.9696
 11
36.5161
 21
-69.9406
  0
LINE
  8
0
 10
36.5161
 20
-69.9406
 11
36.382
 21
-69.9021
  0
LINE
  8
0
 10
36.382
 20
-69.9021
 11
36.2508
 21
-69.8544
  0
LINE
  8
0
 10
36.2508
 20
-69.8544
 11
36.1232
 21
-69.7976
  0
LINE
  8
0
 10
36.1232
 20
-69.7976
 11
36
 21
-69.732
  0
LINE
  8
0
 10
36
 20
-69.732
 11
35.8816
 21
-69.6581
  0
LINE
  8
0
 10
35.8816
 20
-69.6581
 11
35.7687
 21
-69.576
  0
LINE
  8
0
 10
35.7687
 20
-69.576
 11
35.6617
 21
-69.4863
  0
LINE
  8
0
 10
35.6617
 20
-69.4863
 11
35.5613
 21
-69.3893
  0
LINE
  8
0
 10
35.5613
 20
-69.3893
 11
35.4679
 21
-69.2856
  0
LINE
  8
0
 10
35.4679
 20
-69.2856
 11
35.382
 21
-69.1756
  0
LINE
  8
0
 10
35.382
 20
-69.1756
 11
35.3039
 21
-69.0598
  0
LINE
  8
0
 10
35.3039
 20
-69.0598
 11
35.2341
 21
-68.9389
  0
LINE
  8
0
 10
35.2341
 20
-68.9389
 11
35.1729
 21
-68.8135
  0
LINE
  8
0
 10
35.1729
 20
-68.8135
 11
35.1206
 21
-68.684
  0
LINE
  8
0
 10
35.1206
 20
-68.684
 11
35.0775
 21
-68.5513
  0
LINE
  8
0
 10
35.0775
 20
-68.5513
 11
35.0437
 21
-68.4158
  0
LINE
  8
0
 10
35.0437
 20
-68.4158
 11
35.0195
 21
-68.2783
  0
LINE
  8
0
 10
35.0195
 20
-68.2783
 11
35.0049
 21
-68.1395
  0
LINE
  8
0
 10
35.0049
 20
-68.1395
 11
35
 21
-68
  0
LINE
  8
0
 10
35
 20
-68
 11
35.0049
 21
-67.8605
  0
LINE
  8
0
 10
35.0049
 20
-67.8605
 11
35.0195
 21
-67.7217
  0
LINE
  8
0
 10
35.0195
 20
-67.7217
 11
35.0437
 21
-67.5842
  0
LINE
  8
0
 10
35.0437
 20
-67.5842
 11
35.0775
 21
-67.4487
  0
LINE
  8
0
 10
35.0775
 20
-67.4487
 11
35.1206
 21
-67.316
  0
LINE
  8
0
 10
35.1206
 20
-67.316
 11
35.1729
 21
-67.1865
  0
LINE
  8
0
 10
35.1729
 20
-67.1865
 11
35.2341
 21
-67.0611
  0
LINE
  8
0
 10
35.2341
 20
-67.0611
 11
35.3039
 21
-66.9402
  0
LINE
  8
0
 10
35.3039
 20
-66.9402
 11
35.382
 21
-66.8244
  0
LINE
  8
0
 10
35.382
 20
-66.8244
 11
35.4679
 21
-66.7144
  0
LINE
  8
0
 10
35.4679
 20
-66.7144
 11
35.5613
 21
-66.6107
  0
LINE
  8
0
 10
35.5613
 20
-66.6107
 11
35.6617
 21
-66.5137
  0
LINE
  8
0
 10
35.6617
 20
-66.5137
 11
35.7687
 21
-66.424
  0
LINE
  8
0
 10
35.7687
 20
-66.424
 11
35.8816
 21
-66.3419
  0
LINE
  8
0
 10
35.8816
 20
-66.3419
 11
36
 21
-66.268
  0
LINE
  8
0
 10
36
 20
-66.268
 11
36.1232
 21
-66.2024
  0
LINE
  8
0
 10
36.1232
 20
-66.2024
 11
36.2508
 21
-66.1456
  0
LINE
  8
0
 10
36.2508
 20
-66.1456
 11
36.382
 21
-66.0979
  0
LINE
  8
0
 10
36.382
 20
-66.0979
 11
36.5161
 21
-66.0594
  0
LINE
  8
0
 10
36.5161
 20
-66.0594
 11
36.6527
 21
-66.0304
  0
LINE
  8
0
 10
36.6527
 20
-66.0304
 11
36.7909
 21
-66.011
  0
LINE
  8
0
 10
36.7909
 20
-66.011
 11
36.9302
 21
-66.0012
  0
LINE
  8
0
 10
36.9302
 20
-66.0012
 11
37.0698
 21
-66.0012
  0
LINE
  8
0
 10
37.0698
 20
-66.0012
 11
37.209
 21
-66.011
  0
LINE
  8
0
 10
37.209
 20
-66.011
 11
37.3473
 21
-66.0304
  0
LINE
  8
0
 10
37.3473
 20
-66.0304
 11
37.4838
 21
-66.0594
  0
LINE
  8
0
 10
37.4838
 20
-66.0594
 11
37.618
 21
-66.0979
  0
LINE
  8
0
 10
37.618
 20
-66.0979
 11
37.7492
 21
-66.1456
  0
LINE
  8
0
 10
37.7492
 20
-66.1456
 11
37.8767
 21
-66.2024
  0
LINE
  8
0
 10
37.8767
 20
-66.2024
 11
38
 21
-66.268
  0
LINE
  8
0
 10
38
 20
-66.268
 11
38.1184
 21
-66.3419
  0
LINE
  8
0
 10
38.1184
 20
-66.3419
 11
38.2313
 21
-66.424
  0
LINE
  8
0
 10
38.2313
 20
-66.424
 11
38.3383
 21
-66.5137
  0
LINE
  8
0
 10
38.3383
 20
-66.5137
 11
38.4387
 21
-66.6107
  0
LINE
  8
0
 10
38.4387
 20
-66.6107
 11
38.5321
 21
-66.7144
  0
LINE
  8
0
 10
38.5321
 20
-66.7144
 11
38.618
 21
-66.8244
  0
LINE
  8
0
 10
38.618
 20
-66.8244
 11
38.6961
 21
-66.9402
  0
LINE
  8
0
 10
38.6961
 20
-66.9402
 11
38.7659
 21
-67.0611
  0
LINE
  8
0
 10
38.7659
 20
-67.0611
 11
38.8271
 21
-67.1865
  0
LINE
  8
0
 10
38.8271
 20
-67.1865
 11
38.8794
 21
-67.316
  0
LINE
  8
0
 10
38.8794
 20
-67.316
 11
38.9225
 21
-67.4487
  0
LINE
  8
0
 10
38.9225
 20
-67.4487
 11
38.9563
 21
-67.5842
  0
LINE
  8
0
 10
38.9563
 20
-67.5842
 11
38.9805
 21
-67.7217
  0
LINE
  8
0
 10
38.9805
 20
-67.7217
 11
38.9951
 21
-67.8605
  0
LINE
  8
0
 10
38.9951
 20
-67.8605
 11
39
 21
-68
  0
LINE
  8
0
 10
39
 20
-68
 11
38.9951
 21
-68.1395
  0
LINE
  8
0
 10
38.9951
 20
-68.1395
 11
38.9805
 21
-68.2783
  0
LINE
  8
0
 10
38.9805
 20
-68.2783
 11
38.9563
 21
-68.4158
  0
LINE
  8
0
 10
38.9563
 20
-68.4158
 11
38.9225
 21
-68.5513
  0
LINE
  8
0
 10
38.9225
 20
-68.5513
 11
38.8794
 21
-68.684
  0
LINE
  8
0
 10
38.8794
 20
-68.684
 11
38.8271
 21
-68.8135
  0
LINE
  8
0
 10
38.8271
 20
-68.8135
 11
38.7659
 21
-68.9389
  0
LINE
  8
0
 10
38.7659
 20
-68.9389
 11
38.6961
 21
-69.0598
  0
LINE
  8
0
 10
38.6961
 20
-69.0598
 11
38.618
 21
-69.1756
  0
LINE
  8
0
 10
38.618
 20
-69.1756
 11
38.5321
 21
-69.2856
  0
LINE
  8
0
 10
38.5321
 20
-69.2856
 11
38.4387
 21
-69.3893
  0
LINE
  8
0
 10
38.4387
 20
-69.3893
 11
38.3383
 21
-69.4863
  0
LINE
  8
0
 10
38.3383
 20
-69.4863
 11
38.2313
 21
-69.576
  0
LINE
  8
0
 10
38.2313
 20
-69.576
 11
38.1184
 21
-69.6581
  0
LINE
  8
0
 10
38.1184
 20
-69.6581
 11
38
 21
-69.732
  0
LINE
  8
0
 10
38
 20
-69.732
 11
37.8767
 21
-69.7976
  0
LINE
  8
0
 10
37.8767
 20
-69.7976
 11
37.7492
 21
-69.8544
  0
LINE
  8
0
 10
37.7492
 20
-69.8544
 11
37.618
 21
-69.9021
  0
LINE
  8
0
 10
37.618
 20
-69.9021
 11
37.4838
 21
-69.9406
  0
LINE
  8
0
 10
37.4838
 20
-69.9406
 11
37.3473
 21
-69.9696
  0
LINE
  8
0
 10
37.3473
 20
-69.9696
 11
37.209
 21
-69.989
  0
LINE
  8
0
 10
37.209
 20
-69.989
 11
37.0698
 21
-69.9988
  0
LINE
  8
0
 10
37.0698
 20
-69.9988
 11
36.9302
 21
-69.9988
  0
LINE
  8
0
 10
26.9476
 20
-87.2491
 11
26.8432
 21
-87.2418
  0
LINE
  8
0
 10
26.8432
 20
-87.2418
 11
26.7395
 21
-87.2272
  0
LINE
  8
0
 10
26.7395
 20
-87.2272
 11
26.6371
 21
-87.2054
  0
LINE
  8
0
 10
26.6371
 20
-87.2054
 11
26.5365
 21
-87.1766
  0
LINE
  8
0
 10
26.5365
 20
-87.1766
 11
26.4381
 21
-87.1408
  0
LINE
  8
0
 10
26.4381
 20
-87.1408
 11
26.3424
 21
-87.0982
  0
LINE
  8
0
 10
26.3424
 20
-87.0982
 11
26.25
 21
-87.049
  0
LINE
  8
0
 10
26.25
 20
-87.049
 11
26.1612
 21
-86.9935
  0
LINE
  8
0
 10
26.1612
 20
-86.9935
 11
26.0765
 21
-86.932
  0
LINE
  8
0
 10
26.0765
 20
-86.932
 11
25.9963
 21
-86.8647
  0
LINE
  8
0
 10
25.9963
 20
-86.8647
 11
25.921
 21
-86.792
  0
LINE
  8
0
 10
25.921
 20
-86.792
 11
25.8509
 21
-86.7142
  0
LINE
  8
0
 10
25.8509
 20
-86.7142
 11
25.7865
 21
-86.6317
  0
LINE
  8
0
 10
25.7865
 20
-86.6317
 11
25.7279
 21
-86.5449
  0
LINE
  8
0
 10
25.7279
 20
-86.5449
 11
25.6756
 21
-86.4542
  0
LINE
  8
0
 10
25.6756
 20
-86.4542
 11
25.6297
 21
-86.3601
  0
LINE
  8
0
 10
25.6297
 20
-86.3601
 11
25.5905
 21
-86.263
  0
LINE
  8
0
 10
25.5905
 20
-86.263
 11
25.5581
 21
-86.1635
  0
LINE
  8
0
 10
25.5581
 20
-86.1635
 11
25.5328
 21
-86.0619
  0
LINE
  8
0
 10
25.5328
 20
-86.0619
 11
25.5146
 21
-85.9588
  0
LINE
  8
0
 10
25.5146
 20
-85.9588
 11
25.5036
 21
-85.8546
  0
LINE
  8
0
 10
25.5036
 20
-85.8546
 11
25.5
 21
-85.75
  0
LINE
  8
0
 10
25.5
 20
-85.75
 11
25.5036
 21
-85.6454
  0
LINE
  8
0
 10
25.5036
 20
-85.6454
 11
25.5146
 21
-85.5412
  0
LINE
  8
0
 10
25.5146
 20
-85.5412
 11
25.5328
 21
-85.4381
  0
LINE
  8
0
 10
25.5328
 20
-85.4381
 11
25.5581
 21
-85.3365
  0
LINE
  8
0
 10
25.5581
 20
-85.3365
 11
25.5905
 21
-85.237
  0
LINE
  8
0
 10
25.5905
 20
-85.237
 11
25.6297
 21
-85.1399
  0
LINE
  8
0
 10
25.6297
 20
-85.1399
 11
25.6756
 21
-85.0458
  0
LINE
  8
0
 10
25.6756
 20
-85.0458
 11
25.7279
 21
-84.9551
  0
LINE
  8
0
 10
25.7279
 20
-84.9551
 11
25.7865
 21
-84.8683
  0
LINE
  8
0
 10
25.7865
 20
-84.8683
 11
25.8509
 21
-84.7858
  0
LINE
  8
0
 10
25.8509
 20
-84.7858
 11
25.921
 21
-84.708
  0
LINE
  8
0
 10
25.921
 20
-84.708
 11
25.9963
 21
-84.6353
  0
LINE
  8
0
 10
25.9963
 20
-84.6353
 11
26.0765
 21
-84.568
  0
LINE
  8
0
 10
26.0765
 20
-84.568
 11
26.1612
 21
-84.5064
  0
LINE
  8
0
 10
26.1612
 20
-84.5064
 11
26.25
 21
-84.451
  0
LINE
  8
0
 10
26.25
 20
-84.451
 11
26.3424
 21
-84.4018
  0
LINE
  8
0
 10
26.3424
 20
-84.4018
 11
26.4381
 21
-84.3592
  0
LINE
  8
0
 10
26.4381
 20
-84.3592
 11
26.5365
 21
-84.3234
  0
LINE
  8
0
 10
26.5365
 20
-84.3234
 11
26.6371
 21
-84.2946
  0
LINE
  8
0
 10
26.6371
 20
-84.2946
 11
26.7395
 21
-84.2728
  0
LINE
  8
0
 10
26.7395
 20
-84.2728
 11
26.8432
 21
-84.2582
  0
LINE
  8
0
 10
26.8432
 20
-84.2582
 11
26.9476
 21
-84.2509
  0
LINE
  8
0
 10
26.9476
 20
-84.2509
 11
27.0523
 21
-84.2509
  0
LINE
  8
0
 10
27.0523
 20
-84.2509
 11
27.1568
 21
-84.2582
  0
LINE
  8
0
 10
27.1568
 20
-84.2582
 11
27.2605
 21
-84.2728
  0
LINE
  8
0
 10
27.2605
 20
-84.2728
 11
27.3629
 21
-84.2946
  0
LINE
  8
0
 10
27.3629
 20
-84.2946
 11
27.4635
 21
-84.3234
  0
LINE
  8
0
 10
27.4635
 20
-84.3234
 11
27.5619
 21
-84.3592
  0
LINE
  8
0
 10
27.5619
 20
-84.3592
 11
27.6575
 21
-84.4018
  0
LINE
  8
0
 10
27.6575
 20
-84.4018
 11
27.75
 21
-84.451
  0
LINE
  8
0
 10
27.75
 20
-84.451
 11
27.8388
 21
-84.5064
  0
LINE
  8
0
 10
27.8388
 20
-84.5064
 11
27.9235
 21
-84.568
  0
LINE
  8
0
 10
27.9235
 20
-84.568
 11
28.0037
 21
-84.6353
  0
LINE
  8
0
 10
28.0037
 20
-84.6353
 11
28.079
 21
-84.708
  0
LINE
  8
0
 10
28.079
 20
-84.708
 11
28.1491
 21
-84.7858
  0
LINE
  8
0
 10
28.1491
 20
-84.7858
 11
28.2135
 21
-84.8683
  0
LINE
  8
0
 10
28.2135
 20
-84.8683
 11
28.2721
 21
-84.9551
  0
LINE
  8
0
 10
28.2721
 20
-84.9551
 11
28.3244
 21
-85.0458
  0
LINE
  8
0
 10
28.3244
 20
-85.0458
 11
28.3703
 21
-85.1399
  0
LINE
  8
0
 10
28.3703
 20
-85.1399
 11
28.4095
 21
-85.237
  0
LINE
  8
0
 10
28.4095
 20
-85.237
 11
28.4419
 21
-85.3365
  0
LINE
  8
0
 10
28.4419
 20
-85.3365
 11
28.4672
 21
-85.4381
  0
LINE
  8
0
 10
28.4672
 20
-85.4381
 11
28.4854
 21
-85.5412
  0
LINE
  8
0
 10
28.4854
 20
-85.5412
 11
28.4963
 21
-85.6454
  0
LINE
  8
0
 10
28.4963
 20
-85.6454
 11
28.5
 21
-85.75
  0
LINE
  8
0
 10
28.5
 20
-85.75
 11
28.4963
 21
-85.8546
  0
LINE
  8
0
 10
28.4963
 20
-85.8546
 11
28.4854
 21
-85.9588
  0
LINE
  8
0
 10
28.4854
 20
-85.9588
 11
28.4672
 21
-86.0619
  0
LINE
  8
0
 10
28.4672
 20
-86.0619
 11
28.4419
 21
-86.1635
  0
LINE
  8
0
 10
28.4419
 20
-86.1635
 11
28.4095
 21
-86.263
  0
LINE
  8
0
 10
28.4095
 20
-86.263
 11
28.3703
 21
-86.3601
  0
LINE
  8
0
 10
28.3703
 20
-86.3601
 11
28.3244
 21
-86.4542
  0
LINE
  8
0
 10
28.3244
 20
-86.4542
 11
28.2721
 21
-86.5449
  0
LINE
  8
0
 10
28.2721
 20
-86.5449
 11
28.2135
 21
-86.6317
  0
LINE
  8
0
 10
28.2135
 20
-86.6317
 11
28.1491
 21
-86.7142
  0
LINE
  8
0
 10
28.1491
 20
-86.7142
 11
28.079
 21
-86.792
  0
LINE
  8
0
 10
28.079
 20
-86.792
 11
28.0037
 21
-86.8647
  0
LINE
  8
0
 10
28.0037
 20
-86.8647
 11
27.9235
 21
-86.932
  0
LINE
  8
0
 10
27.9235
 20
-86.932
 11
27.8388
 21
-86.9935
  0
LINE
  8
0
 10
27.8388
 20
-86.9935
 11
27.75
 21
-87.049
  0
LINE
  8
0
 10
27.75
 20
-87.049
 11
27.6575
 21
-87.0982
  0
LINE
  8
0
 10
27.6575
 20
-87.0982
 11
27.5619
 21
-87.1408
  0
LINE
  8
0
 10
27.5619
 20
-87.1408
 11
27.4635
 21
-87.1766
  0
LINE
  8
0
 10
27.4635
 20
-87.1766
 11
27.3629
 21
-87.2054
  0
LINE
  8
0
 10
27.3629
 20
-87.2054
 11
27.2605
 21
-87.2272
  0
LINE
  8
0
 10
27.2605
 20
-87.2272
 11
27.1568
 21
-87.2418
  0
LINE
  8
0
 10
27.1568
 20
-87.2418
 11
27.0523
 21
-87.2491
  0
LINE
  8
0
 10
27.0523
 20
-87.2491
 11
26.9476
 21
-87.2491
  0
LINE
  8
0
 10
-27.0523
 20
-87.2491
 11
-27.1568
 21
-87.2418
  0
LINE
  8
0
 10
-27.1568
 20
-87.2418
 11
-27.2605
 21
-87.2272
  0
LINE
  8
0
 10
-27.2605
 20
-87.2272
 11
-27.3629
 21
-87.2054
  0
LINE
  8
0
 10
-27.3629
 20
-87.2054
 11
-27.4635
 21
-87.1766
  0
LINE
  8
0
 10
-27.4635
 20
-87.1766
 11
-27.5619
 21
-87.1408
  0
LINE
  8
0
 10
-27.5619
 20
-87.1408
 11
-27.6575
 21
-87.0982
  0
LINE
  8
0
 10
-27.6575
 20
-87.0982
 11
-27.75
 21
-87.049
  0
LINE
  8
0
 10
-27.75
 20
-87.049
 11
-27.8388
 21
-86.9935
  0
LINE
  8
0
 10
-27.8388
 20
-86.9935
 11
-27.9235
 21
-86.932
  0
LINE
  8
0
 10
-27.9235
 20
-86.932
 11
-28.0037
 21
-86.8647
  0
LINE
  8
0
 10
-28.0037
 20
-86.8647
 11
-28.079
 21
-86.792
  0
LINE
  8
0
 10
-28.079
 20
-86.792
 11
-28.1491
 21
-86.7142
  0
LINE
  8
0
 10
-28.1491
 20
-86.7142
 11
-28.2135
 21
-86.6317
  0
LINE
  8
0
 10
-28.2135
 20
-86.6317
 11
-28.2721
 21
-86.5449
  0
LINE
  8
0
 10
-28.2721
 20
-86.5449
 11
-28.3244
 21
-86.4542
  0
LINE
  8
0
 10
-28.3244
 20
-86.4542
 11
-28.3703
 21
-86.3601
  0
LINE
  8
0
 10
-28.3703
 20
-86.3601
 11
-28.4095
 21
-86.263
  0
LINE
  8
0
 10
-28.4095
 20
-86.263
 11
-28.4419
 21
-86.1635
  0
LINE
  8
0
 10
-28.4419
 20
-86.1635
 11
-28.4672
 21
-86.0619
  0
LINE
  8
0
 10
-28.4672
 20
-86.0619
 11
-28.4854
 21
-85.9588
  0
LINE
  8
0
 10
-28.4854
 20
-85.9588
 11
-28.4963
 21
-85.8546
  0
LINE
  8
0
 10
-28.4963
 20
-85.8546
 11
-28.5
 21
-85.75
  0
LINE
  8
0
 10
-28.5
 20
-85.75
 11
-28.4963
 21
-85.6454
  0
LINE
  8
0
 10
-28.4963
 20
-85.6454
 11
-28.4854
 21
-85.5412
  0
LINE
  8
0
 10
-28.4854
 20
-85.5412
 11
-28.4672
 21
-85.4381
  0
LINE
  8
0
 10
-28.4672
 20
-85.4381
 11
-28.4419
 21
-85.3365
  0
LINE
  8
0
 10
-28.4419
 20
-85.3365
 11
-28.4095
 21
-85.237
  0
LINE
  8
0
 10
-28.4095
 20
-85.237
 11
-28.3703
 21
-85.1399
  0
LINE
  8
0
 10
-28.3703
 20
-85.1399
 11
-28.3244
 21
-85.0458
  0
LINE
  8
0
 10
-28.3244
 20
-85.0458
 11
-28.2721
 21
-84.9551
  0
LINE
  8
0
 10
-28.2721
 20
-84.9551
 11
-28.2135
 21
-84.8683
  0
LINE
  8
0
 10
-28.2135
 20
-84.8683
 11
-28.1491
 21
-84.7858
  0
LINE
  8
0
 10
-28.1491
 20
-84.7858
 11
-28.079
 21
-84.708
  0
LINE
  8
0
 10
-28.079
 20
-84.708
 11
-28.0037
 21
-84.6353
  0
LINE
  8
0
 10
-28.0037
 20
-84.6353
 11
-27.9235
 21
-84.568
  0
LINE
  8
0
 10
-27.9235
 20
-84.568
 11
-27.8388
 21
-84.5064
  0
LINE
  8
0
 10
-27.8388
 20
-84.5064
 11
-27.75
 21
-84.451
  0
LINE
  8
0
 10
-27.75
 20
-84.451
 11
-27.6575
 21
-84.4018
  0
LINE
  8
0
 10
-27.6575
 20
-84.4018
 11
-27.5619
 21
-84.3592
  0
LINE
  8
0
 10
-27.5619
 20
-84.3592
 11
-27.4635
 21
-84.3234
  0
LINE
  8
0
 10
-27.4635
 20
-84.3234
 11
-27.3629
 21
-84.2946
  0
LINE
  8
0
 10
-27.3629
 20
-84.2946
 11
-27.2605
 21
-84.2728
  0
LINE
  8
0
 10
-27.2605
 20
-84.2728
 11
-27.1568
 21
-84.2582
  0
LINE
  8
0
 10
-27.1568
 20
-84.2582
 11
-27.0523
 21
-84.2509
  0
LINE
  8
0
 10
-27.0523
 20
-84.2509
 11
-26.9476
 21
-84.2509
  0
LINE
  8
0
 10
-26.9476
 20
-84.2509
 11
-26.8432
 21
-84.2582
  0
LINE
  8
0
 10
-26.8432
 20
-84.2582
 11
-26.7395
 21
-84.2728
  0
LINE
  8
0
 10
-26.7395
 20
-84.2728
 11
-26.6371
 21
-84.2946
  0
LINE
  8
0
 10
-26.6371
 20
-84.2946
 11
-26.5365
 21
-84.3234
  0
LINE
  8
0
 10
-26.5365
 20
-84.3234
 11
-26.4381
 21
-84.3592
  0
LINE
  8
0
 10
-26.4381
 20
-84.3592
 11
-26.3424
 21
-84.4018
  0
LINE
  8
0
 10
-26.3424
 20
-84.4018
 11
-26.25
 21
-84.451
  0
LINE
  8
0
 10
-26.25
 20
-84.451
 11
-26.1612
 21
-84.5064
  0
LINE
  8
0
 10
-26.1612
 20
-84.5064
 11
-26.0765
 21
-84.568
  0
LINE
  8
0
 10
-26.0765
 20
-84.568
 11
-25.9963
 21
-84.6353
  0
LINE
  8
0
 10
-25.9963
 20
-84.6353
 11
-25.921
 21
-84.708
  0
LINE
  8
0
 10
-25.921
 20
-84.708
 11
-25.8509
 21
-84.7858
  0
LINE
  8
0
 10
-25.8509
 20
-84.7858
 11
-25.7865
 21
-84.8683
  0
LINE
  8
0
 10
-25.7865
 20
-84.8683
 11
-25.7279
 21
-84.9551
  0
LINE
  8
0
 10
-25.7279
 20
-84.9551
 11
-25.6756
 21
-85.0458
  0
LINE
  8
0
 10
-25.6756
 20
-85.0458
 11
-25.6297
 21
-85.1399
  0
LINE
  8
0
 10
-25.6297
 20
-85.1399
 11
-25.5905
 21
-85.237
  0
LINE
  8
0
 10
-25.5905
 20
-85.237
 11
-25.5581
 21
-85.3365
  0
LINE
  8
0
 10
-25.5581
 20
-85.3365
 11
-25.5328
 21
-85.4381
  0
LINE
  8
0
 10
-25.5328
 20
-85.4381
 11
-25.5146
 21
-85.5412
  0
LINE
  8
0
 10
-25.5146
 20
-85.5412
 11
-25.5036
 21
-85.6454
  0
LINE
  8
0
 10
-25.5036
 20
-85.6454
 11
-25.5
 21
-85.75
  0
LINE
  8
0
 10
-25.5
 20
-85.75
 11
-25.5036
 21
-85.8546
  0
LINE
  8
0
 10
-25.5036
 20
-85.8546
 11
-25.5146
 21
-85.9588
  0
LINE
  8
0
 10
-25.5146
 20
-85.9588
 11
-25.5328
 21
-86.0619
  0
LINE
  8
0
 10
-25.5328
 20
-86.0619
 11
-25.5581
 21
-86.1635
  0
LINE
  8
0
 10
-25.5581
 20
-86.1635
 11
-25.5905
 21
-86.263
  0
LINE
  8
0
 10
-25.5905
 20
-86.263
 11
-25.6297
 21
-86.3601
  0
LINE
  8
0
 10
-25.6297
 20
-86.3601
 11
-25.6756
 21
-86.4542
  0
LINE
  8
0
 10
-25.6756
 20
-86.4542
 11
-25.7279
 21
-86.5449
  0
LINE
  8
0
 10
-25.7279
 20
-86.5449
 11
-25.7865
 21
-86.6317
  0
LINE
  8
0
 10
-25.7865
 20
-86.6317
 11
-25.8509
 21
-86.7142
  0
LINE
  8
0
 10
-25.8509
 20
-86.7142
 11
-25.921
 21
-86.792
  0
LINE
  8
0
 10
-25.921
 20
-86.792
 11
-25.9963
 21
-86.8647
  0
LINE
  8
0
 10
-25.9963
 20
-86.8647
 11
-26.0765
 21
-86.932
  0
LINE
  8
0
 10
-26.0765
 20
-86.932
 11
-26.1612
 21
-86.9935
  0
LINE
  8
0
 10
-26.1612
 20
-86.9935
 11
-26.25
 21
-87.049
  0
LINE
  8
0
 10
-26.25
 20
-87.049
 11
-26.3424
 21
-87.0982
  0
LINE
  8
0
 10
-26.3424
 20
-87.0982
 11
-26.4381
 21
-87.1408
  0
LINE
  8
0
 10
-26.4381
 20
-87.1408
 11
-26.5365
 21
-87.1766
  0
LINE
  8
0
 10
-26.5365
 20
-87.1766
 11
-26.6371
 21
-87.2054
  0
LINE
  8
0
 10
-26.6371
 20
-87.2054
 11
-26.7395
 21
-87.2272
  0
LINE
  8
0
 10
-26.7395
 20
-87.2272
 11
-26.8432
 21
-87.2418
  0
LINE
  8
0
 10
-26.8432
 20
-87.2418
 11
-26.9476
 21
-87.2491
  0
LINE
  8
0
 10
-26.9476
 20
-87.2491
 11
-27.0523
 21
-87.2491
  0
ENDSEC
  0
SECTION
  2
OBJECTS
  0
DICTIONARY
  0
ENDSEC
  0
EOF
