  0
SECTION
  2
BLOCKS
  0
ENDSEC
  0
SECTION
  2
ENTITIES
  0
LINE
  8
0
 10
2.82227
 20
3.14792
 11
4.68849
 21
3.4102
  0
LINE
  8
0
 10
4.68849
 20
3.4102
 11
28.5
 21
7.5
  0
LINE
  8
0
 10
28.5
 20
7.5
 11
47
 21
15
  0
LINE
  8
0
 10
47
 20
15
 11
47
 21
45
  0
LINE
  8
0
 10
47
 20
45
 11
28.5
 21
52.5
  0
LINE
  8
0
 10
28.5
 20
52.5
 11
4.68849
 21
56.5898
  0
LINE
  8
0
 10
4.68849
 20
56.5898
 11
2.82227
 21
56.8521
  0
LINE
  8
0
 10
2.82227
 20
56.8521
 11
0.942276
 21
56.9836
  0
LINE
  8
0
 10
0.942276
 20
56.9836
 11
-0.942276
 21
56.9836
  0
LINE
  8
0
 10
-0.942276
 20
56.9836
 11
-2.82227
 21
56.8521
  0
LINE
  8
0
 10
-2.82227
 20
56.8521
 11
-4.68849
 21
56.5898
  0
LINE
  8
0
 10
-4.68849
 20
56.5898
 11
-28.5
 21
52.5
  0
LINE
  8
0
 10
-28.5
 20
52.5
 11
-47
 21
45
  0
LINE
  8
0
 10
-47
 20
45
 11
-47
 21
15
  0
LINE
  8
0
 10
-47
 20
15
 11
-28.5
 21
7.5
  0
LINE
  8
0
 10
-28.5
 20
7.5
 11
-4.68849
 21
3.4102
  0
LINE
  8
0
 10
-4.68849
 20
3.4102
 11
-2.82227
 21
3.14792
  0
LINE
  8
0
 10
-2.82227
 20
3.14792
 11
-0.942276
 21
3.01645
  0
LINE
  8
0
 10
-0.942276
 20
3.01645
 11
0.942276
 21
3.01645
  0
LINE
  8
0
 10
0.942276
 20
3.01645
 11
2.82227
 21
3.14792
  0
LINE
  8
0
 10
26.9476
 20
46.2509
 11
26.8432
 21
46.2582
  0
LINE
  8
0
 10
26.8432
 20
46.2582
 11
26.7395
 21
46.2728
  0
LINE
  8
0
 10
26.7395
 20
46.2728
 11
26.6371
 21
46.2946
  0
LINE
  8
0
 10
26.6371
 20
46.2946
 11
26.5365
 21
46.3234
  0
LINE
  8
0
 10
26.5365
 20
46.3234
 11
26.4381
 21
46.3592
  0
LINE
  8
0
 10
26.4381
 20
46.3592
 11
26.3424
 21
46.4018
  0
LINE
  8
0
 10
26.3424
 20
46.4018
 11
26.25
 21
46.451
  0
LINE
  8
0
 10
26.25
 20
46.451
 11
26.1612
 21
46.5064
  0
LINE
  8
0
 10
26.1612
 20
46.5064
 11
26.0765
 21
46.568
  0
LINE
  8
0
 10
26.0765
 20
46.568
 11
25.9963
 21
46.6353
  0
LINE
  8
0
 10
25.9963
 20
46.6353
 11
25.921
 21
46.708
  0
LINE
  8
0
 10
25.921
 20
46.708
 11
25.8509
 21
46.7858
  0
LINE
  8
0
 10
25.8509
 20
46.7858
 11
25.7865
 21
46.8683
  0
LINE
  8
0
 10
25.7865
 20
46.8683
 11
25.7279
 21
46.9551
  0
LINE
  8
0
 10
25.7279
 20
46.9551
 11
25.6756
 21
47.0458
  0
LINE
  8
0
 10
25.6756
 20
47.0458
 11
25.6297
 21
47.1399
  0
LINE
  8
0
 10
25.6297
 20
47.1399
 11
25.5905
 21
47.237
  0
LINE
  8
0
 10
25.5905
 20
47.237
 11
25.5581
 21
47.3365
  0
LINE
  8
0
 10
25.5581
 20
47.3365
 11
25.5328
 21
47.4381
  0
LINE
  8
0
 10
25.5328
 20
47.4381
 11
25.5146
 21
47.5412
  0
LINE
  8
0
 10
25.5146
 20
47.5412
 11
25.5036
 21
47.6454
  0
LINE
  8
0
 10
25.5036
 20
47.6454
 11
25.5
 21
47.75
  0
LINE
  8
0
 10
25.5
 20
47.75
 11
25.5036
 21
47.8546
  0
LINE
  8
0
 10
25.5036
 20
47.8546
 11
25.5146
 21
47.9588
  0
LINE
  8
0
 10
25.5146
 20
47.9588
 11
25.5328
 21
48.0619
  0
LINE
  8
0
 10
25.5328
 20
48.0619
 11
25.5581
 21
48.1635
  0
LINE
  8
0
 10
25.5581
 20
48.1635
 11
25.5905
 21
48.263
  0
LINE
  8
0
 10
25.5905
 20
48.263
 11
25.6297
 21
48.3601
  0
LINE
  8
0
 10
25.6297
 20
48.3601
 11
25.6756
 21
48.4542
  0
LINE
  8
0
 10
25.6756
 20
48.4542
 11
25.7279
 21
48.5449
  0
LINE
  8
0
 10
25.7279
 20
48.5449
 11
25.7865
 21
48.6317
  0
LINE
  8
0
 10
25.7865
 20
48.6317
 11
25.8509
 21
48.7142
  0
LINE
  8
0
 10
25.8509
 20
48.7142
 11
25.921
 21
48.792
  0
LINE
  8
0
 10
25.921
 20
48.792
 11
25.9963
 21
48.8647
  0
LINE
  8
0
 10
25.9963
 20
48.8647
 11
26.0765
 21
48.932
  0
LINE
  8
0
 10
26.0765
 20
48.932
 11
26.1612
 21
48.9935
  0
LINE
  8
0
 10
26.1612
 20
48.9935
 11
26.25
 21
49.049
  0
LINE
  8
0
 10
26.25
 20
49.049
 11
26.3424
 21
49.0982
  0
LINE
  8
0
 10
26.3424
 20
49.0982
 11
26.4381
 21
49.1408
  0
LINE
  8
0
 10
26.4381
 20
49.1408
 11
26.5365
 21
49.1766
  0
LINE
  8
0
 10
26.5365
 20
49.1766
 11
26.6371
 21
49.2054
  0
LINE
  8
0
 10
26.6371
 20
49.2054
 11
26.7395
 21
49.2272
  0
LINE
  8
0
 10
26.7395
 20
49.2272
 11
26.8432
 21
49.2418
  0
LINE
  8
0
 10
26.8432
 20
49.2418
 11
26.9476
 21
49.2491
  0
LINE
  8
0
 10
26.9476
 20
49.2491
 11
27.0523
 21
49.2491
  0
LINE
  8
0
 10
27.0523
 20
49.2491
 11
27.1568
 21
49.2418
  0
LINE
  8
0
 10
27.1568
 20
49.2418
 11
27.2605
 21
49.2272
  0
LINE
  8
0
 10
27.2605
 20
49.2272
 11
27.3629
 21
49.2054
  0
LINE
  8
0
 10
27.3629
 20
49.2054
 11
27.4635
 21
49.1766
  0
LINE
  8
0
 10
27.4635
 20
49.1766
 11
27.5619
 21
49.1408
  0
LINE
  8
0
 10
27.5619
 20
49.1408
 11
27.6575
 21
49.0982
  0
LINE
  8
0
 10
27.6575
 20
49.0982
 11
27.75
 21
49.049
  0
LINE
  8
0
 10
27.75
 20
49.049
 11
27.8388
 21
48.9935
  0
LINE
  8
0
 10
27.8388
 20
48.9935
 11
27.9235
 21
48.932
  0
LINE
  8
0
 10
27.9235
 20
48.932
 11
28.0037
 21
48.8647
  0
LINE
  8
0
 10
28.0037
 20
48.8647
 11
28.079
 21
48.792
  0
LINE
  8
0
 10
28.079
 20
48.792
 11
28.1491
 21
48.7142
  0
LINE
  8
0
 10
28.1491
 20
48.7142
 11
28.2135
 21
48.6317
  0
LINE
  8
0
 10
28.2135
 20
48.6317
 11
28.2721
 21
48.5449
  0
LINE
  8
0
 10
28.2721
 20
48.5449
 11
28.3244
 21
48.4542
  0
LINE
  8
0
 10
28.3244
 20
48.4542
 11
28.3703
 21
48.3601
  0
LINE
  8
0
 10
28.3703
 20
48.3601
 11
28.4095
 21
48.263
  0
LINE
  8
0
 10
28.4095
 20
48.263
 11
28.4419
 21
48.1635
  0
LINE
  8
0
 10
28.4419
 20
48.1635
 11
28.4672
 21
48.0619
  0
LINE
  8
0
 10
28.4672
 20
48.0619
 11
28.4854
 21
47.9588
  0
LINE
  8
0
 10
28.4854
 20
47.9588
 11
28.4963
 21
47.8546
  0
LINE
  8
0
 10
28.4963
 20
47.8546
 11
28.5
 21
47.75
  0
LINE
  8
0
 10
28.5
 20
47.75
 11
28.4963
 21
47.6454
  0
LINE
  8
0
 10
28.4963
 20
47.6454
 11
28.4854
 21
47.5412
  0
LINE
  8
0
 10
28.4854
 20
47.5412
 11
28.4672
 21
47.4381
  0
LINE
  8
0
 10
28.4672
 20
47.4381
 11
28.4419
 21
47.3365
  0
LINE
  8
0
 10
28.4419
 20
47.3365
 11
28.4095
 21
47.237
  0
LINE
  8
0
 10
28.4095
 20
47.237
 11
28.3703
 21
47.1399
  0
LINE
  8
0
 10
28.3703
 20
47.1399
 11
28.3244
 21
47.0458
  0
LINE
  8
0
 10
28.3244
 20
47.0458
 11
28.2721
 21
46.9551
  0
LINE
  8
0
 10
28.2721
 20
46.9551
 11
28.2135
 21
46.8683
  0
LINE
  8
0
 10
28.2135
 20
46.8683
 11
28.1491
 21
46.7858
  0
LINE
  8
0
 10
28.1491
 20
46.7858
 11
28.079
 21
46.708
  0
LINE
  8
0
 10
28.079
 20
46.708
 11
28.0037
 21
46.6353
  0
LINE
  8
0
 10
28.0037
 20
46.6353
 11
27.9235
 21
46.568
  0
LINE
  8
0
 10
27.9235
 20
46.568
 11
27.8388
 21
46.5064
  0
LINE
  8
0
 10
27.8388
 20
46.5064
 11
27.75
 21
46.451
  0
LINE
  8
0
 10
27.75
 20
46.451
 11
27.6575
 21
46.4018
  0
LINE
  8
0
 10
27.6575
 20
46.4018
 11
27.5619
 21
46.3592
  0
LINE
  8
0
 10
27.5619
 20
46.3592
 11
27.4635
 21
46.3234
  0
LINE
  8
0
 10
27.4635
 20
46.3234
 11
27.3629
 21
46.2946
  0
LINE
  8
0
 10
27.3629
 20
46.2946
 11
27.2605
 21
46.2728
  0
LINE
  8
0
 10
27.2605
 20
46.2728
 11
27.1568
 21
46.2582
  0
LINE
  8
0
 10
27.1568
 20
46.2582
 11
27.0523
 21
46.2509
  0
LINE
  8
0
 10
27.0523
 20
46.2509
 11
26.9476
 21
46.2509
  0
LINE
  8
0
 10
-27.0523
 20
46.2509
 11
-27.1568
 21
46.2582
  0
LINE
  8
0
 10
-27.1568
 20
46.2582
 11
-27.2605
 21
46.2728
  0
LINE
  8
0
 10
-27.2605
 20
46.2728
 11
-27.3629
 21
46.2946
  0
LINE
  8
0
 10
-27.3629
 20
46.2946
 11
-27.4635
 21
46.3234
  0
LINE
  8
0
 10
-27.4635
 20
46.3234
 11
-27.5619
 21
46.3592
  0
LINE
  8
0
 10
-27.5619
 20
46.3592
 11
-27.6575
 21
46.4018
  0
LINE
  8
0
 10
-27.6575
 20
46.4018
 11
-27.75
 21
46.451
  0
LINE
  8
0
 10
-27.75
 20
46.451
 11
-27.8388
 21
46.5064
  0
LINE
  8
0
 10
-27.8388
 20
46.5064
 11
-27.9235
 21
46.568
  0
LINE
  8
0
 10
-27.9235
 20
46.568
 11
-28.0037
 21
46.6353
  0
LINE
  8
0
 10
-28.0037
 20
46.6353
 11
-28.079
 21
46.708
  0
LINE
  8
0
 10
-28.079
 20
46.708
 11
-28.1491
 21
46.7858
  0
LINE
  8
0
 10
-28.1491
 20
46.7858
 11
-28.2135
 21
46.8683
  0
LINE
  8
0
 10
-28.2135
 20
46.8683
 11
-28.2721
 21
46.9551
  0
LINE
  8
0
 10
-28.2721
 20
46.9551
 11
-28.3244
 21
47.0458
  0
LINE
  8
0
 10
-28.3244
 20
47.0458
 11
-28.3703
 21
47.1399
  0
LINE
  8
0
 10
-28.3703
 20
47.1399
 11
-28.4095
 21
47.237
  0
LINE
  8
0
 10
-28.4095
 20
47.237
 11
-28.4419
 21
47.3365
  0
LINE
  8
0
 10
-28.4419
 20
47.3365
 11
-28.4672
 21
47.4381
  0
LINE
  8
0
 10
-28.4672
 20
47.4381
 11
-28.4854
 21
47.5412
  0
LINE
  8
0
 10
-28.4854
 20
47.5412
 11
-28.4963
 21
47.6454
  0
LINE
  8
0
 10
-28.4963
 20
47.6454
 11
-28.5
 21
47.75
  0
LINE
  8
0
 10
-28.5
 20
47.75
 11
-28.4963
 21
47.8546
  0
LINE
  8
0
 10
-28.4963
 20
47.8546
 11
-28.4854
 21
47.9588
  0
LINE
  8
0
 10
-28.4854
 20
47.9588
 11
-28.4672
 21
48.0619
  0
LINE
  8
0
 10
-28.4672
 20
48.0619
 11
-28.4419
 21
48.1635
  0
LINE
  8
0
 10
-28.4419
 20
48.1635
 11
-28.4095
 21
48.263
  0
LINE
  8
0
 10
-28.4095
 20
48.263
 11
-28.3703
 21
48.3601
  0
LINE
  8
0
 10
-28.3703
 20
48.3601
 11
-28.3244
 21
48.4542
  0
LINE
  8
0
 10
-28.3244
 20
48.4542
 11
-28.2721
 21
48.5449
  0
LINE
  8
0
 10
-28.2721
 20
48.5449
 11
-28.2135
 21
48.6317
  0
LINE
  8
0
 10
-28.2135
 20
48.6317
 11
-28.1491
 21
48.7142
  0
LINE
  8
0
 10
-28.1491
 20
48.7142
 11
-28.079
 21
48.792
  0
LINE
  8
0
 10
-28.079
 20
48.792
 11
-28.0037
 21
48.8647
  0
LINE
  8
0
 10
-28.0037
 20
48.8647
 11
-27.9235
 21
48.932
  0
LINE
  8
0
 10
-27.9235
 20
48.932
 11
-27.8388
 21
48.9935
  0
LINE
  8
0
 10
-27.8388
 20
48.9935
 11
-27.75
 21
49.049
  0
LINE
  8
0
 10
-27.75
 20
49.049
 11
-27.6575
 21
49.0982
  0
LINE
  8
0
 10
-27.6575
 20
49.0982
 11
-27.5619
 21
49.1408
  0
LINE
  8
0
 10
-27.5619
 20
49.1408
 11
-27.4635
 21
49.1766
  0
LINE
  8
0
 10
-27.4635
 20
49.1766
 11
-27.3629
 21
49.2054
  0
LINE
  8
0
 10
-27.3629
 20
49.2054
 11
-27.2605
 21
49.2272
  0
LINE
  8
0
 10
-27.2605
 20
49.2272
 11
-27.1568
 21
49.2418
  0
LINE
  8
0
 10
-27.1568
 20
49.2418
 11
-27.0523
 21
49.2491
  0
LINE
  8
0
 10
-27.0523
 20
49.2491
 11
-26.9476
 21
49.2491
  0
LINE
  8
0
 10
-26.9476
 20
49.2491
 11
-26.8432
 21
49.2418
  0
LINE
  8
0
 10
-26.8432
 20
49.2418
 11
-26.7395
 21
49.2272
  0
LINE
  8
0
 10
-26.7395
 20
49.2272
 11
-26.6371
 21
49.2054
  0
LINE
  8
0
 10
-26.6371
 20
49.2054
 11
-26.5365
 21
49.1766
  0
LINE
  8
0
 10
-26.5365
 20
49.1766
 11
-26.4381
 21
49.1408
  0
LINE
  8
0
 10
-26.4381
 20
49.1408
 11
-26.3424
 21
49.0982
  0
LINE
  8
0
 10
-26.3424
 20
49.0982
 11
-26.25
 21
49.049
  0
LINE
  8
0
 10
-26.25
 20
49.049
 11
-26.1612
 21
48.9935
  0
LINE
  8
0
 10
-26.1612
 20
48.9935
 11
-26.0765
 21
48.932
  0
LINE
  8
0
 10
-26.0765
 20
48.932
 11
-25.9963
 21
48.8647
  0
LINE
  8
0
 10
-25.9963
 20
48.8647
 11
-25.921
 21
48.792
  0
LINE
  8
0
 10
-25.921
 20
48.792
 11
-25.8509
 21
48.7142
  0
LINE
  8
0
 10
-25.8509
 20
48.7142
 11
-25.7865
 21
48.6317
  0
LINE
  8
0
 10
-25.7865
 20
48.6317
 11
-25.7279
 21
48.5449
  0
LINE
  8
0
 10
-25.7279
 20
48.5449
 11
-25.6756
 21
48.4542
  0
LINE
  8
0
 10
-25.6756
 20
48.4542
 11
-25.6297
 21
48.3601
  0
LINE
  8
0
 10
-25.6297
 20
48.3601
 11
-25.5905
 21
48.263
  0
LINE
  8
0
 10
-25.5905
 20
48.263
 11
-25.5581
 21
48.1635
  0
LINE
  8
0
 10
-25.5581
 20
48.1635
 11
-25.5328
 21
48.0619
  0
LINE
  8
0
 10
-25.5328
 20
48.0619
 11
-25.5146
 21
47.9588
  0
LINE
  8
0
 10
-25.5146
 20
47.9588
 11
-25.5036
 21
47.8546
  0
LINE
  8
0
 10
-25.5036
 20
47.8546
 11
-25.5
 21
47.75
  0
LINE
  8
0
 10
-25.5
 20
47.75
 11
-25.5036
 21
47.6454
  0
LINE
  8
0
 10
-25.5036
 20
47.6454
 11
-25.5146
 21
47.5412
  0
LINE
  8
0
 10
-25.5146
 20
47.5412
 11
-25.5328
 21
47.4381
  0
LINE
  8
0
 10
-25.5328
 20
47.4381
 11
-25.5581
 21
47.3365
  0
LINE
  8
0
 10
-25.5581
 20
47.3365
 11
-25.5905
 21
47.237
  0
LINE
  8
0
 10
-25.5905
 20
47.237
 11
-25.6297
 21
47.1399
  0
LINE
  8
0
 10
-25.6297
 20
47.1399
 11
-25.6756
 21
47.0458
  0
LINE
  8
0
 10
-25.6756
 20
47.0458
 11
-25.7279
 21
46.9551
  0
LINE
  8
0
 10
-25.7279
 20
46.9551
 11
-25.7865
 21
46.8683
  0
LINE
  8
0
 10
-25.7865
 20
46.8683
 11
-25.8509
 21
46.7858
  0
LINE
  8
0
 10
-25.8509
 20
46.7858
 11
-25.921
 21
46.708
  0
LINE
  8
0
 10
-25.921
 20
46.708
 11
-25.9963
 21
46.6353
  0
LINE
  8
0
 10
-25.9963
 20
46.6353
 11
-26.0765
 21
46.568
  0
LINE
  8
0
 10
-26.0765
 20
46.568
 11
-26.1612
 21
46.5064
  0
LINE
  8
0
 10
-26.1612
 20
46.5064
 11
-26.25
 21
46.451
  0
LINE
  8
0
 10
-26.25
 20
46.451
 11
-26.3424
 21
46.4018
  0
LINE
  8
0
 10
-26.3424
 20
46.4018
 11
-26.4381
 21
46.3592
  0
LINE
  8
0
 10
-26.4381
 20
46.3592
 11
-26.5365
 21
46.3234
  0
LINE
  8
0
 10
-26.5365
 20
46.3234
 11
-26.6371
 21
46.2946
  0
LINE
  8
0
 10
-26.6371
 20
46.2946
 11
-26.7395
 21
46.2728
  0
LINE
  8
0
 10
-26.7395
 20
46.2728
 11
-26.8432
 21
46.2582
  0
LINE
  8
0
 10
-26.8432
 20
46.2582
 11
-26.9476
 21
46.2509
  0
LINE
  8
0
 10
-26.9476
 20
46.2509
 11
-27.0523
 21
46.2509
  0
LINE
  8
0
 10
-0.610733
 20
12.5107
 11
-1.82924
 21
12.5959
  0
LINE
  8
0
 10
-1.82924
 20
12.5959
 11
-3.03883
 21
12.7659
  0
LINE
  8
0
 10
-3.03883
 20
12.7659
 11
-4.23363
 21
13.0198
  0
LINE
  8
0
 10
-4.23363
 20
13.0198
 11
-5.40779
 21
13.3565
  0
LINE
  8
0
 10
-5.40779
 20
13.3565
 11
-6.5556
 21
13.7743
  0
LINE
  8
0
 10
-6.5556
 20
13.7743
 11
-7.67149
 21
14.2711
  0
LINE
  8
0
 10
-7.67149
 20
14.2711
 11
-8.75
 21
14.8446
  0
LINE
  8
0
 10
-8.75
 20
14.8446
 11
-9.78587
 21
15.4919
  0
LINE
  8
0
 10
-9.78587
 20
15.4919
 11
-10.7741
 21
16.2098
  0
LINE
  8
0
 10
-10.7741
 20
16.2098
 11
-11.7098
 21
16.995
  0
LINE
  8
0
 10
-11.7098
 20
16.995
 11
-12.5884
 21
17.8435
  0
LINE
  8
0
 10
-12.5884
 20
17.8435
 11
-13.4058
 21
18.7512
  0
LINE
  8
0
 10
-13.4058
 20
18.7512
 11
-14.1578
 21
19.7138
  0
LINE
  8
0
 10
-14.1578
 20
19.7138
 11
-14.8408
 21
20.7264
  0
LINE
  8
0
 10
-14.8408
 20
20.7264
 11
-15.4516
 21
21.7843
  0
LINE
  8
0
 10
-15.4516
 20
21.7843
 11
-15.987
 21
22.8821
  0
LINE
  8
0
 10
-15.987
 20
22.8821
 11
-16.4446
 21
24.0146
  0
LINE
  8
0
 10
-16.4446
 20
24.0146
 11
-16.8221
 21
25.1764
  0
LINE
  8
0
 10
-16.8221
 20
25.1764
 11
-17.1176
 21
26.3616
  0
LINE
  8
0
 10
-17.1176
 20
26.3616
 11
-17.3297
 21
27.5645
  0
LINE
  8
0
 10
-17.3297
 20
27.5645
 11
-17.4574
 21
28.7793
  0
LINE
  8
0
 10
-17.4574
 20
28.7793
 11
-17.5
 21
30
  0
LINE
  8
0
 10
-17.5
 20
30
 11
-17.4574
 21
31.2207
  0
LINE
  8
0
 10
-17.4574
 20
31.2207
 11
-17.3297
 21
32.4355
  0
LINE
  8
0
 10
-17.3297
 20
32.4355
 11
-17.1176
 21
33.6384
  0
LINE
  8
0
 10
-17.1176
 20
33.6384
 11
-16.8221
 21
34.8236
  0
LINE
  8
0
 10
-16.8221
 20
34.8236
 11
-16.4446
 21
35.9854
  0
LINE
  8
0
 10
-16.4446
 20
35.9854
 11
-15.987
 21
37.1179
  0
LINE
  8
0
 10
-15.987
 20
37.1179
 11
-15.4516
 21
38.2157
  0
LINE
  8
0
 10
-15.4516
 20
38.2157
 11
-14.8408
 21
39.2736
  0
LINE
  8
0
 10
-14.8408
 20
39.2736
 11
-14.1578
 21
40.2862
  0
LINE
  8
0
 10
-14.1578
 20
40.2862
 11
-13.4058
 21
41.2488
  0
LINE
  8
0
 10
-13.4058
 20
41.2488
 11
-12.5884
 21
42.1565
  0
LINE
  8
0
 10
-12.5884
 20
42.1565
 11
-11.7098
 21
43.005
  0
LINE
  8
0
 10
-11.7098
 20
43.005
 11
-10.7741
 21
43.7902
  0
LINE
  8
0
 10
-10.7741
 20
43.7902
 11
-9.78587
 21
44.5081
  0
LINE
  8
0
 10
-9.78587
 20
44.5081
 11
-8.74998
 21
45.1554
  0
LINE
  8
0
 10
-8.74998
 20
45.1554
 11
-7.67149
 21
45.7289
  0
LINE
  8
0
 10
-7.67149
 20
45.7289
 11
-6.5556
 21
46.2257
  0
LINE
  8
0
 10
-6.5556
 20
46.2257
 11
-5.40779
 21
46.6435
  0
LINE
  8
0
 10
-5.40779
 20
46.6435
 11
-4.23363
 21
46.9802
  0
LINE
  8
0
 10
-4.23363
 20
46.9802
 11
-3.03883
 21
47.2341
  0
LINE
  8
0
 10
-3.03883
 20
47.2341
 11
-1.82924
 21
47.4041
  0
LINE
  8
0
 10
-1.82924
 20
47.4041
 11
-0.610733
 21
47.4893
  0
LINE
  8
0
 10
-0.610733
 20
47.4893
 11
0.610733
 21
47.4893
  0
LINE
  8
0
 10
0.610733
 20
47.4893
 11
1.82924
 21
47.4041
  0
LINE
  8
0
 10
1.82924
 20
47.4041
 11
3.03883
 21
47.2341
  0
LINE
  8
0
 10
3.03883
 20
47.2341
 11
4.23363
 21
46.9802
  0
LINE
  8
0
 10
4.23363
 20
46.9802
 11
5.40779
 21
46.6435
  0
LINE
  8
0
 10
5.40779
 20
46.6435
 11
6.5556
 21
46.2257
  0
LINE
  8
0
 10
6.5556
 20
46.2257
 11
7.67149
 21
45.7289
  0
LINE
  8
0
 10
7.67149
 20
45.7289
 11
8.75
 21
45.1554
  0
LINE
  8
0
 10
8.75
 20
45.1554
 11
9.78587
 21
44.5081
  0
LINE
  8
0
 10
9.78587
 20
44.5081
 11
10.7741
 21
43.7902
  0
LINE
  8
0
 10
10.7741
 20
43.7902
 11
11.7098
 21
43.005
  0
LINE
  8
0
 10
11.7098
 20
43.005
 11
12.5884
 21
42.1565
  0
LINE
  8
0
 10
12.5884
 20
42.1565
 11
13.4058
 21
41.2488
  0
LINE
  8
0
 10
13.4058
 20
41.2488
 11
14.1578
 21
40.2862
  0
LINE
  8
0
 10
14.1578
 20
40.2862
 11
14.8408
 21
39.2736
  0
LINE
  8
0
 10
14.8408
 20
39.2736
 11
15.4516
 21
38.2157
  0
LINE
  8
0
 10
15.4516
 20
38.2157
 11
15.987
 21
37.1179
  0
LINE
  8
0
 10
15.987
 20
37.1179
 11
16.4446
 21
35.9854
  0
LINE
  8
0
 10
16.4446
 20
35.9854
 11
16.8221
 21
34.8236
  0
LINE
  8
0
 10
16.8221
 20
34.8236
 11
17.1176
 21
33.6384
  0
LINE
  8
0
 10
17.1176
 20
33.6384
 11
17.3297
 21
32.4355
  0
LINE
  8
0
 10
17.3297
 20
32.4355
 11
17.4574
 21
31.2207
  0
LINE
  8
0
 10
17.4574
 20
31.2207
 11
17.5
 21
30
  0
LINE
  8
0
 10
17.5
 20
30
 11
17.4574
 21
28.7793
  0
LINE
  8
0
 10
17.4574
 20
28.7793
 11
17.3297
 21
27.5645
  0
LINE
  8
0
 10
17.3297
 20
27.5645
 11
17.1176
 21
26.3616
  0
LINE
  8
0
 10
17.1176
 20
26.3616
 11
16.8221
 21
25.1764
  0
LINE
  8
0
 10
16.8221
 20
25.1764
 11
16.4446
 21
24.0146
  0
LINE
  8
0
 10
16.4446
 20
24.0146
 11
15.987
 21
22.8821
  0
LINE
  8
0
 10
15.987
 20
22.8821
 11
15.4516
 21
21.7843
  0
LINE
  8
0
 10
15.4516
 20
21.7843
 11
14.8408
 21
20.7264
  0
LINE
  8
0
 10
14.8408
 20
20.7264
 11
14.1578
 21
19.7138
  0
LINE
  8
0
 10
14.1578
 20
19.7138
 11
13.4058
 21
18.7512
  0
LINE
  8
0
 10
13.4058
 20
18.7512
 11
12.5884
 21
17.8435
  0
LINE
  8
0
 10
12.5884
 20
17.8435
 11
11.7098
 21
16.995
  0
LINE
  8
0
 10
11.7098
 20
16.995
 11
10.7741
 21
16.2098
  0
LINE
  8
0
 10
10.7741
 20
16.2098
 11
9.78587
 21
15.4919
  0
LINE
  8
0
 10
9.78587
 20
15.4919
 11
8.75
 21
14.8446
  0
LINE
  8
0
 10
8.75
 20
14.8446
 11
7.67149
 21
14.2711
  0
LINE
  8
0
 10
7.67149
 20
14.2711
 11
6.5556
 21
13.7743
  0
LINE
  8
0
 10
6.5556
 20
13.7743
 11
5.40779
 21
13.3565
  0
LINE
  8
0
 10
5.40779
 20
13.3565
 11
4.23363
 21
13.0198
  0
LINE
  8
0
 10
4.23363
 20
13.0198
 11
3.03883
 21
12.7659
  0
LINE
  8
0
 10
3.03883
 20
12.7659
 11
1.82924
 21
12.5959
  0
LINE
  8
0
 10
1.82924
 20
12.5959
 11
0.610733
 21
12.5107
  0
LINE
  8
0
 10
0.610733
 20
12.5107
 11
-0.610733
 21
12.5107
  0
LINE
  8
0
 10
36.9302
 20
28.0012
 11
36.7909
 21
28.011
  0
LINE
  8
0
 10
36.7909
 20
28.011
 11
36.6527
 21
28.0304
  0
LINE
  8
0
 10
36.6527
 20
28.0304
 11
36.5161
 21
28.0594
  0
LINE
  8
0
 10
36.5161
 20
28.0594
 11
36.382
 21
28.0979
  0
LINE
  8
0
 10
36.382
 20
28.0979
 11
36.2508
 21
28.1456
  0
LINE
  8
0
 10
36.2508
 20
28.1456
 11
36.1232
 21
28.2024
  0
LINE
  8
0
 10
36.1232
 20
28.2024
 11
36
 21
28.268
  0
LINE
  8
0
 10
36
 20
28.268
 11
35.8816
 21
28.3419
  0
LINE
  8
0
 10
35.8816
 20
28.3419
 11
35.7687
 21
28.424
  0
LINE
  8
0
 10
35.7687
 20
28.424
 11
35.6617
 21
28.5137
  0
LINE
  8
0
 10
35.6617
 20
28.5137
 11
35.5613
 21
28.6107
  0
LINE
  8
0
 10
35.5613
 20
28.6107
 11
35.4679
 21
28.7144
  0
LINE
  8
0
 10
35.4679
 20
28.7144
 11
35.382
 21
28.8244
  0
LINE
  8
0
 10
35.382
 20
28.8244
 11
35.3039
 21
28.9402
  0
LINE
  8
0
 10
35.3039
 20
28.9402
 11
35.2341
 21
29.0611
  0
LINE
  8
0
 10
35.2341
 20
29.0611
 11
35.1729
 21
29.1865
  0
LINE
  8
0
 10
35.1729
 20
29.1865
 11
35.1206
 21
29.316
  0
LINE
  8
0
 10
35.1206
 20
29.316
 11
35.0775
 21
29.4487
  0
LINE
  8
0
 10
35.0775
 20
29.4487
 11
35.0437
 21
29.5842
  0
LINE
  8
0
 10
35.0437
 20
29.5842
 11
35.0195
 21
29.7217
  0
LINE
  8
0
 10
35.0195
 20
29.7217
 11
35.0049
 21
29.8605
  0
LINE
  8
0
 10
35.0049
 20
29.8605
 11
35
 21
30
  0
LINE
  8
0
 10
35
 20
30
 11
35.0049
 21
30.1395
  0
LINE
  8
0
 10
35.0049
 20
30.1395
 11
35.0195
 21
30.2783
  0
LINE
  8
0
 10
35.0195
 20
30.2783
 11
35.0437
 21
30.4158
  0
LINE
  8
0
 10
35.0437
 20
30.4158
 11
35.0775
 21
30.5513
  0
LINE
  8
0
 10
35.0775
 20
30.5513
 11
35.1206
 21
30.684
  0
LINE
  8
0
 10
35.1206
 20
30.684
 11
35.1729
 21
30.8135
  0
LINE
  8
0
 10
35.1729
 20
30.8135
 11
35.2341
 21
30.9389
  0
LINE
  8
0
 10
35.2341
 20
30.9389
 11
35.3039
 21
31.0598
  0
LINE
  8
0
 10
35.3039
 20
31.0598
 11
35.382
 21
31.1756
  0
LINE
  8
0
 10
35.382
 20
31.1756
 11
35.4679
 21
31.2856
  0
LINE
  8
0
 10
35.4679
 20
31.2856
 11
35.5613
 21
31.3893
  0
LINE
  8
0
 10
35.5613
 20
31.3893
 11
35.6617
 21
31.4863
  0
LINE
  8
0
 10
35.6617
 20
31.4863
 11
35.7687
 21
31.576
  0
LINE
  8
0
 10
35.7687
 20
31.576
 11
35.8816
 21
31.6581
  0
LINE
  8
0
 10
35.8816
 20
31.6581
 11
36
 21
31.732
  0
LINE
  8
0
 10
36
 20
31.732
 11
36.1232
 21
31.7976
  0
LINE
  8
0
 10
36.1232
 20
31.7976
 11
36.2508
 21
31.8544
  0
LINE
  8
0
 10
36.2508
 20
31.8544
 11
36.382
 21
31.9021
  0
LINE
  8
0
 10
36.382
 20
31.9021
 11
36.5161
 21
31.9406
  0
LINE
  8
0
 10
36.5161
 20
31.9406
 11
36.6527
 21
31.9696
  0
LINE
  8
0
 10
36.6527
 20
31.9696
 11
36.7909
 21
31.989
  0
LINE
  8
0
 10
36.7909
 20
31.989
 11
36.9302
 21
31.9988
  0
LINE
  8
0
 10
36.9302
 20
31.9988
 11
37.0698
 21
31.9988
  0
LINE
  8
0
 10
37.0698
 20
31.9988
 11
37.209
 21
31.989
  0
LINE
  8
0
 10
37.209
 20
31.989
 11
37.3473
 21
31.9696
  0
LINE
  8
0
 10
37.3473
 20
31.9696
 11
37.4838
 21
31.9406
  0
LINE
  8
0
 10
37.4838
 20
31.9406
 11
37.618
 21
31.9021
  0
LINE
  8
0
 10
37.618
 20
31.9021
 11
37.7492
 21
31.8544
  0
LINE
  8
0
 10
37.7492
 20
31.8544
 11
37.8767
 21
31.7976
  0
LINE
  8
0
 10
37.8767
 20
31.7976
 11
38
 21
31.732
  0
LINE
  8
0
 10
38
 20
31.732
 11
38.1184
 21
31.6581
  0
LINE
  8
0
 10
38.1184
 20
31.6581
 11
38.2313
 21
31.576
  0
LINE
  8
0
 10
38.2313
 20
31.576
 11
38.3383
 21
31.4863
  0
LINE
  8
0
 10
38.3383
 20
31.4863
 11
38.4387
 21
31.3893
  0
LINE
  8
0
 10
38.4387
 20
31.3893
 11
38.5321
 21
31.2856
  0
LINE
  8
0
 10
38.5321
 20
31.2856
 11
38.618
 21
31.1756
  0
LINE
  8
0
 10
38.618
 20
31.1756
 11
38.6961
 21
31.0598
  0
LINE
  8
0
 10
38.6961
 20
31.0598
 11
38.7659
 21
30.9389
  0
LINE
  8
0
 10
38.7659
 20
30.9389
 11
38.8271
 21
30.8135
  0
LINE
  8
0
 10
38.8271
 20
30.8135
 11
38.8794
 21
30.684
  0
LINE
  8
0
 10
38.8794
 20
30.684
 11
38.9225
 21
30.5513
  0
LINE
  8
0
 10
38.9225
 20
30.5513
 11
38.9563
 21
30.4158
  0
LINE
  8
0
 10
38.9563
 20
30.4158
 11
38.9805
 21
30.2783
  0
LINE
  8
0
 10
38.9805
 20
30.2783
 11
38.9951
 21
30.1395
  0
LINE
  8
0
 10
38.9951
 20
30.1395
 11
39
 21
30
  0
LINE
  8
0
 10
39
 20
30
 11
38.9951
 21
29.8605
  0
LINE
  8
0
 10
38.9951
 20
29.8605
 11
38.9805
 21
29.7217
  0
LINE
  8
0
 10
38.9805
 20
29.7217
 11
38.9563
 21
29.5842
  0
LINE
  8
0
 10
38.9563
 20
29.5842
 11
38.9225
 21
29.4487
  0
LINE
  8
0
 10
38.9225
 20
29.4487
 11
38.8794
 21
29.316
  0
LINE
  8
0
 10
38.8794
 20
29.316
 11
38.8271
 21
29.1865
  0
LINE
  8
0
 10
38.8271
 20
29.1865
 11
38.7659
 21
29.0611
  0
LINE
  8
0
 10
38.7659
 20
29.0611
 11
38.6961
 21
28.9402
  0
LINE
  8
0
 10
38.6961
 20
28.9402
 11
38.618
 21
28.8244
  0
LINE
  8
0
 10
38.618
 20
28.8244
 11
38.5321
 21
28.7144
  0
LINE
  8
0
 10
38.5321
 20
28.7144
 11
38.4387
 21
28.6107
  0
LINE
  8
0
 10
38.4387
 20
28.6107
 11
38.3383
 21
28.5137
  0
LINE
  8
0
 10
38.3383
 20
28.5137
 11
38.2313
 21
28.424
  0
LINE
  8
0
 10
38.2313
 20
28.424
 11
38.1184
 21
28.3419
  0
LINE
  8
0
 10
38.1184
 20
28.3419
 11
38
 21
28.268
  0
LINE
  8
0
 10
38
 20
28.268
 11
37.8767
 21
28.2024
  0
LINE
  8
0
 10
37.8767
 20
28.2024
 11
37.7492
 21
28.1456
  0
LINE
  8
0
 10
37.7492
 20
28.1456
 11
37.618
 21
28.0979
  0
LINE
  8
0
 10
37.618
 20
28.0979
 11
37.4838
 21
28.0594
  0
LINE
  8
0
 10
37.4838
 20
28.0594
 11
37.3473
 21
28.0304
  0
LINE
  8
0
 10
37.3473
 20
28.0304
 11
37.209
 21
28.011
  0
LINE
  8
0
 10
37.209
 20
28.011
 11
37.0698
 21
28.0012
  0
LINE
  8
0
 10
37.0698
 20
28.0012
 11
36.9302
 21
28.0012
  0
LINE
  8
0
 10
-37.0698
 20
28.0012
 11
-37.209
 21
28.011
  0
LINE
  8
0
 10
-37.209
 20
28.011
 11
-37.3473
 21
28.0304
  0
LINE
  8
0
 10
-37.3473
 20
28.0304
 11
-37.4838
 21
28.0594
  0
LINE
  8
0
 10
-37.4838
 20
28.0594
 11
-37.618
 21
28.0979
  0
LINE
  8
0
 10
-37.618
 20
28.0979
 11
-37.7492
 21
28.1456
  0
LINE
  8
0
 10
-37.7492
 20
28.1456
 11
-37.8767
 21
28.2024
  0
LINE
  8
0
 10
-37.8767
 20
28.2024
 11
-38
 21
28.268
  0
LINE
  8
0
 10
-38
 20
28.268
 11
-38.1184
 21
28.3419
  0
LINE
  8
0
 10
-38.1184
 20
28.3419
 11
-38.2313
 21
28.424
  0
LINE
  8
0
 10
-38.2313
 20
28.424
 11
-38.3383
 21
28.5137
  0
LINE
  8
0
 10
-38.3383
 20
28.5137
 11
-38.4387
 21
28.6107
  0
LINE
  8
0
 10
-38.4387
 20
28.6107
 11
-38.5321
 21
28.7144
  0
LINE
  8
0
 10
-38.5321
 20
28.7144
 11
-38.618
 21
28.8244
  0
LINE
  8
0
 10
-38.618
 20
28.8244
 11
-38.6961
 21
28.9402
  0
LINE
  8
0
 10
-38.6961
 20
28.9402
 11
-38.7659
 21
29.0611
  0
LINE
  8
0
 10
-38.7659
 20
29.0611
 11
-38.8271
 21
29.1865
  0
LINE
  8
0
 10
-38.8271
 20
29.1865
 11
-38.8794
 21
29.316
  0
LINE
  8
0
 10
-38.8794
 20
29.316
 11
-38.9225
 21
29.4487
  0
LINE
  8
0
 10
-38.9225
 20
29.4487
 11
-38.9563
 21
29.5842
  0
LINE
  8
0
 10
-38.9563
 20
29.5842
 11
-38.9805
 21
29.7217
  0
LINE
  8
0
 10
-38.9805
 20
29.7217
 11
-38.9951
 21
29.8605
  0
LINE
  8
0
 10
-38.9951
 20
29.8605
 11
-39
 21
30
  0
LINE
  8
0
 10
-39
 20
30
 11
-38.9951
 21
30.1395
  0
LINE
  8
0
 10
-38.9951
 20
30.1395
 11
-38.9805
 21
30.2783
  0
LINE
  8
0
 10
-38.9805
 20
30.2783
 11
-38.9563
 21
30.4158
  0
LINE
  8
0
 10
-38.9563
 20
30.4158
 11
-38.9225
 21
30.5513
  0
LINE
  8
0
 10
-38.9225
 20
30.5513
 11
-38.8794
 21
30.684
  0
LINE
  8
0
 10
-38.8794
 20
30.684
 11
-38.8271
 21
30.8135
  0
LINE
  8
0
 10
-38.8271
 20
30.8135
 11
-38.7659
 21
30.9389
  0
LINE
  8
0
 10
-38.7659
 20
30.9389
 11
-38.6961
 21
31.0598
  0
LINE
  8
0
 10
-38.6961
 20
31.0598
 11
-38.618
 21
31.1756
  0
LINE
  8
0
 10
-38.618
 20
31.1756
 11
-38.5321
 21
31.2856
  0
LINE
  8
0
 10
-38.5321
 20
31.2856
 11
-38.4387
 21
31.3893
  0
LINE
  8
0
 10
-38.4387
 20
31.3893
 11
-38.3383
 21
31.4863
  0
LINE
  8
0
 10
-38.3383
 20
31.4863
 11
-38.2313
 21
31.576
  0
LINE
  8
0
 10
-38.2313
 20
31.576
 11
-38.1184
 21
31.6581
  0
LINE
  8
0
 10
-38.1184
 20
31.6581
 11
-38
 21
31.732
  0
LINE
  8
0
 10
-38
 20
31.732
 11
-37.8767
 21
31.7976
  0
LINE
  8
0
 10
-37.8767
 20
31.7976
 11
-37.7492
 21
31.8544
  0
LINE
  8
0
 10
-37.7492
 20
31.8544
 11
-37.618
 21
31.9021
  0
LINE
  8
0
 10
-37.618
 20
31.9021
 11
-37.4838
 21
31.9406
  0
LINE
  8
0
 10
-37.4838
 20
31.9406
 11
-37.3473
 21
31.9696
  0
LINE
  8
0
 10
-37.3473
 20
31.9696
 11
-37.209
 21
31.989
  0
LINE
  8
0
 10
-37.209
 20
31.989
 11
-37.0698
 21
31.9988
  0
LINE
  8
0
 10
-37.0698
 20
31.9988
 11
-36.9302
 21
31.9988
  0
LINE
  8
0
 10
-36.9302
 20
31.9988
 11
-36.7909
 21
31.989
  0
LINE
  8
0
 10
-36.7909
 20
31.989
 11
-36.6527
 21
31.9696
  0
LINE
  8
0
 10
-36.6527
 20
31.9696
 11
-36.5161
 21
31.9406
  0
LINE
  8
0
 10
-36.5161
 20
31.9406
 11
-36.382
 21
31.9021
  0
LINE
  8
0
 10
-36.382
 20
31.9021
 11
-36.2508
 21
31.8544
  0
LINE
  8
0
 10
-36.2508
 20
31.8544
 11
-36.1232
 21
31.7976
  0
LINE
  8
0
 10
-36.1232
 20
31.7976
 11
-36
 21
31.732
  0
LINE
  8
0
 10
-36
 20
31.732
 11
-35.8816
 21
31.6581
  0
LINE
  8
0
 10
-35.8816
 20
31.6581
 11
-35.7687
 21
31.576
  0
LINE
  8
0
 10
-35.7687
 20
31.576
 11
-35.6617
 21
31.4863
  0
LINE
  8
0
 10
-35.6617
 20
31.4863
 11
-35.5613
 21
31.3893
  0
LINE
  8
0
 10
-35.5613
 20
31.3893
 11
-35.4679
 21
31.2856
  0
LINE
  8
0
 10
-35.4679
 20
31.2856
 11
-35.382
 21
31.1756
  0
LINE
  8
0
 10
-35.382
 20
31.1756
 11
-35.3039
 21
31.0598
  0
LINE
  8
0
 10
-35.3039
 20
31.0598
 11
-35.2341
 21
30.9389
  0
LINE
  8
0
 10
-35.2341
 20
30.9389
 11
-35.1729
 21
30.8135
  0
LINE
  8
0
 10
-35.1729
 20
30.8135
 11
-35.1206
 21
30.684
  0
LINE
  8
0
 10
-35.1206
 20
30.684
 11
-35.0775
 21
30.5513
  0
LINE
  8
0
 10
-35.0775
 20
30.5513
 11
-35.0437
 21
30.4158
  0
LINE
  8
0
 10
-35.0437
 20
30.4158
 11
-35.0195
 21
30.2783
  0
LINE
  8
0
 10
-35.0195
 20
30.2783
 11
-35.0049
 21
30.1395
  0
LINE
  8
0
 10
-35.0049
 20
30.1395
 11
-35
 21
30
  0
LINE
  8
0
 10
-35
 20
30
 11
-35.0049
 21
29.8605
  0
LINE
  8
0
 10
-35.0049
 20
29.8605
 11
-35.0195
 21
29.7217
  0
LINE
  8
0
 10
-35.0195
 20
29.7217
 11
-35.0437
 21
29.5842
  0
LINE
  8
0
 10
-35.0437
 20
29.5842
 11
-35.0775
 21
29.4487
  0
LINE
  8
0
 10
-35.0775
 20
29.4487
 11
-35.1206
 21
29.316
  0
LINE
  8
0
 10
-35.1206
 20
29.316
 11
-35.1729
 21
29.1865
  0
LINE
  8
0
 10
-35.1729
 20
29.1865
 11
-35.2341
 21
29.0611
  0
LINE
  8
0
 10
-35.2341
 20
29.0611
 11
-35.3039
 21
28.9402
  0
LINE
  8
0
 10
-35.3039
 20
28.9402
 11
-35.382
 21
28.8244
  0
LINE
  8
0
 10
-35.382
 20
28.8244
 11
-35.4679
 21
28.7144
  0
LINE
  8
0
 10
-35.4679
 20
28.7144
 11
-35.5613
 21
28.6107
  0
LINE
  8
0
 10
-35.5613
 20
28.6107
 11
-35.6617
 21
28.5137
  0
LINE
  8
0
 10
-35.6617
 20
28.5137
 11
-35.7687
 21
28.424
  0
LINE
  8
0
 10
-35.7687
 20
28.424
 11
-35.8816
 21
28.3419
  0
LINE
  8
0
 10
-35.8816
 20
28.3419
 11
-36
 21
28.268
  0
LINE
  8
0
 10
-36
 20
28.268
 11
-36.1232
 21
28.2024
  0
LINE
  8
0
 10
-36.1232
 20
28.2024
 11
-36.2508
 21
28.1456
  0
LINE
  8
0
 10
-36.2508
 20
28.1456
 11
-36.382
 21
28.0979
  0
LINE
  8
0
 10
-36.382
 20
28.0979
 11
-36.5161
 21
28.0594
  0
LINE
  8
0
 10
-36.5161
 20
28.0594
 11
-36.6527
 21
28.0304
  0
LINE
  8
0
 10
-36.6527
 20
28.0304
 11
-36.7909
 21
28.011
  0
LINE
  8
0
 10
-36.7909
 20
28.011
 11
-36.9302
 21
28.0012
  0
LINE
  8
0
 10
-36.9302
 20
28.0012
 11
-37.0698
 21
28.0012
  0
LINE
  8
0
 10
26.9476
 20
10.7509
 11
26.8432
 21
10.7582
  0
LINE
  8
0
 10
26.8432
 20
10.7582
 11
26.7395
 21
10.7728
  0
LINE
  8
0
 10
26.7395
 20
10.7728
 11
26.6371
 21
10.7946
  0
LINE
  8
0
 10
26.6371
 20
10.7946
 11
26.5365
 21
10.8234
  0
LINE
  8
0
 10
26.5365
 20
10.8234
 11
26.4381
 21
10.8592
  0
LINE
  8
0
 10
26.4381
 20
10.8592
 11
26.3424
 21
10.9018
  0
LINE
  8
0
 10
26.3424
 20
10.9018
 11
26.25
 21
10.951
  0
LINE
  8
0
 10
26.25
 20
10.951
 11
26.1612
 21
11.0065
  0
LINE
  8
0
 10
26.1612
 20
11.0065
 11
26.0765
 21
11.068
  0
LINE
  8
0
 10
26.0765
 20
11.068
 11
25.9963
 21
11.1353
  0
LINE
  8
0
 10
25.9963
 20
11.1353
 11
25.921
 21
11.208
  0
LINE
  8
0
 10
25.921
 20
11.208
 11
25.8509
 21
11.2858
  0
LINE
  8
0
 10
25.8509
 20
11.2858
 11
25.7865
 21
11.3683
  0
LINE
  8
0
 10
25.7865
 20
11.3683
 11
25.7279
 21
11.4551
  0
LINE
  8
0
 10
25.7279
 20
11.4551
 11
25.6756
 21
11.5458
  0
LINE
  8
0
 10
25.6756
 20
11.5458
 11
25.6297
 21
11.6399
  0
LINE
  8
0
 10
25.6297
 20
11.6399
 11
25.5905
 21
11.737
  0
LINE
  8
0
 10
25.5905
 20
11.737
 11
25.5581
 21
11.8365
  0
LINE
  8
0
 10
25.5581
 20
11.8365
 11
25.5328
 21
11.9381
  0
LINE
  8
0
 10
25.5328
 20
11.9381
 11
25.5146
 21
12.0412
  0
LINE
  8
0
 10
25.5146
 20
12.0412
 11
25.5036
 21
12.1454
  0
LINE
  8
0
 10
25.5036
 20
12.1454
 11
25.5
 21
12.25
  0
LINE
  8
0
 10
25.5
 20
12.25
 11
25.5036
 21
12.3546
  0
LINE
  8
0
 10
25.5036
 20
12.3546
 11
25.5146
 21
12.4588
  0
LINE
  8
0
 10
25.5146
 20
12.4588
 11
25.5328
 21
12.5619
  0
LINE
  8
0
 10
25.5328
 20
12.5619
 11
25.5581
 21
12.6635
  0
LINE
  8
0
 10
25.5581
 20
12.6635
 11
25.5905
 21
12.763
  0
LINE
  8
0
 10
25.5905
 20
12.763
 11
25.6297
 21
12.8601
  0
LINE
  8
0
 10
25.6297
 20
12.8601
 11
25.6756
 21
12.9542
  0
LINE
  8
0
 10
25.6756
 20
12.9542
 11
25.7279
 21
13.0449
  0
LINE
  8
0
 10
25.7279
 20
13.0449
 11
25.7865
 21
13.1317
  0
LINE
  8
0
 10
25.7865
 20
13.1317
 11
25.8509
 21
13.2142
  0
LINE
  8
0
 10
25.8509
 20
13.2142
 11
25.921
 21
13.292
  0
LINE
  8
0
 10
25.921
 20
13.292
 11
25.9963
 21
13.3647
  0
LINE
  8
0
 10
25.9963
 20
13.3647
 11
26.0765
 21
13.432
  0
LINE
  8
0
 10
26.0765
 20
13.432
 11
26.1612
 21
13.4936
  0
LINE
  8
0
 10
26.1612
 20
13.4936
 11
26.25
 21
13.549
  0
LINE
  8
0
 10
26.25
 20
13.549
 11
26.3424
 21
13.5982
  0
LINE
  8
0
 10
26.3424
 20
13.5982
 11
26.4381
 21
13.6408
  0
LINE
  8
0
 10
26.4381
 20
13.6408
 11
26.5365
 21
13.6766
  0
LINE
  8
0
 10
26.5365
 20
13.6766
 11
26.6371
 21
13.7054
  0
LINE
  8
0
 10
26.6371
 20
13.7054
 11
26.7395
 21
13.7272
  0
LINE
  8
0
 10
26.7395
 20
13.7272
 11
26.8432
 21
13.7418
  0
LINE
  8
0
 10
26.8432
 20
13.7418
 11
26.9476
 21
13.7491
  0
LINE
  8
0
 10
26.9476
 20
13.7491
 11
27.0523
 21
13.7491
  0
LINE
  8
0
 10
27.0523
 20
13.7491
 11
27.1568
 21
13.7418
  0
LINE
  8
0
 10
27.1568
 20
13.7418
 11
27.2605
 21
13.7272
  0
LINE
  8
0
 10
27.2605
 20
13.7272
 11
27.3629
 21
13.7054
  0
LINE
  8
0
 10
27.3629
 20
13.7054
 11
27.4635
 21
13.6766
  0
LINE
  8
0
 10
27.4635
 20
13.6766
 11
27.5619
 21
13.6408
  0
LINE
  8
0
 10
27.5619
 20
13.6408
 11
27.6575
 21
13.5982
  0
LINE
  8
0
 10
27.6575
 20
13.5982
 11
27.75
 21
13.549
  0
LINE
  8
0
 10
27.75
 20
13.549
 11
27.8388
 21
13.4936
  0
LINE
  8
0
 10
27.8388
 20
13.4936
 11
27.9235
 21
13.432
  0
LINE
  8
0
 10
27.9235
 20
13.432
 11
28.0037
 21
13.3647
  0
LINE
  8
0
 10
28.0037
 20
13.3647
 11
28.079
 21
13.292
  0
LINE
  8
0
 10
28.079
 20
13.292
 11
28.1491
 21
13.2142
  0
LINE
  8
0
 10
28.1491
 20
13.2142
 11
28.2135
 21
13.1317
  0
LINE
  8
0
 10
28.2135
 20
13.1317
 11
28.2721
 21
13.0449
  0
LINE
  8
0
 10
28.2721
 20
13.0449
 11
28.3244
 21
12.9542
  0
LINE
  8
0
 10
28.3244
 20
12.9542
 11
28.3703
 21
12.8601
  0
LINE
  8
0
 10
28.3703
 20
12.8601
 11
28.4095
 21
12.763
  0
LINE
  8
0
 10
28.4095
 20
12.763
 11
28.4419
 21
12.6635
  0
LINE
  8
0
 10
28.4419
 20
12.6635
 11
28.4672
 21
12.5619
  0
LINE
  8
0
 10
28.4672
 20
12.5619
 11
28.4854
 21
12.4588
  0
LINE
  8
0
 10
28.4854
 20
12.4588
 11
28.4963
 21
12.3546
  0
LINE
  8
0
 10
28.4963
 20
12.3546
 11
28.5
 21
12.25
  0
LINE
  8
0
 10
28.5
 20
12.25
 11
28.4963
 21
12.1454
  0
LINE
  8
0
 10
28.4963
 20
12.1454
 11
28.4854
 21
12.0412
  0
LINE
  8
0
 10
28.4854
 20
12.0412
 11
28.4672
 21
11.9381
  0
LINE
  8
0
 10
28.4672
 20
11.9381
 11
28.4419
 21
11.8365
  0
LINE
  8
0
 10
28.4419
 20
11.8365
 11
28.4095
 21
11.737
  0
LINE
  8
0
 10
28.4095
 20
11.737
 11
28.3703
 21
11.6399
  0
LINE
  8
0
 10
28.3703
 20
11.6399
 11
28.3244
 21
11.5458
  0
LINE
  8
0
 10
28.3244
 20
11.5458
 11
28.2721
 21
11.4551
  0
LINE
  8
0
 10
28.2721
 20
11.4551
 11
28.2135
 21
11.3683
  0
LINE
  8
0
 10
28.2135
 20
11.3683
 11
28.1491
 21
11.2858
  0
LINE
  8
0
 10
28.1491
 20
11.2858
 11
28.079
 21
11.208
  0
LINE
  8
0
 10
28.079
 20
11.208
 11
28.0037
 21
11.1353
  0
LINE
  8
0
 10
28.0037
 20
11.1353
 11
27.9235
 21
11.068
  0
LINE
  8
0
 10
27.9235
 20
11.068
 11
27.8388
 21
11.0065
  0
LINE
  8
0
 10
27.8388
 20
11.0065
 11
27.75
 21
10.951
  0
LINE
  8
0
 10
27.75
 20
10.951
 11
27.6575
 21
10.9018
  0
LINE
  8
0
 10
27.6575
 20
10.9018
 11
27.5619
 21
10.8592
  0
LINE
  8
0
 10
27.5619
 20
10.8592
 11
27.4635
 21
10.8234
  0
LINE
  8
0
 10
27.4635
 20
10.8234
 11
27.3629
 21
10.7946
  0
LINE
  8
0
 10
27.3629
 20
10.7946
 11
27.2605
 21
10.7728
  0
LINE
  8
0
 10
27.2605
 20
10.7728
 11
27.1568
 21
10.7582
  0
LINE
  8
0
 10
27.1568
 20
10.7582
 11
27.0523
 21
10.7509
  0
LINE
  8
0
 10
27.0523
 20
10.7509
 11
26.9476
 21
10.7509
  0
LINE
  8
0
 10
-27.0523
 20
10.7509
 11
-27.1568
 21
10.7582
  0
LINE
  8
0
 10
-27.1568
 20
10.7582
 11
-27.2605
 21
10.7728
  0
LINE
  8
0
 10
-27.2605
 20
10.7728
 11
-27.3629
 21
10.7946
  0
LINE
  8
0
 10
-27.3629
 20
10.7946
 11
-27.4635
 21
10.8234
  0
LINE
  8
0
 10
-27.4635
 20
10.8234
 11
-27.5619
 21
10.8592
  0
LINE
  8
0
 10
-27.5619
 20
10.8592
 11
-27.6575
 21
10.9018
  0
LINE
  8
0
 10
-27.6575
 20
10.9018
 11
-27.75
 21
10.951
  0
LINE
  8
0
 10
-27.75
 20
10.951
 11
-27.8388
 21
11.0065
  0
LINE
  8
0
 10
-27.8388
 20
11.0065
 11
-27.9235
 21
11.068
  0
LINE
  8
0
 10
-27.9235
 20
11.068
 11
-28.0037
 21
11.1353
  0
LINE
  8
0
 10
-28.0037
 20
11.1353
 11
-28.079
 21
11.208
  0
LINE
  8
0
 10
-28.079
 20
11.208
 11
-28.1491
 21
11.2858
  0
LINE
  8
0
 10
-28.1491
 20
11.2858
 11
-28.2135
 21
11.3683
  0
LINE
  8
0
 10
-28.2135
 20
11.3683
 11
-28.2721
 21
11.4551
  0
LINE
  8
0
 10
-28.2721
 20
11.4551
 11
-28.3244
 21
11.5458
  0
LINE
  8
0
 10
-28.3244
 20
11.5458
 11
-28.3703
 21
11.6399
  0
LINE
  8
0
 10
-28.3703
 20
11.6399
 11
-28.4095
 21
11.737
  0
LINE
  8
0
 10
-28.4095
 20
11.737
 11
-28.4419
 21
11.8365
  0
LINE
  8
0
 10
-28.4419
 20
11.8365
 11
-28.4672
 21
11.9381
  0
LINE
  8
0
 10
-28.4672
 20
11.9381
 11
-28.4854
 21
12.0412
  0
LINE
  8
0
 10
-28.4854
 20
12.0412
 11
-28.4963
 21
12.1454
  0
LINE
  8
0
 10
-28.4963
 20
12.1454
 11
-28.5
 21
12.25
  0
LINE
  8
0
 10
-28.5
 20
12.25
 11
-28.4963
 21
12.3546
  0
LINE
  8
0
 10
-28.4963
 20
12.3546
 11
-28.4854
 21
12.4588
  0
LINE
  8
0
 10
-28.4854
 20
12.4588
 11
-28.4672
 21
12.5619
  0
LINE
  8
0
 10
-28.4672
 20
12.5619
 11
-28.4419
 21
12.6635
  0
LINE
  8
0
 10
-28.4419
 20
12.6635
 11
-28.4095
 21
12.763
  0
LINE
  8
0
 10
-28.4095
 20
12.763
 11
-28.3703
 21
12.8601
  0
LINE
  8
0
 10
-28.3703
 20
12.8601
 11
-28.3244
 21
12.9542
  0
LINE
  8
0
 10
-28.3244
 20
12.9542
 11
-28.2721
 21
13.0449
  0
LINE
  8
0
 10
-28.2721
 20
13.0449
 11
-28.2135
 21
13.1317
  0
LINE
  8
0
 10
-28.2135
 20
13.1317
 11
-28.1491
 21
13.2142
  0
LINE
  8
0
 10
-28.1491
 20
13.2142
 11
-28.079
 21
13.292
  0
LINE
  8
0
 10
-28.079
 20
13.292
 11
-28.0037
 21
13.3647
  0
LINE
  8
0
 10
-28.0037
 20
13.3647
 11
-27.9235
 21
13.432
  0
LINE
  8
0
 10
-27.9235
 20
13.432
 11
-27.8388
 21
13.4936
  0
LINE
  8
0
 10
-27.8388
 20
13.4936
 11
-27.75
 21
13.549
  0
LINE
  8
0
 10
-27.75
 20
13.549
 11
-27.6575
 21
13.5982
  0
LINE
  8
0
 10
-27.6575
 20
13.5982
 11
-27.5619
 21
13.6408
  0
LINE
  8
0
 10
-27.5619
 20
13.6408
 11
-27.4635
 21
13.6766
  0
LINE
  8
0
 10
-27.4635
 20
13.6766
 11
-27.3629
 21
13.7054
  0
LINE
  8
0
 10
-27.3629
 20
13.7054
 11
-27.2605
 21
13.7272
  0
LINE
  8
0
 10
-27.2605
 20
13.7272
 11
-27.1568
 21
13.7418
  0
LINE
  8
0
 10
-27.1568
 20
13.7418
 11
-27.0523
 21
13.7491
  0
LINE
  8
0
 10
-27.0523
 20
13.7491
 11
-26.9476
 21
13.7491
  0
LINE
  8
0
 10
-26.9476
 20
13.7491
 11
-26.8432
 21
13.7418
  0
LINE
  8
0
 10
-26.8432
 20
13.7418
 11
-26.7395
 21
13.7272
  0
LINE
  8
0
 10
-26.7395
 20
13.7272
 11
-26.6371
 21
13.7054
  0
LINE
  8
0
 10
-26.6371
 20
13.7054
 11
-26.5365
 21
13.6766
  0
LINE
  8
0
 10
-26.5365
 20
13.6766
 11
-26.4381
 21
13.6408
  0
LINE
  8
0
 10
-26.4381
 20
13.6408
 11
-26.3424
 21
13.5982
  0
LINE
  8
0
 10
-26.3424
 20
13.5982
 11
-26.25
 21
13.549
  0
LINE
  8
0
 10
-26.25
 20
13.549
 11
-26.1612
 21
13.4936
  0
LINE
  8
0
 10
-26.1612
 20
13.4936
 11
-26.0765
 21
13.432
  0
LINE
  8
0
 10
-26.0765
 20
13.432
 11
-25.9963
 21
13.3647
  0
LINE
  8
0
 10
-25.9963
 20
13.3647
 11
-25.921
 21
13.292
  0
LINE
  8
0
 10
-25.921
 20
13.292
 11
-25.8509
 21
13.2142
  0
LINE
  8
0
 10
-25.8509
 20
13.2142
 11
-25.7865
 21
13.1317
  0
LINE
  8
0
 10
-25.7865
 20
13.1317
 11
-25.7279
 21
13.0449
  0
LINE
  8
0
 10
-25.7279
 20
13.0449
 11
-25.6756
 21
12.9542
  0
LINE
  8
0
 10
-25.6756
 20
12.9542
 11
-25.6297
 21
12.8601
  0
LINE
  8
0
 10
-25.6297
 20
12.8601
 11
-25.5905
 21
12.763
  0
LINE
  8
0
 10
-25.5905
 20
12.763
 11
-25.5581
 21
12.6635
  0
LINE
  8
0
 10
-25.5581
 20
12.6635
 11
-25.5328
 21
12.5619
  0
LINE
  8
0
 10
-25.5328
 20
12.5619
 11
-25.5146
 21
12.4588
  0
LINE
  8
0
 10
-25.5146
 20
12.4588
 11
-25.5036
 21
12.3546
  0
LINE
  8
0
 10
-25.5036
 20
12.3546
 11
-25.5
 21
12.25
  0
LINE
  8
0
 10
-25.5
 20
12.25
 11
-25.5036
 21
12.1454
  0
LINE
  8
0
 10
-25.5036
 20
12.1454
 11
-25.5146
 21
12.0412
  0
LINE
  8
0
 10
-25.5146
 20
12.0412
 11
-25.5328
 21
11.9381
  0
LINE
  8
0
 10
-25.5328
 20
11.9381
 11
-25.5581
 21
11.8365
  0
LINE
  8
0
 10
-25.5581
 20
11.8365
 11
-25.5905
 21
11.737
  0
LINE
  8
0
 10
-25.5905
 20
11.737
 11
-25.6297
 21
11.6399
  0
LINE
  8
0
 10
-25.6297
 20
11.6399
 11
-25.6756
 21
11.5458
  0
LINE
  8
0
 10
-25.6756
 20
11.5458
 11
-25.7279
 21
11.4551
  0
LINE
  8
0
 10
-25.7279
 20
11.4551
 11
-25.7865
 21
11.3683
  0
LINE
  8
0
 10
-25.7865
 20
11.3683
 11
-25.8509
 21
11.2858
  0
LINE
  8
0
 10
-25.8509
 20
11.2858
 11
-25.921
 21
11.208
  0
LINE
  8
0
 10
-25.921
 20
11.208
 11
-25.9963
 21
11.1353
  0
LINE
  8
0
 10
-25.9963
 20
11.1353
 11
-26.0765
 21
11.068
  0
LINE
  8
0
 10
-26.0765
 20
11.068
 11
-26.1612
 21
11.0065
  0
LINE
  8
0
 10
-26.1612
 20
11.0065
 11
-26.25
 21
10.951
  0
LINE
  8
0
 10
-26.25
 20
10.951
 11
-26.3424
 21
10.9018
  0
LINE
  8
0
 10
-26.3424
 20
10.9018
 11
-26.4381
 21
10.8592
  0
LINE
  8
0
 10
-26.4381
 20
10.8592
 11
-26.5365
 21
10.8234
  0
LINE
  8
0
 10
-26.5365
 20
10.8234
 11
-26.6371
 21
10.7946
  0
LINE
  8
0
 10
-26.6371
 20
10.7946
 11
-26.7395
 21
10.7728
  0
LINE
  8
0
 10
-26.7395
 20
10.7728
 11
-26.8432
 21
10.7582
  0
LINE
  8
0
 10
-26.8432
 20
10.7582
 11
-26.9476
 21
10.7509
  0
LINE
  8
0
 10
-26.9476
 20
10.7509
 11
-27.0523
 21
10.7509
  0
LINE
  8
0
 10
69.777
 20
13.0931
 11
70.952
 21
13.2583
  0
LINE
  8
0
 10
70.952
 20
13.2583
 11
72.1127
 21
13.505
  0
LINE
  8
0
 10
72.1127
 20
13.505
 11
73.2533
 21
13.832
  0
LINE
  8
0
 10
73.2533
 20
13.832
 11
74.3683
 21
14.2379
  0
LINE
  8
0
 10
74.3683
 20
14.2379
 11
75.4523
 21
14.7205
  0
LINE
  8
0
 10
75.4523
 20
14.7205
 11
76.5
 21
15.2776
  0
LINE
  8
0
 10
76.5
 20
15.2776
 11
77.5063
 21
15.9064
  0
LINE
  8
0
 10
77.5063
 20
15.9064
 11
78.4662
 21
16.6038
  0
LINE
  8
0
 10
78.4662
 20
16.6038
 11
79.3752
 21
17.3665
  0
LINE
  8
0
 10
79.3752
 20
17.3665
 11
80.2288
 21
18.1908
  0
LINE
  8
0
 10
80.2288
 20
18.1908
 11
81.0228
 21
19.0726
  0
LINE
  8
0
 10
81.0228
 20
19.0726
 11
81.7533
 21
20.0077
  0
LINE
  8
0
 10
81.7533
 20
20.0077
 11
82.4168
 21
20.9914
  0
LINE
  8
0
 10
82.4168
 20
20.9914
 11
83.0101
 21
22.019
  0
LINE
  8
0
 10
83.0101
 20
22.019
 11
83.5303
 21
23.0855
  0
LINE
  8
0
 10
83.5303
 20
23.0855
 11
83.9748
 21
24.1857
  0
LINE
  8
0
 10
83.9748
 20
24.1857
 11
84.3414
 21
25.3142
  0
LINE
  8
0
 10
84.3414
 20
25.3142
 11
84.6285
 21
26.4655
  0
LINE
  8
0
 10
84.6285
 20
26.4655
 11
84.8345
 21
27.6341
  0
LINE
  8
0
 10
84.8345
 20
27.6341
 11
84.9586
 21
28.8141
  0
LINE
  8
0
 10
84.9586
 20
28.8141
 11
85
 21
30
  0
LINE
  8
0
 10
85
 20
30
 11
84.9586
 21
31.1859
  0
LINE
  8
0
 10
84.9586
 20
31.1859
 11
84.8345
 21
32.3659
  0
LINE
  8
0
 10
84.8345
 20
32.3659
 11
84.6285
 21
33.5345
  0
LINE
  8
0
 10
84.6285
 20
33.5345
 11
84.3414
 21
34.6858
  0
LINE
  8
0
 10
84.3414
 20
34.6858
 11
83.9748
 21
35.8143
  0
LINE
  8
0
 10
83.9748
 20
35.8143
 11
83.5303
 21
36.9145
  0
LINE
  8
0
 10
83.5303
 20
36.9145
 11
83.0101
 21
37.981
  0
LINE
  8
0
 10
83.0101
 20
37.981
 11
82.4168
 21
39.0086
  0
LINE
  8
0
 10
82.4168
 20
39.0086
 11
81.7533
 21
39.9923
  0
LINE
  8
0
 10
81.7533
 20
39.9923
 11
81.0228
 21
40.9274
  0
LINE
  8
0
 10
81.0228
 20
40.9274
 11
80.2288
 21
41.8092
  0
LINE
  8
0
 10
80.2288
 20
41.8092
 11
79.3752
 21
42.6335
  0
LINE
  8
0
 10
79.3752
 20
42.6335
 11
78.4662
 21
43.3962
  0
LINE
  8
0
 10
78.4662
 20
43.3962
 11
77.5063
 21
44.0936
  0
LINE
  8
0
 10
77.5063
 20
44.0936
 11
76.5
 21
44.7224
  0
LINE
  8
0
 10
76.5
 20
44.7224
 11
75.4523
 21
45.2795
  0
LINE
  8
0
 10
75.4523
 20
45.2795
 11
74.3683
 21
45.7621
  0
LINE
  8
0
 10
74.3683
 20
45.7621
 11
73.2533
 21
46.168
  0
LINE
  8
0
 10
73.2533
 20
46.168
 11
72.1127
 21
46.495
  0
LINE
  8
0
 10
72.1127
 20
46.495
 11
70.952
 21
46.7417
  0
LINE
  8
0
 10
70.952
 20
46.7417
 11
69.777
 21
46.9069
  0
LINE
  8
0
 10
69.777
 20
46.9069
 11
68.5933
 21
46.9896
  0
LINE
  8
0
 10
68.5933
 20
46.9896
 11
67.4067
 21
46.9896
  0
LINE
  8
0
 10
67.4067
 20
46.9896
 11
66.223
 21
46.9069
  0
LINE
  8
0
 10
66.223
 20
46.9069
 11
65.048
 21
46.7417
  0
LINE
  8
0
 10
65.048
 20
46.7417
 11
63.8873
 21
46.495
  0
LINE
  8
0
 10
63.8873
 20
46.495
 11
62.7467
 21
46.168
  0
LINE
  8
0
 10
62.7467
 20
46.168
 11
61.6317
 21
45.7621
  0
LINE
  8
0
 10
61.6317
 20
45.7621
 11
60.5477
 21
45.2795
  0
LINE
  8
0
 10
60.5477
 20
45.2795
 11
59.5
 21
44.7224
  0
LINE
  8
0
 10
59.5
 20
44.7224
 11
58.4937
 21
44.0936
  0
LINE
  8
0
 10
58.4937
 20
44.0936
 11
57.5338
 21
43.3962
  0
LINE
  8
0
 10
57.5338
 20
43.3962
 11
56.6248
 21
42.6335
  0
LINE
  8
0
 10
56.6248
 20
42.6335
 11
55.7712
 21
41.8092
  0
LINE
  8
0
 10
55.7712
 20
41.8092
 11
54.9772
 21
40.9274
  0
LINE
  8
0
 10
54.9772
 20
40.9274
 11
54.2467
 21
39.9923
  0
LINE
  8
0
 10
54.2467
 20
39.9923
 11
53.5832
 21
39.0086
  0
LINE
  8
0
 10
53.5832
 20
39.0086
 11
52.9899
 21
37.981
  0
LINE
  8
0
 10
52.9899
 20
37.981
 11
52.4697
 21
36.9145
  0
LINE
  8
0
 10
52.4697
 20
36.9145
 11
52.0252
 21
35.8143
  0
LINE
  8
0
 10
52.0252
 20
35.8143
 11
51.6586
 21
34.6858
  0
LINE
  8
0
 10
51.6586
 20
34.6858
 11
51.3715
 21
33.5345
  0
LINE
  8
0
 10
51.3715
 20
33.5345
 11
51.1655
 21
32.3659
  0
LINE
  8
0
 10
51.1655
 20
32.3659
 11
51.0414
 21
31.1859
  0
LINE
  8
0
 10
51.0414
 20
31.1859
 11
51
 21
30
  0
LINE
  8
0
 10
51
 20
30
 11
51.0414
 21
28.8141
  0
LINE
  8
0
 10
51.0414
 20
28.8141
 11
51.1655
 21
27.6341
  0
LINE
  8
0
 10
51.1655
 20
27.6341
 11
51.3715
 21
26.4655
  0
LINE
  8
0
 10
51.3715
 20
26.4655
 11
51.6586
 21
25.3142
  0
LINE
  8
0
 10
51.6586
 20
25.3142
 11
52.0252
 21
24.1857
  0
LINE
  8
0
 10
52.0252
 20
24.1857
 11
52.4697
 21
23.0855
  0
LINE
  8
0
 10
52.4697
 20
23.0855
 11
52.9899
 21
22.019
  0
LINE
  8
0
 10
52.9899
 20
22.019
 11
53.5832
 21
20.9914
  0
LINE
  8
0
 10
53.5832
 20
20.9914
 11
54.2467
 21
20.0077
  0
LINE
  8
0
 10
54.2467
 20
20.0077
 11
54.9772
 21
19.0726
  0
LINE
  8
0
 10
54.9772
 20
19.0726
 11
55.7712
 21
18.1908
  0
LINE
  8
0
 10
55.7712
 20
18.1908
 11
56.6248
 21
17.3665
  0
LINE
  8
0
 10
56.6248
 20
17.3665
 11
57.5338
 21
16.6038
  0
LINE
  8
0
 10
57.5338
 20
16.6038
 11
58.4937
 21
15.9064
  0
LINE
  8
0
 10
58.4937
 20
15.9064
 11
59.5
 21
15.2776
  0
LINE
  8
0
 10
59.5
 20
15.2776
 11
60.5477
 21
14.7205
  0
LINE
  8
0
 10
60.5477
 20
14.7205
 11
61.6317
 21
14.2379
  0
LINE
  8
0
 10
61.6317
 20
14.2379
 11
62.7467
 21
13.832
  0
LINE
  8
0
 10
62.7467
 20
13.832
 11
63.8873
 21
13.505
  0
LINE
  8
0
 10
63.8873
 20
13.505
 11
65.048
 21
13.2583
  0
LINE
  8
0
 10
65.048
 20
13.2583
 11
66.223
 21
13.0931
  0
LINE
  8
0
 10
66.223
 20
13.0931
 11
67.4067
 21
13.0104
  0
LINE
  8
0
 10
67.4067
 20
13.0104
 11
68.5933
 21
13.0104
  0
LINE
  8
0
 10
68.5933
 20
13.0104
 11
69.777
 21
13.0931
  0
LINE
  8
0
 10
67.9128
 20
27.5015
 11
67.7387
 21
27.5137
  0
LINE
  8
0
 10
67.7387
 20
27.5137
 11
67.5659
 21
27.538
  0
LINE
  8
0
 10
67.5659
 20
27.538
 11
67.3952
 21
27.5743
  0
LINE
  8
0
 10
67.3952
 20
27.5743
 11
67.2275
 21
27.6224
  0
LINE
  8
0
 10
67.2275
 20
27.6224
 11
67.0635
 21
27.6821
  0
LINE
  8
0
 10
67.0635
 20
27.6821
 11
66.9041
 21
27.753
  0
LINE
  8
0
 10
66.9041
 20
27.753
 11
66.75
 21
27.8349
  0
LINE
  8
0
 10
66.75
 20
27.8349
 11
66.602
 21
27.9274
  0
LINE
  8
0
 10
66.602
 20
27.9274
 11
66.4609
 21
28.03
  0
LINE
  8
0
 10
66.4609
 20
28.03
 11
66.3272
 21
28.1422
  0
LINE
  8
0
 10
66.3272
 20
28.1422
 11
66.2017
 21
28.2634
  0
LINE
  8
0
 10
66.2017
 20
28.2634
 11
66.0849
 21
28.393
  0
LINE
  8
0
 10
66.0849
 20
28.393
 11
65.9775
 21
28.5305
  0
LINE
  8
0
 10
65.9775
 20
28.5305
 11
65.8799
 21
28.6752
  0
LINE
  8
0
 10
65.8799
 20
28.6752
 11
65.7926
 21
28.8263
  0
LINE
  8
0
 10
65.7926
 20
28.8263
 11
65.7161
 21
28.9832
  0
LINE
  8
0
 10
65.7161
 20
28.9832
 11
65.6508
 21
29.145
  0
LINE
  8
0
 10
65.6508
 20
29.145
 11
65.5968
 21
29.3109
  0
LINE
  8
0
 10
65.5968
 20
29.3109
 11
65.5546
 21
29.4802
  0
LINE
  8
0
 10
65.5546
 20
29.4802
 11
65.5243
 21
29.6521
  0
LINE
  8
0
 10
65.5243
 20
29.6521
 11
65.5061
 21
29.8256
  0
LINE
  8
0
 10
65.5061
 20
29.8256
 11
65.5
 21
30
  0
LINE
  8
0
 10
65.5
 20
30
 11
65.5061
 21
30.1744
  0
LINE
  8
0
 10
65.5061
 20
30.1744
 11
65.5243
 21
30.3479
  0
LINE
  8
0
 10
65.5243
 20
30.3479
 11
65.5546
 21
30.5198
  0
LINE
  8
0
 10
65.5546
 20
30.5198
 11
65.5968
 21
30.6891
  0
LINE
  8
0
 10
65.5968
 20
30.6891
 11
65.6508
 21
30.855
  0
LINE
  8
0
 10
65.6508
 20
30.855
 11
65.7161
 21
31.0168
  0
LINE
  8
0
 10
65.7161
 20
31.0168
 11
65.7926
 21
31.1737
  0
LINE
  8
0
 10
65.7926
 20
31.1737
 11
65.8799
 21
31.3248
  0
LINE
  8
0
 10
65.8799
 20
31.3248
 11
65.9775
 21
31.4695
  0
LINE
  8
0
 10
65.9775
 20
31.4695
 11
66.0849
 21
31.607
  0
LINE
  8
0
 10
66.0849
 20
31.607
 11
66.2017
 21
31.7366
  0
LINE
  8
0
 10
66.2017
 20
31.7366
 11
66.3272
 21
31.8578
  0
LINE
  8
0
 10
66.3272
 20
31.8578
 11
66.4609
 21
31.97
  0
LINE
  8
0
 10
66.4609
 20
31.97
 11
66.602
 21
32.0726
  0
LINE
  8
0
 10
66.602
 20
32.0726
 11
66.75
 21
32.1651
  0
LINE
  8
0
 10
66.75
 20
32.1651
 11
66.9041
 21
32.247
  0
LINE
  8
0
 10
66.9041
 20
32.247
 11
67.0635
 21
32.3179
  0
LINE
  8
0
 10
67.0635
 20
32.3179
 11
67.2275
 21
32.3776
  0
LINE
  8
0
 10
67.2275
 20
32.3776
 11
67.3952
 21
32.4257
  0
LINE
  8
0
 10
67.3952
 20
32.4257
 11
67.5659
 21
32.462
  0
LINE
  8
0
 10
67.5659
 20
32.462
 11
67.7387
 21
32.4863
  0
LINE
  8
0
 10
67.7387
 20
32.4863
 11
67.9128
 21
32.4985
  0
LINE
  8
0
 10
67.9128
 20
32.4985
 11
68.0872
 21
32.4985
  0
LINE
  8
0
 10
68.0872
 20
32.4985
 11
68.2613
 21
32.4863
  0
LINE
  8
0
 10
68.2613
 20
32.4863
 11
68.4341
 21
32.462
  0
LINE
  8
0
 10
68.4341
 20
32.462
 11
68.6048
 21
32.4257
  0
LINE
  8
0
 10
68.6048
 20
32.4257
 11
68.7725
 21
32.3776
  0
LINE
  8
0
 10
68.7725
 20
32.3776
 11
68.9365
 21
32.3179
  0
LINE
  8
0
 10
68.9365
 20
32.3179
 11
69.0959
 21
32.247
  0
LINE
  8
0
 10
69.0959
 20
32.247
 11
69.25
 21
32.1651
  0
LINE
  8
0
 10
69.25
 20
32.1651
 11
69.398
 21
32.0726
  0
LINE
  8
0
 10
69.398
 20
32.0726
 11
69.5391
 21
31.97
  0
LINE
  8
0
 10
69.5391
 20
31.97
 11
69.6728
 21
31.8578
  0
LINE
  8
0
 10
69.6728
 20
31.8578
 11
69.7983
 21
31.7366
  0
LINE
  8
0
 10
69.7983
 20
31.7366
 11
69.9151
 21
31.607
  0
LINE
  8
0
 10
69.9151
 20
31.607
 11
70.0225
 21
31.4695
  0
LINE
  8
0
 10
70.0225
 20
31.4695
 11
70.1201
 21
31.3248
  0
LINE
  8
0
 10
70.1201
 20
31.3248
 11
70.2074
 21
31.1737
  0
LINE
  8
0
 10
70.2074
 20
31.1737
 11
70.2839
 21
31.0168
  0
LINE
  8
0
 10
70.2839
 20
31.0168
 11
70.3492
 21
30.855
  0
LINE
  8
0
 10
70.3492
 20
30.855
 11
70.4032
 21
30.6891
  0
LINE
  8
0
 10
70.4032
 20
30.6891
 11
70.4454
 21
30.5198
  0
LINE
  8
0
 10
70.4454
 20
30.5198
 11
70.4757
 21
30.3479
  0
LINE
  8
0
 10
70.4757
 20
30.3479
 11
70.4939
 21
30.1744
  0
LINE
  8
0
 10
70.4939
 20
30.1744
 11
70.5
 21
30
  0
LINE
  8
0
 10
70.5
 20
30
 11
70.4939
 21
29.8256
  0
LINE
  8
0
 10
70.4939
 20
29.8256
 11
70.4757
 21
29.6521
  0
LINE
  8
0
 10
70.4757
 20
29.6521
 11
70.4454
 21
29.4802
  0
LINE
  8
0
 10
70.4454
 20
29.4802
 11
70.4032
 21
29.3109
  0
LINE
  8
0
 10
70.4032
 20
29.3109
 11
70.3492
 21
29.145
  0
LINE
  8
0
 10
70.3492
 20
29.145
 11
70.2839
 21
28.9832
  0
LINE
  8
0
 10
70.2839
 20
28.9832
 11
70.2074
 21
28.8263
  0
LINE
  8
0
 10
70.2074
 20
28.8263
 11
70.1201
 21
28.6752
  0
LINE
  8
0
 10
70.1201
 20
28.6752
 11
70.0225
 21
28.5305
  0
LINE
  8
0
 10
70.0225
 20
28.5305
 11
69.9151
 21
28.393
  0
LINE
  8
0
 10
69.9151
 20
28.393
 11
69.7983
 21
28.2634
  0
LINE
  8
0
 10
69.7983
 20
28.2634
 11
69.6728
 21
28.1422
  0
LINE
  8
0
 10
69.6728
 20
28.1422
 11
69.5391
 21
28.03
  0
LINE
  8
0
 10
69.5391
 20
28.03
 11
69.398
 21
27.9274
  0
LINE
  8
0
 10
69.398
 20
27.9274
 11
69.25
 21
27.8349
  0
LINE
  8
0
 10
69.25
 20
27.8349
 11
69.0959
 21
27.753
  0
LINE
  8
0
 10
69.0959
 20
27.753
 11
68.9365
 21
27.6821
  0
LINE
  8
0
 10
68.9365
 20
27.6821
 11
68.7725
 21
27.6224
  0
LINE
  8
0
 10
68.7725
 20
27.6224
 11
68.6048
 21
27.5743
  0
LINE
  8
0
 10
68.6048
 20
27.5743
 11
68.4341
 21
27.538
  0
LINE
  8
0
 10
68.4341
 20
27.538
 11
68.2613
 21
27.5137
  0
LINE
  8
0
 10
68.2613
 20
27.5137
 11
68.0872
 21
27.5015
  0
LINE
  8
0
 10
68.0872
 20
27.5015
 11
67.9128
 21
27.5015
  0
LINE
  8
0
 10
2.82227
 20
-56.8521
 11
4.68849
 21
-56.5898
  0
LINE
  8
0
 10
4.68849
 20
-56.5898
 11
28.5
 21
-52.5
  0
LINE
  8
0
 10
28.5
 20
-52.5
 11
47
 21
-45
  0
LINE
  8
0
 10
47
 20
-45
 11
47
 21
-15
  0
LINE
  8
0
 10
47
 20
-15
 11
28.5
 21
-7.5
  0
LINE
  8
0
 10
28.5
 20
-7.5
 11
4.68849
 21
-3.4102
  0
LINE
  8
0
 10
4.68849
 20
-3.4102
 11
2.82227
 21
-3.14792
  0
LINE
  8
0
 10
2.82227
 20
-3.14792
 11
0.942276
 21
-3.01645
  0
LINE
  8
0
 10
0.942276
 20
-3.01645
 11
-0.942276
 21
-3.01645
  0
LINE
  8
0
 10
-0.942276
 20
-3.01645
 11
-2.82227
 21
-3.14792
  0
LINE
  8
0
 10
-2.82227
 20
-3.14792
 11
-4.68849
 21
-3.4102
  0
LINE
  8
0
 10
-4.68849
 20
-3.4102
 11
-28.5
 21
-7.5
  0
LINE
  8
0
 10
-28.5
 20
-7.5
 11
-47
 21
-15
  0
LINE
  8
0
 10
-47
 20
-15
 11
-47
 21
-45
  0
LINE
  8
0
 10
-47
 20
-45
 11
-28.5
 21
-52.5
  0
LINE
  8
0
 10
-28.5
 20
-52.5
 11
-4.68849
 21
-56.5898
  0
LINE
  8
0
 10
-4.68849
 20
-56.5898
 11
-2.82227
 21
-56.8521
  0
LINE
  8
0
 10
-2.82227
 20
-56.8521
 11
-0.942276
 21
-56.9836
  0
LINE
  8
0
 10
-0.942276
 20
-56.9836
 11
0.942276
 21
-56.9836
  0
LINE
  8
0
 10
0.942276
 20
-56.9836
 11
2.82227
 21
-56.8521
  0
LINE
  8
0
 10
-27.0523
 20
-13.7491
 11
-27.1568
 21
-13.7418
  0
LINE
  8
0
 10
-27.1568
 20
-13.7418
 11
-27.2605
 21
-13.7272
  0
LINE
  8
0
 10
-27.2605
 20
-13.7272
 11
-27.3629
 21
-13.7054
  0
LINE
  8
0
 10
-27.3629
 20
-13.7054
 11
-27.4635
 21
-13.6766
  0
LINE
  8
0
 10
-27.4635
 20
-13.6766
 11
-27.5619
 21
-13.6408
  0
LINE
  8
0
 10
-27.5619
 20
-13.6408
 11
-27.6575
 21
-13.5982
  0
LINE
  8
0
 10
-27.6575
 20
-13.5982
 11
-27.75
 21
-13.549
  0
LINE
  8
0
 10
-27.75
 20
-13.549
 11
-27.8388
 21
-13.4936
  0
LINE
  8
0
 10
-27.8388
 20
-13.4936
 11
-27.9235
 21
-13.432
  0
LINE
  8
0
 10
-27.9235
 20
-13.432
 11
-28.0037
 21
-13.3647
  0
LINE
  8
0
 10
-28.0037
 20
-13.3647
 11
-28.079
 21
-13.292
  0
LINE
  8
0
 10
-28.079
 20
-13.292
 11
-28.1491
 21
-13.2142
  0
LINE
  8
0
 10
-28.1491
 20
-13.2142
 11
-28.2135
 21
-13.1317
  0
LINE
  8
0
 10
-28.2135
 20
-13.1317
 11
-28.2721
 21
-13.0449
  0
LINE
  8
0
 10
-28.2721
 20
-13.0449
 11
-28.3244
 21
-12.9542
  0
LINE
  8
0
 10
-28.3244
 20
-12.9542
 11
-28.3703
 21
-12.8601
  0
LINE
  8
0
 10
-28.3703
 20
-12.8601
 11
-28.4095
 21
-12.763
  0
LINE
  8
0
 10
-28.4095
 20
-12.763
 11
-28.4419
 21
-12.6635
  0
LINE
  8
0
 10
-28.4419
 20
-12.6635
 11
-28.4672
 21
-12.5619
  0
LINE
  8
0
 10
-28.4672
 20
-12.5619
 11
-28.4854
 21
-12.4588
  0
LINE
  8
0
 10
-28.4854
 20
-12.4588
 11
-28.4963
 21
-12.3546
  0
LINE
  8
0
 10
-28.4963
 20
-12.3546
 11
-28.5
 21
-12.25
  0
LINE
  8
0
 10
-28.5
 20
-12.25
 11
-28.4963
 21
-12.1454
  0
LINE
  8
0
 10
-28.4963
 20
-12.1454
 11
-28.4854
 21
-12.0412
  0
LINE
  8
0
 10
-28.4854
 20
-12.0412
 11
-28.4672
 21
-11.9381
  0
LINE
  8
0
 10
-28.4672
 20
-11.9381
 11
-28.4419
 21
-11.8365
  0
LINE
  8
0
 10
-28.4419
 20
-11.8365
 11
-28.4095
 21
-11.737
  0
LINE
  8
0
 10
-28.4095
 20
-11.737
 11
-28.3703
 21
-11.6399
  0
LINE
  8
0
 10
-28.3703
 20
-11.6399
 11
-28.3244
 21
-11.5458
  0
LINE
  8
0
 10
-28.3244
 20
-11.5458
 11
-28.2721
 21
-11.4551
  0
LINE
  8
0
 10
-28.2721
 20
-11.4551
 11
-28.2135
 21
-11.3683
  0
LINE
  8
0
 10
-28.2135
 20
-11.3683
 11
-28.1491
 21
-11.2858
  0
LINE
  8
0
 10
-28.1491
 20
-11.2858
 11
-28.079
 21
-11.208
  0
LINE
  8
0
 10
-28.079
 20
-11.208
 11
-28.0037
 21
-11.1353
  0
LINE
  8
0
 10
-28.0037
 20
-11.1353
 11
-27.9235
 21
-11.068
  0
LINE
  8
0
 10
-27.9235
 20
-11.068
 11
-27.8388
 21
-11.0065
  0
LINE
  8
0
 10
-27.8388
 20
-11.0065
 11
-27.75
 21
-10.951
  0
LINE
  8
0
 10
-27.75
 20
-10.951
 11
-27.6575
 21
-10.9018
  0
LINE
  8
0
 10
-27.6575
 20
-10.9018
 11
-27.5619
 21
-10.8592
  0
LINE
  8
0
 10
-27.5619
 20
-10.8592
 11
-27.4635
 21
-10.8234
  0
LINE
  8
0
 10
-27.4635
 20
-10.8234
 11
-27.3629
 21
-10.7946
  0
LINE
  8
0
 10
-27.3629
 20
-10.7946
 11
-27.2605
 21
-10.7728
  0
LINE
  8
0
 10
-27.2605
 20
-10.7728
 11
-27.1568
 21
-10.7582
  0
LINE
  8
0
 10
-27.1568
 20
-10.7582
 11
-27.0523
 21
-10.7509
  0
LINE
  8
0
 10
-27.0523
 20
-10.7509
 11
-26.9476
 21
-10.7509
  0
LINE
  8
0
 10
-26.9476
 20
-10.7509
 11
-26.8432
 21
-10.7582
  0
LINE
  8
0
 10
-26.8432
 20
-10.7582
 11
-26.7395
 21
-10.7728
  0
LINE
  8
0
 10
-26.7395
 20
-10.7728
 11
-26.6371
 21
-10.7946
  0
LINE
  8
0
 10
-26.6371
 20
-10.7946
 11
-26.5365
 21
-10.8234
  0
LINE
  8
0
 10
-26.5365
 20
-10.8234
 11
-26.4381
 21
-10.8592
  0
LINE
  8
0
 10
-26.4381
 20
-10.8592
 11
-26.3424
 21
-10.9018
  0
LINE
  8
0
 10
-26.3424
 20
-10.9018
 11
-26.25
 21
-10.951
  0
LINE
  8
0
 10
-26.25
 20
-10.951
 11
-26.1612
 21
-11.0065
  0
LINE
  8
0
 10
-26.1612
 20
-11.0065
 11
-26.0765
 21
-11.068
  0
LINE
  8
0
 10
-26.0765
 20
-11.068
 11
-25.9963
 21
-11.1353
  0
LINE
  8
0
 10
-25.9963
 20
-11.1353
 11
-25.921
 21
-11.208
  0
LINE
  8
0
 10
-25.921
 20
-11.208
 11
-25.8509
 21
-11.2858
  0
LINE
  8
0
 10
-25.8509
 20
-11.2858
 11
-25.7865
 21
-11.3683
  0
LINE
  8
0
 10
-25.7865
 20
-11.3683
 11
-25.7279
 21
-11.4551
  0
LINE
  8
0
 10
-25.7279
 20
-11.4551
 11
-25.6756
 21
-11.5458
  0
LINE
  8
0
 10
-25.6756
 20
-11.5458
 11
-25.6297
 21
-11.6399
  0
LINE
  8
0
 10
-25.6297
 20
-11.6399
 11
-25.5905
 21
-11.737
  0
LINE
  8
0
 10
-25.5905
 20
-11.737
 11
-25.5581
 21
-11.8365
  0
LINE
  8
0
 10
-25.5581
 20
-11.8365
 11
-25.5328
 21
-11.9381
  0
LINE
  8
0
 10
-25.5328
 20
-11.9381
 11
-25.5146
 21
-12.0412
  0
LINE
  8
0
 10
-25.5146
 20
-12.0412
 11
-25.5036
 21
-12.1454
  0
LINE
  8
0
 10
-25.5036
 20
-12.1454
 11
-25.5
 21
-12.25
  0
LINE
  8
0
 10
-25.5
 20
-12.25
 11
-25.5036
 21
-12.3546
  0
LINE
  8
0
 10
-25.5036
 20
-12.3546
 11
-25.5146
 21
-12.4588
  0
LINE
  8
0
 10
-25.5146
 20
-12.4588
 11
-25.5328
 21
-12.5619
  0
LINE
  8
0
 10
-25.5328
 20
-12.5619
 11
-25.5581
 21
-12.6635
  0
LINE
  8
0
 10
-25.5581
 20
-12.6635
 11
-25.5905
 21
-12.763
  0
LINE
  8
0
 10
-25.5905
 20
-12.763
 11
-25.6297
 21
-12.8601
  0
LINE
  8
0
 10
-25.6297
 20
-12.8601
 11
-25.6756
 21
-12.9542
  0
LINE
  8
0
 10
-25.6756
 20
-12.9542
 11
-25.7279
 21
-13.0449
  0
LINE
  8
0
 10
-25.7279
 20
-13.0449
 11
-25.7865
 21
-13.1317
  0
LINE
  8
0
 10
-25.7865
 20
-13.1317
 11
-25.8509
 21
-13.2142
  0
LINE
  8
0
 10
-25.8509
 20
-13.2142
 11
-25.921
 21
-13.292
  0
LINE
  8
0
 10
-25.921
 20
-13.292
 11
-25.9963
 21
-13.3647
  0
LINE
  8
0
 10
-25.9963
 20
-13.3647
 11
-26.0765
 21
-13.432
  0
LINE
  8
0
 10
-26.0765
 20
-13.432
 11
-26.1612
 21
-13.4936
  0
LINE
  8
0
 10
-26.1612
 20
-13.4936
 11
-26.25
 21
-13.549
  0
LINE
  8
0
 10
-26.25
 20
-13.549
 11
-26.3424
 21
-13.5982
  0
LINE
  8
0
 10
-26.3424
 20
-13.5982
 11
-26.4381
 21
-13.6408
  0
LINE
  8
0
 10
-26.4381
 20
-13.6408
 11
-26.5365
 21
-13.6766
  0
LINE
  8
0
 10
-26.5365
 20
-13.6766
 11
-26.6371
 21
-13.7054
  0
LINE
  8
0
 10
-26.6371
 20
-13.7054
 11
-26.7395
 21
-13.7272
  0
LINE
  8
0
 10
-26.7395
 20
-13.7272
 11
-26.8432
 21
-13.7418
  0
LINE
  8
0
 10
-26.8432
 20
-13.7418
 11
-26.9476
 21
-13.7491
  0
LINE
  8
0
 10
-26.9476
 20
-13.7491
 11
-27.0523
 21
-13.7491
  0
LINE
  8
0
 10
26.9476
 20
-13.7491
 11
26.8432
 21
-13.7418
  0
LINE
  8
0
 10
26.8432
 20
-13.7418
 11
26.7395
 21
-13.7272
  0
LINE
  8
0
 10
26.7395
 20
-13.7272
 11
26.6371
 21
-13.7054
  0
LINE
  8
0
 10
26.6371
 20
-13.7054
 11
26.5365
 21
-13.6766
  0
LINE
  8
0
 10
26.5365
 20
-13.6766
 11
26.4381
 21
-13.6408
  0
LINE
  8
0
 10
26.4381
 20
-13.6408
 11
26.3424
 21
-13.5982
  0
LINE
  8
0
 10
26.3424
 20
-13.5982
 11
26.25
 21
-13.549
  0
LINE
  8
0
 10
26.25
 20
-13.549
 11
26.1612
 21
-13.4936
  0
LINE
  8
0
 10
26.1612
 20
-13.4936
 11
26.0765
 21
-13.432
  0
LINE
  8
0
 10
26.0765
 20
-13.432
 11
25.9963
 21
-13.3647
  0
LINE
  8
0
 10
25.9963
 20
-13.3647
 11
25.921
 21
-13.292
  0
LINE
  8
0
 10
25.921
 20
-13.292
 11
25.8509
 21
-13.2142
  0
LINE
  8
0
 10
25.8509
 20
-13.2142
 11
25.7865
 21
-13.1317
  0
LINE
  8
0
 10
25.7865
 20
-13.1317
 11
25.7279
 21
-13.0449
  0
LINE
  8
0
 10
25.7279
 20
-13.0449
 11
25.6756
 21
-12.9542
  0
LINE
  8
0
 10
25.6756
 20
-12.9542
 11
25.6297
 21
-12.8601
  0
LINE
  8
0
 10
25.6297
 20
-12.8601
 11
25.5905
 21
-12.763
  0
LINE
  8
0
 10
25.5905
 20
-12.763
 11
25.5581
 21
-12.6635
  0
LINE
  8
0
 10
25.5581
 20
-12.6635
 11
25.5328
 21
-12.5619
  0
LINE
  8
0
 10
25.5328
 20
-12.5619
 11
25.5146
 21
-12.4588
  0
LINE
  8
0
 10
25.5146
 20
-12.4588
 11
25.5036
 21
-12.3546
  0
LINE
  8
0
 10
25.5036
 20
-12.3546
 11
25.5
 21
-12.25
  0
LINE
  8
0
 10
25.5
 20
-12.25
 11
25.5036
 21
-12.1454
  0
LINE
  8
0
 10
25.5036
 20
-12.1454
 11
25.5146
 21
-12.0412
  0
LINE
  8
0
 10
25.5146
 20
-12.0412
 11
25.5328
 21
-11.9381
  0
LINE
  8
0
 10
25.5328
 20
-11.9381
 11
25.5581
 21
-11.8365
  0
LINE
  8
0
 10
25.5581
 20
-11.8365
 11
25.5905
 21
-11.737
  0
LINE
  8
0
 10
25.5905
 20
-11.737
 11
25.6297
 21
-11.6399
  0
LINE
  8
0
 10
25.6297
 20
-11.6399
 11
25.6756
 21
-11.5458
  0
LINE
  8
0
 10
25.6756
 20
-11.5458
 11
25.7279
 21
-11.4551
  0
LINE
  8
0
 10
25.7279
 20
-11.4551
 11
25.7865
 21
-11.3683
  0
LINE
  8
0
 10
25.7865
 20
-11.3683
 11
25.8509
 21
-11.2858
  0
LINE
  8
0
 10
25.8509
 20
-11.2858
 11
25.921
 21
-11.208
  0
LINE
  8
0
 10
25.921
 20
-11.208
 11
25.9963
 21
-11.1353
  0
LINE
  8
0
 10
25.9963
 20
-11.1353
 11
26.0765
 21
-11.068
  0
LINE
  8
0
 10
26.0765
 20
-11.068
 11
26.1612
 21
-11.0065
  0
LINE
  8
0
 10
26.1612
 20
-11.0065
 11
26.25
 21
-10.951
  0
LINE
  8
0
 10
26.25
 20
-10.951
 11
26.3424
 21
-10.9018
  0
LINE
  8
0
 10
26.3424
 20
-10.9018
 11
26.4381
 21
-10.8592
  0
LINE
  8
0
 10
26.4381
 20
-10.8592
 11
26.5365
 21
-10.8234
  0
LINE
  8
0
 10
26.5365
 20
-10.8234
 11
26.6371
 21
-10.7946
  0
LINE
  8
0
 10
26.6371
 20
-10.7946
 11
26.7395
 21
-10.7728
  0
LINE
  8
0
 10
26.7395
 20
-10.7728
 11
26.8432
 21
-10.7582
  0
LINE
  8
0
 10
26.8432
 20
-10.7582
 11
26.9476
 21
-10.7509
  0
LINE
  8
0
 10
26.9476
 20
-10.7509
 11
27.0523
 21
-10.7509
  0
LINE
  8
0
 10
27.0523
 20
-10.7509
 11
27.1568
 21
-10.7582
  0
LINE
  8
0
 10
27.1568
 20
-10.7582
 11
27.2605
 21
-10.7728
  0
LINE
  8
0
 10
27.2605
 20
-10.7728
 11
27.3629
 21
-10.7946
  0
LINE
  8
0
 10
27.3629
 20
-10.7946
 11
27.4635
 21
-10.8234
  0
LINE
  8
0
 10
27.4635
 20
-10.8234
 11
27.5619
 21
-10.8592
  0
LINE
  8
0
 10
27.5619
 20
-10.8592
 11
27.6575
 21
-10.9018
  0
LINE
  8
0
 10
27.6575
 20
-10.9018
 11
27.75
 21
-10.951
  0
LINE
  8
0
 10
27.75
 20
-10.951
 11
27.8388
 21
-11.0065
  0
LINE
  8
0
 10
27.8388
 20
-11.0065
 11
27.9235
 21
-11.068
  0
LINE
  8
0
 10
27.9235
 20
-11.068
 11
28.0037
 21
-11.1353
  0
LINE
  8
0
 10
28.0037
 20
-11.1353
 11
28.079
 21
-11.208
  0
LINE
  8
0
 10
28.079
 20
-11.208
 11
28.1491
 21
-11.2858
  0
LINE
  8
0
 10
28.1491
 20
-11.2858
 11
28.2135
 21
-11.3683
  0
LINE
  8
0
 10
28.2135
 20
-11.3683
 11
28.2721
 21
-11.4551
  0
LINE
  8
0
 10
28.2721
 20
-11.4551
 11
28.3244
 21
-11.5458
  0
LINE
  8
0
 10
28.3244
 20
-11.5458
 11
28.3703
 21
-11.6399
  0
LINE
  8
0
 10
28.3703
 20
-11.6399
 11
28.4095
 21
-11.737
  0
LINE
  8
0
 10
28.4095
 20
-11.737
 11
28.4419
 21
-11.8365
  0
LINE
  8
0
 10
28.4419
 20
-11.8365
 11
28.4672
 21
-11.9381
  0
LINE
  8
0
 10
28.4672
 20
-11.9381
 11
28.4854
 21
-12.0412
  0
LINE
  8
0
 10
28.4854
 20
-12.0412
 11
28.4963
 21
-12.1454
  0
LINE
  8
0
 10
28.4963
 20
-12.1454
 11
28.5
 21
-12.25
  0
LINE
  8
0
 10
28.5
 20
-12.25
 11
28.4963
 21
-12.3546
  0
LINE
  8
0
 10
28.4963
 20
-12.3546
 11
28.4854
 21
-12.4588
  0
LINE
  8
0
 10
28.4854
 20
-12.4588
 11
28.4672
 21
-12.5619
  0
LINE
  8
0
 10
28.4672
 20
-12.5619
 11
28.4419
 21
-12.6635
  0
LINE
  8
0
 10
28.4419
 20
-12.6635
 11
28.4095
 21
-12.763
  0
LINE
  8
0
 10
28.4095
 20
-12.763
 11
28.3703
 21
-12.8601
  0
LINE
  8
0
 10
28.3703
 20
-12.8601
 11
28.3244
 21
-12.9542
  0
LINE
  8
0
 10
28.3244
 20
-12.9542
 11
28.2721
 21
-13.0449
  0
LINE
  8
0
 10
28.2721
 20
-13.0449
 11
28.2135
 21
-13.1317
  0
LINE
  8
0
 10
28.2135
 20
-13.1317
 11
28.1491
 21
-13.2142
  0
LINE
  8
0
 10
28.1491
 20
-13.2142
 11
28.079
 21
-13.292
  0
LINE
  8
0
 10
28.079
 20
-13.292
 11
28.0037
 21
-13.3647
  0
LINE
  8
0
 10
28.0037
 20
-13.3647
 11
27.9235
 21
-13.432
  0
LINE
  8
0
 10
27.9235
 20
-13.432
 11
27.8388
 21
-13.4936
  0
LINE
  8
0
 10
27.8388
 20
-13.4936
 11
27.75
 21
-13.549
  0
LINE
  8
0
 10
27.75
 20
-13.549
 11
27.6575
 21
-13.5982
  0
LINE
  8
0
 10
27.6575
 20
-13.5982
 11
27.5619
 21
-13.6408
  0
LINE
  8
0
 10
27.5619
 20
-13.6408
 11
27.4635
 21
-13.6766
  0
LINE
  8
0
 10
27.4635
 20
-13.6766
 11
27.3629
 21
-13.7054
  0
LINE
  8
0
 10
27.3629
 20
-13.7054
 11
27.2605
 21
-13.7272
  0
LINE
  8
0
 10
27.2605
 20
-13.7272
 11
27.1568
 21
-13.7418
  0
LINE
  8
0
 10
27.1568
 20
-13.7418
 11
27.0523
 21
-13.7491
  0
LINE
  8
0
 10
27.0523
 20
-13.7491
 11
26.9476
 21
-13.7491
  0
LINE
  8
0
 10
-0.610733
 20
-47.4893
 11
-1.82924
 21
-47.4041
  0
LINE
  8
0
 10
-1.82924
 20
-47.4041
 11
-3.03883
 21
-47.2341
  0
LINE
  8
0
 10
-3.03883
 20
-47.2341
 11
-4.23363
 21
-46.9802
  0
LINE
  8
0
 10
-4.23363
 20
-46.9802
 11
-5.40779
 21
-46.6435
  0
LINE
  8
0
 10
-5.40779
 20
-46.6435
 11
-6.5556
 21
-46.2257
  0
LINE
  8
0
 10
-6.5556
 20
-46.2257
 11
-7.67149
 21
-45.7289
  0
LINE
  8
0
 10
-7.67149
 20
-45.7289
 11
-8.75
 21
-45.1554
  0
LINE
  8
0
 10
-8.75
 20
-45.1554
 11
-9.78587
 21
-44.5081
  0
LINE
  8
0
 10
-9.78587
 20
-44.5081
 11
-10.7741
 21
-43.7902
  0
LINE
  8
0
 10
-10.7741
 20
-43.7902
 11
-11.7098
 21
-43.005
  0
LINE
  8
0
 10
-11.7098
 20
-43.005
 11
-12.5884
 21
-42.1565
  0
LINE
  8
0
 10
-12.5884
 20
-42.1565
 11
-13.4058
 21
-41.2488
  0
LINE
  8
0
 10
-13.4058
 20
-41.2488
 11
-14.1578
 21
-40.2862
  0
LINE
  8
0
 10
-14.1578
 20
-40.2862
 11
-14.8408
 21
-39.2736
  0
LINE
  8
0
 10
-14.8408
 20
-39.2736
 11
-15.4516
 21
-38.2157
  0
LINE
  8
0
 10
-15.4516
 20
-38.2157
 11
-15.987
 21
-37.1179
  0
LINE
  8
0
 10
-15.987
 20
-37.1179
 11
-16.4446
 21
-35.9854
  0
LINE
  8
0
 10
-16.4446
 20
-35.9854
 11
-16.8221
 21
-34.8236
  0
LINE
  8
0
 10
-16.8221
 20
-34.8236
 11
-17.1176
 21
-33.6384
  0
LINE
  8
0
 10
-17.1176
 20
-33.6384
 11
-17.3297
 21
-32.4355
  0
LINE
  8
0
 10
-17.3297
 20
-32.4355
 11
-17.4574
 21
-31.2207
  0
LINE
  8
0
 10
-17.4574
 20
-31.2207
 11
-17.5
 21
-30
  0
LINE
  8
0
 10
-17.5
 20
-30
 11
-17.4574
 21
-28.7793
  0
LINE
  8
0
 10
-17.4574
 20
-28.7793
 11
-17.3297
 21
-27.5645
  0
LINE
  8
0
 10
-17.3297
 20
-27.5645
 11
-17.1176
 21
-26.3616
  0
LINE
  8
0
 10
-17.1176
 20
-26.3616
 11
-16.8221
 21
-25.1764
  0
LINE
  8
0
 10
-16.8221
 20
-25.1764
 11
-16.4446
 21
-24.0146
  0
LINE
  8
0
 10
-16.4446
 20
-24.0146
 11
-15.987
 21
-22.8821
  0
LINE
  8
0
 10
-15.987
 20
-22.8821
 11
-15.4516
 21
-21.7843
  0
LINE
  8
0
 10
-15.4516
 20
-21.7843
 11
-14.8408
 21
-20.7264
  0
LINE
  8
0
 10
-14.8408
 20
-20.7264
 11
-14.1578
 21
-19.7138
  0
LINE
  8
0
 10
-14.1578
 20
-19.7138
 11
-13.4058
 21
-18.7512
  0
LINE
  8
0
 10
-13.4058
 20
-18.7512
 11
-12.5884
 21
-17.8435
  0
LINE
  8
0
 10
-12.5884
 20
-17.8435
 11
-11.7098
 21
-16.995
  0
LINE
  8
0
 10
-11.7098
 20
-16.995
 11
-10.7741
 21
-16.2098
  0
LINE
  8
0
 10
-10.7741
 20
-16.2098
 11
-9.78587
 21
-15.4919
  0
LINE
  8
0
 10
-9.78587
 20
-15.4919
 11
-8.74998
 21
-14.8446
  0
LINE
  8
0
 10
-8.74998
 20
-14.8446
 11
-7.67149
 21
-14.2711
  0
LINE
  8
0
 10
-7.67149
 20
-14.2711
 11
-6.5556
 21
-13.7743
  0
LINE
  8
0
 10
-6.5556
 20
-13.7743
 11
-5.40779
 21
-13.3565
  0
LINE
  8
0
 10
-5.40779
 20
-13.3565
 11
-4.23363
 21
-13.0198
  0
LINE
  8
0
 10
-4.23363
 20
-13.0198
 11
-3.03883
 21
-12.7659
  0
LINE
  8
0
 10
-3.03883
 20
-12.7659
 11
-1.82924
 21
-12.5959
  0
LINE
  8
0
 10
-1.82924
 20
-12.5959
 11
-0.610733
 21
-12.5107
  0
LINE
  8
0
 10
-0.610733
 20
-12.5107
 11
0.610733
 21
-12.5107
  0
LINE
  8
0
 10
0.610733
 20
-12.5107
 11
1.82924
 21
-12.5959
  0
LINE
  8
0
 10
1.82924
 20
-12.5959
 11
3.03883
 21
-12.7659
  0
LINE
  8
0
 10
3.03883
 20
-12.7659
 11
4.23363
 21
-13.0198
  0
LINE
  8
0
 10
4.23363
 20
-13.0198
 11
5.40779
 21
-13.3565
  0
LINE
  8
0
 10
5.40779
 20
-13.3565
 11
6.5556
 21
-13.7743
  0
LINE
  8
0
 10
6.5556
 20
-13.7743
 11
7.67149
 21
-14.2711
  0
LINE
  8
0
 10
7.67149
 20
-14.2711
 11
8.75
 21
-14.8446
  0
LINE
  8
0
 10
8.75
 20
-14.8446
 11
9.78587
 21
-15.4919
  0
LINE
  8
0
 10
9.78587
 20
-15.4919
 11
10.7741
 21
-16.2098
  0
LINE
  8
0
 10
10.7741
 20
-16.2098
 11
11.7098
 21
-16.995
  0
LINE
  8
0
 10
11.7098
 20
-16.995
 11
12.5884
 21
-17.8435
  0
LINE
  8
0
 10
12.5884
 20
-17.8435
 11
13.4058
 21
-18.7512
  0
LINE
  8
0
 10
13.4058
 20
-18.7512
 11
14.1578
 21
-19.7138
  0
LINE
  8
0
 10
14.1578
 20
-19.7138
 11
14.8408
 21
-20.7264
  0
LINE
  8
0
 10
14.8408
 20
-20.7264
 11
15.4516
 21
-21.7843
  0
LINE
  8
0
 10
15.4516
 20
-21.7843
 11
15.987
 21
-22.8821
  0
LINE
  8
0
 10
15.987
 20
-22.8821
 11
16.4446
 21
-24.0146
  0
LINE
  8
0
 10
16.4446
 20
-24.0146
 11
16.8221
 21
-25.1764
  0
LINE
  8
0
 10
16.8221
 20
-25.1764
 11
17.1176
 21
-26.3616
  0
LINE
  8
0
 10
17.1176
 20
-26.3616
 11
17.3297
 21
-27.5645
  0
LINE
  8
0
 10
17.3297
 20
-27.5645
 11
17.4574
 21
-28.7793
  0
LINE
  8
0
 10
17.4574
 20
-28.7793
 11
17.5
 21
-30
  0
LINE
  8
0
 10
17.5
 20
-30
 11
17.4574
 21
-31.2207
  0
LINE
  8
0
 10
17.4574
 20
-31.2207
 11
17.3297
 21
-32.4355
  0
LINE
  8
0
 10
17.3297
 20
-32.4355
 11
17.1176
 21
-33.6384
  0
LINE
  8
0
 10
17.1176
 20
-33.6384
 11
16.8221
 21
-34.8236
  0
LINE
  8
0
 10
16.8221
 20
-34.8236
 11
16.4446
 21
-35.9854
  0
LINE
  8
0
 10
16.4446
 20
-35.9854
 11
15.987
 21
-37.1179
  0
LINE
  8
0
 10
15.987
 20
-37.1179
 11
15.4516
 21
-38.2157
  0
LINE
  8
0
 10
15.4516
 20
-38.2157
 11
14.8408
 21
-39.2736
  0
LINE
  8
0
 10
14.8408
 20
-39.2736
 11
14.1578
 21
-40.2862
  0
LINE
  8
0
 10
14.1578
 20
-40.2862
 11
13.4058
 21
-41.2488
  0
LINE
  8
0
 10
13.4058
 20
-41.2488
 11
12.5884
 21
-42.1565
  0
LINE
  8
0
 10
12.5884
 20
-42.1565
 11
11.7098
 21
-43.005
  0
LINE
  8
0
 10
11.7098
 20
-43.005
 11
10.7741
 21
-43.7902
  0
LINE
  8
0
 10
10.7741
 20
-43.7902
 11
9.78587
 21
-44.5081
  0
LINE
  8
0
 10
9.78587
 20
-44.5081
 11
8.75
 21
-45.1554
  0
LINE
  8
0
 10
8.75
 20
-45.1554
 11
7.67149
 21
-45.7289
  0
LINE
  8
0
 10
7.67149
 20
-45.7289
 11
6.5556
 21
-46.2257
  0
LINE
  8
0
 10
6.5556
 20
-46.2257
 11
5.40779
 21
-46.6435
  0
LINE
  8
0
 10
5.40779
 20
-46.6435
 11
4.23363
 21
-46.9802
  0
LINE
  8
0
 10
4.23363
 20
-46.9802
 11
3.03883
 21
-47.2341
  0
LINE
  8
0
 10
3.03883
 20
-47.2341
 11
1.82924
 21
-47.4041
  0
LINE
  8
0
 10
1.82924
 20
-47.4041
 11
0.610733
 21
-47.4893
  0
LINE
  8
0
 10
0.610733
 20
-47.4893
 11
-0.610733
 21
-47.4893
  0
LINE
  8
0
 10
36.9302
 20
-31.9988
 11
36.7909
 21
-31.989
  0
LINE
  8
0
 10
36.7909
 20
-31.989
 11
36.6527
 21
-31.9696
  0
LINE
  8
0
 10
36.6527
 20
-31.9696
 11
36.5161
 21
-31.9406
  0
LINE
  8
0
 10
36.5161
 20
-31.9406
 11
36.382
 21
-31.9021
  0
LINE
  8
0
 10
36.382
 20
-31.9021
 11
36.2508
 21
-31.8544
  0
LINE
  8
0
 10
36.2508
 20
-31.8544
 11
36.1232
 21
-31.7976
  0
LINE
  8
0
 10
36.1232
 20
-31.7976
 11
36
 21
-31.732
  0
LINE
  8
0
 10
36
 20
-31.732
 11
35.8816
 21
-31.6581
  0
LINE
  8
0
 10
35.8816
 20
-31.6581
 11
35.7687
 21
-31.576
  0
LINE
  8
0
 10
35.7687
 20
-31.576
 11
35.6617
 21
-31.4863
  0
LINE
  8
0
 10
35.6617
 20
-31.4863
 11
35.5613
 21
-31.3893
  0
LINE
  8
0
 10
35.5613
 20
-31.3893
 11
35.4679
 21
-31.2856
  0
LINE
  8
0
 10
35.4679
 20
-31.2856
 11
35.382
 21
-31.1756
  0
LINE
  8
0
 10
35.382
 20
-31.1756
 11
35.3039
 21
-31.0598
  0
LINE
  8
0
 10
35.3039
 20
-31.0598
 11
35.2341
 21
-30.9389
  0
LINE
  8
0
 10
35.2341
 20
-30.9389
 11
35.1729
 21
-30.8135
  0
LINE
  8
0
 10
35.1729
 20
-30.8135
 11
35.1206
 21
-30.684
  0
LINE
  8
0
 10
35.1206
 20
-30.684
 11
35.0775
 21
-30.5513
  0
LINE
  8
0
 10
35.0775
 20
-30.5513
 11
35.0437
 21
-30.4158
  0
LINE
  8
0
 10
35.0437
 20
-30.4158
 11
35.0195
 21
-30.2783
  0
LINE
  8
0
 10
35.0195
 20
-30.2783
 11
35.0049
 21
-30.1395
  0
LINE
  8
0
 10
35.0049
 20
-30.1395
 11
35
 21
-30
  0
LINE
  8
0
 10
35
 20
-30
 11
35.0049
 21
-29.8605
  0
LINE
  8
0
 10
35.0049
 20
-29.8605
 11
35.0195
 21
-29.7217
  0
LINE
  8
0
 10
35.0195
 20
-29.7217
 11
35.0437
 21
-29.5842
  0
LINE
  8
0
 10
35.0437
 20
-29.5842
 11
35.0775
 21
-29.4487
  0
LINE
  8
0
 10
35.0775
 20
-29.4487
 11
35.1206
 21
-29.316
  0
LINE
  8
0
 10
35.1206
 20
-29.316
 11
35.1729
 21
-29.1865
  0
LINE
  8
0
 10
35.1729
 20
-29.1865
 11
35.2341
 21
-29.0611
  0
LINE
  8
0
 10
35.2341
 20
-29.0611
 11
35.3039
 21
-28.9402
  0
LINE
  8
0
 10
35.3039
 20
-28.9402
 11
35.382
 21
-28.8244
  0
LINE
  8
0
 10
35.382
 20
-28.8244
 11
35.4679
 21
-28.7144
  0
LINE
  8
0
 10
35.4679
 20
-28.7144
 11
35.5613
 21
-28.6107
  0
LINE
  8
0
 10
35.5613
 20
-28.6107
 11
35.6617
 21
-28.5137
  0
LINE
  8
0
 10
35.6617
 20
-28.5137
 11
35.7687
 21
-28.424
  0
LINE
  8
0
 10
35.7687
 20
-28.424
 11
35.8816
 21
-28.3419
  0
LINE
  8
0
 10
35.8816
 20
-28.3419
 11
36
 21
-28.268
  0
LINE
  8
0
 10
36
 20
-28.268
 11
36.1232
 21
-28.2024
  0
LINE
  8
0
 10
36.1232
 20
-28.2024
 11
36.2508
 21
-28.1456
  0
LINE
  8
0
 10
36.2508
 20
-28.1456
 11
36.382
 21
-28.0979
  0
LINE
  8
0
 10
36.382
 20
-28.0979
 11
36.5161
 21
-28.0594
  0
LINE
  8
0
 10
36.5161
 20
-28.0594
 11
36.6527
 21
-28.0304
  0
LINE
  8
0
 10
36.6527
 20
-28.0304
 11
36.7909
 21
-28.011
  0
LINE
  8
0
 10
36.7909
 20
-28.011
 11
36.9302
 21
-28.0012
  0
LINE
  8
0
 10
36.9302
 20
-28.0012
 11
37.0698
 21
-28.0012
  0
LINE
  8
0
 10
37.0698
 20
-28.0012
 11
37.209
 21
-28.011
  0
LINE
  8
0
 10
37.209
 20
-28.011
 11
37.3473
 21
-28.0304
  0
LINE
  8
0
 10
37.3473
 20
-28.0304
 11
37.4838
 21
-28.0594
  0
LINE
  8
0
 10
37.4838
 20
-28.0594
 11
37.618
 21
-28.0979
  0
LINE
  8
0
 10
37.618
 20
-28.0979
 11
37.7492
 21
-28.1456
  0
LINE
  8
0
 10
37.7492
 20
-28.1456
 11
37.8767
 21
-28.2024
  0
LINE
  8
0
 10
37.8767
 20
-28.2024
 11
38
 21
-28.268
  0
LINE
  8
0
 10
38
 20
-28.268
 11
38.1184
 21
-28.3419
  0
LINE
  8
0
 10
38.1184
 20
-28.3419
 11
38.2313
 21
-28.424
  0
LINE
  8
0
 10
38.2313
 20
-28.424
 11
38.3383
 21
-28.5137
  0
LINE
  8
0
 10
38.3383
 20
-28.5137
 11
38.4387
 21
-28.6107
  0
LINE
  8
0
 10
38.4387
 20
-28.6107
 11
38.5321
 21
-28.7144
  0
LINE
  8
0
 10
38.5321
 20
-28.7144
 11
38.618
 21
-28.8244
  0
LINE
  8
0
 10
38.618
 20
-28.8244
 11
38.6961
 21
-28.9402
  0
LINE
  8
0
 10
38.6961
 20
-28.9402
 11
38.7659
 21
-29.0611
  0
LINE
  8
0
 10
38.7659
 20
-29.0611
 11
38.8271
 21
-29.1865
  0
LINE
  8
0
 10
38.8271
 20
-29.1865
 11
38.8794
 21
-29.316
  0
LINE
  8
0
 10
38.8794
 20
-29.316
 11
38.9225
 21
-29.4487
  0
LINE
  8
0
 10
38.9225
 20
-29.4487
 11
38.9563
 21
-29.5842
  0
LINE
  8
0
 10
38.9563
 20
-29.5842
 11
38.9805
 21
-29.7217
  0
LINE
  8
0
 10
38.9805
 20
-29.7217
 11
38.9951
 21
-29.8605
  0
LINE
  8
0
 10
38.9951
 20
-29.8605
 11
39
 21
-30
  0
LINE
  8
0
 10
39
 20
-30
 11
38.9951
 21
-30.1395
  0
LINE
  8
0
 10
38.9951
 20
-30.1395
 11
38.9805
 21
-30.2783
  0
LINE
  8
0
 10
38.9805
 20
-30.2783
 11
38.9563
 21
-30.4158
  0
LINE
  8
0
 10
38.9563
 20
-30.4158
 11
38.9225
 21
-30.5513
  0
LINE
  8
0
 10
38.9225
 20
-30.5513
 11
38.8794
 21
-30.684
  0
LINE
  8
0
 10
38.8794
 20
-30.684
 11
38.8271
 21
-30.8135
  0
LINE
  8
0
 10
38.8271
 20
-30.8135
 11
38.7659
 21
-30.9389
  0
LINE
  8
0
 10
38.7659
 20
-30.9389
 11
38.6961
 21
-31.0598
  0
LINE
  8
0
 10
38.6961
 20
-31.0598
 11
38.618
 21
-31.1756
  0
LINE
  8
0
 10
38.618
 20
-31.1756
 11
38.5321
 21
-31.2856
  0
LINE
  8
0
 10
38.5321
 20
-31.2856
 11
38.4387
 21
-31.3893
  0
LINE
  8
0
 10
38.4387
 20
-31.3893
 11
38.3383
 21
-31.4863
  0
LINE
  8
0
 10
38.3383
 20
-31.4863
 11
38.2313
 21
-31.576
  0
LINE
  8
0
 10
38.2313
 20
-31.576
 11
38.1184
 21
-31.6581
  0
LINE
  8
0
 10
38.1184
 20
-31.6581
 11
38
 21
-31.732
  0
LINE
  8
0
 10
38
 20
-31.732
 11
37.8767
 21
-31.7976
  0
LINE
  8
0
 10
37.8767
 20
-31.7976
 11
37.7492
 21
-31.8544
  0
LINE
  8
0
 10
37.7492
 20
-31.8544
 11
37.618
 21
-31.9021
  0
LINE
  8
0
 10
37.618
 20
-31.9021
 11
37.4838
 21
-31.9406
  0
LINE
  8
0
 10
37.4838
 20
-31.9406
 11
37.3473
 21
-31.9696
  0
LINE
  8
0
 10
37.3473
 20
-31.9696
 11
37.209
 21
-31.989
  0
LINE
  8
0
 10
37.209
 20
-31.989
 11
37.0698
 21
-31.9988
  0
LINE
  8
0
 10
37.0698
 20
-31.9988
 11
36.9302
 21
-31.9988
  0
LINE
  8
0
 10
-37.0698
 20
-31.9988
 11
-37.209
 21
-31.989
  0
LINE
  8
0
 10
-37.209
 20
-31.989
 11
-37.3473
 21
-31.9696
  0
LINE
  8
0
 10
-37.3473
 20
-31.9696
 11
-37.4838
 21
-31.9406
  0
LINE
  8
0
 10
-37.4838
 20
-31.9406
 11
-37.618
 21
-31.9021
  0
LINE
  8
0
 10
-37.618
 20
-31.9021
 11
-37.7492
 21
-31.8544
  0
LINE
  8
0
 10
-37.7492
 20
-31.8544
 11
-37.8767
 21
-31.7976
  0
LINE
  8
0
 10
-37.8767
 20
-31.7976
 11
-38
 21
-31.732
  0
LINE
  8
0
 10
-38
 20
-31.732
 11
-38.1184
 21
-31.6581
  0
LINE
  8
0
 10
-38.1184
 20
-31.6581
 11
-38.2313
 21
-31.576
  0
LINE
  8
0
 10
-38.2313
 20
-31.576
 11
-38.3383
 21
-31.4863
  0
LINE
  8
0
 10
-38.3383
 20
-31.4863
 11
-38.4387
 21
-31.3893
  0
LINE
  8
0
 10
-38.4387
 20
-31.3893
 11
-38.5321
 21
-31.2856
  0
LINE
  8
0
 10
-38.5321
 20
-31.2856
 11
-38.618
 21
-31.1756
  0
LINE
  8
0
 10
-38.618
 20
-31.1756
 11
-38.6961
 21
-31.0598
  0
LINE
  8
0
 10
-38.6961
 20
-31.0598
 11
-38.7659
 21
-30.9389
  0
LINE
  8
0
 10
-38.7659
 20
-30.9389
 11
-38.8271
 21
-30.8135
  0
LINE
  8
0
 10
-38.8271
 20
-30.8135
 11
-38.8794
 21
-30.684
  0
LINE
  8
0
 10
-38.8794
 20
-30.684
 11
-38.9225
 21
-30.5513
  0
LINE
  8
0
 10
-38.9225
 20
-30.5513
 11
-38.9563
 21
-30.4158
  0
LINE
  8
0
 10
-38.9563
 20
-30.4158
 11
-38.9805
 21
-30.2783
  0
LINE
  8
0
 10
-38.9805
 20
-30.2783
 11
-38.9951
 21
-30.1395
  0
LINE
  8
0
 10
-38.9951
 20
-30.1395
 11
-39
 21
-30
  0
LINE
  8
0
 10
-39
 20
-30
 11
-38.9951
 21
-29.8605
  0
LINE
  8
0
 10
-38.9951
 20
-29.8605
 11
-38.9805
 21
-29.7217
  0
LINE
  8
0
 10
-38.9805
 20
-29.7217
 11
-38.9563
 21
-29.5842
  0
LINE
  8
0
 10
-38.9563
 20
-29.5842
 11
-38.9225
 21
-29.4487
  0
LINE
  8
0
 10
-38.9225
 20
-29.4487
 11
-38.8794
 21
-29.316
  0
LINE
  8
0
 10
-38.8794
 20
-29.316
 11
-38.8271
 21
-29.1865
  0
LINE
  8
0
 10
-38.8271
 20
-29.1865
 11
-38.7659
 21
-29.0611
  0
LINE
  8
0
 10
-38.7659
 20
-29.0611
 11
-38.6961
 21
-28.9402
  0
LINE
  8
0
 10
-38.6961
 20
-28.9402
 11
-38.618
 21
-28.8244
  0
LINE
  8
0
 10
-38.618
 20
-28.8244
 11
-38.5321
 21
-28.7144
  0
LINE
  8
0
 10
-38.5321
 20
-28.7144
 11
-38.4387
 21
-28.6107
  0
LINE
  8
0
 10
-38.4387
 20
-28.6107
 11
-38.3383
 21
-28.5137
  0
LINE
  8
0
 10
-38.3383
 20
-28.5137
 11
-38.2313
 21
-28.424
  0
LINE
  8
0
 10
-38.2313
 20
-28.424
 11
-38.1184
 21
-28.3419
  0
LINE
  8
0
 10
-38.1184
 20
-28.3419
 11
-38
 21
-28.268
  0
LINE
  8
0
 10
-38
 20
-28.268
 11
-37.8767
 21
-28.2024
  0
LINE
  8
0
 10
-37.8767
 20
-28.2024
 11
-37.7492
 21
-28.1456
  0
LINE
  8
0
 10
-37.7492
 20
-28.1456
 11
-37.618
 21
-28.0979
  0
LINE
  8
0
 10
-37.618
 20
-28.0979
 11
-37.4838
 21
-28.0594
  0
LINE
  8
0
 10
-37.4838
 20
-28.0594
 11
-37.3473
 21
-28.0304
  0
LINE
  8
0
 10
-37.3473
 20
-28.0304
 11
-37.209
 21
-28.011
  0
LINE
  8
0
 10
-37.209
 20
-28.011
 11
-37.0698
 21
-28.0012
  0
LINE
  8
0
 10
-37.0698
 20
-28.0012
 11
-36.9302
 21
-28.0012
  0
LINE
  8
0
 10
-36.9302
 20
-28.0012
 11
-36.7909
 21
-28.011
  0
LINE
  8
0
 10
-36.7909
 20
-28.011
 11
-36.6527
 21
-28.0304
  0
LINE
  8
0
 10
-36.6527
 20
-28.0304
 11
-36.5161
 21
-28.0594
  0
LINE
  8
0
 10
-36.5161
 20
-28.0594
 11
-36.382
 21
-28.0979
  0
LINE
  8
0
 10
-36.382
 20
-28.0979
 11
-36.2508
 21
-28.1456
  0
LINE
  8
0
 10
-36.2508
 20
-28.1456
 11
-36.1232
 21
-28.2024
  0
LINE
  8
0
 10
-36.1232
 20
-28.2024
 11
-36
 21
-28.268
  0
LINE
  8
0
 10
-36
 20
-28.268
 11
-35.8816
 21
-28.3419
  0
LINE
  8
0
 10
-35.8816
 20
-28.3419
 11
-35.7687
 21
-28.424
  0
LINE
  8
0
 10
-35.7687
 20
-28.424
 11
-35.6617
 21
-28.5137
  0
LINE
  8
0
 10
-35.6617
 20
-28.5137
 11
-35.5613
 21
-28.6107
  0
LINE
  8
0
 10
-35.5613
 20
-28.6107
 11
-35.4679
 21
-28.7144
  0
LINE
  8
0
 10
-35.4679
 20
-28.7144
 11
-35.382
 21
-28.8244
  0
LINE
  8
0
 10
-35.382
 20
-28.8244
 11
-35.3039
 21
-28.9402
  0
LINE
  8
0
 10
-35.3039
 20
-28.9402
 11
-35.2341
 21
-29.0611
  0
LINE
  8
0
 10
-35.2341
 20
-29.0611
 11
-35.1729
 21
-29.1865
  0
LINE
  8
0
 10
-35.1729
 20
-29.1865
 11
-35.1206
 21
-29.316
  0
LINE
  8
0
 10
-35.1206
 20
-29.316
 11
-35.0775
 21
-29.4487
  0
LINE
  8
0
 10
-35.0775
 20
-29.4487
 11
-35.0437
 21
-29.5842
  0
LINE
  8
0
 10
-35.0437
 20
-29.5842
 11
-35.0195
 21
-29.7217
  0
LINE
  8
0
 10
-35.0195
 20
-29.7217
 11
-35.0049
 21
-29.8605
  0
LINE
  8
0
 10
-35.0049
 20
-29.8605
 11
-35
 21
-30
  0
LINE
  8
0
 10
-35
 20
-30
 11
-35.0049
 21
-30.1395
  0
LINE
  8
0
 10
-35.0049
 20
-30.1395
 11
-35.0195
 21
-30.2783
  0
LINE
  8
0
 10
-35.0195
 20
-30.2783
 11
-35.0437
 21
-30.4158
  0
LINE
  8
0
 10
-35.0437
 20
-30.4158
 11
-35.0775
 21
-30.5513
  0
LINE
  8
0
 10
-35.0775
 20
-30.5513
 11
-35.1206
 21
-30.684
  0
LINE
  8
0
 10
-35.1206
 20
-30.684
 11
-35.1729
 21
-30.8135
  0
LINE
  8
0
 10
-35.1729
 20
-30.8135
 11
-35.2341
 21
-30.9389
  0
LINE
  8
0
 10
-35.2341
 20
-30.9389
 11
-35.3039
 21
-31.0598
  0
LINE
  8
0
 10
-35.3039
 20
-31.0598
 11
-35.382
 21
-31.1756
  0
LINE
  8
0
 10
-35.382
 20
-31.1756
 11
-35.4679
 21
-31.2856
  0
LINE
  8
0
 10
-35.4679
 20
-31.2856
 11
-35.5613
 21
-31.3893
  0
LINE
  8
0
 10
-35.5613
 20
-31.3893
 11
-35.6617
 21
-31.4863
  0
LINE
  8
0
 10
-35.6617
 20
-31.4863
 11
-35.7687
 21
-31.576
  0
LINE
  8
0
 10
-35.7687
 20
-31.576
 11
-35.8816
 21
-31.6581
  0
LINE
  8
0
 10
-35.8816
 20
-31.6581
 11
-36
 21
-31.732
  0
LINE
  8
0
 10
-36
 20
-31.732
 11
-36.1232
 21
-31.7976
  0
LINE
  8
0
 10
-36.1232
 20
-31.7976
 11
-36.2508
 21
-31.8544
  0
LINE
  8
0
 10
-36.2508
 20
-31.8544
 11
-36.382
 21
-31.9021
  0
LINE
  8
0
 10
-36.382
 20
-31.9021
 11
-36.5161
 21
-31.9406
  0
LINE
  8
0
 10
-36.5161
 20
-31.9406
 11
-36.6527
 21
-31.9696
  0
LINE
  8
0
 10
-36.6527
 20
-31.9696
 11
-36.7909
 21
-31.989
  0
LINE
  8
0
 10
-36.7909
 20
-31.989
 11
-36.9302
 21
-31.9988
  0
LINE
  8
0
 10
-36.9302
 20
-31.9988
 11
-37.0698
 21
-31.9988
  0
LINE
  8
0
 10
26.9476
 20
-49.2491
 11
26.8432
 21
-49.2418
  0
LINE
  8
0
 10
26.8432
 20
-49.2418
 11
26.7395
 21
-49.2272
  0
LINE
  8
0
 10
26.7395
 20
-49.2272
 11
26.6371
 21
-49.2054
  0
LINE
  8
0
 10
26.6371
 20
-49.2054
 11
26.5365
 21
-49.1766
  0
LINE
  8
0
 10
26.5365
 20
-49.1766
 11
26.4381
 21
-49.1408
  0
LINE
  8
0
 10
26.4381
 20
-49.1408
 11
26.3424
 21
-49.0982
  0
LINE
  8
0
 10
26.3424
 20
-49.0982
 11
26.25
 21
-49.049
  0
LINE
  8
0
 10
26.25
 20
-49.049
 11
26.1612
 21
-48.9935
  0
LINE
  8
0
 10
26.1612
 20
-48.9935
 11
26.0765
 21
-48.932
  0
LINE
  8
0
 10
26.0765
 20
-48.932
 11
25.9963
 21
-48.8647
  0
LINE
  8
0
 10
25.9963
 20
-48.8647
 11
25.921
 21
-48.792
  0
LINE
  8
0
 10
25.921
 20
-48.792
 11
25.8509
 21
-48.7142
  0
LINE
  8
0
 10
25.8509
 20
-48.7142
 11
25.7865
 21
-48.6317
  0
LINE
  8
0
 10
25.7865
 20
-48.6317
 11
25.7279
 21
-48.5449
  0
LINE
  8
0
 10
25.7279
 20
-48.5449
 11
25.6756
 21
-48.4542
  0
LINE
  8
0
 10
25.6756
 20
-48.4542
 11
25.6297
 21
-48.3601
  0
LINE
  8
0
 10
25.6297
 20
-48.3601
 11
25.5905
 21
-48.263
  0
LINE
  8
0
 10
25.5905
 20
-48.263
 11
25.5581
 21
-48.1635
  0
LINE
  8
0
 10
25.5581
 20
-48.1635
 11
25.5328
 21
-48.0619
  0
LINE
  8
0
 10
25.5328
 20
-48.0619
 11
25.5146
 21
-47.9588
  0
LINE
  8
0
 10
25.5146
 20
-47.9588
 11
25.5036
 21
-47.8546
  0
LINE
  8
0
 10
25.5036
 20
-47.8546
 11
25.5
 21
-47.75
  0
LINE
  8
0
 10
25.5
 20
-47.75
 11
25.5036
 21
-47.6454
  0
LINE
  8
0
 10
25.5036
 20
-47.6454
 11
25.5146
 21
-47.5412
  0
LINE
  8
0
 10
25.5146
 20
-47.5412
 11
25.5328
 21
-47.4381
  0
LINE
  8
0
 10
25.5328
 20
-47.4381
 11
25.5581
 21
-47.3365
  0
LINE
  8
0
 10
25.5581
 20
-47.3365
 11
25.5905
 21
-47.237
  0
LINE
  8
0
 10
25.5905
 20
-47.237
 11
25.6297
 21
-47.1399
  0
LINE
  8
0
 10
25.6297
 20
-47.1399
 11
25.6756
 21
-47.0458
  0
LINE
  8
0
 10
25.6756
 20
-47.0458
 11
25.7279
 21
-46.9551
  0
LINE
  8
0
 10
25.7279
 20
-46.9551
 11
25.7865
 21
-46.8683
  0
LINE
  8
0
 10
25.7865
 20
-46.8683
 11
25.8509
 21
-46.7858
  0
LINE
  8
0
 10
25.8509
 20
-46.7858
 11
25.921
 21
-46.708
  0
LINE
  8
0
 10
25.921
 20
-46.708
 11
25.9963
 21
-46.6353
  0
LINE
  8
0
 10
25.9963
 20
-46.6353
 11
26.0765
 21
-46.568
  0
LINE
  8
0
 10
26.0765
 20
-46.568
 11
26.1612
 21
-46.5064
  0
LINE
  8
0
 10
26.1612
 20
-46.5064
 11
26.25
 21
-46.451
  0
LINE
  8
0
 10
26.25
 20
-46.451
 11
26.3424
 21
-46.4018
  0
LINE
  8
0
 10
26.3424
 20
-46.4018
 11
26.4381
 21
-46.3592
  0
LINE
  8
0
 10
26.4381
 20
-46.3592
 11
26.5365
 21
-46.3234
  0
LINE
  8
0
 10
26.5365
 20
-46.3234
 11
26.6371
 21
-46.2946
  0
LINE
  8
0
 10
26.6371
 20
-46.2946
 11
26.7395
 21
-46.2728
  0
LINE
  8
0
 10
26.7395
 20
-46.2728
 11
26.8432
 21
-46.2582
  0
LINE
  8
0
 10
26.8432
 20
-46.2582
 11
26.9476
 21
-46.2509
  0
LINE
  8
0
 10
26.9476
 20
-46.2509
 11
27.0523
 21
-46.2509
  0
LINE
  8
0
 10
27.0523
 20
-46.2509
 11
27.1568
 21
-46.2582
  0
LINE
  8
0
 10
27.1568
 20
-46.2582
 11
27.2605
 21
-46.2728
  0
LINE
  8
0
 10
27.2605
 20
-46.2728
 11
27.3629
 21
-46.2946
  0
LINE
  8
0
 10
27.3629
 20
-46.2946
 11
27.4635
 21
-46.3234
  0
LINE
  8
0
 10
27.4635
 20
-46.3234
 11
27.5619
 21
-46.3592
  0
LINE
  8
0
 10
27.5619
 20
-46.3592
 11
27.6575
 21
-46.4018
  0
LINE
  8
0
 10
27.6575
 20
-46.4018
 11
27.75
 21
-46.451
  0
LINE
  8
0
 10
27.75
 20
-46.451
 11
27.8388
 21
-46.5064
  0
LINE
  8
0
 10
27.8388
 20
-46.5064
 11
27.9235
 21
-46.568
  0
LINE
  8
0
 10
27.9235
 20
-46.568
 11
28.0037
 21
-46.6353
  0
LINE
  8
0
 10
28.0037
 20
-46.6353
 11
28.079
 21
-46.708
  0
LINE
  8
0
 10
28.079
 20
-46.708
 11
28.1491
 21
-46.7858
  0
LINE
  8
0
 10
28.1491
 20
-46.7858
 11
28.2135
 21
-46.8683
  0
LINE
  8
0
 10
28.2135
 20
-46.8683
 11
28.2721
 21
-46.9551
  0
LINE
  8
0
 10
28.2721
 20
-46.9551
 11
28.3244
 21
-47.0458
  0
LINE
  8
0
 10
28.3244
 20
-47.0458
 11
28.3703
 21
-47.1399
  0
LINE
  8
0
 10
28.3703
 20
-47.1399
 11
28.4095
 21
-47.237
  0
LINE
  8
0
 10
28.4095
 20
-47.237
 11
28.4419
 21
-47.3365
  0
LINE
  8
0
 10
28.4419
 20
-47.3365
 11
28.4672
 21
-47.4381
  0
LINE
  8
0
 10
28.4672
 20
-47.4381
 11
28.4854
 21
-47.5412
  0
LINE
  8
0
 10
28.4854
 20
-47.5412
 11
28.4963
 21
-47.6454
  0
LINE
  8
0
 10
28.4963
 20
-47.6454
 11
28.5
 21
-47.75
  0
LINE
  8
0
 10
28.5
 20
-47.75
 11
28.4963
 21
-47.8546
  0
LINE
  8
0
 10
28.4963
 20
-47.8546
 11
28.4854
 21
-47.9588
  0
LINE
  8
0
 10
28.4854
 20
-47.9588
 11
28.4672
 21
-48.0619
  0
LINE
  8
0
 10
28.4672
 20
-48.0619
 11
28.4419
 21
-48.1635
  0
LINE
  8
0
 10
28.4419
 20
-48.1635
 11
28.4095
 21
-48.263
  0
LINE
  8
0
 10
28.4095
 20
-48.263
 11
28.3703
 21
-48.3601
  0
LINE
  8
0
 10
28.3703
 20
-48.3601
 11
28.3244
 21
-48.4542
  0
LINE
  8
0
 10
28.3244
 20
-48.4542
 11
28.2721
 21
-48.5449
  0
LINE
  8
0
 10
28.2721
 20
-48.5449
 11
28.2135
 21
-48.6317
  0
LINE
  8
0
 10
28.2135
 20
-48.6317
 11
28.1491
 21
-48.7142
  0
LINE
  8
0
 10
28.1491
 20
-48.7142
 11
28.079
 21
-48.792
  0
LINE
  8
0
 10
28.079
 20
-48.792
 11
28.0037
 21
-48.8647
  0
LINE
  8
0
 10
28.0037
 20
-48.8647
 11
27.9235
 21
-48.932
  0
LINE
  8
0
 10
27.9235
 20
-48.932
 11
27.8388
 21
-48.9935
  0
LINE
  8
0
 10
27.8388
 20
-48.9935
 11
27.75
 21
-49.049
  0
LINE
  8
0
 10
27.75
 20
-49.049
 11
27.6575
 21
-49.0982
  0
LINE
  8
0
 10
27.6575
 20
-49.0982
 11
27.5619
 21
-49.1408
  0
LINE
  8
0
 10
27.5619
 20
-49.1408
 11
27.4635
 21
-49.1766
  0
LINE
  8
0
 10
27.4635
 20
-49.1766
 11
27.3629
 21
-49.2054
  0
LINE
  8
0
 10
27.3629
 20
-49.2054
 11
27.2605
 21
-49.2272
  0
LINE
  8
0
 10
27.2605
 20
-49.2272
 11
27.1568
 21
-49.2418
  0
LINE
  8
0
 10
27.1568
 20
-49.2418
 11
27.0523
 21
-49.2491
  0
LINE
  8
0
 10
27.0523
 20
-49.2491
 11
26.9476
 21
-49.2491
  0
LINE
  8
0
 10
-27.0523
 20
-49.2491
 11
-27.1568
 21
-49.2418
  0
LINE
  8
0
 10
-27.1568
 20
-49.2418
 11
-27.2605
 21
-49.2272
  0
LINE
  8
0
 10
-27.2605
 20
-49.2272
 11
-27.3629
 21
-49.2054
  0
LINE
  8
0
 10
-27.3629
 20
-49.2054
 11
-27.4635
 21
-49.1766
  0
LINE
  8
0
 10
-27.4635
 20
-49.1766
 11
-27.5619
 21
-49.1408
  0
LINE
  8
0
 10
-27.5619
 20
-49.1408
 11
-27.6575
 21
-49.0982
  0
LINE
  8
0
 10
-27.6575
 20
-49.0982
 11
-27.75
 21
-49.049
  0
LINE
  8
0
 10
-27.75
 20
-49.049
 11
-27.8388
 21
-48.9935
  0
LINE
  8
0
 10
-27.8388
 20
-48.9935
 11
-27.9235
 21
-48.932
  0
LINE
  8
0
 10
-27.9235
 20
-48.932
 11
-28.0037
 21
-48.8647
  0
LINE
  8
0
 10
-28.0037
 20
-48.8647
 11
-28.079
 21
-48.792
  0
LINE
  8
0
 10
-28.079
 20
-48.792
 11
-28.1491
 21
-48.7142
  0
LINE
  8
0
 10
-28.1491
 20
-48.7142
 11
-28.2135
 21
-48.6317
  0
LINE
  8
0
 10
-28.2135
 20
-48.6317
 11
-28.2721
 21
-48.5449
  0
LINE
  8
0
 10
-28.2721
 20
-48.5449
 11
-28.3244
 21
-48.4542
  0
LINE
  8
0
 10
-28.3244
 20
-48.4542
 11
-28.3703
 21
-48.3601
  0
LINE
  8
0
 10
-28.3703
 20
-48.3601
 11
-28.4095
 21
-48.263
  0
LINE
  8
0
 10
-28.4095
 20
-48.263
 11
-28.4419
 21
-48.1635
  0
LINE
  8
0
 10
-28.4419
 20
-48.1635
 11
-28.4672
 21
-48.0619
  0
LINE
  8
0
 10
-28.4672
 20
-48.0619
 11
-28.4854
 21
-47.9588
  0
LINE
  8
0
 10
-28.4854
 20
-47.9588
 11
-28.4963
 21
-47.8546
  0
LINE
  8
0
 10
-28.4963
 20
-47.8546
 11
-28.5
 21
-47.75
  0
LINE
  8
0
 10
-28.5
 20
-47.75
 11
-28.4963
 21
-47.6454
  0
LINE
  8
0
 10
-28.4963
 20
-47.6454
 11
-28.4854
 21
-47.5412
  0
LINE
  8
0
 10
-28.4854
 20
-47.5412
 11
-28.4672
 21
-47.4381
  0
LINE
  8
0
 10
-28.4672
 20
-47.4381
 11
-28.4419
 21
-47.3365
  0
LINE
  8
0
 10
-28.4419
 20
-47.3365
 11
-28.4095
 21
-47.237
  0
LINE
  8
0
 10
-28.4095
 20
-47.237
 11
-28.3703
 21
-47.1399
  0
LINE
  8
0
 10
-28.3703
 20
-47.1399
 11
-28.3244
 21
-47.0458
  0
LINE
  8
0
 10
-28.3244
 20
-47.0458
 11
-28.2721
 21
-46.9551
  0
LINE
  8
0
 10
-28.2721
 20
-46.9551
 11
-28.2135
 21
-46.8683
  0
LINE
  8
0
 10
-28.2135
 20
-46.8683
 11
-28.1491
 21
-46.7858
  0
LINE
  8
0
 10
-28.1491
 20
-46.7858
 11
-28.079
 21
-46.708
  0
LINE
  8
0
 10
-28.079
 20
-46.708
 11
-28.0037
 21
-46.6353
  0
LINE
  8
0
 10
-28.0037
 20
-46.6353
 11
-27.9235
 21
-46.568
  0
LINE
  8
0
 10
-27.9235
 20
-46.568
 11
-27.8388
 21
-46.5064
  0
LINE
  8
0
 10
-27.8388
 20
-46.5064
 11
-27.75
 21
-46.451
  0
LINE
  8
0
 10
-27.75
 20
-46.451
 11
-27.6575
 21
-46.4018
  0
LINE
  8
0
 10
-27.6575
 20
-46.4018
 11
-27.5619
 21
-46.3592
  0
LINE
  8
0
 10
-27.5619
 20
-46.3592
 11
-27.4635
 21
-46.3234
  0
LINE
  8
0
 10
-27.4635
 20
-46.3234
 11
-27.3629
 21
-46.2946
  0
LINE
  8
0
 10
-27.3629
 20
-46.2946
 11
-27.2605
 21
-46.2728
  0
LINE
  8
0
 10
-27.2605
 20
-46.2728
 11
-27.1568
 21
-46.2582
  0
LINE
  8
0
 10
-27.1568
 20
-46.2582
 11
-27.0523
 21
-46.2509
  0
LINE
  8
0
 10
-27.0523
 20
-46.2509
 11
-26.9476
 21
-46.2509
  0
LINE
  8
0
 10
-26.9476
 20
-46.2509
 11
-26.8432
 21
-46.2582
  0
LINE
  8
0
 10
-26.8432
 20
-46.2582
 11
-26.7395
 21
-46.2728
  0
LINE
  8
0
 10
-26.7395
 20
-46.2728
 11
-26.6371
 21
-46.2946
  0
LINE
  8
0
 10
-26.6371
 20
-46.2946
 11
-26.5365
 21
-46.3234
  0
LINE
  8
0
 10
-26.5365
 20
-46.3234
 11
-26.4381
 21
-46.3592
  0
LINE
  8
0
 10
-26.4381
 20
-46.3592
 11
-26.3424
 21
-46.4018
  0
LINE
  8
0
 10
-26.3424
 20
-46.4018
 11
-26.25
 21
-46.451
  0
LINE
  8
0
 10
-26.25
 20
-46.451
 11
-26.1612
 21
-46.5064
  0
LINE
  8
0
 10
-26.1612
 20
-46.5064
 11
-26.0765
 21
-46.568
  0
LINE
  8
0
 10
-26.0765
 20
-46.568
 11
-25.9963
 21
-46.6353
  0
LINE
  8
0
 10
-25.9963
 20
-46.6353
 11
-25.921
 21
-46.708
  0
LINE
  8
0
 10
-25.921
 20
-46.708
 11
-25.8509
 21
-46.7858
  0
LINE
  8
0
 10
-25.8509
 20
-46.7858
 11
-25.7865
 21
-46.8683
  0
LINE
  8
0
 10
-25.7865
 20
-46.8683
 11
-25.7279
 21
-46.9551
  0
LINE
  8
0
 10
-25.7279
 20
-46.9551
 11
-25.6756
 21
-47.0458
  0
LINE
  8
0
 10
-25.6756
 20
-47.0458
 11
-25.6297
 21
-47.1399
  0
LINE
  8
0
 10
-25.6297
 20
-47.1399
 11
-25.5905
 21
-47.237
  0
LINE
  8
0
 10
-25.5905
 20
-47.237
 11
-25.5581
 21
-47.3365
  0
LINE
  8
0
 10
-25.5581
 20
-47.3365
 11
-25.5328
 21
-47.4381
  0
LINE
  8
0
 10
-25.5328
 20
-47.4381
 11
-25.5146
 21
-47.5412
  0
LINE
  8
0
 10
-25.5146
 20
-47.5412
 11
-25.5036
 21
-47.6454
  0
LINE
  8
0
 10
-25.5036
 20
-47.6454
 11
-25.5
 21
-47.75
  0
LINE
  8
0
 10
-25.5
 20
-47.75
 11
-25.5036
 21
-47.8546
  0
LINE
  8
0
 10
-25.5036
 20
-47.8546
 11
-25.5146
 21
-47.9588
  0
LINE
  8
0
 10
-25.5146
 20
-47.9588
 11
-25.5328
 21
-48.0619
  0
LINE
  8
0
 10
-25.5328
 20
-48.0619
 11
-25.5581
 21
-48.1635
  0
LINE
  8
0
 10
-25.5581
 20
-48.1635
 11
-25.5905
 21
-48.263
  0
LINE
  8
0
 10
-25.5905
 20
-48.263
 11
-25.6297
 21
-48.3601
  0
LINE
  8
0
 10
-25.6297
 20
-48.3601
 11
-25.6756
 21
-48.4542
  0
LINE
  8
0
 10
-25.6756
 20
-48.4542
 11
-25.7279
 21
-48.5449
  0
LINE
  8
0
 10
-25.7279
 20
-48.5449
 11
-25.7865
 21
-48.6317
  0
LINE
  8
0
 10
-25.7865
 20
-48.6317
 11
-25.8509
 21
-48.7142
  0
LINE
  8
0
 10
-25.8509
 20
-48.7142
 11
-25.921
 21
-48.792
  0
LINE
  8
0
 10
-25.921
 20
-48.792
 11
-25.9963
 21
-48.8647
  0
LINE
  8
0
 10
-25.9963
 20
-48.8647
 11
-26.0765
 21
-48.932
  0
LINE
  8
0
 10
-26.0765
 20
-48.932
 11
-26.1612
 21
-48.9935
  0
LINE
  8
0
 10
-26.1612
 20
-48.9935
 11
-26.25
 21
-49.049
  0
LINE
  8
0
 10
-26.25
 20
-49.049
 11
-26.3424
 21
-49.0982
  0
LINE
  8
0
 10
-26.3424
 20
-49.0982
 11
-26.4381
 21
-49.1408
  0
LINE
  8
0
 10
-26.4381
 20
-49.1408
 11
-26.5365
 21
-49.1766
  0
LINE
  8
0
 10
-26.5365
 20
-49.1766
 11
-26.6371
 21
-49.2054
  0
LINE
  8
0
 10
-26.6371
 20
-49.2054
 11
-26.7395
 21
-49.2272
  0
LINE
  8
0
 10
-26.7395
 20
-49.2272
 11
-26.8432
 21
-49.2418
  0
LINE
  8
0
 10
-26.8432
 20
-49.2418
 11
-26.9476
 21
-49.2491
  0
LINE
  8
0
 10
-26.9476
 20
-49.2491
 11
-27.0523
 21
-49.2491
  0
LINE
  8
0
 10
69.777
 20
-46.9069
 11
70.952
 21
-46.7417
  0
LINE
  8
0
 10
70.952
 20
-46.7417
 11
72.1127
 21
-46.495
  0
LINE
  8
0
 10
72.1127
 20
-46.495
 11
73.2533
 21
-46.168
  0
LINE
  8
0
 10
73.2533
 20
-46.168
 11
74.3683
 21
-45.7621
  0
LINE
  8
0
 10
74.3683
 20
-45.7621
 11
75.4523
 21
-45.2795
  0
LINE
  8
0
 10
75.4523
 20
-45.2795
 11
76.5
 21
-44.7224
  0
LINE
  8
0
 10
76.5
 20
-44.7224
 11
77.5063
 21
-44.0936
  0
LINE
  8
0
 10
77.5063
 20
-44.0936
 11
78.4662
 21
-43.3962
  0
LINE
  8
0
 10
78.4662
 20
-43.3962
 11
79.3752
 21
-42.6335
  0
LINE
  8
0
 10
79.3752
 20
-42.6335
 11
80.2288
 21
-41.8092
  0
LINE
  8
0
 10
80.2288
 20
-41.8092
 11
81.0228
 21
-40.9274
  0
LINE
  8
0
 10
81.0228
 20
-40.9274
 11
81.7533
 21
-39.9923
  0
LINE
  8
0
 10
81.7533
 20
-39.9923
 11
82.4168
 21
-39.0086
  0
LINE
  8
0
 10
82.4168
 20
-39.0086
 11
83.0101
 21
-37.981
  0
LINE
  8
0
 10
83.0101
 20
-37.981
 11
83.5303
 21
-36.9145
  0
LINE
  8
0
 10
83.5303
 20
-36.9145
 11
83.9748
 21
-35.8143
  0
LINE
  8
0
 10
83.9748
 20
-35.8143
 11
84.3414
 21
-34.6858
  0
LINE
  8
0
 10
84.3414
 20
-34.6858
 11
84.6285
 21
-33.5345
  0
LINE
  8
0
 10
84.6285
 20
-33.5345
 11
84.8345
 21
-32.3659
  0
LINE
  8
0
 10
84.8345
 20
-32.3659
 11
84.9586
 21
-31.1859
  0
LINE
  8
0
 10
84.9586
 20
-31.1859
 11
85
 21
-30
  0
LINE
  8
0
 10
85
 20
-30
 11
84.9586
 21
-28.8141
  0
LINE
  8
0
 10
84.9586
 20
-28.8141
 11
84.8345
 21
-27.6341
  0
LINE
  8
0
 10
84.8345
 20
-27.6341
 11
84.6285
 21
-26.4655
  0
LINE
  8
0
 10
84.6285
 20
-26.4655
 11
84.3414
 21
-25.3142
  0
LINE
  8
0
 10
84.3414
 20
-25.3142
 11
83.9748
 21
-24.1857
  0
LINE
  8
0
 10
83.9748
 20
-24.1857
 11
83.5303
 21
-23.0855
  0
LINE
  8
0
 10
83.5303
 20
-23.0855
 11
83.0101
 21
-22.019
  0
LINE
  8
0
 10
83.0101
 20
-22.019
 11
82.4168
 21
-20.9914
  0
LINE
  8
0
 10
82.4168
 20
-20.9914
 11
81.7533
 21
-20.0077
  0
LINE
  8
0
 10
81.7533
 20
-20.0077
 11
81.0228
 21
-19.0726
  0
LINE
  8
0
 10
81.0228
 20
-19.0726
 11
80.2288
 21
-18.1908
  0
LINE
  8
0
 10
80.2288
 20
-18.1908
 11
79.3752
 21
-17.3665
  0
LINE
  8
0
 10
79.3752
 20
-17.3665
 11
78.4662
 21
-16.6038
  0
LINE
  8
0
 10
78.4662
 20
-16.6038
 11
77.5063
 21
-15.9064
  0
LINE
  8
0
 10
77.5063
 20
-15.9064
 11
76.5
 21
-15.2776
  0
LINE
  8
0
 10
76.5
 20
-15.2776
 11
75.4523
 21
-14.7205
  0
LINE
  8
0
 10
75.4523
 20
-14.7205
 11
74.3683
 21
-14.2379
  0
LINE
  8
0
 10
74.3683
 20
-14.2379
 11
73.2533
 21
-13.832
  0
LINE
  8
0
 10
73.2533
 20
-13.832
 11
72.1127
 21
-13.505
  0
LINE
  8
0
 10
72.1127
 20
-13.505
 11
70.952
 21
-13.2583
  0
LINE
  8
0
 10
70.952
 20
-13.2583
 11
69.777
 21
-13.0931
  0
LINE
  8
0
 10
69.777
 20
-13.0931
 11
68.5933
 21
-13.0104
  0
LINE
  8
0
 10
68.5933
 20
-13.0104
 11
67.4067
 21
-13.0104
  0
LINE
  8
0
 10
67.4067
 20
-13.0104
 11
66.223
 21
-13.0931
  0
LINE
  8
0
 10
66.223
 20
-13.0931
 11
65.048
 21
-13.2583
  0
LINE
  8
0
 10
65.048
 20
-13.2583
 11
63.8873
 21
-13.505
  0
LINE
  8
0
 10
63.8873
 20
-13.505
 11
62.7467
 21
-13.832
  0
LINE
  8
0
 10
62.7467
 20
-13.832
 11
61.6317
 21
-14.2379
  0
LINE
  8
0
 10
61.6317
 20
-14.2379
 11
60.5477
 21
-14.7205
  0
LINE
  8
0
 10
60.5477
 20
-14.7205
 11
59.5
 21
-15.2776
  0
LINE
  8
0
 10
59.5
 20
-15.2776
 11
58.4937
 21
-15.9064
  0
LINE
  8
0
 10
58.4937
 20
-15.9064
 11
57.5338
 21
-16.6038
  0
LINE
  8
0
 10
57.5338
 20
-16.6038
 11
56.6248
 21
-17.3665
  0
LINE
  8
0
 10
56.6248
 20
-17.3665
 11
55.7712
 21
-18.1908
  0
LINE
  8
0
 10
55.7712
 20
-18.1908
 11
54.9772
 21
-19.0726
  0
LINE
  8
0
 10
54.9772
 20
-19.0726
 11
54.2467
 21
-20.0077
  0
LINE
  8
0
 10
54.2467
 20
-20.0077
 11
53.5832
 21
-20.9914
  0
LINE
  8
0
 10
53.5832
 20
-20.9914
 11
52.9899
 21
-22.019
  0
LINE
  8
0
 10
52.9899
 20
-22.019
 11
52.4697
 21
-23.0855
  0
LINE
  8
0
 10
52.4697
 20
-23.0855
 11
52.0252
 21
-24.1857
  0
LINE
  8
0
 10
52.0252
 20
-24.1857
 11
51.6586
 21
-25.3142
  0
LINE
  8
0
 10
51.6586
 20
-25.3142
 11
51.3715
 21
-26.4655
  0
LINE
  8
0
 10
51.3715
 20
-26.4655
 11
51.1655
 21
-27.6341
  0
LINE
  8
0
 10
51.1655
 20
-27.6341
 11
51.0414
 21
-28.8141
  0
LINE
  8
0
 10
51.0414
 20
-28.8141
 11
51
 21
-30
  0
LINE
  8
0
 10
51
 20
-30
 11
51.0414
 21
-31.1859
  0
LINE
  8
0
 10
51.0414
 20
-31.1859
 11
51.1655
 21
-32.3659
  0
LINE
  8
0
 10
51.1655
 20
-32.3659
 11
51.3715
 21
-33.5345
  0
LINE
  8
0
 10
51.3715
 20
-33.5345
 11
51.6586
 21
-34.6858
  0
LINE
  8
0
 10
51.6586
 20
-34.6858
 11
52.0252
 21
-35.8143
  0
LINE
  8
0
 10
52.0252
 20
-35.8143
 11
52.4697
 21
-36.9145
  0
LINE
  8
0
 10
52.4697
 20
-36.9145
 11
52.9899
 21
-37.981
  0
LINE
  8
0
 10
52.9899
 20
-37.981
 11
53.5832
 21
-39.0086
  0
LINE
  8
0
 10
53.5832
 20
-39.0086
 11
54.2467
 21
-39.9923
  0
LINE
  8
0
 10
54.2467
 20
-39.9923
 11
54.9772
 21
-40.9274
  0
LINE
  8
0
 10
54.9772
 20
-40.9274
 11
55.7712
 21
-41.8092
  0
LINE
  8
0
 10
55.7712
 20
-41.8092
 11
56.6248
 21
-42.6335
  0
LINE
  8
0
 10
56.6248
 20
-42.6335
 11
57.5338
 21
-43.3962
  0
LINE
  8
0
 10
57.5338
 20
-43.3962
 11
58.4937
 21
-44.0936
  0
LINE
  8
0
 10
58.4937
 20
-44.0936
 11
59.5
 21
-44.7224
  0
LINE
  8
0
 10
59.5
 20
-44.7224
 11
60.5477
 21
-45.2795
  0
LINE
  8
0
 10
60.5477
 20
-45.2795
 11
61.6317
 21
-45.7621
  0
LINE
  8
0
 10
61.6317
 20
-45.7621
 11
62.7467
 21
-46.168
  0
LINE
  8
0
 10
62.7467
 20
-46.168
 11
63.8873
 21
-46.495
  0
LINE
  8
0
 10
63.8873
 20
-46.495
 11
65.048
 21
-46.7417
  0
LINE
  8
0
 10
65.048
 20
-46.7417
 11
66.223
 21
-46.9069
  0
LINE
  8
0
 10
66.223
 20
-46.9069
 11
67.4067
 21
-46.9896
  0
LINE
  8
0
 10
67.4067
 20
-46.9896
 11
68.5933
 21
-46.9896
  0
LINE
  8
0
 10
68.5933
 20
-46.9896
 11
69.777
 21
-46.9069
  0
LINE
  8
0
 10
67.9128
 20
-32.4985
 11
67.7387
 21
-32.4863
  0
LINE
  8
0
 10
67.7387
 20
-32.4863
 11
67.5659
 21
-32.462
  0
LINE
  8
0
 10
67.5659
 20
-32.462
 11
67.3952
 21
-32.4257
  0
LINE
  8
0
 10
67.3952
 20
-32.4257
 11
67.2275
 21
-32.3776
  0
LINE
  8
0
 10
67.2275
 20
-32.3776
 11
67.0635
 21
-32.3179
  0
LINE
  8
0
 10
67.0635
 20
-32.3179
 11
66.9041
 21
-32.247
  0
LINE
  8
0
 10
66.9041
 20
-32.247
 11
66.75
 21
-32.1651
  0
LINE
  8
0
 10
66.75
 20
-32.1651
 11
66.602
 21
-32.0726
  0
LINE
  8
0
 10
66.602
 20
-32.0726
 11
66.4609
 21
-31.97
  0
LINE
  8
0
 10
66.4609
 20
-31.97
 11
66.3272
 21
-31.8578
  0
LINE
  8
0
 10
66.3272
 20
-31.8578
 11
66.2017
 21
-31.7366
  0
LINE
  8
0
 10
66.2017
 20
-31.7366
 11
66.0849
 21
-31.607
  0
LINE
  8
0
 10
66.0849
 20
-31.607
 11
65.9775
 21
-31.4695
  0
LINE
  8
0
 10
65.9775
 20
-31.4695
 11
65.8799
 21
-31.3248
  0
LINE
  8
0
 10
65.8799
 20
-31.3248
 11
65.7926
 21
-31.1737
  0
LINE
  8
0
 10
65.7926
 20
-31.1737
 11
65.7161
 21
-31.0168
  0
LINE
  8
0
 10
65.7161
 20
-31.0168
 11
65.6508
 21
-30.855
  0
LINE
  8
0
 10
65.6508
 20
-30.855
 11
65.5968
 21
-30.6891
  0
LINE
  8
0
 10
65.5968
 20
-30.6891
 11
65.5546
 21
-30.5198
  0
LINE
  8
0
 10
65.5546
 20
-30.5198
 11
65.5243
 21
-30.3479
  0
LINE
  8
0
 10
65.5243
 20
-30.3479
 11
65.5061
 21
-30.1744
  0
LINE
  8
0
 10
65.5061
 20
-30.1744
 11
65.5
 21
-30
  0
LINE
  8
0
 10
65.5
 20
-30
 11
65.5061
 21
-29.8256
  0
LINE
  8
0
 10
65.5061
 20
-29.8256
 11
65.5243
 21
-29.6521
  0
LINE
  8
0
 10
65.5243
 20
-29.6521
 11
65.5546
 21
-29.4802
  0
LINE
  8
0
 10
65.5546
 20
-29.4802
 11
65.5968
 21
-29.3109
  0
LINE
  8
0
 10
65.5968
 20
-29.3109
 11
65.6508
 21
-29.145
  0
LINE
  8
0
 10
65.6508
 20
-29.145
 11
65.7161
 21
-28.9832
  0
LINE
  8
0
 10
65.7161
 20
-28.9832
 11
65.7926
 21
-28.8263
  0
LINE
  8
0
 10
65.7926
 20
-28.8263
 11
65.8799
 21
-28.6752
  0
LINE
  8
0
 10
65.8799
 20
-28.6752
 11
65.9775
 21
-28.5305
  0
LINE
  8
0
 10
65.9775
 20
-28.5305
 11
66.0849
 21
-28.393
  0
LINE
  8
0
 10
66.0849
 20
-28.393
 11
66.2017
 21
-28.2634
  0
LINE
  8
0
 10
66.2017
 20
-28.2634
 11
66.3272
 21
-28.1422
  0
LINE
  8
0
 10
66.3272
 20
-28.1422
 11
66.4609
 21
-28.03
  0
LINE
  8
0
 10
66.4609
 20
-28.03
 11
66.602
 21
-27.9274
  0
LINE
  8
0
 10
66.602
 20
-27.9274
 11
66.75
 21
-27.8349
  0
LINE
  8
0
 10
66.75
 20
-27.8349
 11
66.9041
 21
-27.753
  0
LINE
  8
0
 10
66.9041
 20
-27.753
 11
67.0635
 21
-27.6821
  0
LINE
  8
0
 10
67.0635
 20
-27.6821
 11
67.2275
 21
-27.6224
  0
LINE
  8
0
 10
67.2275
 20
-27.6224
 11
67.3952
 21
-27.5743
  0
LINE
  8
0
 10
67.3952
 20
-27.5743
 11
67.5659
 21
-27.538
  0
LINE
  8
0
 10
67.5659
 20
-27.538
 11
67.7387
 21
-27.5137
  0
LINE
  8
0
 10
67.7387
 20
-27.5137
 11
67.9128
 21
-27.5015
  0
LINE
  8
0
 10
67.9128
 20
-27.5015
 11
68.0872
 21
-27.5015
  0
LINE
  8
0
 10
68.0872
 20
-27.5015
 11
68.2613
 21
-27.5137
  0
LINE
  8
0
 10
68.2613
 20
-27.5137
 11
68.4341
 21
-27.538
  0
LINE
  8
0
 10
68.4341
 20
-27.538
 11
68.6048
 21
-27.5743
  0
LINE
  8
0
 10
68.6048
 20
-27.5743
 11
68.7725
 21
-27.6224
  0
LINE
  8
0
 10
68.7725
 20
-27.6224
 11
68.9365
 21
-27.6821
  0
LINE
  8
0
 10
68.9365
 20
-27.6821
 11
69.0959
 21
-27.753
  0
LINE
  8
0
 10
69.0959
 20
-27.753
 11
69.25
 21
-27.8349
  0
LINE
  8
0
 10
69.25
 20
-27.8349
 11
69.398
 21
-27.9274
  0
LINE
  8
0
 10
69.398
 20
-27.9274
 11
69.5391
 21
-28.03
  0
LINE
  8
0
 10
69.5391
 20
-28.03
 11
69.6728
 21
-28.1422
  0
LINE
  8
0
 10
69.6728
 20
-28.1422
 11
69.7983
 21
-28.2634
  0
LINE
  8
0
 10
69.7983
 20
-28.2634
 11
69.9151
 21
-28.393
  0
LINE
  8
0
 10
69.9151
 20
-28.393
 11
70.0225
 21
-28.5305
  0
LINE
  8
0
 10
70.0225
 20
-28.5305
 11
70.1201
 21
-28.6752
  0
LINE
  8
0
 10
70.1201
 20
-28.6752
 11
70.2074
 21
-28.8263
  0
LINE
  8
0
 10
70.2074
 20
-28.8263
 11
70.2839
 21
-28.9832
  0
LINE
  8
0
 10
70.2839
 20
-28.9832
 11
70.3492
 21
-29.145
  0
LINE
  8
0
 10
70.3492
 20
-29.145
 11
70.4032
 21
-29.3109
  0
LINE
  8
0
 10
70.4032
 20
-29.3109
 11
70.4454
 21
-29.4802
  0
LINE
  8
0
 10
70.4454
 20
-29.4802
 11
70.4757
 21
-29.6521
  0
LINE
  8
0
 10
70.4757
 20
-29.6521
 11
70.4939
 21
-29.8256
  0
LINE
  8
0
 10
70.4939
 20
-29.8256
 11
70.5
 21
-30
  0
LINE
  8
0
 10
70.5
 20
-30
 11
70.4939
 21
-30.1744
  0
LINE
  8
0
 10
70.4939
 20
-30.1744
 11
70.4757
 21
-30.3479
  0
LINE
  8
0
 10
70.4757
 20
-30.3479
 11
70.4454
 21
-30.5198
  0
LINE
  8
0
 10
70.4454
 20
-30.5198
 11
70.4032
 21
-30.6891
  0
LINE
  8
0
 10
70.4032
 20
-30.6891
 11
70.3492
 21
-30.855
  0
LINE
  8
0
 10
70.3492
 20
-30.855
 11
70.2839
 21
-31.0168
  0
LINE
  8
0
 10
70.2839
 20
-31.0168
 11
70.2074
 21
-31.1737
  0
LINE
  8
0
 10
70.2074
 20
-31.1737
 11
70.1201
 21
-31.3248
  0
LINE
  8
0
 10
70.1201
 20
-31.3248
 11
70.0225
 21
-31.4695
  0
LINE
  8
0
 10
70.0225
 20
-31.4695
 11
69.9151
 21
-31.607
  0
LINE
  8
0
 10
69.9151
 20
-31.607
 11
69.7983
 21
-31.7366
  0
LINE
  8
0
 10
69.7983
 20
-31.7366
 11
69.6728
 21
-31.8578
  0
LINE
  8
0
 10
69.6728
 20
-31.8578
 11
69.5391
 21
-31.97
  0
LINE
  8
0
 10
69.5391
 20
-31.97
 11
69.398
 21
-32.0726
  0
LINE
  8
0
 10
69.398
 20
-32.0726
 11
69.25
 21
-32.1651
  0
LINE
  8
0
 10
69.25
 20
-32.1651
 11
69.0959
 21
-32.247
  0
LINE
  8
0
 10
69.0959
 20
-32.247
 11
68.9365
 21
-32.3179
  0
LINE
  8
0
 10
68.9365
 20
-32.3179
 11
68.7725
 21
-32.3776
  0
LINE
  8
0
 10
68.7725
 20
-32.3776
 11
68.6048
 21
-32.4257
  0
LINE
  8
0
 10
68.6048
 20
-32.4257
 11
68.4341
 21
-32.462
  0
LINE
  8
0
 10
68.4341
 20
-32.462
 11
68.2613
 21
-32.4863
  0
LINE
  8
0
 10
68.2613
 20
-32.4863
 11
68.0872
 21
-32.4985
  0
LINE
  8
0
 10
68.0872
 20
-32.4985
 11
67.9128
 21
-32.4985
  0
ENDSEC
  0
SECTION
  2
OBJECTS
  0
DICTIONARY
  0
ENDSEC
  0
EOF
