solid OpenSCAD_Model
  facet normal -1 0 0
    outer loop
      vertex 0 0 0
      vertex 0 -20 6
      vertex 0 0 6
    endloop
  endfacet
  facet normal -1 0 0
    outer loop
      vertex 0 -20 6
      vertex 0 -50 6
      vertex 0 -20 35
    endloop
  endfacet
  facet normal -1 0 0
    outer loop
      vertex 0 -68 0
      vertex 0 -20 6
      vertex 0 0 0
    endloop
  endfacet
  facet normal -1 -0 0
    outer loop
      vertex 0 -20 6
      vertex 0 -68 0
      vertex 0 -50 6
    endloop
  endfacet
  facet normal -1 -0 0
    outer loop
      vertex 0 -50 6
      vertex 0 -68 0
      vertex 0 -68 6
    endloop
  endfacet
  facet normal -1 0 0
    outer loop
      vertex 0 -20 35
      vertex 0 0 36
      vertex 0 -20 6
    endloop
  endfacet
  facet normal -1 -0 0
    outer loop
      vertex 0 0 36
      vertex 0 -20 35
      vertex 0 0 68
    endloop
  endfacet
  facet normal 0 1 0
    outer loop
      vertex 20 0 0
      vertex 50 0 6
      vertex 50 0 0
    endloop
  endfacet
  facet normal 0 1 0
    outer loop
      vertex 50 0 6
      vertex 20 0 0
      vertex 20 0 35
    endloop
  endfacet
  facet normal 0 0 1
    outer loop
      vertex 19.4387 -69.3893 6
      vertex 11.5307 -61.5307 6
      vertex 18.0698 -69.9988 6
    endloop
  endfacet
  facet normal -0 0 1
    outer loop
      vertex 10 -62.1648 6
      vertex 18.0698 -69.9988 6
      vertex 11.5307 -61.5307 6
    endloop
  endfacet
  facet normal 0 0 1
    outer loop
      vertex 1.9302 -69.9988 6
      vertex 10 -62.1648 6
      vertex 8.46927 -61.5307 6
    endloop
  endfacet
  facet normal 0 0 1
    outer loop
      vertex 10 -62.1648 6
      vertex 1.9302 -69.9988 6
      vertex 18.0698 -69.9988 6
    endloop
  endfacet
  facet normal 0 0 1
    outer loop
      vertex 0 -68 6
      vertex 8.46927 -61.5307 6
      vertex 7.83522 -60 6
    endloop
  endfacet
  facet normal 0 0 1
    outer loop
      vertex 70 -2 6
      vertex 61.5307 -8.46927 6
      vertex 62.1648 -10 6
    endloop
  endfacet
  facet normal 0 0 1
    outer loop
      vertex 68.0698 -0.00121784 6
      vertex 60 -7.83522 6
      vertex 61.5307 -8.46927 6
    endloop
  endfacet
  facet normal 0 0 1
    outer loop
      vertex 50 -0.000760046 6
      vertex 60 -7.83522 6
      vertex 68.0698 -0.00121784 6
    endloop
  endfacet
  facet normal 0 0 1
    outer loop
      vertex 58.4693 -8.46927 6
      vertex 50 -0.000760046 6
      vertex 57.8352 -10 6
    endloop
  endfacet
  facet normal 0 0 1
    outer loop
      vertex 60 -7.83522 6
      vertex 50 -0.000760046 6
      vertex 58.4693 -8.46927 6
    endloop
  endfacet
  facet normal 0 0 1
    outer loop
      vertex 68.0698 -0.00121784 6
      vertex 70 -2 6
      vertex 69.9951 -1.86049 6
    endloop
  endfacet
  facet normal 0 0 1
    outer loop
      vertex 70 -2 6
      vertex 62.1648 -10 6
      vertex 70 -18 6
    endloop
  endfacet
  facet normal 0 0 1
    outer loop
      vertex 68.0698 -0.00121784 6
      vertex 69.9951 -1.86049 6
      vertex 69.9805 -1.72165 6
    endloop
  endfacet
  facet normal -0 0 1
    outer loop
      vertex 61.5307 -11.5307 6
      vertex 70 -18 6
      vertex 62.1648 -10 6
    endloop
  endfacet
  facet normal 0 0 1
    outer loop
      vertex 68.0698 -0.00121784 6
      vertex 69.9805 -1.72165 6
      vertex 69.9563 -1.58418 6
    endloop
  endfacet
  facet normal 0 -0 1
    outer loop
      vertex 69.4387 -19.3893 6
      vertex 70 -18 6
      vertex 61.5307 -11.5307 6
    endloop
  endfacet
  facet normal 0 0 1
    outer loop
      vertex 68.0698 -0.00121784 6
      vertex 69.9563 -1.58418 6
      vertex 69.9225 -1.44872 6
    endloop
  endfacet
  facet normal 0 0 1
    outer loop
      vertex 70 -18 6
      vertex 69.4387 -19.3893 6
      vertex 69.9951 -18.1395 6
    endloop
  endfacet
  facet normal 0 0 1
    outer loop
      vertex 68.0698 -0.00121784 6
      vertex 69.9225 -1.44872 6
      vertex 69.8794 -1.31596 6
    endloop
  endfacet
  facet normal 0 0 1
    outer loop
      vertex 69.9951 -18.1395 6
      vertex 69.4387 -19.3893 6
      vertex 69.9805 -18.2783 6
    endloop
  endfacet
  facet normal 0 0 1
    outer loop
      vertex 68.0698 -0.00121784 6
      vertex 69.8794 -1.31596 6
      vertex 69.8271 -1.18653 6
    endloop
  endfacet
  facet normal 0 0 1
    outer loop
      vertex 69.9805 -18.2783 6
      vertex 69.4387 -19.3893 6
      vertex 69.9563 -18.4158 6
    endloop
  endfacet
  facet normal 0 0 1
    outer loop
      vertex 68.0698 -0.00121784 6
      vertex 69.8271 -1.18653 6
      vertex 69.7659 -1.06106 6
    endloop
  endfacet
  facet normal 0 0 1
    outer loop
      vertex 69.9563 -18.4158 6
      vertex 69.4387 -19.3893 6
      vertex 69.9225 -18.5513 6
    endloop
  endfacet
  facet normal 0 0 1
    outer loop
      vertex 68.0698 -0.00121784 6
      vertex 69.7659 -1.06106 6
      vertex 69.6961 -0.940161 6
    endloop
  endfacet
  facet normal 0 0 1
    outer loop
      vertex 69.9225 -18.5513 6
      vertex 69.4387 -19.3893 6
      vertex 69.8794 -18.684 6
    endloop
  endfacet
  facet normal 0 0 1
    outer loop
      vertex 68.0698 -0.00121784 6
      vertex 69.6961 -0.940161 6
      vertex 69.618 -0.824429 6
    endloop
  endfacet
  facet normal 0 0 1
    outer loop
      vertex 69.8794 -18.684 6
      vertex 69.4387 -19.3893 6
      vertex 69.8271 -18.8135 6
    endloop
  endfacet
  facet normal 0 0 1
    outer loop
      vertex 68.0698 -0.00121784 6
      vertex 69.618 -0.824429 6
      vertex 69.5321 -0.714424 6
    endloop
  endfacet
  facet normal 0 0 1
    outer loop
      vertex 69.8271 -18.8135 6
      vertex 69.4387 -19.3893 6
      vertex 69.7659 -18.9389 6
    endloop
  endfacet
  facet normal 0 0 1
    outer loop
      vertex 68.0698 -0.00121784 6
      vertex 69.5321 -0.714424 6
      vertex 69.4387 -0.610682 6
    endloop
  endfacet
  facet normal 0 0 1
    outer loop
      vertex 69.7659 -18.9389 6
      vertex 69.4387 -19.3893 6
      vertex 69.6961 -19.0598 6
    endloop
  endfacet
  facet normal 0 0 1
    outer loop
      vertex 68.0698 -0.00121784 6
      vertex 69.4387 -0.610682 6
      vertex 69.3383 -0.51371 6
    endloop
  endfacet
  facet normal 0 0 1
    outer loop
      vertex 68.0698 -0.00121784 6
      vertex 69.3383 -0.51371 6
      vertex 69.2313 -0.423978 6
    endloop
  endfacet
  facet normal 0 0 1
    outer loop
      vertex 68.0698 -0.00121784 6
      vertex 69.2313 -0.423978 6
      vertex 69.1184 -0.341925 6
    endloop
  endfacet
  facet normal 0 0 1
    outer loop
      vertex 68.0698 -0.00121784 6
      vertex 69.1184 -0.341925 6
      vertex 69 -0.267949 6
    endloop
  endfacet
  facet normal 0 0 1
    outer loop
      vertex 68.0698 -0.00121784 6
      vertex 69 -0.267949 6
      vertex 68.8767 -0.202412 6
    endloop
  endfacet
  facet normal 0 0 1
    outer loop
      vertex 68.0698 -0.00121784 6
      vertex 68.8767 -0.202412 6
      vertex 68.7492 -0.145632 6
    endloop
  endfacet
  facet normal 0 0 1
    outer loop
      vertex 68.0698 -0.00121784 6
      vertex 68.7492 -0.145632 6
      vertex 68.618 -0.0978861 6
    endloop
  endfacet
  facet normal 0 0 1
    outer loop
      vertex 68.0698 -0.00121784 6
      vertex 68.618 -0.0978861 6
      vertex 68.4838 -0.0594082 6
    endloop
  endfacet
  facet normal 0 0 1
    outer loop
      vertex 68.0698 -0.00121784 6
      vertex 68.4838 -0.0594082 6
      vertex 68.3473 -0.0303841 6
    endloop
  endfacet
  facet normal 0 0 1
    outer loop
      vertex 68.0698 -0.00121784 6
      vertex 68.3473 -0.0303841 6
      vertex 68.2091 -0.0109558 6
    endloop
  endfacet
  facet normal 0 0 1
    outer loop
      vertex 61.5307 -8.46927 6
      vertex 70 -2 6
      vertex 68.0698 -0.00121784 6
    endloop
  endfacet
  facet normal 0 0 1
    outer loop
      vertex 69.6961 -19.0598 6
      vertex 69.4387 -19.3893 6
      vertex 69.618 -19.1756 6
    endloop
  endfacet
  facet normal 0 0 1
    outer loop
      vertex 69.618 -19.1756 6
      vertex 69.4387 -19.3893 6
      vertex 69.5321 -19.2856 6
    endloop
  endfacet
  facet normal -0 0 1
    outer loop
      vertex 60 -12.1648 6
      vertex 69.4387 -19.3893 6
      vertex 61.5307 -11.5307 6
    endloop
  endfacet
  facet normal 0 0 1
    outer loop
      vertex 50 -20 6
      vertex 60 -12.1648 6
      vertex 58.4693 -11.5307 6
    endloop
  endfacet
  facet normal 0 0 1
    outer loop
      vertex 50 -20 6
      vertex 57.8352 -10 6
      vertex 50 -0.000760046 6
    endloop
  endfacet
  facet normal 0 0 1
    outer loop
      vertex 57.8352 -10 6
      vertex 50 -20 6
      vertex 58.4693 -11.5307 6
    endloop
  endfacet
  facet normal 0 0 1
    outer loop
      vertex 60 -12.1648 6
      vertex 50 -20 6
      vertex 69.4387 -19.3893 6
    endloop
  endfacet
  facet normal 0 0 1
    outer loop
      vertex 20 -50 6
      vertex 69.4387 -19.3893 6
      vertex 50 -20 6
    endloop
  endfacet
  facet normal -0 0 1
    outer loop
      vertex 20 -50 6
      vertex 19.4387 -69.3893 6
      vertex 69.4387 -19.3893 6
    endloop
  endfacet
  facet normal -0 0 1
    outer loop
      vertex 12.1648 -60 6
      vertex 19.4387 -69.3893 6
      vertex 20 -50 6
    endloop
  endfacet
  facet normal -0 0 1
    outer loop
      vertex 11.5307 -61.5307 6
      vertex 19.4387 -69.3893 6
      vertex 12.1648 -60 6
    endloop
  endfacet
  facet normal 0 0 1
    outer loop
      vertex 19.4387 -69.3893 6
      vertex 18.0698 -69.9988 6
      vertex 19.3383 -69.4863 6
    endloop
  endfacet
  facet normal 0 0 1
    outer loop
      vertex 19.3383 -69.4863 6
      vertex 18.0698 -69.9988 6
      vertex 19.2313 -69.576 6
    endloop
  endfacet
  facet normal 0 0 1
    outer loop
      vertex 19.2313 -69.576 6
      vertex 18.0698 -69.9988 6
      vertex 19.1184 -69.6581 6
    endloop
  endfacet
  facet normal 0 0 1
    outer loop
      vertex 19.1184 -69.6581 6
      vertex 18.0698 -69.9988 6
      vertex 19 -69.732 6
    endloop
  endfacet
  facet normal 0 0 1
    outer loop
      vertex 19 -69.732 6
      vertex 18.0698 -69.9988 6
      vertex 18.8767 -69.7976 6
    endloop
  endfacet
  facet normal 0 0 1
    outer loop
      vertex 18.8767 -69.7976 6
      vertex 18.0698 -69.9988 6
      vertex 18.7492 -69.8544 6
    endloop
  endfacet
  facet normal 0 0 1
    outer loop
      vertex 18.7492 -69.8544 6
      vertex 18.0698 -69.9988 6
      vertex 18.618 -69.9021 6
    endloop
  endfacet
  facet normal 0 0 1
    outer loop
      vertex 18.618 -69.9021 6
      vertex 18.0698 -69.9988 6
      vertex 18.4838 -69.9406 6
    endloop
  endfacet
  facet normal 0 0 1
    outer loop
      vertex 18.4838 -69.9406 6
      vertex 18.0698 -69.9988 6
      vertex 18.3473 -69.9696 6
    endloop
  endfacet
  facet normal 0 0 1
    outer loop
      vertex 18.3473 -69.9696 6
      vertex 18.0698 -69.9988 6
      vertex 18.2091 -69.989 6
    endloop
  endfacet
  facet normal 0 0 1
    outer loop
      vertex 20 -50 6
      vertex 11.5307 -58.4693 6
      vertex 12.1648 -60 6
    endloop
  endfacet
  facet normal 0 0 1
    outer loop
      vertex 20 -50 6
      vertex 10 -57.8352 6
      vertex 11.5307 -58.4693 6
    endloop
  endfacet
  facet normal -0 0 1
    outer loop
      vertex 0 -50 6
      vertex 10 -57.8352 6
      vertex 20 -50 6
    endloop
  endfacet
  facet normal 0 0 1
    outer loop
      vertex 0 -50 6
      vertex 7.83522 -60 6
      vertex 8.46927 -58.4693 6
    endloop
  endfacet
  facet normal 0 0 1
    outer loop
      vertex 8.46927 -61.5307 6
      vertex 0 -68 6
      vertex 1.9302 -69.9988 6
    endloop
  endfacet
  facet normal 0 0 1
    outer loop
      vertex 1.9302 -69.9988 6
      vertex 0 -68 6
      vertex 1.79094 -69.989 6
    endloop
  endfacet
  facet normal 0 0 1
    outer loop
      vertex 1.79094 -69.989 6
      vertex 0 -68 6
      vertex 1.6527 -69.9696 6
    endloop
  endfacet
  facet normal 0 0 1
    outer loop
      vertex 1.6527 -69.9696 6
      vertex 0 -68 6
      vertex 1.51616 -69.9406 6
    endloop
  endfacet
  facet normal 0 0 1
    outer loop
      vertex 1.51616 -69.9406 6
      vertex 0 -68 6
      vertex 1.38197 -69.9021 6
    endloop
  endfacet
  facet normal 0 0 1
    outer loop
      vertex 1.38197 -69.9021 6
      vertex 0 -68 6
      vertex 1.25079 -69.8544 6
    endloop
  endfacet
  facet normal 0 0 1
    outer loop
      vertex 1.25079 -69.8544 6
      vertex 0 -68 6
      vertex 1.12326 -69.7976 6
    endloop
  endfacet
  facet normal 0 0 1
    outer loop
      vertex 1.12326 -69.7976 6
      vertex 0 -68 6
      vertex 1 -69.732 6
    endloop
  endfacet
  facet normal 0 0 1
    outer loop
      vertex 1 -69.732 6
      vertex 0 -68 6
      vertex 0.881614 -69.6581 6
    endloop
  endfacet
  facet normal 0 0 1
    outer loop
      vertex 0.881614 -69.6581 6
      vertex 0 -68 6
      vertex 0.768677 -69.576 6
    endloop
  endfacet
  facet normal 0 0 1
    outer loop
      vertex 0.768677 -69.576 6
      vertex 0 -68 6
      vertex 0.661738 -69.4863 6
    endloop
  endfacet
  facet normal 0 0 1
    outer loop
      vertex 0.661738 -69.4863 6
      vertex 0 -68 6
      vertex 0.56132 -69.3893 6
    endloop
  endfacet
  facet normal 0 0 1
    outer loop
      vertex 0.56132 -69.3893 6
      vertex 0 -68 6
      vertex 0.467911 -69.2856 6
    endloop
  endfacet
  facet normal 0 0 1
    outer loop
      vertex 0.467911 -69.2856 6
      vertex 0 -68 6
      vertex 0.381966 -69.1756 6
    endloop
  endfacet
  facet normal 0 0 1
    outer loop
      vertex 0.381966 -69.1756 6
      vertex 0 -68 6
      vertex 0.303904 -69.0598 6
    endloop
  endfacet
  facet normal 0 0 1
    outer loop
      vertex 0.303904 -69.0598 6
      vertex 0 -68 6
      vertex 0.234104 -68.9389 6
    endloop
  endfacet
  facet normal 0 0 1
    outer loop
      vertex 0.234104 -68.9389 6
      vertex 0 -68 6
      vertex 0.172909 -68.8135 6
    endloop
  endfacet
  facet normal 0 0 1
    outer loop
      vertex 0.172909 -68.8135 6
      vertex 0 -68 6
      vertex 0.120614 -68.684 6
    endloop
  endfacet
  facet normal 0 0 1
    outer loop
      vertex 0.120614 -68.684 6
      vertex 0 -68 6
      vertex 0.0774765 -68.5513 6
    endloop
  endfacet
  facet normal 0 0 1
    outer loop
      vertex 0.0774765 -68.5513 6
      vertex 0 -68 6
      vertex 0.043704 -68.4158 6
    endloop
  endfacet
  facet normal 0 0 1
    outer loop
      vertex 0.043704 -68.4158 6
      vertex 0 -68 6
      vertex 0.0194635 -68.2783 6
    endloop
  endfacet
  facet normal 0 0 1
    outer loop
      vertex 10 -57.8352 6
      vertex 0 -50 6
      vertex 8.46927 -58.4693 6
    endloop
  endfacet
  facet normal 0 0 1
    outer loop
      vertex 7.83522 -60 6
      vertex 0 -50 6
      vertex 0 -68 6
    endloop
  endfacet
  facet normal 0 0 1
    outer loop
      vertex 0.0194635 -68.2783 6
      vertex 0 -68 6
      vertex 0.00487137 -68.1395 6
    endloop
  endfacet
  facet normal 0.0697565 0.997564 -0
    outer loop
      vertex 68.2091 -0.0109558 0
      vertex 68.0698 -0.00121784 6
      vertex 68.2091 -0.0109558 6
    endloop
  endfacet
  facet normal 0.0697565 0.997564 0
    outer loop
      vertex 68.0698 -0.00121784 6
      vertex 68.2091 -0.0109558 0
      vertex 68.0698 -0.00121784 0
    endloop
  endfacet
  facet normal 0.829036 -0.559195 0
    outer loop
      vertex 69.618 -19.1756 6
      vertex 69.6961 -19.0598 0
      vertex 69.6961 -19.0598 6
    endloop
  endfacet
  facet normal 0.829036 -0.559195 0
    outer loop
      vertex 69.6961 -19.0598 0
      vertex 69.618 -19.1756 6
      vertex 69.618 -19.1756 0
    endloop
  endfacet
  facet normal 0 0 -1
    outer loop
      vertex 19.4387 -69.3893 0
      vertex 11.5307 -61.5307 0
      vertex 12.1648 -60 0
    endloop
  endfacet
  facet normal 0 0 -1
    outer loop
      vertex 18.0698 -69.9988 0
      vertex 10 -62.1648 0
      vertex 11.5307 -61.5307 0
    endloop
  endfacet
  facet normal 0 0 -1
    outer loop
      vertex 1.9302 -69.9988 0
      vertex 10 -62.1648 0
      vertex 18.0698 -69.9988 0
    endloop
  endfacet
  facet normal 0 0 -1
    outer loop
      vertex 20 0 0
      vertex 5.86602 -6.5 0
      vertex 6.73205 -5 0
    endloop
  endfacet
  facet normal 0 0 -1
    outer loop
      vertex 8.46927 -58.4693 0
      vertex 4.04445 -6.5 0
      vertex 5.86602 -6.5 0
    endloop
  endfacet
  facet normal -0 0 -1
    outer loop
      vertex 8.46927 -58.4693 0
      vertex 0 -68 0
      vertex 4.04445 -6.5 0
    endloop
  endfacet
  facet normal -0 0 -1
    outer loop
      vertex 4.04445 -6.5 0
      vertex 0 -68 0
      vertex 4.00423 -6.43688 0
    endloop
  endfacet
  facet normal -0 0 -1
    outer loop
      vertex 8.46927 -61.5307 0
      vertex 0 -68 0
      vertex 7.83522 -60 0
    endloop
  endfacet
  facet normal 0 0 -1
    outer loop
      vertex 0 -68 0
      vertex 8.46927 -61.5307 0
      vertex 1.9302 -69.9988 0
    endloop
  endfacet
  facet normal -0 0 -1
    outer loop
      vertex 10 -62.1648 0
      vertex 1.9302 -69.9988 0
      vertex 8.46927 -61.5307 0
    endloop
  endfacet
  facet normal 0 0 -1
    outer loop
      vertex 69.4387 -19.3893 0
      vertex 70 -18 0
      vertex 69.9951 -18.1395 0
    endloop
  endfacet
  facet normal 0 0 -1
    outer loop
      vertex 70 -18 0
      vertex 62.1648 -10 0
      vertex 70 -2 0
    endloop
  endfacet
  facet normal 0 0 -1
    outer loop
      vertex 69.4387 -19.3893 0
      vertex 69.9951 -18.1395 0
      vertex 69.9805 -18.2783 0
    endloop
  endfacet
  facet normal 0 0 -1
    outer loop
      vertex 61.5307 -8.46927 0
      vertex 70 -2 0
      vertex 62.1648 -10 0
    endloop
  endfacet
  facet normal 0 0 -1
    outer loop
      vertex 69.4387 -19.3893 0
      vertex 69.9805 -18.2783 0
      vertex 69.9563 -18.4158 0
    endloop
  endfacet
  facet normal 0 -0 -1
    outer loop
      vertex 68.0698 -0.00121784 0
      vertex 70 -2 0
      vertex 61.5307 -8.46927 0
    endloop
  endfacet
  facet normal 0 0 -1
    outer loop
      vertex 69.4387 -19.3893 0
      vertex 69.9563 -18.4158 0
      vertex 69.9225 -18.5513 0
    endloop
  endfacet
  facet normal 0 0 -1
    outer loop
      vertex 70 -2 0
      vertex 68.0698 -0.00121784 0
      vertex 69.9951 -1.86049 0
    endloop
  endfacet
  facet normal 0 0 -1
    outer loop
      vertex 69.4387 -19.3893 0
      vertex 69.9225 -18.5513 0
      vertex 69.8794 -18.684 0
    endloop
  endfacet
  facet normal 0 0 -1
    outer loop
      vertex 69.9951 -1.86049 0
      vertex 68.0698 -0.00121784 0
      vertex 69.9805 -1.72165 0
    endloop
  endfacet
  facet normal 0 0 -1
    outer loop
      vertex 69.4387 -19.3893 0
      vertex 69.8794 -18.684 0
      vertex 69.8271 -18.8135 0
    endloop
  endfacet
  facet normal 0 0 -1
    outer loop
      vertex 69.9805 -1.72165 0
      vertex 68.0698 -0.00121784 0
      vertex 69.9563 -1.58418 0
    endloop
  endfacet
  facet normal 0 0 -1
    outer loop
      vertex 69.4387 -19.3893 0
      vertex 69.8271 -18.8135 0
      vertex 69.7659 -18.9389 0
    endloop
  endfacet
  facet normal 0 0 -1
    outer loop
      vertex 69.9563 -1.58418 0
      vertex 68.0698 -0.00121784 0
      vertex 69.9225 -1.44872 0
    endloop
  endfacet
  facet normal 0 0 -1
    outer loop
      vertex 69.4387 -19.3893 0
      vertex 69.7659 -18.9389 0
      vertex 69.6961 -19.0598 0
    endloop
  endfacet
  facet normal 0 0 -1
    outer loop
      vertex 69.9225 -1.44872 0
      vertex 68.0698 -0.00121784 0
      vertex 69.8794 -1.31596 0
    endloop
  endfacet
  facet normal 0 0 -1
    outer loop
      vertex 69.4387 -19.3893 0
      vertex 69.6961 -19.0598 0
      vertex 69.618 -19.1756 0
    endloop
  endfacet
  facet normal 0 0 -1
    outer loop
      vertex 69.8794 -1.31596 0
      vertex 68.0698 -0.00121784 0
      vertex 69.8271 -1.18653 0
    endloop
  endfacet
  facet normal 0 0 -1
    outer loop
      vertex 69.4387 -19.3893 0
      vertex 69.618 -19.1756 0
      vertex 69.5321 -19.2856 0
    endloop
  endfacet
  facet normal 0 0 -1
    outer loop
      vertex 69.8271 -1.18653 0
      vertex 68.0698 -0.00121784 0
      vertex 69.7659 -1.06106 0
    endloop
  endfacet
  facet normal -0 0 -1
    outer loop
      vertex 70 -18 0
      vertex 69.4387 -19.3893 0
      vertex 61.5307 -11.5307 0
    endloop
  endfacet
  facet normal 0 0 -1
    outer loop
      vertex 69.7659 -1.06106 0
      vertex 68.0698 -0.00121784 0
      vertex 69.6961 -0.940161 0
    endloop
  endfacet
  facet normal 0 0 -1
    outer loop
      vertex 69.6961 -0.940161 0
      vertex 68.0698 -0.00121784 0
      vertex 69.618 -0.824429 0
    endloop
  endfacet
  facet normal 0 0 -1
    outer loop
      vertex 69.618 -0.824429 0
      vertex 68.0698 -0.00121784 0
      vertex 69.5321 -0.714424 0
    endloop
  endfacet
  facet normal 0 0 -1
    outer loop
      vertex 69.5321 -0.714424 0
      vertex 68.0698 -0.00121784 0
      vertex 69.4387 -0.610682 0
    endloop
  endfacet
  facet normal 0 0 -1
    outer loop
      vertex 69.4387 -0.610682 0
      vertex 68.0698 -0.00121784 0
      vertex 69.3383 -0.51371 0
    endloop
  endfacet
  facet normal 0 0 -1
    outer loop
      vertex 69.3383 -0.51371 0
      vertex 68.0698 -0.00121784 0
      vertex 69.2313 -0.423978 0
    endloop
  endfacet
  facet normal 0 0 -1
    outer loop
      vertex 69.2313 -0.423978 0
      vertex 68.0698 -0.00121784 0
      vertex 69.1184 -0.341925 0
    endloop
  endfacet
  facet normal 0 0 -1
    outer loop
      vertex 69.1184 -0.341925 0
      vertex 68.0698 -0.00121784 0
      vertex 69 -0.267949 0
    endloop
  endfacet
  facet normal 0 0 -1
    outer loop
      vertex 69 -0.267949 0
      vertex 68.0698 -0.00121784 0
      vertex 68.8767 -0.202412 0
    endloop
  endfacet
  facet normal 0 0 -1
    outer loop
      vertex 68.8767 -0.202412 0
      vertex 68.0698 -0.00121784 0
      vertex 68.7492 -0.145632 0
    endloop
  endfacet
  facet normal 0 0 -1
    outer loop
      vertex 68.7492 -0.145632 0
      vertex 68.0698 -0.00121784 0
      vertex 68.618 -0.0978861 0
    endloop
  endfacet
  facet normal 0 0 -1
    outer loop
      vertex 68.618 -0.0978861 0
      vertex 68.0698 -0.00121784 0
      vertex 68.4838 -0.0594082 0
    endloop
  endfacet
  facet normal 0 0 -1
    outer loop
      vertex 68.4838 -0.0594082 0
      vertex 68.0698 -0.00121784 0
      vertex 68.3473 -0.0303841 0
    endloop
  endfacet
  facet normal 0 0 -1
    outer loop
      vertex 70 -18 0
      vertex 61.5307 -11.5307 0
      vertex 62.1648 -10 0
    endloop
  endfacet
  facet normal 0 0 -1
    outer loop
      vertex 69.4387 -19.3893 0
      vertex 60 -12.1648 0
      vertex 61.5307 -11.5307 0
    endloop
  endfacet
  facet normal 0 0 -1
    outer loop
      vertex 69.4387 -19.3893 0
      vertex 58.4693 -11.5307 0
      vertex 60 -12.1648 0
    endloop
  endfacet
  facet normal 0 0 -1
    outer loop
      vertex 20 0 0
      vertex 57.8352 -10 0
      vertex 58.4693 -11.5307 0
    endloop
  endfacet
  facet normal 0 0 -1
    outer loop
      vertex 50 -0.000760046 0
      vertex 20 0 0
      vertex 50 0 0
    endloop
  endfacet
  facet normal 0 0 -1
    outer loop
      vertex 57.8352 -10 0
      vertex 20 0 0
      vertex 50 -0.000760046 0
    endloop
  endfacet
  facet normal 0 0 -1
    outer loop
      vertex 11.5307 -58.4693 0
      vertex 58.4693 -11.5307 0
      vertex 69.4387 -19.3893 0
    endloop
  endfacet
  facet normal 0 0 -1
    outer loop
      vertex 11.5307 -58.4693 0
      vertex 69.4387 -19.3893 0
      vertex 19.4387 -69.3893 0
    endloop
  endfacet
  facet normal -0 0 -1
    outer loop
      vertex 58.4693 -11.5307 0
      vertex 11.5307 -58.4693 0
      vertex 20 0 0
    endloop
  endfacet
  facet normal 0 0 -1
    outer loop
      vertex 18.0698 -69.9988 0
      vertex 19.4387 -69.3893 0
      vertex 19.3383 -69.4863 0
    endloop
  endfacet
  facet normal 0 0 -1
    outer loop
      vertex 18.0698 -69.9988 0
      vertex 19.3383 -69.4863 0
      vertex 19.2313 -69.576 0
    endloop
  endfacet
  facet normal 0 0 -1
    outer loop
      vertex 18.0698 -69.9988 0
      vertex 19.2313 -69.576 0
      vertex 19.1184 -69.6581 0
    endloop
  endfacet
  facet normal 0 0 -1
    outer loop
      vertex 18.0698 -69.9988 0
      vertex 19.1184 -69.6581 0
      vertex 19 -69.732 0
    endloop
  endfacet
  facet normal 0 0 -1
    outer loop
      vertex 18.0698 -69.9988 0
      vertex 19 -69.732 0
      vertex 18.8767 -69.7976 0
    endloop
  endfacet
  facet normal 0 0 -1
    outer loop
      vertex 18.0698 -69.9988 0
      vertex 18.8767 -69.7976 0
      vertex 18.7492 -69.8544 0
    endloop
  endfacet
  facet normal 0 0 -1
    outer loop
      vertex 18.0698 -69.9988 0
      vertex 18.7492 -69.8544 0
      vertex 18.618 -69.9021 0
    endloop
  endfacet
  facet normal 0 0 -1
    outer loop
      vertex 18.0698 -69.9988 0
      vertex 18.618 -69.9021 0
      vertex 18.4838 -69.9406 0
    endloop
  endfacet
  facet normal 0 0 -1
    outer loop
      vertex 18.0698 -69.9988 0
      vertex 18.4838 -69.9406 0
      vertex 18.3473 -69.9696 0
    endloop
  endfacet
  facet normal 0 0 -1
    outer loop
      vertex 18.0698 -69.9988 0
      vertex 18.3473 -69.9696 0
      vertex 18.2091 -69.989 0
    endloop
  endfacet
  facet normal 0 0 -1
    outer loop
      vertex 11.5307 -61.5307 0
      vertex 19.4387 -69.3893 0
      vertex 18.0698 -69.9988 0
    endloop
  endfacet
  facet normal 0 0 -1
    outer loop
      vertex 19.4387 -69.3893 0
      vertex 12.1648 -60 0
      vertex 11.5307 -58.4693 0
    endloop
  endfacet
  facet normal 0 0 -1
    outer loop
      vertex 5.86602 -6.5 0
      vertex 20 0 0
      vertex 11.5307 -58.4693 0
    endloop
  endfacet
  facet normal 0 0 -1
    outer loop
      vertex 5.86602 -6.5 0
      vertex 11.5307 -58.4693 0
      vertex 10 -57.8352 0
    endloop
  endfacet
  facet normal 0 0 -1
    outer loop
      vertex 5.86602 -6.5 0
      vertex 10 -57.8352 0
      vertex 8.46927 -58.4693 0
    endloop
  endfacet
  facet normal 0 0 -1
    outer loop
      vertex 0 -68 0
      vertex 8.46927 -58.4693 0
      vertex 7.83522 -60 0
    endloop
  endfacet
  facet normal 0 0 -1
    outer loop
      vertex 5.86602 -3.5 0
      vertex 20 0 0
      vertex 6.73205 -5 0
    endloop
  endfacet
  facet normal -0 0 -1
    outer loop
      vertex 20 0 0
      vertex 5.86602 -3.5 0
      vertex 20 12 0
    endloop
  endfacet
  facet normal 0 0 -1
    outer loop
      vertex 0 0 0
      vertex 5.86602 -3.5 0
      vertex 4.04445 -3.5 0
    endloop
  endfacet
  facet normal 0 0 -1
    outer loop
      vertex 0 -68 0
      vertex 1.9302 -69.9988 0
      vertex 1.79094 -69.989 0
    endloop
  endfacet
  facet normal 0 0 -1
    outer loop
      vertex 0 -68 0
      vertex 1.79094 -69.989 0
      vertex 1.6527 -69.9696 0
    endloop
  endfacet
  facet normal 0 0 -1
    outer loop
      vertex 0 -68 0
      vertex 1.6527 -69.9696 0
      vertex 1.51616 -69.9406 0
    endloop
  endfacet
  facet normal 0 0 -1
    outer loop
      vertex 0 -68 0
      vertex 1.51616 -69.9406 0
      vertex 1.38197 -69.9021 0
    endloop
  endfacet
  facet normal 0 0 -1
    outer loop
      vertex 0 -68 0
      vertex 1.38197 -69.9021 0
      vertex 1.25079 -69.8544 0
    endloop
  endfacet
  facet normal 0 0 -1
    outer loop
      vertex 0 -68 0
      vertex 1.25079 -69.8544 0
      vertex 1.12326 -69.7976 0
    endloop
  endfacet
  facet normal 0 0 -1
    outer loop
      vertex 0 -68 0
      vertex 1.12326 -69.7976 0
      vertex 1 -69.732 0
    endloop
  endfacet
  facet normal 0 0 -1
    outer loop
      vertex 0 -68 0
      vertex 1 -69.732 0
      vertex 0.881614 -69.6581 0
    endloop
  endfacet
  facet normal 0 0 -1
    outer loop
      vertex 0 -68 0
      vertex 0.881614 -69.6581 0
      vertex 0.768677 -69.576 0
    endloop
  endfacet
  facet normal 0 0 -1
    outer loop
      vertex 0 -68 0
      vertex 0.768677 -69.576 0
      vertex 0.661738 -69.4863 0
    endloop
  endfacet
  facet normal 0 0 -1
    outer loop
      vertex 0 -68 0
      vertex 0.661738 -69.4863 0
      vertex 0.56132 -69.3893 0
    endloop
  endfacet
  facet normal 0 0 -1
    outer loop
      vertex 0 -68 0
      vertex 0.56132 -69.3893 0
      vertex 0.467911 -69.2856 0
    endloop
  endfacet
  facet normal 0 0 -1
    outer loop
      vertex 0 -68 0
      vertex 0.467911 -69.2856 0
      vertex 0.381966 -69.1756 0
    endloop
  endfacet
  facet normal 0 0 -1
    outer loop
      vertex 0 -68 0
      vertex 0.381966 -69.1756 0
      vertex 0.303904 -69.0598 0
    endloop
  endfacet
  facet normal 0 0 -1
    outer loop
      vertex 0 -68 0
      vertex 0.303904 -69.0598 0
      vertex 0.234104 -68.9389 0
    endloop
  endfacet
  facet normal 0 0 -1
    outer loop
      vertex 0 -68 0
      vertex 0.234104 -68.9389 0
      vertex 0.172909 -68.8135 0
    endloop
  endfacet
  facet normal 0 0 -1
    outer loop
      vertex 0 -68 0
      vertex 0.172909 -68.8135 0
      vertex 0.120614 -68.684 0
    endloop
  endfacet
  facet normal 0 0 -1
    outer loop
      vertex 0 -68 0
      vertex 0.120614 -68.684 0
      vertex 0.0774765 -68.5513 0
    endloop
  endfacet
  facet normal 0 0 -1
    outer loop
      vertex 0 -68 0
      vertex 0.0774765 -68.5513 0
      vertex 0.043704 -68.4158 0
    endloop
  endfacet
  facet normal 0 0 -1
    outer loop
      vertex 0 -68 0
      vertex 0.043704 -68.4158 0
      vertex 0.0194635 -68.2783 0
    endloop
  endfacet
  facet normal 0 0 -1
    outer loop
      vertex 0 -68 0
      vertex 0.0194635 -68.2783 0
      vertex 0.00487137 -68.1395 0
    endloop
  endfacet
  facet normal -0 0 -1
    outer loop
      vertex 4.00423 -6.43688 0
      vertex 0 -68 0
      vertex 3.08889 -5 0
    endloop
  endfacet
  facet normal 0 0 -1
    outer loop
      vertex 0 0 0
      vertex 3.08889 -5 0
      vertex 0 -68 0
    endloop
  endfacet
  facet normal 0 0 -1
    outer loop
      vertex 0 0 0
      vertex 4.00423 -3.56312 0
      vertex 3.08889 -5 0
    endloop
  endfacet
  facet normal 0 0 -1
    outer loop
      vertex 0 0 0
      vertex 4.04445 -3.5 0
      vertex 4.00423 -3.56312 0
    endloop
  endfacet
  facet normal 0 0 -1
    outer loop
      vertex 5.86602 -3.5 0
      vertex 0 0 0
      vertex 0 12 0
    endloop
  endfacet
  facet normal 0 0 -1
    outer loop
      vertex 5.86602 -3.5 0
      vertex 0 12 0
      vertex 20 12 0
    endloop
  endfacet
  facet normal 0 0 -1
    outer loop
      vertex -9.6 3 0
      vertex 0 12 0
      vertex 0 0 0
    endloop
  endfacet
  facet normal 0 0 -1
    outer loop
      vertex 0 12 0
      vertex -9.6 3 0
      vertex -9.6 9 0
    endloop
  endfacet
  facet normal 0 0 -1
    outer loop
      vertex 68.3473 -0.0303841 0
      vertex 68.0698 -0.00121784 0
      vertex 68.2091 -0.0109558 0
    endloop
  endfacet
  facet normal 0 0 -1
    outer loop
      vertex 60 -7.83522 0
      vertex 68.0698 -0.00121784 0
      vertex 61.5307 -8.46927 0
    endloop
  endfacet
  facet normal 0 0 -1
    outer loop
      vertex 50 -0.000760046 0
      vertex 60 -7.83522 0
      vertex 58.4693 -8.46927 0
    endloop
  endfacet
  facet normal 0 0 -1
    outer loop
      vertex 60 -7.83522 0
      vertex 50 -0.000760046 0
      vertex 68.0698 -0.00121784 0
    endloop
  endfacet
  facet normal 0 0 -1
    outer loop
      vertex 50 -0.000760046 0
      vertex 58.4693 -8.46927 0
      vertex 57.8352 -10 0
    endloop
  endfacet
  facet normal 2.53349e-05 1 -0
    outer loop
      vertex 68.0698 -0.00121784 0
      vertex 50 -0.000760046 6
      vertex 68.0698 -0.00121784 6
    endloop
  endfacet
  facet normal 2.53349e-05 1 0
    outer loop
      vertex 50 -0.000760046 6
      vertex 68.0698 -0.00121784 0
      vertex 50 -0.000760046 0
    endloop
  endfacet
  facet normal -0.999391 -0.0348962 0
    outer loop
      vertex 0.00487137 -68.1395 0
      vertex 0 -68 6
      vertex 0 -68 0
    endloop
  endfacet
  facet normal -0.999391 -0.0348962 0
    outer loop
      vertex 0 -68 6
      vertex 0.00487137 -68.1395 0
      vertex 0.00487137 -68.1395 6
    endloop
  endfacet
  facet normal 0 -1 0
    outer loop
      vertex 1.9302 -69.9988 0
      vertex 18.0698 -69.9988 6
      vertex 1.9302 -69.9988 6
    endloop
  endfacet
  facet normal 0 -1 -0
    outer loop
      vertex 18.0698 -69.9988 6
      vertex 1.9302 -69.9988 0
      vertex 18.0698 -69.9988 0
    endloop
  endfacet
  facet normal 0.78801 -0.615663 0
    outer loop
      vertex 69.5321 -19.2856 6
      vertex 69.618 -19.1756 0
      vertex 69.618 -19.1756 6
    endloop
  endfacet
  facet normal 0.78801 -0.615663 0
    outer loop
      vertex 69.618 -19.1756 0
      vertex 69.5321 -19.2856 6
      vertex 69.5321 -19.2856 0
    endloop
  endfacet
  facet normal 0.207918 0.978146 -0
    outer loop
      vertex 68.4838 -0.0594082 0
      vertex 68.3473 -0.0303841 6
      vertex 68.4838 -0.0594082 6
    endloop
  endfacet
  facet normal 0.207918 0.978146 0
    outer loop
      vertex 68.3473 -0.0303841 6
      vertex 68.4838 -0.0594082 0
      vertex 68.3473 -0.0303841 0
    endloop
  endfacet
  facet normal 0.275628 0.961264 -0
    outer loop
      vertex 68.618 -0.0978861 0
      vertex 68.4838 -0.0594082 6
      vertex 68.618 -0.0978861 6
    endloop
  endfacet
  facet normal 0.275628 0.961264 0
    outer loop
      vertex 68.4838 -0.0594082 6
      vertex 68.618 -0.0978861 0
      vertex 68.4838 -0.0594082 0
    endloop
  endfacet
  facet normal -0.951053 -0.309027 0
    outer loop
      vertex 0.120614 -68.684 0
      vertex 0.0774765 -68.5513 6
      vertex 0.0774765 -68.5513 0
    endloop
  endfacet
  facet normal -0.951053 -0.309027 0
    outer loop
      vertex 0.0774765 -68.5513 6
      vertex 0.120614 -68.684 0
      vertex 0.120614 -68.684 6
    endloop
  endfacet
  facet normal -0.642777 -0.766054 0
    outer loop
      vertex 0.661738 -69.4863 0
      vertex 0.768677 -69.576 6
      vertex 0.661738 -69.4863 6
    endloop
  endfacet
  facet normal -0.642777 -0.766054 -0
    outer loop
      vertex 0.768677 -69.576 6
      vertex 0.661738 -69.4863 0
      vertex 0.768677 -69.576 0
    endloop
  endfacet
  facet normal 0.707107 -0.707107 0
    outer loop
      vertex 19.4387 -69.3893 6
      vertex 69.4387 -19.3893 0
      vertex 69.4387 -19.3893 6
    endloop
  endfacet
  facet normal 0.707107 -0.707107 0
    outer loop
      vertex 69.4387 -19.3893 0
      vertex 19.4387 -69.3893 6
      vertex 19.4387 -69.3893 0
    endloop
  endfacet
  facet normal 0.139175 0.990268 -0
    outer loop
      vertex 68.3473 -0.0303841 0
      vertex 68.2091 -0.0109558 6
      vertex 68.3473 -0.0303841 6
    endloop
  endfacet
  facet normal 0.139175 0.990268 0
    outer loop
      vertex 68.2091 -0.0109558 6
      vertex 68.3473 -0.0303841 0
      vertex 68.2091 -0.0109558 0
    endloop
  endfacet
  facet normal 1 -0 0
    outer loop
      vertex 70 -18 6
      vertex 70 -2 0
      vertex 70 -2 6
    endloop
  endfacet
  facet normal 1 0 0
    outer loop
      vertex 70 -2 0
      vertex 70 -18 6
      vertex 70 -18 0
    endloop
  endfacet
  facet normal 0.829032 0.559201 0
    outer loop
      vertex 69.6961 -0.940161 6
      vertex 69.618 -0.824429 0
      vertex 69.618 -0.824429 6
    endloop
  endfacet
  facet normal 0.829032 0.559201 0
    outer loop
      vertex 69.618 -0.824429 0
      vertex 69.6961 -0.940161 6
      vertex 69.6961 -0.940161 0
    endloop
  endfacet
  facet normal -0.970295 -0.241925 0
    outer loop
      vertex 0.0774765 -68.5513 0
      vertex 0.043704 -68.4158 6
      vertex 0.043704 -68.4158 0
    endloop
  endfacet
  facet normal -0.970295 -0.241925 0
    outer loop
      vertex 0.043704 -68.4158 6
      vertex 0.0774765 -68.5513 0
      vertex 0.0774765 -68.5513 6
    endloop
  endfacet
  facet normal -0.829034 -0.559198 0
    outer loop
      vertex 0.381966 -69.1756 0
      vertex 0.303904 -69.0598 6
      vertex 0.303904 -69.0598 0
    endloop
  endfacet
  facet normal -0.829034 -0.559198 0
    outer loop
      vertex 0.303904 -69.0598 6
      vertex 0.381966 -69.1756 0
      vertex 0.381966 -69.1756 6
    endloop
  endfacet
  facet normal 0.743124 -0.669153 0
    outer loop
      vertex 69.4387 -19.3893 6
      vertex 69.5321 -19.2856 0
      vertex 69.5321 -19.2856 6
    endloop
  endfacet
  facet normal 0.743124 -0.669153 0
    outer loop
      vertex 69.5321 -19.2856 0
      vertex 69.4387 -19.3893 6
      vertex 69.4387 -19.3893 0
    endloop
  endfacet
  facet normal 0.587785 -0.809017 0
    outer loop
      vertex 19.1184 -69.6581 0
      vertex 19.2313 -69.576 6
      vertex 19.1184 -69.6581 6
    endloop
  endfacet
  facet normal 0.587785 -0.809017 0
    outer loop
      vertex 19.2313 -69.576 6
      vertex 19.1184 -69.6581 0
      vertex 19.2313 -69.576 0
    endloop
  endfacet
  facet normal 0.78801 0.615663 0
    outer loop
      vertex 69.618 -0.824429 6
      vertex 69.5321 -0.714424 0
      vertex 69.5321 -0.714424 6
    endloop
  endfacet
  facet normal 0.78801 0.615663 0
    outer loop
      vertex 69.5321 -0.714424 0
      vertex 69.618 -0.824429 6
      vertex 69.618 -0.824429 0
    endloop
  endfacet
  facet normal -0.984809 -0.17364 0
    outer loop
      vertex 0.043704 -68.4158 0
      vertex 0.0194635 -68.2783 6
      vertex 0.0194635 -68.2783 0
    endloop
  endfacet
  facet normal -0.984809 -0.17364 0
    outer loop
      vertex 0.0194635 -68.2783 6
      vertex 0.043704 -68.4158 0
      vertex 0.043704 -68.4158 6
    endloop
  endfacet
  facet normal -0.994522 -0.104531 0
    outer loop
      vertex 0.0194635 -68.2783 0
      vertex 0.00487137 -68.1395 6
      vertex 0.00487137 -68.1395 0
    endloop
  endfacet
  facet normal -0.994522 -0.104531 0
    outer loop
      vertex 0.00487137 -68.1395 6
      vertex 0.0194635 -68.2783 0
      vertex 0.0194635 -68.2783 6
    endloop
  endfacet
  facet normal -0.898789 -0.438382 0
    outer loop
      vertex 0.234104 -68.9389 0
      vertex 0.172909 -68.8135 6
      vertex 0.172909 -68.8135 0
    endloop
  endfacet
  facet normal -0.898789 -0.438382 0
    outer loop
      vertex 0.172909 -68.8135 6
      vertex 0.234104 -68.9389 0
      vertex 0.234104 -68.9389 6
    endloop
  endfacet
  facet normal 0.34202 -0.939693 0
    outer loop
      vertex 18.618 -69.9021 0
      vertex 18.7492 -69.8544 6
      vertex 18.618 -69.9021 6
    endloop
  endfacet
  facet normal 0.34202 -0.939693 0
    outer loop
      vertex 18.7492 -69.8544 6
      vertex 18.618 -69.9021 0
      vertex 18.7492 -69.8544 0
    endloop
  endfacet
  facet normal -0.866024 -0.500002 0
    outer loop
      vertex 0.303904 -69.0598 0
      vertex 0.234104 -68.9389 6
      vertex 0.234104 -68.9389 0
    endloop
  endfacet
  facet normal -0.866024 -0.500002 0
    outer loop
      vertex 0.234104 -68.9389 6
      vertex 0.303904 -69.0598 0
      vertex 0.303904 -69.0598 6
    endloop
  endfacet
  facet normal 0.64278 -0.766051 0
    outer loop
      vertex 19.2313 -69.576 0
      vertex 19.3383 -69.4863 6
      vertex 19.2313 -69.576 6
    endloop
  endfacet
  facet normal 0.64278 -0.766051 0
    outer loop
      vertex 19.3383 -69.4863 6
      vertex 19.2313 -69.576 0
      vertex 19.3383 -69.4863 0
    endloop
  endfacet
  facet normal 0.694675 -0.719323 0
    outer loop
      vertex 19.3383 -69.4863 0
      vertex 19.4387 -69.3893 6
      vertex 19.3383 -69.4863 6
    endloop
  endfacet
  facet normal 0.694675 -0.719323 0
    outer loop
      vertex 19.4387 -69.3893 6
      vertex 19.3383 -69.4863 0
      vertex 19.4387 -69.3893 0
    endloop
  endfacet
  facet normal 0.529915 -0.84805 0
    outer loop
      vertex 19 -69.732 0
      vertex 19.1184 -69.6581 6
      vertex 19 -69.732 6
    endloop
  endfacet
  facet normal 0.529915 -0.84805 0
    outer loop
      vertex 19.1184 -69.6581 6
      vertex 19 -69.732 0
      vertex 19.1184 -69.6581 0
    endloop
  endfacet
  facet normal 0.927171 -0.374639 0
    outer loop
      vertex 69.8271 -18.8135 6
      vertex 69.8794 -18.684 0
      vertex 69.8794 -18.684 6
    endloop
  endfacet
  facet normal 0.927171 -0.374639 0
    outer loop
      vertex 69.8794 -18.684 0
      vertex 69.8271 -18.8135 6
      vertex 69.8271 -18.8135 0
    endloop
  endfacet
  facet normal 0.951061 -0.309005 0
    outer loop
      vertex 69.8794 -18.684 6
      vertex 69.9225 -18.5513 0
      vertex 69.9225 -18.5513 6
    endloop
  endfacet
  facet normal 0.951061 -0.309005 0
    outer loop
      vertex 69.9225 -18.5513 0
      vertex 69.8794 -18.684 6
      vertex 69.8794 -18.684 0
    endloop
  endfacet
  facet normal 0.342021 0.939692 -0
    outer loop
      vertex 68.7492 -0.145632 0
      vertex 68.618 -0.0978861 6
      vertex 68.7492 -0.145632 6
    endloop
  endfacet
  facet normal 0.342021 0.939692 0
    outer loop
      vertex 68.618 -0.0978861 6
      vertex 68.7492 -0.145632 0
      vertex 68.618 -0.0978861 0
    endloop
  endfacet
  facet normal 0.743127 0.66915 0
    outer loop
      vertex 69.5321 -0.714424 6
      vertex 69.4387 -0.610682 0
      vertex 69.4387 -0.610682 6
    endloop
  endfacet
  facet normal 0.743127 0.66915 0
    outer loop
      vertex 69.4387 -0.610682 0
      vertex 69.5321 -0.714424 6
      vertex 69.5321 -0.714424 0
    endloop
  endfacet
  facet normal 0.58778 0.80902 -0
    outer loop
      vertex 69.2313 -0.423978 0
      vertex 69.1184 -0.341925 6
      vertex 69.2313 -0.423978 6
    endloop
  endfacet
  facet normal 0.58778 0.80902 0
    outer loop
      vertex 69.1184 -0.341925 6
      vertex 69.2313 -0.423978 0
      vertex 69.1184 -0.341925 0
    endloop
  endfacet
  facet normal 0.52992 0.848047 -0
    outer loop
      vertex 69.1184 -0.341925 0
      vertex 69 -0.267949 6
      vertex 69.1184 -0.341925 6
    endloop
  endfacet
  facet normal 0.52992 0.848047 0
    outer loop
      vertex 69 -0.267949 6
      vertex 69.1184 -0.341925 0
      vertex 69 -0.267949 0
    endloop
  endfacet
  facet normal 0.406772 -0.91353 0
    outer loop
      vertex 18.7492 -69.8544 0
      vertex 18.8767 -69.7976 6
      vertex 18.7492 -69.8544 6
    endloop
  endfacet
  facet normal 0.406772 -0.91353 0
    outer loop
      vertex 18.8767 -69.7976 6
      vertex 18.7492 -69.8544 0
      vertex 18.8767 -69.7976 0
    endloop
  endfacet
  facet normal 0.469465 -0.882951 0
    outer loop
      vertex 18.8767 -69.7976 0
      vertex 19 -69.732 6
      vertex 18.8767 -69.7976 6
    endloop
  endfacet
  facet normal 0.469465 -0.882951 0
    outer loop
      vertex 19 -69.732 6
      vertex 18.8767 -69.7976 0
      vertex 19 -69.732 0
    endloop
  endfacet
  facet normal 0.0697361 -0.997565 0
    outer loop
      vertex 18.0698 -69.9988 0
      vertex 18.2091 -69.989 6
      vertex 18.0698 -69.9988 6
    endloop
  endfacet
  facet normal 0.0697361 -0.997565 0
    outer loop
      vertex 18.2091 -69.989 6
      vertex 18.0698 -69.9988 0
      vertex 18.2091 -69.989 0
    endloop
  endfacet
  facet normal -0.587788 -0.809015 0
    outer loop
      vertex 0.768677 -69.576 0
      vertex 0.881614 -69.6581 6
      vertex 0.768677 -69.576 6
    endloop
  endfacet
  facet normal -0.587788 -0.809015 -0
    outer loop
      vertex 0.881614 -69.6581 6
      vertex 0.768677 -69.576 0
      vertex 0.881614 -69.6581 0
    endloop
  endfacet
  facet normal -0.78802 -0.615649 0
    outer loop
      vertex 0.467911 -69.2856 0
      vertex 0.381966 -69.1756 6
      vertex 0.381966 -69.1756 0
    endloop
  endfacet
  facet normal -0.78802 -0.615649 0
    outer loop
      vertex 0.381966 -69.1756 6
      vertex 0.467911 -69.2856 0
      vertex 0.467911 -69.2856 6
    endloop
  endfacet
  facet normal -0.694675 -0.719323 0
    outer loop
      vertex 0.56132 -69.3893 0
      vertex 0.661738 -69.4863 6
      vertex 0.56132 -69.3893 6
    endloop
  endfacet
  facet normal -0.694675 -0.719323 -0
    outer loop
      vertex 0.661738 -69.4863 6
      vertex 0.56132 -69.3893 0
      vertex 0.661738 -69.4863 0
    endloop
  endfacet
  facet normal -0.92719 -0.374591 0
    outer loop
      vertex 0.172909 -68.8135 0
      vertex 0.120614 -68.684 6
      vertex 0.120614 -68.684 0
    endloop
  endfacet
  facet normal -0.92719 -0.374591 0
    outer loop
      vertex 0.120614 -68.684 6
      vertex 0.172909 -68.8135 0
      vertex 0.172909 -68.8135 6
    endloop
  endfacet
  facet normal 0.866042 -0.499972 0
    outer loop
      vertex 69.6961 -19.0598 6
      vertex 69.7659 -18.9389 0
      vertex 69.7659 -18.9389 6
    endloop
  endfacet
  facet normal 0.866042 -0.499972 0
    outer loop
      vertex 69.7659 -18.9389 0
      vertex 69.6961 -19.0598 6
      vertex 69.6961 -19.0598 0
    endloop
  endfacet
  facet normal 0.898794 -0.438371 0
    outer loop
      vertex 69.7659 -18.9389 6
      vertex 69.8271 -18.8135 0
      vertex 69.8271 -18.8135 6
    endloop
  endfacet
  facet normal 0.898794 -0.438371 0
    outer loop
      vertex 69.8271 -18.8135 0
      vertex 69.7659 -18.9389 6
      vertex 69.7659 -18.9389 0
    endloop
  endfacet
  facet normal 0.98481 -0.173633 0
    outer loop
      vertex 69.9563 -18.4158 6
      vertex 69.9805 -18.2783 0
      vertex 69.9805 -18.2783 6
    endloop
  endfacet
  facet normal 0.98481 -0.173633 0
    outer loop
      vertex 69.9805 -18.2783 0
      vertex 69.9563 -18.4158 6
      vertex 69.9563 -18.4158 0
    endloop
  endfacet
  facet normal 0.99939 -0.0349234 0
    outer loop
      vertex 69.9951 -18.1395 6
      vertex 70 -18 0
      vertex 70 -18 6
    endloop
  endfacet
  facet normal 0.99939 -0.0349234 0
    outer loop
      vertex 70 -18 0
      vertex 69.9951 -18.1395 6
      vertex 69.9951 -18.1395 0
    endloop
  endfacet
  facet normal 0.970289 -0.241947 0
    outer loop
      vertex 69.9225 -18.5513 6
      vertex 69.9563 -18.4158 0
      vertex 69.9563 -18.4158 6
    endloop
  endfacet
  facet normal 0.970289 -0.241947 0
    outer loop
      vertex 69.9563 -18.4158 0
      vertex 69.9225 -18.5513 6
      vertex 69.9225 -18.5513 0
    endloop
  endfacet
  facet normal 0.898795 0.438368 0
    outer loop
      vertex 69.8271 -1.18653 6
      vertex 69.7659 -1.06106 0
      vertex 69.7659 -1.06106 6
    endloop
  endfacet
  facet normal 0.898795 0.438368 0
    outer loop
      vertex 69.7659 -1.06106 0
      vertex 69.8271 -1.18653 6
      vertex 69.8271 -1.18653 0
    endloop
  endfacet
  facet normal 0.95106 0.309007 0
    outer loop
      vertex 69.9225 -1.44872 6
      vertex 69.8794 -1.31596 0
      vertex 69.8794 -1.31596 6
    endloop
  endfacet
  facet normal 0.95106 0.309007 0
    outer loop
      vertex 69.8794 -1.31596 0
      vertex 69.9225 -1.44872 6
      vertex 69.9225 -1.44872 0
    endloop
  endfacet
  facet normal 0.99939 0.034923 0
    outer loop
      vertex 70 -2 6
      vertex 69.9951 -1.86049 0
      vertex 69.9951 -1.86049 6
    endloop
  endfacet
  facet normal 0.99939 0.034923 0
    outer loop
      vertex 69.9951 -1.86049 0
      vertex 70 -2 6
      vertex 70 -2 0
    endloop
  endfacet
  facet normal 0.469464 0.882952 -0
    outer loop
      vertex 69 -0.267949 0
      vertex 68.8767 -0.202412 6
      vertex 69 -0.267949 6
    endloop
  endfacet
  facet normal 0.469464 0.882952 0
    outer loop
      vertex 68.8767 -0.202412 6
      vertex 69 -0.267949 0
      vertex 68.8767 -0.202412 0
    endloop
  endfacet
  facet normal 0.406748 0.91354 -0
    outer loop
      vertex 68.8767 -0.202412 0
      vertex 68.7492 -0.145632 6
      vertex 68.8767 -0.202412 6
    endloop
  endfacet
  facet normal 0.406748 0.91354 0
    outer loop
      vertex 68.7492 -0.145632 6
      vertex 68.8767 -0.202412 0
      vertex 68.7492 -0.145632 0
    endloop
  endfacet
  facet normal 0.694658 0.71934 -0
    outer loop
      vertex 69.4387 -0.610682 0
      vertex 69.3383 -0.51371 6
      vertex 69.4387 -0.610682 6
    endloop
  endfacet
  facet normal 0.694658 0.71934 0
    outer loop
      vertex 69.3383 -0.51371 6
      vertex 69.4387 -0.610682 0
      vertex 69.3383 -0.51371 0
    endloop
  endfacet
  facet normal 0.642805 0.76603 -0
    outer loop
      vertex 69.3383 -0.51371 0
      vertex 69.2313 -0.423978 6
      vertex 69.3383 -0.51371 6
    endloop
  endfacet
  facet normal 0.642805 0.76603 0
    outer loop
      vertex 69.2313 -0.423978 6
      vertex 69.3383 -0.51371 0
      vertex 69.2313 -0.423978 0
    endloop
  endfacet
  facet normal 0.2079 -0.97815 0
    outer loop
      vertex 18.3473 -69.9696 0
      vertex 18.4838 -69.9406 6
      vertex 18.3473 -69.9696 6
    endloop
  endfacet
  facet normal 0.2079 -0.97815 0
    outer loop
      vertex 18.4838 -69.9406 6
      vertex 18.3473 -69.9696 0
      vertex 18.4838 -69.9406 0
    endloop
  endfacet
  facet normal 0.275612 -0.961269 0
    outer loop
      vertex 18.4838 -69.9406 0
      vertex 18.618 -69.9021 6
      vertex 18.4838 -69.9406 6
    endloop
  endfacet
  facet normal 0.275612 -0.961269 0
    outer loop
      vertex 18.618 -69.9021 6
      vertex 18.4838 -69.9406 0
      vertex 18.618 -69.9021 0
    endloop
  endfacet
  facet normal 0.1392 -0.990264 0
    outer loop
      vertex 18.2091 -69.989 0
      vertex 18.3473 -69.9696 6
      vertex 18.2091 -69.989 6
    endloop
  endfacet
  facet normal 0.1392 -0.990264 0
    outer loop
      vertex 18.3473 -69.9696 6
      vertex 18.2091 -69.989 0
      vertex 18.3473 -69.9696 0
    endloop
  endfacet
  facet normal -0.275614 -0.961268 0
    outer loop
      vertex 1.38197 -69.9021 0
      vertex 1.51616 -69.9406 6
      vertex 1.38197 -69.9021 6
    endloop
  endfacet
  facet normal -0.275614 -0.961268 -0
    outer loop
      vertex 1.51616 -69.9406 6
      vertex 1.38197 -69.9021 0
      vertex 1.51616 -69.9406 0
    endloop
  endfacet
  facet normal -0.743129 -0.669148 0
    outer loop
      vertex 0.56132 -69.3893 0
      vertex 0.467911 -69.2856 6
      vertex 0.467911 -69.2856 0
    endloop
  endfacet
  facet normal -0.743129 -0.669148 0
    outer loop
      vertex 0.467911 -69.2856 6
      vertex 0.56132 -69.3893 0
      vertex 0.56132 -69.3893 6
    endloop
  endfacet
  facet normal 0.994525 -0.104494 0
    outer loop
      vertex 69.9805 -18.2783 6
      vertex 69.9951 -18.1395 0
      vertex 69.9951 -18.1395 6
    endloop
  endfacet
  facet normal 0.994525 -0.104494 0
    outer loop
      vertex 69.9951 -18.1395 0
      vertex 69.9805 -18.2783 6
      vertex 69.9805 -18.2783 0
    endloop
  endfacet
  facet normal 0.866042 0.499972 0
    outer loop
      vertex 69.7659 -1.06106 6
      vertex 69.6961 -0.940161 0
      vertex 69.6961 -0.940161 6
    endloop
  endfacet
  facet normal 0.866042 0.499972 0
    outer loop
      vertex 69.6961 -0.940161 0
      vertex 69.7659 -1.06106 6
      vertex 69.7659 -1.06106 0
    endloop
  endfacet
  facet normal 0.927171 0.374639 0
    outer loop
      vertex 69.8794 -1.31596 6
      vertex 69.8271 -1.18653 0
      vertex 69.8271 -1.18653 6
    endloop
  endfacet
  facet normal 0.927171 0.374639 0
    outer loop
      vertex 69.8271 -1.18653 0
      vertex 69.8794 -1.31596 6
      vertex 69.8794 -1.31596 0
    endloop
  endfacet
  facet normal 0.97029 0.241946 0
    outer loop
      vertex 69.9563 -1.58418 6
      vertex 69.9225 -1.44872 0
      vertex 69.9225 -1.44872 6
    endloop
  endfacet
  facet normal 0.97029 0.241946 0
    outer loop
      vertex 69.9225 -1.44872 0
      vertex 69.9563 -1.58418 6
      vertex 69.9563 -1.58418 0
    endloop
  endfacet
  facet normal -0.469467 -0.88295 0
    outer loop
      vertex 1 -69.732 0
      vertex 1.12326 -69.7976 6
      vertex 1 -69.732 6
    endloop
  endfacet
  facet normal -0.469467 -0.88295 -0
    outer loop
      vertex 1.12326 -69.7976 6
      vertex 1 -69.732 0
      vertex 1.12326 -69.7976 0
    endloop
  endfacet
  facet normal -0.2079 -0.97815 0
    outer loop
      vertex 1.51616 -69.9406 0
      vertex 1.6527 -69.9696 6
      vertex 1.51616 -69.9406 6
    endloop
  endfacet
  facet normal -0.2079 -0.97815 -0
    outer loop
      vertex 1.6527 -69.9696 6
      vertex 1.51616 -69.9406 0
      vertex 1.6527 -69.9696 0
    endloop
  endfacet
  facet normal -0.1392 -0.990264 0
    outer loop
      vertex 1.6527 -69.9696 0
      vertex 1.79094 -69.989 6
      vertex 1.6527 -69.9696 6
    endloop
  endfacet
  facet normal -0.1392 -0.990264 -0
    outer loop
      vertex 1.79094 -69.989 6
      vertex 1.6527 -69.9696 0
      vertex 1.79094 -69.989 0
    endloop
  endfacet
  facet normal -0.0697366 -0.997565 0
    outer loop
      vertex 1.79094 -69.989 0
      vertex 1.9302 -69.9988 6
      vertex 1.79094 -69.989 6
    endloop
  endfacet
  facet normal -0.0697366 -0.997565 -0
    outer loop
      vertex 1.9302 -69.9988 6
      vertex 1.79094 -69.989 0
      vertex 1.9302 -69.9988 0
    endloop
  endfacet
  facet normal 0.994525 0.104496 0
    outer loop
      vertex 69.9951 -1.86049 6
      vertex 69.9805 -1.72165 0
      vertex 69.9805 -1.72165 6
    endloop
  endfacet
  facet normal 0.994525 0.104496 0
    outer loop
      vertex 69.9805 -1.72165 0
      vertex 69.9951 -1.86049 6
      vertex 69.9951 -1.86049 0
    endloop
  endfacet
  facet normal 0.984811 0.173632 0
    outer loop
      vertex 69.9805 -1.72165 6
      vertex 69.9563 -1.58418 0
      vertex 69.9563 -1.58418 6
    endloop
  endfacet
  facet normal 0.984811 0.173632 0
    outer loop
      vertex 69.9563 -1.58418 0
      vertex 69.9805 -1.72165 6
      vertex 69.9805 -1.72165 0
    endloop
  endfacet
  facet normal -0.529912 -0.848052 0
    outer loop
      vertex 0.881614 -69.6581 0
      vertex 1 -69.732 6
      vertex 0.881614 -69.6581 6
    endloop
  endfacet
  facet normal -0.529912 -0.848052 -0
    outer loop
      vertex 1 -69.732 6
      vertex 0.881614 -69.6581 0
      vertex 1 -69.732 0
    endloop
  endfacet
  facet normal -0.406772 -0.91353 0
    outer loop
      vertex 1.12326 -69.7976 0
      vertex 1.25079 -69.8544 6
      vertex 1.12326 -69.7976 6
    endloop
  endfacet
  facet normal -0.406772 -0.91353 -0
    outer loop
      vertex 1.25079 -69.8544 6
      vertex 1.12326 -69.7976 0
      vertex 1.25079 -69.8544 0
    endloop
  endfacet
  facet normal -0.342017 -0.939694 0
    outer loop
      vertex 1.25079 -69.8544 0
      vertex 1.38197 -69.9021 6
      vertex 1.25079 -69.8544 6
    endloop
  endfacet
  facet normal -0.342017 -0.939694 -0
    outer loop
      vertex 1.38197 -69.9021 6
      vertex 1.25079 -69.8544 0
      vertex 1.38197 -69.9021 0
    endloop
  endfacet
  facet normal 0 -0.695022 0.718988
    outer loop
      vertex 0 -50 6
      vertex 20 -50 6
      vertex 0 -20 35
    endloop
  endfacet
  facet normal 0.448442 -0.448442 0.773175
    outer loop
      vertex 20 0 35
      vertex 20 -50 6
      vertex 50 -20 6
    endloop
  endfacet
  facet normal 0.448442 -0.448442 0.773175
    outer loop
      vertex 20 -50 6
      vertex 20 0 35
      vertex 0 -20 35
    endloop
  endfacet
  facet normal 1 -0 0
    outer loop
      vertex 50 -0.000760046 6
      vertex 50 0 0
      vertex 50 0 6
    endloop
  endfacet
  facet normal 1 0 0
    outer loop
      vertex 50 0 0
      vertex 50 -0.000760046 6
      vertex 50 -0.000760046 0
    endloop
  endfacet
  facet normal 0.695022 0 0.718988
    outer loop
      vertex 20 0 35
      vertex 50 -0.000760046 6
      vertex 50 0 6
    endloop
  endfacet
  facet normal 0.695022 0 0.718988
    outer loop
      vertex 50 -0.000760046 6
      vertex 20 0 35
      vertex 50 -20 6
    endloop
  endfacet
  facet normal 0 -0.855198 0.518302
    outer loop
      vertex 0 -20 35
      vertex 20 0 68
      vertex 0 0 68
    endloop
  endfacet
  facet normal 0.707107 -0.707107 0
    outer loop
      vertex 0 -20 35
      vertex 20 0 35
      vertex 20 0 68
    endloop
  endfacet
  facet normal -0 0 1
    outer loop
      vertex 0 12 68
      vertex 20 0 68
      vertex 20 12 68
    endloop
  endfacet
  facet normal 0 0 1
    outer loop
      vertex 0 12 68
      vertex 0 0 68
      vertex 20 0 68
    endloop
  endfacet
  facet normal -0 0 1
    outer loop
      vertex -9.6 9 68
      vertex 0 0 68
      vertex 0 12 68
    endloop
  endfacet
  facet normal 0 0 1
    outer loop
      vertex 0 0 68
      vertex -9.6 9 68
      vertex -9.6 3 68
    endloop
  endfacet
  facet normal 0 1 -0
    outer loop
      vertex 20 12 0
      vertex 0 12 68
      vertex 20 12 68
    endloop
  endfacet
  facet normal 0 1 0
    outer loop
      vertex 0 12 68
      vertex 20 12 0
      vertex 0 12 0
    endloop
  endfacet
  facet normal 1 -0 0
    outer loop
      vertex 20 8.12663 5.54508
      vertex 20 12 0
      vertex 20 8.12663 62.4549
    endloop
  endfacet
  facet normal 1 0 0
    outer loop
      vertex 20 12 0
      vertex 20 8.12663 5.54508
      vertex 20 8.62866 4
    endloop
  endfacet
  facet normal 1 0 0
    outer loop
      vertex 20 0 35
      vertex 20 8.12663 62.4549
      vertex 20 6.8123 61.5
    endloop
  endfacet
  facet normal 1 0 0
    outer loop
      vertex 20 8.12663 62.4549
      vertex 20 0 35
      vertex 20 8.12663 5.54508
    endloop
  endfacet
  facet normal 1 0 0
    outer loop
      vertex 20 0 35
      vertex 20 6.8123 61.5
      vertex 20 5.1877 61.5
    endloop
  endfacet
  facet normal 1 0 0
    outer loop
      vertex 20 8.12663 5.54508
      vertex 20 0 35
      vertex 20 6.8123 6.5
    endloop
  endfacet
  facet normal 1 0 0
    outer loop
      vertex 20 0 35
      vertex 20 5.1877 61.5
      vertex 20 3.87337 62.4549
    endloop
  endfacet
  facet normal 1 0 0
    outer loop
      vertex 20 6.8123 6.5
      vertex 20 0 35
      vertex 20 5.1877 6.5
    endloop
  endfacet
  facet normal 1 0 0
    outer loop
      vertex 20 0 68
      vertex 20 3.87337 62.4549
      vertex 20 3.37134 64
    endloop
  endfacet
  facet normal 1 0 0
    outer loop
      vertex 20 5.1877 6.5
      vertex 20 0 35
      vertex 20 3.87337 5.54508
    endloop
  endfacet
  facet normal 1 0 0
    outer loop
      vertex 20 8.12663 62.4549
      vertex 20 12 68
      vertex 20 8.62866 64
    endloop
  endfacet
  facet normal 1 0 0
    outer loop
      vertex 20 12 68
      vertex 20 8.12663 65.5451
      vertex 20 8.62866 64
    endloop
  endfacet
  facet normal 1 0 0
    outer loop
      vertex 20 12 68
      vertex 20 6.8123 66.5
      vertex 20 8.12663 65.5451
    endloop
  endfacet
  facet normal 1 0 0
    outer loop
      vertex 20 12 68
      vertex 20 5.1877 66.5
      vertex 20 6.8123 66.5
    endloop
  endfacet
  facet normal 1 0 0
    outer loop
      vertex 20 3.87337 62.4549
      vertex 20 0 68
      vertex 20 0 35
    endloop
  endfacet
  facet normal 1 0 0
    outer loop
      vertex 20 3.87337 65.5451
      vertex 20 0 68
      vertex 20 3.37134 64
    endloop
  endfacet
  facet normal 1 0 0
    outer loop
      vertex 20 5.1877 66.5
      vertex 20 0 68
      vertex 20 3.87337 65.5451
    endloop
  endfacet
  facet normal 1 -0 0
    outer loop
      vertex 20 0 68
      vertex 20 5.1877 66.5
      vertex 20 12 68
    endloop
  endfacet
  facet normal 1 0 0
    outer loop
      vertex 20 12 68
      vertex 20 8.12663 62.4549
      vertex 20 12 0
    endloop
  endfacet
  facet normal 1 -0 0
    outer loop
      vertex 20 8.12663 2.45491
      vertex 20 12 0
      vertex 20 8.62866 4
    endloop
  endfacet
  facet normal 1 -0 0
    outer loop
      vertex 20 6.8123 1.5
      vertex 20 12 0
      vertex 20 8.12663 2.45491
    endloop
  endfacet
  facet normal 1 0 0
    outer loop
      vertex 20 5.1877 1.5
      vertex 20 12 0
      vertex 20 6.8123 1.5
    endloop
  endfacet
  facet normal 1 0 0
    outer loop
      vertex 20 0 0
      vertex 20 3.87337 5.54508
      vertex 20 0 35
    endloop
  endfacet
  facet normal 1 0 0
    outer loop
      vertex 20 5.1877 1.5
      vertex 20 0 0
      vertex 20 12 0
    endloop
  endfacet
  facet normal 1 0 0
    outer loop
      vertex 20 3.87337 2.45491
      vertex 20 0 0
      vertex 20 5.1877 1.5
    endloop
  endfacet
  facet normal 1 0 0
    outer loop
      vertex 20 3.37134 4
      vertex 20 0 0
      vertex 20 3.87337 2.45491
    endloop
  endfacet
  facet normal 1 0 0
    outer loop
      vertex 20 3.87337 5.54508
      vertex 20 0 0
      vertex 20 3.37134 4
    endloop
  endfacet
  facet normal -0.271022 0.941538 -0.200131
    outer loop
      vertex -9.6 9.88118 3.03231
      vertex -9.6 9.93923 3.30541
      vertex 0 12 0
    endloop
  endfacet
  facet normal -0.252081 0.958288 -0.134678
    outer loop
      vertex -9.6 9.93923 3.30541
      vertex -9.6 9.97809 3.58189
      vertex 0 12 0
    endloop
  endfacet
  facet normal -0.229809 -0.970865 -0.0678869
    outer loop
      vertex -9.6 2.00244 3.8604
      vertex -9.6 2.02191 3.58189
      vertex 0 0 0
    endloop
  endfacet
  facet normal -0.287397 -0.919671 -0.267598
    outer loop
      vertex -9.6 2.19577 2.76393
      vertex -9.6 3 0
      vertex 0 0 0
    endloop
  endfacet
  facet normal -0.252081 0.958289 0.134677
    outer loop
      vertex -9.6 9.93923 64.6946
      vertex 0 12 68
      vertex -9.6 9.97809 64.4181
    endloop
  endfacet
  facet normal -0.229809 0.970865 -0.0678869
    outer loop
      vertex -9.6 9.97809 3.58189
      vertex -9.6 9.99756 3.8604
      vertex 0 12 0
    endloop
  endfacet
  facet normal -0.271022 -0.941539 0.200131
    outer loop
      vertex -9.6 2.06077 64.6946
      vertex 0 0 68
      vertex -9.6 2.11882 64.9677
    endloop
  endfacet
  facet normal -0.287397 0.919671 -0.267598
    outer loop
      vertex -9.6 9 0
      vertex -9.6 9.80423 2.76393
      vertex 0 12 0
    endloop
  endfacet
  facet normal -0.204192 0.978931 0
    outer loop
      vertex 0 12 68
      vertex -9.6 9.99756 3.8604
      vertex -9.6 9.99756 64.1396
    endloop
  endfacet
  facet normal -0.204192 0.978931 0
    outer loop
      vertex -9.6 9.99756 3.8604
      vertex 0 12 68
      vertex 0 12 0
    endloop
  endfacet
  facet normal -1 0 0
    outer loop
      vertex -9.6 8.12663 62.4549
      vertex -9.6 9.99756 64.1396
      vertex -9.6 8.12663 5.54508
    endloop
  endfacet
  facet normal -1 0 0
    outer loop
      vertex -9.6 9.99756 64.1396
      vertex -9.6 8.12663 62.4549
      vertex -9.6 8.62866 64
    endloop
  endfacet
  facet normal -1 0 0
    outer loop
      vertex -9.6 6.8123 6.5
      vertex -9.6 8.12663 62.4549
      vertex -9.6 8.12663 5.54508
    endloop
  endfacet
  facet normal -1 0 0
    outer loop
      vertex -9.6 6.8123 6.5
      vertex -9.6 6.8123 61.5
      vertex -9.6 8.12663 62.4549
    endloop
  endfacet
  facet normal -1 0 0
    outer loop
      vertex -9.6 5.1877 6.5
      vertex -9.6 6.8123 61.5
      vertex -9.6 6.8123 6.5
    endloop
  endfacet
  facet normal -1 0 0
    outer loop
      vertex -9.6 5.1877 6.5
      vertex -9.6 5.1877 61.5
      vertex -9.6 6.8123 61.5
    endloop
  endfacet
  facet normal -1 0 0
    outer loop
      vertex -9.6 3.87337 5.54508
      vertex -9.6 5.1877 61.5
      vertex -9.6 5.1877 6.5
    endloop
  endfacet
  facet normal -1 0 0
    outer loop
      vertex -9.6 3.87337 5.54508
      vertex -9.6 3.87337 62.4549
      vertex -9.6 5.1877 61.5
    endloop
  endfacet
  facet normal -1 0 0
    outer loop
      vertex -9.6 2.00244 3.8604
      vertex -9.6 3.87337 5.54508
      vertex -9.6 3.37134 4
    endloop
  endfacet
  facet normal -1 -0 0
    outer loop
      vertex -9.6 3.87337 5.54508
      vertex -9.6 2.00244 3.8604
      vertex -9.6 3.87337 62.4549
    endloop
  endfacet
  facet normal -1 0 0
    outer loop
      vertex -9.6 8.62866 4
      vertex -9.6 9.99756 3.8604
      vertex -9.6 9.97809 3.58189
    endloop
  endfacet
  facet normal -1 0 0
    outer loop
      vertex -9.6 8.12663 5.54508
      vertex -9.6 9.99756 3.8604
      vertex -9.6 8.62866 4
    endloop
  endfacet
  facet normal -1 0 0
    outer loop
      vertex -9.6 8.62866 4
      vertex -9.6 9.97809 3.58189
      vertex -9.6 9.93923 3.30541
    endloop
  endfacet
  facet normal -1 0 0
    outer loop
      vertex -9.6 9.99756 3.8604
      vertex -9.6 8.12663 5.54508
      vertex -9.6 9.99756 64.1396
    endloop
  endfacet
  facet normal -1 0 0
    outer loop
      vertex -9.6 8.62866 4
      vertex -9.6 9.93923 3.30541
      vertex -9.6 9.88118 3.03231
    endloop
  endfacet
  facet normal -1 -0 0
    outer loop
      vertex -9.6 9.99756 64.1396
      vertex -9.6 8.62866 64
      vertex -9.6 9.97809 64.4181
    endloop
  endfacet
  facet normal -1 0 0
    outer loop
      vertex -9.6 8.62866 4
      vertex -9.6 9.88118 3.03231
      vertex -9.6 9.80423 2.76393
    endloop
  endfacet
  facet normal -1 -0 0
    outer loop
      vertex -9.6 9.97809 64.4181
      vertex -9.6 8.62866 64
      vertex -9.6 9.93923 64.6946
    endloop
  endfacet
  facet normal -1 0 0
    outer loop
      vertex -9.6 8.12663 2.45491
      vertex -9.6 9.80423 2.76393
      vertex -9.6 9 0
    endloop
  endfacet
  facet normal -1 -0 0
    outer loop
      vertex -9.6 9.93923 64.6946
      vertex -9.6 8.62866 64
      vertex -9.6 9.88118 64.9677
    endloop
  endfacet
  facet normal -1 -0 0
    outer loop
      vertex -9.6 9.88118 64.9677
      vertex -9.6 8.62866 64
      vertex -9.6 9.80423 65.2361
    endloop
  endfacet
  facet normal -1 -0 0
    outer loop
      vertex -9.6 9.80423 2.76393
      vertex -9.6 8.12663 2.45491
      vertex -9.6 8.62866 4
    endloop
  endfacet
  facet normal -1 0 0
    outer loop
      vertex -9.6 9 0
      vertex -9.6 8.1091 2.44218
      vertex -9.6 8.12663 2.45491
    endloop
  endfacet
  facet normal -1 0 0
    outer loop
      vertex -9.6 9 0
      vertex -9.6 6.8123 1.5
      vertex -9.6 8.1091 2.44218
    endloop
  endfacet
  facet normal -1 0 0
    outer loop
      vertex -9.6 9 0
      vertex -9.6 5.20936 1.5
      vertex -9.6 6.8123 1.5
    endloop
  endfacet
  facet normal -1 0 0
    outer loop
      vertex -9.6 3 0
      vertex -9.6 5.20936 1.5
      vertex -9.6 9 0
    endloop
  endfacet
  facet normal -1 0 0
    outer loop
      vertex -9.6 3.87337 2.45491
      vertex -9.6 2.19577 2.76393
      vertex -9.6 3.37134 4
    endloop
  endfacet
  facet normal -1 0 0
    outer loop
      vertex -9.6 2.19577 2.76393
      vertex -9.6 3.87337 2.45491
      vertex -9.6 3 0
    endloop
  endfacet
  facet normal -1 -0 0
    outer loop
      vertex -9.6 5.1877 1.5
      vertex -9.6 3 0
      vertex -9.6 3.87337 2.45491
    endloop
  endfacet
  facet normal -1 -0 0
    outer loop
      vertex -9.6 5.20936 1.5
      vertex -9.6 3 0
      vertex -9.6 5.1877 1.5
    endloop
  endfacet
  facet normal -1 0 0
    outer loop
      vertex -9.6 8.12663 65.5451
      vertex -9.6 9.80423 65.2361
      vertex -9.6 8.62866 64
    endloop
  endfacet
  facet normal -1 0 0
    outer loop
      vertex -9.6 9.80423 65.2361
      vertex -9.6 8.12663 65.5451
      vertex -9.6 9 68
    endloop
  endfacet
  facet normal -1 0 0
    outer loop
      vertex -9.6 6.8123 66.5
      vertex -9.6 9 68
      vertex -9.6 8.12663 65.5451
    endloop
  endfacet
  facet normal -1 0 0
    outer loop
      vertex -9.6 5.1877 66.5
      vertex -9.6 9 68
      vertex -9.6 6.8123 66.5
    endloop
  endfacet
  facet normal -1 0 0
    outer loop
      vertex -9.6 5.1877 66.5
      vertex -9.6 3 68
      vertex -9.6 9 68
    endloop
  endfacet
  facet normal -1 0 0
    outer loop
      vertex -9.6 3.87337 65.5451
      vertex -9.6 3 68
      vertex -9.6 5.1877 66.5
    endloop
  endfacet
  facet normal -1 0 0
    outer loop
      vertex -9.6 2.19577 65.2361
      vertex -9.6 3.87337 65.5451
      vertex -9.6 3.37134 64
    endloop
  endfacet
  facet normal -1 0 0
    outer loop
      vertex -9.6 2.00244 64.1396
      vertex -9.6 3.87337 62.4549
      vertex -9.6 2.00244 3.8604
    endloop
  endfacet
  facet normal -1 0 0
    outer loop
      vertex -9.6 2.11882 3.03231
      vertex -9.6 3.37134 4
      vertex -9.6 2.19577 2.76393
    endloop
  endfacet
  facet normal -1 0 0
    outer loop
      vertex -9.6 3.87337 62.4549
      vertex -9.6 2.00244 64.1396
      vertex -9.6 3.37134 64
    endloop
  endfacet
  facet normal -1 0 0
    outer loop
      vertex -9.6 2.06077 3.30541
      vertex -9.6 3.37134 4
      vertex -9.6 2.11882 3.03231
    endloop
  endfacet
  facet normal -1 0 -0
    outer loop
      vertex -9.6 2.02191 64.4181
      vertex -9.6 3.37134 64
      vertex -9.6 2.00244 64.1396
    endloop
  endfacet
  facet normal -1 0 0
    outer loop
      vertex -9.6 2.02191 3.58189
      vertex -9.6 3.37134 4
      vertex -9.6 2.06077 3.30541
    endloop
  endfacet
  facet normal -1 -0 0
    outer loop
      vertex -9.6 3.87337 65.5451
      vertex -9.6 2.19577 65.2361
      vertex -9.6 3 68
    endloop
  endfacet
  facet normal -1 0 0
    outer loop
      vertex -9.6 3.37134 4
      vertex -9.6 2.02191 3.58189
      vertex -9.6 2.00244 3.8604
    endloop
  endfacet
  facet normal -1 0 0
    outer loop
      vertex -9.6 3.37134 64
      vertex -9.6 2.11882 64.9677
      vertex -9.6 2.19577 65.2361
    endloop
  endfacet
  facet normal -1 0 0
    outer loop
      vertex -9.6 3.37134 64
      vertex -9.6 2.06077 64.6946
      vertex -9.6 2.11882 64.9677
    endloop
  endfacet
  facet normal -1 0 0
    outer loop
      vertex -9.6 3.37134 64
      vertex -9.6 2.02191 64.4181
      vertex -9.6 2.06077 64.6946
    endloop
  endfacet
  facet normal -0.229809 0.970865 0.0678862
    outer loop
      vertex -9.6 9.97809 64.4181
      vertex 0 12 68
      vertex -9.6 9.99756 64.1396
    endloop
  endfacet
  facet normal -0.271022 -0.941539 -0.200131
    outer loop
      vertex -9.6 2.06077 3.30541
      vertex -9.6 2.11882 3.03231
      vertex 0 0 0
    endloop
  endfacet
  facet normal -0.204192 -0.978931 0
    outer loop
      vertex -9.6 2.00244 64.1396
      vertex 0 0 36
      vertex 0 0 68
    endloop
  endfacet
  facet normal -0.204192 -0.978931 0
    outer loop
      vertex -9.6 2.00244 3.8604
      vertex 0 0 36
      vertex -9.6 2.00244 64.1396
    endloop
  endfacet
  facet normal -0.204192 -0.978931 -0
    outer loop
      vertex 0 0 36
      vertex -9.6 2.00244 3.8604
      vertex 0 0 6
    endloop
  endfacet
  facet normal -0.204192 -0.978931 -0
    outer loop
      vertex 0 0 6
      vertex -9.6 2.00244 3.8604
      vertex 0 0 0
    endloop
  endfacet
  facet normal -0.252081 -0.958289 0.134677
    outer loop
      vertex -9.6 2.02191 64.4181
      vertex 0 0 68
      vertex -9.6 2.06077 64.6946
    endloop
  endfacet
  facet normal -0.229809 -0.970865 0.0678862
    outer loop
      vertex -9.6 2.00244 64.1396
      vertex 0 0 68
      vertex -9.6 2.02191 64.4181
    endloop
  endfacet
  facet normal -0.287397 -0.919671 0.267598
    outer loop
      vertex -9.6 2.19577 65.2361
      vertex 0 0 68
      vertex -9.6 3 68
    endloop
  endfacet
  facet normal -0.286666 -0.920918 0.26407
    outer loop
      vertex -9.6 2.11882 64.9677
      vertex 0 0 68
      vertex -9.6 2.19577 65.2361
    endloop
  endfacet
  facet normal -0.286666 0.920918 -0.264068
    outer loop
      vertex -9.6 9.80423 2.76393
      vertex -9.6 9.88118 3.03231
      vertex 0 12 0
    endloop
  endfacet
  facet normal -0.286666 -0.920918 -0.264068
    outer loop
      vertex -9.6 2.11882 3.03231
      vertex -9.6 2.19577 2.76393
      vertex 0 0 0
    endloop
  endfacet
  facet normal -0.252081 -0.958289 -0.134678
    outer loop
      vertex -9.6 2.02191 3.58189
      vertex -9.6 2.06077 3.30541
      vertex 0 0 0
    endloop
  endfacet
  facet normal -0.271022 0.941539 0.200131
    outer loop
      vertex -9.6 9.88118 64.9677
      vertex 0 12 68
      vertex -9.6 9.93923 64.6946
    endloop
  endfacet
  facet normal -0.286666 0.920918 0.26407
    outer loop
      vertex -9.6 9.80423 65.2361
      vertex 0 12 68
      vertex -9.6 9.88118 64.9677
    endloop
  endfacet
  facet normal -0.287397 0.919671 0.267598
    outer loop
      vertex -9.6 9 68
      vertex 0 12 68
      vertex -9.6 9.80423 65.2361
    endloop
  endfacet
  facet normal 0 -0.951057 -0.309017
    outer loop
      vertex -9.6 8.62866 4
      vertex 20 8.12663 5.54508
      vertex -9.6 8.12663 5.54508
    endloop
  endfacet
  facet normal 0 -0.951057 -0.309017
    outer loop
      vertex 20 8.12663 5.54508
      vertex -9.6 8.62866 4
      vertex 20 8.62866 4
    endloop
  endfacet
  facet normal 0 -0.587785 -0.809017
    outer loop
      vertex -9.6 6.8123 6.5
      vertex 20 8.12663 5.54508
      vertex 20 6.8123 6.5
    endloop
  endfacet
  facet normal -0 -0.587785 -0.809017
    outer loop
      vertex 20 8.12663 5.54508
      vertex -9.6 6.8123 6.5
      vertex -9.6 8.12663 5.54508
    endloop
  endfacet
  facet normal 0 0.951057 0.309017
    outer loop
      vertex 20 3.87337 2.45491
      vertex -9.6 3.37134 4
      vertex 20 3.37134 4
    endloop
  endfacet
  facet normal 0 0.951057 0.309017
    outer loop
      vertex -9.6 3.37134 4
      vertex 20 3.87337 2.45491
      vertex -9.6 3.87337 2.45491
    endloop
  endfacet
  facet normal -0 0.587785 0.809017
    outer loop
      vertex -9.6 5.1877 1.5
      vertex 20 3.87337 2.45491
      vertex 20 5.1877 1.5
    endloop
  endfacet
  facet normal 0 0.587785 0.809017
    outer loop
      vertex 20 3.87337 2.45491
      vertex -9.6 5.1877 1.5
      vertex -9.6 3.87337 2.45491
    endloop
  endfacet
  facet normal 0 -0.951057 0.309017
    outer loop
      vertex -9.6 8.12663 2.45491
      vertex 20 8.62866 4
      vertex -9.6 8.62866 4
    endloop
  endfacet
  facet normal 0 -0.951057 0.309017
    outer loop
      vertex 20 8.62866 4
      vertex -9.6 8.12663 2.45491
      vertex 20 8.12663 2.45491
    endloop
  endfacet
  facet normal 0 0.951057 -0.309017
    outer loop
      vertex 20 3.37134 4
      vertex -9.6 3.87337 5.54508
      vertex 20 3.87337 5.54508
    endloop
  endfacet
  facet normal 0 0.951057 -0.309017
    outer loop
      vertex -9.6 3.87337 5.54508
      vertex 20 3.37134 4
      vertex -9.6 3.37134 4
    endloop
  endfacet
  facet normal 0 -0.58778 0.809021
    outer loop
      vertex -9.6 8.1091 2.44218
      vertex 20 8.12663 2.45491
      vertex -9.6 8.12663 2.45491
    endloop
  endfacet
  facet normal 4.99298e-09 -0.587785 0.809017
    outer loop
      vertex 20 8.12663 2.45491
      vertex -9.6 8.1091 2.44218
      vertex 20 6.8123 1.5
    endloop
  endfacet
  facet normal 0 0 -1
    outer loop
      vertex -9.6 5.1877 6.5
      vertex 20 6.8123 6.5
      vertex 20 5.1877 6.5
    endloop
  endfacet
  facet normal -0 0 -1
    outer loop
      vertex 20 6.8123 6.5
      vertex -9.6 5.1877 6.5
      vertex -9.6 6.8123 6.5
    endloop
  endfacet
  facet normal 0 0.587785 -0.809017
    outer loop
      vertex -9.6 3.87337 5.54508
      vertex 20 5.1877 6.5
      vertex 20 3.87337 5.54508
    endloop
  endfacet
  facet normal 0 0.587785 -0.809017
    outer loop
      vertex 20 5.1877 6.5
      vertex -9.6 3.87337 5.54508
      vertex -9.6 5.1877 6.5
    endloop
  endfacet
  facet normal 2.60655e-08 -0.587785 0.809017
    outer loop
      vertex -9.6 6.8123 1.5
      vertex 20 6.8123 1.5
      vertex -9.6 8.1091 2.44218
    endloop
  endfacet
  facet normal 3.22187e-08 -0 1
    outer loop
      vertex -9.6 5.20936 1.5
      vertex 20 6.8123 1.5
      vertex -9.6 6.8123 1.5
    endloop
  endfacet
  facet normal 4.29582e-10 5.87022e-07 1
    outer loop
      vertex -9.6 5.20936 1.5
      vertex 20 5.1877 1.5
      vertex 20 6.8123 1.5
    endloop
  endfacet
  facet normal 0 0 1
    outer loop
      vertex 20 5.1877 1.5
      vertex -9.6 5.20936 1.5
      vertex -9.6 5.1877 1.5
    endloop
  endfacet
  facet normal 0 -0.951056 -0.309017
    outer loop
      vertex -9.6 8.62866 64
      vertex 20 8.12663 65.5451
      vertex -9.6 8.12663 65.5451
    endloop
  endfacet
  facet normal 0 -0.951056 -0.309017
    outer loop
      vertex 20 8.12663 65.5451
      vertex -9.6 8.62866 64
      vertex 20 8.62866 64
    endloop
  endfacet
  facet normal 0 -0.587786 -0.809016
    outer loop
      vertex -9.6 6.8123 66.5
      vertex 20 8.12663 65.5451
      vertex 20 6.8123 66.5
    endloop
  endfacet
  facet normal -0 -0.587786 -0.809016
    outer loop
      vertex 20 8.12663 65.5451
      vertex -9.6 6.8123 66.5
      vertex -9.6 8.12663 65.5451
    endloop
  endfacet
  facet normal 0 0.951057 0.309017
    outer loop
      vertex 20 3.87337 62.4549
      vertex -9.6 3.37134 64
      vertex 20 3.37134 64
    endloop
  endfacet
  facet normal 0 0.951057 0.309017
    outer loop
      vertex -9.6 3.37134 64
      vertex 20 3.87337 62.4549
      vertex -9.6 3.87337 62.4549
    endloop
  endfacet
  facet normal 0 -0.951057 0.309017
    outer loop
      vertex -9.6 8.12663 62.4549
      vertex 20 8.62866 64
      vertex -9.6 8.62866 64
    endloop
  endfacet
  facet normal 0 -0.951057 0.309017
    outer loop
      vertex 20 8.62866 64
      vertex -9.6 8.12663 62.4549
      vertex 20 8.12663 62.4549
    endloop
  endfacet
  facet normal 0 0.951056 -0.309017
    outer loop
      vertex 20 3.37134 64
      vertex -9.6 3.87337 65.5451
      vertex 20 3.87337 65.5451
    endloop
  endfacet
  facet normal 0 0.951056 -0.309017
    outer loop
      vertex -9.6 3.87337 65.5451
      vertex 20 3.37134 64
      vertex -9.6 3.37134 64
    endloop
  endfacet
  facet normal -0 0.587785 0.809017
    outer loop
      vertex -9.6 5.1877 61.5
      vertex 20 3.87337 62.4549
      vertex 20 5.1877 61.5
    endloop
  endfacet
  facet normal 0 0.587785 0.809017
    outer loop
      vertex 20 3.87337 62.4549
      vertex -9.6 5.1877 61.5
      vertex -9.6 3.87337 62.4549
    endloop
  endfacet
  facet normal -0 0 1
    outer loop
      vertex -9.6 6.8123 61.5
      vertex 20 5.1877 61.5
      vertex 20 6.8123 61.5
    endloop
  endfacet
  facet normal 0 0 1
    outer loop
      vertex 20 5.1877 61.5
      vertex -9.6 6.8123 61.5
      vertex -9.6 5.1877 61.5
    endloop
  endfacet
  facet normal 0 -0.587785 0.809017
    outer loop
      vertex -9.6 8.12663 62.4549
      vertex 20 6.8123 61.5
      vertex 20 8.12663 62.4549
    endloop
  endfacet
  facet normal 0 -0.587785 0.809017
    outer loop
      vertex 20 6.8123 61.5
      vertex -9.6 8.12663 62.4549
      vertex -9.6 6.8123 61.5
    endloop
  endfacet
  facet normal 0 0 -1
    outer loop
      vertex -9.6 5.1877 66.5
      vertex 20 6.8123 66.5
      vertex 20 5.1877 66.5
    endloop
  endfacet
  facet normal -0 0 -1
    outer loop
      vertex 20 6.8123 66.5
      vertex -9.6 5.1877 66.5
      vertex -9.6 6.8123 66.5
    endloop
  endfacet
  facet normal 0 0.587786 -0.809016
    outer loop
      vertex -9.6 3.87337 65.5451
      vertex 20 5.1877 66.5
      vertex 20 3.87337 65.5451
    endloop
  endfacet
  facet normal 0 0.587786 -0.809016
    outer loop
      vertex 20 5.1877 66.5
      vertex -9.6 3.87337 65.5451
      vertex -9.6 5.1877 66.5
    endloop
  endfacet
  facet normal 0 0 1
    outer loop
      vertex 15 0 6
      vertex 5.86602 -3.5 6
      vertex 6.73205 -5 6
    endloop
  endfacet
  facet normal -0 0 1
    outer loop
      vertex 0 0 6
      vertex 5.86602 -3.5 6
      vertex 15 0 6
    endloop
  endfacet
  facet normal 0 0 1
    outer loop
      vertex 0.547165 -4.59795 6
      vertex 0 0 6
      vertex 0.291047 -5 6
    endloop
  endfacet
  facet normal 0 0 1
    outer loop
      vertex 1.2466 -3.5 6
      vertex 0 0 6
      vertex 0.547165 -4.59795 6
    endloop
  endfacet
  facet normal 0 0 1
    outer loop
      vertex 5.86602 -3.5 6
      vertex 0 0 6
      vertex 1.2466 -3.5 6
    endloop
  endfacet
  facet normal 0 0 1
    outer loop
      vertex 5.86602 -6.5 6
      vertex 15 0 6
      vertex 6.73205 -5 6
    endloop
  endfacet
  facet normal -0 0 1
    outer loop
      vertex 5.86602 -6.5 6
      vertex 0 -20 6
      vertex 15 0 6
    endloop
  endfacet
  facet normal -0 0 1
    outer loop
      vertex 1.2466 -6.5 6
      vertex 0 -20 6
      vertex 5.86602 -6.5 6
    endloop
  endfacet
  facet normal 0 0 1
    outer loop
      vertex 0.547165 -5.40205 6
      vertex 0 -20 6
      vertex 1.2466 -6.5 6
    endloop
  endfacet
  facet normal 0 0 1
    outer loop
      vertex 0.291047 -5 6
      vertex 0 -20 6
      vertex 0.547165 -5.40205 6
    endloop
  endfacet
  facet normal 0 0 1
    outer loop
      vertex 0 -20 6
      vertex 0.291047 -5 6
      vertex 0 0 6
    endloop
  endfacet
  facet normal -0.742781 0.557086 -0.371391
    outer loop
      vertex 0 -20 6
      vertex 0 0 36
      vertex 15 0 6
    endloop
  endfacet
  facet normal 0 -1 0
    outer loop
      vertex 0 0 6
      vertex 15 0 6
      vertex 0 0 36
    endloop
  endfacet
  facet normal -0.866026 -0.5 0
    outer loop
      vertex 6.73205 -5 0
      vertex 5.86602 -3.5 6
      vertex 5.86602 -3.5 0
    endloop
  endfacet
  facet normal -0.866026 -0.5 0
    outer loop
      vertex 5.86602 -3.5 6
      vertex 6.73205 -5 0
      vertex 6.73205 -5 6
    endloop
  endfacet
  facet normal -0.866026 0.5 0
    outer loop
      vertex 5.86602 -6.5 0
      vertex 6.73205 -5 6
      vertex 6.73205 -5 0
    endloop
  endfacet
  facet normal -0.866026 0.5 0
    outer loop
      vertex 6.73205 -5 6
      vertex 5.86602 -6.5 0
      vertex 5.86602 -6.5 6
    endloop
  endfacet
  facet normal 0.784885 0.5 0.365998
    outer loop
      vertex 1.2466 -6.5 6
      vertex 4.00423 -6.43688 0
      vertex 0.547165 -5.40205 6
    endloop
  endfacet
  facet normal 0.784884 0.500003 0.365997
    outer loop
      vertex 4.00423 -6.43688 0
      vertex 1.2466 -6.5 6
      vertex 4.04445 -6.5 0
    endloop
  endfacet
  facet normal 0 1 0
    outer loop
      vertex 4.04445 -6.5 0
      vertex 5.86602 -6.5 6
      vertex 5.86602 -6.5 0
    endloop
  endfacet
  facet normal 0 1 0
    outer loop
      vertex 5.86602 -6.5 6
      vertex 4.04445 -6.5 0
      vertex 1.2466 -6.5 6
    endloop
  endfacet
  facet normal 0 -1 0
    outer loop
      vertex 4.04445 -3.5 0
      vertex 5.86602 -3.5 6
      vertex 1.2466 -3.5 6
    endloop
  endfacet
  facet normal 0 -1 -0
    outer loop
      vertex 5.86602 -3.5 6
      vertex 4.04445 -3.5 0
      vertex 5.86602 -3.5 0
    endloop
  endfacet
  facet normal 0.784886 -0.5 0.365998
    outer loop
      vertex 3.08889 -5 0
      vertex 0.547165 -4.59795 6
      vertex 0.291047 -5 6
    endloop
  endfacet
  facet normal 0.784886 -0.5 0.365998
    outer loop
      vertex 0.547165 -4.59795 6
      vertex 3.08889 -5 0
      vertex 4.00423 -3.56312 0
    endloop
  endfacet
  facet normal 0.784884 -0.500003 0.365997
    outer loop
      vertex 1.2466 -3.5 6
      vertex 4.00423 -3.56312 0
      vertex 4.04445 -3.5 0
    endloop
  endfacet
  facet normal 0.784885 -0.5 0.365998
    outer loop
      vertex 4.00423 -3.56312 0
      vertex 1.2466 -3.5 6
      vertex 0.547165 -4.59795 6
    endloop
  endfacet
  facet normal 0.784886 0.5 0.365998
    outer loop
      vertex 0.547165 -5.40205 6
      vertex 3.08889 -5 0
      vertex 0.291047 -5 6
    endloop
  endfacet
  facet normal 0.784886 0.5 0.365998
    outer loop
      vertex 3.08889 -5 0
      vertex 0.547165 -5.40205 6
      vertex 4.00423 -6.43688 0
    endloop
  endfacet
  facet normal -0.923879 0.382684 0
    outer loop
      vertex 61.5307 -11.5307 0
      vertex 62.1648 -10 6
      vertex 62.1648 -10 0
    endloop
  endfacet
  facet normal -0.923879 0.382684 0
    outer loop
      vertex 62.1648 -10 6
      vertex 61.5307 -11.5307 0
      vertex 61.5307 -11.5307 6
    endloop
  endfacet
  facet normal 0.382683 0.92388 -0
    outer loop
      vertex 60 -12.1648 0
      vertex 58.4693 -11.5307 6
      vertex 60 -12.1648 6
    endloop
  endfacet
  facet normal 0.382683 0.92388 0
    outer loop
      vertex 58.4693 -11.5307 6
      vertex 60 -12.1648 0
      vertex 58.4693 -11.5307 0
    endloop
  endfacet
  facet normal -0.382684 0.923879 0
    outer loop
      vertex 61.5307 -11.5307 0
      vertex 60 -12.1648 6
      vertex 61.5307 -11.5307 6
    endloop
  endfacet
  facet normal -0.382684 0.923879 0
    outer loop
      vertex 60 -12.1648 6
      vertex 61.5307 -11.5307 0
      vertex 60 -12.1648 0
    endloop
  endfacet
  facet normal 0.92388 0.382682 0
    outer loop
      vertex 58.4693 -11.5307 6
      vertex 57.8352 -10 0
      vertex 57.8352 -10 6
    endloop
  endfacet
  facet normal 0.92388 0.382682 0
    outer loop
      vertex 57.8352 -10 0
      vertex 58.4693 -11.5307 6
      vertex 58.4693 -11.5307 0
    endloop
  endfacet
  facet normal -0.923879 -0.382684 0
    outer loop
      vertex 62.1648 -10 0
      vertex 61.5307 -8.46927 6
      vertex 61.5307 -8.46927 0
    endloop
  endfacet
  facet normal -0.923879 -0.382684 0
    outer loop
      vertex 61.5307 -8.46927 6
      vertex 62.1648 -10 0
      vertex 62.1648 -10 6
    endloop
  endfacet
  facet normal 0.382683 -0.92388 0
    outer loop
      vertex 58.4693 -8.46927 0
      vertex 60 -7.83522 6
      vertex 58.4693 -8.46927 6
    endloop
  endfacet
  facet normal 0.382683 -0.92388 0
    outer loop
      vertex 60 -7.83522 6
      vertex 58.4693 -8.46927 0
      vertex 60 -7.83522 0
    endloop
  endfacet
  facet normal 0.92388 -0.382682 0
    outer loop
      vertex 57.8352 -10 6
      vertex 58.4693 -8.46927 0
      vertex 58.4693 -8.46927 6
    endloop
  endfacet
  facet normal 0.92388 -0.382682 0
    outer loop
      vertex 58.4693 -8.46927 0
      vertex 57.8352 -10 6
      vertex 57.8352 -10 0
    endloop
  endfacet
  facet normal -0.382684 -0.923879 0
    outer loop
      vertex 60 -7.83522 0
      vertex 61.5307 -8.46927 6
      vertex 60 -7.83522 6
    endloop
  endfacet
  facet normal -0.382684 -0.923879 -0
    outer loop
      vertex 61.5307 -8.46927 6
      vertex 60 -7.83522 0
      vertex 61.5307 -8.46927 0
    endloop
  endfacet
  facet normal -0.923879 0.382684 0
    outer loop
      vertex 11.5307 -61.5307 0
      vertex 12.1648 -60 6
      vertex 12.1648 -60 0
    endloop
  endfacet
  facet normal -0.923879 0.382684 0
    outer loop
      vertex 12.1648 -60 6
      vertex 11.5307 -61.5307 0
      vertex 11.5307 -61.5307 6
    endloop
  endfacet
  facet normal 0.382684 0.923879 -0
    outer loop
      vertex 10 -62.1648 0
      vertex 8.46927 -61.5307 6
      vertex 10 -62.1648 6
    endloop
  endfacet
  facet normal 0.382684 0.923879 0
    outer loop
      vertex 8.46927 -61.5307 6
      vertex 10 -62.1648 0
      vertex 8.46927 -61.5307 0
    endloop
  endfacet
  facet normal -0.382684 0.923879 0
    outer loop
      vertex 11.5307 -61.5307 0
      vertex 10 -62.1648 6
      vertex 11.5307 -61.5307 6
    endloop
  endfacet
  facet normal -0.382684 0.923879 0
    outer loop
      vertex 10 -62.1648 6
      vertex 11.5307 -61.5307 0
      vertex 10 -62.1648 0
    endloop
  endfacet
  facet normal 0.923879 0.382684 0
    outer loop
      vertex 8.46927 -61.5307 6
      vertex 7.83522 -60 0
      vertex 7.83522 -60 6
    endloop
  endfacet
  facet normal 0.923879 0.382684 0
    outer loop
      vertex 7.83522 -60 0
      vertex 8.46927 -61.5307 6
      vertex 8.46927 -61.5307 0
    endloop
  endfacet
  facet normal -0.92388 -0.382683 0
    outer loop
      vertex 12.1648 -60 0
      vertex 11.5307 -58.4693 6
      vertex 11.5307 -58.4693 0
    endloop
  endfacet
  facet normal -0.92388 -0.382683 0
    outer loop
      vertex 11.5307 -58.4693 6
      vertex 12.1648 -60 0
      vertex 12.1648 -60 6
    endloop
  endfacet
  facet normal 0.382682 -0.92388 0
    outer loop
      vertex 8.46927 -58.4693 0
      vertex 10 -57.8352 6
      vertex 8.46927 -58.4693 6
    endloop
  endfacet
  facet normal 0.382682 -0.92388 0
    outer loop
      vertex 10 -57.8352 6
      vertex 8.46927 -58.4693 0
      vertex 10 -57.8352 0
    endloop
  endfacet
  facet normal 0.92388 -0.382683 0
    outer loop
      vertex 7.83522 -60 6
      vertex 8.46927 -58.4693 0
      vertex 8.46927 -58.4693 6
    endloop
  endfacet
  facet normal 0.92388 -0.382683 0
    outer loop
      vertex 8.46927 -58.4693 0
      vertex 7.83522 -60 6
      vertex 7.83522 -60 0
    endloop
  endfacet
  facet normal -0.382682 -0.92388 0
    outer loop
      vertex 10 -57.8352 0
      vertex 11.5307 -58.4693 6
      vertex 10 -57.8352 6
    endloop
  endfacet
  facet normal -0.382682 -0.92388 -0
    outer loop
      vertex 11.5307 -58.4693 6
      vertex 10 -57.8352 0
      vertex 11.5307 -58.4693 0
    endloop
  endfacet
endsolid OpenSCAD_Model
