solid OpenSCAD_Model
  facet normal -1 4.29911e-09 -1.23108e-07
    outer loop
      vertex 3 0 9
      vertex 3 -8.9507 0.940756
      vertex 3 -0.627808 8.97808
    endloop
  endfacet
  facet normal 0 0.939692 0.342021
    outer loop
      vertex -3 8.55951 2.78115
      vertex -3.875 8.34465 3.37146
      vertex -3 8.34465 3.37146
    endloop
  endfacet
  facet normal 0 0.939692 0.342021
    outer loop
      vertex -3.875 8.34465 3.37146
      vertex -3 8.55951 2.78115
      vertex -3.875 8.55951 2.78115
    endloop
  endfacet
  facet normal 0 0.939692 0.342021
    outer loop
      vertex 3.875 8.55951 2.78115
      vertex 3 8.34465 3.37146
      vertex 3.875 8.34465 3.37146
    endloop
  endfacet
  facet normal 0 0.939692 0.342021
    outer loop
      vertex 3 8.34465 3.37146
      vertex 3.875 8.55951 2.78115
      vertex 3 8.55951 2.78115
    endloop
  endfacet
  facet normal -0 0.374607 0.927184
    outer loop
      vertex -3.875 3.66063 8.22191
      vertex -3 3.07818 8.45723
      vertex -3 3.66063 8.22191
    endloop
  endfacet
  facet normal 0 0.374607 0.927184
    outer loop
      vertex -3 3.07818 8.45723
      vertex -3.875 3.66063 8.22191
      vertex -3.875 3.07818 8.45723
    endloop
  endfacet
  facet normal -0 0.374607 0.927184
    outer loop
      vertex 3 3.66063 8.22191
      vertex 3.875 3.07818 8.45723
      vertex 3.875 3.66063 8.22191
    endloop
  endfacet
  facet normal 0 0.374607 0.927184
    outer loop
      vertex 3.875 3.07818 8.45723
      vertex 3 3.66063 8.22191
      vertex 3 3.07818 8.45723
    endloop
  endfacet
  facet normal 0 0.882948 0.469471
    outer loop
      vertex -3 8.08915 3.94534
      vertex -3.875 7.79423 4.5
      vertex -3 7.79423 4.5
    endloop
  endfacet
  facet normal 0 0.882948 0.469471
    outer loop
      vertex -3.875 7.79423 4.5
      vertex -3 8.08915 3.94534
      vertex -3.875 8.08915 3.94534
    endloop
  endfacet
  facet normal 0 0.882948 0.469471
    outer loop
      vertex 3.875 8.08915 3.94534
      vertex 3 7.79423 4.5
      vertex 3.875 7.79423 4.5
    endloop
  endfacet
  facet normal 0 0.882948 0.469471
    outer loop
      vertex 3 7.79423 4.5
      vertex 3.875 8.08915 3.94534
      vertex 3 8.08915 3.94534
    endloop
  endfacet
  facet normal -1 -1.2872e-07 -2.2295e-07
    outer loop
      vertex 3 4.76927 7.63243
      vertex 3 8.9507 0.940756
      vertex 3 4.22524 7.94653
    endloop
  endfacet
  facet normal 0 -0.66913 0.743145
    outer loop
      vertex -3.875 -5.78509 6.8944
      vertex -3 -6.25192 6.47406
      vertex -3 -5.78509 6.8944
    endloop
  endfacet
  facet normal 0 -0.66913 0.743145
    outer loop
      vertex -3 -6.25192 6.47406
      vertex -3.875 -5.78509 6.8944
      vertex -3.875 -6.25192 6.47406
    endloop
  endfacet
  facet normal 0 -0.66913 0.743145
    outer loop
      vertex 3 -5.78509 6.8944
      vertex 3.875 -6.25192 6.47406
      vertex 3.875 -5.78509 6.8944
    endloop
  endfacet
  facet normal 0 -0.66913 0.743145
    outer loop
      vertex 3.875 -6.25192 6.47406
      vertex 3 -5.78509 6.8944
      vertex 3 -6.25192 6.47406
    endloop
  endfacet
  facet normal -1 -3.89961e-08 -1.56405e-07
    outer loop
      vertex 3 2.48074 8.65135
      vertex 3 8.9507 0.940756
      vertex 3 1.8712 8.80333
    endloop
  endfacet
  facet normal -0 0.66913 0.743145
    outer loop
      vertex -3.875 6.25192 6.47406
      vertex -3 5.78509 6.8944
      vertex -3 6.25192 6.47406
    endloop
  endfacet
  facet normal 0 0.66913 0.743145
    outer loop
      vertex -3 5.78509 6.8944
      vertex -3.875 6.25192 6.47406
      vertex -3.875 5.78509 6.8944
    endloop
  endfacet
  facet normal -0 0.66913 0.743145
    outer loop
      vertex 3 6.25192 6.47406
      vertex 3.875 5.78509 6.8944
      vertex 3.875 6.25192 6.47406
    endloop
  endfacet
  facet normal 0 0.66913 0.743145
    outer loop
      vertex 3.875 5.78509 6.8944
      vertex 3 6.25192 6.47406
      vertex 3 5.78509 6.8944
    endloop
  endfacet
  facet normal -1 -6.98475e-06 -2.00284e-06
    outer loop
      vertex 3 8.73266 2.1773
      vertex 3 8.9507 0.940756
      vertex 3 8.55951 2.78115
    endloop
  endfacet
  facet normal 0 0.978148 0.207911
    outer loop
      vertex 3.875 8.86327 1.56283
      vertex 3 8.73266 2.1773
      vertex 3.875 8.73266 2.1773
    endloop
  endfacet
  facet normal 0 0.978148 0.207911
    outer loop
      vertex 3 8.73266 2.1773
      vertex 3.875 8.86327 1.56283
      vertex 3 8.86327 1.56283
    endloop
  endfacet
  facet normal 0 0.978148 0.207911
    outer loop
      vertex -3 8.86327 1.56283
      vertex -3.875 8.73266 2.1773
      vertex -3 8.73266 2.1773
    endloop
  endfacet
  facet normal 0 0.978148 0.207911
    outer loop
      vertex -3.875 8.73266 2.1773
      vertex -3 8.86327 1.56283
      vertex -3.875 8.86327 1.56283
    endloop
  endfacet
  facet normal -1 3.60602e-07 -3.48229e-07
    outer loop
      vertex 3 -6.25192 6.47406
      vertex 3 -8.9507 0.940756
      vertex 3 -6.6883 6.02217
    endloop
  endfacet
  facet normal 0 1 -0
    outer loop
      vertex -3 8.99452 0
      vertex -3.875 8.99452 0.314095
      vertex -3 8.99452 0.314095
    endloop
  endfacet
  facet normal 0 1 0
    outer loop
      vertex -3.875 8.99452 0.314095
      vertex -3 8.99452 0
      vertex -3.875 8.99452 0
    endloop
  endfacet
  facet normal 0 1 -0
    outer loop
      vertex 3.875 8.99452 0
      vertex 3 8.99452 0.314095
      vertex 3.875 8.99452 0.314095
    endloop
  endfacet
  facet normal 0 1 0
    outer loop
      vertex 3 8.99452 0.314095
      vertex 3.875 8.99452 0
      vertex 3 8.99452 0
    endloop
  endfacet
  facet normal -0 0.0349003 0.999391
    outer loop
      vertex 3 0.627808 8.97808
      vertex 3.875 0 9
      vertex 3.875 0.627808 8.97808
    endloop
  endfacet
  facet normal 0 0.0349003 0.999391
    outer loop
      vertex 3.875 0 9
      vertex 3 0.627808 8.97808
      vertex 3 0 9
    endloop
  endfacet
  facet normal -0 0.0349003 0.999391
    outer loop
      vertex -3.875 0.627808 8.97808
      vertex -3 0 9
      vertex -3 0.627808 8.97808
    endloop
  endfacet
  facet normal 0 0.0349003 0.999391
    outer loop
      vertex -3 0 9
      vertex -3.875 0.627808 8.97808
      vertex -3.875 0 9
    endloop
  endfacet
  facet normal -0 0.309016 0.951057
    outer loop
      vertex -3.875 3.07818 8.45723
      vertex -3 2.48074 8.65135
      vertex -3 3.07818 8.45723
    endloop
  endfacet
  facet normal 0 0.309016 0.951057
    outer loop
      vertex -3 2.48074 8.65135
      vertex -3.875 3.07818 8.45723
      vertex -3.875 2.48074 8.65135
    endloop
  endfacet
  facet normal -0 0.309016 0.951057
    outer loop
      vertex 3 3.07818 8.45723
      vertex 3.875 2.48074 8.65135
      vertex 3.875 3.07818 8.45723
    endloop
  endfacet
  facet normal 0 0.309016 0.951057
    outer loop
      vertex 3.875 2.48074 8.65135
      vertex 3 3.07818 8.45723
      vertex 3 2.48074 8.65135
    endloop
  endfacet
  facet normal -1 -2.54236e-08 -1.44184e-07
    outer loop
      vertex 3 1.8712 8.80333
      vertex 3 8.9507 0.940756
      vertex 3 1.25256 8.91241
    endloop
  endfacet
  facet normal -0 0.173648 0.984808
    outer loop
      vertex -3.875 1.8712 8.80333
      vertex -3 1.25256 8.91241
      vertex -3 1.8712 8.80333
    endloop
  endfacet
  facet normal 0 0.173648 0.984808
    outer loop
      vertex -3 1.25256 8.91241
      vertex -3.875 1.8712 8.80333
      vertex -3.875 1.25256 8.91241
    endloop
  endfacet
  facet normal -0 0.173648 0.984808
    outer loop
      vertex 3 1.8712 8.80333
      vertex 3.875 1.25256 8.91241
      vertex 3.875 1.8712 8.80333
    endloop
  endfacet
  facet normal 0 0.173648 0.984808
    outer loop
      vertex 3.875 1.25256 8.91241
      vertex 3 1.8712 8.80333
      vertex 3 1.25256 8.91241
    endloop
  endfacet
  facet normal -0 0.5 0.866025
    outer loop
      vertex 3 4.76927 7.63243
      vertex 3.875 4.22524 7.94653
      vertex 3.875 4.76927 7.63243
    endloop
  endfacet
  facet normal 0 0.5 0.866025
    outer loop
      vertex 3.875 4.22524 7.94653
      vertex 3 4.76927 7.63243
      vertex 3 4.22524 7.94653
    endloop
  endfacet
  facet normal -0 0.5 0.866025
    outer loop
      vertex -3.875 4.76927 7.63243
      vertex -3 4.22524 7.94653
      vertex -3 4.76927 7.63243
    endloop
  endfacet
  facet normal 0 0.5 0.866025
    outer loop
      vertex -3 4.22524 7.94653
      vertex -3.875 4.76927 7.63243
      vertex -3.875 4.22524 7.94653
    endloop
  endfacet
  facet normal -0 0.559192 0.829038
    outer loop
      vertex 3 5.29007 7.28115
      vertex 3.875 4.76927 7.63243
      vertex 3.875 5.29007 7.28115
    endloop
  endfacet
  facet normal 0 0.559192 0.829038
    outer loop
      vertex 3.875 4.76927 7.63243
      vertex 3 5.29007 7.28115
      vertex 3 4.76927 7.63243
    endloop
  endfacet
  facet normal -0 0.559192 0.829038
    outer loop
      vertex -3.875 5.29007 7.28115
      vertex -3 4.76927 7.63243
      vertex -3 5.29007 7.28115
    endloop
  endfacet
  facet normal 0 0.559192 0.829038
    outer loop
      vertex -3 4.76927 7.63243
      vertex -3.875 5.29007 7.28115
      vertex -3.875 4.76927 7.63243
    endloop
  endfacet
  facet normal 0 0.848048 0.529919
    outer loop
      vertex -3 7.79423 4.5
      vertex -3.875 7.46134 5.03274
      vertex -3 7.46134 5.03274
    endloop
  endfacet
  facet normal 0 0.848048 0.529919
    outer loop
      vertex -3.875 7.46134 5.03274
      vertex -3 7.79423 4.5
      vertex -3.875 7.79423 4.5
    endloop
  endfacet
  facet normal 0 0.848048 0.529919
    outer loop
      vertex 3.875 7.79423 4.5
      vertex 3 7.46134 5.03274
      vertex 3.875 7.46134 5.03274
    endloop
  endfacet
  facet normal 0 0.848048 0.529919
    outer loop
      vertex 3 7.46134 5.03274
      vertex 3.875 7.79423 4.5
      vertex 3 7.79423 4.5
    endloop
  endfacet
  facet normal 0 0.961262 0.275637
    outer loop
      vertex -3 8.73266 2.1773
      vertex -3.875 8.55951 2.78115
      vertex -3 8.55951 2.78115
    endloop
  endfacet
  facet normal 0 0.961262 0.275637
    outer loop
      vertex -3.875 8.55951 2.78115
      vertex -3 8.73266 2.1773
      vertex -3.875 8.73266 2.1773
    endloop
  endfacet
  facet normal 0 0.961262 0.275637
    outer loop
      vertex 3.875 8.73266 2.1773
      vertex 3 8.55951 2.78115
      vertex 3.875 8.55951 2.78115
    endloop
  endfacet
  facet normal 0 0.961262 0.275637
    outer loop
      vertex 3 8.55951 2.78115
      vertex 3.875 8.73266 2.1773
      vertex 3 8.73266 2.1773
    endloop
  endfacet
  facet normal -1 -3.42233e-06 -1.24563e-06
    outer loop
      vertex 3 8.55951 2.78115
      vertex 3 8.9507 0.940756
      vertex 3 8.34465 3.37146
    endloop
  endfacet
  facet normal 0 0.997564 0.0697564
    outer loop
      vertex -3 8.99452 0.314095
      vertex -3.875 8.9507 0.940756
      vertex -3 8.9507 0.940756
    endloop
  endfacet
  facet normal 0 0.997564 0.0697564
    outer loop
      vertex -3.875 8.9507 0.940756
      vertex -3 8.99452 0.314095
      vertex -3.875 8.99452 0.314095
    endloop
  endfacet
  facet normal 0 0.997564 0.0697564
    outer loop
      vertex 3.875 8.99452 0.314095
      vertex 3 8.9507 0.940756
      vertex 3.875 8.9507 0.940756
    endloop
  endfacet
  facet normal 0 0.997564 0.0697564
    outer loop
      vertex 3 8.9507 0.940756
      vertex 3.875 8.99452 0.314095
      vertex 3 8.99452 0.314095
    endloop
  endfacet
  facet normal 0 0.71934 0.694658
    outer loop
      vertex -3 6.6883 6.02217
      vertex -3.875 6.25192 6.47406
      vertex -3 6.25192 6.47406
    endloop
  endfacet
  facet normal 0 0.71934 0.694658
    outer loop
      vertex -3.875 6.25192 6.47406
      vertex -3 6.6883 6.02217
      vertex -3.875 6.6883 6.02217
    endloop
  endfacet
  facet normal 0 0.71934 0.694658
    outer loop
      vertex 3.875 6.6883 6.02217
      vertex 3 6.25192 6.47406
      vertex 3.875 6.25192 6.47406
    endloop
  endfacet
  facet normal 0 0.71934 0.694658
    outer loop
      vertex 3 6.25192 6.47406
      vertex 3.875 6.6883 6.02217
      vertex 3 6.6883 6.02217
    endloop
  endfacet
  facet normal 0 -0.309016 0.951057
    outer loop
      vertex -3.875 -2.48074 8.65135
      vertex -3 -3.07818 8.45723
      vertex -3 -2.48074 8.65135
    endloop
  endfacet
  facet normal 0 -0.309016 0.951057
    outer loop
      vertex -3 -3.07818 8.45723
      vertex -3.875 -2.48074 8.65135
      vertex -3.875 -3.07818 8.45723
    endloop
  endfacet
  facet normal 0 -0.309016 0.951057
    outer loop
      vertex 3 -2.48074 8.65135
      vertex 3.875 -3.07818 8.45723
      vertex 3.875 -2.48074 8.65135
    endloop
  endfacet
  facet normal 0 -0.309016 0.951057
    outer loop
      vertex 3.875 -3.07818 8.45723
      vertex 3 -2.48074 8.65135
      vertex 3 -3.07818 8.45723
    endloop
  endfacet
  facet normal -1 -1.66162e-07 -2.46346e-07
    outer loop
      vertex 3 5.29007 7.28115
      vertex 3 8.9507 0.940756
      vertex 3 4.76927 7.63243
    endloop
  endfacet
  facet normal -0 0.104529 0.994522
    outer loop
      vertex -3.875 1.25256 8.91241
      vertex -3 0.627808 8.97808
      vertex -3 1.25256 8.91241
    endloop
  endfacet
  facet normal 0 0.104529 0.994522
    outer loop
      vertex -3 0.627808 8.97808
      vertex -3.875 1.25256 8.91241
      vertex -3.875 0.627808 8.97808
    endloop
  endfacet
  facet normal -0 0.104529 0.994522
    outer loop
      vertex 3 1.25256 8.91241
      vertex 3.875 0.627808 8.97808
      vertex 3.875 1.25256 8.91241
    endloop
  endfacet
  facet normal 0 0.104529 0.994522
    outer loop
      vertex 3.875 0.627808 8.97808
      vertex 3 1.25256 8.91241
      vertex 3 0.627808 8.97808
    endloop
  endfacet
  facet normal -1 -7.49074e-08 -1.85402e-07
    outer loop
      vertex 3 3.66063 8.22191
      vertex 3 8.9507 0.940756
      vertex 3 3.07818 8.45723
    endloop
  endfacet
  facet normal -1 -5.52506e-08 -1.70044e-07
    outer loop
      vertex 3 3.07818 8.45723
      vertex 3 8.9507 0.940756
      vertex 3 2.48074 8.65135
    endloop
  endfacet
  facet normal -0 0.241921 0.970296
    outer loop
      vertex -3.875 2.48074 8.65135
      vertex -3 1.8712 8.80333
      vertex -3 2.48074 8.65135
    endloop
  endfacet
  facet normal 0 0.241921 0.970296
    outer loop
      vertex -3 1.8712 8.80333
      vertex -3.875 2.48074 8.65135
      vertex -3.875 1.8712 8.80333
    endloop
  endfacet
  facet normal -0 0.241921 0.970296
    outer loop
      vertex 3 2.48074 8.65135
      vertex 3.875 1.8712 8.80333
      vertex 3.875 2.48074 8.65135
    endloop
  endfacet
  facet normal 0 0.241921 0.970296
    outer loop
      vertex 3.875 1.8712 8.80333
      vertex 3 2.48074 8.65135
      vertex 3 1.8712 8.80333
    endloop
  endfacet
  facet normal -1 -1.39944e-08 -1.33147e-07
    outer loop
      vertex 3 1.25256 8.91241
      vertex 3 8.9507 0.940756
      vertex 3 0.627808 8.97808
    endloop
  endfacet
  facet normal -0 0.438372 0.898794
    outer loop
      vertex -3.875 4.22524 7.94653
      vertex -3 3.66063 8.22191
      vertex -3 4.22524 7.94653
    endloop
  endfacet
  facet normal 0 0.438372 0.898794
    outer loop
      vertex -3 3.66063 8.22191
      vertex -3.875 4.22524 7.94653
      vertex -3.875 3.66063 8.22191
    endloop
  endfacet
  facet normal -0 0.438372 0.898794
    outer loop
      vertex 3 4.22524 7.94653
      vertex 3.875 3.66063 8.22191
      vertex 3.875 4.22524 7.94653
    endloop
  endfacet
  facet normal 0 0.438372 0.898794
    outer loop
      vertex 3.875 3.66063 8.22191
      vertex 3 4.22524 7.94653
      vertex 3 3.66063 8.22191
    endloop
  endfacet
  facet normal -1 -9.89444e-08 -2.02866e-07
    outer loop
      vertex 3 4.22524 7.94653
      vertex 3 8.9507 0.940756
      vertex 3 3.66063 8.22191
    endloop
  endfacet
  facet normal -0 0.615662 0.78801
    outer loop
      vertex -3.875 5.78509 6.8944
      vertex -3 5.29007 7.28115
      vertex -3 5.78509 6.8944
    endloop
  endfacet
  facet normal 0 0.615662 0.78801
    outer loop
      vertex -3 5.29007 7.28115
      vertex -3.875 5.78509 6.8944
      vertex -3.875 5.29007 7.28115
    endloop
  endfacet
  facet normal -0 0.615662 0.78801
    outer loop
      vertex 3 5.78509 6.8944
      vertex 3.875 5.29007 7.28115
      vertex 3.875 5.78509 6.8944
    endloop
  endfacet
  facet normal 0 0.615662 0.78801
    outer loop
      vertex 3.875 5.29007 7.28115
      vertex 3 5.78509 6.8944
      vertex 3 5.29007 7.28115
    endloop
  endfacet
  facet normal -1 -4.29911e-09 -1.23108e-07
    outer loop
      vertex 3 0.627808 8.97808
      vertex 3 8.9507 0.940756
      vertex 3 0 9
    endloop
  endfacet
  facet normal -1 -0 -1.18333e-07
    outer loop
      vertex 3 8.9507 0.940756
      vertex 3 -8.9507 0.940756
      vertex 3 0 9
    endloop
  endfacet
  facet normal 0 0.766044 0.642788
    outer loop
      vertex -3 7.0921 5.54095
      vertex -3.875 6.6883 6.02217
      vertex -3 6.6883 6.02217
    endloop
  endfacet
  facet normal 0 0.766044 0.642788
    outer loop
      vertex -3.875 6.6883 6.02217
      vertex -3 7.0921 5.54095
      vertex -3.875 7.0921 5.54095
    endloop
  endfacet
  facet normal 0 0.766044 0.642788
    outer loop
      vertex 3.875 7.0921 5.54095
      vertex 3 6.6883 6.02217
      vertex 3.875 6.6883 6.02217
    endloop
  endfacet
  facet normal 0 0.766044 0.642788
    outer loop
      vertex 3 6.6883 6.02217
      vertex 3.875 7.0921 5.54095
      vertex 3 7.0921 5.54095
    endloop
  endfacet
  facet normal 0 0.990268 0.139174
    outer loop
      vertex 3.875 8.9507 0.940756
      vertex 3 8.86327 1.56283
      vertex 3.875 8.86327 1.56283
    endloop
  endfacet
  facet normal 0 0.990268 0.139174
    outer loop
      vertex 3 8.86327 1.56283
      vertex 3.875 8.9507 0.940756
      vertex 3 8.9507 0.940756
    endloop
  endfacet
  facet normal 0 0.990268 0.139174
    outer loop
      vertex -3 8.9507 0.940756
      vertex -3.875 8.86327 1.56283
      vertex -3 8.86327 1.56283
    endloop
  endfacet
  facet normal 0 0.990268 0.139174
    outer loop
      vertex -3.875 8.86327 1.56283
      vertex -3 8.9507 0.940756
      vertex -3.875 8.9507 0.940756
    endloop
  endfacet
  facet normal -1 -2.12884e-05 -4.52498e-06
    outer loop
      vertex 3 8.86327 1.56283
      vertex 3 8.9507 0.940756
      vertex 3 8.73266 2.1773
    endloop
  endfacet
  facet normal -1 -8.93295e-07 -5.58192e-07
    outer loop
      vertex 3 7.79423 4.5
      vertex 3 8.9507 0.940756
      vertex 3 7.46134 5.03274
    endloop
  endfacet
  facet normal 0 0.913545 0.406737
    outer loop
      vertex -3 8.34465 3.37146
      vertex -3.875 8.08915 3.94534
      vertex -3 8.08915 3.94534
    endloop
  endfacet
  facet normal 0 0.913545 0.406737
    outer loop
      vertex -3.875 8.08915 3.94534
      vertex -3 8.34465 3.37146
      vertex -3.875 8.34465 3.37146
    endloop
  endfacet
  facet normal 0 0.913545 0.406737
    outer loop
      vertex 3.875 8.34465 3.37146
      vertex 3 8.08915 3.94534
      vertex 3.875 8.08915 3.94534
    endloop
  endfacet
  facet normal 0 0.913545 0.406737
    outer loop
      vertex 3 8.08915 3.94534
      vertex 3.875 8.34465 3.37146
      vertex 3 8.34465 3.37146
    endloop
  endfacet
  facet normal 0 0.809017 0.587786
    outer loop
      vertex -3 7.46134 5.03274
      vertex -3.875 7.0921 5.54095
      vertex -3 7.0921 5.54095
    endloop
  endfacet
  facet normal 0 0.809017 0.587786
    outer loop
      vertex -3.875 7.0921 5.54095
      vertex -3 7.46134 5.03274
      vertex -3.875 7.46134 5.03274
    endloop
  endfacet
  facet normal 0 0.809017 0.587786
    outer loop
      vertex 3.875 7.46134 5.03274
      vertex 3 7.0921 5.54095
      vertex 3.875 7.0921 5.54095
    endloop
  endfacet
  facet normal 0 0.809017 0.587786
    outer loop
      vertex 3 7.0921 5.54095
      vertex 3.875 7.46134 5.03274
      vertex 3 7.46134 5.03274
    endloop
  endfacet
  facet normal 1 0 0
    outer loop
      vertex -3 8.9507 0.940756
      vertex -3 7.95617 0.836227
      vertex -3 7.99513 0.279196
    endloop
  endfacet
  facet normal 1 0 0
    outer loop
      vertex -3 8.34465 3.37146
      vertex -3 7.87846 1.38918
      vertex -3 7.95617 0.836227
    endloop
  endfacet
  facet normal 1 0 0
    outer loop
      vertex -3 7.19035 3.50697
      vertex -3 8.08915 3.94534
      vertex -3 7.79423 4.5
    endloop
  endfacet
  facet normal 1 0 0
    outer loop
      vertex -3 8.34465 3.37146
      vertex -3 7.76237 1.93537
      vertex -3 7.87846 1.38918
    endloop
  endfacet
  facet normal 1 0 0
    outer loop
      vertex -3 8.34465 3.37146
      vertex -3 7.60845 2.47214
      vertex -3 7.76237 1.93537
    endloop
  endfacet
  facet normal 1 0 0
    outer loop
      vertex -3 6.9282 4
      vertex -3 7.79423 4.5
      vertex -3 7.46134 5.03274
    endloop
  endfacet
  facet normal 1 0 0
    outer loop
      vertex -3 8.34465 3.37146
      vertex -3 7.41747 2.99685
      vertex -3 7.60845 2.47214
    endloop
  endfacet
  facet normal 1 0 0
    outer loop
      vertex -3 8.08915 3.94534
      vertex -3 7.19035 3.50697
      vertex -3 7.41747 2.99685
    endloop
  endfacet
  facet normal 1 0 0
    outer loop
      vertex -3 6.6323 4.47354
      vertex -3 7.46134 5.03274
      vertex -3 7.0921 5.54095
    endloop
  endfacet
  facet normal 1 0 0
    outer loop
      vertex -3 7.79423 4.5
      vertex -3 6.9282 4
      vertex -3 7.19035 3.50697
    endloop
  endfacet
  facet normal 1 0 0
    outer loop
      vertex -3 6.30409 4.92529
      vertex -3 7.0921 5.54095
      vertex -3 6.6883 6.02217
    endloop
  endfacet
  facet normal 1 0 0
    outer loop
      vertex -3 7.46134 5.03274
      vertex -3 6.6323 4.47354
      vertex -3 6.9282 4
    endloop
  endfacet
  facet normal 1 0 0
    outer loop
      vertex -3 7.0921 5.54095
      vertex -3 6.30409 4.92529
      vertex -3 6.6323 4.47354
    endloop
  endfacet
  facet normal 1 0 0
    outer loop
      vertex -3 5.94516 5.35304
      vertex -3 6.6883 6.02217
      vertex -3 6.25192 6.47406
    endloop
  endfacet
  facet normal 1 0 0
    outer loop
      vertex -3 6.6883 6.02217
      vertex -3 5.94516 5.35304
      vertex -3 6.30409 4.92529
    endloop
  endfacet
  facet normal 1 0 0
    outer loop
      vertex -3 5.55727 5.75472
      vertex -3 6.25192 6.47406
      vertex -3 5.78509 6.8944
    endloop
  endfacet
  facet normal 1 0 0
    outer loop
      vertex -3 6.25192 6.47406
      vertex -3 5.55727 5.75472
      vertex -3 5.94516 5.35304
    endloop
  endfacet
  facet normal 1 0 0
    outer loop
      vertex -3 5.1423 6.12836
      vertex -3 5.78509 6.8944
      vertex -3 5.29007 7.28115
    endloop
  endfacet
  facet normal 1 0 0
    outer loop
      vertex -3 5.78509 6.8944
      vertex -3 5.1423 6.12836
      vertex -3 5.55727 5.75472
    endloop
  endfacet
  facet normal 1 0 0
    outer loop
      vertex -3 4.70228 6.47214
      vertex -3 5.29007 7.28115
      vertex -3 4.76927 7.63243
    endloop
  endfacet
  facet normal 1 0 0
    outer loop
      vertex -3 5.29007 7.28115
      vertex -3 4.70228 6.47214
      vertex -3 5.1423 6.12836
    endloop
  endfacet
  facet normal 1 0 0
    outer loop
      vertex -3 4.76927 7.63243
      vertex -3 4.23935 6.78438
      vertex -3 4.70228 6.47214
    endloop
  endfacet
  facet normal 1 0 0
    outer loop
      vertex -3 4.22524 7.94653
      vertex -3 4.23935 6.78438
      vertex -3 4.76927 7.63243
    endloop
  endfacet
  facet normal 1 0 0
    outer loop
      vertex -3 4.22524 7.94653
      vertex -3 3.75577 7.06358
      vertex -3 4.23935 6.78438
    endloop
  endfacet
  facet normal 1 0 0
    outer loop
      vertex -3 3.66063 8.22191
      vertex -3 3.75577 7.06358
      vertex -3 4.22524 7.94653
    endloop
  endfacet
  facet normal 1 0 0
    outer loop
      vertex -3 3.66063 8.22191
      vertex -3 3.25389 7.30836
      vertex -3 3.75577 7.06358
    endloop
  endfacet
  facet normal 1 0 0
    outer loop
      vertex -3 3.07818 8.45723
      vertex -3 3.25389 7.30836
      vertex -3 3.66063 8.22191
    endloop
  endfacet
  facet normal 1 0 0
    outer loop
      vertex -3 3.07818 8.45723
      vertex -3 2.73616 7.51754
      vertex -3 3.25389 7.30836
    endloop
  endfacet
  facet normal 1 0 0
    outer loop
      vertex -3 2.48074 8.65135
      vertex -3 2.73616 7.51754
      vertex -3 3.07818 8.45723
    endloop
  endfacet
  facet normal 1 0 0
    outer loop
      vertex -3 2.48074 8.65135
      vertex -3 2.2051 7.69009
      vertex -3 2.73616 7.51754
    endloop
  endfacet
  facet normal 1 0 0
    outer loop
      vertex -3 1.8712 8.80333
      vertex -3 2.2051 7.69009
      vertex -3 2.48074 8.65135
    endloop
  endfacet
  facet normal 1 0 0
    outer loop
      vertex -3 1.8712 8.80333
      vertex -3 1.66329 7.82518
      vertex -3 2.2051 7.69009
    endloop
  endfacet
  facet normal 1 0 0
    outer loop
      vertex -3 1.25256 8.91241
      vertex -3 1.66329 7.82518
      vertex -3 1.8712 8.80333
    endloop
  endfacet
  facet normal 1 0 0
    outer loop
      vertex -3 1.25256 8.91241
      vertex -3 1.11338 7.92214
      vertex -3 1.66329 7.82518
    endloop
  endfacet
  facet normal 1 0 0
    outer loop
      vertex -3 0.627808 8.97808
      vertex -3 1.11338 7.92214
      vertex -3 1.25256 8.91241
    endloop
  endfacet
  facet normal 1 0 0
    outer loop
      vertex -3 0.627808 8.97808
      vertex -3 0.558051 7.98051
      vertex -3 1.11338 7.92214
    endloop
  endfacet
  facet normal 1 0 0
    outer loop
      vertex -3 0 9
      vertex -3 0.558051 7.98051
      vertex -3 0.627808 8.97808
    endloop
  endfacet
  facet normal 1 0 0
    outer loop
      vertex -3 0 9
      vertex -3 0 8
      vertex -3 0.558051 7.98051
    endloop
  endfacet
  facet normal 1 0 0
    outer loop
      vertex -3 0 9
      vertex -3 -0.558051 7.98051
      vertex -3 0 8
    endloop
  endfacet
  facet normal 1 -0 0
    outer loop
      vertex -3 -0.627808 8.97808
      vertex -3 -0.558051 7.98051
      vertex -3 0 9
    endloop
  endfacet
  facet normal 1 0 0
    outer loop
      vertex -3 -0.627808 8.97808
      vertex -3 -1.11338 7.92214
      vertex -3 -0.558051 7.98051
    endloop
  endfacet
  facet normal 1 -0 0
    outer loop
      vertex -3 -1.25256 8.91241
      vertex -3 -1.11338 7.92214
      vertex -3 -0.627808 8.97808
    endloop
  endfacet
  facet normal 1 0 0
    outer loop
      vertex -3 -1.25256 8.91241
      vertex -3 -1.66329 7.82518
      vertex -3 -1.11338 7.92214
    endloop
  endfacet
  facet normal 1 -0 0
    outer loop
      vertex -3 -1.8712 8.80333
      vertex -3 -1.66329 7.82518
      vertex -3 -1.25256 8.91241
    endloop
  endfacet
  facet normal 1 0 0
    outer loop
      vertex -3 -1.8712 8.80333
      vertex -3 -2.2051 7.69009
      vertex -3 -1.66329 7.82518
    endloop
  endfacet
  facet normal 1 -0 0
    outer loop
      vertex -3 -2.48074 8.65135
      vertex -3 -2.2051 7.69009
      vertex -3 -1.8712 8.80333
    endloop
  endfacet
  facet normal 1 0 0
    outer loop
      vertex -3 -2.48074 8.65135
      vertex -3 -2.73616 7.51754
      vertex -3 -2.2051 7.69009
    endloop
  endfacet
  facet normal 1 -0 0
    outer loop
      vertex -3 -3.07818 8.45723
      vertex -3 -2.73616 7.51754
      vertex -3 -2.48074 8.65135
    endloop
  endfacet
  facet normal 1 0 0
    outer loop
      vertex -3 -3.07818 8.45723
      vertex -3 -3.25389 7.30836
      vertex -3 -2.73616 7.51754
    endloop
  endfacet
  facet normal 1 -0 0
    outer loop
      vertex -3 -3.66063 8.22191
      vertex -3 -3.25389 7.30836
      vertex -3 -3.07818 8.45723
    endloop
  endfacet
  facet normal 1 0 0
    outer loop
      vertex -3 -3.66063 8.22191
      vertex -3 -3.75577 7.06358
      vertex -3 -3.25389 7.30836
    endloop
  endfacet
  facet normal 1 -0 0
    outer loop
      vertex -3 -4.22524 7.94653
      vertex -3 -3.75577 7.06358
      vertex -3 -3.66063 8.22191
    endloop
  endfacet
  facet normal 1 0 0
    outer loop
      vertex -3 -4.22524 7.94653
      vertex -3 -4.23935 6.78438
      vertex -3 -3.75577 7.06358
    endloop
  endfacet
  facet normal 1 -0 0
    outer loop
      vertex -3 -4.76927 7.63243
      vertex -3 -4.23935 6.78438
      vertex -3 -4.22524 7.94653
    endloop
  endfacet
  facet normal 1 0 0
    outer loop
      vertex -3 -4.23935 6.78438
      vertex -3 -4.76927 7.63243
      vertex -3 -4.70228 6.47214
    endloop
  endfacet
  facet normal 1 -0 0
    outer loop
      vertex -3 -5.29007 7.28115
      vertex -3 -4.70228 6.47214
      vertex -3 -4.76927 7.63243
    endloop
  endfacet
  facet normal 1 0 0
    outer loop
      vertex -3 -4.70228 6.47214
      vertex -3 -5.29007 7.28115
      vertex -3 -5.1423 6.12836
    endloop
  endfacet
  facet normal 1 -0 0
    outer loop
      vertex -3 -5.78509 6.8944
      vertex -3 -5.1423 6.12836
      vertex -3 -5.29007 7.28115
    endloop
  endfacet
  facet normal 1 0 0
    outer loop
      vertex -3 -5.1423 6.12836
      vertex -3 -5.78509 6.8944
      vertex -3 -5.55727 5.75472
    endloop
  endfacet
  facet normal 1 -0 0
    outer loop
      vertex -3 -6.25192 6.47406
      vertex -3 -5.55727 5.75472
      vertex -3 -5.78509 6.8944
    endloop
  endfacet
  facet normal 1 0 0
    outer loop
      vertex -3 -5.55727 5.75472
      vertex -3 -6.25192 6.47406
      vertex -3 -5.94516 5.35304
    endloop
  endfacet
  facet normal 1 -0 0
    outer loop
      vertex -3 -6.6883 6.02217
      vertex -3 -5.94516 5.35304
      vertex -3 -6.25192 6.47406
    endloop
  endfacet
  facet normal 1 0 0
    outer loop
      vertex -3 -5.94516 5.35304
      vertex -3 -6.6883 6.02217
      vertex -3 -6.30409 4.92529
    endloop
  endfacet
  facet normal 1 -0 0
    outer loop
      vertex -3 -7.0921 5.54095
      vertex -3 -6.30409 4.92529
      vertex -3 -6.6883 6.02217
    endloop
  endfacet
  facet normal 1 0 0
    outer loop
      vertex -3 -6.30409 4.92529
      vertex -3 -7.0921 5.54095
      vertex -3 -6.6323 4.47354
    endloop
  endfacet
  facet normal 1 -0 0
    outer loop
      vertex -3 -7.46134 5.03274
      vertex -3 -6.6323 4.47354
      vertex -3 -7.0921 5.54095
    endloop
  endfacet
  facet normal 1 0 0
    outer loop
      vertex -3 -6.6323 4.47354
      vertex -3 -7.46134 5.03274
      vertex -3 -6.9282 4
    endloop
  endfacet
  facet normal 1 -0 0
    outer loop
      vertex -3 -7.79423 4.5
      vertex -3 -6.9282 4
      vertex -3 -7.46134 5.03274
    endloop
  endfacet
  facet normal 1 0 0
    outer loop
      vertex -3 -6.9282 4
      vertex -3 -7.79423 4.5
      vertex -3 -7.19035 3.50697
    endloop
  endfacet
  facet normal 1 -0 0
    outer loop
      vertex -3 -8.08915 3.94534
      vertex -3 -7.19035 3.50697
      vertex -3 -7.79423 4.5
    endloop
  endfacet
  facet normal 1 0 0
    outer loop
      vertex -3 -7.19035 3.50697
      vertex -3 -8.08915 3.94534
      vertex -3 -7.41747 2.99685
    endloop
  endfacet
  facet normal 1 -0 0
    outer loop
      vertex -3 -8.34465 3.37146
      vertex -3 -7.41747 2.99685
      vertex -3 -8.08915 3.94534
    endloop
  endfacet
  facet normal 1 0 0
    outer loop
      vertex -3 -7.41747 2.99685
      vertex -3 -8.34465 3.37146
      vertex -3 -7.60845 2.47214
    endloop
  endfacet
  facet normal 1 -0 0
    outer loop
      vertex -3 -8.55951 2.78115
      vertex -3 -7.60845 2.47214
      vertex -3 -8.34465 3.37146
    endloop
  endfacet
  facet normal 1 0 0
    outer loop
      vertex -3 -7.60845 2.47214
      vertex -3 -8.55951 2.78115
      vertex -3 -7.76237 1.93537
    endloop
  endfacet
  facet normal 1 -0 0
    outer loop
      vertex -3 -8.73266 2.1773
      vertex -3 -7.76237 1.93537
      vertex -3 -8.55951 2.78115
    endloop
  endfacet
  facet normal 1 0 0
    outer loop
      vertex -3 -7.76237 1.93537
      vertex -3 -8.73266 2.1773
      vertex -3 -7.87846 1.38918
    endloop
  endfacet
  facet normal 1 -0 0
    outer loop
      vertex -3 -8.86327 1.56283
      vertex -3 -7.87846 1.38918
      vertex -3 -8.73266 2.1773
    endloop
  endfacet
  facet normal 1 0 0
    outer loop
      vertex -3 -7.87846 1.38918
      vertex -3 -8.86327 1.56283
      vertex -3 -7.95617 0.836227
    endloop
  endfacet
  facet normal 1 -0 0
    outer loop
      vertex -3 -8.9507 0.940756
      vertex -3 -7.95617 0.836227
      vertex -3 -8.86327 1.56283
    endloop
  endfacet
  facet normal 1 0 0
    outer loop
      vertex -3 -7.95617 0.836227
      vertex -3 -8.9507 0.940756
      vertex -3 -7.99513 0.279196
    endloop
  endfacet
  facet normal 1 -0 0
    outer loop
      vertex -3 -8.99452 0.314095
      vertex -3 -7.99513 0.279196
      vertex -3 -8.9507 0.940756
    endloop
  endfacet
  facet normal 1 0 0
    outer loop
      vertex -3 -8.99452 0
      vertex -3 -7.99513 0.279196
      vertex -3 -8.99452 0.314095
    endloop
  endfacet
  facet normal 1 0 0
    outer loop
      vertex -3 -7.99513 0.279196
      vertex -3 -8.99452 0
      vertex -3 -7.99513 0
    endloop
  endfacet
  facet normal 1 0 0
    outer loop
      vertex -3 7.99513 0.279196
      vertex -3 8.99452 0.314095
      vertex -3 8.9507 0.940756
    endloop
  endfacet
  facet normal 1 0 0
    outer loop
      vertex -3 7.95617 0.836227
      vertex -3 8.9507 0.940756
      vertex -3 8.86327 1.56283
    endloop
  endfacet
  facet normal 1 0 0
    outer loop
      vertex -3 7.95617 0.836227
      vertex -3 8.86327 1.56283
      vertex -3 8.73266 2.1773
    endloop
  endfacet
  facet normal 1 0 0
    outer loop
      vertex -3 7.95617 0.836227
      vertex -3 8.73266 2.1773
      vertex -3 8.55951 2.78115
    endloop
  endfacet
  facet normal 1 0 0
    outer loop
      vertex -3 7.95617 0.836227
      vertex -3 8.55951 2.78115
      vertex -3 8.34465 3.37146
    endloop
  endfacet
  facet normal 1 0 0
    outer loop
      vertex -3 7.41747 2.99685
      vertex -3 8.34465 3.37146
      vertex -3 8.08915 3.94534
    endloop
  endfacet
  facet normal 1 0 0
    outer loop
      vertex -3 8.99452 0.314095
      vertex -3 7.99513 0.279196
      vertex -3 8.99452 0
    endloop
  endfacet
  facet normal 1 0 0
    outer loop
      vertex -3 8.99452 0
      vertex -3 7.99513 0.279196
      vertex -3 7.99513 0
    endloop
  endfacet
  facet normal -1 7.49074e-08 -1.85402e-07
    outer loop
      vertex 3 -3.07818 8.45723
      vertex 3 -8.9507 0.940756
      vertex 3 -3.66063 8.22191
    endloop
  endfacet
  facet normal 0 -0.559192 0.829038
    outer loop
      vertex -3.875 -4.76927 7.63243
      vertex -3 -5.29007 7.28115
      vertex -3 -4.76927 7.63243
    endloop
  endfacet
  facet normal 0 -0.559192 0.829038
    outer loop
      vertex -3 -5.29007 7.28115
      vertex -3.875 -4.76927 7.63243
      vertex -3.875 -5.29007 7.28115
    endloop
  endfacet
  facet normal 0 -0.559192 0.829038
    outer loop
      vertex 3 -4.76927 7.63243
      vertex 3.875 -5.29007 7.28115
      vertex 3.875 -4.76927 7.63243
    endloop
  endfacet
  facet normal 0 -0.559192 0.829038
    outer loop
      vertex 3.875 -5.29007 7.28115
      vertex 3 -4.76927 7.63243
      vertex 3 -5.29007 7.28115
    endloop
  endfacet
  facet normal 0 -0.104529 0.994522
    outer loop
      vertex 3 -0.627808 8.97808
      vertex 3.875 -1.25256 8.91241
      vertex 3.875 -0.627808 8.97808
    endloop
  endfacet
  facet normal 0 -0.104529 0.994522
    outer loop
      vertex 3.875 -1.25256 8.91241
      vertex 3 -0.627808 8.97808
      vertex 3 -1.25256 8.91241
    endloop
  endfacet
  facet normal 0 -0.104529 0.994522
    outer loop
      vertex -3.875 -0.627808 8.97808
      vertex -3 -1.25256 8.91241
      vertex -3 -0.627808 8.97808
    endloop
  endfacet
  facet normal 0 -0.104529 0.994522
    outer loop
      vertex -3 -1.25256 8.91241
      vertex -3.875 -0.627808 8.97808
      vertex -3.875 -1.25256 8.91241
    endloop
  endfacet
  facet normal -1 2.00278e-06 -8.91694e-07
    outer loop
      vertex 3 -8.08915 3.94534
      vertex 3 -8.9507 0.940756
      vertex 3 -8.34465 3.37146
    endloop
  endfacet
  facet normal 0 -0.990268 0.139174
    outer loop
      vertex 3 -8.9507 0.940756
      vertex 3.875 -8.86327 1.56283
      vertex 3 -8.86327 1.56283
    endloop
  endfacet
  facet normal 0 -0.990268 0.139174
    outer loop
      vertex 3.875 -8.86327 1.56283
      vertex 3 -8.9507 0.940756
      vertex 3.875 -8.9507 0.940756
    endloop
  endfacet
  facet normal 0 -0.990268 0.139174
    outer loop
      vertex -3.875 -8.9507 0.940756
      vertex -3 -8.86327 1.56283
      vertex -3.875 -8.86327 1.56283
    endloop
  endfacet
  facet normal 0 -0.990268 0.139174
    outer loop
      vertex -3 -8.86327 1.56283
      vertex -3.875 -8.9507 0.940756
      vertex -3 -8.9507 0.940756
    endloop
  endfacet
  facet normal -1 0 0
    outer loop
      vertex 3 -8.99452 0
      vertex 3 -7.99513 0.279196
      vertex 3 -7.99513 0
    endloop
  endfacet
  facet normal -1 -0 0
    outer loop
      vertex 3 -7.99513 0.279196
      vertex 3 -8.99452 0
      vertex 3 -8.99452 0.314095
    endloop
  endfacet
  facet normal -1 0 0
    outer loop
      vertex 3 -7.99513 0.279196
      vertex 3 -8.99452 0.314095
      vertex 3 -8.9507 0.940756
    endloop
  endfacet
  facet normal -1 0 0
    outer loop
      vertex 3 7.99513 0.279196
      vertex 3 8.99452 0.314095
      vertex 3 8.99452 0
    endloop
  endfacet
  facet normal -1 0 0
    outer loop
      vertex 3 7.99513 0.279196
      vertex 3 8.99452 0
      vertex 3 7.99513 0
    endloop
  endfacet
  facet normal -1 -0 0
    outer loop
      vertex 3 8.99452 0.314095
      vertex 3 7.99513 0.279196
      vertex 3 8.9507 0.940756
    endloop
  endfacet
  facet normal -1 0 0
    outer loop
      vertex 3 7.95617 0.836227
      vertex 3 8.9507 0.940756
      vertex 3 7.99513 0.279196
    endloop
  endfacet
  facet normal -1 0 0
    outer loop
      vertex 3 -7.95617 0.836227
      vertex 3 8.9507 0.940756
      vertex 3 7.95617 0.836227
    endloop
  endfacet
  facet normal -1 0 0
    outer loop
      vertex 3 -7.95617 0.836227
      vertex 3 -8.9507 0.940756
      vertex 3 8.9507 0.940756
    endloop
  endfacet
  facet normal -1 0 0
    outer loop
      vertex 3 -8.9507 0.940756
      vertex 3 -7.95617 0.836227
      vertex 3 -7.99513 0.279196
    endloop
  endfacet
  facet normal -1 -3.60602e-07 -3.48229e-07
    outer loop
      vertex 3 6.6883 6.02217
      vertex 3 8.9507 0.940756
      vertex 3 6.25192 6.47406
    endloop
  endfacet
  facet normal -1 -2.14083e-07 -2.74013e-07
    outer loop
      vertex 3 5.78509 6.8944
      vertex 3 8.9507 0.940756
      vertex 3 5.29007 7.28115
    endloop
  endfacet
  facet normal -1 -2.76701e-07 -3.07308e-07
    outer loop
      vertex 3 6.25192 6.47406
      vertex 3 8.9507 0.940756
      vertex 3 5.78509 6.8944
    endloop
  endfacet
  facet normal -1 -1.29573e-06 -6.88951e-07
    outer loop
      vertex 3 8.08915 3.94534
      vertex 3 8.9507 0.940756
      vertex 3 7.79423 4.5
    endloop
  endfacet
  facet normal -1 -2.00278e-06 -8.91694e-07
    outer loop
      vertex 3 8.34465 3.37146
      vertex 3 8.9507 0.940756
      vertex 3 8.08915 3.94534
    endloop
  endfacet
  facet normal -1 2.54236e-08 -1.44184e-07
    outer loop
      vertex 3 -1.25256 8.91241
      vertex 3 -8.9507 0.940756
      vertex 3 -1.8712 8.80333
    endloop
  endfacet
  facet normal 0 -0.173648 0.984808
    outer loop
      vertex -3.875 -1.25256 8.91241
      vertex -3 -1.8712 8.80333
      vertex -3 -1.25256 8.91241
    endloop
  endfacet
  facet normal 0 -0.173648 0.984808
    outer loop
      vertex -3 -1.8712 8.80333
      vertex -3.875 -1.25256 8.91241
      vertex -3.875 -1.8712 8.80333
    endloop
  endfacet
  facet normal 0 -0.173648 0.984808
    outer loop
      vertex 3 -1.25256 8.91241
      vertex 3.875 -1.8712 8.80333
      vertex 3.875 -1.25256 8.91241
    endloop
  endfacet
  facet normal 0 -0.173648 0.984808
    outer loop
      vertex 3.875 -1.8712 8.80333
      vertex 3 -1.25256 8.91241
      vertex 3 -1.8712 8.80333
    endloop
  endfacet
  facet normal 0 -0.5 0.866025
    outer loop
      vertex 3 -4.22524 7.94653
      vertex 3.875 -4.76927 7.63243
      vertex 3.875 -4.22524 7.94653
    endloop
  endfacet
  facet normal 0 -0.5 0.866025
    outer loop
      vertex 3.875 -4.76927 7.63243
      vertex 3 -4.22524 7.94653
      vertex 3 -4.76927 7.63243
    endloop
  endfacet
  facet normal 0 -0.5 0.866025
    outer loop
      vertex -3.875 -4.22524 7.94653
      vertex -3 -4.76927 7.63243
      vertex -3 -4.22524 7.94653
    endloop
  endfacet
  facet normal 0 -0.5 0.866025
    outer loop
      vertex -3 -4.76927 7.63243
      vertex -3.875 -4.22524 7.94653
      vertex -3.875 -4.76927 7.63243
    endloop
  endfacet
  facet normal -1 1.66162e-07 -2.46346e-07
    outer loop
      vertex 3 -4.76927 7.63243
      vertex 3 -8.9507 0.940756
      vertex 3 -5.29007 7.28115
    endloop
  endfacet
  facet normal 0 -0.438372 0.898794
    outer loop
      vertex -3.875 -3.66063 8.22191
      vertex -3 -4.22524 7.94653
      vertex -3 -3.66063 8.22191
    endloop
  endfacet
  facet normal 0 -0.438372 0.898794
    outer loop
      vertex -3 -4.22524 7.94653
      vertex -3.875 -3.66063 8.22191
      vertex -3.875 -4.22524 7.94653
    endloop
  endfacet
  facet normal 0 -0.438372 0.898794
    outer loop
      vertex 3 -3.66063 8.22191
      vertex 3.875 -4.22524 7.94653
      vertex 3.875 -3.66063 8.22191
    endloop
  endfacet
  facet normal 0 -0.438372 0.898794
    outer loop
      vertex 3.875 -4.22524 7.94653
      vertex 3 -3.66063 8.22191
      vertex 3 -4.22524 7.94653
    endloop
  endfacet
  facet normal 0 -0.0349003 0.999391
    outer loop
      vertex 3 0 9
      vertex 3.875 -0.627808 8.97808
      vertex 3.875 0 9
    endloop
  endfacet
  facet normal 0 -0.0349003 0.999391
    outer loop
      vertex 3.875 -0.627808 8.97808
      vertex 3 0 9
      vertex 3 -0.627808 8.97808
    endloop
  endfacet
  facet normal 0 -0.0349003 0.999391
    outer loop
      vertex -3.875 0 9
      vertex -3 -0.627808 8.97808
      vertex -3 0 9
    endloop
  endfacet
  facet normal 0 -0.0349003 0.999391
    outer loop
      vertex -3 -0.627808 8.97808
      vertex -3.875 0 9
      vertex -3.875 -0.627808 8.97808
    endloop
  endfacet
  facet normal -1 6.98475e-06 -2.00284e-06
    outer loop
      vertex 3 -8.55951 2.78115
      vertex 3 -8.9507 0.940756
      vertex 3 -8.73266 2.1773
    endloop
  endfacet
  facet normal 0 -0.961262 0.275637
    outer loop
      vertex -3.875 -8.73266 2.1773
      vertex -3 -8.55951 2.78115
      vertex -3.875 -8.55951 2.78115
    endloop
  endfacet
  facet normal 0 -0.961262 0.275637
    outer loop
      vertex -3 -8.55951 2.78115
      vertex -3.875 -8.73266 2.1773
      vertex -3 -8.73266 2.1773
    endloop
  endfacet
  facet normal 0 -0.961262 0.275637
    outer loop
      vertex 3 -8.73266 2.1773
      vertex 3.875 -8.55951 2.78115
      vertex 3 -8.55951 2.78115
    endloop
  endfacet
  facet normal 0 -0.961262 0.275637
    outer loop
      vertex 3.875 -8.55951 2.78115
      vertex 3 -8.73266 2.1773
      vertex 3.875 -8.73266 2.1773
    endloop
  endfacet
  facet normal 0 -1 0
    outer loop
      vertex 3 -8.99452 0
      vertex 3.875 -8.99452 0.314095
      vertex 3 -8.99452 0.314095
    endloop
  endfacet
  facet normal 0 -1 -0
    outer loop
      vertex 3.875 -8.99452 0.314095
      vertex 3 -8.99452 0
      vertex 3.875 -8.99452 0
    endloop
  endfacet
  facet normal 0 -1 0
    outer loop
      vertex -3.875 -8.99452 0
      vertex -3 -8.99452 0.314095
      vertex -3.875 -8.99452 0.314095
    endloop
  endfacet
  facet normal 0 -1 -0
    outer loop
      vertex -3 -8.99452 0.314095
      vertex -3.875 -8.99452 0
      vertex -3 -8.99452 0
    endloop
  endfacet
  facet normal -1 -4.76498e-07 -3.99829e-07
    outer loop
      vertex 3 7.0921 5.54095
      vertex 3 8.9507 0.940756
      vertex 3 6.6883 6.02217
    endloop
  endfacet
  facet normal -1 -6.42792e-07 -4.67017e-07
    outer loop
      vertex 3 7.46134 5.03274
      vertex 3 8.9507 0.940756
      vertex 3 7.0921 5.54095
    endloop
  endfacet
  facet normal -1 1.39944e-08 -1.33147e-07
    outer loop
      vertex 3 -0.627808 8.97808
      vertex 3 -8.9507 0.940756
      vertex 3 -1.25256 8.91241
    endloop
  endfacet
  facet normal 0 -0.615662 0.78801
    outer loop
      vertex -3.875 -5.29007 7.28115
      vertex -3 -5.78509 6.8944
      vertex -3 -5.29007 7.28115
    endloop
  endfacet
  facet normal 0 -0.615662 0.78801
    outer loop
      vertex -3 -5.78509 6.8944
      vertex -3.875 -5.29007 7.28115
      vertex -3.875 -5.78509 6.8944
    endloop
  endfacet
  facet normal 0 -0.615662 0.78801
    outer loop
      vertex 3 -5.29007 7.28115
      vertex 3.875 -5.78509 6.8944
      vertex 3.875 -5.29007 7.28115
    endloop
  endfacet
  facet normal 0 -0.615662 0.78801
    outer loop
      vertex 3.875 -5.78509 6.8944
      vertex 3 -5.29007 7.28115
      vertex 3 -5.78509 6.8944
    endloop
  endfacet
  facet normal -1 1.2872e-07 -2.2295e-07
    outer loop
      vertex 3 -4.22524 7.94653
      vertex 3 -8.9507 0.940756
      vertex 3 -4.76927 7.63243
    endloop
  endfacet
  facet normal -1 2.14083e-07 -2.74013e-07
    outer loop
      vertex 3 -5.29007 7.28115
      vertex 3 -8.9507 0.940756
      vertex 3 -5.78509 6.8944
    endloop
  endfacet
  facet normal 0 -0.374607 0.927184
    outer loop
      vertex -3.875 -3.07818 8.45723
      vertex -3 -3.66063 8.22191
      vertex -3 -3.07818 8.45723
    endloop
  endfacet
  facet normal 0 -0.374607 0.927184
    outer loop
      vertex -3 -3.66063 8.22191
      vertex -3.875 -3.07818 8.45723
      vertex -3.875 -3.66063 8.22191
    endloop
  endfacet
  facet normal 0 -0.374607 0.927184
    outer loop
      vertex 3 -3.07818 8.45723
      vertex 3.875 -3.66063 8.22191
      vertex 3.875 -3.07818 8.45723
    endloop
  endfacet
  facet normal 0 -0.374607 0.927184
    outer loop
      vertex 3.875 -3.66063 8.22191
      vertex 3 -3.07818 8.45723
      vertex 3 -3.66063 8.22191
    endloop
  endfacet
  facet normal -1 5.52506e-08 -1.70044e-07
    outer loop
      vertex 3 -2.48074 8.65135
      vertex 3 -8.9507 0.940756
      vertex 3 -3.07818 8.45723
    endloop
  endfacet
  facet normal 0 -0.241921 0.970296
    outer loop
      vertex 3 -1.8712 8.80333
      vertex 3.875 -2.48074 8.65135
      vertex 3.875 -1.8712 8.80333
    endloop
  endfacet
  facet normal 0 -0.241921 0.970296
    outer loop
      vertex 3.875 -2.48074 8.65135
      vertex 3 -1.8712 8.80333
      vertex 3 -2.48074 8.65135
    endloop
  endfacet
  facet normal 0 -0.241921 0.970296
    outer loop
      vertex -3.875 -1.8712 8.80333
      vertex -3 -2.48074 8.65135
      vertex -3 -1.8712 8.80333
    endloop
  endfacet
  facet normal 0 -0.241921 0.970296
    outer loop
      vertex -3 -2.48074 8.65135
      vertex -3.875 -1.8712 8.80333
      vertex -3.875 -2.48074 8.65135
    endloop
  endfacet
  facet normal 0 -0.809017 0.587786
    outer loop
      vertex -3.875 -7.46134 5.03274
      vertex -3 -7.0921 5.54095
      vertex -3.875 -7.0921 5.54095
    endloop
  endfacet
  facet normal 0 -0.809017 0.587786
    outer loop
      vertex -3 -7.0921 5.54095
      vertex -3.875 -7.46134 5.03274
      vertex -3 -7.46134 5.03274
    endloop
  endfacet
  facet normal 0 -0.809017 0.587786
    outer loop
      vertex 3 -7.46134 5.03274
      vertex 3.875 -7.0921 5.54095
      vertex 3 -7.0921 5.54095
    endloop
  endfacet
  facet normal 0 -0.809017 0.587786
    outer loop
      vertex 3.875 -7.0921 5.54095
      vertex 3 -7.46134 5.03274
      vertex 3.875 -7.46134 5.03274
    endloop
  endfacet
  facet normal -1 4.76498e-07 -3.99829e-07
    outer loop
      vertex 3 -6.6883 6.02217
      vertex 3 -8.9507 0.940756
      vertex 3 -7.0921 5.54095
    endloop
  endfacet
  facet normal -1 3.42233e-06 -1.24563e-06
    outer loop
      vertex 3 -8.34465 3.37146
      vertex 3 -8.9507 0.940756
      vertex 3 -8.55951 2.78115
    endloop
  endfacet
  facet normal 0 -0.997564 0.0697564
    outer loop
      vertex 3 -8.99452 0.314095
      vertex 3.875 -8.9507 0.940756
      vertex 3 -8.9507 0.940756
    endloop
  endfacet
  facet normal 0 -0.997564 0.0697564
    outer loop
      vertex 3.875 -8.9507 0.940756
      vertex 3 -8.99452 0.314095
      vertex 3.875 -8.99452 0.314095
    endloop
  endfacet
  facet normal 0 -0.997564 0.0697564
    outer loop
      vertex -3.875 -8.99452 0.314095
      vertex -3 -8.9507 0.940756
      vertex -3.875 -8.9507 0.940756
    endloop
  endfacet
  facet normal 0 -0.997564 0.0697564
    outer loop
      vertex -3 -8.9507 0.940756
      vertex -3.875 -8.99452 0.314095
      vertex -3 -8.99452 0.314095
    endloop
  endfacet
  facet normal -1 9.89444e-08 -2.02866e-07
    outer loop
      vertex 3 -3.66063 8.22191
      vertex 3 -8.9507 0.940756
      vertex 3 -4.22524 7.94653
    endloop
  endfacet
  facet normal -1 2.76701e-07 -3.07308e-07
    outer loop
      vertex 3 -5.78509 6.8944
      vertex 3 -8.9507 0.940756
      vertex 3 -6.25192 6.47406
    endloop
  endfacet
  facet normal -1 3.89961e-08 -1.56405e-07
    outer loop
      vertex 3 -1.8712 8.80333
      vertex 3 -8.9507 0.940756
      vertex 3 -2.48074 8.65135
    endloop
  endfacet
  facet normal -1 8.93292e-07 -5.58191e-07
    outer loop
      vertex 3 -7.46134 5.03274
      vertex 3 -8.9507 0.940756
      vertex 3 -7.79423 4.5
    endloop
  endfacet
  facet normal 0 -0.848048 0.52992
    outer loop
      vertex -3.875 -7.79423 4.5
      vertex -3 -7.46134 5.03274
      vertex -3.875 -7.46134 5.03274
    endloop
  endfacet
  facet normal 0 -0.848048 0.52992
    outer loop
      vertex -3 -7.46134 5.03274
      vertex -3.875 -7.79423 4.5
      vertex -3 -7.79423 4.5
    endloop
  endfacet
  facet normal 0 -0.848048 0.52992
    outer loop
      vertex 3 -7.79423 4.5
      vertex 3.875 -7.46134 5.03274
      vertex 3 -7.46134 5.03274
    endloop
  endfacet
  facet normal 0 -0.848048 0.52992
    outer loop
      vertex 3.875 -7.46134 5.03274
      vertex 3 -7.79423 4.5
      vertex 3.875 -7.79423 4.5
    endloop
  endfacet
  facet normal -1 6.42792e-07 -4.67017e-07
    outer loop
      vertex 3 -7.0921 5.54095
      vertex 3 -8.9507 0.940756
      vertex 3 -7.46134 5.03274
    endloop
  endfacet
  facet normal 0 -0.71934 0.694658
    outer loop
      vertex -3.875 -6.6883 6.02217
      vertex -3 -6.25192 6.47406
      vertex -3.875 -6.25192 6.47406
    endloop
  endfacet
  facet normal 0 -0.71934 0.694658
    outer loop
      vertex -3 -6.25192 6.47406
      vertex -3.875 -6.6883 6.02217
      vertex -3 -6.6883 6.02217
    endloop
  endfacet
  facet normal 0 -0.71934 0.694658
    outer loop
      vertex 3 -6.6883 6.02217
      vertex 3.875 -6.25192 6.47406
      vertex 3 -6.25192 6.47406
    endloop
  endfacet
  facet normal 0 -0.71934 0.694658
    outer loop
      vertex 3.875 -6.25192 6.47406
      vertex 3 -6.6883 6.02217
      vertex 3.875 -6.6883 6.02217
    endloop
  endfacet
  facet normal 0 -0.978148 0.207911
    outer loop
      vertex -3.875 -8.86327 1.56283
      vertex -3 -8.73266 2.1773
      vertex -3.875 -8.73266 2.1773
    endloop
  endfacet
  facet normal 0 -0.978148 0.207911
    outer loop
      vertex -3 -8.73266 2.1773
      vertex -3.875 -8.86327 1.56283
      vertex -3 -8.86327 1.56283
    endloop
  endfacet
  facet normal 0 -0.978148 0.207911
    outer loop
      vertex 3 -8.86327 1.56283
      vertex 3.875 -8.73266 2.1773
      vertex 3 -8.73266 2.1773
    endloop
  endfacet
  facet normal 0 -0.978148 0.207911
    outer loop
      vertex 3.875 -8.73266 2.1773
      vertex 3 -8.86327 1.56283
      vertex 3.875 -8.86327 1.56283
    endloop
  endfacet
  facet normal -1 2.12884e-05 -4.52498e-06
    outer loop
      vertex 3 -8.73266 2.1773
      vertex 3 -8.9507 0.940756
      vertex 3 -8.86327 1.56283
    endloop
  endfacet
  facet normal 0 -0.939692 0.342021
    outer loop
      vertex -3.875 -8.55951 2.78115
      vertex -3 -8.34465 3.37146
      vertex -3.875 -8.34465 3.37146
    endloop
  endfacet
  facet normal 0 -0.939692 0.342021
    outer loop
      vertex -3 -8.34465 3.37146
      vertex -3.875 -8.55951 2.78115
      vertex -3 -8.55951 2.78115
    endloop
  endfacet
  facet normal 0 -0.939692 0.342021
    outer loop
      vertex 3 -8.55951 2.78115
      vertex 3.875 -8.34465 3.37146
      vertex 3 -8.34465 3.37146
    endloop
  endfacet
  facet normal 0 -0.939692 0.342021
    outer loop
      vertex 3.875 -8.34465 3.37146
      vertex 3 -8.55951 2.78115
      vertex 3.875 -8.55951 2.78115
    endloop
  endfacet
  facet normal 0 -0.913545 0.406737
    outer loop
      vertex -3.875 -8.34465 3.37146
      vertex -3 -8.08915 3.94534
      vertex -3.875 -8.08915 3.94534
    endloop
  endfacet
  facet normal 0 -0.913545 0.406737
    outer loop
      vertex -3 -8.08915 3.94534
      vertex -3.875 -8.34465 3.37146
      vertex -3 -8.34465 3.37146
    endloop
  endfacet
  facet normal 0 -0.913545 0.406737
    outer loop
      vertex 3 -8.34465 3.37146
      vertex 3.875 -8.08915 3.94534
      vertex 3 -8.08915 3.94534
    endloop
  endfacet
  facet normal 0 -0.913545 0.406737
    outer loop
      vertex 3.875 -8.08915 3.94534
      vertex 3 -8.34465 3.37146
      vertex 3.875 -8.34465 3.37146
    endloop
  endfacet
  facet normal 0 -0.882948 0.469471
    outer loop
      vertex 3 -8.08915 3.94534
      vertex 3.875 -7.79423 4.5
      vertex 3 -7.79423 4.5
    endloop
  endfacet
  facet normal 0 -0.882948 0.469471
    outer loop
      vertex 3.875 -7.79423 4.5
      vertex 3 -8.08915 3.94534
      vertex 3.875 -8.08915 3.94534
    endloop
  endfacet
  facet normal 0 -0.882948 0.469471
    outer loop
      vertex -3.875 -8.08915 3.94534
      vertex -3 -7.79423 4.5
      vertex -3.875 -7.79423 4.5
    endloop
  endfacet
  facet normal 0 -0.882948 0.469471
    outer loop
      vertex -3 -7.79423 4.5
      vertex -3.875 -8.08915 3.94534
      vertex -3 -8.08915 3.94534
    endloop
  endfacet
  facet normal -1 1.29573e-06 -6.88953e-07
    outer loop
      vertex 3 -7.79423 4.5
      vertex 3 -8.9507 0.940756
      vertex 3 -8.08915 3.94534
    endloop
  endfacet
  facet normal 0 -0.766044 0.642788
    outer loop
      vertex 3 -7.0921 5.54095
      vertex 3.875 -6.6883 6.02217
      vertex 3 -6.6883 6.02217
    endloop
  endfacet
  facet normal 0 -0.766044 0.642788
    outer loop
      vertex 3.875 -6.6883 6.02217
      vertex 3 -7.0921 5.54095
      vertex 3.875 -7.0921 5.54095
    endloop
  endfacet
  facet normal 0 -0.766044 0.642788
    outer loop
      vertex -3.875 -7.0921 5.54095
      vertex -3 -6.6883 6.02217
      vertex -3.875 -6.6883 6.02217
    endloop
  endfacet
  facet normal 0 -0.766044 0.642788
    outer loop
      vertex -3 -6.6883 6.02217
      vertex -3.875 -7.0921 5.54095
      vertex -3 -7.0921 5.54095
    endloop
  endfacet
  facet normal 1 -2.40843e-07 3.08265e-07
    outer loop
      vertex 3 -4.70228 6.47214
      vertex 3 -5.1423 6.12836
      vertex 3 -7.95617 0.836227
    endloop
  endfacet
  facet normal 1 1.86933e-07 2.7714e-07
    outer loop
      vertex 3 4.70228 6.47214
      vertex 3 4.23935 6.78438
      vertex 3 7.95617 0.836227
    endloop
  endfacet
  facet normal 1 0 1.33125e-07
    outer loop
      vertex 3 7.95617 0.836227
      vertex 3 0 8
      vertex 3 -7.95617 0.836227
    endloop
  endfacet
  facet normal 1 -4.05676e-07 3.91757e-07
    outer loop
      vertex 3 -5.55727 5.75472
      vertex 3 -5.94516 5.35304
      vertex 3 -7.95617 0.836227
    endloop
  endfacet
  facet normal 1 2.39484e-05 5.0904e-06
    outer loop
      vertex 3 7.87846 1.38918
      vertex 3 7.76237 1.93537
      vertex 3 7.95617 0.836227
    endloop
  endfacet
  facet normal 1 2.86016e-08 1.62208e-07
    outer loop
      vertex 3 1.66329 7.82518
      vertex 3 1.11338 7.92214
      vertex 3 7.95617 0.836227
    endloop
  endfacet
  facet normal -0 0.309016 0.951057
    outer loop
      vertex -3 2.73616 7.51754
      vertex 3 2.2051 7.69009
      vertex 3 2.73616 7.51754
    endloop
  endfacet
  facet normal 0 0.309016 0.951057
    outer loop
      vertex 3 2.2051 7.69009
      vertex -3 2.73616 7.51754
      vertex -3 2.2051 7.69009
    endloop
  endfacet
  facet normal 0 -0.997564 0.0697555
    outer loop
      vertex -3 -7.99513 0.279196
      vertex 3 -7.95617 0.836227
      vertex -3 -7.95617 0.836227
    endloop
  endfacet
  facet normal 0 -0.997564 0.0697555
    outer loop
      vertex 3 -7.95617 0.836227
      vertex -3 -7.99513 0.279196
      vertex 3 -7.99513 0.279196
    endloop
  endfacet
  facet normal 1 -1.86933e-07 2.7714e-07
    outer loop
      vertex 3 -4.23935 6.78438
      vertex 3 -4.70228 6.47214
      vertex 3 -7.95617 0.836227
    endloop
  endfacet
  facet normal 1 -6.21569e-08 1.913e-07
    outer loop
      vertex 3 -2.2051 7.69009
      vertex 3 -2.73616 7.51754
      vertex 3 -7.95617 0.836227
    endloop
  endfacet
  facet normal -1.58849e-07 -0.0348992 0.999391
    outer loop
      vertex -3 0 8
      vertex -3 -0.558051 7.98051
      vertex 3 0 8
    endloop
  endfacet
  facet normal 1 6.21569e-08 1.913e-07
    outer loop
      vertex 3 2.73616 7.51754
      vertex 3 2.2051 7.69009
      vertex 3 7.95617 0.836227
    endloop
  endfacet
  facet normal 1 7.85789e-06 2.25321e-06
    outer loop
      vertex 3 7.76237 1.93537
      vertex 3 7.60845 2.47214
      vertex 3 7.95617 0.836227
    endloop
  endfacet
  facet normal 1 2.40843e-07 3.08265e-07
    outer loop
      vertex 3 5.1423 6.12836
      vertex 3 4.70228 6.47214
      vertex 3 7.95617 0.836227
    endloop
  endfacet
  facet normal -0 0.5 0.866026
    outer loop
      vertex -3 4.23935 6.78438
      vertex 3 3.75577 7.06358
      vertex 3 4.23935 6.78438
    endloop
  endfacet
  facet normal 0 0.5 0.866026
    outer loop
      vertex 3 3.75577 7.06358
      vertex -3 4.23935 6.78438
      vertex -3 3.75577 7.06358
    endloop
  endfacet
  facet normal 0 0.719339 0.694659
    outer loop
      vertex 3 5.94516 5.35304
      vertex -3 5.55727 5.75472
      vertex 3 5.55727 5.75472
    endloop
  endfacet
  facet normal 0 0.719339 0.694659
    outer loop
      vertex -3 5.55727 5.75472
      vertex 3 5.94516 5.35304
      vertex -3 5.94516 5.35304
    endloop
  endfacet
  facet normal 1 1.4577e-06 7.7507e-07
    outer loop
      vertex 3 7.19035 3.50697
      vertex 3 6.9282 4
      vertex 3 7.95617 0.836227
    endloop
  endfacet
  facet normal 1 -1.57436e-08 1.49791e-07
    outer loop
      vertex 3 -0.558051 7.98051
      vertex 3 -1.11338 7.92214
      vertex 3 -7.95617 0.836227
    endloop
  endfacet
  facet normal 0 -0.990268 0.139173
    outer loop
      vertex -3 -7.95617 0.836227
      vertex 3 -7.87846 1.38918
      vertex -3 -7.87846 1.38918
    endloop
  endfacet
  facet normal 0 -0.990268 0.139173
    outer loop
      vertex 3 -7.87846 1.38918
      vertex -3 -7.95617 0.836227
      vertex 3 -7.95617 0.836227
    endloop
  endfacet
  facet normal 1 -2.39484e-05 5.0904e-06
    outer loop
      vertex 3 -7.76237 1.93537
      vertex 3 -7.87846 1.38918
      vertex 3 -7.95617 0.836227
    endloop
  endfacet
  facet normal 0 -0.913545 0.406737
    outer loop
      vertex -3 -7.41747 2.99685
      vertex 3 -7.19035 3.50697
      vertex -3 -7.19035 3.50697
    endloop
  endfacet
  facet normal 0 -0.913545 0.406737
    outer loop
      vertex 3 -7.19035 3.50697
      vertex -3 -7.41747 2.99685
      vertex 3 -7.41747 2.99685
    endloop
  endfacet
  facet normal 1 -3.1129e-07 3.45722e-07
    outer loop
      vertex 3 -5.1423 6.12836
      vertex 3 -5.55727 5.75472
      vertex 3 -7.95617 0.836227
    endloop
  endfacet
  facet normal 0 -0.615662 0.788011
    outer loop
      vertex -3 -4.70228 6.47214
      vertex 3 -5.1423 6.12836
      vertex 3 -4.70228 6.47214
    endloop
  endfacet
  facet normal 0 -0.615662 0.788011
    outer loop
      vertex 3 -5.1423 6.12836
      vertex -3 -4.70228 6.47214
      vertex -3 -5.1423 6.12836
    endloop
  endfacet
  facet normal 1 -1.4481e-07 2.50818e-07
    outer loop
      vertex 3 -3.75577 7.06358
      vertex 3 -4.23935 6.78438
      vertex 3 -7.95617 0.836227
    endloop
  endfacet
  facet normal 1 -8.42708e-08 2.08577e-07
    outer loop
      vertex 3 -2.73616 7.51754
      vertex 3 -3.25389 7.30836
      vertex 3 -7.95617 0.836227
    endloop
  endfacet
  facet normal 1 -1.11312e-07 2.28224e-07
    outer loop
      vertex 3 -3.25389 7.30836
      vertex 3 -3.75577 7.06358
      vertex 3 -7.95617 0.836227
    endloop
  endfacet
  facet normal 1 -4.83658e-09 1.38496e-07
    outer loop
      vertex 3 0 8
      vertex 3 -0.558051 7.98051
      vertex 3 -7.95617 0.836227
    endloop
  endfacet
  facet normal 0 -0.0349009 0.999391
    outer loop
      vertex 3 0 8
      vertex -3 -0.558051 7.98051
      vertex 3 -0.558051 7.98051
    endloop
  endfacet
  facet normal 0 1 -0
    outer loop
      vertex 3 7.99513 0
      vertex -3 7.99513 0.279196
      vertex 3 7.99513 0.279196
    endloop
  endfacet
  facet normal 0 1 0
    outer loop
      vertex -3 7.99513 0.279196
      vertex 3 7.99513 0
      vertex -3 7.99513 0
    endloop
  endfacet
  facet normal 1 2.25313e-06 1.00316e-06
    outer loop
      vertex 3 7.41747 2.99685
      vertex 3 7.19035 3.50697
      vertex 3 7.95617 0.836227
    endloop
  endfacet
  facet normal 1 3.8501e-06 1.40133e-06
    outer loop
      vertex 3 7.60845 2.47214
      vertex 3 7.41747 2.99685
      vertex 3 7.95617 0.836227
    endloop
  endfacet
  facet normal 1 1.4481e-07 2.50818e-07
    outer loop
      vertex 3 4.23935 6.78438
      vertex 3 3.75577 7.06358
      vertex 3 7.95617 0.836227
    endloop
  endfacet
  facet normal -0 0.559193 0.829038
    outer loop
      vertex -3 4.70228 6.47214
      vertex 3 4.23935 6.78438
      vertex 3 4.70228 6.47214
    endloop
  endfacet
  facet normal 0 0.559193 0.829038
    outer loop
      vertex 3 4.23935 6.78438
      vertex -3 4.70228 6.47214
      vertex -3 4.23935 6.78438
    endloop
  endfacet
  facet normal 0 0.913545 0.406737
    outer loop
      vertex 3 7.41747 2.99685
      vertex -3 7.19035 3.50697
      vertex 3 7.19035 3.50697
    endloop
  endfacet
  facet normal 0 0.913545 0.406737
    outer loop
      vertex -3 7.19035 3.50697
      vertex 3 7.41747 2.99685
      vertex -3 7.41747 2.99685
    endloop
  endfacet
  facet normal 1 3.1129e-07 3.45722e-07
    outer loop
      vertex 3 5.55727 5.75472
      vertex 3 5.1423 6.12836
      vertex 3 7.95617 0.836227
    endloop
  endfacet
  facet normal 1 1.00496e-06 6.27968e-07
    outer loop
      vertex 3 6.9282 4
      vertex 3 6.6323 4.47354
      vertex 3 7.95617 0.836227
    endloop
  endfacet
  facet normal 0 -0.241922 0.970296
    outer loop
      vertex -3 -1.66329 7.82518
      vertex 3 -2.2051 7.69009
      vertex 3 -1.66329 7.82518
    endloop
  endfacet
  facet normal 0 -0.241922 0.970296
    outer loop
      vertex 3 -2.2051 7.69009
      vertex -3 -1.66329 7.82518
      vertex -3 -2.2051 7.69009
    endloop
  endfacet
  facet normal 1 -4.38707e-08 1.75956e-07
    outer loop
      vertex 3 -1.66329 7.82518
      vertex 3 -2.2051 7.69009
      vertex 3 -7.95617 0.836227
    endloop
  endfacet
  facet normal 1 4.83658e-09 1.38496e-07
    outer loop
      vertex 3 0.558051 7.98051
      vertex 3 0 8
      vertex 3 7.95617 0.836227
    endloop
  endfacet
  facet normal 1 1.57436e-08 1.49791e-07
    outer loop
      vertex 3 1.11338 7.92214
      vertex 3 0.558051 7.98051
      vertex 3 7.95617 0.836227
    endloop
  endfacet
  facet normal 0 -0.939692 0.342021
    outer loop
      vertex -3 -7.60845 2.47214
      vertex 3 -7.41747 2.99685
      vertex -3 -7.41747 2.99685
    endloop
  endfacet
  facet normal 0 -0.939692 0.342021
    outer loop
      vertex 3 -7.41747 2.99685
      vertex -3 -7.60845 2.47214
      vertex 3 -7.60845 2.47214
    endloop
  endfacet
  facet normal 1 -3.8501e-06 1.40133e-06
    outer loop
      vertex 3 -7.41747 2.99685
      vertex 3 -7.60845 2.47214
      vertex 3 -7.95617 0.836227
    endloop
  endfacet
  facet normal 0 -0.848048 0.529919
    outer loop
      vertex -3 -6.9282 4
      vertex 3 -6.6323 4.47354
      vertex -3 -6.6323 4.47354
    endloop
  endfacet
  facet normal 0 -0.848048 0.529919
    outer loop
      vertex 3 -6.6323 4.47354
      vertex -3 -6.9282 4
      vertex 3 -6.9282 4
    endloop
  endfacet
  facet normal 0 -0.882948 0.469471
    outer loop
      vertex -3 -7.19035 3.50697
      vertex 3 -6.9282 4
      vertex -3 -6.9282 4
    endloop
  endfacet
  facet normal 0 -0.882948 0.469471
    outer loop
      vertex 3 -6.9282 4
      vertex -3 -7.19035 3.50697
      vertex 3 -7.19035 3.50697
    endloop
  endfacet
  facet normal 1 -1.00496e-06 6.27966e-07
    outer loop
      vertex 3 -6.6323 4.47354
      vertex 3 -6.9282 4
      vertex 3 -7.95617 0.836227
    endloop
  endfacet
  facet normal 1 -2.86016e-08 1.62208e-07
    outer loop
      vertex 3 -1.11338 7.92214
      vertex 3 -1.66329 7.82518
      vertex 3 -7.95617 0.836227
    endloop
  endfacet
  facet normal 0 0.997564 0.0697555
    outer loop
      vertex 3 7.99513 0.279196
      vertex -3 7.95617 0.836227
      vertex 3 7.95617 0.836227
    endloop
  endfacet
  facet normal 0 0.997564 0.0697555
    outer loop
      vertex -3 7.95617 0.836227
      vertex 3 7.99513 0.279196
      vertex -3 7.99513 0.279196
    endloop
  endfacet
  facet normal 1 8.42708e-08 2.08577e-07
    outer loop
      vertex 3 3.25389 7.30836
      vertex 3 2.73616 7.51754
      vertex 3 7.95617 0.836227
    endloop
  endfacet
  facet normal 1 1.11312e-07 2.28224e-07
    outer loop
      vertex 3 3.75577 7.06358
      vertex 3 3.25389 7.30836
      vertex 3 7.95617 0.836227
    endloop
  endfacet
  facet normal 0 0.961262 0.275637
    outer loop
      vertex 3 7.76237 1.93537
      vertex -3 7.60845 2.47214
      vertex 3 7.60845 2.47214
    endloop
  endfacet
  facet normal 0 0.961262 0.275637
    outer loop
      vertex -3 7.60845 2.47214
      vertex 3 7.76237 1.93537
      vertex -3 7.76237 1.93537
    endloop
  endfacet
  facet normal 0 0.939692 0.342021
    outer loop
      vertex 3 7.60845 2.47214
      vertex -3 7.41747 2.99685
      vertex 3 7.41747 2.99685
    endloop
  endfacet
  facet normal 0 0.939692 0.342021
    outer loop
      vertex -3 7.41747 2.99685
      vertex 3 7.60845 2.47214
      vertex -3 7.60845 2.47214
    endloop
  endfacet
  facet normal 0 0.766044 0.642788
    outer loop
      vertex 3 6.30409 4.92529
      vertex -3 5.94516 5.35304
      vertex 3 5.94516 5.35304
    endloop
  endfacet
  facet normal 0 0.766044 0.642788
    outer loop
      vertex -3 5.94516 5.35304
      vertex 3 6.30409 4.92529
      vertex -3 6.30409 4.92529
    endloop
  endfacet
  facet normal 0 0.848049 0.529918
    outer loop
      vertex 3 6.9282 4
      vertex -3 6.6323 4.47354
      vertex 3 6.6323 4.47354
    endloop
  endfacet
  facet normal 0 0.848049 0.529918
    outer loop
      vertex -3 6.6323 4.47354
      vertex 3 6.9282 4
      vertex -3 6.9282 4
    endloop
  endfacet
  facet normal 1 4.38707e-08 1.75956e-07
    outer loop
      vertex 3 2.2051 7.69009
      vertex 3 1.66329 7.82518
      vertex 3 7.95617 0.836227
    endloop
  endfacet
  facet normal 0 0.0349009 0.999391
    outer loop
      vertex 3 0.558051 7.98051
      vertex -3 0.558051 7.98051
      vertex 3 0 8
    endloop
  endfacet
  facet normal 0 -0.559193 0.829038
    outer loop
      vertex -3 -4.23935 6.78438
      vertex 3 -4.70228 6.47214
      vertex 3 -4.23935 6.78438
    endloop
  endfacet
  facet normal 0 -0.559193 0.829038
    outer loop
      vertex 3 -4.70228 6.47214
      vertex -3 -4.23935 6.78438
      vertex -3 -4.70228 6.47214
    endloop
  endfacet
  facet normal 0 -1 0
    outer loop
      vertex -3 -7.99513 0
      vertex 3 -7.99513 0.279196
      vertex -3 -7.99513 0.279196
    endloop
  endfacet
  facet normal 0 -1 -0
    outer loop
      vertex 3 -7.99513 0.279196
      vertex -3 -7.99513 0
      vertex 3 -7.99513 0
    endloop
  endfacet
  facet normal 0 -0.978147 0.207912
    outer loop
      vertex -3 -7.87846 1.38918
      vertex 3 -7.76237 1.93537
      vertex -3 -7.76237 1.93537
    endloop
  endfacet
  facet normal 0 -0.978147 0.207912
    outer loop
      vertex 3 -7.76237 1.93537
      vertex -3 -7.87846 1.38918
      vertex 3 -7.87846 1.38918
    endloop
  endfacet
  facet normal 0 -0.961262 0.275637
    outer loop
      vertex -3 -7.76237 1.93537
      vertex 3 -7.60845 2.47214
      vertex -3 -7.60845 2.47214
    endloop
  endfacet
  facet normal 0 -0.961262 0.275637
    outer loop
      vertex 3 -7.60845 2.47214
      vertex -3 -7.76237 1.93537
      vertex 3 -7.76237 1.93537
    endloop
  endfacet
  facet normal 1 -7.85789e-06 2.25321e-06
    outer loop
      vertex 3 -7.60845 2.47214
      vertex 3 -7.76237 1.93537
      vertex 3 -7.95617 0.836227
    endloop
  endfacet
  facet normal 1 -2.25313e-06 1.00316e-06
    outer loop
      vertex 3 -7.19035 3.50697
      vertex 3 -7.41747 2.99685
      vertex 3 -7.95617 0.836227
    endloop
  endfacet
  facet normal 1 -1.4577e-06 7.75072e-07
    outer loop
      vertex 3 -6.9282 4
      vertex 3 -7.19035 3.50697
      vertex 3 -7.95617 0.836227
    endloop
  endfacet
  facet normal 0 -0.719339 0.694659
    outer loop
      vertex -3 -5.94516 5.35304
      vertex 3 -5.55727 5.75472
      vertex -3 -5.55727 5.75472
    endloop
  endfacet
  facet normal 0 -0.719339 0.694659
    outer loop
      vertex 3 -5.55727 5.75472
      vertex -3 -5.94516 5.35304
      vertex 3 -5.94516 5.35304
    endloop
  endfacet
  facet normal 0 -0.669131 0.743144
    outer loop
      vertex -3 -5.1423 6.12836
      vertex 3 -5.55727 5.75472
      vertex 3 -5.1423 6.12836
    endloop
  endfacet
  facet normal 0 -0.669131 0.743144
    outer loop
      vertex 3 -5.55727 5.75472
      vertex -3 -5.1423 6.12836
      vertex -3 -5.55727 5.75472
    endloop
  endfacet
  facet normal 1 -7.23141e-07 5.25393e-07
    outer loop
      vertex 3 -6.30409 4.92529
      vertex 3 -6.6323 4.47354
      vertex 3 -7.95617 0.836227
    endloop
  endfacet
  facet normal 1 -5.3606e-07 4.49808e-07
    outer loop
      vertex 3 -5.94516 5.35304
      vertex 3 -6.30409 4.92529
      vertex 3 -7.95617 0.836227
    endloop
  endfacet
  facet normal 0 0.990268 0.139173
    outer loop
      vertex 3 7.95617 0.836227
      vertex -3 7.87846 1.38918
      vertex 3 7.87846 1.38918
    endloop
  endfacet
  facet normal 0 0.990268 0.139173
    outer loop
      vertex -3 7.87846 1.38918
      vertex 3 7.95617 0.836227
      vertex -3 7.95617 0.836227
    endloop
  endfacet
  facet normal 0 0.978147 0.207912
    outer loop
      vertex 3 7.87846 1.38918
      vertex -3 7.76237 1.93537
      vertex 3 7.76237 1.93537
    endloop
  endfacet
  facet normal 0 0.978147 0.207912
    outer loop
      vertex -3 7.76237 1.93537
      vertex 3 7.87846 1.38918
      vertex -3 7.87846 1.38918
    endloop
  endfacet
  facet normal -0 0.615662 0.788011
    outer loop
      vertex -3 5.1423 6.12836
      vertex 3 4.70228 6.47214
      vertex 3 5.1423 6.12836
    endloop
  endfacet
  facet normal 0 0.615662 0.788011
    outer loop
      vertex 3 4.70228 6.47214
      vertex -3 5.1423 6.12836
      vertex -3 4.70228 6.47214
    endloop
  endfacet
  facet normal -0 0.669131 0.743144
    outer loop
      vertex -3 5.55727 5.75472
      vertex 3 5.1423 6.12836
      vertex 3 5.55727 5.75472
    endloop
  endfacet
  facet normal 0 0.669131 0.743144
    outer loop
      vertex 3 5.1423 6.12836
      vertex -3 5.55727 5.75472
      vertex -3 5.1423 6.12836
    endloop
  endfacet
  facet normal 1 4.05676e-07 3.91757e-07
    outer loop
      vertex 3 5.94516 5.35304
      vertex 3 5.55727 5.75472
      vertex 3 7.95617 0.836227
    endloop
  endfacet
  facet normal 0 0.809016 0.587786
    outer loop
      vertex 3 6.6323 4.47354
      vertex -3 6.30409 4.92529
      vertex 3 6.30409 4.92529
    endloop
  endfacet
  facet normal 0 0.809016 0.587786
    outer loop
      vertex -3 6.30409 4.92529
      vertex 3 6.6323 4.47354
      vertex -3 6.6323 4.47354
    endloop
  endfacet
  facet normal 0 0.882948 0.469471
    outer loop
      vertex 3 7.19035 3.50697
      vertex -3 6.9282 4
      vertex 3 6.9282 4
    endloop
  endfacet
  facet normal 0 0.882948 0.469471
    outer loop
      vertex -3 6.9282 4
      vertex 3 7.19035 3.50697
      vertex -3 7.19035 3.50697
    endloop
  endfacet
  facet normal -0 0.104528 0.994522
    outer loop
      vertex -3 1.11338 7.92214
      vertex 3 0.558051 7.98051
      vertex 3 1.11338 7.92214
    endloop
  endfacet
  facet normal 0 0.104528 0.994522
    outer loop
      vertex 3 0.558051 7.98051
      vertex -3 1.11338 7.92214
      vertex -3 0.558051 7.98051
    endloop
  endfacet
  facet normal 0 -0.5 0.866026
    outer loop
      vertex -3 -3.75577 7.06358
      vertex 3 -4.23935 6.78438
      vertex 3 -3.75577 7.06358
    endloop
  endfacet
  facet normal 0 -0.5 0.866026
    outer loop
      vertex 3 -4.23935 6.78438
      vertex -3 -3.75577 7.06358
      vertex -3 -4.23935 6.78438
    endloop
  endfacet
  facet normal 0 -0.809016 0.587786
    outer loop
      vertex -3 -6.6323 4.47354
      vertex 3 -6.30409 4.92529
      vertex -3 -6.30409 4.92529
    endloop
  endfacet
  facet normal 0 -0.809016 0.587786
    outer loop
      vertex 3 -6.30409 4.92529
      vertex -3 -6.6323 4.47354
      vertex 3 -6.6323 4.47354
    endloop
  endfacet
  facet normal 0 -0.766044 0.642788
    outer loop
      vertex -3 -6.30409 4.92529
      vertex 3 -5.94516 5.35304
      vertex -3 -5.94516 5.35304
    endloop
  endfacet
  facet normal 0 -0.766044 0.642788
    outer loop
      vertex 3 -5.94516 5.35304
      vertex -3 -6.30409 4.92529
      vertex 3 -6.30409 4.92529
    endloop
  endfacet
  facet normal 0 -0.309016 0.951057
    outer loop
      vertex -3 -2.2051 7.69009
      vertex 3 -2.73616 7.51754
      vertex 3 -2.2051 7.69009
    endloop
  endfacet
  facet normal 0 -0.309016 0.951057
    outer loop
      vertex 3 -2.73616 7.51754
      vertex -3 -2.2051 7.69009
      vertex -3 -2.73616 7.51754
    endloop
  endfacet
  facet normal 0 -0.173648 0.984808
    outer loop
      vertex -3 -1.11338 7.92214
      vertex 3 -1.66329 7.82518
      vertex 3 -1.11338 7.92214
    endloop
  endfacet
  facet normal 0 -0.173648 0.984808
    outer loop
      vertex 3 -1.66329 7.82518
      vertex -3 -1.11338 7.92214
      vertex -3 -1.66329 7.82518
    endloop
  endfacet
  facet normal 0 -0.104528 0.994522
    outer loop
      vertex -3 -0.558051 7.98051
      vertex 3 -1.11338 7.92214
      vertex 3 -0.558051 7.98051
    endloop
  endfacet
  facet normal 0 -0.104528 0.994522
    outer loop
      vertex 3 -1.11338 7.92214
      vertex -3 -0.558051 7.98051
      vertex -3 -1.11338 7.92214
    endloop
  endfacet
  facet normal -0 0.374607 0.927184
    outer loop
      vertex -3 3.25389 7.30836
      vertex 3 2.73616 7.51754
      vertex 3 3.25389 7.30836
    endloop
  endfacet
  facet normal 0 0.374607 0.927184
    outer loop
      vertex 3 2.73616 7.51754
      vertex -3 3.25389 7.30836
      vertex -3 2.73616 7.51754
    endloop
  endfacet
  facet normal 1 5.3606e-07 4.49808e-07
    outer loop
      vertex 3 6.30409 4.92529
      vertex 3 5.94516 5.35304
      vertex 3 7.95617 0.836227
    endloop
  endfacet
  facet normal 1 7.23141e-07 5.25393e-07
    outer loop
      vertex 3 6.6323 4.47354
      vertex 3 6.30409 4.92529
      vertex 3 7.95617 0.836227
    endloop
  endfacet
  facet normal -0 0.173648 0.984808
    outer loop
      vertex -3 1.66329 7.82518
      vertex 3 1.11338 7.92214
      vertex 3 1.66329 7.82518
    endloop
  endfacet
  facet normal 0 0.173648 0.984808
    outer loop
      vertex 3 1.11338 7.92214
      vertex -3 1.66329 7.82518
      vertex -3 1.11338 7.92214
    endloop
  endfacet
  facet normal -0 0.241922 0.970296
    outer loop
      vertex -3 2.2051 7.69009
      vertex 3 1.66329 7.82518
      vertex 3 2.2051 7.69009
    endloop
  endfacet
  facet normal 0 0.241922 0.970296
    outer loop
      vertex 3 1.66329 7.82518
      vertex -3 2.2051 7.69009
      vertex -3 1.66329 7.82518
    endloop
  endfacet
  facet normal -1.58849e-07 0.0348992 0.999391
    outer loop
      vertex -3 0.558051 7.98051
      vertex -3 0 8
      vertex 3 0 8
    endloop
  endfacet
  facet normal 0 -0.438371 0.898794
    outer loop
      vertex -3 -3.25389 7.30836
      vertex 3 -3.75577 7.06358
      vertex 3 -3.25389 7.30836
    endloop
  endfacet
  facet normal 0 -0.438371 0.898794
    outer loop
      vertex 3 -3.75577 7.06358
      vertex -3 -3.25389 7.30836
      vertex -3 -3.75577 7.06358
    endloop
  endfacet
  facet normal 0 -0.374607 0.927184
    outer loop
      vertex -3 -2.73616 7.51754
      vertex 3 -3.25389 7.30836
      vertex 3 -2.73616 7.51754
    endloop
  endfacet
  facet normal 0 -0.374607 0.927184
    outer loop
      vertex 3 -3.25389 7.30836
      vertex -3 -2.73616 7.51754
      vertex -3 -3.25389 7.30836
    endloop
  endfacet
  facet normal -0 0.438371 0.898794
    outer loop
      vertex -3 3.75577 7.06358
      vertex 3 3.25389 7.30836
      vertex 3 3.75577 7.06358
    endloop
  endfacet
  facet normal 0 0.438371 0.898794
    outer loop
      vertex 3 3.25389 7.30836
      vertex -3 3.75577 7.06358
      vertex -3 3.25389 7.30836
    endloop
  endfacet
  facet normal 1 -4.29911e-09 1.23108e-07
    outer loop
      vertex 3.875 0 9
      vertex 3.875 -0.627808 8.97808
      vertex 3.875 -8.9507 0.940756
    endloop
  endfacet
  facet normal 1 1.2872e-07 2.2295e-07
    outer loop
      vertex 3.875 4.76927 7.63243
      vertex 3.875 4.22524 7.94653
      vertex 3.875 8.9507 0.940756
    endloop
  endfacet
  facet normal 1 3.89961e-08 1.56405e-07
    outer loop
      vertex 3.875 2.48074 8.65135
      vertex 3.875 1.8712 8.80333
      vertex 3.875 8.9507 0.940756
    endloop
  endfacet
  facet normal 1 6.98475e-06 2.00284e-06
    outer loop
      vertex 3.875 8.73266 2.1773
      vertex 3.875 8.55951 2.78115
      vertex 3.875 8.9507 0.940756
    endloop
  endfacet
  facet normal 1 -3.60602e-07 3.48229e-07
    outer loop
      vertex 3.875 -6.25192 6.47406
      vertex 3.875 -6.6883 6.02217
      vertex 3.875 -8.9507 0.940756
    endloop
  endfacet
  facet normal 1 2.54236e-08 1.44184e-07
    outer loop
      vertex 3.875 1.8712 8.80333
      vertex 3.875 1.25256 8.91241
      vertex 3.875 8.9507 0.940756
    endloop
  endfacet
  facet normal 1 3.42233e-06 1.24563e-06
    outer loop
      vertex 3.875 8.55951 2.78115
      vertex 3.875 8.34465 3.37146
      vertex 3.875 8.9507 0.940756
    endloop
  endfacet
  facet normal 1 1.66162e-07 2.46346e-07
    outer loop
      vertex 3.875 5.29007 7.28115
      vertex 3.875 4.76927 7.63243
      vertex 3.875 8.9507 0.940756
    endloop
  endfacet
  facet normal 1 7.49074e-08 1.85402e-07
    outer loop
      vertex 3.875 3.66063 8.22191
      vertex 3.875 3.07818 8.45723
      vertex 3.875 8.9507 0.940756
    endloop
  endfacet
  facet normal 1 5.52506e-08 1.70044e-07
    outer loop
      vertex 3.875 3.07818 8.45723
      vertex 3.875 2.48074 8.65135
      vertex 3.875 8.9507 0.940756
    endloop
  endfacet
  facet normal 1 1.39944e-08 1.33147e-07
    outer loop
      vertex 3.875 1.25256 8.91241
      vertex 3.875 0.627808 8.97808
      vertex 3.875 8.9507 0.940756
    endloop
  endfacet
  facet normal 1 9.89444e-08 2.02866e-07
    outer loop
      vertex 3.875 4.22524 7.94653
      vertex 3.875 3.66063 8.22191
      vertex 3.875 8.9507 0.940756
    endloop
  endfacet
  facet normal 1 4.29911e-09 1.23108e-07
    outer loop
      vertex 3.875 0.627808 8.97808
      vertex 3.875 0 9
      vertex 3.875 8.9507 0.940756
    endloop
  endfacet
  facet normal 1 0 1.18333e-07
    outer loop
      vertex 3.875 8.9507 0.940756
      vertex 3.875 0 9
      vertex 3.875 -8.9507 0.940756
    endloop
  endfacet
  facet normal 1 8.93295e-07 5.58192e-07
    outer loop
      vertex 3.875 7.79423 4.5
      vertex 3.875 7.46134 5.03274
      vertex 3.875 8.9507 0.940756
    endloop
  endfacet
  facet normal -1 0 0
    outer loop
      vertex -3.875 8.99452 0
      vertex -3.875 8.9507 0.940756
      vertex -3.875 8.99452 0.314095
    endloop
  endfacet
  facet normal -1 0 0
    outer loop
      vertex -3.875 8.99452 0
      vertex -3.875 8.86327 1.56283
      vertex -3.875 8.9507 0.940756
    endloop
  endfacet
  facet normal -1 0 0
    outer loop
      vertex -3.875 8.99452 0
      vertex -3.875 8.73266 2.1773
      vertex -3.875 8.86327 1.56283
    endloop
  endfacet
  facet normal -1 0 0
    outer loop
      vertex -3.875 8.99452 0
      vertex -3.875 8.55951 2.78115
      vertex -3.875 8.73266 2.1773
    endloop
  endfacet
  facet normal -1 0 0
    outer loop
      vertex -3.875 8.99452 0
      vertex -3.875 8.34465 3.37146
      vertex -3.875 8.55951 2.78115
    endloop
  endfacet
  facet normal -1 0 0
    outer loop
      vertex -3.875 8.99452 0
      vertex -3.875 8.08915 3.94534
      vertex -3.875 8.34465 3.37146
    endloop
  endfacet
  facet normal -1 0 0
    outer loop
      vertex -3.875 8.99452 0
      vertex -3.875 7.79423 4.5
      vertex -3.875 8.08915 3.94534
    endloop
  endfacet
  facet normal -1 0 0
    outer loop
      vertex -3.875 8.99452 0
      vertex -3.875 7.46134 5.03274
      vertex -3.875 7.79423 4.5
    endloop
  endfacet
  facet normal -1 0 0
    outer loop
      vertex -3.875 8.99452 0
      vertex -3.875 7.0921 5.54095
      vertex -3.875 7.46134 5.03274
    endloop
  endfacet
  facet normal -1 0 0
    outer loop
      vertex -3.875 8.99452 0
      vertex -3.875 6.6883 6.02217
      vertex -3.875 7.0921 5.54095
    endloop
  endfacet
  facet normal -1 0 0
    outer loop
      vertex -3.875 8.99452 0
      vertex -3.875 6.25192 6.47406
      vertex -3.875 6.6883 6.02217
    endloop
  endfacet
  facet normal -1 0 0
    outer loop
      vertex -3.875 8.99452 0
      vertex -3.875 5.78509 6.8944
      vertex -3.875 6.25192 6.47406
    endloop
  endfacet
  facet normal -1 0 0
    outer loop
      vertex -3.875 8.99452 0
      vertex -3.875 5.29007 7.28115
      vertex -3.875 5.78509 6.8944
    endloop
  endfacet
  facet normal -1 0 0
    outer loop
      vertex -3.875 8.99452 0
      vertex -3.875 4.76927 7.63243
      vertex -3.875 5.29007 7.28115
    endloop
  endfacet
  facet normal -1 0 0
    outer loop
      vertex -3.875 8.99452 0
      vertex -3.875 4.22524 7.94653
      vertex -3.875 4.76927 7.63243
    endloop
  endfacet
  facet normal -1 0 0
    outer loop
      vertex -3.875 8.99452 0
      vertex -3.875 3.66063 8.22191
      vertex -3.875 4.22524 7.94653
    endloop
  endfacet
  facet normal -1 0 0
    outer loop
      vertex -3.875 8.99452 0
      vertex -3.875 3.07818 8.45723
      vertex -3.875 3.66063 8.22191
    endloop
  endfacet
  facet normal -1 0 0
    outer loop
      vertex -3.875 8.99452 0
      vertex -3.875 2.48074 8.65135
      vertex -3.875 3.07818 8.45723
    endloop
  endfacet
  facet normal -1 0 0
    outer loop
      vertex -3.875 8.99452 0
      vertex -3.875 1.8712 8.80333
      vertex -3.875 2.48074 8.65135
    endloop
  endfacet
  facet normal -1 0 0
    outer loop
      vertex -3.875 8.99452 0
      vertex -3.875 1.25256 8.91241
      vertex -3.875 1.8712 8.80333
    endloop
  endfacet
  facet normal -1 0 0
    outer loop
      vertex -3.875 8.99452 0
      vertex -3.875 0.627808 8.97808
      vertex -3.875 1.25256 8.91241
    endloop
  endfacet
  facet normal -1 0 0
    outer loop
      vertex -3.875 8.99452 0
      vertex -3.875 0 9
      vertex -3.875 0.627808 8.97808
    endloop
  endfacet
  facet normal -1 0 0
    outer loop
      vertex -3.875 8.99452 0
      vertex -3.875 -0.627808 8.97808
      vertex -3.875 0 9
    endloop
  endfacet
  facet normal -1 0 0
    outer loop
      vertex -3.875 8.99452 0
      vertex -3.875 -1.25256 8.91241
      vertex -3.875 -0.627808 8.97808
    endloop
  endfacet
  facet normal -1 0 0
    outer loop
      vertex -3.875 8.99452 0
      vertex -3.875 -1.8712 8.80333
      vertex -3.875 -1.25256 8.91241
    endloop
  endfacet
  facet normal -1 0 0
    outer loop
      vertex -3.875 8.99452 0
      vertex -3.875 -2.48074 8.65135
      vertex -3.875 -1.8712 8.80333
    endloop
  endfacet
  facet normal -1 0 0
    outer loop
      vertex -3.875 8.99452 0
      vertex -3.875 -3.07818 8.45723
      vertex -3.875 -2.48074 8.65135
    endloop
  endfacet
  facet normal -1 0 0
    outer loop
      vertex -3.875 8.99452 0
      vertex -3.875 -3.66063 8.22191
      vertex -3.875 -3.07818 8.45723
    endloop
  endfacet
  facet normal -1 0 0
    outer loop
      vertex -3.875 8.99452 0
      vertex -3.875 -4.22524 7.94653
      vertex -3.875 -3.66063 8.22191
    endloop
  endfacet
  facet normal -1 0 0
    outer loop
      vertex -3.875 8.99452 0
      vertex -3.875 -4.76927 7.63243
      vertex -3.875 -4.22524 7.94653
    endloop
  endfacet
  facet normal -1 0 0
    outer loop
      vertex -3.875 8.99452 0
      vertex -3.875 -5.29007 7.28115
      vertex -3.875 -4.76927 7.63243
    endloop
  endfacet
  facet normal -1 0 0
    outer loop
      vertex -3.875 8.99452 0
      vertex -3.875 -5.78509 6.8944
      vertex -3.875 -5.29007 7.28115
    endloop
  endfacet
  facet normal -1 0 0
    outer loop
      vertex -3.875 8.99452 0
      vertex -3.875 -6.25192 6.47406
      vertex -3.875 -5.78509 6.8944
    endloop
  endfacet
  facet normal -1 0 0
    outer loop
      vertex -3.875 8.99452 0
      vertex -3.875 -6.6883 6.02217
      vertex -3.875 -6.25192 6.47406
    endloop
  endfacet
  facet normal -1 0 0
    outer loop
      vertex -3.875 8.99452 0
      vertex -3.875 -7.0921 5.54095
      vertex -3.875 -6.6883 6.02217
    endloop
  endfacet
  facet normal -1 0 0
    outer loop
      vertex -3.875 8.99452 0
      vertex -3.875 -7.46134 5.03274
      vertex -3.875 -7.0921 5.54095
    endloop
  endfacet
  facet normal -1 0 0
    outer loop
      vertex -3.875 8.99452 0
      vertex -3.875 -7.79423 4.5
      vertex -3.875 -7.46134 5.03274
    endloop
  endfacet
  facet normal -1 0 0
    outer loop
      vertex -3.875 8.99452 0
      vertex -3.875 -8.08915 3.94534
      vertex -3.875 -7.79423 4.5
    endloop
  endfacet
  facet normal -1 0 0
    outer loop
      vertex -3.875 8.99452 0
      vertex -3.875 -8.34465 3.37146
      vertex -3.875 -8.08915 3.94534
    endloop
  endfacet
  facet normal -1 0 0
    outer loop
      vertex -3.875 8.99452 0
      vertex -3.875 -8.55951 2.78115
      vertex -3.875 -8.34465 3.37146
    endloop
  endfacet
  facet normal -1 0 0
    outer loop
      vertex -3.875 8.99452 0
      vertex -3.875 -8.73266 2.1773
      vertex -3.875 -8.55951 2.78115
    endloop
  endfacet
  facet normal -1 0 0
    outer loop
      vertex -3.875 8.99452 0
      vertex -3.875 -8.86327 1.56283
      vertex -3.875 -8.73266 2.1773
    endloop
  endfacet
  facet normal -1 0 0
    outer loop
      vertex -3.875 8.99452 0
      vertex -3.875 -8.9507 0.940756
      vertex -3.875 -8.86327 1.56283
    endloop
  endfacet
  facet normal -1 0 0
    outer loop
      vertex -3.875 -8.99452 0
      vertex -3.875 -8.9507 0.940756
      vertex -3.875 8.99452 0
    endloop
  endfacet
  facet normal -1 0 0
    outer loop
      vertex -3.875 -8.9507 0.940756
      vertex -3.875 -8.99452 0
      vertex -3.875 -8.99452 0.314095
    endloop
  endfacet
  facet normal 1 -3.89961e-08 1.56405e-07
    outer loop
      vertex 3.875 -1.8712 8.80333
      vertex 3.875 -2.48074 8.65135
      vertex 3.875 -8.9507 0.940756
    endloop
  endfacet
  facet normal 1 -2.00278e-06 8.91694e-07
    outer loop
      vertex 3.875 -8.08915 3.94534
      vertex 3.875 -8.34465 3.37146
      vertex 3.875 -8.9507 0.940756
    endloop
  endfacet
  facet normal 1 0 0
    outer loop
      vertex 3.875 8.9507 0.940756
      vertex 3.875 8.99452 0
      vertex 3.875 8.99452 0.314095
    endloop
  endfacet
  facet normal 1 -0 0
    outer loop
      vertex 3.875 -8.9507 0.940756
      vertex 3.875 8.99452 0
      vertex 3.875 8.9507 0.940756
    endloop
  endfacet
  facet normal 1 0 0
    outer loop
      vertex 3.875 -8.99452 0
      vertex 3.875 -8.9507 0.940756
      vertex 3.875 -8.99452 0.314095
    endloop
  endfacet
  facet normal 1 0 0
    outer loop
      vertex 3.875 -8.9507 0.940756
      vertex 3.875 -8.99452 0
      vertex 3.875 8.99452 0
    endloop
  endfacet
  facet normal 1 6.42792e-07 4.67017e-07
    outer loop
      vertex 3.875 7.46134 5.03274
      vertex 3.875 7.0921 5.54095
      vertex 3.875 8.9507 0.940756
    endloop
  endfacet
  facet normal 1 3.60602e-07 3.48229e-07
    outer loop
      vertex 3.875 6.6883 6.02217
      vertex 3.875 6.25192 6.47406
      vertex 3.875 8.9507 0.940756
    endloop
  endfacet
  facet normal 1 2.14083e-07 2.74013e-07
    outer loop
      vertex 3.875 5.78509 6.8944
      vertex 3.875 5.29007 7.28115
      vertex 3.875 8.9507 0.940756
    endloop
  endfacet
  facet normal 1 2.76701e-07 3.07308e-07
    outer loop
      vertex 3.875 6.25192 6.47406
      vertex 3.875 5.78509 6.8944
      vertex 3.875 8.9507 0.940756
    endloop
  endfacet
  facet normal 1 1.29573e-06 6.88951e-07
    outer loop
      vertex 3.875 8.08915 3.94534
      vertex 3.875 7.79423 4.5
      vertex 3.875 8.9507 0.940756
    endloop
  endfacet
  facet normal 1 2.00278e-06 8.91694e-07
    outer loop
      vertex 3.875 8.34465 3.37146
      vertex 3.875 8.08915 3.94534
      vertex 3.875 8.9507 0.940756
    endloop
  endfacet
  facet normal 1 -2.54236e-08 1.44184e-07
    outer loop
      vertex 3.875 -1.25256 8.91241
      vertex 3.875 -1.8712 8.80333
      vertex 3.875 -8.9507 0.940756
    endloop
  endfacet
  facet normal 1 -1.66162e-07 2.46346e-07
    outer loop
      vertex 3.875 -4.76927 7.63243
      vertex 3.875 -5.29007 7.28115
      vertex 3.875 -8.9507 0.940756
    endloop
  endfacet
  facet normal 1 -1.29573e-06 6.88953e-07
    outer loop
      vertex 3.875 -7.79423 4.5
      vertex 3.875 -8.08915 3.94534
      vertex 3.875 -8.9507 0.940756
    endloop
  endfacet
  facet normal 1 2.12884e-05 4.52498e-06
    outer loop
      vertex 3.875 8.86327 1.56283
      vertex 3.875 8.73266 2.1773
      vertex 3.875 8.9507 0.940756
    endloop
  endfacet
  facet normal 1 4.76498e-07 3.99829e-07
    outer loop
      vertex 3.875 7.0921 5.54095
      vertex 3.875 6.6883 6.02217
      vertex 3.875 8.9507 0.940756
    endloop
  endfacet
  facet normal 1 -1.39944e-08 1.33147e-07
    outer loop
      vertex 3.875 -0.627808 8.97808
      vertex 3.875 -1.25256 8.91241
      vertex 3.875 -8.9507 0.940756
    endloop
  endfacet
  facet normal 1 -1.2872e-07 2.2295e-07
    outer loop
      vertex 3.875 -4.22524 7.94653
      vertex 3.875 -4.76927 7.63243
      vertex 3.875 -8.9507 0.940756
    endloop
  endfacet
  facet normal 1 -9.89444e-08 2.02866e-07
    outer loop
      vertex 3.875 -3.66063 8.22191
      vertex 3.875 -4.22524 7.94653
      vertex 3.875 -8.9507 0.940756
    endloop
  endfacet
  facet normal 1 -5.52506e-08 1.70044e-07
    outer loop
      vertex 3.875 -2.48074 8.65135
      vertex 3.875 -3.07818 8.45723
      vertex 3.875 -8.9507 0.940756
    endloop
  endfacet
  facet normal 1 -3.42233e-06 1.24563e-06
    outer loop
      vertex 3.875 -8.34465 3.37146
      vertex 3.875 -8.55951 2.78115
      vertex 3.875 -8.9507 0.940756
    endloop
  endfacet
  facet normal 1 -7.49074e-08 1.85402e-07
    outer loop
      vertex 3.875 -3.07818 8.45723
      vertex 3.875 -3.66063 8.22191
      vertex 3.875 -8.9507 0.940756
    endloop
  endfacet
  facet normal 1 -2.76701e-07 3.07308e-07
    outer loop
      vertex 3.875 -5.78509 6.8944
      vertex 3.875 -6.25192 6.47406
      vertex 3.875 -8.9507 0.940756
    endloop
  endfacet
  facet normal 1 -2.14083e-07 2.74013e-07
    outer loop
      vertex 3.875 -5.29007 7.28115
      vertex 3.875 -5.78509 6.8944
      vertex 3.875 -8.9507 0.940756
    endloop
  endfacet
  facet normal 1 -6.42792e-07 4.67017e-07
    outer loop
      vertex 3.875 -7.0921 5.54095
      vertex 3.875 -7.46134 5.03274
      vertex 3.875 -8.9507 0.940756
    endloop
  endfacet
  facet normal 1 -4.76498e-07 3.99829e-07
    outer loop
      vertex 3.875 -6.6883 6.02217
      vertex 3.875 -7.0921 5.54095
      vertex 3.875 -8.9507 0.940756
    endloop
  endfacet
  facet normal 1 -6.98475e-06 2.00284e-06
    outer loop
      vertex 3.875 -8.55951 2.78115
      vertex 3.875 -8.73266 2.1773
      vertex 3.875 -8.9507 0.940756
    endloop
  endfacet
  facet normal 1 -8.93292e-07 5.58191e-07
    outer loop
      vertex 3.875 -7.46134 5.03274
      vertex 3.875 -7.79423 4.5
      vertex 3.875 -8.9507 0.940756
    endloop
  endfacet
  facet normal 1 -2.12884e-05 4.52498e-06
    outer loop
      vertex 3.875 -8.73266 2.1773
      vertex 3.875 -8.86327 1.56283
      vertex 3.875 -8.9507 0.940756
    endloop
  endfacet
  facet normal 0 0 -1
    outer loop
      vertex -3.875 -8.99452 0
      vertex -3 -7.99513 0
      vertex -3 -8.99452 0
    endloop
  endfacet
  facet normal -0 0 -1
    outer loop
      vertex -3 -7.99513 0
      vertex -3.875 -8.99452 0
      vertex -3 7.99513 0
    endloop
  endfacet
  facet normal 0 0 -1
    outer loop
      vertex -3.875 8.99452 0
      vertex -3 7.99513 0
      vertex -3.875 -8.99452 0
    endloop
  endfacet
  facet normal 0 0 -1
    outer loop
      vertex -3 7.99513 0
      vertex -3.875 8.99452 0
      vertex -3 8.99452 0
    endloop
  endfacet
  facet normal 0 0 -1
    outer loop
      vertex 3.875 8.99452 0
      vertex 1.73205 0 0
      vertex 3 7.99513 0
    endloop
  endfacet
  facet normal 0 0 -1
    outer loop
      vertex 3 -7.99513 0
      vertex 0.866025 -1.5 0
      vertex 1.73205 0 0
    endloop
  endfacet
  facet normal 0 0 -1
    outer loop
      vertex 3 -7.99513 0
      vertex -0.866025 -1.5 0
      vertex 0.866025 -1.5 0
    endloop
  endfacet
  facet normal -0 0 -1
    outer loop
      vertex -0.866025 -1.5 0
      vertex -3 -7.99513 0
      vertex -1.73205 0 0
    endloop
  endfacet
  facet normal 0 0 -1
    outer loop
      vertex -3 -7.99513 0
      vertex -0.866025 -1.5 0
      vertex 3 -7.99513 0
    endloop
  endfacet
  facet normal 0 0 -1
    outer loop
      vertex 3 -7.99513 0
      vertex 3.875 -8.99452 0
      vertex 3 -8.99452 0
    endloop
  endfacet
  facet normal 0 0 -1
    outer loop
      vertex 1.73205 0 0
      vertex 3.875 -8.99452 0
      vertex 3 -7.99513 0
    endloop
  endfacet
  facet normal 0 0 -1
    outer loop
      vertex 3.875 -8.99452 0
      vertex 1.73205 0 0
      vertex 3.875 8.99452 0
    endloop
  endfacet
  facet normal -0 0 -1
    outer loop
      vertex 3.875 8.99452 0
      vertex 3 7.99513 0
      vertex 3 8.99452 0
    endloop
  endfacet
  facet normal 0 0 -1
    outer loop
      vertex 0.866025 1.5 0
      vertex 3 7.99513 0
      vertex 1.73205 0 0
    endloop
  endfacet
  facet normal 0 0 -1
    outer loop
      vertex -0.866025 1.5 0
      vertex 3 7.99513 0
      vertex 0.866025 1.5 0
    endloop
  endfacet
  facet normal 0 0 -1
    outer loop
      vertex -0.866025 1.5 0
      vertex -3 7.99513 0
      vertex 3 7.99513 0
    endloop
  endfacet
  facet normal 0 0 -1
    outer loop
      vertex -1.73205 0 0
      vertex -3 7.99513 0
      vertex -0.866025 1.5 0
    endloop
  endfacet
  facet normal 0 0 -1
    outer loop
      vertex -3 7.99513 0
      vertex -1.73205 0 0
      vertex -3 -7.99513 0
    endloop
  endfacet
  facet normal -0.866025 -0.5 0
    outer loop
      vertex 1.73205 0 0
      vertex 0.866025 1.5 6
      vertex 0.866025 1.5 0
    endloop
  endfacet
  facet normal -0.866025 -0.5 0
    outer loop
      vertex 0.866025 1.5 6
      vertex 1.73205 0 0
      vertex 1.73205 0 6
    endloop
  endfacet
  facet normal 0.866026 -0.5 0
    outer loop
      vertex -1.73205 0 6
      vertex -0.866025 1.5 0
      vertex -0.866025 1.5 6
    endloop
  endfacet
  facet normal 0.866026 -0.5 0
    outer loop
      vertex -0.866025 1.5 0
      vertex -1.73205 0 6
      vertex -1.73205 0 0
    endloop
  endfacet
  facet normal -5.50604e-07 -1 0
    outer loop
      vertex -0.866025 1.5 0
      vertex 0.866025 1.5 6
      vertex -0.866025 1.5 6
    endloop
  endfacet
  facet normal -5.50604e-07 -1 -0
    outer loop
      vertex 0.866025 1.5 6
      vertex -0.866025 1.5 0
      vertex 0.866025 1.5 0
    endloop
  endfacet
  facet normal 0 0 -1
    outer loop
      vertex 0.866025 -1.5 6
      vertex 0.866025 1.5 6
      vertex 1.73205 0 6
    endloop
  endfacet
  facet normal 0 0 -1
    outer loop
      vertex -0.866025 -1.5 6
      vertex 0.866025 1.5 6
      vertex 0.866025 -1.5 6
    endloop
  endfacet
  facet normal 0 0 -1
    outer loop
      vertex -0.866025 -1.5 6
      vertex -0.866025 1.5 6
      vertex 0.866025 1.5 6
    endloop
  endfacet
  facet normal 0 -0 -1
    outer loop
      vertex -0.866025 1.5 6
      vertex -0.866025 -1.5 6
      vertex -1.73205 0 6
    endloop
  endfacet
  facet normal -0.866025 0.5 0
    outer loop
      vertex 0.866025 -1.5 0
      vertex 1.73205 0 6
      vertex 1.73205 0 0
    endloop
  endfacet
  facet normal -0.866025 0.5 0
    outer loop
      vertex 1.73205 0 6
      vertex 0.866025 -1.5 0
      vertex 0.866025 -1.5 6
    endloop
  endfacet
  facet normal 0 1 -0
    outer loop
      vertex 0.866025 -1.5 0
      vertex -0.866025 -1.5 6
      vertex 0.866025 -1.5 6
    endloop
  endfacet
  facet normal 0 1 0
    outer loop
      vertex -0.866025 -1.5 6
      vertex 0.866025 -1.5 0
      vertex -0.866025 -1.5 0
    endloop
  endfacet
  facet normal 0.866025 0.5 0
    outer loop
      vertex -0.866025 -1.5 6
      vertex -1.73205 0 0
      vertex -1.73205 0 6
    endloop
  endfacet
  facet normal 0.866025 0.5 0
    outer loop
      vertex -1.73205 0 0
      vertex -0.866025 -1.5 6
      vertex -0.866025 -1.5 0
    endloop
  endfacet
endsolid OpenSCAD_Model
