solid OpenSCAD_Model
  facet normal -0.995185 -0.0980167 0
    outer loop
      vertex -25 0 0
      vertex -25.1441 1.46318 16.5
      vertex -25.1441 1.46318 0
    endloop
  endfacet
  facet normal -0.995185 -0.0980167 0
    outer loop
      vertex -25.1441 1.46318 16.5
      vertex -25 0 0
      vertex -25 0 16.5
    endloop
  endfacet
  facet normal -0.773011 -0.634393 0
    outer loop
      vertex -26.264 4.16678 0
      vertex -27.1967 5.3033 16.5
      vertex -27.1967 5.3033 0
    endloop
  endfacet
  facet normal -0.773011 -0.634393 0
    outer loop
      vertex -27.1967 5.3033 16.5
      vertex -26.264 4.16678 0
      vertex -26.264 4.16678 16.5
    endloop
  endfacet
  facet normal 0 0 -1
    outer loop
      vertex 28.6148 -9 0
      vertex 30 -7.04137 0
      vertex 30 -13 0
    endloop
  endfacet
  facet normal -0 0 -1
    outer loop
      vertex 30 -7.04137 0
      vertex 28.6148 -9 0
      vertex 29.6299 -6.9291 0
    endloop
  endfacet
  facet normal 0 0 -1
    outer loop
      vertex 30 -13 0
      vertex 27.9807 -10.5307 0
      vertex 28.6148 -9 0
    endloop
  endfacet
  facet normal 0 0 -1
    outer loop
      vertex 30 -13 0
      vertex 26.45 -11.1648 0
      vertex 27.9807 -10.5307 0
    endloop
  endfacet
  facet normal 0 0 -1
    outer loop
      vertex 30 -13 0
      vertex 24.9193 -10.5307 0
      vertex 26.45 -11.1648 0
    endloop
  endfacet
  facet normal -0 0 -1
    outer loop
      vertex 25.5709 2.87012 0
      vertex 18.666 -1.85 0
      vertex 24.9193 7.46927 0
    endloop
  endfacet
  facet normal 0 0 -1
    outer loop
      vertex 15.3238 12.15 0
      vertex 24.9193 7.46927 0
      vertex 18.666 -1.85 0
    endloop
  endfacet
  facet normal 0 0 -1
    outer loop
      vertex 16.934 -4.85 0
      vertex 24.2852 -9 0
      vertex 24.9193 -10.5307 0
    endloop
  endfacet
  facet normal 0 0 -1
    outer loop
      vertex 24.2852 -9 0
      vertex 18.666 -4.85 0
      vertex 19.5321 -3.35 0
    endloop
  endfacet
  facet normal 0 0 -1
    outer loop
      vertex 24.2852 -9 0
      vertex 16.934 -4.85 0
      vertex 18.666 -4.85 0
    endloop
  endfacet
  facet normal 0 0 -1
    outer loop
      vertex 24.2852 9 0
      vertex 14.9453 15.2668 0
      vertex 18.666 26.15 0
    endloop
  endfacet
  facet normal 0 0 -1
    outer loop
      vertex 16.934 -1.85 0
      vertex 15.2288 10.5802 0
      vertex 15.3238 12.15 0
    endloop
  endfacet
  facet normal 0 0 -1
    outer loop
      vertex 16.934 -1.85 0
      vertex 14.9453 9.03321 0
      vertex 15.2288 10.5802 0
    endloop
  endfacet
  facet normal 0 0 -1
    outer loop
      vertex 16.934 -1.85 0
      vertex 14.4774 7.53171 0
      vertex 14.9453 9.03321 0
    endloop
  endfacet
  facet normal 0 0 -1
    outer loop
      vertex 16.934 -1.85 0
      vertex 13.832 6.09756 0
      vertex 14.4774 7.53171 0
    endloop
  endfacet
  facet normal 0 0 -1
    outer loop
      vertex 16.934 -1.85 0
      vertex 13.0183 4.75166 0
      vertex 13.832 6.09756 0
    endloop
  endfacet
  facet normal 0 0 -1
    outer loop
      vertex 16.934 -1.85 0
      vertex 12.0484 3.51365 0
      vertex 13.0183 4.75166 0
    endloop
  endfacet
  facet normal 0 0 -1
    outer loop
      vertex 6.91829 -0.0274277 0
      vertex 16.0679 -3.35 0
      vertex 16.934 -4.85 0
    endloop
  endfacet
  facet normal 0 0 -1
    outer loop
      vertex 16.934 -1.85 0
      vertex 10.9364 2.40157 0
      vertex 12.0484 3.51365 0
    endloop
  endfacet
  facet normal 0 0 -1
    outer loop
      vertex 16.0679 -3.35 0
      vertex 9.69834 1.43165 0
      vertex 10.9364 2.40157 0
    endloop
  endfacet
  facet normal 0 0 -1
    outer loop
      vertex 16.0679 -3.35 0
      vertex 8.35244 0.618032 0
      vertex 9.69834 1.43165 0
    endloop
  endfacet
  facet normal 0 0 -1
    outer loop
      vertex -12.334 -4.85 0
      vertex 16.934 -4.85 0
      vertex 24.9193 -10.5307 0
    endloop
  endfacet
  facet normal 0 0 -1
    outer loop
      vertex 16.0679 -3.35 0
      vertex 6.91829 -0.0274277 0
      vertex 8.35244 0.618032 0
    endloop
  endfacet
  facet normal 0 0 -1
    outer loop
      vertex 16.934 -4.85 0
      vertex 5.41679 -0.495314 0
      vertex 6.91829 -0.0274277 0
    endloop
  endfacet
  facet normal 0 0 -1
    outer loop
      vertex 16.934 -4.85 0
      vertex 3.86984 -0.778803 0
      vertex 5.41679 -0.495314 0
    endloop
  endfacet
  facet normal 0 0 -1
    outer loop
      vertex -24.9193 -10.5307 0
      vertex 24.9193 -10.5307 0
      vertex 30 -13 0
    endloop
  endfacet
  facet normal 0 0 -1
    outer loop
      vertex 16.934 -4.85 0
      vertex 2.3 -0.87376 0
      vertex 3.86984 -0.778803 0
    endloop
  endfacet
  facet normal 0 0 -1
    outer loop
      vertex 16.934 -4.85 0
      vertex -12.334 -4.85 0
      vertex 2.3 -0.87376 0
    endloop
  endfacet
  facet normal -0 0 -1
    outer loop
      vertex 2.3 -0.87376 0
      vertex -12.334 -4.85 0
      vertex 0.730159 -0.778803 0
    endloop
  endfacet
  facet normal -0 0 -1
    outer loop
      vertex 0.730159 -0.778803 0
      vertex -12.334 -4.85 0
      vertex -0.81679 -0.495314 0
    endloop
  endfacet
  facet normal 0 0 -1
    outer loop
      vertex -24.2852 9 0
      vertex -9.87743 7.53171 0
      vertex -14.066 -1.85 0
    endloop
  endfacet
  facet normal -0 0 -1
    outer loop
      vertex -9.23197 6.09756 0
      vertex -14.066 -1.85 0
      vertex -9.87743 7.53171 0
    endloop
  endfacet
  facet normal 0 0 -1
    outer loop
      vertex -14.066 -1.85 0
      vertex -9.23197 6.09756 0
      vertex -12.334 -1.85 0
    endloop
  endfacet
  facet normal -0 0 -1
    outer loop
      vertex -8.41834 4.75166 0
      vertex -12.334 -1.85 0
      vertex -9.23197 6.09756 0
    endloop
  endfacet
  facet normal -0 0 -1
    outer loop
      vertex -7.44842 3.51365 0
      vertex -12.334 -1.85 0
      vertex -8.41834 4.75166 0
    endloop
  endfacet
  facet normal -0 0 -1
    outer loop
      vertex -6.33635 2.40157 0
      vertex -12.334 -1.85 0
      vertex -7.44842 3.51365 0
    endloop
  endfacet
  facet normal 0 0 -1
    outer loop
      vertex -12.334 -1.85 0
      vertex -6.33635 2.40157 0
      vertex -11.4679 -3.35 0
    endloop
  endfacet
  facet normal -0 0 -1
    outer loop
      vertex -5.09834 1.43165 0
      vertex -11.4679 -3.35 0
      vertex -6.33635 2.40157 0
    endloop
  endfacet
  facet normal -0 0 -1
    outer loop
      vertex -3.75244 0.618032 0
      vertex -11.4679 -3.35 0
      vertex -5.09834 1.43165 0
    endloop
  endfacet
  facet normal -0 0 -1
    outer loop
      vertex -2.31829 -0.0274277 0
      vertex -11.4679 -3.35 0
      vertex -3.75244 0.618032 0
    endloop
  endfacet
  facet normal -0 0 -1
    outer loop
      vertex -0.81679 -0.495314 0
      vertex -12.334 -4.85 0
      vertex -2.31829 -0.0274277 0
    endloop
  endfacet
  facet normal 0 0 -1
    outer loop
      vertex -2.31829 -0.0274277 0
      vertex -12.334 -4.85 0
      vertex -11.4679 -3.35 0
    endloop
  endfacet
  facet normal 0 0 -1
    outer loop
      vertex 24.9193 -10.5307 0
      vertex -24.9193 -10.5307 0
      vertex -12.334 -4.85 0
    endloop
  endfacet
  facet normal -0 0 -1
    outer loop
      vertex -10.7238 12.15 0
      vertex -24.9193 10.5307 0
      vertex -14.066 26.15 0
    endloop
  endfacet
  facet normal 0 0 -1
    outer loop
      vertex -24.9193 -7.46927 0
      vertex -14.9321 -3.35 0
      vertex -24.2852 -9 0
    endloop
  endfacet
  facet normal -0 0 -1
    outer loop
      vertex -14.066 -4.85 0
      vertex -24.2852 -9 0
      vertex -14.9321 -3.35 0
    endloop
  endfacet
  facet normal -0 0 -1
    outer loop
      vertex -12.334 -4.85 0
      vertex -24.9193 -10.5307 0
      vertex -14.066 -4.85 0
    endloop
  endfacet
  facet normal 0 0 -1
    outer loop
      vertex -14.066 -4.85 0
      vertex -24.9193 -10.5307 0
      vertex -24.2852 -9 0
    endloop
  endfacet
  facet normal 0 0 -1
    outer loop
      vertex -30 -13 0
      vertex -24.9193 -10.5307 0
      vertex 30 -13 0
    endloop
  endfacet
  facet normal 0 0 -1
    outer loop
      vertex -30 -13 0
      vertex -28.6148 -9 0
      vertex -27.9807 -10.5307 0
    endloop
  endfacet
  facet normal 0 0 -1
    outer loop
      vertex -24.9193 -10.5307 0
      vertex -30 -13 0
      vertex -26.45 -11.1648 0
    endloop
  endfacet
  facet normal 0 0 -1
    outer loop
      vertex -30 -13 0
      vertex -27.9807 -10.5307 0
      vertex -26.45 -11.1648 0
    endloop
  endfacet
  facet normal -0 0 -1
    outer loop
      vertex -28.6148 -9 0
      vertex -30 -13 0
      vertex -30 -7.04137 0
    endloop
  endfacet
  facet normal 0 0 -1
    outer loop
      vertex -28.6148 -9 0
      vertex -30 -7.04137 0
      vertex -29.6299 -6.9291 0
    endloop
  endfacet
  facet normal 0 0 -1
    outer loop
      vertex 27.9807 -7.46927 0
      vertex 29.6299 -6.9291 0
      vertex 28.6148 -9 0
    endloop
  endfacet
  facet normal -0 0 -1
    outer loop
      vertex 29.6299 -6.9291 0
      vertex 27.9807 -7.46927 0
      vertex 28.3332 -6.23602 0
    endloop
  endfacet
  facet normal 0 0 -1
    outer loop
      vertex 26.45 -6.83522 0
      vertex 28.3332 -6.23602 0
      vertex 27.9807 -7.46927 0
    endloop
  endfacet
  facet normal -0 0 -1
    outer loop
      vertex 28.3332 -6.23602 0
      vertex 26.45 -6.83522 0
      vertex 27.1967 -5.3033 0
    endloop
  endfacet
  facet normal 0 0 -1
    outer loop
      vertex 26.45 -6.83522 0
      vertex 26.264 -4.16678 0
      vertex 27.1967 -5.3033 0
    endloop
  endfacet
  facet normal 0 0 -1
    outer loop
      vertex 24.9193 -7.46927 0
      vertex 26.264 -4.16678 0
      vertex 26.45 -6.83522 0
    endloop
  endfacet
  facet normal -0 0 -1
    outer loop
      vertex 26.264 -4.16678 0
      vertex 24.9193 -7.46927 0
      vertex 25.5709 -2.87012 0
    endloop
  endfacet
  facet normal 0 0 -1
    outer loop
      vertex 19.5321 -3.35 0
      vertex 24.9193 -7.46927 0
      vertex 24.2852 -9 0
    endloop
  endfacet
  facet normal 0 0 -1
    outer loop
      vertex 19.5321 -3.35 0
      vertex 25.5709 -2.87012 0
      vertex 24.9193 -7.46927 0
    endloop
  endfacet
  facet normal 0 0 -1
    outer loop
      vertex 27.9807 7.46927 0
      vertex 29.6299 6.9291 0
      vertex 28.3332 6.23602 0
    endloop
  endfacet
  facet normal 0 0 -1
    outer loop
      vertex 29.6299 6.9291 0
      vertex 27.9807 7.46927 0
      vertex 28.6148 9 0
    endloop
  endfacet
  facet normal 0 0 -1
    outer loop
      vertex 26.45 6.83522 0
      vertex 28.3332 6.23602 0
      vertex 27.1967 5.3033 0
    endloop
  endfacet
  facet normal 0 0 -1
    outer loop
      vertex 28.3332 6.23602 0
      vertex 26.45 6.83522 0
      vertex 27.9807 7.46927 0
    endloop
  endfacet
  facet normal 0 0 -1
    outer loop
      vertex 26.264 4.16678 0
      vertex 26.45 6.83522 0
      vertex 27.1967 5.3033 0
    endloop
  endfacet
  facet normal 0 0 -1
    outer loop
      vertex 24.9193 7.46927 0
      vertex 26.264 4.16678 0
      vertex 25.5709 2.87012 0
    endloop
  endfacet
  facet normal 0 0 -1
    outer loop
      vertex 18.666 -1.85 0
      vertex 25.5709 2.87012 0
      vertex 25.1441 1.46318 0
    endloop
  endfacet
  facet normal 0 0 -1
    outer loop
      vertex 26.264 4.16678 0
      vertex 24.9193 7.46927 0
      vertex 26.45 6.83522 0
    endloop
  endfacet
  facet normal 0 0 -1
    outer loop
      vertex 18.666 -1.85 0
      vertex 25 0 0
      vertex 19.5321 -3.35 0
    endloop
  endfacet
  facet normal -0 0 -1
    outer loop
      vertex 25.5709 -2.87012 0
      vertex 19.5321 -3.35 0
      vertex 25.1441 -1.46318 0
    endloop
  endfacet
  facet normal -0 0 -1
    outer loop
      vertex 25.1441 -1.46318 0
      vertex 19.5321 -3.35 0
      vertex 25 0 0
    endloop
  endfacet
  facet normal -0 0 -1
    outer loop
      vertex 25 0 0
      vertex 18.666 -1.85 0
      vertex 25.1441 1.46318 0
    endloop
  endfacet
  facet normal 0 0 -1
    outer loop
      vertex 28.6148 9 0
      vertex 30 7.04137 0
      vertex 29.6299 6.9291 0
    endloop
  endfacet
  facet normal 0 0 -1
    outer loop
      vertex 30 7.04137 0
      vertex 28.6148 9 0
      vertex 30 13 0
    endloop
  endfacet
  facet normal 0 0 -1
    outer loop
      vertex 27.9807 10.5307 0
      vertex 30 13 0
      vertex 28.6148 9 0
    endloop
  endfacet
  facet normal 0 0 -1
    outer loop
      vertex 26.45 11.1648 0
      vertex 30 13 0
      vertex 27.9807 10.5307 0
    endloop
  endfacet
  facet normal 0 0 -1
    outer loop
      vertex 23.45 33.3 0
      vertex 26.45 11.1648 0
      vertex 24.9193 10.5307 0
    endloop
  endfacet
  facet normal 0 0 -1
    outer loop
      vertex 26.45 11.1648 0
      vertex 23.45 33.3 0
      vertex 30 13 0
    endloop
  endfacet
  facet normal 0 0 -1
    outer loop
      vertex 23.45 33.3 0
      vertex 24.9193 10.5307 0
      vertex 24.2852 9 0
    endloop
  endfacet
  facet normal 0 0 -1
    outer loop
      vertex -25.5709 -2.87012 0
      vertex -14.9321 -3.35 0
      vertex -24.9193 -7.46927 0
    endloop
  endfacet
  facet normal 0 0 -1
    outer loop
      vertex -25.1441 1.46318 0
      vertex -14.9321 -3.35 0
      vertex -25 0 0
    endloop
  endfacet
  facet normal 0 -0 -1
    outer loop
      vertex -24.9193 7.46927 0
      vertex -14.9321 -3.35 0
      vertex -25.1441 1.46318 0
    endloop
  endfacet
  facet normal 0 0 -1
    outer loop
      vertex -14.9321 -3.35 0
      vertex -25.1441 -1.46318 0
      vertex -25 0 0
    endloop
  endfacet
  facet normal 0 0 -1
    outer loop
      vertex -14.9321 -3.35 0
      vertex -25.5709 -2.87012 0
      vertex -25.1441 -1.46318 0
    endloop
  endfacet
  facet normal 0 0 -1
    outer loop
      vertex -24.9193 -7.46927 0
      vertex -26.264 -4.16678 0
      vertex -25.5709 -2.87012 0
    endloop
  endfacet
  facet normal 0 0 -1
    outer loop
      vertex -26.45 -6.83522 0
      vertex -26.264 -4.16678 0
      vertex -24.9193 -7.46927 0
    endloop
  endfacet
  facet normal 0 0 -1
    outer loop
      vertex -26.45 -6.83522 0
      vertex -27.1967 -5.3033 0
      vertex -26.264 -4.16678 0
    endloop
  endfacet
  facet normal 0 0 -1
    outer loop
      vertex -28.3332 -6.23602 0
      vertex -26.45 -6.83522 0
      vertex -27.9807 -7.46927 0
    endloop
  endfacet
  facet normal 0 0 -1
    outer loop
      vertex -26.45 -6.83522 0
      vertex -28.3332 -6.23602 0
      vertex -27.1967 -5.3033 0
    endloop
  endfacet
  facet normal 0 0 -1
    outer loop
      vertex -29.6299 -6.9291 0
      vertex -27.9807 -7.46927 0
      vertex -28.6148 -9 0
    endloop
  endfacet
  facet normal 0 0 -1
    outer loop
      vertex -27.9807 -7.46927 0
      vertex -29.6299 -6.9291 0
      vertex -28.3332 -6.23602 0
    endloop
  endfacet
  facet normal -0 0 -1
    outer loop
      vertex -10.3453 9.03321 0
      vertex -24.2852 9 0
      vertex -10.6288 10.5802 0
    endloop
  endfacet
  facet normal 0 0 -1
    outer loop
      vertex -10.7238 12.15 0
      vertex -12.334 26.15 0
      vertex -11.4679 27.65 0
    endloop
  endfacet
  facet normal 0 0 -1
    outer loop
      vertex -24.2852 9 0
      vertex -14.066 -1.85 0
      vertex -14.9321 -3.35 0
    endloop
  endfacet
  facet normal 0 0 -1
    outer loop
      vertex -10.7238 12.15 0
      vertex -14.066 26.15 0
      vertex -12.334 26.15 0
    endloop
  endfacet
  facet normal -0 0 -1
    outer loop
      vertex -10.6288 10.5802 0
      vertex -24.2852 9 0
      vertex -10.7238 12.15 0
    endloop
  endfacet
  facet normal 0 0 -1
    outer loop
      vertex -24.9193 10.5307 0
      vertex -10.7238 12.15 0
      vertex -24.2852 9 0
    endloop
  endfacet
  facet normal 0 0 -1
    outer loop
      vertex 24.9193 7.46927 0
      vertex 15.3238 12.15 0
      vertex 24.2852 9 0
    endloop
  endfacet
  facet normal 0 0 -1
    outer loop
      vertex 15.2288 13.7198 0
      vertex 24.2852 9 0
      vertex 15.3238 12.15 0
    endloop
  endfacet
  facet normal 0 0 -1
    outer loop
      vertex 15.3238 12.15 0
      vertex 18.666 -1.85 0
      vertex 16.934 -1.85 0
    endloop
  endfacet
  facet normal 0 0 -1
    outer loop
      vertex 24.2852 9 0
      vertex 18.666 26.15 0
      vertex 19.5321 27.65 0
    endloop
  endfacet
  facet normal 0 0 -1
    outer loop
      vertex 10.9364 2.40157 0
      vertex 16.934 -1.85 0
      vertex 16.0679 -3.35 0
    endloop
  endfacet
  facet normal 0 0 -1
    outer loop
      vertex 14.9453 15.2668 0
      vertex 24.2852 9 0
      vertex 15.2288 13.7198 0
    endloop
  endfacet
  facet normal 0 0 -1
    outer loop
      vertex 24.2852 9 0
      vertex 19.5321 27.65 0
      vertex 23.45 33.3 0
    endloop
  endfacet
  facet normal 0 0 -1
    outer loop
      vertex 18.666 29.15 0
      vertex 23.45 33.3 0
      vertex 19.5321 27.65 0
    endloop
  endfacet
  facet normal 0 0 -1
    outer loop
      vertex 16.934 29.15 0
      vertex 23.45 33.3 0
      vertex 18.666 29.15 0
    endloop
  endfacet
  facet normal 0 0 -1
    outer loop
      vertex 14.4774 16.7683 0
      vertex 18.666 26.15 0
      vertex 14.9453 15.2668 0
    endloop
  endfacet
  facet normal 0 0 -1
    outer loop
      vertex 13.832 18.2024 0
      vertex 18.666 26.15 0
      vertex 14.4774 16.7683 0
    endloop
  endfacet
  facet normal -0 0 -1
    outer loop
      vertex 18.666 26.15 0
      vertex 13.832 18.2024 0
      vertex 16.934 26.15 0
    endloop
  endfacet
  facet normal 0 0 -1
    outer loop
      vertex 13.0183 19.5483 0
      vertex 16.934 26.15 0
      vertex 13.832 18.2024 0
    endloop
  endfacet
  facet normal 0 0 -1
    outer loop
      vertex 12.0484 20.7864 0
      vertex 16.934 26.15 0
      vertex 13.0183 19.5483 0
    endloop
  endfacet
  facet normal 0 0 -1
    outer loop
      vertex 10.9364 21.8984 0
      vertex 16.934 26.15 0
      vertex 12.0484 20.7864 0
    endloop
  endfacet
  facet normal -0 0 -1
    outer loop
      vertex 16.934 26.15 0
      vertex 10.9364 21.8984 0
      vertex 16.0679 27.65 0
    endloop
  endfacet
  facet normal 0 0 -1
    outer loop
      vertex 9.69834 22.8683 0
      vertex 16.0679 27.65 0
      vertex 10.9364 21.8984 0
    endloop
  endfacet
  facet normal 0 0 -1
    outer loop
      vertex 8.35244 23.682 0
      vertex 16.0679 27.65 0
      vertex 9.69834 22.8683 0
    endloop
  endfacet
  facet normal 0 0 -1
    outer loop
      vertex 6.91829 24.3274 0
      vertex 16.0679 27.65 0
      vertex 8.35244 23.682 0
    endloop
  endfacet
  facet normal -0 0 -1
    outer loop
      vertex 16.0679 27.65 0
      vertex 6.91829 24.3274 0
      vertex 16.934 29.15 0
    endloop
  endfacet
  facet normal 0 0 -1
    outer loop
      vertex 5.41679 24.7953 0
      vertex 16.934 29.15 0
      vertex 6.91829 24.3274 0
    endloop
  endfacet
  facet normal 0 0 -1
    outer loop
      vertex 3.86984 25.0788 0
      vertex 16.934 29.15 0
      vertex 5.41679 24.7953 0
    endloop
  endfacet
  facet normal 0 0 -1
    outer loop
      vertex 2.3 25.1738 0
      vertex 16.934 29.15 0
      vertex 3.86984 25.0788 0
    endloop
  endfacet
  facet normal 0 0 -1
    outer loop
      vertex -12.334 29.15 0
      vertex 16.934 29.15 0
      vertex 2.3 25.1738 0
    endloop
  endfacet
  facet normal 0 0 -1
    outer loop
      vertex -12.334 29.15 0
      vertex 2.3 25.1738 0
      vertex 0.730159 25.0788 0
    endloop
  endfacet
  facet normal 0 0 -1
    outer loop
      vertex -12.334 29.15 0
      vertex 0.730159 25.0788 0
      vertex -0.81679 24.7953 0
    endloop
  endfacet
  facet normal 0 0 -1
    outer loop
      vertex -12.334 29.15 0
      vertex -0.81679 24.7953 0
      vertex -2.31829 24.3274 0
    endloop
  endfacet
  facet normal 0 0 -1
    outer loop
      vertex -9.87743 7.53171 0
      vertex -24.2852 9 0
      vertex -10.3453 9.03321 0
    endloop
  endfacet
  facet normal 0 0 -1
    outer loop
      vertex -11.4679 27.65 0
      vertex -10.6288 13.7198 0
      vertex -10.7238 12.15 0
    endloop
  endfacet
  facet normal 0 0 -1
    outer loop
      vertex -11.4679 27.65 0
      vertex -10.3453 15.2668 0
      vertex -10.6288 13.7198 0
    endloop
  endfacet
  facet normal 0 0 -1
    outer loop
      vertex -11.4679 27.65 0
      vertex -9.87743 16.7683 0
      vertex -10.3453 15.2668 0
    endloop
  endfacet
  facet normal 0 0 -1
    outer loop
      vertex -11.4679 27.65 0
      vertex -9.23197 18.2024 0
      vertex -9.87743 16.7683 0
    endloop
  endfacet
  facet normal 0 0 -1
    outer loop
      vertex -11.4679 27.65 0
      vertex -8.41834 19.5483 0
      vertex -9.23197 18.2024 0
    endloop
  endfacet
  facet normal 0 0 -1
    outer loop
      vertex -11.4679 27.65 0
      vertex -7.44842 20.7864 0
      vertex -8.41834 19.5483 0
    endloop
  endfacet
  facet normal 0 0 -1
    outer loop
      vertex -11.4679 27.65 0
      vertex -6.33635 21.8984 0
      vertex -7.44842 20.7864 0
    endloop
  endfacet
  facet normal 0 0 -1
    outer loop
      vertex -11.4679 27.65 0
      vertex -5.09834 22.8683 0
      vertex -6.33635 21.8984 0
    endloop
  endfacet
  facet normal 0 0 -1
    outer loop
      vertex -11.4679 27.65 0
      vertex -3.75244 23.682 0
      vertex -5.09834 22.8683 0
    endloop
  endfacet
  facet normal 0 0 -1
    outer loop
      vertex -11.4679 27.65 0
      vertex -2.31829 24.3274 0
      vertex -3.75244 23.682 0
    endloop
  endfacet
  facet normal 0 0 -1
    outer loop
      vertex -12.334 29.15 0
      vertex -2.31829 24.3274 0
      vertex -11.4679 27.65 0
    endloop
  endfacet
  facet normal 0 0 -1
    outer loop
      vertex 16.934 29.15 0
      vertex -12.334 29.15 0
      vertex 23.45 33.3 0
    endloop
  endfacet
  facet normal 0 0 -1
    outer loop
      vertex -18.85 33.3 0
      vertex -12.334 29.15 0
      vertex -14.066 29.15 0
    endloop
  endfacet
  facet normal 0 0 -1
    outer loop
      vertex -12.334 29.15 0
      vertex -18.85 33.3 0
      vertex 23.45 33.3 0
    endloop
  endfacet
  facet normal 0 0 -1
    outer loop
      vertex -18.85 33.3 0
      vertex -14.066 29.15 0
      vertex -14.9321 27.65 0
    endloop
  endfacet
  facet normal 0 0 -1
    outer loop
      vertex -26.45 11.1648 0
      vertex -14.066 26.15 0
      vertex -24.9193 10.5307 0
    endloop
  endfacet
  facet normal 0 0 -1
    outer loop
      vertex -30 13 0
      vertex -14.066 26.15 0
      vertex -26.45 11.1648 0
    endloop
  endfacet
  facet normal -0 0 -1
    outer loop
      vertex -14.066 26.15 0
      vertex -30 13 0
      vertex -14.9321 27.65 0
    endloop
  endfacet
  facet normal 0 0 -1
    outer loop
      vertex -30 13 0
      vertex -26.45 11.1648 0
      vertex -27.9807 10.5307 0
    endloop
  endfacet
  facet normal 0 0 -1
    outer loop
      vertex -30 13 0
      vertex -27.9807 10.5307 0
      vertex -28.6148 9 0
    endloop
  endfacet
  facet normal 0 0 -1
    outer loop
      vertex -30 7.04137 0
      vertex -28.6148 9 0
      vertex -29.6299 6.9291 0
    endloop
  endfacet
  facet normal -0 0 -1
    outer loop
      vertex -28.6148 9 0
      vertex -30 7.04137 0
      vertex -30 13 0
    endloop
  endfacet
  facet normal -0 0 -1
    outer loop
      vertex -14.9321 27.65 0
      vertex -30 13 0
      vertex -18.85 33.3 0
    endloop
  endfacet
  facet normal 0 0 -1
    outer loop
      vertex -14.9321 -3.35 0
      vertex -24.9193 7.46927 0
      vertex -24.2852 9 0
    endloop
  endfacet
  facet normal 0 0 -1
    outer loop
      vertex -25.5709 2.87012 0
      vertex -24.9193 7.46927 0
      vertex -25.1441 1.46318 0
    endloop
  endfacet
  facet normal 0 0 -1
    outer loop
      vertex -26.264 4.16678 0
      vertex -24.9193 7.46927 0
      vertex -25.5709 2.87012 0
    endloop
  endfacet
  facet normal 0 0 -1
    outer loop
      vertex -26.264 4.16678 0
      vertex -26.45 6.83522 0
      vertex -24.9193 7.46927 0
    endloop
  endfacet
  facet normal 0 0 -1
    outer loop
      vertex -27.1967 5.3033 0
      vertex -26.45 6.83522 0
      vertex -26.264 4.16678 0
    endloop
  endfacet
  facet normal 0 0 -1
    outer loop
      vertex -28.3332 6.23602 0
      vertex -26.45 6.83522 0
      vertex -27.1967 5.3033 0
    endloop
  endfacet
  facet normal -0 0 -1
    outer loop
      vertex -26.45 6.83522 0
      vertex -28.3332 6.23602 0
      vertex -27.9807 7.46927 0
    endloop
  endfacet
  facet normal 0 0 -1
    outer loop
      vertex -29.6299 6.9291 0
      vertex -27.9807 7.46927 0
      vertex -28.3332 6.23602 0
    endloop
  endfacet
  facet normal -0 0 -1
    outer loop
      vertex -27.9807 7.46927 0
      vertex -29.6299 6.9291 0
      vertex -28.6148 9 0
    endloop
  endfacet
  facet normal -0.881922 -0.471396 0
    outer loop
      vertex -25.5709 2.87012 0
      vertex -26.264 4.16678 16.5
      vertex -26.264 4.16678 0
    endloop
  endfacet
  facet normal -0.881922 -0.471396 0
    outer loop
      vertex -26.264 4.16678 16.5
      vertex -25.5709 2.87012 0
      vertex -25.5709 2.87012 16.5
    endloop
  endfacet
  facet normal -0.95694 -0.290285 0
    outer loop
      vertex -25.1441 1.46318 0
      vertex -25.5709 2.87012 16.5
      vertex -25.5709 2.87012 0
    endloop
  endfacet
  facet normal -0.95694 -0.290285 0
    outer loop
      vertex -25.5709 2.87012 16.5
      vertex -25.1441 1.46318 0
      vertex -25.1441 1.46318 16.5
    endloop
  endfacet
  facet normal -0.471396 -0.881922 0
    outer loop
      vertex -29.6299 6.9291 0
      vertex -28.3332 6.23602 16.5
      vertex -29.6299 6.9291 16.5
    endloop
  endfacet
  facet normal -0.471396 -0.881922 -0
    outer loop
      vertex -28.3332 6.23602 16.5
      vertex -29.6299 6.9291 0
      vertex -28.3332 6.23602 0
    endloop
  endfacet
  facet normal -0.290286 -0.95694 0
    outer loop
      vertex -30 7.04137 0
      vertex -29.6299 6.9291 16.5
      vertex -30 7.04137 16.5
    endloop
  endfacet
  facet normal -0.290286 -0.95694 -0
    outer loop
      vertex -29.6299 6.9291 16.5
      vertex -30 7.04137 0
      vertex -29.6299 6.9291 0
    endloop
  endfacet
  facet normal -0.634393 -0.773011 0
    outer loop
      vertex -28.3332 6.23602 0
      vertex -27.1967 5.3033 16.5
      vertex -28.3332 6.23602 16.5
    endloop
  endfacet
  facet normal -0.634393 -0.773011 -0
    outer loop
      vertex -27.1967 5.3033 16.5
      vertex -28.3332 6.23602 0
      vertex -27.1967 5.3033 0
    endloop
  endfacet
  facet normal -0.995185 0.0980167 0
    outer loop
      vertex -25.1441 -1.46318 0
      vertex -25 0 16.5
      vertex -25 0 0
    endloop
  endfacet
  facet normal -0.995185 0.0980167 0
    outer loop
      vertex -25 0 16.5
      vertex -25.1441 -1.46318 0
      vertex -25.1441 -1.46318 16.5
    endloop
  endfacet
  facet normal -0.471396 0.881922 0
    outer loop
      vertex -28.3332 -6.23602 0
      vertex -29.6299 -6.9291 16.5
      vertex -28.3332 -6.23602 16.5
    endloop
  endfacet
  facet normal -0.471396 0.881922 0
    outer loop
      vertex -29.6299 -6.9291 16.5
      vertex -28.3332 -6.23602 0
      vertex -29.6299 -6.9291 0
    endloop
  endfacet
  facet normal -0.773011 0.634393 0
    outer loop
      vertex -27.1967 -5.3033 0
      vertex -26.264 -4.16678 16.5
      vertex -26.264 -4.16678 0
    endloop
  endfacet
  facet normal -0.773011 0.634393 0
    outer loop
      vertex -26.264 -4.16678 16.5
      vertex -27.1967 -5.3033 0
      vertex -27.1967 -5.3033 16.5
    endloop
  endfacet
  facet normal -0.95694 0.290285 0
    outer loop
      vertex -25.5709 -2.87012 0
      vertex -25.1441 -1.46318 16.5
      vertex -25.1441 -1.46318 0
    endloop
  endfacet
  facet normal -0.95694 0.290285 0
    outer loop
      vertex -25.1441 -1.46318 16.5
      vertex -25.5709 -2.87012 0
      vertex -25.5709 -2.87012 16.5
    endloop
  endfacet
  facet normal -0.290286 0.95694 0
    outer loop
      vertex -29.6299 -6.9291 0
      vertex -30 -7.04137 16.5
      vertex -29.6299 -6.9291 16.5
    endloop
  endfacet
  facet normal -0.290286 0.95694 0
    outer loop
      vertex -30 -7.04137 16.5
      vertex -29.6299 -6.9291 0
      vertex -30 -7.04137 0
    endloop
  endfacet
  facet normal -0.634393 0.773011 0
    outer loop
      vertex -27.1967 -5.3033 0
      vertex -28.3332 -6.23602 16.5
      vertex -27.1967 -5.3033 16.5
    endloop
  endfacet
  facet normal -0.634393 0.773011 0
    outer loop
      vertex -28.3332 -6.23602 16.5
      vertex -27.1967 -5.3033 0
      vertex -28.3332 -6.23602 0
    endloop
  endfacet
  facet normal -0.881922 0.471396 0
    outer loop
      vertex -26.264 -4.16678 0
      vertex -25.5709 -2.87012 16.5
      vertex -25.5709 -2.87012 0
    endloop
  endfacet
  facet normal -0.881922 0.471396 0
    outer loop
      vertex -25.5709 -2.87012 16.5
      vertex -26.264 -4.16678 0
      vertex -26.264 -4.16678 16.5
    endloop
  endfacet
  facet normal 0.471396 -0.881922 0
    outer loop
      vertex 28.3332 6.23602 0
      vertex 29.6299 6.9291 16.5
      vertex 28.3332 6.23602 16.5
    endloop
  endfacet
  facet normal 0.471396 -0.881922 0
    outer loop
      vertex 29.6299 6.9291 16.5
      vertex 28.3332 6.23602 0
      vertex 29.6299 6.9291 0
    endloop
  endfacet
  facet normal 0.95694 -0.290285 0
    outer loop
      vertex 25.1441 1.46318 16.5
      vertex 25.5709 2.87012 0
      vertex 25.5709 2.87012 16.5
    endloop
  endfacet
  facet normal 0.95694 -0.290285 0
    outer loop
      vertex 25.5709 2.87012 0
      vertex 25.1441 1.46318 16.5
      vertex 25.1441 1.46318 0
    endloop
  endfacet
  facet normal 0.995185 0.0980167 0
    outer loop
      vertex 25.1441 -1.46318 16.5
      vertex 25 0 0
      vertex 25 0 16.5
    endloop
  endfacet
  facet normal 0.995185 0.0980167 0
    outer loop
      vertex 25 0 0
      vertex 25.1441 -1.46318 16.5
      vertex 25.1441 -1.46318 0
    endloop
  endfacet
  facet normal 0.881922 -0.471396 0
    outer loop
      vertex 25.5709 2.87012 16.5
      vertex 26.264 4.16678 0
      vertex 26.264 4.16678 16.5
    endloop
  endfacet
  facet normal 0.881922 -0.471396 0
    outer loop
      vertex 26.264 4.16678 0
      vertex 25.5709 2.87012 16.5
      vertex 25.5709 2.87012 0
    endloop
  endfacet
  facet normal 0.634393 -0.773011 0
    outer loop
      vertex 27.1967 5.3033 0
      vertex 28.3332 6.23602 16.5
      vertex 27.1967 5.3033 16.5
    endloop
  endfacet
  facet normal 0.634393 -0.773011 0
    outer loop
      vertex 28.3332 6.23602 16.5
      vertex 27.1967 5.3033 0
      vertex 28.3332 6.23602 0
    endloop
  endfacet
  facet normal 0.290286 -0.95694 0
    outer loop
      vertex 29.6299 6.9291 0
      vertex 30 7.04137 16.5
      vertex 29.6299 6.9291 16.5
    endloop
  endfacet
  facet normal 0.290286 -0.95694 0
    outer loop
      vertex 30 7.04137 16.5
      vertex 29.6299 6.9291 0
      vertex 30 7.04137 0
    endloop
  endfacet
  facet normal 0.773011 -0.634393 0
    outer loop
      vertex 26.264 4.16678 16.5
      vertex 27.1967 5.3033 0
      vertex 27.1967 5.3033 16.5
    endloop
  endfacet
  facet normal 0.773011 -0.634393 0
    outer loop
      vertex 27.1967 5.3033 0
      vertex 26.264 4.16678 16.5
      vertex 26.264 4.16678 0
    endloop
  endfacet
  facet normal 0.995185 -0.0980167 0
    outer loop
      vertex 25 0 16.5
      vertex 25.1441 1.46318 0
      vertex 25.1441 1.46318 16.5
    endloop
  endfacet
  facet normal 0.995185 -0.0980167 0
    outer loop
      vertex 25.1441 1.46318 0
      vertex 25 0 16.5
      vertex 25 0 0
    endloop
  endfacet
  facet normal 0.290286 0.95694 -0
    outer loop
      vertex 30 -7.04137 0
      vertex 29.6299 -6.9291 16.5
      vertex 30 -7.04137 16.5
    endloop
  endfacet
  facet normal 0.290286 0.95694 0
    outer loop
      vertex 29.6299 -6.9291 16.5
      vertex 30 -7.04137 0
      vertex 29.6299 -6.9291 0
    endloop
  endfacet
  facet normal 0.95694 0.290285 0
    outer loop
      vertex 25.5709 -2.87012 16.5
      vertex 25.1441 -1.46318 0
      vertex 25.1441 -1.46318 16.5
    endloop
  endfacet
  facet normal 0.95694 0.290285 0
    outer loop
      vertex 25.1441 -1.46318 0
      vertex 25.5709 -2.87012 16.5
      vertex 25.5709 -2.87012 0
    endloop
  endfacet
  facet normal 0.773011 0.634393 0
    outer loop
      vertex 27.1967 -5.3033 16.5
      vertex 26.264 -4.16678 0
      vertex 26.264 -4.16678 16.5
    endloop
  endfacet
  facet normal 0.773011 0.634393 0
    outer loop
      vertex 26.264 -4.16678 0
      vertex 27.1967 -5.3033 16.5
      vertex 27.1967 -5.3033 0
    endloop
  endfacet
  facet normal 0.471396 0.881922 -0
    outer loop
      vertex 29.6299 -6.9291 0
      vertex 28.3332 -6.23602 16.5
      vertex 29.6299 -6.9291 16.5
    endloop
  endfacet
  facet normal 0.471396 0.881922 0
    outer loop
      vertex 28.3332 -6.23602 16.5
      vertex 29.6299 -6.9291 0
      vertex 28.3332 -6.23602 0
    endloop
  endfacet
  facet normal 0.881922 0.471396 0
    outer loop
      vertex 26.264 -4.16678 16.5
      vertex 25.5709 -2.87012 0
      vertex 25.5709 -2.87012 16.5
    endloop
  endfacet
  facet normal 0.881922 0.471396 0
    outer loop
      vertex 25.5709 -2.87012 0
      vertex 26.264 -4.16678 16.5
      vertex 26.264 -4.16678 0
    endloop
  endfacet
  facet normal 0.634393 0.773011 -0
    outer loop
      vertex 28.3332 -6.23602 0
      vertex 27.1967 -5.3033 16.5
      vertex 28.3332 -6.23602 16.5
    endloop
  endfacet
  facet normal 0.634393 0.773011 0
    outer loop
      vertex 27.1967 -5.3033 16.5
      vertex 28.3332 -6.23602 0
      vertex 27.1967 -5.3033 0
    endloop
  endfacet
  facet normal -0.92388 -0.382683 0
    outer loop
      vertex -24.2852 -9 0
      vertex -24.9193 -7.46927 16.5
      vertex -24.9193 -7.46927 0
    endloop
  endfacet
  facet normal -0.92388 -0.382683 0
    outer loop
      vertex -24.9193 -7.46927 16.5
      vertex -24.2852 -9 0
      vertex -24.2852 -9 16.5
    endloop
  endfacet
  facet normal 0.923879 -0.382684 0
    outer loop
      vertex -28.6148 -9 16.5
      vertex -27.9807 -7.46927 0
      vertex -27.9807 -7.46927 16.5
    endloop
  endfacet
  facet normal 0.923879 -0.382684 0
    outer loop
      vertex -27.9807 -7.46927 0
      vertex -28.6148 -9 16.5
      vertex -28.6148 -9 0
    endloop
  endfacet
  facet normal -0.382683 0.92388 0
    outer loop
      vertex -24.9193 -10.5307 0
      vertex -26.45 -11.1648 16.5
      vertex -24.9193 -10.5307 16.5
    endloop
  endfacet
  facet normal -0.382683 0.92388 0
    outer loop
      vertex -26.45 -11.1648 16.5
      vertex -24.9193 -10.5307 0
      vertex -26.45 -11.1648 0
    endloop
  endfacet
  facet normal 0.382684 -0.923879 0
    outer loop
      vertex -27.9807 -7.46927 0
      vertex -26.45 -6.83522 16.5
      vertex -27.9807 -7.46927 16.5
    endloop
  endfacet
  facet normal 0.382684 -0.923879 0
    outer loop
      vertex -26.45 -6.83522 16.5
      vertex -27.9807 -7.46927 0
      vertex -26.45 -6.83522 0
    endloop
  endfacet
  facet normal -0.382683 -0.92388 0
    outer loop
      vertex -26.45 -6.83522 0
      vertex -24.9193 -7.46927 16.5
      vertex -26.45 -6.83522 16.5
    endloop
  endfacet
  facet normal -0.382683 -0.92388 -0
    outer loop
      vertex -24.9193 -7.46927 16.5
      vertex -26.45 -6.83522 0
      vertex -24.9193 -7.46927 0
    endloop
  endfacet
  facet normal -0.92388 0.382683 0
    outer loop
      vertex -24.9193 -10.5307 0
      vertex -24.2852 -9 16.5
      vertex -24.2852 -9 0
    endloop
  endfacet
  facet normal -0.92388 0.382683 0
    outer loop
      vertex -24.2852 -9 16.5
      vertex -24.9193 -10.5307 0
      vertex -24.9193 -10.5307 16.5
    endloop
  endfacet
  facet normal 0.382684 0.923879 -0
    outer loop
      vertex -26.45 -11.1648 0
      vertex -27.9807 -10.5307 16.5
      vertex -26.45 -11.1648 16.5
    endloop
  endfacet
  facet normal 0.382684 0.923879 0
    outer loop
      vertex -27.9807 -10.5307 16.5
      vertex -26.45 -11.1648 0
      vertex -27.9807 -10.5307 0
    endloop
  endfacet
  facet normal 0.923879 0.382684 0
    outer loop
      vertex -27.9807 -10.5307 16.5
      vertex -28.6148 -9 0
      vertex -28.6148 -9 16.5
    endloop
  endfacet
  facet normal 0.923879 0.382684 0
    outer loop
      vertex -28.6148 -9 0
      vertex -27.9807 -10.5307 16.5
      vertex -27.9807 -10.5307 0
    endloop
  endfacet
  facet normal -0.92388 -0.382683 0
    outer loop
      vertex -24.2852 9 0
      vertex -24.9193 10.5307 16.5
      vertex -24.9193 10.5307 0
    endloop
  endfacet
  facet normal -0.92388 -0.382683 0
    outer loop
      vertex -24.9193 10.5307 16.5
      vertex -24.2852 9 0
      vertex -24.2852 9 16.5
    endloop
  endfacet
  facet normal 0.923879 -0.382684 0
    outer loop
      vertex -28.6148 9 16.5
      vertex -27.9807 10.5307 0
      vertex -27.9807 10.5307 16.5
    endloop
  endfacet
  facet normal 0.923879 -0.382684 0
    outer loop
      vertex -27.9807 10.5307 0
      vertex -28.6148 9 16.5
      vertex -28.6148 9 0
    endloop
  endfacet
  facet normal -0.382683 -0.92388 0
    outer loop
      vertex -26.45 11.1648 0
      vertex -24.9193 10.5307 16.5
      vertex -26.45 11.1648 16.5
    endloop
  endfacet
  facet normal -0.382683 -0.92388 -0
    outer loop
      vertex -24.9193 10.5307 16.5
      vertex -26.45 11.1648 0
      vertex -24.9193 10.5307 0
    endloop
  endfacet
  facet normal 0.382684 -0.923879 0
    outer loop
      vertex -27.9807 10.5307 0
      vertex -26.45 11.1648 16.5
      vertex -27.9807 10.5307 16.5
    endloop
  endfacet
  facet normal 0.382684 -0.923879 0
    outer loop
      vertex -26.45 11.1648 16.5
      vertex -27.9807 10.5307 0
      vertex -26.45 11.1648 0
    endloop
  endfacet
  facet normal -0.92388 0.382683 0
    outer loop
      vertex -24.9193 7.46927 0
      vertex -24.2852 9 16.5
      vertex -24.2852 9 0
    endloop
  endfacet
  facet normal -0.92388 0.382683 0
    outer loop
      vertex -24.2852 9 16.5
      vertex -24.9193 7.46927 0
      vertex -24.9193 7.46927 16.5
    endloop
  endfacet
  facet normal 0.382684 0.923879 -0
    outer loop
      vertex -26.45 6.83522 0
      vertex -27.9807 7.46927 16.5
      vertex -26.45 6.83522 16.5
    endloop
  endfacet
  facet normal 0.382684 0.923879 0
    outer loop
      vertex -27.9807 7.46927 16.5
      vertex -26.45 6.83522 0
      vertex -27.9807 7.46927 0
    endloop
  endfacet
  facet normal 0.923879 0.382684 0
    outer loop
      vertex -27.9807 7.46927 16.5
      vertex -28.6148 9 0
      vertex -28.6148 9 16.5
    endloop
  endfacet
  facet normal 0.923879 0.382684 0
    outer loop
      vertex -28.6148 9 0
      vertex -27.9807 7.46927 16.5
      vertex -27.9807 7.46927 0
    endloop
  endfacet
  facet normal -0.382683 0.92388 0
    outer loop
      vertex -24.9193 7.46927 0
      vertex -26.45 6.83522 16.5
      vertex -24.9193 7.46927 16.5
    endloop
  endfacet
  facet normal -0.382683 0.92388 0
    outer loop
      vertex -26.45 6.83522 16.5
      vertex -24.9193 7.46927 0
      vertex -26.45 6.83522 0
    endloop
  endfacet
  facet normal -0.923879 -0.382684 0
    outer loop
      vertex 28.6148 -9 0
      vertex 27.9807 -7.46927 16.5
      vertex 27.9807 -7.46927 0
    endloop
  endfacet
  facet normal -0.923879 -0.382684 0
    outer loop
      vertex 27.9807 -7.46927 16.5
      vertex 28.6148 -9 0
      vertex 28.6148 -9 16.5
    endloop
  endfacet
  facet normal 0.92388 0.382683 0
    outer loop
      vertex 24.9193 -10.5307 16.5
      vertex 24.2852 -9 0
      vertex 24.2852 -9 16.5
    endloop
  endfacet
  facet normal 0.92388 0.382683 0
    outer loop
      vertex 24.2852 -9 0
      vertex 24.9193 -10.5307 16.5
      vertex 24.9193 -10.5307 0
    endloop
  endfacet
  facet normal 0.382683 -0.92388 0
    outer loop
      vertex 24.9193 -7.46927 0
      vertex 26.45 -6.83522 16.5
      vertex 24.9193 -7.46927 16.5
    endloop
  endfacet
  facet normal 0.382683 -0.92388 0
    outer loop
      vertex 26.45 -6.83522 16.5
      vertex 24.9193 -7.46927 0
      vertex 26.45 -6.83522 0
    endloop
  endfacet
  facet normal -0.382684 -0.923879 0
    outer loop
      vertex 26.45 -6.83522 0
      vertex 27.9807 -7.46927 16.5
      vertex 26.45 -6.83522 16.5
    endloop
  endfacet
  facet normal -0.382684 -0.923879 -0
    outer loop
      vertex 27.9807 -7.46927 16.5
      vertex 26.45 -6.83522 0
      vertex 27.9807 -7.46927 0
    endloop
  endfacet
  facet normal 0.92388 -0.382683 0
    outer loop
      vertex 24.2852 -9 16.5
      vertex 24.9193 -7.46927 0
      vertex 24.9193 -7.46927 16.5
    endloop
  endfacet
  facet normal 0.92388 -0.382683 0
    outer loop
      vertex 24.9193 -7.46927 0
      vertex 24.2852 -9 16.5
      vertex 24.2852 -9 0
    endloop
  endfacet
  facet normal -0.382684 0.923879 0
    outer loop
      vertex 27.9807 -10.5307 0
      vertex 26.45 -11.1648 16.5
      vertex 27.9807 -10.5307 16.5
    endloop
  endfacet
  facet normal -0.382684 0.923879 0
    outer loop
      vertex 26.45 -11.1648 16.5
      vertex 27.9807 -10.5307 0
      vertex 26.45 -11.1648 0
    endloop
  endfacet
  facet normal 0.382683 0.92388 -0
    outer loop
      vertex 26.45 -11.1648 0
      vertex 24.9193 -10.5307 16.5
      vertex 26.45 -11.1648 16.5
    endloop
  endfacet
  facet normal 0.382683 0.92388 0
    outer loop
      vertex 24.9193 -10.5307 16.5
      vertex 26.45 -11.1648 0
      vertex 24.9193 -10.5307 0
    endloop
  endfacet
  facet normal -0.923879 0.382684 0
    outer loop
      vertex 27.9807 -10.5307 0
      vertex 28.6148 -9 16.5
      vertex 28.6148 -9 0
    endloop
  endfacet
  facet normal -0.923879 0.382684 0
    outer loop
      vertex 28.6148 -9 16.5
      vertex 27.9807 -10.5307 0
      vertex 27.9807 -10.5307 16.5
    endloop
  endfacet
  facet normal -0.923879 -0.382684 0
    outer loop
      vertex 28.6148 9 0
      vertex 27.9807 10.5307 16.5
      vertex 27.9807 10.5307 0
    endloop
  endfacet
  facet normal -0.923879 -0.382684 0
    outer loop
      vertex 27.9807 10.5307 16.5
      vertex 28.6148 9 0
      vertex 28.6148 9 16.5
    endloop
  endfacet
  facet normal 0.382683 -0.92388 0
    outer loop
      vertex 24.9193 10.5307 0
      vertex 26.45 11.1648 16.5
      vertex 24.9193 10.5307 16.5
    endloop
  endfacet
  facet normal 0.382683 -0.92388 0
    outer loop
      vertex 26.45 11.1648 16.5
      vertex 24.9193 10.5307 0
      vertex 26.45 11.1648 0
    endloop
  endfacet
  facet normal -0.382684 -0.923879 0
    outer loop
      vertex 26.45 11.1648 0
      vertex 27.9807 10.5307 16.5
      vertex 26.45 11.1648 16.5
    endloop
  endfacet
  facet normal -0.382684 -0.923879 -0
    outer loop
      vertex 27.9807 10.5307 16.5
      vertex 26.45 11.1648 0
      vertex 27.9807 10.5307 0
    endloop
  endfacet
  facet normal 0.92388 -0.382683 0
    outer loop
      vertex 24.2852 9 16.5
      vertex 24.9193 10.5307 0
      vertex 24.9193 10.5307 16.5
    endloop
  endfacet
  facet normal 0.92388 -0.382683 0
    outer loop
      vertex 24.9193 10.5307 0
      vertex 24.2852 9 16.5
      vertex 24.2852 9 0
    endloop
  endfacet
  facet normal -0.923879 0.382684 0
    outer loop
      vertex 27.9807 7.46927 0
      vertex 28.6148 9 16.5
      vertex 28.6148 9 0
    endloop
  endfacet
  facet normal -0.923879 0.382684 0
    outer loop
      vertex 28.6148 9 16.5
      vertex 27.9807 7.46927 0
      vertex 27.9807 7.46927 16.5
    endloop
  endfacet
  facet normal 0.382683 0.92388 -0
    outer loop
      vertex 26.45 6.83522 0
      vertex 24.9193 7.46927 16.5
      vertex 26.45 6.83522 16.5
    endloop
  endfacet
  facet normal 0.382683 0.92388 0
    outer loop
      vertex 24.9193 7.46927 16.5
      vertex 26.45 6.83522 0
      vertex 24.9193 7.46927 0
    endloop
  endfacet
  facet normal 0.92388 0.382683 0
    outer loop
      vertex 24.9193 7.46927 16.5
      vertex 24.2852 9 0
      vertex 24.2852 9 16.5
    endloop
  endfacet
  facet normal 0.92388 0.382683 0
    outer loop
      vertex 24.2852 9 0
      vertex 24.9193 7.46927 16.5
      vertex 24.9193 7.46927 0
    endloop
  endfacet
  facet normal -0.382684 0.923879 0
    outer loop
      vertex 27.9807 7.46927 0
      vertex 26.45 6.83522 16.5
      vertex 27.9807 7.46927 16.5
    endloop
  endfacet
  facet normal -0.382684 0.923879 0
    outer loop
      vertex 26.45 6.83522 16.5
      vertex 27.9807 7.46927 0
      vertex 26.45 6.83522 0
    endloop
  endfacet
  facet normal -0.866026 -0.5 0
    outer loop
      vertex -11.4679 -3.35 0
      vertex -12.334 -1.85 2
      vertex -12.334 -1.85 0
    endloop
  endfacet
  facet normal -0.866026 -0.5 0
    outer loop
      vertex -12.334 -1.85 2
      vertex -11.4679 -3.35 0
      vertex -11.4679 -3.35 2
    endloop
  endfacet
  facet normal 0.866025 -0.5 0
    outer loop
      vertex -14.9321 -3.35 2
      vertex -14.066 -1.85 0
      vertex -14.066 -1.85 2
    endloop
  endfacet
  facet normal 0.866025 -0.5 0
    outer loop
      vertex -14.066 -1.85 0
      vertex -14.9321 -3.35 2
      vertex -14.9321 -3.35 0
    endloop
  endfacet
  facet normal 0 -1 0
    outer loop
      vertex -14.066 -1.85 0
      vertex -12.334 -1.85 2
      vertex -14.066 -1.85 2
    endloop
  endfacet
  facet normal 0 -1 -0
    outer loop
      vertex -12.334 -1.85 2
      vertex -14.066 -1.85 0
      vertex -12.334 -1.85 0
    endloop
  endfacet
  facet normal 0.866025 0.5 0
    outer loop
      vertex -14.066 -4.85 2
      vertex -14.9321 -3.35 0
      vertex -14.9321 -3.35 2
    endloop
  endfacet
  facet normal 0.866025 0.5 0
    outer loop
      vertex -14.9321 -3.35 0
      vertex -14.066 -4.85 2
      vertex -14.066 -4.85 0
    endloop
  endfacet
  facet normal 0 0 1
    outer loop
      vertex -10.6288 13.7198 2
      vertex -14.066 26.15 2
      vertex -10.7238 12.15 2
    endloop
  endfacet
  facet normal 0 0 1
    outer loop
      vertex -10.7238 12.15 2
      vertex -12.334 -1.85 2
      vertex -11.4679 -3.35 2
    endloop
  endfacet
  facet normal 0 0 1
    outer loop
      vertex -14.9321 27.65 2
      vertex -10.7238 12.15 2
      vertex -14.066 26.15 2
    endloop
  endfacet
  facet normal 0 0 1
    outer loop
      vertex -10.7238 12.15 2
      vertex -14.066 -1.85 2
      vertex -12.334 -1.85 2
    endloop
  endfacet
  facet normal 0 0 1
    outer loop
      vertex -14.9321 -3.35 2
      vertex -10.7238 12.15 2
      vertex -14.9321 27.65 2
    endloop
  endfacet
  facet normal 0 0 1
    outer loop
      vertex -10.7238 12.15 2
      vertex -14.9321 -3.35 2
      vertex -14.066 -1.85 2
    endloop
  endfacet
  facet normal 0 0 1
    outer loop
      vertex 15.3238 12.15 2
      vertex 19.5321 27.65 2
      vertex 18.666 26.15 2
    endloop
  endfacet
  facet normal 0 0 1
    outer loop
      vertex 19.5321 27.65 2
      vertex 15.3238 12.15 2
      vertex 19.5321 -3.35 2
    endloop
  endfacet
  facet normal 0 0 1
    outer loop
      vertex 13.832 18.2024 2
      vertex 18.666 26.15 2
      vertex 16.934 26.15 2
    endloop
  endfacet
  facet normal 0 0 1
    outer loop
      vertex 19.5321 -3.35 2
      vertex 15.3238 12.15 2
      vertex 18.666 -1.85 2
    endloop
  endfacet
  facet normal 0 0 1
    outer loop
      vertex 10.9364 21.8984 2
      vertex 16.934 26.15 2
      vertex 16.0679 27.65 2
    endloop
  endfacet
  facet normal -0 0 1
    outer loop
      vertex 15.2288 10.5802 2
      vertex 18.666 -1.85 2
      vertex 15.3238 12.15 2
    endloop
  endfacet
  facet normal 0 0 1
    outer loop
      vertex 23.45 33.3 2
      vertex 19.5321 27.65 2
      vertex 23.45 -9 2
    endloop
  endfacet
  facet normal 0 0 1
    outer loop
      vertex 23.45 33.3 2
      vertex 18.666 29.15 2
      vertex 19.5321 27.65 2
    endloop
  endfacet
  facet normal 0 0 1
    outer loop
      vertex 23.45 33.3 2
      vertex 16.934 29.15 2
      vertex 18.666 29.15 2
    endloop
  endfacet
  facet normal -0 0 1
    outer loop
      vertex 14.9453 9.03321 2
      vertex 18.666 -1.85 2
      vertex 15.2288 10.5802 2
    endloop
  endfacet
  facet normal 0 0 1
    outer loop
      vertex 18.666 26.15 2
      vertex 15.2288 13.7198 2
      vertex 15.3238 12.15 2
    endloop
  endfacet
  facet normal 0 0 1
    outer loop
      vertex 18.666 26.15 2
      vertex 14.9453 15.2668 2
      vertex 15.2288 13.7198 2
    endloop
  endfacet
  facet normal 0 0 1
    outer loop
      vertex 18.666 26.15 2
      vertex 14.4774 16.7683 2
      vertex 14.9453 15.2668 2
    endloop
  endfacet
  facet normal 0 0 1
    outer loop
      vertex 18.666 26.15 2
      vertex 13.832 18.2024 2
      vertex 14.4774 16.7683 2
    endloop
  endfacet
  facet normal 0 0 1
    outer loop
      vertex 16.934 26.15 2
      vertex 13.0183 19.5483 2
      vertex 13.832 18.2024 2
    endloop
  endfacet
  facet normal 0 0 1
    outer loop
      vertex 16.934 26.15 2
      vertex 12.0484 20.7864 2
      vertex 13.0183 19.5483 2
    endloop
  endfacet
  facet normal 0 0 1
    outer loop
      vertex 6.91829 24.3274 2
      vertex 16.0679 27.65 2
      vertex 16.934 29.15 2
    endloop
  endfacet
  facet normal 0 0 1
    outer loop
      vertex 16.934 26.15 2
      vertex 10.9364 21.8984 2
      vertex 12.0484 20.7864 2
    endloop
  endfacet
  facet normal 0 0 1
    outer loop
      vertex 16.0679 27.65 2
      vertex 9.69834 22.8683 2
      vertex 10.9364 21.8984 2
    endloop
  endfacet
  facet normal 0 0 1
    outer loop
      vertex 16.0679 27.65 2
      vertex 8.35244 23.682 2
      vertex 9.69834 22.8683 2
    endloop
  endfacet
  facet normal 0 0 1
    outer loop
      vertex 16.0679 27.65 2
      vertex 6.91829 24.3274 2
      vertex 8.35244 23.682 2
    endloop
  endfacet
  facet normal 0 0 1
    outer loop
      vertex -12.334 29.15 2
      vertex 16.934 29.15 2
      vertex 23.45 33.3 2
    endloop
  endfacet
  facet normal 0 0 1
    outer loop
      vertex 16.934 29.15 2
      vertex 5.41679 24.7953 2
      vertex 6.91829 24.3274 2
    endloop
  endfacet
  facet normal 0 0 1
    outer loop
      vertex 16.934 29.15 2
      vertex 3.86984 25.0788 2
      vertex 5.41679 24.7953 2
    endloop
  endfacet
  facet normal 0 0 1
    outer loop
      vertex 16.934 29.15 2
      vertex 2.3 25.1738 2
      vertex 3.86984 25.0788 2
    endloop
  endfacet
  facet normal 0 0 1
    outer loop
      vertex 16.934 29.15 2
      vertex -12.334 29.15 2
      vertex 2.3 25.1738 2
    endloop
  endfacet
  facet normal 0 0 1
    outer loop
      vertex 2.3 25.1738 2
      vertex -12.334 29.15 2
      vertex 0.730159 25.0788 2
    endloop
  endfacet
  facet normal 0 0 1
    outer loop
      vertex 0.730159 25.0788 2
      vertex -12.334 29.15 2
      vertex -0.81679 24.7953 2
    endloop
  endfacet
  facet normal 0 0 1
    outer loop
      vertex -9.87743 16.7683 2
      vertex -14.066 26.15 2
      vertex -10.3453 15.2668 2
    endloop
  endfacet
  facet normal 0 0 1
    outer loop
      vertex -9.23197 18.2024 2
      vertex -14.066 26.15 2
      vertex -9.87743 16.7683 2
    endloop
  endfacet
  facet normal -0 0 1
    outer loop
      vertex -14.066 26.15 2
      vertex -9.23197 18.2024 2
      vertex -12.334 26.15 2
    endloop
  endfacet
  facet normal 0 0 1
    outer loop
      vertex -8.41834 19.5483 2
      vertex -12.334 26.15 2
      vertex -9.23197 18.2024 2
    endloop
  endfacet
  facet normal 0 0 1
    outer loop
      vertex -7.44842 20.7864 2
      vertex -12.334 26.15 2
      vertex -8.41834 19.5483 2
    endloop
  endfacet
  facet normal 0 0 1
    outer loop
      vertex -6.33635 21.8984 2
      vertex -12.334 26.15 2
      vertex -7.44842 20.7864 2
    endloop
  endfacet
  facet normal -0 0 1
    outer loop
      vertex -12.334 26.15 2
      vertex -6.33635 21.8984 2
      vertex -11.4679 27.65 2
    endloop
  endfacet
  facet normal 0 0 1
    outer loop
      vertex -5.09834 22.8683 2
      vertex -11.4679 27.65 2
      vertex -6.33635 21.8984 2
    endloop
  endfacet
  facet normal 0 0 1
    outer loop
      vertex -3.75244 23.682 2
      vertex -11.4679 27.65 2
      vertex -5.09834 22.8683 2
    endloop
  endfacet
  facet normal 0 0 1
    outer loop
      vertex -2.31829 24.3274 2
      vertex -11.4679 27.65 2
      vertex -3.75244 23.682 2
    endloop
  endfacet
  facet normal 0 0 1
    outer loop
      vertex -0.81679 24.7953 2
      vertex -12.334 29.15 2
      vertex -2.31829 24.3274 2
    endloop
  endfacet
  facet normal 0 0 1
    outer loop
      vertex -2.31829 24.3274 2
      vertex -12.334 29.15 2
      vertex -11.4679 27.65 2
    endloop
  endfacet
  facet normal -0 0 1
    outer loop
      vertex -18.85 33.3 2
      vertex -12.334 29.15 2
      vertex 23.45 33.3 2
    endloop
  endfacet
  facet normal 0 0 1
    outer loop
      vertex -14.9321 27.65 2
      vertex -18.85 33.3 2
      vertex -14.9321 -3.35 2
    endloop
  endfacet
  facet normal 0 0 1
    outer loop
      vertex -14.066 29.15 2
      vertex -18.85 33.3 2
      vertex -14.9321 27.65 2
    endloop
  endfacet
  facet normal 0 0 1
    outer loop
      vertex -12.334 29.15 2
      vertex -18.85 33.3 2
      vertex -14.066 29.15 2
    endloop
  endfacet
  facet normal -0 0 1
    outer loop
      vertex 19.5321 -3.35 2
      vertex 23.45 -9 2
      vertex 19.5321 27.65 2
    endloop
  endfacet
  facet normal -0 0 1
    outer loop
      vertex 18.666 -4.85 2
      vertex 23.45 -9 2
      vertex 19.5321 -3.35 2
    endloop
  endfacet
  facet normal -0 0 1
    outer loop
      vertex 16.934 -4.85 2
      vertex 23.45 -9 2
      vertex 18.666 -4.85 2
    endloop
  endfacet
  facet normal -0 0 1
    outer loop
      vertex 14.4774 7.53171 2
      vertex 18.666 -1.85 2
      vertex 14.9453 9.03321 2
    endloop
  endfacet
  facet normal -0 0 1
    outer loop
      vertex 13.832 6.09756 2
      vertex 18.666 -1.85 2
      vertex 14.4774 7.53171 2
    endloop
  endfacet
  facet normal 0 0 1
    outer loop
      vertex 18.666 -1.85 2
      vertex 13.832 6.09756 2
      vertex 16.934 -1.85 2
    endloop
  endfacet
  facet normal -0 0 1
    outer loop
      vertex 13.0183 4.75166 2
      vertex 16.934 -1.85 2
      vertex 13.832 6.09756 2
    endloop
  endfacet
  facet normal -0 0 1
    outer loop
      vertex 12.0484 3.51365 2
      vertex 16.934 -1.85 2
      vertex 13.0183 4.75166 2
    endloop
  endfacet
  facet normal -0 0 1
    outer loop
      vertex 10.9364 2.40157 2
      vertex 16.934 -1.85 2
      vertex 12.0484 3.51365 2
    endloop
  endfacet
  facet normal 0 0 1
    outer loop
      vertex 16.934 -1.85 2
      vertex 10.9364 2.40157 2
      vertex 16.0679 -3.35 2
    endloop
  endfacet
  facet normal -0 0 1
    outer loop
      vertex 9.69834 1.43165 2
      vertex 16.0679 -3.35 2
      vertex 10.9364 2.40157 2
    endloop
  endfacet
  facet normal -0 0 1
    outer loop
      vertex 8.35244 0.618032 2
      vertex 16.0679 -3.35 2
      vertex 9.69834 1.43165 2
    endloop
  endfacet
  facet normal -0 0 1
    outer loop
      vertex 6.91829 -0.0274277 2
      vertex 16.0679 -3.35 2
      vertex 8.35244 0.618032 2
    endloop
  endfacet
  facet normal 0 0 1
    outer loop
      vertex 16.0679 -3.35 2
      vertex 6.91829 -0.0274277 2
      vertex 16.934 -4.85 2
    endloop
  endfacet
  facet normal -0 0 1
    outer loop
      vertex 5.41679 -0.495314 2
      vertex 16.934 -4.85 2
      vertex 6.91829 -0.0274277 2
    endloop
  endfacet
  facet normal -0 0 1
    outer loop
      vertex 3.86984 -0.778803 2
      vertex 16.934 -4.85 2
      vertex 5.41679 -0.495314 2
    endloop
  endfacet
  facet normal -0 0 1
    outer loop
      vertex 2.3 -0.87376 2
      vertex 16.934 -4.85 2
      vertex 3.86984 -0.778803 2
    endloop
  endfacet
  facet normal 0 0 1
    outer loop
      vertex -12.334 -4.85 2
      vertex 16.934 -4.85 2
      vertex 2.3 -0.87376 2
    endloop
  endfacet
  facet normal 0 0 1
    outer loop
      vertex -12.334 -4.85 2
      vertex 2.3 -0.87376 2
      vertex 0.730159 -0.778803 2
    endloop
  endfacet
  facet normal 0 0 1
    outer loop
      vertex -12.334 -4.85 2
      vertex 0.730159 -0.778803 2
      vertex -0.81679 -0.495314 2
    endloop
  endfacet
  facet normal 0 0 1
    outer loop
      vertex -12.334 -4.85 2
      vertex -0.81679 -0.495314 2
      vertex -2.31829 -0.0274277 2
    endloop
  endfacet
  facet normal 0 0 1
    outer loop
      vertex -10.3453 15.2668 2
      vertex -14.066 26.15 2
      vertex -10.6288 13.7198 2
    endloop
  endfacet
  facet normal 0 0 1
    outer loop
      vertex -11.4679 -3.35 2
      vertex -10.6288 10.5802 2
      vertex -10.7238 12.15 2
    endloop
  endfacet
  facet normal 0 0 1
    outer loop
      vertex -11.4679 -3.35 2
      vertex -10.3453 9.03321 2
      vertex -10.6288 10.5802 2
    endloop
  endfacet
  facet normal 0 0 1
    outer loop
      vertex -11.4679 -3.35 2
      vertex -9.87743 7.53171 2
      vertex -10.3453 9.03321 2
    endloop
  endfacet
  facet normal 0 0 1
    outer loop
      vertex -11.4679 -3.35 2
      vertex -9.23197 6.09756 2
      vertex -9.87743 7.53171 2
    endloop
  endfacet
  facet normal 0 0 1
    outer loop
      vertex -11.4679 -3.35 2
      vertex -8.41834 4.75166 2
      vertex -9.23197 6.09756 2
    endloop
  endfacet
  facet normal 0 0 1
    outer loop
      vertex -11.4679 -3.35 2
      vertex -7.44842 3.51365 2
      vertex -8.41834 4.75166 2
    endloop
  endfacet
  facet normal 0 0 1
    outer loop
      vertex -11.4679 -3.35 2
      vertex -6.33635 2.40157 2
      vertex -7.44842 3.51365 2
    endloop
  endfacet
  facet normal 0 0 1
    outer loop
      vertex -11.4679 -3.35 2
      vertex -5.09834 1.43165 2
      vertex -6.33635 2.40157 2
    endloop
  endfacet
  facet normal 0 0 1
    outer loop
      vertex -11.4679 -3.35 2
      vertex -3.75244 0.618032 2
      vertex -5.09834 1.43165 2
    endloop
  endfacet
  facet normal 0 0 1
    outer loop
      vertex -11.4679 -3.35 2
      vertex -2.31829 -0.0274277 2
      vertex -3.75244 0.618032 2
    endloop
  endfacet
  facet normal 0 0 1
    outer loop
      vertex -12.334 -4.85 2
      vertex -2.31829 -0.0274277 2
      vertex -11.4679 -3.35 2
    endloop
  endfacet
  facet normal 0 0 1
    outer loop
      vertex 16.934 -4.85 2
      vertex -12.334 -4.85 2
      vertex 23.45 -9 2
    endloop
  endfacet
  facet normal 0 0 1
    outer loop
      vertex -18.85 -9 2
      vertex -12.334 -4.85 2
      vertex -14.066 -4.85 2
    endloop
  endfacet
  facet normal 0 0 1
    outer loop
      vertex -12.334 -4.85 2
      vertex -18.85 -9 2
      vertex 23.45 -9 2
    endloop
  endfacet
  facet normal 0 0 1
    outer loop
      vertex -14.9321 -3.35 2
      vertex -18.85 -9 2
      vertex -14.066 -4.85 2
    endloop
  endfacet
  facet normal 0 0 1
    outer loop
      vertex -18.85 -9 2
      vertex -14.9321 -3.35 2
      vertex -18.85 33.3 2
    endloop
  endfacet
  facet normal 0 1 -0
    outer loop
      vertex -12.334 -4.85 0
      vertex -14.066 -4.85 2
      vertex -12.334 -4.85 2
    endloop
  endfacet
  facet normal 0 1 0
    outer loop
      vertex -14.066 -4.85 2
      vertex -12.334 -4.85 0
      vertex -14.066 -4.85 0
    endloop
  endfacet
  facet normal -0.866026 0.5 0
    outer loop
      vertex -12.334 -4.85 0
      vertex -11.4679 -3.35 2
      vertex -11.4679 -3.35 0
    endloop
  endfacet
  facet normal -0.866026 0.5 0
    outer loop
      vertex -11.4679 -3.35 2
      vertex -12.334 -4.85 0
      vertex -12.334 -4.85 2
    endloop
  endfacet
  facet normal -0.866026 -0.5 0
    outer loop
      vertex -11.4679 27.65 0
      vertex -12.334 29.15 2
      vertex -12.334 29.15 0
    endloop
  endfacet
  facet normal -0.866026 -0.5 0
    outer loop
      vertex -12.334 29.15 2
      vertex -11.4679 27.65 0
      vertex -11.4679 27.65 2
    endloop
  endfacet
  facet normal 0.866025 -0.5 0
    outer loop
      vertex -14.9321 27.65 2
      vertex -14.066 29.15 0
      vertex -14.066 29.15 2
    endloop
  endfacet
  facet normal 0.866025 -0.5 0
    outer loop
      vertex -14.066 29.15 0
      vertex -14.9321 27.65 2
      vertex -14.9321 27.65 0
    endloop
  endfacet
  facet normal 0 -1 0
    outer loop
      vertex -14.066 29.15 0
      vertex -12.334 29.15 2
      vertex -14.066 29.15 2
    endloop
  endfacet
  facet normal 0 -1 -0
    outer loop
      vertex -12.334 29.15 2
      vertex -14.066 29.15 0
      vertex -12.334 29.15 0
    endloop
  endfacet
  facet normal 0.866025 0.5 0
    outer loop
      vertex -14.066 26.15 2
      vertex -14.9321 27.65 0
      vertex -14.9321 27.65 2
    endloop
  endfacet
  facet normal 0.866025 0.5 0
    outer loop
      vertex -14.9321 27.65 0
      vertex -14.066 26.15 2
      vertex -14.066 26.15 0
    endloop
  endfacet
  facet normal 0 1 -0
    outer loop
      vertex -12.334 26.15 0
      vertex -14.066 26.15 2
      vertex -12.334 26.15 2
    endloop
  endfacet
  facet normal 0 1 0
    outer loop
      vertex -14.066 26.15 2
      vertex -12.334 26.15 0
      vertex -14.066 26.15 0
    endloop
  endfacet
  facet normal -0.866026 0.5 0
    outer loop
      vertex -12.334 26.15 0
      vertex -11.4679 27.65 2
      vertex -11.4679 27.65 0
    endloop
  endfacet
  facet normal -0.866026 0.5 0
    outer loop
      vertex -11.4679 27.65 2
      vertex -12.334 26.15 0
      vertex -12.334 26.15 2
    endloop
  endfacet
  facet normal -0.866025 -0.5 0
    outer loop
      vertex 19.5321 -3.35 0
      vertex 18.666 -1.85 2
      vertex 18.666 -1.85 0
    endloop
  endfacet
  facet normal -0.866025 -0.5 0
    outer loop
      vertex 18.666 -1.85 2
      vertex 19.5321 -3.35 0
      vertex 19.5321 -3.35 2
    endloop
  endfacet
  facet normal 0.866025 -0.500001 0
    outer loop
      vertex 16.0679 -3.35 2
      vertex 16.934 -1.85 0
      vertex 16.934 -1.85 2
    endloop
  endfacet
  facet normal 0.866025 -0.500001 0
    outer loop
      vertex 16.934 -1.85 0
      vertex 16.0679 -3.35 2
      vertex 16.0679 -3.35 0
    endloop
  endfacet
  facet normal 0 -1 0
    outer loop
      vertex 16.934 -1.85 0
      vertex 18.666 -1.85 2
      vertex 16.934 -1.85 2
    endloop
  endfacet
  facet normal 0 -1 -0
    outer loop
      vertex 18.666 -1.85 2
      vertex 16.934 -1.85 0
      vertex 18.666 -1.85 0
    endloop
  endfacet
  facet normal 0.866025 0.500001 0
    outer loop
      vertex 16.934 -4.85 2
      vertex 16.0679 -3.35 0
      vertex 16.0679 -3.35 2
    endloop
  endfacet
  facet normal 0.866025 0.500001 0
    outer loop
      vertex 16.0679 -3.35 0
      vertex 16.934 -4.85 2
      vertex 16.934 -4.85 0
    endloop
  endfacet
  facet normal -0.866025 0.5 0
    outer loop
      vertex 18.666 -4.85 0
      vertex 19.5321 -3.35 2
      vertex 19.5321 -3.35 0
    endloop
  endfacet
  facet normal -0.866025 0.5 0
    outer loop
      vertex 19.5321 -3.35 2
      vertex 18.666 -4.85 0
      vertex 18.666 -4.85 2
    endloop
  endfacet
  facet normal 0 1 -0
    outer loop
      vertex 18.666 -4.85 0
      vertex 16.934 -4.85 2
      vertex 18.666 -4.85 2
    endloop
  endfacet
  facet normal 0 1 0
    outer loop
      vertex 16.934 -4.85 2
      vertex 18.666 -4.85 0
      vertex 16.934 -4.85 0
    endloop
  endfacet
  facet normal -0.866025 -0.5 0
    outer loop
      vertex 19.5321 27.65 0
      vertex 18.666 29.15 2
      vertex 18.666 29.15 0
    endloop
  endfacet
  facet normal -0.866025 -0.5 0
    outer loop
      vertex 18.666 29.15 2
      vertex 19.5321 27.65 0
      vertex 19.5321 27.65 2
    endloop
  endfacet
  facet normal 0.866025 -0.500001 0
    outer loop
      vertex 16.0679 27.65 2
      vertex 16.934 29.15 0
      vertex 16.934 29.15 2
    endloop
  endfacet
  facet normal 0.866025 -0.500001 0
    outer loop
      vertex 16.934 29.15 0
      vertex 16.0679 27.65 2
      vertex 16.0679 27.65 0
    endloop
  endfacet
  facet normal 0 -1 0
    outer loop
      vertex 16.934 29.15 0
      vertex 18.666 29.15 2
      vertex 16.934 29.15 2
    endloop
  endfacet
  facet normal 0 -1 -0
    outer loop
      vertex 18.666 29.15 2
      vertex 16.934 29.15 0
      vertex 18.666 29.15 0
    endloop
  endfacet
  facet normal -0.866025 0.5 0
    outer loop
      vertex 18.666 26.15 0
      vertex 19.5321 27.65 2
      vertex 19.5321 27.65 0
    endloop
  endfacet
  facet normal -0.866025 0.5 0
    outer loop
      vertex 19.5321 27.65 2
      vertex 18.666 26.15 0
      vertex 18.666 26.15 2
    endloop
  endfacet
  facet normal 0 1 -0
    outer loop
      vertex 18.666 26.15 0
      vertex 16.934 26.15 2
      vertex 18.666 26.15 2
    endloop
  endfacet
  facet normal 0 1 0
    outer loop
      vertex 16.934 26.15 2
      vertex 18.666 26.15 0
      vertex 16.934 26.15 0
    endloop
  endfacet
  facet normal 0.866025 0.500001 0
    outer loop
      vertex 16.934 26.15 2
      vertex 16.0679 27.65 0
      vertex 16.0679 27.65 2
    endloop
  endfacet
  facet normal 0.866025 0.500001 0
    outer loop
      vertex 16.0679 27.65 0
      vertex 16.934 26.15 2
      vertex 16.934 26.15 0
    endloop
  endfacet
  facet normal -1 0 0
    outer loop
      vertex -30 -13 0
      vertex -30 -7.04137 16.5
      vertex -30 -7.04137 0
    endloop
  endfacet
  facet normal -1 -0 0
    outer loop
      vertex -30 -7.04137 16.5
      vertex -30 -13 0
      vertex -30 -13 16.5
    endloop
  endfacet
  facet normal -1 0 0
    outer loop
      vertex -30 7.04137 0
      vertex -30 13 16.5
      vertex -30 13 0
    endloop
  endfacet
  facet normal -1 -0 0
    outer loop
      vertex -30 13 16.5
      vertex -30 7.04137 0
      vertex -30 7.04137 16.5
    endloop
  endfacet
  facet normal 0 0 1
    outer loop
      vertex -18.85 13 16.5
      vertex -25.1441 1.46318 16.5
      vertex -18.85 -9 16.5
    endloop
  endfacet
  facet normal -0 0 1
    outer loop
      vertex -25.1441 -1.46318 16.5
      vertex -18.85 -9 16.5
      vertex -25 0 16.5
    endloop
  endfacet
  facet normal -0 0 1
    outer loop
      vertex -25.5709 -2.87012 16.5
      vertex -18.85 -9 16.5
      vertex -25.1441 -1.46318 16.5
    endloop
  endfacet
  facet normal 0 0 1
    outer loop
      vertex -18.85 -9 16.5
      vertex -25.1441 1.46318 16.5
      vertex -25 0 16.5
    endloop
  endfacet
  facet normal 0 0 1
    outer loop
      vertex -24.9193 7.46927 16.5
      vertex -25.5709 2.87012 16.5
      vertex -25.1441 1.46318 16.5
    endloop
  endfacet
  facet normal 0 0 1
    outer loop
      vertex -24.9193 7.46927 16.5
      vertex -26.264 4.16678 16.5
      vertex -25.5709 2.87012 16.5
    endloop
  endfacet
  facet normal -0 0 1
    outer loop
      vertex -26.45 6.83522 16.5
      vertex -26.264 4.16678 16.5
      vertex -24.9193 7.46927 16.5
    endloop
  endfacet
  facet normal 0 0 1
    outer loop
      vertex -26.45 6.83522 16.5
      vertex -27.1967 5.3033 16.5
      vertex -26.264 4.16678 16.5
    endloop
  endfacet
  facet normal 0 0 1
    outer loop
      vertex -28.3332 6.23602 16.5
      vertex -26.45 6.83522 16.5
      vertex -27.9807 7.46927 16.5
    endloop
  endfacet
  facet normal 0 0 1
    outer loop
      vertex -26.45 6.83522 16.5
      vertex -28.3332 6.23602 16.5
      vertex -27.1967 5.3033 16.5
    endloop
  endfacet
  facet normal 0 0 1
    outer loop
      vertex -29.6299 6.9291 16.5
      vertex -27.9807 7.46927 16.5
      vertex -28.6148 9 16.5
    endloop
  endfacet
  facet normal 0 0 1
    outer loop
      vertex -27.9807 7.46927 16.5
      vertex -29.6299 6.9291 16.5
      vertex -28.3332 6.23602 16.5
    endloop
  endfacet
  facet normal 0 0 1
    outer loop
      vertex -24.9193 7.46927 16.5
      vertex -18.85 13 16.5
      vertex -24.2852 9 16.5
    endloop
  endfacet
  facet normal 0 0 1
    outer loop
      vertex -18.85 13 16.5
      vertex -24.9193 10.5307 16.5
      vertex -24.2852 9 16.5
    endloop
  endfacet
  facet normal 0 0 1
    outer loop
      vertex -18.85 13 16.5
      vertex -26.45 11.1648 16.5
      vertex -24.9193 10.5307 16.5
    endloop
  endfacet
  facet normal 0 0 1
    outer loop
      vertex -30 13 16.5
      vertex -28.6148 9 16.5
      vertex -27.9807 10.5307 16.5
    endloop
  endfacet
  facet normal -0 0 1
    outer loop
      vertex -30 13 16.5
      vertex -26.45 11.1648 16.5
      vertex -18.85 13 16.5
    endloop
  endfacet
  facet normal 0 0 1
    outer loop
      vertex -30 13 16.5
      vertex -27.9807 10.5307 16.5
      vertex -26.45 11.1648 16.5
    endloop
  endfacet
  facet normal 0 0 1
    outer loop
      vertex -28.6148 9 16.5
      vertex -30 13 16.5
      vertex -30 7.04137 16.5
    endloop
  endfacet
  facet normal 0 0 1
    outer loop
      vertex -28.6148 9 16.5
      vertex -30 7.04137 16.5
      vertex -29.6299 6.9291 16.5
    endloop
  endfacet
  facet normal -0 0 1
    outer loop
      vertex 28.6148 9 16.5
      vertex 30 7.04137 16.5
      vertex 30 13 16.5
    endloop
  endfacet
  facet normal 0 0 1
    outer loop
      vertex 30 7.04137 16.5
      vertex 28.6148 9 16.5
      vertex 29.6299 6.9291 16.5
    endloop
  endfacet
  facet normal 0 0 1
    outer loop
      vertex 30 13 16.5
      vertex 27.9807 10.5307 16.5
      vertex 28.6148 9 16.5
    endloop
  endfacet
  facet normal 0 0 1
    outer loop
      vertex 30 13 16.5
      vertex 26.45 11.1648 16.5
      vertex 27.9807 10.5307 16.5
    endloop
  endfacet
  facet normal -0 0 1
    outer loop
      vertex 23.45 13 16.5
      vertex 26.45 11.1648 16.5
      vertex 30 13 16.5
    endloop
  endfacet
  facet normal 0 0 1
    outer loop
      vertex 23.45 -9 16.5
      vertex 24.2852 9 16.5
      vertex 23.45 13 16.5
    endloop
  endfacet
  facet normal 0 0 1
    outer loop
      vertex 24.9193 10.5307 16.5
      vertex 23.45 13 16.5
      vertex 24.2852 9 16.5
    endloop
  endfacet
  facet normal 0 0 1
    outer loop
      vertex 26.45 11.1648 16.5
      vertex 23.45 13 16.5
      vertex 24.9193 10.5307 16.5
    endloop
  endfacet
  facet normal -0 0 1
    outer loop
      vertex 27.9807 7.46927 16.5
      vertex 29.6299 6.9291 16.5
      vertex 28.6148 9 16.5
    endloop
  endfacet
  facet normal 0 0 1
    outer loop
      vertex 29.6299 6.9291 16.5
      vertex 27.9807 7.46927 16.5
      vertex 28.3332 6.23602 16.5
    endloop
  endfacet
  facet normal -0 0 1
    outer loop
      vertex 26.45 6.83522 16.5
      vertex 28.3332 6.23602 16.5
      vertex 27.9807 7.46927 16.5
    endloop
  endfacet
  facet normal 0 0 1
    outer loop
      vertex 28.3332 6.23602 16.5
      vertex 26.45 6.83522 16.5
      vertex 27.1967 5.3033 16.5
    endloop
  endfacet
  facet normal 0 0 1
    outer loop
      vertex 26.45 6.83522 16.5
      vertex 26.264 4.16678 16.5
      vertex 27.1967 5.3033 16.5
    endloop
  endfacet
  facet normal 0 0 1
    outer loop
      vertex 24.9193 7.46927 16.5
      vertex 26.264 4.16678 16.5
      vertex 26.45 6.83522 16.5
    endloop
  endfacet
  facet normal 0 0 1
    outer loop
      vertex 26.264 4.16678 16.5
      vertex 24.9193 7.46927 16.5
      vertex 25.5709 2.87012 16.5
    endloop
  endfacet
  facet normal 0 0 1
    outer loop
      vertex 24.2852 9 16.5
      vertex 25.1441 1.46318 16.5
      vertex 24.9193 7.46927 16.5
    endloop
  endfacet
  facet normal 0 0 1
    outer loop
      vertex 25.5709 2.87012 16.5
      vertex 24.9193 7.46927 16.5
      vertex 25.1441 1.46318 16.5
    endloop
  endfacet
  facet normal 0 0 1
    outer loop
      vertex 27.9807 -7.46927 16.5
      vertex 29.6299 -6.9291 16.5
      vertex 28.3332 -6.23602 16.5
    endloop
  endfacet
  facet normal 0 0 1
    outer loop
      vertex 29.6299 -6.9291 16.5
      vertex 27.9807 -7.46927 16.5
      vertex 28.6148 -9 16.5
    endloop
  endfacet
  facet normal 0 0 1
    outer loop
      vertex 26.45 -6.83522 16.5
      vertex 28.3332 -6.23602 16.5
      vertex 27.1967 -5.3033 16.5
    endloop
  endfacet
  facet normal 0 0 1
    outer loop
      vertex 28.3332 -6.23602 16.5
      vertex 26.45 -6.83522 16.5
      vertex 27.9807 -7.46927 16.5
    endloop
  endfacet
  facet normal 0 0 1
    outer loop
      vertex 26.264 -4.16678 16.5
      vertex 26.45 -6.83522 16.5
      vertex 27.1967 -5.3033 16.5
    endloop
  endfacet
  facet normal 0 0 1
    outer loop
      vertex 24.9193 -7.46927 16.5
      vertex 26.264 -4.16678 16.5
      vertex 25.5709 -2.87012 16.5
    endloop
  endfacet
  facet normal 0 0 1
    outer loop
      vertex 24.9193 -7.46927 16.5
      vertex 25.5709 -2.87012 16.5
      vertex 25.1441 -1.46318 16.5
    endloop
  endfacet
  facet normal 0 0 1
    outer loop
      vertex 26.264 -4.16678 16.5
      vertex 24.9193 -7.46927 16.5
      vertex 26.45 -6.83522 16.5
    endloop
  endfacet
  facet normal 0 0 1
    outer loop
      vertex 24.2852 -9 16.5
      vertex 25.1441 -1.46318 16.5
      vertex 25 0 16.5
    endloop
  endfacet
  facet normal 0 0 1
    outer loop
      vertex 25.1441 1.46318 16.5
      vertex 24.2852 9 16.5
      vertex 25 0 16.5
    endloop
  endfacet
  facet normal 0 0 1
    outer loop
      vertex 24.2852 -9 16.5
      vertex 25 0 16.5
      vertex 24.2852 9 16.5
    endloop
  endfacet
  facet normal 0 0 1
    outer loop
      vertex 25.1441 -1.46318 16.5
      vertex 24.2852 -9 16.5
      vertex 24.9193 -7.46927 16.5
    endloop
  endfacet
  facet normal 0 0 1
    outer loop
      vertex 28.6148 -9 16.5
      vertex 30 -7.04137 16.5
      vertex 29.6299 -6.9291 16.5
    endloop
  endfacet
  facet normal 0 0 1
    outer loop
      vertex 30 -7.04137 16.5
      vertex 28.6148 -9 16.5
      vertex 30 -13 16.5
    endloop
  endfacet
  facet normal -0 0 1
    outer loop
      vertex 27.9807 -10.5307 16.5
      vertex 30 -13 16.5
      vertex 28.6148 -9 16.5
    endloop
  endfacet
  facet normal -0 0 1
    outer loop
      vertex 26.45 -11.1648 16.5
      vertex 30 -13 16.5
      vertex 27.9807 -10.5307 16.5
    endloop
  endfacet
  facet normal 0 0 1
    outer loop
      vertex 24.9193 -10.5307 16.5
      vertex 30 -13 16.5
      vertex 26.45 -11.1648 16.5
    endloop
  endfacet
  facet normal 0 0 1
    outer loop
      vertex 24.2852 9 16.5
      vertex 23.45 -9 16.5
      vertex 24.2852 -9 16.5
    endloop
  endfacet
  facet normal -0 0 1
    outer loop
      vertex 23.45 -9 16.5
      vertex 24.9193 -10.5307 16.5
      vertex 24.2852 -9 16.5
    endloop
  endfacet
  facet normal -0 0 1
    outer loop
      vertex -18.85 -9 16.5
      vertex 24.9193 -10.5307 16.5
      vertex 23.45 -9 16.5
    endloop
  endfacet
  facet normal 0 0 1
    outer loop
      vertex -18.85 -9 16.5
      vertex 30 -13 16.5
      vertex 24.9193 -10.5307 16.5
    endloop
  endfacet
  facet normal 0 0 1
    outer loop
      vertex -25.1441 1.46318 16.5
      vertex -18.85 13 16.5
      vertex -24.9193 7.46927 16.5
    endloop
  endfacet
  facet normal 0 0 1
    outer loop
      vertex -24.9193 -10.5307 16.5
      vertex -18.85 -9 16.5
      vertex -24.2852 -9 16.5
    endloop
  endfacet
  facet normal 0 0 1
    outer loop
      vertex -26.45 -11.1648 16.5
      vertex -18.85 -9 16.5
      vertex -24.9193 -10.5307 16.5
    endloop
  endfacet
  facet normal 0 0 1
    outer loop
      vertex -18.85 -9 16.5
      vertex -26.45 -11.1648 16.5
      vertex -30 -13 16.5
    endloop
  endfacet
  facet normal -0 0 1
    outer loop
      vertex -30 -7.04137 16.5
      vertex -28.6148 -9 16.5
      vertex -29.6299 -6.9291 16.5
    endloop
  endfacet
  facet normal 0 0 1
    outer loop
      vertex -30 -13 16.5
      vertex -28.6148 -9 16.5
      vertex -30 -7.04137 16.5
    endloop
  endfacet
  facet normal 0 0 1
    outer loop
      vertex -18.85 -9 16.5
      vertex -30 -13 16.5
      vertex 30 -13 16.5
    endloop
  endfacet
  facet normal 0 0 1
    outer loop
      vertex -27.9807 -10.5307 16.5
      vertex -30 -13 16.5
      vertex -26.45 -11.1648 16.5
    endloop
  endfacet
  facet normal 0 0 1
    outer loop
      vertex -28.6148 -9 16.5
      vertex -30 -13 16.5
      vertex -27.9807 -10.5307 16.5
    endloop
  endfacet
  facet normal 0 0 1
    outer loop
      vertex -18.85 -9 16.5
      vertex -24.9193 -7.46927 16.5
      vertex -24.2852 -9 16.5
    endloop
  endfacet
  facet normal 0 0 1
    outer loop
      vertex -18.85 -9 16.5
      vertex -25.5709 -2.87012 16.5
      vertex -24.9193 -7.46927 16.5
    endloop
  endfacet
  facet normal -0 0 1
    outer loop
      vertex -26.264 -4.16678 16.5
      vertex -24.9193 -7.46927 16.5
      vertex -25.5709 -2.87012 16.5
    endloop
  endfacet
  facet normal 0 0 1
    outer loop
      vertex -26.264 -4.16678 16.5
      vertex -26.45 -6.83522 16.5
      vertex -24.9193 -7.46927 16.5
    endloop
  endfacet
  facet normal -0 0 1
    outer loop
      vertex -27.1967 -5.3033 16.5
      vertex -26.45 -6.83522 16.5
      vertex -26.264 -4.16678 16.5
    endloop
  endfacet
  facet normal -0 0 1
    outer loop
      vertex -28.3332 -6.23602 16.5
      vertex -26.45 -6.83522 16.5
      vertex -27.1967 -5.3033 16.5
    endloop
  endfacet
  facet normal 0 0 1
    outer loop
      vertex -26.45 -6.83522 16.5
      vertex -28.3332 -6.23602 16.5
      vertex -27.9807 -7.46927 16.5
    endloop
  endfacet
  facet normal -0 0 1
    outer loop
      vertex -29.6299 -6.9291 16.5
      vertex -27.9807 -7.46927 16.5
      vertex -28.3332 -6.23602 16.5
    endloop
  endfacet
  facet normal 0 0 1
    outer loop
      vertex -27.9807 -7.46927 16.5
      vertex -29.6299 -6.9291 16.5
      vertex -28.6148 -9 16.5
    endloop
  endfacet
  facet normal 0 -1 0
    outer loop
      vertex -30 -13 0
      vertex 30 -13 16.5
      vertex -30 -13 16.5
    endloop
  endfacet
  facet normal 0 -1 -0
    outer loop
      vertex 30 -13 16.5
      vertex -30 -13 0
      vertex 30 -13 0
    endloop
  endfacet
  facet normal 0.951687 0.307071 -0
    outer loop
      vertex 30 13 0
      vertex 23.45 33.3 2
      vertex 30 13 16.5
    endloop
  endfacet
  facet normal 0.951687 0.307071 0
    outer loop
      vertex 23.45 33.3 2
      vertex 30 13 0
      vertex 23.45 33.3 0
    endloop
  endfacet
  facet normal 1 -0 0
    outer loop
      vertex 30 -13 16.5
      vertex 30 -7.04137 0
      vertex 30 -7.04137 16.5
    endloop
  endfacet
  facet normal 1 0 0
    outer loop
      vertex 30 -7.04137 0
      vertex 30 -13 16.5
      vertex 30 -13 0
    endloop
  endfacet
  facet normal 1 -0 0
    outer loop
      vertex 30 7.04137 16.5
      vertex 30 13 0
      vertex 30 13 16.5
    endloop
  endfacet
  facet normal 1 0 0
    outer loop
      vertex 30 13 0
      vertex 30 7.04137 16.5
      vertex 30 7.04137 0
    endloop
  endfacet
  facet normal -0.876489 0.481421 0
    outer loop
      vertex -30 13 0
      vertex -18.85 33.3 2
      vertex -18.85 33.3 0
    endloop
  endfacet
  facet normal -0.876489 0.481421 0
    outer loop
      vertex -18.85 33.3 2
      vertex -30 13 0
      vertex -30 13 16.5
    endloop
  endfacet
  facet normal 0 0.581238 0.813733
    outer loop
      vertex 23.45 33.3 2
      vertex 23.45 13 16.5
      vertex 30 13 16.5
    endloop
  endfacet
  facet normal 0 0.581238 0.813733
    outer loop
      vertex -18.85 33.3 2
      vertex -30 13 16.5
      vertex -18.85 13 16.5
    endloop
  endfacet
  facet normal 0 1 -0
    outer loop
      vertex 23.45 33.3 0
      vertex -18.85 33.3 2
      vertex 23.45 33.3 2
    endloop
  endfacet
  facet normal 0 1 0
    outer loop
      vertex -18.85 33.3 2
      vertex 23.45 33.3 0
      vertex -18.85 33.3 0
    endloop
  endfacet
  facet normal 1 0 0
    outer loop
      vertex -18.85 -9 2
      vertex -18.85 13 16.5
      vertex -18.85 -9 16.5
    endloop
  endfacet
  facet normal 1 0 0
    outer loop
      vertex -18.85 13 16.5
      vertex -18.85 -9 2
      vertex -18.85 33.3 2
    endloop
  endfacet
  facet normal -1 0 0
    outer loop
      vertex 23.45 -9 2
      vertex 23.45 13 16.5
      vertex 23.45 33.3 2
    endloop
  endfacet
  facet normal -1 -0 0
    outer loop
      vertex 23.45 13 16.5
      vertex 23.45 -9 2
      vertex 23.45 -9 16.5
    endloop
  endfacet
  facet normal 0 1 -0
    outer loop
      vertex 23.45 -9 2
      vertex -18.85 -9 16.5
      vertex 23.45 -9 16.5
    endloop
  endfacet
  facet normal 0 1 0
    outer loop
      vertex -18.85 -9 16.5
      vertex 23.45 -9 2
      vertex -18.85 -9 2
    endloop
  endfacet
  facet normal -0.998176 -0.0603788 0
    outer loop
      vertex 15.3238 12.15 0
      vertex 15.2288 13.7198 2
      vertex 15.2288 13.7198 0
    endloop
  endfacet
  facet normal -0.998176 -0.0603788 0
    outer loop
      vertex 15.2288 13.7198 2
      vertex 15.3238 12.15 0
      vertex 15.3238 12.15 2
    endloop
  endfacet
  facet normal 0.060377 -0.998176 0
    outer loop
      vertex 0.730159 25.0788 0
      vertex 2.3 25.1738 2
      vertex 0.730159 25.0788 2
    endloop
  endfacet
  facet normal 0.060377 -0.998176 0
    outer loop
      vertex 2.3 25.1738 2
      vertex 0.730159 25.0788 0
      vertex 2.3 25.1738 0
    endloop
  endfacet
  facet normal -0.616719 -0.787184 0
    outer loop
      vertex 9.69834 22.8683 0
      vertex 10.9364 21.8984 2
      vertex 9.69834 22.8683 2
    endloop
  endfacet
  facet normal -0.616719 -0.787184 -0
    outer loop
      vertex 10.9364 21.8984 2
      vertex 9.69834 22.8683 0
      vertex 10.9364 21.8984 0
    endloop
  endfacet
  facet normal 0.787183 -0.616719 0
    outer loop
      vertex -8.41834 19.5483 2
      vertex -7.44842 20.7864 0
      vertex -7.44842 20.7864 2
    endloop
  endfacet
  facet normal 0.787183 -0.616719 0
    outer loop
      vertex -7.44842 20.7864 0
      vertex -8.41834 19.5483 2
      vertex -8.41834 19.5483 0
    endloop
  endfacet
  facet normal 0.517338 -0.855781 0
    outer loop
      vertex -5.09834 22.8683 0
      vertex -3.75244 23.682 2
      vertex -5.09834 22.8683 2
    endloop
  endfacet
  facet normal 0.517338 -0.855781 0
    outer loop
      vertex -3.75244 23.682 2
      vertex -5.09834 22.8683 0
      vertex -3.75244 23.682 0
    endloop
  endfacet
  facet normal -0.9119 -0.410413 0
    outer loop
      vertex 14.4774 16.7683 0
      vertex 13.832 18.2024 2
      vertex 13.832 18.2024 0
    endloop
  endfacet
  facet normal -0.9119 -0.410413 0
    outer loop
      vertex 13.832 18.2024 2
      vertex 14.4774 16.7683 0
      vertex 14.4774 16.7683 2
    endloop
  endfacet
  facet normal -0.297504 -0.954721 0
    outer loop
      vertex 5.41679 24.7953 0
      vertex 6.91829 24.3274 2
      vertex 5.41679 24.7953 2
    endloop
  endfacet
  facet normal -0.297504 -0.954721 -0
    outer loop
      vertex 6.91829 24.3274 2
      vertex 5.41679 24.7953 0
      vertex 6.91829 24.3274 0
    endloop
  endfacet
  facet normal -0.180255 -0.98362 0
    outer loop
      vertex 3.86984 25.0788 0
      vertex 5.41679 24.7953 2
      vertex 3.86984 25.0788 2
    endloop
  endfacet
  facet normal -0.180255 -0.98362 -0
    outer loop
      vertex 5.41679 24.7953 2
      vertex 3.86984 25.0788 0
      vertex 5.41679 24.7953 0
    endloop
  endfacet
  facet normal -0.410412 -0.9119 0
    outer loop
      vertex 6.91829 24.3274 0
      vertex 8.35244 23.682 2
      vertex 6.91829 24.3274 2
    endloop
  endfacet
  facet normal -0.410412 -0.9119 -0
    outer loop
      vertex 8.35244 23.682 2
      vertex 6.91829 24.3274 0
      vertex 8.35244 23.682 0
    endloop
  endfacet
  facet normal 0.954721 -0.297503 0
    outer loop
      vertex -10.3453 15.2668 2
      vertex -9.87743 16.7683 0
      vertex -9.87743 16.7683 2
    endloop
  endfacet
  facet normal 0.954721 -0.297503 0
    outer loop
      vertex -9.87743 16.7683 0
      vertex -10.3453 15.2668 2
      vertex -10.3453 15.2668 0
    endloop
  endfacet
  facet normal 0.98362 -0.180255 0
    outer loop
      vertex -10.6288 13.7198 2
      vertex -10.3453 15.2668 0
      vertex -10.3453 15.2668 2
    endloop
  endfacet
  facet normal 0.98362 -0.180255 0
    outer loop
      vertex -10.3453 15.2668 0
      vertex -10.6288 13.7198 2
      vertex -10.6288 13.7198 0
    endloop
  endfacet
  facet normal 0.616719 -0.787184 0
    outer loop
      vertex -6.33635 21.8984 0
      vertex -5.09834 22.8683 2
      vertex -6.33635 21.8984 2
    endloop
  endfacet
  facet normal 0.616719 -0.787184 0
    outer loop
      vertex -5.09834 22.8683 2
      vertex -6.33635 21.8984 0
      vertex -5.09834 22.8683 0
    endloop
  endfacet
  facet normal 0.297504 -0.954721 0
    outer loop
      vertex -2.31829 24.3274 0
      vertex -0.81679 24.7953 2
      vertex -2.31829 24.3274 2
    endloop
  endfacet
  facet normal 0.297504 -0.954721 0
    outer loop
      vertex -0.81679 24.7953 2
      vertex -2.31829 24.3274 0
      vertex -0.81679 24.7953 0
    endloop
  endfacet
  facet normal -0.410412 0.9119 0
    outer loop
      vertex 8.35244 0.618032 0
      vertex 6.91829 -0.0274277 2
      vertex 8.35244 0.618032 2
    endloop
  endfacet
  facet normal -0.410412 0.9119 0
    outer loop
      vertex 6.91829 -0.0274277 2
      vertex 8.35244 0.618032 0
      vertex 6.91829 -0.0274277 0
    endloop
  endfacet
  facet normal -0.180255 0.98362 0
    outer loop
      vertex 5.41679 -0.495314 0
      vertex 3.86984 -0.778803 2
      vertex 5.41679 -0.495314 2
    endloop
  endfacet
  facet normal -0.180255 0.98362 0
    outer loop
      vertex 3.86984 -0.778803 2
      vertex 5.41679 -0.495314 0
      vertex 3.86984 -0.778803 0
    endloop
  endfacet
  facet normal -0.517338 0.855781 0
    outer loop
      vertex 9.69834 1.43165 0
      vertex 8.35244 0.618032 2
      vertex 9.69834 1.43165 2
    endloop
  endfacet
  facet normal -0.517338 0.855781 0
    outer loop
      vertex 8.35244 0.618032 2
      vertex 9.69834 1.43165 0
      vertex 8.35244 0.618032 0
    endloop
  endfacet
  facet normal -0.954721 0.297503 0
    outer loop
      vertex 14.4774 7.53171 0
      vertex 14.9453 9.03321 2
      vertex 14.9453 9.03321 0
    endloop
  endfacet
  facet normal -0.954721 0.297503 0
    outer loop
      vertex 14.9453 9.03321 2
      vertex 14.4774 7.53171 0
      vertex 14.4774 7.53171 2
    endloop
  endfacet
  facet normal 0.297503 0.954721 -0
    outer loop
      vertex -0.81679 -0.495314 0
      vertex -2.31829 -0.0274277 2
      vertex -0.81679 -0.495314 2
    endloop
  endfacet
  facet normal 0.297503 0.954721 0
    outer loop
      vertex -2.31829 -0.0274277 2
      vertex -0.81679 -0.495314 0
      vertex -2.31829 -0.0274277 0
    endloop
  endfacet
  facet normal 0.517338 0.855781 -0
    outer loop
      vertex -3.75244 0.618032 0
      vertex -5.09834 1.43165 2
      vertex -3.75244 0.618032 2
    endloop
  endfacet
  facet normal 0.517338 0.855781 0
    outer loop
      vertex -5.09834 1.43165 2
      vertex -3.75244 0.618032 0
      vertex -5.09834 1.43165 0
    endloop
  endfacet
  facet normal 0.180255 0.98362 -0
    outer loop
      vertex 0.730159 -0.778803 0
      vertex -0.81679 -0.495314 2
      vertex 0.730159 -0.778803 2
    endloop
  endfacet
  facet normal 0.180255 0.98362 0
    outer loop
      vertex -0.81679 -0.495314 2
      vertex 0.730159 -0.778803 0
      vertex -0.81679 -0.495314 0
    endloop
  endfacet
  facet normal -0.954721 -0.297503 0
    outer loop
      vertex 14.9453 15.2668 0
      vertex 14.4774 16.7683 2
      vertex 14.4774 16.7683 0
    endloop
  endfacet
  facet normal -0.954721 -0.297503 0
    outer loop
      vertex 14.4774 16.7683 2
      vertex 14.9453 15.2668 0
      vertex 14.9453 15.2668 2
    endloop
  endfacet
  facet normal -0.98362 -0.180255 0
    outer loop
      vertex 15.2288 13.7198 0
      vertex 14.9453 15.2668 2
      vertex 14.9453 15.2668 0
    endloop
  endfacet
  facet normal -0.98362 -0.180255 0
    outer loop
      vertex 14.9453 15.2668 2
      vertex 15.2288 13.7198 0
      vertex 15.2288 13.7198 2
    endloop
  endfacet
  facet normal -0.787183 -0.616719 0
    outer loop
      vertex 13.0183 19.5483 0
      vertex 12.0484 20.7864 2
      vertex 12.0484 20.7864 0
    endloop
  endfacet
  facet normal -0.787183 -0.616719 0
    outer loop
      vertex 12.0484 20.7864 2
      vertex 13.0183 19.5483 0
      vertex 13.0183 19.5483 2
    endloop
  endfacet
  facet normal -0.707107 -0.707106 0
    outer loop
      vertex 12.0484 20.7864 0
      vertex 10.9364 21.8984 2
      vertex 10.9364 21.8984 0
    endloop
  endfacet
  facet normal -0.707107 -0.707106 0
    outer loop
      vertex 10.9364 21.8984 2
      vertex 12.0484 20.7864 0
      vertex 12.0484 20.7864 2
    endloop
  endfacet
  facet normal -0.855782 -0.517337 0
    outer loop
      vertex 13.832 18.2024 0
      vertex 13.0183 19.5483 2
      vertex 13.0183 19.5483 0
    endloop
  endfacet
  facet normal -0.855782 -0.517337 0
    outer loop
      vertex 13.0183 19.5483 2
      vertex 13.832 18.2024 0
      vertex 13.832 18.2024 2
    endloop
  endfacet
  facet normal -0.0603769 -0.998176 0
    outer loop
      vertex 2.3 25.1738 0
      vertex 3.86984 25.0788 2
      vertex 2.3 25.1738 2
    endloop
  endfacet
  facet normal -0.0603769 -0.998176 -0
    outer loop
      vertex 3.86984 25.0788 2
      vertex 2.3 25.1738 0
      vertex 3.86984 25.0788 0
    endloop
  endfacet
  facet normal -0.517338 -0.855781 0
    outer loop
      vertex 8.35244 23.682 0
      vertex 9.69834 22.8683 2
      vertex 8.35244 23.682 2
    endloop
  endfacet
  facet normal -0.517338 -0.855781 -0
    outer loop
      vertex 9.69834 22.8683 2
      vertex 8.35244 23.682 0
      vertex 9.69834 22.8683 0
    endloop
  endfacet
  facet normal 0.9119 -0.410413 0
    outer loop
      vertex -9.87743 16.7683 2
      vertex -9.23197 18.2024 0
      vertex -9.23197 18.2024 2
    endloop
  endfacet
  facet normal 0.9119 -0.410413 0
    outer loop
      vertex -9.23197 18.2024 0
      vertex -9.87743 16.7683 2
      vertex -9.87743 16.7683 0
    endloop
  endfacet
  facet normal 0.855782 -0.517337 0
    outer loop
      vertex -9.23197 18.2024 2
      vertex -8.41834 19.5483 0
      vertex -8.41834 19.5483 2
    endloop
  endfacet
  facet normal 0.855782 -0.517337 0
    outer loop
      vertex -8.41834 19.5483 0
      vertex -9.23197 18.2024 2
      vertex -9.23197 18.2024 0
    endloop
  endfacet
  facet normal 0.998176 -0.0603782 0
    outer loop
      vertex -10.7238 12.15 2
      vertex -10.6288 13.7198 0
      vertex -10.6288 13.7198 2
    endloop
  endfacet
  facet normal 0.998176 -0.0603782 0
    outer loop
      vertex -10.6288 13.7198 0
      vertex -10.7238 12.15 2
      vertex -10.7238 12.15 0
    endloop
  endfacet
  facet normal 0.707107 -0.707106 0
    outer loop
      vertex -7.44842 20.7864 2
      vertex -6.33635 21.8984 0
      vertex -6.33635 21.8984 2
    endloop
  endfacet
  facet normal 0.707107 -0.707106 0
    outer loop
      vertex -6.33635 21.8984 0
      vertex -7.44842 20.7864 2
      vertex -7.44842 20.7864 0
    endloop
  endfacet
  facet normal 0.410412 -0.9119 0
    outer loop
      vertex -3.75244 23.682 0
      vertex -2.31829 24.3274 2
      vertex -3.75244 23.682 2
    endloop
  endfacet
  facet normal 0.410412 -0.9119 0
    outer loop
      vertex -2.31829 24.3274 2
      vertex -3.75244 23.682 0
      vertex -2.31829 24.3274 0
    endloop
  endfacet
  facet normal 0.180255 -0.98362 0
    outer loop
      vertex -0.81679 24.7953 0
      vertex 0.730159 25.0788 2
      vertex -0.81679 24.7953 2
    endloop
  endfacet
  facet normal 0.180255 -0.98362 0
    outer loop
      vertex 0.730159 25.0788 2
      vertex -0.81679 24.7953 0
      vertex 0.730159 25.0788 0
    endloop
  endfacet
  facet normal -0.297503 0.954721 0
    outer loop
      vertex 6.91829 -0.0274277 0
      vertex 5.41679 -0.495314 2
      vertex 6.91829 -0.0274277 2
    endloop
  endfacet
  facet normal -0.297503 0.954721 0
    outer loop
      vertex 5.41679 -0.495314 2
      vertex 6.91829 -0.0274277 0
      vertex 5.41679 -0.495314 0
    endloop
  endfacet
  facet normal -0.616719 0.787183 0
    outer loop
      vertex 10.9364 2.40157 0
      vertex 9.69834 1.43165 2
      vertex 10.9364 2.40157 2
    endloop
  endfacet
  facet normal -0.616719 0.787183 0
    outer loop
      vertex 9.69834 1.43165 2
      vertex 10.9364 2.40157 0
      vertex 9.69834 1.43165 0
    endloop
  endfacet
  facet normal -0.787184 0.616719 0
    outer loop
      vertex 12.0484 3.51365 0
      vertex 13.0183 4.75166 2
      vertex 13.0183 4.75166 0
    endloop
  endfacet
  facet normal -0.787184 0.616719 0
    outer loop
      vertex 13.0183 4.75166 2
      vertex 12.0484 3.51365 0
      vertex 12.0484 3.51365 2
    endloop
  endfacet
  facet normal -0.9119 0.410413 0
    outer loop
      vertex 13.832 6.09756 0
      vertex 14.4774 7.53171 2
      vertex 14.4774 7.53171 0
    endloop
  endfacet
  facet normal -0.9119 0.410413 0
    outer loop
      vertex 14.4774 7.53171 2
      vertex 13.832 6.09756 0
      vertex 13.832 6.09756 2
    endloop
  endfacet
  facet normal 0.410412 0.9119 -0
    outer loop
      vertex -2.31829 -0.0274277 0
      vertex -3.75244 0.618032 2
      vertex -2.31829 -0.0274277 2
    endloop
  endfacet
  facet normal 0.410412 0.9119 0
    outer loop
      vertex -3.75244 0.618032 2
      vertex -2.31829 -0.0274277 0
      vertex -3.75244 0.618032 0
    endloop
  endfacet
  facet normal 0.0603782 0.998176 -0
    outer loop
      vertex 2.3 -0.87376 0
      vertex 0.730159 -0.778803 2
      vertex 2.3 -0.87376 2
    endloop
  endfacet
  facet normal 0.0603782 0.998176 0
    outer loop
      vertex 0.730159 -0.778803 2
      vertex 2.3 -0.87376 0
      vertex 0.730159 -0.778803 0
    endloop
  endfacet
  facet normal 0.855781 0.517338 0
    outer loop
      vertex -8.41834 4.75166 2
      vertex -9.23197 6.09756 0
      vertex -9.23197 6.09756 2
    endloop
  endfacet
  facet normal 0.855781 0.517338 0
    outer loop
      vertex -9.23197 6.09756 0
      vertex -8.41834 4.75166 2
      vertex -8.41834 4.75166 0
    endloop
  endfacet
  facet normal 0.707107 0.707107 0
    outer loop
      vertex -6.33635 2.40157 2
      vertex -7.44842 3.51365 0
      vertex -7.44842 3.51365 2
    endloop
  endfacet
  facet normal 0.707107 0.707107 0
    outer loop
      vertex -7.44842 3.51365 0
      vertex -6.33635 2.40157 2
      vertex -6.33635 2.40157 0
    endloop
  endfacet
  facet normal 0.9119 0.410413 0
    outer loop
      vertex -9.23197 6.09756 2
      vertex -9.87743 7.53171 0
      vertex -9.87743 7.53171 2
    endloop
  endfacet
  facet normal 0.9119 0.410413 0
    outer loop
      vertex -9.87743 7.53171 0
      vertex -9.23197 6.09756 2
      vertex -9.23197 6.09756 0
    endloop
  endfacet
  facet normal 0.98362 0.180255 0
    outer loop
      vertex -10.3453 9.03321 2
      vertex -10.6288 10.5802 0
      vertex -10.6288 10.5802 2
    endloop
  endfacet
  facet normal 0.98362 0.180255 0
    outer loop
      vertex -10.6288 10.5802 0
      vertex -10.3453 9.03321 2
      vertex -10.3453 9.03321 0
    endloop
  endfacet
  facet normal 0.998176 0.0603781 0
    outer loop
      vertex -10.6288 10.5802 2
      vertex -10.7238 12.15 0
      vertex -10.7238 12.15 2
    endloop
  endfacet
  facet normal 0.998176 0.0603781 0
    outer loop
      vertex -10.7238 12.15 0
      vertex -10.6288 10.5802 2
      vertex -10.6288 10.5802 0
    endloop
  endfacet
  facet normal -0.707107 0.707107 0
    outer loop
      vertex 10.9364 2.40157 0
      vertex 12.0484 3.51365 2
      vertex 12.0484 3.51365 0
    endloop
  endfacet
  facet normal -0.707107 0.707107 0
    outer loop
      vertex 12.0484 3.51365 2
      vertex 10.9364 2.40157 0
      vertex 10.9364 2.40157 2
    endloop
  endfacet
  facet normal -0.855781 0.517338 0
    outer loop
      vertex 13.0183 4.75166 0
      vertex 13.832 6.09756 2
      vertex 13.832 6.09756 0
    endloop
  endfacet
  facet normal -0.855781 0.517338 0
    outer loop
      vertex 13.832 6.09756 2
      vertex 13.0183 4.75166 0
      vertex 13.0183 4.75166 2
    endloop
  endfacet
  facet normal -0.98362 0.180255 0
    outer loop
      vertex 14.9453 9.03321 0
      vertex 15.2288 10.5802 2
      vertex 15.2288 10.5802 0
    endloop
  endfacet
  facet normal -0.98362 0.180255 0
    outer loop
      vertex 15.2288 10.5802 2
      vertex 14.9453 9.03321 0
      vertex 14.9453 9.03321 2
    endloop
  endfacet
  facet normal -0.998176 0.0603787 0
    outer loop
      vertex 15.2288 10.5802 0
      vertex 15.3238 12.15 2
      vertex 15.3238 12.15 0
    endloop
  endfacet
  facet normal -0.998176 0.0603787 0
    outer loop
      vertex 15.3238 12.15 2
      vertex 15.2288 10.5802 0
      vertex 15.2288 10.5802 2
    endloop
  endfacet
  facet normal -0.0603781 0.998176 0
    outer loop
      vertex 3.86984 -0.778803 0
      vertex 2.3 -0.87376 2
      vertex 3.86984 -0.778803 2
    endloop
  endfacet
  facet normal -0.0603781 0.998176 0
    outer loop
      vertex 2.3 -0.87376 2
      vertex 3.86984 -0.778803 0
      vertex 2.3 -0.87376 0
    endloop
  endfacet
  facet normal 0.787184 0.616719 0
    outer loop
      vertex -7.44842 3.51365 2
      vertex -8.41834 4.75166 0
      vertex -8.41834 4.75166 2
    endloop
  endfacet
  facet normal 0.787184 0.616719 0
    outer loop
      vertex -8.41834 4.75166 0
      vertex -7.44842 3.51365 2
      vertex -7.44842 3.51365 0
    endloop
  endfacet
  facet normal 0.616719 0.787183 -0
    outer loop
      vertex -5.09834 1.43165 0
      vertex -6.33635 2.40157 2
      vertex -5.09834 1.43165 2
    endloop
  endfacet
  facet normal 0.616719 0.787183 0
    outer loop
      vertex -6.33635 2.40157 2
      vertex -5.09834 1.43165 0
      vertex -6.33635 2.40157 0
    endloop
  endfacet
  facet normal 0.954721 0.297503 0
    outer loop
      vertex -9.87743 7.53171 2
      vertex -10.3453 9.03321 0
      vertex -10.3453 9.03321 2
    endloop
  endfacet
  facet normal 0.954721 0.297503 0
    outer loop
      vertex -10.3453 9.03321 0
      vertex -9.87743 7.53171 2
      vertex -9.87743 7.53171 0
    endloop
  endfacet
endsolid OpenSCAD_Model
