solid OpenSCAD_Model
  facet normal -1 0 0
    outer loop
      vertex -20 -18 0
      vertex -20 38 6
      vertex -20 38 0
    endloop
  endfacet
  facet normal -1 -0 0
    outer loop
      vertex -20 38 6
      vertex -20 -18 0
      vertex -20 -18 6
    endloop
  endfacet
  facet normal 0 0 1
    outer loop
      vertex -8.46927 -8.46927 6
      vertex 8.46927 -8.46927 6
      vertex -8.46927 8.46927 6
    endloop
  endfacet
  facet normal 0 0 1
    outer loop
      vertex 8.46927 -8.46927 6
      vertex -8.46927 -8.46927 6
      vertex -7.83522 -10 6
    endloop
  endfacet
  facet normal -0 0 1
    outer loop
      vertex -10 7.83522 6
      vertex -8.46927 -8.46927 6
      vertex -8.46927 8.46927 6
    endloop
  endfacet
  facet normal 0 0 1
    outer loop
      vertex -10 7.83522 6
      vertex -10 -7.83522 6
      vertex -8.46927 -8.46927 6
    endloop
  endfacet
  facet normal 0 0 1
    outer loop
      vertex -11.5307 8.46927 6
      vertex -10 -7.83522 6
      vertex -10 7.83522 6
    endloop
  endfacet
  facet normal 0 0 1
    outer loop
      vertex -11.5307 8.46927 6
      vertex -11.5307 -8.46927 6
      vertex -10 -7.83522 6
    endloop
  endfacet
  facet normal 0 0 1
    outer loop
      vertex -20 -18 6
      vertex -11.5307 8.46927 6
      vertex -12.1648 10 6
    endloop
  endfacet
  facet normal 0 0 1
    outer loop
      vertex -11.5307 8.46927 6
      vertex -20 -18 6
      vertex -11.5307 -8.46927 6
    endloop
  endfacet
  facet normal 0 0 1
    outer loop
      vertex -8.46927 11.5307 6
      vertex 1.43868 39.3893 6
      vertex -8.46927 28.4693 6
    endloop
  endfacet
  facet normal 0 0 1
    outer loop
      vertex 1.43868 39.3893 6
      vertex -8.46927 11.5307 6
      vertex -7.83522 10 6
    endloop
  endfacet
  facet normal -0 0 1
    outer loop
      vertex -10 27.8352 6
      vertex -8.46927 11.5307 6
      vertex -8.46927 28.4693 6
    endloop
  endfacet
  facet normal 0 0 1
    outer loop
      vertex -10 27.8352 6
      vertex -10 12.1648 6
      vertex -8.46927 11.5307 6
    endloop
  endfacet
  facet normal 0 0 1
    outer loop
      vertex -11.5307 28.4693 6
      vertex -10 12.1648 6
      vertex -10 27.8352 6
    endloop
  endfacet
  facet normal 0 0 1
    outer loop
      vertex -11.5307 28.4693 6
      vertex -11.5307 11.5307 6
      vertex -10 12.1648 6
    endloop
  endfacet
  facet normal 0 0 1
    outer loop
      vertex -20 38 6
      vertex -11.5307 28.4693 6
      vertex -12.1648 30 6
    endloop
  endfacet
  facet normal 0 0 1
    outer loop
      vertex -11.5307 28.4693 6
      vertex -20 38 6
      vertex -11.5307 11.5307 6
    endloop
  endfacet
  facet normal 0 0 1
    outer loop
      vertex 1.43868 39.3893 6
      vertex -8.46927 31.5307 6
      vertex -7.83522 30 6
    endloop
  endfacet
  facet normal 0 0 1
    outer loop
      vertex 0.0697985 39.9988 6
      vertex -10 32.1648 6
      vertex -8.46927 31.5307 6
    endloop
  endfacet
  facet normal -0 0 1
    outer loop
      vertex -18.0698 39.9988 6
      vertex -10 32.1648 6
      vertex 0.0697985 39.9988 6
    endloop
  endfacet
  facet normal 0 0 1
    outer loop
      vertex -11.5307 11.5307 6
      vertex -20 38 6
      vertex -12.1648 10 6
    endloop
  endfacet
  facet normal 0 0 1
    outer loop
      vertex -11.5307 31.5307 6
      vertex -20 38 6
      vertex -12.1648 30 6
    endloop
  endfacet
  facet normal -0 0 1
    outer loop
      vertex -20 38 6
      vertex -11.5307 31.5307 6
      vertex -18.0698 39.9988 6
    endloop
  endfacet
  facet normal 0 0 1
    outer loop
      vertex -10 32.1648 6
      vertex -18.0698 39.9988 6
      vertex -11.5307 31.5307 6
    endloop
  endfacet
  facet normal 0 0 1
    outer loop
      vertex 39.4387 1.38932 6
      vertex 40 0 6
      vertex 39.9951 0.139512 6
    endloop
  endfacet
  facet normal 0 0 1
    outer loop
      vertex 40 0 6
      vertex 32.1648 -10 6
      vertex 40 -18 6
    endloop
  endfacet
  facet normal 0 0 1
    outer loop
      vertex 39.4387 1.38932 6
      vertex 39.9951 0.139512 6
      vertex 39.9805 0.278346 6
    endloop
  endfacet
  facet normal -0 0 1
    outer loop
      vertex 31.5307 -11.5307 6
      vertex 40 -18 6
      vertex 32.1648 -10 6
    endloop
  endfacet
  facet normal 0 0 1
    outer loop
      vertex 39.4387 1.38932 6
      vertex 39.9805 0.278346 6
      vertex 39.9563 0.415823 6
    endloop
  endfacet
  facet normal 0 -0 1
    outer loop
      vertex 38.0698 -19.9988 6
      vertex 40 -18 6
      vertex 31.5307 -11.5307 6
    endloop
  endfacet
  facet normal 0 0 1
    outer loop
      vertex 39.4387 1.38932 6
      vertex 39.9563 0.415823 6
      vertex 39.9225 0.551274 6
    endloop
  endfacet
  facet normal 0 0 1
    outer loop
      vertex 40 -18 6
      vertex 38.0698 -19.9988 6
      vertex 39.9951 -18.1395 6
    endloop
  endfacet
  facet normal 0 0 1
    outer loop
      vertex 39.4387 1.38932 6
      vertex 39.9225 0.551274 6
      vertex 39.8794 0.68404 6
    endloop
  endfacet
  facet normal 0 0 1
    outer loop
      vertex 39.9951 -18.1395 6
      vertex 38.0698 -19.9988 6
      vertex 39.9805 -18.2783 6
    endloop
  endfacet
  facet normal 0 0 1
    outer loop
      vertex 39.4387 1.38932 6
      vertex 39.8794 0.68404 6
      vertex 39.8271 0.813473 6
    endloop
  endfacet
  facet normal 0 0 1
    outer loop
      vertex 39.9805 -18.2783 6
      vertex 38.0698 -19.9988 6
      vertex 39.9563 -18.4158 6
    endloop
  endfacet
  facet normal 0 0 1
    outer loop
      vertex 39.4387 1.38932 6
      vertex 39.8271 0.813473 6
      vertex 39.7659 0.938943 6
    endloop
  endfacet
  facet normal 0 0 1
    outer loop
      vertex 39.9563 -18.4158 6
      vertex 38.0698 -19.9988 6
      vertex 39.9225 -18.5513 6
    endloop
  endfacet
  facet normal 0 0 1
    outer loop
      vertex 39.4387 1.38932 6
      vertex 39.7659 0.938943 6
      vertex 39.6961 1.05984 6
    endloop
  endfacet
  facet normal 0 0 1
    outer loop
      vertex 39.9225 -18.5513 6
      vertex 38.0698 -19.9988 6
      vertex 39.8794 -18.684 6
    endloop
  endfacet
  facet normal 0 0 1
    outer loop
      vertex 39.4387 1.38932 6
      vertex 39.6961 1.05984 6
      vertex 39.618 1.17557 6
    endloop
  endfacet
  facet normal 0 0 1
    outer loop
      vertex 39.8794 -18.684 6
      vertex 38.0698 -19.9988 6
      vertex 39.8271 -18.8135 6
    endloop
  endfacet
  facet normal 0 0 1
    outer loop
      vertex 39.4387 1.38932 6
      vertex 39.618 1.17557 6
      vertex 39.5321 1.28557 6
    endloop
  endfacet
  facet normal 0 0 1
    outer loop
      vertex 39.8271 -18.8135 6
      vertex 38.0698 -19.9988 6
      vertex 39.7659 -18.9389 6
    endloop
  endfacet
  facet normal 0 0 1
    outer loop
      vertex 40 0 6
      vertex 39.4387 1.38932 6
      vertex 31.5307 -8.46927 6
    endloop
  endfacet
  facet normal 0 0 1
    outer loop
      vertex 39.7659 -18.9389 6
      vertex 38.0698 -19.9988 6
      vertex 39.6961 -19.0598 6
    endloop
  endfacet
  facet normal 0 0 1
    outer loop
      vertex 39.6961 -19.0598 6
      vertex 38.0698 -19.9988 6
      vertex 39.618 -19.1756 6
    endloop
  endfacet
  facet normal 0 0 1
    outer loop
      vertex 39.618 -19.1756 6
      vertex 38.0698 -19.9988 6
      vertex 39.5321 -19.2856 6
    endloop
  endfacet
  facet normal 0 0 1
    outer loop
      vertex 39.5321 -19.2856 6
      vertex 38.0698 -19.9988 6
      vertex 39.4387 -19.3893 6
    endloop
  endfacet
  facet normal 0 0 1
    outer loop
      vertex 39.4387 -19.3893 6
      vertex 38.0698 -19.9988 6
      vertex 39.3383 -19.4863 6
    endloop
  endfacet
  facet normal 0 0 1
    outer loop
      vertex 39.3383 -19.4863 6
      vertex 38.0698 -19.9988 6
      vertex 39.2313 -19.576 6
    endloop
  endfacet
  facet normal 0 0 1
    outer loop
      vertex 39.2313 -19.576 6
      vertex 38.0698 -19.9988 6
      vertex 39.1184 -19.6581 6
    endloop
  endfacet
  facet normal 0 0 1
    outer loop
      vertex 39.1184 -19.6581 6
      vertex 38.0698 -19.9988 6
      vertex 39 -19.732 6
    endloop
  endfacet
  facet normal 0 0 1
    outer loop
      vertex 39 -19.732 6
      vertex 38.0698 -19.9988 6
      vertex 38.8767 -19.7976 6
    endloop
  endfacet
  facet normal 0 0 1
    outer loop
      vertex 38.8767 -19.7976 6
      vertex 38.0698 -19.9988 6
      vertex 38.7492 -19.8544 6
    endloop
  endfacet
  facet normal 0 0 1
    outer loop
      vertex 38.7492 -19.8544 6
      vertex 38.0698 -19.9988 6
      vertex 38.618 -19.9021 6
    endloop
  endfacet
  facet normal 0 0 1
    outer loop
      vertex 38.618 -19.9021 6
      vertex 38.0698 -19.9988 6
      vertex 38.4838 -19.9406 6
    endloop
  endfacet
  facet normal 0 0 1
    outer loop
      vertex 38.4838 -19.9406 6
      vertex 38.0698 -19.9988 6
      vertex 38.3473 -19.9696 6
    endloop
  endfacet
  facet normal 0 0 1
    outer loop
      vertex 40 0 6
      vertex 31.5307 -8.46927 6
      vertex 32.1648 -10 6
    endloop
  endfacet
  facet normal 0 0 1
    outer loop
      vertex 39.4387 1.38932 6
      vertex 30 -7.83522 6
      vertex 31.5307 -8.46927 6
    endloop
  endfacet
  facet normal 0 0 1
    outer loop
      vertex 39.4387 1.38932 6
      vertex 28.4693 -8.46927 6
      vertex 30 -7.83522 6
    endloop
  endfacet
  facet normal 0 0 1
    outer loop
      vertex 28.4693 -8.46927 6
      vertex 12.1648 -10 6
      vertex 27.8352 -10 6
    endloop
  endfacet
  facet normal 0 0 1
    outer loop
      vertex 11.5307 -8.46927 6
      vertex 28.4693 -8.46927 6
      vertex 39.4387 1.38932 6
    endloop
  endfacet
  facet normal 0 0 1
    outer loop
      vertex 28.4693 -8.46927 6
      vertex 11.5307 -8.46927 6
      vertex 12.1648 -10 6
    endloop
  endfacet
  facet normal 0 0 1
    outer loop
      vertex 39.4387 1.38932 6
      vertex 10 -7.83522 6
      vertex 11.5307 -8.46927 6
    endloop
  endfacet
  facet normal 0 0 1
    outer loop
      vertex 10 -7.83522 6
      vertex -7.83522 10 6
      vertex 8.46927 -8.46927 6
    endloop
  endfacet
  facet normal -0 0 1
    outer loop
      vertex -7.83522 10 6
      vertex 10 -7.83522 6
      vertex 1.43868 39.3893 6
    endloop
  endfacet
  facet normal 0 0 1
    outer loop
      vertex 1.43868 39.3893 6
      vertex 10 -7.83522 6
      vertex 39.4387 1.38932 6
    endloop
  endfacet
  facet normal 0 0 1
    outer loop
      vertex 38.3473 -19.9696 6
      vertex 38.0698 -19.9988 6
      vertex 38.2091 -19.989 6
    endloop
  endfacet
  facet normal -0 0 1
    outer loop
      vertex 30 -12.1648 6
      vertex 38.0698 -19.9988 6
      vertex 31.5307 -11.5307 6
    endloop
  endfacet
  facet normal 0 0 1
    outer loop
      vertex 28.4693 -11.5307 6
      vertex 38.0698 -19.9988 6
      vertex 30 -12.1648 6
    endloop
  endfacet
  facet normal -0 0 1
    outer loop
      vertex 12.1648 -10 6
      vertex 28.4693 -11.5307 6
      vertex 27.8352 -10 6
    endloop
  endfacet
  facet normal 0 0 1
    outer loop
      vertex 11.5307 -11.5307 6
      vertex 28.4693 -11.5307 6
      vertex 12.1648 -10 6
    endloop
  endfacet
  facet normal 0 0 1
    outer loop
      vertex 28.4693 -11.5307 6
      vertex 11.5307 -11.5307 6
      vertex 38.0698 -19.9988 6
    endloop
  endfacet
  facet normal -0 0 1
    outer loop
      vertex 10 -12.1648 6
      vertex 38.0698 -19.9988 6
      vertex 11.5307 -11.5307 6
    endloop
  endfacet
  facet normal 0 0 1
    outer loop
      vertex 0.0697985 39.9988 6
      vertex 1.43868 39.3893 6
      vertex 1.33826 39.4863 6
    endloop
  endfacet
  facet normal 0 0 1
    outer loop
      vertex 0.0697985 39.9988 6
      vertex 1.33826 39.4863 6
      vertex 1.23132 39.576 6
    endloop
  endfacet
  facet normal 0 0 1
    outer loop
      vertex 0.0697985 39.9988 6
      vertex 1.23132 39.576 6
      vertex 1.11839 39.6581 6
    endloop
  endfacet
  facet normal 0 0 1
    outer loop
      vertex 0.0697985 39.9988 6
      vertex 1.11839 39.6581 6
      vertex 1 39.732 6
    endloop
  endfacet
  facet normal 0 0 1
    outer loop
      vertex 0.0697985 39.9988 6
      vertex 1 39.732 6
      vertex 0.876741 39.7976 6
    endloop
  endfacet
  facet normal 0 0 1
    outer loop
      vertex 0.0697985 39.9988 6
      vertex 0.876741 39.7976 6
      vertex 0.749212 39.8544 6
    endloop
  endfacet
  facet normal 0 0 1
    outer loop
      vertex 0.0697985 39.9988 6
      vertex 0.749212 39.8544 6
      vertex 0.618033 39.9021 6
    endloop
  endfacet
  facet normal 0 0 1
    outer loop
      vertex 0.0697985 39.9988 6
      vertex 0.618033 39.9021 6
      vertex 0.483843 39.9406 6
    endloop
  endfacet
  facet normal 0 0 1
    outer loop
      vertex 0.0697985 39.9988 6
      vertex 0.483843 39.9406 6
      vertex 0.347296 39.9696 6
    endloop
  endfacet
  facet normal 0 0 1
    outer loop
      vertex 0.0697985 39.9988 6
      vertex 0.347296 39.9696 6
      vertex 0.209057 39.989 6
    endloop
  endfacet
  facet normal 0 0 1
    outer loop
      vertex -8.46927 31.5307 6
      vertex 1.43868 39.3893 6
      vertex 0.0697985 39.9988 6
    endloop
  endfacet
  facet normal 0 0 1
    outer loop
      vertex -8.46927 28.4693 6
      vertex 1.43868 39.3893 6
      vertex -7.83522 30 6
    endloop
  endfacet
  facet normal -0 0 1
    outer loop
      vertex -8.46927 8.46927 6
      vertex 8.46927 -8.46927 6
      vertex -7.83522 10 6
    endloop
  endfacet
  facet normal 0 0 1
    outer loop
      vertex 8.46927 -8.46927 6
      vertex -7.83522 -10 6
      vertex 7.83522 -10 6
    endloop
  endfacet
  facet normal 0 0 1
    outer loop
      vertex 7.83522 -10 6
      vertex -7.83522 -10 6
      vertex 8.46927 -11.5307 6
    endloop
  endfacet
  facet normal 0 0 1
    outer loop
      vertex -8.46927 -11.5307 6
      vertex 8.46927 -11.5307 6
      vertex -7.83522 -10 6
    endloop
  endfacet
  facet normal 0 0 1
    outer loop
      vertex -18.0698 -19.9988 6
      vertex 8.46927 -11.5307 6
      vertex -8.46927 -11.5307 6
    endloop
  endfacet
  facet normal 0 0 1
    outer loop
      vertex 8.46927 -11.5307 6
      vertex -18.0698 -19.9988 6
      vertex 10 -12.1648 6
    endloop
  endfacet
  facet normal 0 0 1
    outer loop
      vertex -18.0698 -19.9988 6
      vertex -8.46927 -11.5307 6
      vertex -10 -12.1648 6
    endloop
  endfacet
  facet normal 0 0 1
    outer loop
      vertex 10 -12.1648 6
      vertex -18.0698 -19.9988 6
      vertex 38.0698 -19.9988 6
    endloop
  endfacet
  facet normal 0 0 1
    outer loop
      vertex -11.5307 -11.5307 6
      vertex -18.0698 -19.9988 6
      vertex -10 -12.1648 6
    endloop
  endfacet
  facet normal 0 0 1
    outer loop
      vertex -20 -18 6
      vertex -11.5307 -11.5307 6
      vertex -12.1648 -10 6
    endloop
  endfacet
  facet normal 0 0 1
    outer loop
      vertex -20 -18 6
      vertex -12.1648 10 6
      vertex -20 38 6
    endloop
  endfacet
  facet normal 0 0 1
    outer loop
      vertex -20 38 6
      vertex -18.0698 39.9988 6
      vertex -18.2091 39.989 6
    endloop
  endfacet
  facet normal 0 0 1
    outer loop
      vertex -11.5307 -8.46927 6
      vertex -20 -18 6
      vertex -12.1648 -10 6
    endloop
  endfacet
  facet normal 0 0 1
    outer loop
      vertex -20 38 6
      vertex -18.2091 39.989 6
      vertex -18.3473 39.9696 6
    endloop
  endfacet
  facet normal 0 0 1
    outer loop
      vertex -11.5307 -11.5307 6
      vertex -20 -18 6
      vertex -18.0698 -19.9988 6
    endloop
  endfacet
  facet normal 0 0 1
    outer loop
      vertex -20 38 6
      vertex -18.3473 39.9696 6
      vertex -18.4838 39.9406 6
    endloop
  endfacet
  facet normal 0 0 1
    outer loop
      vertex -18.0698 -19.9988 6
      vertex -20 -18 6
      vertex -18.2091 -19.989 6
    endloop
  endfacet
  facet normal 0 0 1
    outer loop
      vertex -20 38 6
      vertex -18.4838 39.9406 6
      vertex -18.618 39.9021 6
    endloop
  endfacet
  facet normal 0 0 1
    outer loop
      vertex -18.2091 -19.989 6
      vertex -20 -18 6
      vertex -18.3473 -19.9696 6
    endloop
  endfacet
  facet normal 0 0 1
    outer loop
      vertex -20 38 6
      vertex -18.618 39.9021 6
      vertex -18.7492 39.8544 6
    endloop
  endfacet
  facet normal 0 0 1
    outer loop
      vertex -18.3473 -19.9696 6
      vertex -20 -18 6
      vertex -18.4838 -19.9406 6
    endloop
  endfacet
  facet normal 0 0 1
    outer loop
      vertex -20 38 6
      vertex -18.7492 39.8544 6
      vertex -18.8767 39.7976 6
    endloop
  endfacet
  facet normal 0 0 1
    outer loop
      vertex -18.4838 -19.9406 6
      vertex -20 -18 6
      vertex -18.618 -19.9021 6
    endloop
  endfacet
  facet normal 0 0 1
    outer loop
      vertex -20 38 6
      vertex -18.8767 39.7976 6
      vertex -19 39.732 6
    endloop
  endfacet
  facet normal 0 0 1
    outer loop
      vertex -18.618 -19.9021 6
      vertex -20 -18 6
      vertex -18.7492 -19.8544 6
    endloop
  endfacet
  facet normal 0 0 1
    outer loop
      vertex -20 38 6
      vertex -19 39.732 6
      vertex -19.1184 39.6581 6
    endloop
  endfacet
  facet normal 0 0 1
    outer loop
      vertex -18.7492 -19.8544 6
      vertex -20 -18 6
      vertex -18.8767 -19.7976 6
    endloop
  endfacet
  facet normal 0 0 1
    outer loop
      vertex -20 38 6
      vertex -19.1184 39.6581 6
      vertex -19.2313 39.576 6
    endloop
  endfacet
  facet normal 0 0 1
    outer loop
      vertex -18.8767 -19.7976 6
      vertex -20 -18 6
      vertex -19 -19.732 6
    endloop
  endfacet
  facet normal 0 0 1
    outer loop
      vertex -20 38 6
      vertex -19.2313 39.576 6
      vertex -19.3383 39.4863 6
    endloop
  endfacet
  facet normal 0 0 1
    outer loop
      vertex -19 -19.732 6
      vertex -20 -18 6
      vertex -19.1184 -19.6581 6
    endloop
  endfacet
  facet normal 0 0 1
    outer loop
      vertex -20 38 6
      vertex -19.3383 39.4863 6
      vertex -19.4387 39.3893 6
    endloop
  endfacet
  facet normal 0 0 1
    outer loop
      vertex -19.1184 -19.6581 6
      vertex -20 -18 6
      vertex -19.2313 -19.576 6
    endloop
  endfacet
  facet normal 0 0 1
    outer loop
      vertex -20 38 6
      vertex -19.4387 39.3893 6
      vertex -19.5321 39.2856 6
    endloop
  endfacet
  facet normal 0 0 1
    outer loop
      vertex -19.2313 -19.576 6
      vertex -20 -18 6
      vertex -19.3383 -19.4863 6
    endloop
  endfacet
  facet normal 0 0 1
    outer loop
      vertex -20 38 6
      vertex -19.5321 39.2856 6
      vertex -19.618 39.1756 6
    endloop
  endfacet
  facet normal 0 0 1
    outer loop
      vertex -19.3383 -19.4863 6
      vertex -20 -18 6
      vertex -19.4387 -19.3893 6
    endloop
  endfacet
  facet normal 0 0 1
    outer loop
      vertex -20 38 6
      vertex -19.618 39.1756 6
      vertex -19.6961 39.0598 6
    endloop
  endfacet
  facet normal 0 0 1
    outer loop
      vertex -19.4387 -19.3893 6
      vertex -20 -18 6
      vertex -19.5321 -19.2856 6
    endloop
  endfacet
  facet normal 0 0 1
    outer loop
      vertex -20 38 6
      vertex -19.6961 39.0598 6
      vertex -19.7659 38.9389 6
    endloop
  endfacet
  facet normal 0 0 1
    outer loop
      vertex -19.5321 -19.2856 6
      vertex -20 -18 6
      vertex -19.618 -19.1756 6
    endloop
  endfacet
  facet normal 0 0 1
    outer loop
      vertex -20 38 6
      vertex -19.7659 38.9389 6
      vertex -19.8271 38.8135 6
    endloop
  endfacet
  facet normal 0 0 1
    outer loop
      vertex -19.618 -19.1756 6
      vertex -20 -18 6
      vertex -19.6961 -19.0598 6
    endloop
  endfacet
  facet normal 0 0 1
    outer loop
      vertex -20 38 6
      vertex -19.8271 38.8135 6
      vertex -19.8794 38.684 6
    endloop
  endfacet
  facet normal 0 0 1
    outer loop
      vertex -19.6961 -19.0598 6
      vertex -20 -18 6
      vertex -19.7659 -18.9389 6
    endloop
  endfacet
  facet normal 0 0 1
    outer loop
      vertex -20 38 6
      vertex -19.8794 38.684 6
      vertex -19.9225 38.5513 6
    endloop
  endfacet
  facet normal 0 0 1
    outer loop
      vertex -19.7659 -18.9389 6
      vertex -20 -18 6
      vertex -19.8271 -18.8135 6
    endloop
  endfacet
  facet normal 0 0 1
    outer loop
      vertex -20 38 6
      vertex -19.9225 38.5513 6
      vertex -19.9563 38.4158 6
    endloop
  endfacet
  facet normal 0 0 1
    outer loop
      vertex -19.8271 -18.8135 6
      vertex -20 -18 6
      vertex -19.8794 -18.684 6
    endloop
  endfacet
  facet normal 0 0 1
    outer loop
      vertex -20 38 6
      vertex -19.9563 38.4158 6
      vertex -19.9805 38.2783 6
    endloop
  endfacet
  facet normal 0 0 1
    outer loop
      vertex -19.8794 -18.684 6
      vertex -20 -18 6
      vertex -19.9225 -18.5513 6
    endloop
  endfacet
  facet normal 0 0 1
    outer loop
      vertex -20 38 6
      vertex -19.9805 38.2783 6
      vertex -19.9951 38.1395 6
    endloop
  endfacet
  facet normal 0 0 1
    outer loop
      vertex -19.9225 -18.5513 6
      vertex -20 -18 6
      vertex -19.9563 -18.4158 6
    endloop
  endfacet
  facet normal 0 0 1
    outer loop
      vertex -19.9563 -18.4158 6
      vertex -20 -18 6
      vertex -19.9805 -18.2783 6
    endloop
  endfacet
  facet normal 0 0 1
    outer loop
      vertex -19.9805 -18.2783 6
      vertex -20 -18 6
      vertex -19.9951 -18.1395 6
    endloop
  endfacet
  facet normal 0 -1 0
    outer loop
      vertex -18.0698 -19.9988 0
      vertex 38.0698 -19.9988 6
      vertex -18.0698 -19.9988 6
    endloop
  endfacet
  facet normal 0 -1 -0
    outer loop
      vertex 38.0698 -19.9988 6
      vertex -18.0698 -19.9988 0
      vertex 38.0698 -19.9988 0
    endloop
  endfacet
  facet normal -0.342032 -0.939688 0
    outer loop
      vertex -18.7492 -19.8544 0
      vertex -18.618 -19.9021 6
      vertex -18.7492 -19.8544 6
    endloop
  endfacet
  facet normal -0.342032 -0.939688 -0
    outer loop
      vertex -18.618 -19.9021 6
      vertex -18.7492 -19.8544 0
      vertex -18.618 -19.9021 0
    endloop
  endfacet
  facet normal -0.829049 -0.559176 0
    outer loop
      vertex -19.618 -19.1756 0
      vertex -19.6961 -19.0598 6
      vertex -19.6961 -19.0598 0
    endloop
  endfacet
  facet normal -0.829049 -0.559176 0
    outer loop
      vertex -19.6961 -19.0598 6
      vertex -19.618 -19.1756 0
      vertex -19.618 -19.1756 6
    endloop
  endfacet
  facet normal 0.406737 -0.913545 0
    outer loop
      vertex 38.7492 -19.8544 0
      vertex 38.8767 -19.7976 6
      vertex 38.7492 -19.8544 6
    endloop
  endfacet
  facet normal 0.406737 -0.913545 0
    outer loop
      vertex 38.8767 -19.7976 6
      vertex 38.7492 -19.8544 0
      vertex 38.8767 -19.7976 0
    endloop
  endfacet
  facet normal 1 -0 0
    outer loop
      vertex 40 -18 6
      vertex 40 0 0
      vertex 40 0 6
    endloop
  endfacet
  facet normal 1 0 0
    outer loop
      vertex 40 0 0
      vertex 40 -18 6
      vertex 40 -18 0
    endloop
  endfacet
  facet normal -0.898794 0.438371 0
    outer loop
      vertex -19.8271 38.8135 0
      vertex -19.7659 38.9389 6
      vertex -19.7659 38.9389 0
    endloop
  endfacet
  facet normal -0.898794 0.438371 0
    outer loop
      vertex -19.7659 38.9389 6
      vertex -19.8271 38.8135 0
      vertex -19.8271 38.8135 6
    endloop
  endfacet
  facet normal -0.927185 0.374604 0
    outer loop
      vertex -19.8794 38.684 0
      vertex -19.8271 38.8135 6
      vertex -19.8271 38.8135 0
    endloop
  endfacet
  facet normal -0.927185 0.374604 0
    outer loop
      vertex -19.8271 38.8135 6
      vertex -19.8794 38.684 0
      vertex -19.8794 38.684 6
    endloop
  endfacet
  facet normal 0.999391 0.0348959 0
    outer loop
      vertex 40 0 6
      vertex 39.9951 0.139512 0
      vertex 39.9951 0.139512 6
    endloop
  endfacet
  facet normal 0.999391 0.0348959 0
    outer loop
      vertex 39.9951 0.139512 0
      vertex 40 0 6
      vertex 40 0 0
    endloop
  endfacet
  facet normal 0.0697497 -0.997565 0
    outer loop
      vertex 38.0698 -19.9988 0
      vertex 38.2091 -19.989 6
      vertex 38.0698 -19.9988 6
    endloop
  endfacet
  facet normal 0.0697497 -0.997565 0
    outer loop
      vertex 38.2091 -19.989 6
      vertex 38.0698 -19.9988 0
      vertex 38.2091 -19.989 0
    endloop
  endfacet
  facet normal -0.207926 -0.978145 0
    outer loop
      vertex -18.4838 -19.9406 0
      vertex -18.3473 -19.9696 6
      vertex -18.4838 -19.9406 6
    endloop
  endfacet
  facet normal -0.207926 -0.978145 -0
    outer loop
      vertex -18.3473 -19.9696 6
      vertex -18.4838 -19.9406 0
      vertex -18.3473 -19.9696 0
    endloop
  endfacet
  facet normal -0.139173 -0.990268 0
    outer loop
      vertex -18.3473 -19.9696 0
      vertex -18.2091 -19.989 6
      vertex -18.3473 -19.9696 6
    endloop
  endfacet
  facet normal -0.139173 -0.990268 -0
    outer loop
      vertex -18.2091 -19.989 6
      vertex -18.3473 -19.9696 0
      vertex -18.2091 -19.989 0
    endloop
  endfacet
  facet normal -0.529925 -0.848044 0
    outer loop
      vertex -19.1184 -19.6581 0
      vertex -19 -19.732 6
      vertex -19.1184 -19.6581 6
    endloop
  endfacet
  facet normal -0.529925 -0.848044 -0
    outer loop
      vertex -19 -19.732 6
      vertex -19.1184 -19.6581 0
      vertex -19 -19.732 0
    endloop
  endfacet
  facet normal -0.587776 -0.809024 0
    outer loop
      vertex -19.2313 -19.576 0
      vertex -19.1184 -19.6581 6
      vertex -19.2313 -19.576 6
    endloop
  endfacet
  facet normal -0.587776 -0.809024 -0
    outer loop
      vertex -19.1184 -19.6581 6
      vertex -19.2313 -19.576 0
      vertex -19.1184 -19.6581 0
    endloop
  endfacet
  facet normal -0.999391 -0.0348962 0
    outer loop
      vertex -19.9951 -18.1395 0
      vertex -20 -18 6
      vertex -20 -18 0
    endloop
  endfacet
  facet normal -0.999391 -0.0348962 0
    outer loop
      vertex -20 -18 6
      vertex -19.9951 -18.1395 0
      vertex -19.9951 -18.1395 6
    endloop
  endfacet
  facet normal -0.866018 -0.500013 0
    outer loop
      vertex -19.6961 -19.0598 0
      vertex -19.7659 -18.9389 6
      vertex -19.7659 -18.9389 0
    endloop
  endfacet
  facet normal -0.866018 -0.500013 0
    outer loop
      vertex -19.7659 -18.9389 6
      vertex -19.6961 -19.0598 0
      vertex -19.6961 -19.0598 6
    endloop
  endfacet
  facet normal -0.970296 -0.241922 0
    outer loop
      vertex -19.9225 -18.5513 0
      vertex -19.9563 -18.4158 6
      vertex -19.9563 -18.4158 0
    endloop
  endfacet
  facet normal -0.970296 -0.241922 0
    outer loop
      vertex -19.9563 -18.4158 6
      vertex -19.9225 -18.5513 0
      vertex -19.9225 -18.5513 6
    endloop
  endfacet
  facet normal -0.994521 -0.104535 0
    outer loop
      vertex -19.9805 -18.2783 0
      vertex -19.9951 -18.1395 6
      vertex -19.9951 -18.1395 0
    endloop
  endfacet
  facet normal -0.994521 -0.104535 0
    outer loop
      vertex -19.9951 -18.1395 6
      vertex -19.9805 -18.2783 0
      vertex -19.9805 -18.2783 6
    endloop
  endfacet
  facet normal -0.970295 0.241925 0
    outer loop
      vertex -19.9563 38.4158 0
      vertex -19.9225 38.5513 6
      vertex -19.9225 38.5513 0
    endloop
  endfacet
  facet normal -0.970295 0.241925 0
    outer loop
      vertex -19.9225 38.5513 6
      vertex -19.9563 38.4158 0
      vertex -19.9563 38.4158 6
    endloop
  endfacet
  facet normal -0.342044 0.939684 0
    outer loop
      vertex -18.618 39.9021 0
      vertex -18.7492 39.8544 6
      vertex -18.618 39.9021 6
    endloop
  endfacet
  facet normal -0.342044 0.939684 0
    outer loop
      vertex -18.7492 39.8544 6
      vertex -18.618 39.9021 0
      vertex -18.7492 39.8544 0
    endloop
  endfacet
  facet normal -0.951057 0.309017 0
    outer loop
      vertex -19.9225 38.5513 0
      vertex -19.8794 38.684 6
      vertex -19.8794 38.684 0
    endloop
  endfacet
  facet normal -0.951057 0.309017 0
    outer loop
      vertex -19.8794 38.684 6
      vertex -19.9225 38.5513 0
      vertex -19.9225 38.5513 6
    endloop
  endfacet
  facet normal 0.0697366 0.997565 -0
    outer loop
      vertex 0.209057 39.989 0
      vertex 0.0697985 39.9988 6
      vertex 0.209057 39.989 6
    endloop
  endfacet
  facet normal 0.0697366 0.997565 0
    outer loop
      vertex 0.0697985 39.9988 6
      vertex 0.209057 39.989 0
      vertex 0.0697985 39.9988 0
    endloop
  endfacet
  facet normal 0.707107 0.707107 0
    outer loop
      vertex 39.4387 1.38932 6
      vertex 1.43868 39.3893 0
      vertex 1.43868 39.3893 6
    endloop
  endfacet
  facet normal 0.707107 0.707107 0
    outer loop
      vertex 1.43868 39.3893 0
      vertex 39.4387 1.38932 6
      vertex 39.4387 1.38932 0
    endloop
  endfacet
  facet normal 0.139172 -0.990268 0
    outer loop
      vertex 38.2091 -19.989 0
      vertex 38.3473 -19.9696 6
      vertex 38.2091 -19.989 6
    endloop
  endfacet
  facet normal 0.139172 -0.990268 0
    outer loop
      vertex 38.3473 -19.9696 6
      vertex 38.2091 -19.989 0
      vertex 38.3473 -19.9696 0
    endloop
  endfacet
  facet normal -0.275625 -0.961265 0
    outer loop
      vertex -18.618 -19.9021 0
      vertex -18.4838 -19.9406 6
      vertex -18.618 -19.9021 6
    endloop
  endfacet
  facet normal -0.275625 -0.961265 -0
    outer loop
      vertex -18.4838 -19.9406 6
      vertex -18.618 -19.9021 0
      vertex -18.4838 -19.9406 0
    endloop
  endfacet
  facet normal -0.0697497 -0.997565 0
    outer loop
      vertex -18.2091 -19.989 0
      vertex -18.0698 -19.9988 6
      vertex -18.2091 -19.989 6
    endloop
  endfacet
  facet normal -0.0697497 -0.997565 -0
    outer loop
      vertex -18.0698 -19.9988 6
      vertex -18.2091 -19.989 0
      vertex -18.0698 -19.9988 0
    endloop
  endfacet
  facet normal -0.694661 -0.719337 0
    outer loop
      vertex -19.4387 -19.3893 0
      vertex -19.3383 -19.4863 6
      vertex -19.4387 -19.3893 6
    endloop
  endfacet
  facet normal -0.694661 -0.719337 -0
    outer loop
      vertex -19.3383 -19.4863 6
      vertex -19.4387 -19.3893 0
      vertex -19.3383 -19.4863 0
    endloop
  endfacet
  facet normal -0.78801 -0.615663 0
    outer loop
      vertex -19.5321 -19.2856 0
      vertex -19.618 -19.1756 6
      vertex -19.618 -19.1756 0
    endloop
  endfacet
  facet normal -0.78801 -0.615663 0
    outer loop
      vertex -19.618 -19.1756 6
      vertex -19.5321 -19.2856 0
      vertex -19.5321 -19.2856 6
    endloop
  endfacet
  facet normal -0.927185 -0.374604 0
    outer loop
      vertex -19.8271 -18.8135 0
      vertex -19.8794 -18.684 6
      vertex -19.8794 -18.684 0
    endloop
  endfacet
  facet normal -0.927185 -0.374604 0
    outer loop
      vertex -19.8794 -18.684 6
      vertex -19.8271 -18.8135 0
      vertex -19.8271 -18.8135 6
    endloop
  endfacet
  facet normal 0 0 -1
    outer loop
      vertex -8.46927 28.4693 0
      vertex 1.33826 39.4863 0
      vertex -8.46927 11.5307 0
    endloop
  endfacet
  facet normal 0 0 -1
    outer loop
      vertex 1.33826 39.4863 0
      vertex -8.46927 28.4693 0
      vertex -7.83522 30 0
    endloop
  endfacet
  facet normal 0 0 -1
    outer loop
      vertex -10 12.1648 0
      vertex -8.46927 28.4693 0
      vertex -8.46927 11.5307 0
    endloop
  endfacet
  facet normal 0 0 -1
    outer loop
      vertex -10 12.1648 0
      vertex -10 27.8352 0
      vertex -8.46927 28.4693 0
    endloop
  endfacet
  facet normal 0 0 -1
    outer loop
      vertex -11.5307 11.5307 0
      vertex -10 27.8352 0
      vertex -10 12.1648 0
    endloop
  endfacet
  facet normal 0 0 -1
    outer loop
      vertex -11.5307 11.5307 0
      vertex -11.5307 28.4693 0
      vertex -10 27.8352 0
    endloop
  endfacet
  facet normal 0 0 -1
    outer loop
      vertex -20 38 0
      vertex -11.5307 11.5307 0
      vertex -12.1648 10 0
    endloop
  endfacet
  facet normal 0 0 -1
    outer loop
      vertex -11.5307 11.5307 0
      vertex -20 38 0
      vertex -11.5307 28.4693 0
    endloop
  endfacet
  facet normal 0 0 -1
    outer loop
      vertex -8.46927 8.46927 0
      vertex 8.46927 -8.46927 0
      vertex -8.46927 -8.46927 0
    endloop
  endfacet
  facet normal 0 0 -1
    outer loop
      vertex 8.46927 -8.46927 0
      vertex -8.46927 8.46927 0
      vertex -7.83522 10 0
    endloop
  endfacet
  facet normal 0 0 -1
    outer loop
      vertex -10 -7.83522 0
      vertex -8.46927 8.46927 0
      vertex -8.46927 -8.46927 0
    endloop
  endfacet
  facet normal 0 0 -1
    outer loop
      vertex -10 -7.83522 0
      vertex -10 7.83522 0
      vertex -8.46927 8.46927 0
    endloop
  endfacet
  facet normal 0 0 -1
    outer loop
      vertex -11.5307 -8.46927 0
      vertex -10 7.83522 0
      vertex -10 -7.83522 0
    endloop
  endfacet
  facet normal 0 0 -1
    outer loop
      vertex -11.5307 -8.46927 0
      vertex -11.5307 8.46927 0
      vertex -10 7.83522 0
    endloop
  endfacet
  facet normal 0 0 -1
    outer loop
      vertex -20 -18 0
      vertex -11.5307 -8.46927 0
      vertex -12.1648 -10 0
    endloop
  endfacet
  facet normal -0 0 -1
    outer loop
      vertex -11.5307 -8.46927 0
      vertex -20 -18 0
      vertex -11.5307 8.46927 0
    endloop
  endfacet
  facet normal 0 0 -1
    outer loop
      vertex 40 -18 0
      vertex 31.5307 -11.5307 0
      vertex 32.1648 -10 0
    endloop
  endfacet
  facet normal 0 0 -1
    outer loop
      vertex 38.0698 -19.9988 0
      vertex 30 -12.1648 0
      vertex 31.5307 -11.5307 0
    endloop
  endfacet
  facet normal 0 0 -1
    outer loop
      vertex 38.0698 -19.9988 0
      vertex 28.4693 -11.5307 0
      vertex 30 -12.1648 0
    endloop
  endfacet
  facet normal 0 0 -1
    outer loop
      vertex 28.4693 -11.5307 0
      vertex 12.1648 -10 0
      vertex 27.8352 -10 0
    endloop
  endfacet
  facet normal 0 0 -1
    outer loop
      vertex 11.5307 -11.5307 0
      vertex 28.4693 -11.5307 0
      vertex 38.0698 -19.9988 0
    endloop
  endfacet
  facet normal 0 0 -1
    outer loop
      vertex 28.4693 -11.5307 0
      vertex 11.5307 -11.5307 0
      vertex 12.1648 -10 0
    endloop
  endfacet
  facet normal 0 0 -1
    outer loop
      vertex 38.0698 -19.9988 0
      vertex 10 -12.1648 0
      vertex 11.5307 -11.5307 0
    endloop
  endfacet
  facet normal 0 0 -1
    outer loop
      vertex 8.46927 -8.46927 0
      vertex 1.33826 39.4863 0
      vertex 1.43868 39.3893 0
    endloop
  endfacet
  facet normal 0 0 -1
    outer loop
      vertex 8.46927 -8.46927 0
      vertex -7.83522 10 0
      vertex 1.33826 39.4863 0
    endloop
  endfacet
  facet normal 0 0 -1
    outer loop
      vertex -8.46927 11.5307 0
      vertex 1.33826 39.4863 0
      vertex -7.83522 10 0
    endloop
  endfacet
  facet normal 0 -0 -1
    outer loop
      vertex 0.0697985 39.9988 0
      vertex 1.33826 39.4863 0
      vertex -7.83522 30 0
    endloop
  endfacet
  facet normal 0 0 -1
    outer loop
      vertex 1.33826 39.4863 0
      vertex 0.0697985 39.9988 0
      vertex 1.23132 39.576 0
    endloop
  endfacet
  facet normal 0 0 -1
    outer loop
      vertex 1.23132 39.576 0
      vertex 0.0697985 39.9988 0
      vertex 1.11839 39.6581 0
    endloop
  endfacet
  facet normal 0 0 -1
    outer loop
      vertex 1.11839 39.6581 0
      vertex 0.0697985 39.9988 0
      vertex 1 39.732 0
    endloop
  endfacet
  facet normal 0 0 -1
    outer loop
      vertex 1 39.732 0
      vertex 0.0697985 39.9988 0
      vertex 0.876741 39.7976 0
    endloop
  endfacet
  facet normal 0 0 -1
    outer loop
      vertex 0.876741 39.7976 0
      vertex 0.0697985 39.9988 0
      vertex 0.749212 39.8544 0
    endloop
  endfacet
  facet normal 0 0 -1
    outer loop
      vertex 0.749212 39.8544 0
      vertex 0.0697985 39.9988 0
      vertex 0.618033 39.9021 0
    endloop
  endfacet
  facet normal 0 0 -1
    outer loop
      vertex 0.618033 39.9021 0
      vertex 0.0697985 39.9988 0
      vertex 0.483843 39.9406 0
    endloop
  endfacet
  facet normal 0 0 -1
    outer loop
      vertex -8.46927 -8.46927 0
      vertex 8.46927 -8.46927 0
      vertex -7.83522 -10 0
    endloop
  endfacet
  facet normal 0 0 -1
    outer loop
      vertex 8.46927 -11.5307 0
      vertex -7.83522 -10 0
      vertex 7.83522 -10 0
    endloop
  endfacet
  facet normal 0 0 -1
    outer loop
      vertex -18.0698 -19.9988 0
      vertex 8.46927 -11.5307 0
      vertex 10 -12.1648 0
    endloop
  endfacet
  facet normal 0 0 -1
    outer loop
      vertex -18.0698 -19.9988 0
      vertex 10 -12.1648 0
      vertex 38.0698 -19.9988 0
    endloop
  endfacet
  facet normal 0 0 -1
    outer loop
      vertex 8.46927 -11.5307 0
      vertex -8.46927 -11.5307 0
      vertex -7.83522 -10 0
    endloop
  endfacet
  facet normal -0 0 -1
    outer loop
      vertex 8.46927 -11.5307 0
      vertex -18.0698 -19.9988 0
      vertex -8.46927 -11.5307 0
    endloop
  endfacet
  facet normal -0 0 -1
    outer loop
      vertex -11.5307 8.46927 0
      vertex -20 -18 0
      vertex -12.1648 10 0
    endloop
  endfacet
  facet normal -0 0 -1
    outer loop
      vertex -11.5307 -11.5307 0
      vertex -20 -18 0
      vertex -12.1648 -10 0
    endloop
  endfacet
  facet normal 0 0 -1
    outer loop
      vertex -20 -18 0
      vertex -11.5307 -11.5307 0
      vertex -18.0698 -19.9988 0
    endloop
  endfacet
  facet normal -0 0 -1
    outer loop
      vertex -10 -12.1648 0
      vertex -18.0698 -19.9988 0
      vertex -11.5307 -11.5307 0
    endloop
  endfacet
  facet normal 0 0 -1
    outer loop
      vertex -8.46927 -11.5307 0
      vertex -18.0698 -19.9988 0
      vertex -10 -12.1648 0
    endloop
  endfacet
  facet normal 0 0 -1
    outer loop
      vertex 38.0698 -19.9988 0
      vertex 40 -18 0
      vertex 39.9951 -18.1395 0
    endloop
  endfacet
  facet normal 0 0 -1
    outer loop
      vertex 40 -18 0
      vertex 32.1648 -10 0
      vertex 40 0 0
    endloop
  endfacet
  facet normal 0 0 -1
    outer loop
      vertex 38.0698 -19.9988 0
      vertex 39.9951 -18.1395 0
      vertex 39.9805 -18.2783 0
    endloop
  endfacet
  facet normal 0 0 -1
    outer loop
      vertex 31.5307 -8.46927 0
      vertex 40 0 0
      vertex 32.1648 -10 0
    endloop
  endfacet
  facet normal 0 0 -1
    outer loop
      vertex 38.0698 -19.9988 0
      vertex 39.9805 -18.2783 0
      vertex 39.9563 -18.4158 0
    endloop
  endfacet
  facet normal 0 -0 -1
    outer loop
      vertex 39.4387 1.38932 0
      vertex 40 0 0
      vertex 31.5307 -8.46927 0
    endloop
  endfacet
  facet normal 0 0 -1
    outer loop
      vertex 38.0698 -19.9988 0
      vertex 39.9563 -18.4158 0
      vertex 39.9225 -18.5513 0
    endloop
  endfacet
  facet normal 0 0 -1
    outer loop
      vertex 40 0 0
      vertex 39.4387 1.38932 0
      vertex 39.9951 0.139512 0
    endloop
  endfacet
  facet normal 0 0 -1
    outer loop
      vertex 38.0698 -19.9988 0
      vertex 39.9225 -18.5513 0
      vertex 39.8794 -18.684 0
    endloop
  endfacet
  facet normal 0 0 -1
    outer loop
      vertex 39.9951 0.139512 0
      vertex 39.4387 1.38932 0
      vertex 39.9805 0.278346 0
    endloop
  endfacet
  facet normal 0 0 -1
    outer loop
      vertex 38.0698 -19.9988 0
      vertex 39.8794 -18.684 0
      vertex 39.8271 -18.8135 0
    endloop
  endfacet
  facet normal 0 0 -1
    outer loop
      vertex 39.9805 0.278346 0
      vertex 39.4387 1.38932 0
      vertex 39.9563 0.415823 0
    endloop
  endfacet
  facet normal 0 0 -1
    outer loop
      vertex 38.0698 -19.9988 0
      vertex 39.8271 -18.8135 0
      vertex 39.7659 -18.9389 0
    endloop
  endfacet
  facet normal 0 0 -1
    outer loop
      vertex 39.9563 0.415823 0
      vertex 39.4387 1.38932 0
      vertex 39.9225 0.551274 0
    endloop
  endfacet
  facet normal 0 0 -1
    outer loop
      vertex 38.0698 -19.9988 0
      vertex 39.7659 -18.9389 0
      vertex 39.6961 -19.0598 0
    endloop
  endfacet
  facet normal 0 0 -1
    outer loop
      vertex 39.9225 0.551274 0
      vertex 39.4387 1.38932 0
      vertex 39.8794 0.68404 0
    endloop
  endfacet
  facet normal 0 0 -1
    outer loop
      vertex 38.0698 -19.9988 0
      vertex 39.6961 -19.0598 0
      vertex 39.618 -19.1756 0
    endloop
  endfacet
  facet normal 0 0 -1
    outer loop
      vertex 39.8794 0.68404 0
      vertex 39.4387 1.38932 0
      vertex 39.8271 0.813473 0
    endloop
  endfacet
  facet normal 0 0 -1
    outer loop
      vertex 38.0698 -19.9988 0
      vertex 39.618 -19.1756 0
      vertex 39.5321 -19.2856 0
    endloop
  endfacet
  facet normal 0 0 -1
    outer loop
      vertex 39.8271 0.813473 0
      vertex 39.4387 1.38932 0
      vertex 39.7659 0.938943 0
    endloop
  endfacet
  facet normal 0 0 -1
    outer loop
      vertex 38.0698 -19.9988 0
      vertex 39.5321 -19.2856 0
      vertex 39.4387 -19.3893 0
    endloop
  endfacet
  facet normal 0 0 -1
    outer loop
      vertex 39.7659 0.938943 0
      vertex 39.4387 1.38932 0
      vertex 39.6961 1.05984 0
    endloop
  endfacet
  facet normal 0 0 -1
    outer loop
      vertex 38.0698 -19.9988 0
      vertex 39.4387 -19.3893 0
      vertex 39.3383 -19.4863 0
    endloop
  endfacet
  facet normal 0 0 -1
    outer loop
      vertex 38.0698 -19.9988 0
      vertex 39.3383 -19.4863 0
      vertex 39.2313 -19.576 0
    endloop
  endfacet
  facet normal 0 0 -1
    outer loop
      vertex 38.0698 -19.9988 0
      vertex 39.2313 -19.576 0
      vertex 39.1184 -19.6581 0
    endloop
  endfacet
  facet normal 0 0 -1
    outer loop
      vertex 38.0698 -19.9988 0
      vertex 39.1184 -19.6581 0
      vertex 39 -19.732 0
    endloop
  endfacet
  facet normal 0 0 -1
    outer loop
      vertex 38.0698 -19.9988 0
      vertex 39 -19.732 0
      vertex 38.8767 -19.7976 0
    endloop
  endfacet
  facet normal 0 0 -1
    outer loop
      vertex 38.0698 -19.9988 0
      vertex 38.8767 -19.7976 0
      vertex 38.7492 -19.8544 0
    endloop
  endfacet
  facet normal 0 0 -1
    outer loop
      vertex 38.0698 -19.9988 0
      vertex 38.7492 -19.8544 0
      vertex 38.618 -19.9021 0
    endloop
  endfacet
  facet normal 0 0 -1
    outer loop
      vertex 38.0698 -19.9988 0
      vertex 38.618 -19.9021 0
      vertex 38.4838 -19.9406 0
    endloop
  endfacet
  facet normal 0 0 -1
    outer loop
      vertex 38.0698 -19.9988 0
      vertex 38.4838 -19.9406 0
      vertex 38.3473 -19.9696 0
    endloop
  endfacet
  facet normal 0 0 -1
    outer loop
      vertex 38.0698 -19.9988 0
      vertex 38.3473 -19.9696 0
      vertex 38.2091 -19.989 0
    endloop
  endfacet
  facet normal 0 0 -1
    outer loop
      vertex 31.5307 -11.5307 0
      vertex 40 -18 0
      vertex 38.0698 -19.9988 0
    endloop
  endfacet
  facet normal 0 0 -1
    outer loop
      vertex 39.6961 1.05984 0
      vertex 39.4387 1.38932 0
      vertex 39.618 1.17557 0
    endloop
  endfacet
  facet normal 0 0 -1
    outer loop
      vertex 39.618 1.17557 0
      vertex 39.4387 1.38932 0
      vertex 39.5321 1.28557 0
    endloop
  endfacet
  facet normal 0 0 -1
    outer loop
      vertex 30 -7.83522 0
      vertex 39.4387 1.38932 0
      vertex 31.5307 -8.46927 0
    endloop
  endfacet
  facet normal 0 0 -1
    outer loop
      vertex 28.4693 -8.46927 0
      vertex 39.4387 1.38932 0
      vertex 30 -7.83522 0
    endloop
  endfacet
  facet normal 0 0 -1
    outer loop
      vertex 12.1648 -10 0
      vertex 28.4693 -8.46927 0
      vertex 27.8352 -10 0
    endloop
  endfacet
  facet normal 0 0 -1
    outer loop
      vertex 11.5307 -8.46927 0
      vertex 28.4693 -8.46927 0
      vertex 12.1648 -10 0
    endloop
  endfacet
  facet normal 0 0 -1
    outer loop
      vertex 28.4693 -8.46927 0
      vertex 11.5307 -8.46927 0
      vertex 39.4387 1.38932 0
    endloop
  endfacet
  facet normal 0 0 -1
    outer loop
      vertex 10 -7.83522 0
      vertex 39.4387 1.38932 0
      vertex 11.5307 -8.46927 0
    endloop
  endfacet
  facet normal 0 0 -1
    outer loop
      vertex 10 -7.83522 0
      vertex 1.43868 39.3893 0
      vertex 39.4387 1.38932 0
    endloop
  endfacet
  facet normal 0 0 -1
    outer loop
      vertex 8.46927 -8.46927 0
      vertex 1.43868 39.3893 0
      vertex 10 -7.83522 0
    endloop
  endfacet
  facet normal 0 0 -1
    outer loop
      vertex -7.83522 -10 0
      vertex 8.46927 -8.46927 0
      vertex 7.83522 -10 0
    endloop
  endfacet
  facet normal 0 0 -1
    outer loop
      vertex 0.483843 39.9406 0
      vertex 0.0697985 39.9988 0
      vertex 0.347296 39.9696 0
    endloop
  endfacet
  facet normal 0 0 -1
    outer loop
      vertex 0.347296 39.9696 0
      vertex 0.0697985 39.9988 0
      vertex 0.209057 39.989 0
    endloop
  endfacet
  facet normal 0 0 -1
    outer loop
      vertex -8.46927 31.5307 0
      vertex 0.0697985 39.9988 0
      vertex -7.83522 30 0
    endloop
  endfacet
  facet normal 0 0 -1
    outer loop
      vertex -10 32.1648 0
      vertex 0.0697985 39.9988 0
      vertex -8.46927 31.5307 0
    endloop
  endfacet
  facet normal 0 0 -1
    outer loop
      vertex -18.0698 39.9988 0
      vertex -10 32.1648 0
      vertex -11.5307 31.5307 0
    endloop
  endfacet
  facet normal 0 0 -1
    outer loop
      vertex -10 32.1648 0
      vertex -18.0698 39.9988 0
      vertex 0.0697985 39.9988 0
    endloop
  endfacet
  facet normal 0 0 -1
    outer loop
      vertex -20 38 0
      vertex -11.5307 31.5307 0
      vertex -12.1648 30 0
    endloop
  endfacet
  facet normal 0 0 -1
    outer loop
      vertex -20 38 0
      vertex -12.1648 10 0
      vertex -20 -18 0
    endloop
  endfacet
  facet normal 0 0 -1
    outer loop
      vertex -20 -18 0
      vertex -18.0698 -19.9988 0
      vertex -18.2091 -19.989 0
    endloop
  endfacet
  facet normal 0 0 -1
    outer loop
      vertex -11.5307 28.4693 0
      vertex -20 38 0
      vertex -12.1648 30 0
    endloop
  endfacet
  facet normal 0 0 -1
    outer loop
      vertex -20 -18 0
      vertex -18.2091 -19.989 0
      vertex -18.3473 -19.9696 0
    endloop
  endfacet
  facet normal 0 0 -1
    outer loop
      vertex -11.5307 31.5307 0
      vertex -20 38 0
      vertex -18.0698 39.9988 0
    endloop
  endfacet
  facet normal 0 0 -1
    outer loop
      vertex -20 -18 0
      vertex -18.3473 -19.9696 0
      vertex -18.4838 -19.9406 0
    endloop
  endfacet
  facet normal 0 0 -1
    outer loop
      vertex -18.0698 39.9988 0
      vertex -20 38 0
      vertex -18.2091 39.989 0
    endloop
  endfacet
  facet normal 0 0 -1
    outer loop
      vertex -20 -18 0
      vertex -18.4838 -19.9406 0
      vertex -18.618 -19.9021 0
    endloop
  endfacet
  facet normal 0 0 -1
    outer loop
      vertex -18.2091 39.989 0
      vertex -20 38 0
      vertex -18.3473 39.9696 0
    endloop
  endfacet
  facet normal 0 0 -1
    outer loop
      vertex -20 -18 0
      vertex -18.618 -19.9021 0
      vertex -18.7492 -19.8544 0
    endloop
  endfacet
  facet normal 0 0 -1
    outer loop
      vertex -18.3473 39.9696 0
      vertex -20 38 0
      vertex -18.4838 39.9406 0
    endloop
  endfacet
  facet normal 0 0 -1
    outer loop
      vertex -20 -18 0
      vertex -18.7492 -19.8544 0
      vertex -18.8767 -19.7976 0
    endloop
  endfacet
  facet normal 0 0 -1
    outer loop
      vertex -18.4838 39.9406 0
      vertex -20 38 0
      vertex -18.618 39.9021 0
    endloop
  endfacet
  facet normal 0 0 -1
    outer loop
      vertex -20 -18 0
      vertex -18.8767 -19.7976 0
      vertex -19 -19.732 0
    endloop
  endfacet
  facet normal 0 0 -1
    outer loop
      vertex -18.618 39.9021 0
      vertex -20 38 0
      vertex -18.7492 39.8544 0
    endloop
  endfacet
  facet normal 0 0 -1
    outer loop
      vertex -20 -18 0
      vertex -19 -19.732 0
      vertex -19.1184 -19.6581 0
    endloop
  endfacet
  facet normal 0 0 -1
    outer loop
      vertex -18.7492 39.8544 0
      vertex -20 38 0
      vertex -18.8767 39.7976 0
    endloop
  endfacet
  facet normal 0 0 -1
    outer loop
      vertex -20 -18 0
      vertex -19.1184 -19.6581 0
      vertex -19.2313 -19.576 0
    endloop
  endfacet
  facet normal 0 0 -1
    outer loop
      vertex -18.8767 39.7976 0
      vertex -20 38 0
      vertex -19 39.732 0
    endloop
  endfacet
  facet normal 0 0 -1
    outer loop
      vertex -20 -18 0
      vertex -19.2313 -19.576 0
      vertex -19.3383 -19.4863 0
    endloop
  endfacet
  facet normal 0 0 -1
    outer loop
      vertex -19 39.732 0
      vertex -20 38 0
      vertex -19.1184 39.6581 0
    endloop
  endfacet
  facet normal 0 0 -1
    outer loop
      vertex -20 -18 0
      vertex -19.3383 -19.4863 0
      vertex -19.4387 -19.3893 0
    endloop
  endfacet
  facet normal 0 0 -1
    outer loop
      vertex -19.1184 39.6581 0
      vertex -20 38 0
      vertex -19.2313 39.576 0
    endloop
  endfacet
  facet normal 0 0 -1
    outer loop
      vertex -20 -18 0
      vertex -19.4387 -19.3893 0
      vertex -19.5321 -19.2856 0
    endloop
  endfacet
  facet normal 0 0 -1
    outer loop
      vertex -19.2313 39.576 0
      vertex -20 38 0
      vertex -19.3383 39.4863 0
    endloop
  endfacet
  facet normal 0 0 -1
    outer loop
      vertex -20 -18 0
      vertex -19.5321 -19.2856 0
      vertex -19.618 -19.1756 0
    endloop
  endfacet
  facet normal 0 0 -1
    outer loop
      vertex -19.3383 39.4863 0
      vertex -20 38 0
      vertex -19.4387 39.3893 0
    endloop
  endfacet
  facet normal 0 0 -1
    outer loop
      vertex -20 -18 0
      vertex -19.618 -19.1756 0
      vertex -19.6961 -19.0598 0
    endloop
  endfacet
  facet normal 0 0 -1
    outer loop
      vertex -19.4387 39.3893 0
      vertex -20 38 0
      vertex -19.5321 39.2856 0
    endloop
  endfacet
  facet normal 0 0 -1
    outer loop
      vertex -20 -18 0
      vertex -19.6961 -19.0598 0
      vertex -19.7659 -18.9389 0
    endloop
  endfacet
  facet normal 0 0 -1
    outer loop
      vertex -19.5321 39.2856 0
      vertex -20 38 0
      vertex -19.618 39.1756 0
    endloop
  endfacet
  facet normal 0 0 -1
    outer loop
      vertex -20 -18 0
      vertex -19.7659 -18.9389 0
      vertex -19.8271 -18.8135 0
    endloop
  endfacet
  facet normal 0 0 -1
    outer loop
      vertex -19.618 39.1756 0
      vertex -20 38 0
      vertex -19.6961 39.0598 0
    endloop
  endfacet
  facet normal 0 0 -1
    outer loop
      vertex -20 -18 0
      vertex -19.8271 -18.8135 0
      vertex -19.8794 -18.684 0
    endloop
  endfacet
  facet normal 0 0 -1
    outer loop
      vertex -19.6961 39.0598 0
      vertex -20 38 0
      vertex -19.7659 38.9389 0
    endloop
  endfacet
  facet normal 0 0 -1
    outer loop
      vertex -20 -18 0
      vertex -19.8794 -18.684 0
      vertex -19.9225 -18.5513 0
    endloop
  endfacet
  facet normal 0 0 -1
    outer loop
      vertex -19.7659 38.9389 0
      vertex -20 38 0
      vertex -19.8271 38.8135 0
    endloop
  endfacet
  facet normal 0 0 -1
    outer loop
      vertex -20 -18 0
      vertex -19.9225 -18.5513 0
      vertex -19.9563 -18.4158 0
    endloop
  endfacet
  facet normal 0 0 -1
    outer loop
      vertex -19.8271 38.8135 0
      vertex -20 38 0
      vertex -19.8794 38.684 0
    endloop
  endfacet
  facet normal 0 0 -1
    outer loop
      vertex -20 -18 0
      vertex -19.9563 -18.4158 0
      vertex -19.9805 -18.2783 0
    endloop
  endfacet
  facet normal 0 0 -1
    outer loop
      vertex -19.8794 38.684 0
      vertex -20 38 0
      vertex -19.9225 38.5513 0
    endloop
  endfacet
  facet normal 0 0 -1
    outer loop
      vertex -20 -18 0
      vertex -19.9805 -18.2783 0
      vertex -19.9951 -18.1395 0
    endloop
  endfacet
  facet normal 0 0 -1
    outer loop
      vertex -19.9225 38.5513 0
      vertex -20 38 0
      vertex -19.9563 38.4158 0
    endloop
  endfacet
  facet normal 0 0 -1
    outer loop
      vertex -19.9563 38.4158 0
      vertex -20 38 0
      vertex -19.9805 38.2783 0
    endloop
  endfacet
  facet normal 0 0 -1
    outer loop
      vertex -19.9805 38.2783 0
      vertex -20 38 0
      vertex -19.9951 38.1395 0
    endloop
  endfacet
  facet normal -0.984808 -0.173647 0
    outer loop
      vertex -19.9563 -18.4158 0
      vertex -19.9805 -18.2783 6
      vertex -19.9805 -18.2783 0
    endloop
  endfacet
  facet normal -0.984808 -0.173647 0
    outer loop
      vertex -19.9805 -18.2783 6
      vertex -19.9563 -18.4158 0
      vertex -19.9563 -18.4158 6
    endloop
  endfacet
  facet normal -0.951057 -0.309017 0
    outer loop
      vertex -19.8794 -18.684 0
      vertex -19.9225 -18.5513 6
      vertex -19.9225 -18.5513 0
    endloop
  endfacet
  facet normal -0.951057 -0.309017 0
    outer loop
      vertex -19.9225 -18.5513 6
      vertex -19.8794 -18.684 0
      vertex -19.8794 -18.684 6
    endloop
  endfacet
  facet normal -0.529915 0.84805 0
    outer loop
      vertex -19 39.732 0
      vertex -19.1184 39.6581 6
      vertex -19 39.732 6
    endloop
  endfacet
  facet normal -0.529915 0.84805 0
    outer loop
      vertex -19.1184 39.6581 6
      vertex -19 39.732 0
      vertex -19.1184 39.6581 0
    endloop
  endfacet
  facet normal -0.0697361 0.997565 0
    outer loop
      vertex -18.0698 39.9988 0
      vertex -18.2091 39.989 6
      vertex -18.0698 39.9988 6
    endloop
  endfacet
  facet normal -0.0697361 0.997565 0
    outer loop
      vertex -18.2091 39.989 6
      vertex -18.0698 39.9988 0
      vertex -18.2091 39.989 0
    endloop
  endfacet
  facet normal 0 1 -0
    outer loop
      vertex 0.0697985 39.9988 0
      vertex -18.0698 39.9988 6
      vertex 0.0697985 39.9988 6
    endloop
  endfacet
  facet normal 0 1 0
    outer loop
      vertex -18.0698 39.9988 6
      vertex 0.0697985 39.9988 0
      vertex -18.0698 39.9988 0
    endloop
  endfacet
  facet normal 0.587788 0.809015 -0
    outer loop
      vertex 1.23132 39.576 0
      vertex 1.11839 39.6581 6
      vertex 1.23132 39.576 6
    endloop
  endfacet
  facet normal 0.587788 0.809015 0
    outer loop
      vertex 1.11839 39.6581 6
      vertex 1.23132 39.576 0
      vertex 1.11839 39.6581 0
    endloop
  endfacet
  facet normal 0.743141 0.669135 0
    outer loop
      vertex 39.5321 1.28557 6
      vertex 39.4387 1.38932 0
      vertex 39.4387 1.38932 6
    endloop
  endfacet
  facet normal 0.743141 0.669135 0
    outer loop
      vertex 39.4387 1.38932 0
      vertex 39.5321 1.28557 6
      vertex 39.5321 1.28557 0
    endloop
  endfacet
  facet normal 0.78801 0.615663 0
    outer loop
      vertex 39.618 1.17557 6
      vertex 39.5321 1.28557 0
      vertex 39.5321 1.28557 6
    endloop
  endfacet
  facet normal 0.78801 0.615663 0
    outer loop
      vertex 39.5321 1.28557 0
      vertex 39.618 1.17557 6
      vertex 39.618 1.17557 0
    endloop
  endfacet
  facet normal -0.406727 -0.91355 0
    outer loop
      vertex -18.8767 -19.7976 0
      vertex -18.7492 -19.8544 6
      vertex -18.8767 -19.7976 6
    endloop
  endfacet
  facet normal -0.406727 -0.91355 -0
    outer loop
      vertex -18.7492 -19.8544 6
      vertex -18.8767 -19.7976 0
      vertex -18.7492 -19.8544 0
    endloop
  endfacet
  facet normal -0.469475 -0.882946 0
    outer loop
      vertex -19 -19.732 0
      vertex -18.8767 -19.7976 6
      vertex -19 -19.732 6
    endloop
  endfacet
  facet normal -0.469475 -0.882946 -0
    outer loop
      vertex -18.8767 -19.7976 6
      vertex -19 -19.732 0
      vertex -18.8767 -19.7976 0
    endloop
  endfacet
  facet normal -0.642788 -0.766044 0
    outer loop
      vertex -19.3383 -19.4863 0
      vertex -19.2313 -19.576 6
      vertex -19.3383 -19.4863 6
    endloop
  endfacet
  facet normal -0.642788 -0.766044 -0
    outer loop
      vertex -19.2313 -19.576 6
      vertex -19.3383 -19.4863 0
      vertex -19.2313 -19.576 0
    endloop
  endfacet
  facet normal -0.743138 -0.669138 0
    outer loop
      vertex -19.4387 -19.3893 0
      vertex -19.5321 -19.2856 6
      vertex -19.5321 -19.2856 0
    endloop
  endfacet
  facet normal -0.743138 -0.669138 0
    outer loop
      vertex -19.5321 -19.2856 6
      vertex -19.4387 -19.3893 0
      vertex -19.4387 -19.3893 6
    endloop
  endfacet
  facet normal -0.898794 -0.438371 0
    outer loop
      vertex -19.7659 -18.9389 0
      vertex -19.8271 -18.8135 6
      vertex -19.8271 -18.8135 0
    endloop
  endfacet
  facet normal -0.898794 -0.438371 0
    outer loop
      vertex -19.8271 -18.8135 6
      vertex -19.7659 -18.9389 0
      vertex -19.7659 -18.9389 6
    endloop
  endfacet
  facet normal -0.994521 0.104535 0
    outer loop
      vertex -19.9951 38.1395 0
      vertex -19.9805 38.2783 6
      vertex -19.9805 38.2783 0
    endloop
  endfacet
  facet normal -0.994521 0.104535 0
    outer loop
      vertex -19.9805 38.2783 6
      vertex -19.9951 38.1395 0
      vertex -19.9951 38.1395 6
    endloop
  endfacet
  facet normal -0.275612 0.961269 0
    outer loop
      vertex -18.4838 39.9406 0
      vertex -18.618 39.9021 6
      vertex -18.4838 39.9406 6
    endloop
  endfacet
  facet normal -0.275612 0.961269 0
    outer loop
      vertex -18.618 39.9021 6
      vertex -18.4838 39.9406 0
      vertex -18.618 39.9021 0
    endloop
  endfacet
  facet normal -0.587785 0.809017 0
    outer loop
      vertex -19.1184 39.6581 0
      vertex -19.2313 39.576 6
      vertex -19.1184 39.6581 6
    endloop
  endfacet
  facet normal -0.587785 0.809017 0
    outer loop
      vertex -19.2313 39.576 6
      vertex -19.1184 39.6581 0
      vertex -19.2313 39.576 0
    endloop
  endfacet
  facet normal -0.743138 0.669138 0
    outer loop
      vertex -19.5321 39.2856 0
      vertex -19.4387 39.3893 6
      vertex -19.4387 39.3893 0
    endloop
  endfacet
  facet normal -0.743138 0.669138 0
    outer loop
      vertex -19.4387 39.3893 6
      vertex -19.5321 39.2856 0
      vertex -19.5321 39.2856 6
    endloop
  endfacet
  facet normal -0.78801 0.615663 0
    outer loop
      vertex -19.618 39.1756 0
      vertex -19.5321 39.2856 6
      vertex -19.5321 39.2856 0
    endloop
  endfacet
  facet normal -0.78801 0.615663 0
    outer loop
      vertex -19.5321 39.2856 6
      vertex -19.618 39.1756 0
      vertex -19.618 39.1756 6
    endloop
  endfacet
  facet normal -0.139173 0.990268 0
    outer loop
      vertex -18.2091 39.989 0
      vertex -18.3473 39.9696 6
      vertex -18.2091 39.989 6
    endloop
  endfacet
  facet normal -0.139173 0.990268 0
    outer loop
      vertex -18.3473 39.9696 6
      vertex -18.2091 39.989 0
      vertex -18.3473 39.9696 0
    endloop
  endfacet
  facet normal -0.207926 0.978145 0
    outer loop
      vertex -18.3473 39.9696 0
      vertex -18.4838 39.9406 6
      vertex -18.3473 39.9696 6
    endloop
  endfacet
  facet normal -0.207926 0.978145 0
    outer loop
      vertex -18.4838 39.9406 6
      vertex -18.3473 39.9696 0
      vertex -18.4838 39.9406 0
    endloop
  endfacet
  facet normal 0.342041 0.939685 -0
    outer loop
      vertex 0.749212 39.8544 0
      vertex 0.618033 39.9021 6
      vertex 0.749212 39.8544 6
    endloop
  endfacet
  facet normal 0.342041 0.939685 0
    outer loop
      vertex 0.618033 39.9021 6
      vertex 0.749212 39.8544 0
      vertex 0.618033 39.9021 0
    endloop
  endfacet
  facet normal 0.642777 0.766054 -0
    outer loop
      vertex 1.33826 39.4863 0
      vertex 1.23132 39.576 6
      vertex 1.33826 39.4863 6
    endloop
  endfacet
  facet normal 0.642777 0.766054 0
    outer loop
      vertex 1.23132 39.576 6
      vertex 1.33826 39.4863 0
      vertex 1.23132 39.576 0
    endloop
  endfacet
  facet normal 0.694661 0.719337 -0
    outer loop
      vertex 1.43868 39.3893 0
      vertex 1.33826 39.4863 6
      vertex 1.43868 39.3893 6
    endloop
  endfacet
  facet normal 0.694661 0.719337 0
    outer loop
      vertex 1.33826 39.4863 6
      vertex 1.43868 39.3893 0
      vertex 1.33826 39.4863 0
    endloop
  endfacet
  facet normal 0.994523 0.104523 0
    outer loop
      vertex 39.9951 0.139512 6
      vertex 39.9805 0.278346 0
      vertex 39.9805 0.278346 6
    endloop
  endfacet
  facet normal 0.994523 0.104523 0
    outer loop
      vertex 39.9805 0.278346 0
      vertex 39.9951 0.139512 6
      vertex 39.9951 0.139512 0
    endloop
  endfacet
  facet normal 0.970296 0.24192 0
    outer loop
      vertex 39.9563 0.415823 6
      vertex 39.9225 0.551274 0
      vertex 39.9225 0.551274 6
    endloop
  endfacet
  facet normal 0.970296 0.24192 0
    outer loop
      vertex 39.9225 0.551274 0
      vertex 39.9563 0.415823 6
      vertex 39.9563 0.415823 0
    endloop
  endfacet
  facet normal 0.275621 -0.961266 0
    outer loop
      vertex 38.4838 -19.9406 0
      vertex 38.618 -19.9021 6
      vertex 38.4838 -19.9406 6
    endloop
  endfacet
  facet normal 0.275621 -0.961266 0
    outer loop
      vertex 38.618 -19.9021 6
      vertex 38.4838 -19.9406 0
      vertex 38.618 -19.9021 0
    endloop
  endfacet
  facet normal 0.207931 -0.978143 0
    outer loop
      vertex 38.3473 -19.9696 0
      vertex 38.4838 -19.9406 6
      vertex 38.3473 -19.9696 6
    endloop
  endfacet
  facet normal 0.207931 -0.978143 0
    outer loop
      vertex 38.4838 -19.9406 6
      vertex 38.3473 -19.9696 0
      vertex 38.4838 -19.9406 0
    endloop
  endfacet
  facet normal 0.342027 -0.93969 0
    outer loop
      vertex 38.618 -19.9021 0
      vertex 38.7492 -19.8544 6
      vertex 38.618 -19.9021 6
    endloop
  endfacet
  facet normal 0.342027 -0.93969 0
    outer loop
      vertex 38.7492 -19.8544 6
      vertex 38.618 -19.9021 0
      vertex 38.7492 -19.8544 0
    endloop
  endfacet
  facet normal 0.46947 -0.882949 0
    outer loop
      vertex 38.8767 -19.7976 0
      vertex 39 -19.732 6
      vertex 38.8767 -19.7976 6
    endloop
  endfacet
  facet normal 0.46947 -0.882949 0
    outer loop
      vertex 39 -19.732 6
      vertex 38.8767 -19.7976 0
      vertex 39 -19.732 0
    endloop
  endfacet
  facet normal 0.829049 -0.559176 0
    outer loop
      vertex 39.618 -19.1756 6
      vertex 39.6961 -19.0598 0
      vertex 39.6961 -19.0598 6
    endloop
  endfacet
  facet normal 0.829049 -0.559176 0
    outer loop
      vertex 39.6961 -19.0598 0
      vertex 39.618 -19.1756 6
      vertex 39.618 -19.1756 0
    endloop
  endfacet
  facet normal 0.898794 -0.438371 0
    outer loop
      vertex 39.7659 -18.9389 6
      vertex 39.8271 -18.8135 0
      vertex 39.8271 -18.8135 6
    endloop
  endfacet
  facet normal 0.898794 -0.438371 0
    outer loop
      vertex 39.8271 -18.8135 0
      vertex 39.7659 -18.9389 6
      vertex 39.7659 -18.9389 0
    endloop
  endfacet
  facet normal 0.994523 -0.104521 0
    outer loop
      vertex 39.9805 -18.2783 6
      vertex 39.9951 -18.1395 0
      vertex 39.9951 -18.1395 6
    endloop
  endfacet
  facet normal 0.994523 -0.104521 0
    outer loop
      vertex 39.9951 -18.1395 0
      vertex 39.9805 -18.2783 6
      vertex 39.9805 -18.2783 0
    endloop
  endfacet
  facet normal 0.999391 -0.0348962 0
    outer loop
      vertex 39.9951 -18.1395 6
      vertex 40 -18 0
      vertex 40 -18 6
    endloop
  endfacet
  facet normal 0.999391 -0.0348962 0
    outer loop
      vertex 40 -18 0
      vertex 39.9951 -18.1395 6
      vertex 39.9951 -18.1395 0
    endloop
  endfacet
  facet normal -0.984808 0.173644 0
    outer loop
      vertex -19.9805 38.2783 0
      vertex -19.9563 38.4158 6
      vertex -19.9563 38.4158 0
    endloop
  endfacet
  facet normal -0.984808 0.173644 0
    outer loop
      vertex -19.9563 38.4158 6
      vertex -19.9805 38.2783 0
      vertex -19.9805 38.2783 6
    endloop
  endfacet
  facet normal -0.694661 0.719337 0
    outer loop
      vertex -19.3383 39.4863 0
      vertex -19.4387 39.3893 6
      vertex -19.3383 39.4863 6
    endloop
  endfacet
  facet normal -0.694661 0.719337 0
    outer loop
      vertex -19.4387 39.3893 6
      vertex -19.3383 39.4863 0
      vertex -19.4387 39.3893 0
    endloop
  endfacet
  facet normal -0.64278 0.766051 0
    outer loop
      vertex -19.2313 39.576 0
      vertex -19.3383 39.4863 6
      vertex -19.2313 39.576 6
    endloop
  endfacet
  facet normal -0.64278 0.766051 0
    outer loop
      vertex -19.3383 39.4863 6
      vertex -19.2313 39.576 0
      vertex -19.3383 39.4863 0
    endloop
  endfacet
  facet normal -0.829049 0.559176 0
    outer loop
      vertex -19.6961 39.0598 0
      vertex -19.618 39.1756 6
      vertex -19.618 39.1756 0
    endloop
  endfacet
  facet normal -0.829049 0.559176 0
    outer loop
      vertex -19.618 39.1756 6
      vertex -19.6961 39.0598 0
      vertex -19.6961 39.0598 6
    endloop
  endfacet
  facet normal 0.139173 0.990268 -0
    outer loop
      vertex 0.347296 39.9696 0
      vertex 0.209057 39.989 6
      vertex 0.347296 39.9696 6
    endloop
  endfacet
  facet normal 0.139173 0.990268 0
    outer loop
      vertex 0.209057 39.989 6
      vertex 0.347296 39.9696 0
      vertex 0.209057 39.989 0
    endloop
  endfacet
  facet normal 0.207926 0.978145 -0
    outer loop
      vertex 0.483843 39.9406 0
      vertex 0.347296 39.9696 6
      vertex 0.483843 39.9406 6
    endloop
  endfacet
  facet normal 0.207926 0.978145 0
    outer loop
      vertex 0.347296 39.9696 6
      vertex 0.483843 39.9406 0
      vertex 0.347296 39.9696 0
    endloop
  endfacet
  facet normal 0.275614 0.961268 -0
    outer loop
      vertex 0.618033 39.9021 0
      vertex 0.483843 39.9406 6
      vertex 0.618033 39.9021 6
    endloop
  endfacet
  facet normal 0.275614 0.961268 0
    outer loop
      vertex 0.483843 39.9406 6
      vertex 0.618033 39.9021 0
      vertex 0.483843 39.9406 0
    endloop
  endfacet
  facet normal 0.406727 0.91355 -0
    outer loop
      vertex 0.876741 39.7976 0
      vertex 0.749212 39.8544 6
      vertex 0.876741 39.7976 6
    endloop
  endfacet
  facet normal 0.406727 0.91355 0
    outer loop
      vertex 0.749212 39.8544 6
      vertex 0.876741 39.7976 0
      vertex 0.749212 39.8544 0
    endloop
  endfacet
  facet normal 0.469486 0.88294 -0
    outer loop
      vertex 1 39.732 0
      vertex 0.876741 39.7976 6
      vertex 1 39.732 6
    endloop
  endfacet
  facet normal 0.469486 0.88294 0
    outer loop
      vertex 0.876741 39.7976 6
      vertex 1 39.732 0
      vertex 0.876741 39.7976 0
    endloop
  endfacet
  facet normal 0.529915 0.84805 -0
    outer loop
      vertex 1.11839 39.6581 0
      vertex 1 39.732 6
      vertex 1.11839 39.6581 6
    endloop
  endfacet
  facet normal 0.529915 0.84805 0
    outer loop
      vertex 1 39.732 6
      vertex 1.11839 39.6581 0
      vertex 1 39.732 0
    endloop
  endfacet
  facet normal 0.898795 0.438368 0
    outer loop
      vertex 39.8271 0.813473 6
      vertex 39.7659 0.938943 0
      vertex 39.7659 0.938943 6
    endloop
  endfacet
  facet normal 0.898795 0.438368 0
    outer loop
      vertex 39.7659 0.938943 0
      vertex 39.8271 0.813473 6
      vertex 39.8271 0.813473 0
    endloop
  endfacet
  facet normal 0.529925 -0.848044 0
    outer loop
      vertex 39 -19.732 0
      vertex 39.1184 -19.6581 6
      vertex 39 -19.732 6
    endloop
  endfacet
  facet normal 0.529925 -0.848044 0
    outer loop
      vertex 39.1184 -19.6581 6
      vertex 39 -19.732 0
      vertex 39.1184 -19.6581 0
    endloop
  endfacet
  facet normal 0.866018 -0.500013 0
    outer loop
      vertex 39.6961 -19.0598 6
      vertex 39.7659 -18.9389 0
      vertex 39.7659 -18.9389 6
    endloop
  endfacet
  facet normal 0.866018 -0.500013 0
    outer loop
      vertex 39.7659 -18.9389 0
      vertex 39.6961 -19.0598 6
      vertex 39.6961 -19.0598 0
    endloop
  endfacet
  facet normal 0.984806 -0.17366 0
    outer loop
      vertex 39.9563 -18.4158 6
      vertex 39.9805 -18.2783 0
      vertex 39.9805 -18.2783 6
    endloop
  endfacet
  facet normal 0.984806 -0.17366 0
    outer loop
      vertex 39.9805 -18.2783 0
      vertex 39.9563 -18.4158 6
      vertex 39.9563 -18.4158 0
    endloop
  endfacet
  facet normal 0.970296 -0.241922 0
    outer loop
      vertex 39.9225 -18.5513 6
      vertex 39.9563 -18.4158 0
      vertex 39.9563 -18.4158 6
    endloop
  endfacet
  facet normal 0.970296 -0.241922 0
    outer loop
      vertex 39.9563 -18.4158 0
      vertex 39.9225 -18.5513 6
      vertex 39.9225 -18.5513 0
    endloop
  endfacet
  facet normal 0.951061 -0.309005 0
    outer loop
      vertex 39.8794 -18.684 6
      vertex 39.9225 -18.5513 0
      vertex 39.9225 -18.5513 6
    endloop
  endfacet
  facet normal 0.951061 -0.309005 0
    outer loop
      vertex 39.9225 -18.5513 0
      vertex 39.8794 -18.684 6
      vertex 39.8794 -18.684 0
    endloop
  endfacet
  facet normal -0.999391 0.0348962 0
    outer loop
      vertex -20 38 0
      vertex -19.9951 38.1395 6
      vertex -19.9951 38.1395 0
    endloop
  endfacet
  facet normal -0.999391 0.0348962 0
    outer loop
      vertex -19.9951 38.1395 6
      vertex -20 38 0
      vertex -20 38 6
    endloop
  endfacet
  facet normal -0.469486 0.88294 0
    outer loop
      vertex -18.8767 39.7976 0
      vertex -19 39.732 6
      vertex -18.8767 39.7976 6
    endloop
  endfacet
  facet normal -0.469486 0.88294 0
    outer loop
      vertex -19 39.732 6
      vertex -18.8767 39.7976 0
      vertex -19 39.732 0
    endloop
  endfacet
  facet normal -0.406727 0.91355 0
    outer loop
      vertex -18.7492 39.8544 0
      vertex -18.8767 39.7976 6
      vertex -18.7492 39.8544 6
    endloop
  endfacet
  facet normal -0.406727 0.91355 0
    outer loop
      vertex -18.8767 39.7976 6
      vertex -18.7492 39.8544 0
      vertex -18.8767 39.7976 0
    endloop
  endfacet
  facet normal -0.866018 0.500013 0
    outer loop
      vertex -19.7659 38.9389 0
      vertex -19.6961 39.0598 6
      vertex -19.6961 39.0598 0
    endloop
  endfacet
  facet normal -0.866018 0.500013 0
    outer loop
      vertex -19.6961 39.0598 6
      vertex -19.7659 38.9389 0
      vertex -19.7659 38.9389 6
    endloop
  endfacet
  facet normal 0.829045 0.559182 0
    outer loop
      vertex 39.6961 1.05984 6
      vertex 39.618 1.17557 0
      vertex 39.618 1.17557 6
    endloop
  endfacet
  facet normal 0.829045 0.559182 0
    outer loop
      vertex 39.618 1.17557 0
      vertex 39.6961 1.05984 6
      vertex 39.6961 1.05984 0
    endloop
  endfacet
  facet normal 0.866018 0.500013 0
    outer loop
      vertex 39.7659 0.938943 6
      vertex 39.6961 1.05984 0
      vertex 39.6961 1.05984 6
    endloop
  endfacet
  facet normal 0.866018 0.500013 0
    outer loop
      vertex 39.6961 1.05984 0
      vertex 39.7659 0.938943 6
      vertex 39.7659 0.938943 0
    endloop
  endfacet
  facet normal 0.984806 0.173659 0
    outer loop
      vertex 39.9805 0.278346 6
      vertex 39.9563 0.415823 0
      vertex 39.9563 0.415823 6
    endloop
  endfacet
  facet normal 0.984806 0.173659 0
    outer loop
      vertex 39.9563 0.415823 0
      vertex 39.9805 0.278346 6
      vertex 39.9805 0.278346 0
    endloop
  endfacet
  facet normal 0.92718 0.374616 0
    outer loop
      vertex 39.8794 0.68404 6
      vertex 39.8271 0.813473 0
      vertex 39.8271 0.813473 6
    endloop
  endfacet
  facet normal 0.92718 0.374616 0
    outer loop
      vertex 39.8271 0.813473 0
      vertex 39.8794 0.68404 6
      vertex 39.8794 0.68404 0
    endloop
  endfacet
  facet normal 0.95106 0.309007 0
    outer loop
      vertex 39.9225 0.551274 6
      vertex 39.8794 0.68404 0
      vertex 39.8794 0.68404 6
    endloop
  endfacet
  facet normal 0.95106 0.309007 0
    outer loop
      vertex 39.8794 0.68404 0
      vertex 39.9225 0.551274 6
      vertex 39.9225 0.551274 0
    endloop
  endfacet
  facet normal 0.642788 -0.766044 0
    outer loop
      vertex 39.2313 -19.576 0
      vertex 39.3383 -19.4863 6
      vertex 39.2313 -19.576 6
    endloop
  endfacet
  facet normal 0.642788 -0.766044 0
    outer loop
      vertex 39.3383 -19.4863 6
      vertex 39.2313 -19.576 0
      vertex 39.3383 -19.4863 0
    endloop
  endfacet
  facet normal 0.587776 -0.809024 0
    outer loop
      vertex 39.1184 -19.6581 0
      vertex 39.2313 -19.576 6
      vertex 39.1184 -19.6581 6
    endloop
  endfacet
  facet normal 0.587776 -0.809024 0
    outer loop
      vertex 39.2313 -19.576 6
      vertex 39.1184 -19.6581 0
      vertex 39.2313 -19.576 0
    endloop
  endfacet
  facet normal 0.78801 -0.615663 0
    outer loop
      vertex 39.5321 -19.2856 6
      vertex 39.618 -19.1756 0
      vertex 39.618 -19.1756 6
    endloop
  endfacet
  facet normal 0.78801 -0.615663 0
    outer loop
      vertex 39.618 -19.1756 0
      vertex 39.5321 -19.2856 6
      vertex 39.5321 -19.2856 0
    endloop
  endfacet
  facet normal 0.743138 -0.669138 0
    outer loop
      vertex 39.4387 -19.3893 6
      vertex 39.5321 -19.2856 0
      vertex 39.5321 -19.2856 6
    endloop
  endfacet
  facet normal 0.743138 -0.669138 0
    outer loop
      vertex 39.5321 -19.2856 0
      vertex 39.4387 -19.3893 6
      vertex 39.4387 -19.3893 0
    endloop
  endfacet
  facet normal 0.92718 -0.374616 0
    outer loop
      vertex 39.8271 -18.8135 6
      vertex 39.8794 -18.684 0
      vertex 39.8794 -18.684 6
    endloop
  endfacet
  facet normal 0.92718 -0.374616 0
    outer loop
      vertex 39.8794 -18.684 0
      vertex 39.8271 -18.8135 6
      vertex 39.8271 -18.8135 0
    endloop
  endfacet
  facet normal 0.694661 -0.719337 0
    outer loop
      vertex 39.3383 -19.4863 0
      vertex 39.4387 -19.3893 6
      vertex 39.3383 -19.4863 6
    endloop
  endfacet
  facet normal 0.694661 -0.719337 0
    outer loop
      vertex 39.4387 -19.3893 6
      vertex 39.3383 -19.4863 0
      vertex 39.4387 -19.3893 0
    endloop
  endfacet
  facet normal -0.92388 -0.382683 0
    outer loop
      vertex -7.83522 -10 0
      vertex -8.46927 -8.46927 6
      vertex -8.46927 -8.46927 0
    endloop
  endfacet
  facet normal -0.92388 -0.382683 0
    outer loop
      vertex -8.46927 -8.46927 6
      vertex -7.83522 -10 0
      vertex -7.83522 -10 6
    endloop
  endfacet
  facet normal 0.92388 -0.382683 0
    outer loop
      vertex -12.1648 -10 6
      vertex -11.5307 -8.46927 0
      vertex -11.5307 -8.46927 6
    endloop
  endfacet
  facet normal 0.92388 -0.382683 0
    outer loop
      vertex -11.5307 -8.46927 0
      vertex -12.1648 -10 6
      vertex -12.1648 -10 0
    endloop
  endfacet
  facet normal -0.382683 0.92388 0
    outer loop
      vertex -8.46927 -11.5307 0
      vertex -10 -12.1648 6
      vertex -8.46927 -11.5307 6
    endloop
  endfacet
  facet normal -0.382683 0.92388 0
    outer loop
      vertex -10 -12.1648 6
      vertex -8.46927 -11.5307 0
      vertex -10 -12.1648 0
    endloop
  endfacet
  facet normal 0.382683 -0.92388 0
    outer loop
      vertex -11.5307 -8.46927 0
      vertex -10 -7.83522 6
      vertex -11.5307 -8.46927 6
    endloop
  endfacet
  facet normal 0.382683 -0.92388 0
    outer loop
      vertex -10 -7.83522 6
      vertex -11.5307 -8.46927 0
      vertex -10 -7.83522 0
    endloop
  endfacet
  facet normal -0.382683 -0.92388 0
    outer loop
      vertex -10 -7.83522 0
      vertex -8.46927 -8.46927 6
      vertex -10 -7.83522 6
    endloop
  endfacet
  facet normal -0.382683 -0.92388 -0
    outer loop
      vertex -8.46927 -8.46927 6
      vertex -10 -7.83522 0
      vertex -8.46927 -8.46927 0
    endloop
  endfacet
  facet normal -0.92388 0.382683 0
    outer loop
      vertex -8.46927 -11.5307 0
      vertex -7.83522 -10 6
      vertex -7.83522 -10 0
    endloop
  endfacet
  facet normal -0.92388 0.382683 0
    outer loop
      vertex -7.83522 -10 6
      vertex -8.46927 -11.5307 0
      vertex -8.46927 -11.5307 6
    endloop
  endfacet
  facet normal 0.382683 0.92388 -0
    outer loop
      vertex -10 -12.1648 0
      vertex -11.5307 -11.5307 6
      vertex -10 -12.1648 6
    endloop
  endfacet
  facet normal 0.382683 0.92388 0
    outer loop
      vertex -11.5307 -11.5307 6
      vertex -10 -12.1648 0
      vertex -11.5307 -11.5307 0
    endloop
  endfacet
  facet normal 0.92388 0.382683 0
    outer loop
      vertex -11.5307 -11.5307 6
      vertex -12.1648 -10 0
      vertex -12.1648 -10 6
    endloop
  endfacet
  facet normal 0.92388 0.382683 0
    outer loop
      vertex -12.1648 -10 0
      vertex -11.5307 -11.5307 6
      vertex -11.5307 -11.5307 0
    endloop
  endfacet
  facet normal -0.92388 -0.382683 0
    outer loop
      vertex -7.83522 10 0
      vertex -8.46927 11.5307 6
      vertex -8.46927 11.5307 0
    endloop
  endfacet
  facet normal -0.92388 -0.382683 0
    outer loop
      vertex -8.46927 11.5307 6
      vertex -7.83522 10 0
      vertex -7.83522 10 6
    endloop
  endfacet
  facet normal 0.382683 -0.92388 0
    outer loop
      vertex -11.5307 11.5307 0
      vertex -10 12.1648 6
      vertex -11.5307 11.5307 6
    endloop
  endfacet
  facet normal 0.382683 -0.92388 0
    outer loop
      vertex -10 12.1648 6
      vertex -11.5307 11.5307 0
      vertex -10 12.1648 0
    endloop
  endfacet
  facet normal -0.382683 -0.92388 0
    outer loop
      vertex -10 12.1648 0
      vertex -8.46927 11.5307 6
      vertex -10 12.1648 6
    endloop
  endfacet
  facet normal -0.382683 -0.92388 -0
    outer loop
      vertex -8.46927 11.5307 6
      vertex -10 12.1648 0
      vertex -8.46927 11.5307 0
    endloop
  endfacet
  facet normal 0.92388 -0.382683 0
    outer loop
      vertex -12.1648 10 6
      vertex -11.5307 11.5307 0
      vertex -11.5307 11.5307 6
    endloop
  endfacet
  facet normal 0.92388 -0.382683 0
    outer loop
      vertex -11.5307 11.5307 0
      vertex -12.1648 10 6
      vertex -12.1648 10 0
    endloop
  endfacet
  facet normal -0.92388 0.382683 0
    outer loop
      vertex -8.46927 8.46927 0
      vertex -7.83522 10 6
      vertex -7.83522 10 0
    endloop
  endfacet
  facet normal -0.92388 0.382683 0
    outer loop
      vertex -7.83522 10 6
      vertex -8.46927 8.46927 0
      vertex -8.46927 8.46927 6
    endloop
  endfacet
  facet normal 0.382683 0.92388 -0
    outer loop
      vertex -10 7.83522 0
      vertex -11.5307 8.46927 6
      vertex -10 7.83522 6
    endloop
  endfacet
  facet normal 0.382683 0.92388 0
    outer loop
      vertex -11.5307 8.46927 6
      vertex -10 7.83522 0
      vertex -11.5307 8.46927 0
    endloop
  endfacet
  facet normal 0.92388 0.382683 0
    outer loop
      vertex -11.5307 8.46927 6
      vertex -12.1648 10 0
      vertex -12.1648 10 6
    endloop
  endfacet
  facet normal 0.92388 0.382683 0
    outer loop
      vertex -12.1648 10 0
      vertex -11.5307 8.46927 6
      vertex -11.5307 8.46927 0
    endloop
  endfacet
  facet normal -0.382683 0.92388 0
    outer loop
      vertex -8.46927 8.46927 0
      vertex -10 7.83522 6
      vertex -8.46927 8.46927 6
    endloop
  endfacet
  facet normal -0.382683 0.92388 0
    outer loop
      vertex -10 7.83522 6
      vertex -8.46927 8.46927 0
      vertex -10 7.83522 0
    endloop
  endfacet
  facet normal -0.92388 -0.382683 0
    outer loop
      vertex -7.83522 30 0
      vertex -8.46927 31.5307 6
      vertex -8.46927 31.5307 0
    endloop
  endfacet
  facet normal -0.92388 -0.382683 0
    outer loop
      vertex -8.46927 31.5307 6
      vertex -7.83522 30 0
      vertex -7.83522 30 6
    endloop
  endfacet
  facet normal 0.382683 -0.92388 0
    outer loop
      vertex -11.5307 31.5307 0
      vertex -10 32.1648 6
      vertex -11.5307 31.5307 6
    endloop
  endfacet
  facet normal 0.382683 -0.92388 0
    outer loop
      vertex -10 32.1648 6
      vertex -11.5307 31.5307 0
      vertex -10 32.1648 0
    endloop
  endfacet
  facet normal -0.382683 -0.92388 0
    outer loop
      vertex -10 32.1648 0
      vertex -8.46927 31.5307 6
      vertex -10 32.1648 6
    endloop
  endfacet
  facet normal -0.382683 -0.92388 -0
    outer loop
      vertex -8.46927 31.5307 6
      vertex -10 32.1648 0
      vertex -8.46927 31.5307 0
    endloop
  endfacet
  facet normal 0.92388 -0.382683 0
    outer loop
      vertex -12.1648 30 6
      vertex -11.5307 31.5307 0
      vertex -11.5307 31.5307 6
    endloop
  endfacet
  facet normal 0.92388 -0.382683 0
    outer loop
      vertex -11.5307 31.5307 0
      vertex -12.1648 30 6
      vertex -12.1648 30 0
    endloop
  endfacet
  facet normal -0.92388 0.382683 0
    outer loop
      vertex -8.46927 28.4693 0
      vertex -7.83522 30 6
      vertex -7.83522 30 0
    endloop
  endfacet
  facet normal -0.92388 0.382683 0
    outer loop
      vertex -7.83522 30 6
      vertex -8.46927 28.4693 0
      vertex -8.46927 28.4693 6
    endloop
  endfacet
  facet normal 0.382682 0.92388 -0
    outer loop
      vertex -10 27.8352 0
      vertex -11.5307 28.4693 6
      vertex -10 27.8352 6
    endloop
  endfacet
  facet normal 0.382682 0.92388 0
    outer loop
      vertex -11.5307 28.4693 6
      vertex -10 27.8352 0
      vertex -11.5307 28.4693 0
    endloop
  endfacet
  facet normal 0.92388 0.382683 0
    outer loop
      vertex -11.5307 28.4693 6
      vertex -12.1648 30 0
      vertex -12.1648 30 6
    endloop
  endfacet
  facet normal 0.92388 0.382683 0
    outer loop
      vertex -12.1648 30 0
      vertex -11.5307 28.4693 6
      vertex -11.5307 28.4693 0
    endloop
  endfacet
  facet normal -0.382682 0.92388 0
    outer loop
      vertex -8.46927 28.4693 0
      vertex -10 27.8352 6
      vertex -8.46927 28.4693 6
    endloop
  endfacet
  facet normal -0.382682 0.92388 0
    outer loop
      vertex -10 27.8352 6
      vertex -8.46927 28.4693 0
      vertex -10 27.8352 0
    endloop
  endfacet
  facet normal -0.92388 -0.382683 0
    outer loop
      vertex 12.1648 -10 0
      vertex 11.5307 -8.46927 6
      vertex 11.5307 -8.46927 0
    endloop
  endfacet
  facet normal -0.92388 -0.382683 0
    outer loop
      vertex 11.5307 -8.46927 6
      vertex 12.1648 -10 0
      vertex 12.1648 -10 6
    endloop
  endfacet
  facet normal 0.92388 -0.382683 0
    outer loop
      vertex 7.83522 -10 6
      vertex 8.46927 -8.46927 0
      vertex 8.46927 -8.46927 6
    endloop
  endfacet
  facet normal 0.92388 -0.382683 0
    outer loop
      vertex 8.46927 -8.46927 0
      vertex 7.83522 -10 6
      vertex 7.83522 -10 0
    endloop
  endfacet
  facet normal 0.382683 -0.92388 0
    outer loop
      vertex 8.46927 -8.46927 0
      vertex 10 -7.83522 6
      vertex 8.46927 -8.46927 6
    endloop
  endfacet
  facet normal 0.382683 -0.92388 0
    outer loop
      vertex 10 -7.83522 6
      vertex 8.46927 -8.46927 0
      vertex 10 -7.83522 0
    endloop
  endfacet
  facet normal -0.382683 -0.92388 0
    outer loop
      vertex 10 -7.83522 0
      vertex 11.5307 -8.46927 6
      vertex 10 -7.83522 6
    endloop
  endfacet
  facet normal -0.382683 -0.92388 -0
    outer loop
      vertex 11.5307 -8.46927 6
      vertex 10 -7.83522 0
      vertex 11.5307 -8.46927 0
    endloop
  endfacet
  facet normal -0.92388 0.382683 0
    outer loop
      vertex 11.5307 -11.5307 0
      vertex 12.1648 -10 6
      vertex 12.1648 -10 0
    endloop
  endfacet
  facet normal -0.92388 0.382683 0
    outer loop
      vertex 12.1648 -10 6
      vertex 11.5307 -11.5307 0
      vertex 11.5307 -11.5307 6
    endloop
  endfacet
  facet normal 0.92388 0.382683 0
    outer loop
      vertex 8.46927 -11.5307 6
      vertex 7.83522 -10 0
      vertex 7.83522 -10 6
    endloop
  endfacet
  facet normal 0.92388 0.382683 0
    outer loop
      vertex 7.83522 -10 0
      vertex 8.46927 -11.5307 6
      vertex 8.46927 -11.5307 0
    endloop
  endfacet
  facet normal -0.382683 0.92388 0
    outer loop
      vertex 11.5307 -11.5307 0
      vertex 10 -12.1648 6
      vertex 11.5307 -11.5307 6
    endloop
  endfacet
  facet normal -0.382683 0.92388 0
    outer loop
      vertex 10 -12.1648 6
      vertex 11.5307 -11.5307 0
      vertex 10 -12.1648 0
    endloop
  endfacet
  facet normal 0.382683 0.92388 -0
    outer loop
      vertex 10 -12.1648 0
      vertex 8.46927 -11.5307 6
      vertex 10 -12.1648 6
    endloop
  endfacet
  facet normal 0.382683 0.92388 0
    outer loop
      vertex 8.46927 -11.5307 6
      vertex 10 -12.1648 0
      vertex 8.46927 -11.5307 0
    endloop
  endfacet
  facet normal -0.92388 -0.382683 0
    outer loop
      vertex 32.1648 -10 0
      vertex 31.5307 -8.46927 6
      vertex 31.5307 -8.46927 0
    endloop
  endfacet
  facet normal -0.92388 -0.382683 0
    outer loop
      vertex 31.5307 -8.46927 6
      vertex 32.1648 -10 0
      vertex 32.1648 -10 6
    endloop
  endfacet
  facet normal 0.92388 -0.382682 0
    outer loop
      vertex 27.8352 -10 6
      vertex 28.4693 -8.46927 0
      vertex 28.4693 -8.46927 6
    endloop
  endfacet
  facet normal 0.92388 -0.382682 0
    outer loop
      vertex 28.4693 -8.46927 0
      vertex 27.8352 -10 6
      vertex 27.8352 -10 0
    endloop
  endfacet
  facet normal 0.382683 -0.92388 0
    outer loop
      vertex 28.4693 -8.46927 0
      vertex 30 -7.83522 6
      vertex 28.4693 -8.46927 6
    endloop
  endfacet
  facet normal 0.382683 -0.92388 0
    outer loop
      vertex 30 -7.83522 6
      vertex 28.4693 -8.46927 0
      vertex 30 -7.83522 0
    endloop
  endfacet
  facet normal -0.382683 -0.92388 0
    outer loop
      vertex 30 -7.83522 0
      vertex 31.5307 -8.46927 6
      vertex 30 -7.83522 6
    endloop
  endfacet
  facet normal -0.382683 -0.92388 -0
    outer loop
      vertex 31.5307 -8.46927 6
      vertex 30 -7.83522 0
      vertex 31.5307 -8.46927 0
    endloop
  endfacet
  facet normal -0.92388 0.382683 0
    outer loop
      vertex 31.5307 -11.5307 0
      vertex 32.1648 -10 6
      vertex 32.1648 -10 0
    endloop
  endfacet
  facet normal -0.92388 0.382683 0
    outer loop
      vertex 32.1648 -10 6
      vertex 31.5307 -11.5307 0
      vertex 31.5307 -11.5307 6
    endloop
  endfacet
  facet normal 0.382683 0.92388 -0
    outer loop
      vertex 30 -12.1648 0
      vertex 28.4693 -11.5307 6
      vertex 30 -12.1648 6
    endloop
  endfacet
  facet normal 0.382683 0.92388 0
    outer loop
      vertex 28.4693 -11.5307 6
      vertex 30 -12.1648 0
      vertex 28.4693 -11.5307 0
    endloop
  endfacet
  facet normal 0.92388 0.382682 0
    outer loop
      vertex 28.4693 -11.5307 6
      vertex 27.8352 -10 0
      vertex 27.8352 -10 6
    endloop
  endfacet
  facet normal 0.92388 0.382682 0
    outer loop
      vertex 27.8352 -10 0
      vertex 28.4693 -11.5307 6
      vertex 28.4693 -11.5307 0
    endloop
  endfacet
  facet normal -0.382683 0.92388 0
    outer loop
      vertex 31.5307 -11.5307 0
      vertex 30 -12.1648 6
      vertex 31.5307 -11.5307 6
    endloop
  endfacet
  facet normal -0.382683 0.92388 0
    outer loop
      vertex 30 -12.1648 6
      vertex 31.5307 -11.5307 0
      vertex 30 -12.1648 0
    endloop
  endfacet
endsolid OpenSCAD_Model
