solid OpenSCAD_Model
  facet normal -1 0 0
    outer loop
      vertex -13.205 3.69552 7.46927
      vertex -13.205 14.5 8.7
      vertex -13.205 14.5 0
    endloop
  endfacet
  facet normal -1 -0 0
    outer loop
      vertex -13.205 14.5 8.7
      vertex -13.205 3.92314 8.21964
      vertex -13.205 3.97045 8.7
    endloop
  endfacet
  facet normal -1 0 0
    outer loop
      vertex -13.205 14.5 8.7
      vertex -13.205 3.69552 7.46927
      vertex -13.205 3.92314 8.21964
    endloop
  endfacet
  facet normal -1 0 0
    outer loop
      vertex -13.205 14.5 0
      vertex -13.205 3.32588 6.77772
      vertex -13.205 3.69552 7.46927
    endloop
  endfacet
  facet normal -1 0 0
    outer loop
      vertex -13.205 14.5 0
      vertex -13.205 2.82843 6.17157
      vertex -13.205 3.32588 6.77772
    endloop
  endfacet
  facet normal -1 0 0
    outer loop
      vertex -13.205 14.5 0
      vertex -13.205 2.22228 5.67412
      vertex -13.205 2.82843 6.17157
    endloop
  endfacet
  facet normal -1 0 0
    outer loop
      vertex -13.205 14.5 0
      vertex -13.205 1.53073 5.30448
      vertex -13.205 2.22228 5.67412
    endloop
  endfacet
  facet normal -1 0 0
    outer loop
      vertex -13.205 14.5 0
      vertex -13.205 0.780361 5.07686
      vertex -13.205 1.53073 5.30448
    endloop
  endfacet
  facet normal -1 0 0
    outer loop
      vertex -13.205 14.5 0
      vertex -13.205 0.19509 5.01921
      vertex -13.205 0.780361 5.07686
    endloop
  endfacet
  facet normal -1 0 0
    outer loop
      vertex -13.205 14.5 0
      vertex -13.205 0 5
      vertex -13.205 0.19509 5.01921
    endloop
  endfacet
  facet normal -1 0 0
    outer loop
      vertex -13.205 -14.5 0
      vertex -13.205 0 5
      vertex -13.205 14.5 0
    endloop
  endfacet
  facet normal -1 -0 0
    outer loop
      vertex -13.205 0 5
      vertex -13.205 -14.5 0
      vertex -13.205 -0.19509 5.01921
    endloop
  endfacet
  facet normal -1 -0 0
    outer loop
      vertex -13.205 -0.19509 5.01921
      vertex -13.205 -14.5 0
      vertex -13.205 -0.780361 5.07686
    endloop
  endfacet
  facet normal -1 -0 0
    outer loop
      vertex -13.205 -0.780361 5.07686
      vertex -13.205 -14.5 0
      vertex -13.205 -1.53073 5.30448
    endloop
  endfacet
  facet normal -1 0 0
    outer loop
      vertex -13.205 -14.5 0
      vertex -13.205 -2.22228 5.67412
      vertex -13.205 -1.53073 5.30448
    endloop
  endfacet
  facet normal -1 0 0
    outer loop
      vertex -13.205 -14.5 0
      vertex -13.205 -2.82843 6.17157
      vertex -13.205 -2.22228 5.67412
    endloop
  endfacet
  facet normal -1 0 0
    outer loop
      vertex -13.205 -14.5 0
      vertex -13.205 -3.32588 6.77772
      vertex -13.205 -2.82843 6.17157
    endloop
  endfacet
  facet normal -1 0 0
    outer loop
      vertex -13.205 -14.5 0
      vertex -13.205 -3.69552 7.46927
      vertex -13.205 -3.32588 6.77772
    endloop
  endfacet
  facet normal -1 0 0
    outer loop
      vertex -13.205 -14.5 8.7
      vertex -13.205 -3.69552 7.46927
      vertex -13.205 -14.5 0
    endloop
  endfacet
  facet normal -1 0 0
    outer loop
      vertex -13.205 -3.69552 7.46927
      vertex -13.205 -14.5 8.7
      vertex -13.205 -3.92314 8.21964
    endloop
  endfacet
  facet normal -1 0 0
    outer loop
      vertex -13.205 -3.92314 8.21964
      vertex -13.205 -14.5 8.7
      vertex -13.205 -3.97045 8.7
    endloop
  endfacet
  facet normal 0 -1 0
    outer loop
      vertex -13.205 -14.5 0
      vertex 13.205 -14.5 8.7
      vertex -13.205 -14.5 8.7
    endloop
  endfacet
  facet normal 0 -1 -0
    outer loop
      vertex 13.205 -14.5 8.7
      vertex -13.205 -14.5 0
      vertex 13.205 -14.5 0
    endloop
  endfacet
  facet normal 0 0 -1
    outer loop
      vertex 0.866025 -5.25 0
      vertex 1.73205 6.75 0
      vertex 1.73205 -6.75 0
    endloop
  endfacet
  facet normal 0 0 -1
    outer loop
      vertex 0.866025 -5.25 0
      vertex 0.866025 5.25 0
      vertex 1.73205 6.75 0
    endloop
  endfacet
  facet normal 0 0 -1
    outer loop
      vertex -0.866025 -5.25 0
      vertex 0.866025 5.25 0
      vertex 0.866025 -5.25 0
    endloop
  endfacet
  facet normal 0 0 -1
    outer loop
      vertex -0.866025 -5.25 0
      vertex -0.866025 5.25 0
      vertex 0.866025 5.25 0
    endloop
  endfacet
  facet normal 0 0 -1
    outer loop
      vertex -1.73205 -6.75 0
      vertex -0.866025 5.25 0
      vertex -0.866025 -5.25 0
    endloop
  endfacet
  facet normal -0 0 -1
    outer loop
      vertex -0.866025 5.25 0
      vertex -1.73205 -6.75 0
      vertex -1.73205 6.75 0
    endloop
  endfacet
  facet normal 0 0 -1
    outer loop
      vertex 1.73205 6.75 0
      vertex 13.205 27.5 0
      vertex 13.205 -14.5 0
    endloop
  endfacet
  facet normal 0 -0 -1
    outer loop
      vertex 5.10605 23.158 0
      vertex 13.205 27.5 0
      vertex 1.73205 6.75 0
    endloop
  endfacet
  facet normal 0 -0 -1
    outer loop
      vertex 6.00274 24.4571 0
      vertex 13.205 27.5 0
      vertex 5.10605 23.158 0
    endloop
  endfacet
  facet normal 0 -0 -1
    outer loop
      vertex 6.56247 25.933 0
      vertex 13.205 27.5 0
      vertex 6.00274 24.4571 0
    endloop
  endfacet
  facet normal 0 -0 -1
    outer loop
      vertex 6.75274 27.5 0
      vertex 13.205 27.5 0
      vertex 6.56247 25.933 0
    endloop
  endfacet
  facet normal 0 0 -1
    outer loop
      vertex 6.56247 29.067 0
      vertex 13.0785 29.3092 0
      vertex 6.75274 27.5 0
    endloop
  endfacet
  facet normal -0 0 -1
    outer loop
      vertex 13.0785 29.3092 0
      vertex 6.56247 29.067 0
      vertex 12.9209 30.2029 0
    endloop
  endfacet
  facet normal -0 0 -1
    outer loop
      vertex 12.9209 30.2029 0
      vertex 6.56247 29.067 0
      vertex 12.7014 31.0833 0
    endloop
  endfacet
  facet normal 0 0 -1
    outer loop
      vertex 6.00274 30.5429 0
      vertex 12.421 31.9463 0
      vertex 6.56247 29.067 0
    endloop
  endfacet
  facet normal -0 0 -1
    outer loop
      vertex 12.421 31.9463 0
      vertex 6.00274 30.5429 0
      vertex 12.0811 32.7876 0
    endloop
  endfacet
  facet normal -0 0 -1
    outer loop
      vertex 12.0811 32.7876 0
      vertex 6.00274 30.5429 0
      vertex 11.6833 33.6031 0
    endloop
  endfacet
  facet normal -0 0 -1
    outer loop
      vertex 11.6833 33.6031 0
      vertex 6.00274 30.5429 0
      vertex 11.2296 34.389 0
    endloop
  endfacet
  facet normal -0 0 -1
    outer loop
      vertex 11.2296 34.389 0
      vertex 6.00274 30.5429 0
      vertex 10.7222 35.1412 0
    endloop
  endfacet
  facet normal -0 0 -1
    outer loop
      vertex 10.7222 35.1412 0
      vertex 5.10605 31.842 0
      vertex 10.1636 35.8562 0
    endloop
  endfacet
  facet normal -0 0 -1
    outer loop
      vertex 10.1636 35.8562 0
      vertex 5.10605 31.842 0
      vertex 9.55642 36.5306 0
    endloop
  endfacet
  facet normal 0 0 -1
    outer loop
      vertex 5.10605 31.842 0
      vertex 10.7222 35.1412 0
      vertex 6.00274 30.5429 0
    endloop
  endfacet
  facet normal -0 0 -1
    outer loop
      vertex 12.7014 31.0833 0
      vertex 6.56247 29.067 0
      vertex 12.421 31.9463 0
    endloop
  endfacet
  facet normal -0 0 -1
    outer loop
      vertex 13.1733 28.4068 0
      vertex 6.75274 27.5 0
      vertex 13.0785 29.3092 0
    endloop
  endfacet
  facet normal 0 0 -1
    outer loop
      vertex 13.205 27.5 0
      vertex 6.75274 27.5 0
      vertex 13.1733 28.4068 0
    endloop
  endfacet
  facet normal 0 0 -1
    outer loop
      vertex 5.10605 23.158 0
      vertex 1.73205 6.75 0
      vertex 3.92454 22.1113 0
    endloop
  endfacet
  facet normal 0 0 -1
    outer loop
      vertex 1.73205 6.75 0
      vertex 13.205 -14.5 0
      vertex 1.73205 -6.75 0
    endloop
  endfacet
  facet normal 0 0 -1
    outer loop
      vertex 13.205 -14.5 0
      vertex 0.866025 -8.25 0
      vertex 1.73205 -6.75 0
    endloop
  endfacet
  facet normal 0 0 -1
    outer loop
      vertex 13.205 -14.5 0
      vertex -0.866025 -8.25 0
      vertex 0.866025 -8.25 0
    endloop
  endfacet
  facet normal 0 0 -1
    outer loop
      vertex -13.205 14.5 0
      vertex -1.73205 6.75 0
      vertex -1.73205 -6.75 0
    endloop
  endfacet
  facet normal 0 0 -1
    outer loop
      vertex -1.73205 6.75 0
      vertex -13.205 14.5 0
      vertex -2.11686 21.3778 0
    endloop
  endfacet
  facet normal -0 0 -1
    outer loop
      vertex -2.11686 21.3778 0
      vertex -13.205 14.5 0
      vertex -3.51454 22.1113 0
    endloop
  endfacet
  facet normal -0 0 -1
    outer loop
      vertex -3.51454 22.1113 0
      vertex -13.205 14.5 0
      vertex -4.69605 23.158 0
    endloop
  endfacet
  facet normal -0 0 -1
    outer loop
      vertex -4.69605 23.158 0
      vertex -13.205 14.5 0
      vertex -5.59274 24.4571 0
    endloop
  endfacet
  facet normal 0 0 -1
    outer loop
      vertex -3.51454 32.8887 0
      vertex -7.7986 37.7441 0
      vertex -7.06451 38.2775 0
    endloop
  endfacet
  facet normal 0 0 -1
    outer loop
      vertex -12.795 27.5 0
      vertex -6.34274 27.5 0
      vertex -6.15247 25.933 0
    endloop
  endfacet
  facet normal 0 -0 -1
    outer loop
      vertex -12.795 27.5 0
      vertex -5.59274 24.4571 0
      vertex -13.205 14.5 0
    endloop
  endfacet
  facet normal 0 0 -1
    outer loop
      vertex -5.59274 24.4571 0
      vertex -12.795 27.5 0
      vertex -6.15247 25.933 0
    endloop
  endfacet
  facet normal 0 0 -1
    outer loop
      vertex -6.34274 27.5 0
      vertex -12.795 27.5 0
      vertex -12.7633 28.4068 0
    endloop
  endfacet
  facet normal 0 0 -1
    outer loop
      vertex -6.15247 29.067 0
      vertex -8.4937 37.1609 0
      vertex -7.7986 37.7441 0
    endloop
  endfacet
  facet normal 0 0 -1
    outer loop
      vertex -6.15247 29.067 0
      vertex -9.75358 35.8562 0
      vertex -9.14642 36.5306 0
    endloop
  endfacet
  facet normal 0 0 -1
    outer loop
      vertex -6.15247 29.067 0
      vertex -10.3122 35.1412 0
      vertex -9.75358 35.8562 0
    endloop
  endfacet
  facet normal 0 0 -1
    outer loop
      vertex -6.15247 29.067 0
      vertex -10.8196 34.389 0
      vertex -10.3122 35.1412 0
    endloop
  endfacet
  facet normal 0 0 -1
    outer loop
      vertex -6.15247 29.067 0
      vertex -11.2733 33.6031 0
      vertex -10.8196 34.389 0
    endloop
  endfacet
  facet normal 0 0 -1
    outer loop
      vertex -6.15247 29.067 0
      vertex -11.6711 32.7876 0
      vertex -11.2733 33.6031 0
    endloop
  endfacet
  facet normal 0 0 -1
    outer loop
      vertex -6.15247 29.067 0
      vertex -12.011 31.9463 0
      vertex -11.6711 32.7876 0
    endloop
  endfacet
  facet normal 0 0 -1
    outer loop
      vertex -6.15247 29.067 0
      vertex -12.2914 31.0833 0
      vertex -12.011 31.9463 0
    endloop
  endfacet
  facet normal 0 0 -1
    outer loop
      vertex -6.15247 29.067 0
      vertex -12.5109 30.2029 0
      vertex -12.2914 31.0833 0
    endloop
  endfacet
  facet normal 0 0 -1
    outer loop
      vertex -6.15247 29.067 0
      vertex -12.6685 29.3092 0
      vertex -12.5109 30.2029 0
    endloop
  endfacet
  facet normal 0 0 -1
    outer loop
      vertex -6.34274 27.5 0
      vertex -12.7633 28.4068 0
      vertex -12.6685 29.3092 0
    endloop
  endfacet
  facet normal 0 0 -1
    outer loop
      vertex -13.205 -14.5 0
      vertex -0.866025 -8.25 0
      vertex 13.205 -14.5 0
    endloop
  endfacet
  facet normal 0 0 -1
    outer loop
      vertex -13.205 -14.5 0
      vertex -1.73205 -6.75 0
      vertex -0.866025 -8.25 0
    endloop
  endfacet
  facet normal 0 0 -1
    outer loop
      vertex -13.205 14.5 0
      vertex -1.73205 -6.75 0
      vertex -13.205 -14.5 0
    endloop
  endfacet
  facet normal 0 0 -1
    outer loop
      vertex -6.15247 29.067 0
      vertex -9.14642 36.5306 0
      vertex -8.4937 37.1609 0
    endloop
  endfacet
  facet normal -0 0 -1
    outer loop
      vertex 9.55642 36.5306 0
      vertex 5.10605 31.842 0
      vertex 8.9037 37.1609 0
    endloop
  endfacet
  facet normal 0 0 -1
    outer loop
      vertex 3.92454 32.8887 0
      vertex 8.9037 37.1609 0
      vertex 5.10605 31.842 0
    endloop
  endfacet
  facet normal -0 0 -1
    outer loop
      vertex 8.9037 37.1609 0
      vertex 3.92454 32.8887 0
      vertex 8.2086 37.7441 0
    endloop
  endfacet
  facet normal -0 0 -1
    outer loop
      vertex 8.2086 37.7441 0
      vertex 3.92454 32.8887 0
      vertex 7.47451 38.2775 0
    endloop
  endfacet
  facet normal -0 0 -1
    outer loop
      vertex 7.47451 38.2775 0
      vertex 3.92454 32.8887 0
      vertex 6.705 38.7583 0
    endloop
  endfacet
  facet normal -0 0 -1
    outer loop
      vertex 6.705 38.7583 0
      vertex 3.92454 32.8887 0
      vertex 5.90382 39.1843 0
    endloop
  endfacet
  facet normal 0 0 -1
    outer loop
      vertex 2.52686 33.6222 0
      vertex 5.90382 39.1843 0
      vertex 3.92454 32.8887 0
    endloop
  endfacet
  facet normal -0 0 -1
    outer loop
      vertex 5.90382 39.1843 0
      vertex 2.52686 33.6222 0
      vertex 5.07489 39.5534 0
    endloop
  endfacet
  facet normal -0 0 -1
    outer loop
      vertex 5.07489 39.5534 0
      vertex 2.52686 33.6222 0
      vertex 4.22222 39.8637 0
    endloop
  endfacet
  facet normal -0 0 -1
    outer loop
      vertex 4.22222 39.8637 0
      vertex 2.52686 33.6222 0
      vertex 3.34998 40.1138 0
    endloop
  endfacet
  facet normal 0 0 -1
    outer loop
      vertex 0.994243 34 0
      vertex 3.34998 40.1138 0
      vertex 2.52686 33.6222 0
    endloop
  endfacet
  facet normal -0 0 -1
    outer loop
      vertex 3.34998 40.1138 0
      vertex 0.994243 34 0
      vertex 2.46243 40.3025 0
    endloop
  endfacet
  facet normal -0 0 -1
    outer loop
      vertex 2.46243 40.3025 0
      vertex 0.994243 34 0
      vertex 1.56387 40.4288 0
    endloop
  endfacet
  facet normal 0 0 -1
    outer loop
      vertex 0.994243 34 0
      vertex 0.658693 40.4921 0
      vertex 1.56387 40.4288 0
    endloop
  endfacet
  facet normal 0 0 -1
    outer loop
      vertex 0.994243 34 0
      vertex -0.248693 40.4921 0
      vertex 0.658693 40.4921 0
    endloop
  endfacet
  facet normal 0 0 -1
    outer loop
      vertex -0.584243 34 0
      vertex -0.248693 40.4921 0
      vertex 0.994243 34 0
    endloop
  endfacet
  facet normal 0 0 -1
    outer loop
      vertex -0.584243 34 0
      vertex -1.15387 40.4288 0
      vertex -0.248693 40.4921 0
    endloop
  endfacet
  facet normal 0 0 -1
    outer loop
      vertex -0.584243 34 0
      vertex -2.05243 40.3025 0
      vertex -1.15387 40.4288 0
    endloop
  endfacet
  facet normal 0 0 -1
    outer loop
      vertex -2.93998 40.1138 0
      vertex -0.584243 34 0
      vertex -2.11686 33.6222 0
    endloop
  endfacet
  facet normal 0 0 -1
    outer loop
      vertex -0.584243 34 0
      vertex -2.93998 40.1138 0
      vertex -2.05243 40.3025 0
    endloop
  endfacet
  facet normal 0 0 -1
    outer loop
      vertex -5.49382 39.1843 0
      vertex -2.11686 33.6222 0
      vertex -3.51454 32.8887 0
    endloop
  endfacet
  facet normal 0 0 -1
    outer loop
      vertex -2.11686 33.6222 0
      vertex -3.81222 39.8637 0
      vertex -2.93998 40.1138 0
    endloop
  endfacet
  facet normal 0 0 -1
    outer loop
      vertex -2.11686 33.6222 0
      vertex -4.66489 39.5534 0
      vertex -3.81222 39.8637 0
    endloop
  endfacet
  facet normal 0 0 -1
    outer loop
      vertex -7.7986 37.7441 0
      vertex -3.51454 32.8887 0
      vertex -4.69605 31.842 0
    endloop
  endfacet
  facet normal 0 0 -1
    outer loop
      vertex -2.11686 33.6222 0
      vertex -5.49382 39.1843 0
      vertex -4.66489 39.5534 0
    endloop
  endfacet
  facet normal 0 0 -1
    outer loop
      vertex -7.7986 37.7441 0
      vertex -4.69605 31.842 0
      vertex -5.59274 30.5429 0
    endloop
  endfacet
  facet normal 0 0 -1
    outer loop
      vertex -7.7986 37.7441 0
      vertex -5.59274 30.5429 0
      vertex -6.15247 29.067 0
    endloop
  endfacet
  facet normal 0 0 -1
    outer loop
      vertex -3.51454 32.8887 0
      vertex -6.295 38.7583 0
      vertex -5.49382 39.1843 0
    endloop
  endfacet
  facet normal 0 0 -1
    outer loop
      vertex -12.6685 29.3092 0
      vertex -6.15247 29.067 0
      vertex -6.34274 27.5 0
    endloop
  endfacet
  facet normal 0 0 -1
    outer loop
      vertex -3.51454 32.8887 0
      vertex -7.06451 38.2775 0
      vertex -6.295 38.7583 0
    endloop
  endfacet
  facet normal 0 0 -1
    outer loop
      vertex 0.866025 8.25 0
      vertex 3.92454 22.1113 0
      vertex 1.73205 6.75 0
    endloop
  endfacet
  facet normal 0 0 -1
    outer loop
      vertex 3.92454 22.1113 0
      vertex 0.866025 8.25 0
      vertex 2.52686 21.3778 0
    endloop
  endfacet
  facet normal 0 0 -1
    outer loop
      vertex 2.52686 21.3778 0
      vertex 0.866025 8.25 0
      vertex 0.994243 21 0
    endloop
  endfacet
  facet normal 0 0 -1
    outer loop
      vertex 0.866025 8.25 0
      vertex -0.584243 21 0
      vertex 0.994243 21 0
    endloop
  endfacet
  facet normal 0 0 -1
    outer loop
      vertex -0.866025 8.25 0
      vertex -0.584243 21 0
      vertex 0.866025 8.25 0
    endloop
  endfacet
  facet normal 0 0 -1
    outer loop
      vertex -2.11686 21.3778 0
      vertex -0.866025 8.25 0
      vertex -1.73205 6.75 0
    endloop
  endfacet
  facet normal 0 0 -1
    outer loop
      vertex -0.866025 8.25 0
      vertex -2.11686 21.3778 0
      vertex -0.584243 21 0
    endloop
  endfacet
  facet normal 1 0 0
    outer loop
      vertex 13.205 14.5 8.7
      vertex 13.205 27.5 19.7
      vertex 13.205 14.5 19.7
    endloop
  endfacet
  facet normal 1 0 0
    outer loop
      vertex 13.205 27.5 19.7
      vertex 13.205 14.5 8.7
      vertex 13.205 27.5 0
    endloop
  endfacet
  facet normal 1 0 0
    outer loop
      vertex 13.205 3.94236 8.41473
      vertex 13.205 14.5 8.7
      vertex 13.205 3.97045 8.7
    endloop
  endfacet
  facet normal 1 0 0
    outer loop
      vertex 13.205 3.92314 8.21964
      vertex 13.205 14.5 8.7
      vertex 13.205 3.94236 8.41473
    endloop
  endfacet
  facet normal 1 0 0
    outer loop
      vertex 13.205 3.69552 7.46927
      vertex 13.205 14.5 8.7
      vertex 13.205 3.92314 8.21964
    endloop
  endfacet
  facet normal 1 0 0
    outer loop
      vertex 13.205 3.32588 6.77772
      vertex 13.205 14.5 8.7
      vertex 13.205 3.69552 7.46927
    endloop
  endfacet
  facet normal 1 0 0
    outer loop
      vertex 13.205 2.82843 6.17157
      vertex 13.205 14.5 8.7
      vertex 13.205 3.32588 6.77772
    endloop
  endfacet
  facet normal 1 0 0
    outer loop
      vertex 13.205 2.22228 5.67412
      vertex 13.205 14.5 8.7
      vertex 13.205 2.82843 6.17157
    endloop
  endfacet
  facet normal 1 0 0
    outer loop
      vertex 13.205 14.5 8.7
      vertex 13.205 2.22228 5.67412
      vertex 13.205 27.5 0
    endloop
  endfacet
  facet normal 1 -0 0
    outer loop
      vertex 13.205 1.53073 5.30448
      vertex 13.205 27.5 0
      vertex 13.205 2.22228 5.67412
    endloop
  endfacet
  facet normal 1 -0 0
    outer loop
      vertex 13.205 0.780361 5.07686
      vertex 13.205 27.5 0
      vertex 13.205 1.53073 5.30448
    endloop
  endfacet
  facet normal 1 0 0
    outer loop
      vertex 13.205 -14.5 0
      vertex 13.205 0.780361 5.07686
      vertex 13.205 0.585271 5.05764
    endloop
  endfacet
  facet normal 1 0 0
    outer loop
      vertex 13.205 -14.5 0
      vertex 13.205 0.585271 5.05764
      vertex 13.205 0 5
    endloop
  endfacet
  facet normal 1 0 0
    outer loop
      vertex 13.205 -14.5 0
      vertex 13.205 0 5
      vertex 13.205 -0.585271 5.05764
    endloop
  endfacet
  facet normal 1 0 0
    outer loop
      vertex 13.205 -14.5 0
      vertex 13.205 -0.585271 5.05764
      vertex 13.205 -0.780361 5.07686
    endloop
  endfacet
  facet normal 1 -0 0
    outer loop
      vertex 13.205 -14.5 8.7
      vertex 13.205 -3.94236 8.41473
      vertex 13.205 -3.97045 8.7
    endloop
  endfacet
  facet normal 1 0 0
    outer loop
      vertex 13.205 -14.5 8.7
      vertex 13.205 -3.92314 8.21964
      vertex 13.205 -3.94236 8.41473
    endloop
  endfacet
  facet normal 1 0 0
    outer loop
      vertex 13.205 -14.5 8.7
      vertex 13.205 -3.69552 7.46927
      vertex 13.205 -3.92314 8.21964
    endloop
  endfacet
  facet normal 1 0 0
    outer loop
      vertex 13.205 -14.5 0
      vertex 13.205 -3.69552 7.46927
      vertex 13.205 -14.5 8.7
    endloop
  endfacet
  facet normal 1 0 0
    outer loop
      vertex 13.205 -3.69552 7.46927
      vertex 13.205 -14.5 0
      vertex 13.205 -3.32588 6.77772
    endloop
  endfacet
  facet normal 1 0 0
    outer loop
      vertex 13.205 -3.32588 6.77772
      vertex 13.205 -14.5 0
      vertex 13.205 -2.82843 6.17157
    endloop
  endfacet
  facet normal 1 0 0
    outer loop
      vertex 13.205 -2.82843 6.17157
      vertex 13.205 -14.5 0
      vertex 13.205 -2.22228 5.67412
    endloop
  endfacet
  facet normal 1 0 0
    outer loop
      vertex 13.205 -2.22228 5.67412
      vertex 13.205 -14.5 0
      vertex 13.205 -1.53073 5.30448
    endloop
  endfacet
  facet normal 1 0 0
    outer loop
      vertex 13.205 0.780361 5.07686
      vertex 13.205 -14.5 0
      vertex 13.205 27.5 0
    endloop
  endfacet
  facet normal 1 0 0
    outer loop
      vertex 13.205 -1.53073 5.30448
      vertex 13.205 -14.5 0
      vertex 13.205 -0.780361 5.07686
    endloop
  endfacet
  facet normal -0.994522 0.104528 0
    outer loop
      vertex -12.7633 28.4068 0
      vertex -12.6685 29.3092 19.7
      vertex -12.6685 29.3092 0
    endloop
  endfacet
  facet normal -0.994522 0.104528 0
    outer loop
      vertex -12.6685 29.3092 19.7
      vertex -12.7633 28.4068 0
      vertex -12.7633 28.4068 19.7
    endloop
  endfacet
  facet normal 0 0 1
    outer loop
      vertex 13.205 -3.97045 8.7
      vertex 1.73205 -6.75 8.7
      vertex 13.205 -14.5 8.7
    endloop
  endfacet
  facet normal 0 0 1
    outer loop
      vertex 13.205 -3.97045 8.7
      vertex 0.866025 -5.25 8.7
      vertex 1.73205 -6.75 8.7
    endloop
  endfacet
  facet normal -0 0 1
    outer loop
      vertex -6.10407 -3.97045 8.7
      vertex 0.866025 -5.25 8.7
      vertex 13.205 -3.97045 8.7
    endloop
  endfacet
  facet normal 0 0 1
    outer loop
      vertex -0.866025 -5.25 8.7
      vertex -6.10407 -3.97045 8.7
      vertex -1.73205 -6.75 8.7
    endloop
  endfacet
  facet normal 0 0 1
    outer loop
      vertex 0.866025 -5.25 8.7
      vertex -6.10407 -3.97045 8.7
      vertex -0.866025 -5.25 8.7
    endloop
  endfacet
  facet normal -0 0 1
    outer loop
      vertex 0.866025 -8.25 8.7
      vertex 13.205 -14.5 8.7
      vertex 1.73205 -6.75 8.7
    endloop
  endfacet
  facet normal -0 0 1
    outer loop
      vertex -0.866025 -8.25 8.7
      vertex 13.205 -14.5 8.7
      vertex 0.866025 -8.25 8.7
    endloop
  endfacet
  facet normal 0 0 1
    outer loop
      vertex -13.205 -14.5 8.7
      vertex -1.73205 -6.75 8.7
      vertex -6.10407 -3.97045 8.7
    endloop
  endfacet
  facet normal 0 0 1
    outer loop
      vertex -13.205 -14.5 8.7
      vertex -6.10407 -3.97045 8.7
      vertex -13.205 -3.97045 8.7
    endloop
  endfacet
  facet normal 0 0 1
    outer loop
      vertex -1.73205 -6.75 8.7
      vertex -13.205 -14.5 8.7
      vertex -0.866025 -8.25 8.7
    endloop
  endfacet
  facet normal 0 0 1
    outer loop
      vertex -0.866025 -8.25 8.7
      vertex -13.205 -14.5 8.7
      vertex 13.205 -14.5 8.7
    endloop
  endfacet
  facet normal 0 0 1
    outer loop
      vertex 13.205 14.5 8.7
      vertex 1.73205 6.75 8.7
      vertex 13.205 3.97045 8.7
    endloop
  endfacet
  facet normal 0 0 1
    outer loop
      vertex 13.205 14.5 8.7
      vertex 0.866025 8.25 8.7
      vertex 1.73205 6.75 8.7
    endloop
  endfacet
  facet normal -0 0 1
    outer loop
      vertex -7.923 14.5 8.7
      vertex 0.866025 8.25 8.7
      vertex 13.205 14.5 8.7
    endloop
  endfacet
  facet normal 0 0 1
    outer loop
      vertex -7.923 14.5 8.7
      vertex -1.73205 6.75 8.7
      vertex -0.866025 8.25 8.7
    endloop
  endfacet
  facet normal 0 0 1
    outer loop
      vertex 0.866025 8.25 8.7
      vertex -7.923 14.5 8.7
      vertex -0.866025 8.25 8.7
    endloop
  endfacet
  facet normal 0 0 1
    outer loop
      vertex -1.73205 6.75 8.7
      vertex -7.923 14.5 8.7
      vertex -6.10407 3.97045 8.7
    endloop
  endfacet
  facet normal 0 0 1
    outer loop
      vertex -13.205 14.5 8.7
      vertex -7.923 14.5 8.7
      vertex -11.6711 22.2124 8.7
    endloop
  endfacet
  facet normal 0 0 1
    outer loop
      vertex -13.205 14.5 8.7
      vertex -11.6711 22.2124 8.7
      vertex -12.011 23.0537 8.7
    endloop
  endfacet
  facet normal 0 0 1
    outer loop
      vertex -13.205 14.5 8.7
      vertex -12.011 23.0537 8.7
      vertex -12.2914 23.9167 8.7
    endloop
  endfacet
  facet normal 0 0 1
    outer loop
      vertex -13.205 14.5 8.7
      vertex -12.7633 26.5932 8.7
      vertex -12.795 27.5 8.7
    endloop
  endfacet
  facet normal 0 0 1
    outer loop
      vertex -13.205 14.5 8.7
      vertex -12.6685 25.6908 8.7
      vertex -12.7633 26.5932 8.7
    endloop
  endfacet
  facet normal 0 0 1
    outer loop
      vertex -13.205 14.5 8.7
      vertex -12.5109 24.7971 8.7
      vertex -12.6685 25.6908 8.7
    endloop
  endfacet
  facet normal 0 0 1
    outer loop
      vertex -13.205 14.5 8.7
      vertex -12.2914 23.9167 8.7
      vertex -12.5109 24.7971 8.7
    endloop
  endfacet
  facet normal 0 0 1
    outer loop
      vertex -13.205 3.97045 8.7
      vertex -7.923 14.5 8.7
      vertex -13.205 14.5 8.7
    endloop
  endfacet
  facet normal 0 0 1
    outer loop
      vertex -7.923 14.5 8.7
      vertex -13.205 3.97045 8.7
      vertex -6.10407 3.97045 8.7
    endloop
  endfacet
  facet normal -0 0 1
    outer loop
      vertex 0.866025 5.25 8.7
      vertex 13.205 3.97045 8.7
      vertex 1.73205 6.75 8.7
    endloop
  endfacet
  facet normal 0 0 1
    outer loop
      vertex -6.10407 3.97045 8.7
      vertex 0.866025 5.25 8.7
      vertex -0.866025 5.25 8.7
    endloop
  endfacet
  facet normal 0 0 1
    outer loop
      vertex 0.866025 5.25 8.7
      vertex -6.10407 3.97045 8.7
      vertex 13.205 3.97045 8.7
    endloop
  endfacet
  facet normal 0 0 1
    outer loop
      vertex -6.10407 3.97045 8.7
      vertex -0.866025 5.25 8.7
      vertex -1.73205 6.75 8.7
    endloop
  endfacet
  facet normal 0.970296 0.241921 0
    outer loop
      vertex 12.9209 30.2029 19.7
      vertex 12.7014 31.0833 0
      vertex 12.7014 31.0833 19.7
    endloop
  endfacet
  facet normal 0.970296 0.241921 0
    outer loop
      vertex 12.7014 31.0833 0
      vertex 12.9209 30.2029 19.7
      vertex 12.9209 30.2029 0
    endloop
  endfacet
  facet normal -0.694657 0.719341 0
    outer loop
      vertex -8.4937 37.1609 0
      vertex -9.14642 36.5306 19.7
      vertex -8.4937 37.1609 19.7
    endloop
  endfacet
  facet normal -0.694657 0.719341 0
    outer loop
      vertex -9.14642 36.5306 19.7
      vertex -8.4937 37.1609 0
      vertex -9.14642 36.5306 0
    endloop
  endfacet
  facet normal 0.994522 0.104528 0
    outer loop
      vertex 13.1733 28.4068 19.7
      vertex 13.0785 29.3092 0
      vertex 13.0785 29.3092 19.7
    endloop
  endfacet
  facet normal 0.994522 0.104528 0
    outer loop
      vertex 13.0785 29.3092 0
      vertex 13.1733 28.4068 19.7
      vertex 13.1733 28.4068 0
    endloop
  endfacet
  facet normal 0.694657 0.719341 -0
    outer loop
      vertex 9.55642 36.5306 0
      vertex 8.9037 37.1609 19.7
      vertex 9.55642 36.5306 19.7
    endloop
  endfacet
  facet normal 0.694657 0.719341 0
    outer loop
      vertex 8.9037 37.1609 19.7
      vertex 9.55642 36.5306 0
      vertex 8.9037 37.1609 0
    endloop
  endfacet
  facet normal 0.927184 0.374607 0
    outer loop
      vertex 12.421 31.9463 19.7
      vertex 12.0811 32.7876 0
      vertex 12.0811 32.7876 19.7
    endloop
  endfacet
  facet normal 0.927184 0.374607 0
    outer loop
      vertex 12.0811 32.7876 0
      vertex 12.421 31.9463 19.7
      vertex 12.421 31.9463 0
    endloop
  endfacet
  facet normal 0.999391 0.0348999 0
    outer loop
      vertex 13.205 27.5 19.7
      vertex 13.1733 28.4068 0
      vertex 13.1733 28.4068 19.7
    endloop
  endfacet
  facet normal 0.999391 0.0348999 0
    outer loop
      vertex 13.1733 28.4068 0
      vertex 13.205 27.5 19.7
      vertex 13.205 27.5 0
    endloop
  endfacet
  facet normal -0.587785 0.809017 0
    outer loop
      vertex -7.06451 38.2775 0
      vertex -7.7986 37.7441 19.7
      vertex -7.06451 38.2775 19.7
    endloop
  endfacet
  facet normal -0.587785 0.809017 0
    outer loop
      vertex -7.7986 37.7441 19.7
      vertex -7.06451 38.2775 0
      vertex -7.7986 37.7441 0
    endloop
  endfacet
  facet normal 0.0697578 0.997564 -0
    outer loop
      vertex 1.56387 40.4288 0
      vertex 0.658693 40.4921 19.7
      vertex 1.56387 40.4288 19.7
    endloop
  endfacet
  facet normal 0.0697578 0.997564 0
    outer loop
      vertex 0.658693 40.4921 19.7
      vertex 1.56387 40.4288 0
      vertex 0.658693 40.4921 0
    endloop
  endfacet
  facet normal 0.64279 0.766043 -0
    outer loop
      vertex 8.9037 37.1609 0
      vertex 8.2086 37.7441 19.7
      vertex 8.9037 37.1609 19.7
    endloop
  endfacet
  facet normal 0.64279 0.766043 0
    outer loop
      vertex 8.2086 37.7441 19.7
      vertex 8.9037 37.1609 0
      vertex 8.2086 37.7441 0
    endloop
  endfacet
  facet normal -0.951056 0.309017 0
    outer loop
      vertex -12.2914 31.0833 0
      vertex -12.011 31.9463 19.7
      vertex -12.011 31.9463 0
    endloop
  endfacet
  facet normal -0.951056 0.309017 0
    outer loop
      vertex -12.011 31.9463 19.7
      vertex -12.2914 31.0833 0
      vertex -12.2914 31.0833 19.7
    endloop
  endfacet
  facet normal -0.898795 0.43837 0
    outer loop
      vertex -11.6711 32.7876 0
      vertex -11.2733 33.6031 19.7
      vertex -11.2733 33.6031 0
    endloop
  endfacet
  facet normal -0.898795 0.43837 0
    outer loop
      vertex -11.2733 33.6031 19.7
      vertex -11.6711 32.7876 0
      vertex -11.6711 32.7876 19.7
    endloop
  endfacet
  facet normal -0.999503 0.0315228 0
    outer loop
      vertex -13.205 14.5 0
      vertex -12.795 27.5 8.7
      vertex -12.795 27.5 0
    endloop
  endfacet
  facet normal -0.999503 0.0315228 0
    outer loop
      vertex -12.795 27.5 8.7
      vertex -13.205 14.5 0
      vertex -13.205 14.5 8.7
    endloop
  endfacet
  facet normal -0.999391 0.0348989 0
    outer loop
      vertex -12.795 27.5 8.7
      vertex -12.7633 28.4068 0
      vertex -12.795 27.5 0
    endloop
  endfacet
  facet normal -0.999391 0.0348989 0
    outer loop
      vertex -12.7633 28.4068 0
      vertex -12.795 27.5 8.7
      vertex -12.7633 28.4068 19.7
    endloop
  endfacet
  facet normal -0.999391 0.0348989 0
    outer loop
      vertex -12.7633 28.4068 19.7
      vertex -12.795 27.5 8.7
      vertex -12.795 27.5 19.7
    endloop
  endfacet
  facet normal 0.829038 0.559193 0
    outer loop
      vertex 11.2296 34.389 19.7
      vertex 10.7222 35.1412 0
      vertex 10.7222 35.1412 19.7
    endloop
  endfacet
  facet normal 0.829038 0.559193 0
    outer loop
      vertex 10.7222 35.1412 0
      vertex 11.2296 34.389 19.7
      vertex 11.2296 34.389 0
    endloop
  endfacet
  facet normal 0.984808 0.173648 0
    outer loop
      vertex 13.0785 29.3092 19.7
      vertex 12.9209 30.2029 0
      vertex 12.9209 30.2029 19.7
    endloop
  endfacet
  facet normal 0.984808 0.173648 0
    outer loop
      vertex 12.9209 30.2029 0
      vertex 13.0785 29.3092 19.7
      vertex 13.0785 29.3092 0
    endloop
  endfacet
  facet normal -0.139171 0.990268 0
    outer loop
      vertex -1.15387 40.4288 0
      vertex -2.05243 40.3025 19.7
      vertex -1.15387 40.4288 19.7
    endloop
  endfacet
  facet normal -0.139171 0.990268 0
    outer loop
      vertex -2.05243 40.3025 19.7
      vertex -1.15387 40.4288 0
      vertex -2.05243 40.3025 0
    endloop
  endfacet
  facet normal 0 1 -0
    outer loop
      vertex 0.658693 40.4921 0
      vertex -0.248693 40.4921 19.7
      vertex 0.658693 40.4921 19.7
    endloop
  endfacet
  facet normal 0 1 0
    outer loop
      vertex -0.248693 40.4921 19.7
      vertex 0.658693 40.4921 0
      vertex -0.248693 40.4921 0
    endloop
  endfacet
  facet normal -0.34202 0.939693 0
    outer loop
      vertex -3.81222 39.8637 0
      vertex -4.66489 39.5534 19.7
      vertex -3.81222 39.8637 19.7
    endloop
  endfacet
  facet normal -0.34202 0.939693 0
    outer loop
      vertex -4.66489 39.5534 19.7
      vertex -3.81222 39.8637 0
      vertex -4.66489 39.5534 0
    endloop
  endfacet
  facet normal 0.46947 0.882948 -0
    outer loop
      vertex 6.705 38.7583 0
      vertex 5.90382 39.1843 19.7
      vertex 6.705 38.7583 19.7
    endloop
  endfacet
  facet normal 0.46947 0.882948 0
    outer loop
      vertex 5.90382 39.1843 19.7
      vertex 6.705 38.7583 0
      vertex 5.90382 39.1843 0
    endloop
  endfacet
  facet normal -0.927183 0.374608 0
    outer loop
      vertex -12.011 31.9463 0
      vertex -11.6711 32.7876 19.7
      vertex -11.6711 32.7876 0
    endloop
  endfacet
  facet normal -0.927183 0.374608 0
    outer loop
      vertex -11.6711 32.7876 19.7
      vertex -12.011 31.9463 0
      vertex -12.011 31.9463 19.7
    endloop
  endfacet
  facet normal 0.951056 0.309017 0
    outer loop
      vertex 12.7014 31.0833 19.7
      vertex 12.421 31.9463 0
      vertex 12.421 31.9463 19.7
    endloop
  endfacet
  facet normal 0.951056 0.309017 0
    outer loop
      vertex 12.421 31.9463 0
      vertex 12.7014 31.0833 19.7
      vertex 12.7014 31.0833 0
    endloop
  endfacet
  facet normal -0.642789 0.766043 0
    outer loop
      vertex -7.7986 37.7441 0
      vertex -8.4937 37.1609 19.7
      vertex -7.7986 37.7441 19.7
    endloop
  endfacet
  facet normal -0.642789 0.766043 0
    outer loop
      vertex -8.4937 37.1609 19.7
      vertex -7.7986 37.7441 0
      vertex -8.4937 37.1609 0
    endloop
  endfacet
  facet normal -0.0697577 0.997564 0
    outer loop
      vertex -0.248693 40.4921 0
      vertex -1.15387 40.4288 19.7
      vertex -0.248693 40.4921 19.7
    endloop
  endfacet
  facet normal -0.0697577 0.997564 0
    outer loop
      vertex -1.15387 40.4288 19.7
      vertex -0.248693 40.4921 0
      vertex -1.15387 40.4288 0
    endloop
  endfacet
  facet normal -0.275638 0.961261 0
    outer loop
      vertex -2.93998 40.1138 0
      vertex -3.81222 39.8637 19.7
      vertex -2.93998 40.1138 19.7
    endloop
  endfacet
  facet normal -0.275638 0.961261 0
    outer loop
      vertex -3.81222 39.8637 19.7
      vertex -2.93998 40.1138 0
      vertex -3.81222 39.8637 0
    endloop
  endfacet
  facet normal -0.207911 0.978148 0
    outer loop
      vertex -2.05243 40.3025 0
      vertex -2.93998 40.1138 19.7
      vertex -2.05243 40.3025 19.7
    endloop
  endfacet
  facet normal -0.207911 0.978148 0
    outer loop
      vertex -2.93998 40.1138 19.7
      vertex -2.05243 40.3025 0
      vertex -2.93998 40.1138 0
    endloop
  endfacet
  facet normal -0.406738 0.913545 0
    outer loop
      vertex -4.66489 39.5534 0
      vertex -5.49382 39.1843 19.7
      vertex -4.66489 39.5534 19.7
    endloop
  endfacet
  facet normal -0.406738 0.913545 0
    outer loop
      vertex -5.49382 39.1843 19.7
      vertex -4.66489 39.5534 0
      vertex -5.49382 39.1843 0
    endloop
  endfacet
  facet normal 0.207911 0.978148 -0
    outer loop
      vertex 3.34998 40.1138 0
      vertex 2.46243 40.3025 19.7
      vertex 3.34998 40.1138 19.7
    endloop
  endfacet
  facet normal 0.207911 0.978148 0
    outer loop
      vertex 2.46243 40.3025 19.7
      vertex 3.34998 40.1138 0
      vertex 2.46243 40.3025 0
    endloop
  endfacet
  facet normal 0.275638 0.961261 -0
    outer loop
      vertex 4.22222 39.8637 0
      vertex 3.34998 40.1138 19.7
      vertex 4.22222 39.8637 19.7
    endloop
  endfacet
  facet normal 0.275638 0.961261 0
    outer loop
      vertex 3.34998 40.1138 19.7
      vertex 4.22222 39.8637 0
      vertex 3.34998 40.1138 0
    endloop
  endfacet
  facet normal 0.34202 0.939693 -0
    outer loop
      vertex 5.07489 39.5534 0
      vertex 4.22222 39.8637 19.7
      vertex 5.07489 39.5534 19.7
    endloop
  endfacet
  facet normal 0.34202 0.939693 0
    outer loop
      vertex 4.22222 39.8637 19.7
      vertex 5.07489 39.5534 0
      vertex 4.22222 39.8637 0
    endloop
  endfacet
  facet normal 0.52992 0.848048 -0
    outer loop
      vertex 7.47451 38.2775 0
      vertex 6.705 38.7583 19.7
      vertex 7.47451 38.2775 19.7
    endloop
  endfacet
  facet normal 0.52992 0.848048 0
    outer loop
      vertex 6.705 38.7583 19.7
      vertex 7.47451 38.2775 0
      vertex 6.705 38.7583 0
    endloop
  endfacet
  facet normal -0.970296 0.241921 0
    outer loop
      vertex -12.5109 30.2029 0
      vertex -12.2914 31.0833 19.7
      vertex -12.2914 31.0833 0
    endloop
  endfacet
  facet normal -0.970296 0.241921 0
    outer loop
      vertex -12.2914 31.0833 19.7
      vertex -12.5109 30.2029 0
      vertex -12.5109 30.2029 19.7
    endloop
  endfacet
  facet normal -0.984808 0.173648 0
    outer loop
      vertex -12.6685 29.3092 0
      vertex -12.5109 30.2029 19.7
      vertex -12.5109 30.2029 0
    endloop
  endfacet
  facet normal -0.984808 0.173648 0
    outer loop
      vertex -12.5109 30.2029 19.7
      vertex -12.6685 29.3092 0
      vertex -12.6685 29.3092 19.7
    endloop
  endfacet
  facet normal -0.866025 0.5 0
    outer loop
      vertex -11.2733 33.6031 0
      vertex -10.8196 34.389 19.7
      vertex -10.8196 34.389 0
    endloop
  endfacet
  facet normal -0.866025 0.5 0
    outer loop
      vertex -10.8196 34.389 19.7
      vertex -11.2733 33.6031 0
      vertex -11.2733 33.6031 19.7
    endloop
  endfacet
  facet normal -0.829038 0.559193 0
    outer loop
      vertex -10.8196 34.389 0
      vertex -10.3122 35.1412 19.7
      vertex -10.3122 35.1412 0
    endloop
  endfacet
  facet normal -0.829038 0.559193 0
    outer loop
      vertex -10.3122 35.1412 19.7
      vertex -10.8196 34.389 0
      vertex -10.8196 34.389 19.7
    endloop
  endfacet
  facet normal -0.743145 0.669131 0
    outer loop
      vertex -9.75358 35.8562 0
      vertex -9.14642 36.5306 19.7
      vertex -9.14642 36.5306 0
    endloop
  endfacet
  facet normal -0.743145 0.669131 0
    outer loop
      vertex -9.14642 36.5306 19.7
      vertex -9.75358 35.8562 0
      vertex -9.75358 35.8562 19.7
    endloop
  endfacet
  facet normal 0.866025 0.5 0
    outer loop
      vertex 11.6833 33.6031 19.7
      vertex 11.2296 34.389 0
      vertex 11.2296 34.389 19.7
    endloop
  endfacet
  facet normal 0.866025 0.5 0
    outer loop
      vertex 11.2296 34.389 0
      vertex 11.6833 33.6031 19.7
      vertex 11.6833 33.6031 0
    endloop
  endfacet
  facet normal 0.898794 0.438371 0
    outer loop
      vertex 12.0811 32.7876 19.7
      vertex 11.6833 33.6031 0
      vertex 11.6833 33.6031 19.7
    endloop
  endfacet
  facet normal 0.898794 0.438371 0
    outer loop
      vertex 11.6833 33.6031 0
      vertex 12.0811 32.7876 19.7
      vertex 12.0811 32.7876 0
    endloop
  endfacet
  facet normal -0.52992 0.848048 0
    outer loop
      vertex -6.295 38.7583 0
      vertex -7.06451 38.2775 19.7
      vertex -6.295 38.7583 19.7
    endloop
  endfacet
  facet normal -0.52992 0.848048 0
    outer loop
      vertex -7.06451 38.2775 19.7
      vertex -6.295 38.7583 0
      vertex -7.06451 38.2775 0
    endloop
  endfacet
  facet normal -0.46947 0.882948 0
    outer loop
      vertex -5.49382 39.1843 0
      vertex -6.295 38.7583 19.7
      vertex -5.49382 39.1843 19.7
    endloop
  endfacet
  facet normal -0.46947 0.882948 0
    outer loop
      vertex -6.295 38.7583 19.7
      vertex -5.49382 39.1843 0
      vertex -6.295 38.7583 0
    endloop
  endfacet
  facet normal 0.139171 0.990268 -0
    outer loop
      vertex 2.46243 40.3025 0
      vertex 1.56387 40.4288 19.7
      vertex 2.46243 40.3025 19.7
    endloop
  endfacet
  facet normal 0.139171 0.990268 0
    outer loop
      vertex 1.56387 40.4288 19.7
      vertex 2.46243 40.3025 0
      vertex 1.56387 40.4288 0
    endloop
  endfacet
  facet normal 0.743145 0.669131 0
    outer loop
      vertex 10.1636 35.8562 19.7
      vertex 9.55642 36.5306 0
      vertex 9.55642 36.5306 19.7
    endloop
  endfacet
  facet normal 0.743145 0.669131 0
    outer loop
      vertex 9.55642 36.5306 0
      vertex 10.1636 35.8562 19.7
      vertex 10.1636 35.8562 0
    endloop
  endfacet
  facet normal 0.788011 0.615662 0
    outer loop
      vertex 10.7222 35.1412 19.7
      vertex 10.1636 35.8562 0
      vertex 10.1636 35.8562 19.7
    endloop
  endfacet
  facet normal 0.788011 0.615662 0
    outer loop
      vertex 10.1636 35.8562 0
      vertex 10.7222 35.1412 19.7
      vertex 10.7222 35.1412 0
    endloop
  endfacet
  facet normal 0.587785 0.809017 -0
    outer loop
      vertex 8.2086 37.7441 0
      vertex 7.47451 38.2775 19.7
      vertex 8.2086 37.7441 19.7
    endloop
  endfacet
  facet normal 0.587785 0.809017 0
    outer loop
      vertex 7.47451 38.2775 19.7
      vertex 8.2086 37.7441 0
      vertex 7.47451 38.2775 0
    endloop
  endfacet
  facet normal -0.788011 0.615662 0
    outer loop
      vertex -10.3122 35.1412 0
      vertex -9.75358 35.8562 19.7
      vertex -9.75358 35.8562 0
    endloop
  endfacet
  facet normal -0.788011 0.615662 0
    outer loop
      vertex -9.75358 35.8562 19.7
      vertex -10.3122 35.1412 0
      vertex -10.3122 35.1412 19.7
    endloop
  endfacet
  facet normal 0.406737 0.913545 -0
    outer loop
      vertex 5.90382 39.1843 0
      vertex 5.07489 39.5534 19.7
      vertex 5.90382 39.1843 19.7
    endloop
  endfacet
  facet normal 0.406737 0.913545 0
    outer loop
      vertex 5.07489 39.5534 19.7
      vertex 5.90382 39.1843 0
      vertex 5.07489 39.5534 0
    endloop
  endfacet
  facet normal 0 -1 0
    outer loop
      vertex -7.923 14.5 8.7
      vertex 13.205 14.5 19.7
      vertex -7.923 14.5 19.7
    endloop
  endfacet
  facet normal 0 -1 -0
    outer loop
      vertex 13.205 14.5 19.7
      vertex -7.923 14.5 8.7
      vertex 13.205 14.5 8.7
    endloop
  endfacet
  facet normal -0.951056 -0.309017 0
    outer loop
      vertex -12.011 23.0537 8.7
      vertex -12.2914 23.9167 19.7
      vertex -12.2914 23.9167 8.7
    endloop
  endfacet
  facet normal -0.951056 -0.309017 0
    outer loop
      vertex -12.2914 23.9167 19.7
      vertex -12.011 23.0537 8.7
      vertex -12.011 23.0537 19.7
    endloop
  endfacet
  facet normal -0.927184 -0.374607 0
    outer loop
      vertex -11.6711 22.2124 8.7
      vertex -12.011 23.0537 19.7
      vertex -12.011 23.0537 8.7
    endloop
  endfacet
  facet normal -0.927184 -0.374607 0
    outer loop
      vertex -12.011 23.0537 19.7
      vertex -11.6711 22.2124 8.7
      vertex -11.6711 22.2124 19.7
    endloop
  endfacet
  facet normal -0.994522 -0.104528 0
    outer loop
      vertex -12.6685 25.6908 8.7
      vertex -12.7633 26.5932 19.7
      vertex -12.7633 26.5932 8.7
    endloop
  endfacet
  facet normal -0.994522 -0.104528 0
    outer loop
      vertex -12.7633 26.5932 19.7
      vertex -12.6685 25.6908 8.7
      vertex -12.6685 25.6908 19.7
    endloop
  endfacet
  facet normal -0.970296 -0.241922 0
    outer loop
      vertex -12.2914 23.9167 8.7
      vertex -12.5109 24.7971 19.7
      vertex -12.5109 24.7971 8.7
    endloop
  endfacet
  facet normal -0.970296 -0.241922 0
    outer loop
      vertex -12.5109 24.7971 19.7
      vertex -12.2914 23.9167 8.7
      vertex -12.2914 23.9167 19.7
    endloop
  endfacet
  facet normal -0.984808 -0.173648 0
    outer loop
      vertex -12.5109 24.7971 8.7
      vertex -12.6685 25.6908 19.7
      vertex -12.6685 25.6908 8.7
    endloop
  endfacet
  facet normal -0.984808 -0.173648 0
    outer loop
      vertex -12.6685 25.6908 19.7
      vertex -12.5109 24.7971 8.7
      vertex -12.5109 24.7971 19.7
    endloop
  endfacet
  facet normal -0.899414 -0.437098 0
    outer loop
      vertex -7.923 14.5 8.7
      vertex -11.6711 22.2124 19.7
      vertex -11.6711 22.2124 8.7
    endloop
  endfacet
  facet normal -0.899414 -0.437098 0
    outer loop
      vertex -11.6711 22.2124 19.7
      vertex -7.923 14.5 8.7
      vertex -7.923 14.5 19.7
    endloop
  endfacet
  facet normal -0.999391 -0.0348989 0
    outer loop
      vertex -12.7633 26.5932 8.7
      vertex -12.795 27.5 19.7
      vertex -12.795 27.5 8.7
    endloop
  endfacet
  facet normal -0.999391 -0.0348989 0
    outer loop
      vertex -12.795 27.5 19.7
      vertex -12.7633 26.5932 8.7
      vertex -12.7633 26.5932 19.7
    endloop
  endfacet
  facet normal 0 0 1
    outer loop
      vertex 6.92251 34.2175 19.7
      vertex 10.1636 35.8562 19.7
      vertex 9.55642 36.5306 19.7
    endloop
  endfacet
  facet normal 0 0 1
    outer loop
      vertex 10.1636 35.8562 19.7
      vertex 9.52246 29.3534 19.7
      vertex 9.705 27.5 19.7
    endloop
  endfacet
  facet normal 0 0 1
    outer loop
      vertex 10.1636 35.8562 19.7
      vertex 8.98186 31.1355 19.7
      vertex 9.52246 29.3534 19.7
    endloop
  endfacet
  facet normal 0 0 1
    outer loop
      vertex 6.92251 34.2175 19.7
      vertex 9.55642 36.5306 19.7
      vertex 8.9037 37.1609 19.7
    endloop
  endfacet
  facet normal 0 0 1
    outer loop
      vertex 6.92251 34.2175 19.7
      vertex 8.9037 37.1609 19.7
      vertex 8.2086 37.7441 19.7
    endloop
  endfacet
  facet normal 0 0 1
    outer loop
      vertex 10.1636 35.8562 19.7
      vertex 8.10396 32.7779 19.7
      vertex 8.98186 31.1355 19.7
    endloop
  endfacet
  facet normal 0 0 1
    outer loop
      vertex 5.48292 35.399 19.7
      vertex 8.2086 37.7441 19.7
      vertex 7.47451 38.2775 19.7
    endloop
  endfacet
  facet normal 0 0 1
    outer loop
      vertex 10.1636 35.8562 19.7
      vertex 6.92251 34.2175 19.7
      vertex 8.10396 32.7779 19.7
    endloop
  endfacet
  facet normal 0 0 1
    outer loop
      vertex 5.48292 35.399 19.7
      vertex 7.47451 38.2775 19.7
      vertex 6.705 38.7583 19.7
    endloop
  endfacet
  facet normal 0 0 1
    outer loop
      vertex 3.84049 36.2769 19.7
      vertex 6.705 38.7583 19.7
      vertex 5.90382 39.1843 19.7
    endloop
  endfacet
  facet normal 0 0 1
    outer loop
      vertex 8.2086 37.7441 19.7
      vertex 5.48292 35.399 19.7
      vertex 6.92251 34.2175 19.7
    endloop
  endfacet
  facet normal 0 0 1
    outer loop
      vertex 3.84049 36.2769 19.7
      vertex 5.90382 39.1843 19.7
      vertex 5.07489 39.5534 19.7
    endloop
  endfacet
  facet normal 0 0 1
    outer loop
      vertex 3.84049 36.2769 19.7
      vertex 5.07489 39.5534 19.7
      vertex 4.22222 39.8637 19.7
    endloop
  endfacet
  facet normal 0 0 1
    outer loop
      vertex 6.705 38.7583 19.7
      vertex 3.84049 36.2769 19.7
      vertex 5.48292 35.399 19.7
    endloop
  endfacet
  facet normal 0 0 1
    outer loop
      vertex 2.05836 36.8175 19.7
      vertex 4.22222 39.8637 19.7
      vertex 3.34998 40.1138 19.7
    endloop
  endfacet
  facet normal 0 0 1
    outer loop
      vertex 2.05836 36.8175 19.7
      vertex 3.34998 40.1138 19.7
      vertex 2.46243 40.3025 19.7
    endloop
  endfacet
  facet normal 0 0 1
    outer loop
      vertex 4.22222 39.8637 19.7
      vertex 2.05836 36.8175 19.7
      vertex 3.84049 36.2769 19.7
    endloop
  endfacet
  facet normal 0 0 1
    outer loop
      vertex 1.56387 40.4288 19.7
      vertex 2.05836 36.8175 19.7
      vertex 2.46243 40.3025 19.7
    endloop
  endfacet
  facet normal 0 0 1
    outer loop
      vertex 0.205 37 19.7
      vertex 1.56387 40.4288 19.7
      vertex 0.658693 40.4921 19.7
    endloop
  endfacet
  facet normal 0 0 1
    outer loop
      vertex 1.56387 40.4288 19.7
      vertex 0.205 37 19.7
      vertex 2.05836 36.8175 19.7
    endloop
  endfacet
  facet normal -0 0 1
    outer loop
      vertex -0.248693 40.4921 19.7
      vertex 0.205 37 19.7
      vertex 0.658693 40.4921 19.7
    endloop
  endfacet
  facet normal -0 0 1
    outer loop
      vertex -1.15387 40.4288 19.7
      vertex 0.205 37 19.7
      vertex -0.248693 40.4921 19.7
    endloop
  endfacet
  facet normal 0 0 1
    outer loop
      vertex -1.15387 40.4288 19.7
      vertex -1.64836 36.8175 19.7
      vertex 0.205 37 19.7
    endloop
  endfacet
  facet normal -0 0 1
    outer loop
      vertex -2.05243 40.3025 19.7
      vertex -1.64836 36.8175 19.7
      vertex -1.15387 40.4288 19.7
    endloop
  endfacet
  facet normal -0 0 1
    outer loop
      vertex -2.93998 40.1138 19.7
      vertex -1.64836 36.8175 19.7
      vertex -2.05243 40.3025 19.7
    endloop
  endfacet
  facet normal -0 0 1
    outer loop
      vertex -3.81222 39.8637 19.7
      vertex -1.64836 36.8175 19.7
      vertex -2.93998 40.1138 19.7
    endloop
  endfacet
  facet normal 0 0 1
    outer loop
      vertex -1.64836 36.8175 19.7
      vertex -3.81222 39.8637 19.7
      vertex -3.43049 36.2769 19.7
    endloop
  endfacet
  facet normal -0 0 1
    outer loop
      vertex -4.66489 39.5534 19.7
      vertex -3.43049 36.2769 19.7
      vertex -3.81222 39.8637 19.7
    endloop
  endfacet
  facet normal -0 0 1
    outer loop
      vertex -5.49382 39.1843 19.7
      vertex -3.43049 36.2769 19.7
      vertex -4.66489 39.5534 19.7
    endloop
  endfacet
  facet normal -0 0 1
    outer loop
      vertex -6.295 38.7583 19.7
      vertex -3.43049 36.2769 19.7
      vertex -5.49382 39.1843 19.7
    endloop
  endfacet
  facet normal 0 0 1
    outer loop
      vertex -3.43049 36.2769 19.7
      vertex -6.295 38.7583 19.7
      vertex -5.07292 35.399 19.7
    endloop
  endfacet
  facet normal -0 0 1
    outer loop
      vertex -7.06451 38.2775 19.7
      vertex -5.07292 35.399 19.7
      vertex -6.295 38.7583 19.7
    endloop
  endfacet
  facet normal -0 0 1
    outer loop
      vertex -7.7986 37.7441 19.7
      vertex -5.07292 35.399 19.7
      vertex -7.06451 38.2775 19.7
    endloop
  endfacet
  facet normal 0 0 1
    outer loop
      vertex -5.07292 35.399 19.7
      vertex -7.7986 37.7441 19.7
      vertex -6.51251 34.2175 19.7
    endloop
  endfacet
  facet normal -0 0 1
    outer loop
      vertex -8.4937 37.1609 19.7
      vertex -6.51251 34.2175 19.7
      vertex -7.7986 37.7441 19.7
    endloop
  endfacet
  facet normal -0 0 1
    outer loop
      vertex -9.14642 36.5306 19.7
      vertex -6.51251 34.2175 19.7
      vertex -8.4937 37.1609 19.7
    endloop
  endfacet
  facet normal -0 0 1
    outer loop
      vertex -9.75358 35.8562 19.7
      vertex -6.51251 34.2175 19.7
      vertex -9.14642 36.5306 19.7
    endloop
  endfacet
  facet normal 0 0 1
    outer loop
      vertex -6.51251 34.2175 19.7
      vertex -9.75358 35.8562 19.7
      vertex -7.69396 32.7779 19.7
    endloop
  endfacet
  facet normal -0 0 1
    outer loop
      vertex -10.3122 35.1412 19.7
      vertex -7.69396 32.7779 19.7
      vertex -9.75358 35.8562 19.7
    endloop
  endfacet
  facet normal -0 0 1
    outer loop
      vertex -10.8196 34.389 19.7
      vertex -7.69396 32.7779 19.7
      vertex -10.3122 35.1412 19.7
    endloop
  endfacet
  facet normal -0 0 1
    outer loop
      vertex -11.2733 33.6031 19.7
      vertex -7.69396 32.7779 19.7
      vertex -10.8196 34.389 19.7
    endloop
  endfacet
  facet normal 0 0 1
    outer loop
      vertex 9.705 27.5 19.7
      vertex 13.205 27.5 19.7
      vertex 13.1733 28.4068 19.7
    endloop
  endfacet
  facet normal 0 0 1
    outer loop
      vertex 9.705 27.5 19.7
      vertex 13.1733 28.4068 19.7
      vertex 13.0785 29.3092 19.7
    endloop
  endfacet
  facet normal 0 0 1
    outer loop
      vertex 9.705 27.5 19.7
      vertex 13.0785 29.3092 19.7
      vertex 12.9209 30.2029 19.7
    endloop
  endfacet
  facet normal 0 0 1
    outer loop
      vertex 9.705 27.5 19.7
      vertex 12.9209 30.2029 19.7
      vertex 12.7014 31.0833 19.7
    endloop
  endfacet
  facet normal 0 0 1
    outer loop
      vertex 9.705 27.5 19.7
      vertex 12.7014 31.0833 19.7
      vertex 12.421 31.9463 19.7
    endloop
  endfacet
  facet normal 0 0 1
    outer loop
      vertex 9.705 27.5 19.7
      vertex 12.421 31.9463 19.7
      vertex 12.0811 32.7876 19.7
    endloop
  endfacet
  facet normal 0 0 1
    outer loop
      vertex 9.705 27.5 19.7
      vertex 12.0811 32.7876 19.7
      vertex 11.6833 33.6031 19.7
    endloop
  endfacet
  facet normal 0 0 1
    outer loop
      vertex 9.705 27.5 19.7
      vertex 11.6833 33.6031 19.7
      vertex 11.2296 34.389 19.7
    endloop
  endfacet
  facet normal 0 0 1
    outer loop
      vertex 9.705 27.5 19.7
      vertex 11.2296 34.389 19.7
      vertex 10.7222 35.1412 19.7
    endloop
  endfacet
  facet normal 0 0 1
    outer loop
      vertex 9.705 27.5 19.7
      vertex 10.7222 35.1412 19.7
      vertex 10.1636 35.8562 19.7
    endloop
  endfacet
  facet normal 0 0 1
    outer loop
      vertex 13.205 27.5 19.7
      vertex 9.705 27.5 19.7
      vertex 9.52246 25.6466 19.7
    endloop
  endfacet
  facet normal 0 0 1
    outer loop
      vertex 13.205 27.5 19.7
      vertex 9.52246 25.6466 19.7
      vertex 8.98186 23.8645 19.7
    endloop
  endfacet
  facet normal 0 0 1
    outer loop
      vertex 13.205 27.5 19.7
      vertex 8.98186 23.8645 19.7
      vertex 13.205 14.5 19.7
    endloop
  endfacet
  facet normal -0 0 1
    outer loop
      vertex 8.10396 22.2221 19.7
      vertex 13.205 14.5 19.7
      vertex 8.98186 23.8645 19.7
    endloop
  endfacet
  facet normal -0 0 1
    outer loop
      vertex 6.92251 20.7825 19.7
      vertex 13.205 14.5 19.7
      vertex 8.10396 22.2221 19.7
    endloop
  endfacet
  facet normal -0 0 1
    outer loop
      vertex 5.48292 19.601 19.7
      vertex 13.205 14.5 19.7
      vertex 6.92251 20.7825 19.7
    endloop
  endfacet
  facet normal -0 0 1
    outer loop
      vertex 3.84049 18.7231 19.7
      vertex 13.205 14.5 19.7
      vertex 5.48292 19.601 19.7
    endloop
  endfacet
  facet normal -0 0 1
    outer loop
      vertex 2.05836 18.1825 19.7
      vertex 13.205 14.5 19.7
      vertex 3.84049 18.7231 19.7
    endloop
  endfacet
  facet normal -0 0 1
    outer loop
      vertex 0.205 18 19.7
      vertex 13.205 14.5 19.7
      vertex 2.05836 18.1825 19.7
    endloop
  endfacet
  facet normal 0 0 1
    outer loop
      vertex -7.923 14.5 19.7
      vertex 0.205 18 19.7
      vertex -1.64836 18.1825 19.7
    endloop
  endfacet
  facet normal 0 0 1
    outer loop
      vertex 0.205 18 19.7
      vertex -7.923 14.5 19.7
      vertex 13.205 14.5 19.7
    endloop
  endfacet
  facet normal 0 0 1
    outer loop
      vertex -3.43049 18.7231 19.7
      vertex -7.923 14.5 19.7
      vertex -1.64836 18.1825 19.7
    endloop
  endfacet
  facet normal 0 0 1
    outer loop
      vertex -5.07292 19.601 19.7
      vertex -7.923 14.5 19.7
      vertex -3.43049 18.7231 19.7
    endloop
  endfacet
  facet normal 0 0 1
    outer loop
      vertex -6.51251 20.7825 19.7
      vertex -7.923 14.5 19.7
      vertex -5.07292 19.601 19.7
    endloop
  endfacet
  facet normal -0 0 1
    outer loop
      vertex -11.6711 22.2124 19.7
      vertex -6.51251 20.7825 19.7
      vertex -7.69396 22.2221 19.7
    endloop
  endfacet
  facet normal 0 0 1
    outer loop
      vertex -11.6711 22.2124 19.7
      vertex -7.69396 22.2221 19.7
      vertex -8.57186 23.8645 19.7
    endloop
  endfacet
  facet normal -0 0 1
    outer loop
      vertex -12.2914 23.9167 19.7
      vertex -8.57186 23.8645 19.7
      vertex -9.11246 25.6466 19.7
    endloop
  endfacet
  facet normal 0 0 1
    outer loop
      vertex -7.69396 32.7779 19.7
      vertex -11.2733 33.6031 19.7
      vertex -8.57186 31.1355 19.7
    endloop
  endfacet
  facet normal -0 0 1
    outer loop
      vertex -11.6711 32.7876 19.7
      vertex -8.57186 31.1355 19.7
      vertex -11.2733 33.6031 19.7
    endloop
  endfacet
  facet normal -0 0 1
    outer loop
      vertex -12.011 31.9463 19.7
      vertex -8.57186 31.1355 19.7
      vertex -11.6711 32.7876 19.7
    endloop
  endfacet
  facet normal 0 0 1
    outer loop
      vertex -12.2914 31.0833 19.7
      vertex -8.57186 31.1355 19.7
      vertex -12.011 31.9463 19.7
    endloop
  endfacet
  facet normal 0 0 1
    outer loop
      vertex -8.57186 31.1355 19.7
      vertex -12.2914 31.0833 19.7
      vertex -9.11246 29.3534 19.7
    endloop
  endfacet
  facet normal -0 0 1
    outer loop
      vertex -12.5109 30.2029 19.7
      vertex -9.11246 29.3534 19.7
      vertex -12.2914 31.0833 19.7
    endloop
  endfacet
  facet normal 0 0 1
    outer loop
      vertex -6.51251 20.7825 19.7
      vertex -11.6711 22.2124 19.7
      vertex -7.923 14.5 19.7
    endloop
  endfacet
  facet normal 0 0 1
    outer loop
      vertex -12.6685 29.3092 19.7
      vertex -9.11246 29.3534 19.7
      vertex -12.5109 30.2029 19.7
    endloop
  endfacet
  facet normal 0 0 1
    outer loop
      vertex -8.57186 23.8645 19.7
      vertex -12.011 23.0537 19.7
      vertex -11.6711 22.2124 19.7
    endloop
  endfacet
  facet normal 0 0 1
    outer loop
      vertex -12.7633 28.4068 19.7
      vertex -9.11246 29.3534 19.7
      vertex -12.6685 29.3092 19.7
    endloop
  endfacet
  facet normal 0 0 1
    outer loop
      vertex -8.57186 23.8645 19.7
      vertex -12.2914 23.9167 19.7
      vertex -12.011 23.0537 19.7
    endloop
  endfacet
  facet normal 0 0 1
    outer loop
      vertex -9.11246 29.3534 19.7
      vertex -12.7633 28.4068 19.7
      vertex -9.295 27.5 19.7
    endloop
  endfacet
  facet normal 0 0 1
    outer loop
      vertex -9.11246 25.6466 19.7
      vertex -12.5109 24.7971 19.7
      vertex -12.2914 23.9167 19.7
    endloop
  endfacet
  facet normal 0 0 1
    outer loop
      vertex -12.795 27.5 19.7
      vertex -9.295 27.5 19.7
      vertex -12.7633 28.4068 19.7
    endloop
  endfacet
  facet normal 0 0 1
    outer loop
      vertex -9.11246 25.6466 19.7
      vertex -12.6685 25.6908 19.7
      vertex -12.5109 24.7971 19.7
    endloop
  endfacet
  facet normal 0 -0 1
    outer loop
      vertex -12.7633 26.5932 19.7
      vertex -9.295 27.5 19.7
      vertex -12.795 27.5 19.7
    endloop
  endfacet
  facet normal 0 0 1
    outer loop
      vertex -9.11246 25.6466 19.7
      vertex -12.7633 26.5932 19.7
      vertex -12.6685 25.6908 19.7
    endloop
  endfacet
  facet normal 0 0 1
    outer loop
      vertex -9.295 27.5 19.7
      vertex -12.7633 26.5932 19.7
      vertex -9.11246 25.6466 19.7
    endloop
  endfacet
  facet normal 0 -0.0980167 0.995185
    outer loop
      vertex -13.205 0.780361 5.07686
      vertex 13.205 0.585271 5.05764
      vertex 13.205 0.780361 5.07686
    endloop
  endfacet
  facet normal -1.19788e-08 -0.0980183 0.995185
    outer loop
      vertex 13.205 0.585271 5.05764
      vertex -13.205 0.780361 5.07686
      vertex -13.205 0.19509 5.01921
    endloop
  endfacet
  facet normal -3.59365e-08 -0.0980167 0.995185
    outer loop
      vertex -13.205 0.19509 5.01921
      vertex 13.205 0 5
      vertex 13.205 0.585271 5.05764
    endloop
  endfacet
  facet normal -3.59365e-08 -0.0980167 0.995185
    outer loop
      vertex 13.205 0 5
      vertex -13.205 0.19509 5.01921
      vertex -13.205 0 5
    endloop
  endfacet
  facet normal -0 0.634394 0.77301
    outer loop
      vertex -13.205 -2.22228 5.67412
      vertex 13.205 -2.82843 6.17157
      vertex 13.205 -2.22228 5.67412
    endloop
  endfacet
  facet normal 0 0.634394 0.77301
    outer loop
      vertex 13.205 -2.82843 6.17157
      vertex -13.205 -2.22228 5.67412
      vertex -13.205 -2.82843 6.17157
    endloop
  endfacet
  facet normal 0 -0.995185 0.0980175
    outer loop
      vertex 13.205 3.94236 8.41473
      vertex 13.205 3.97045 8.7
      vertex -6.10407 3.97045 8.7
    endloop
  endfacet
  facet normal 0 -0.634394 0.77301
    outer loop
      vertex -13.205 2.82843 6.17157
      vertex 13.205 2.22228 5.67412
      vertex 13.205 2.82843 6.17157
    endloop
  endfacet
  facet normal 0 -0.634394 0.77301
    outer loop
      vertex 13.205 2.22228 5.67412
      vertex -13.205 2.82843 6.17157
      vertex -13.205 2.22228 5.67412
    endloop
  endfacet
  facet normal -0 0.290285 0.95694
    outer loop
      vertex -13.205 -0.780361 5.07686
      vertex 13.205 -1.53073 5.30448
      vertex 13.205 -0.780361 5.07686
    endloop
  endfacet
  facet normal 0 0.290285 0.95694
    outer loop
      vertex 13.205 -1.53073 5.30448
      vertex -13.205 -0.780361 5.07686
      vertex -13.205 -1.53073 5.30448
    endloop
  endfacet
  facet normal 0 -0.995185 0.0980177
    outer loop
      vertex -13.205 3.92314 8.21964
      vertex -6.10407 3.97045 8.7
      vertex -13.205 3.97045 8.7
    endloop
  endfacet
  facet normal 0 -0.995185 0.0980177
    outer loop
      vertex 13.205 3.92314 8.21964
      vertex -6.10407 3.97045 8.7
      vertex -13.205 3.92314 8.21964
    endloop
  endfacet
  facet normal 5.78147e-09 -0.995185 0.0980179
    outer loop
      vertex -6.10407 3.97045 8.7
      vertex 13.205 3.92314 8.21964
      vertex 13.205 3.94236 8.41473
    endloop
  endfacet
  facet normal 0 0.995185 0.0980175
    outer loop
      vertex 13.205 -3.97045 8.7
      vertex 13.205 -3.94236 8.41473
      vertex -6.10407 -3.97045 8.7
    endloop
  endfacet
  facet normal -1.19788e-08 0.0980183 0.995185
    outer loop
      vertex -13.205 -0.780361 5.07686
      vertex 13.205 -0.585271 5.05764
      vertex -13.205 -0.19509 5.01921
    endloop
  endfacet
  facet normal 0 0.0980167 0.995185
    outer loop
      vertex 13.205 -0.585271 5.05764
      vertex -13.205 -0.780361 5.07686
      vertex 13.205 -0.780361 5.07686
    endloop
  endfacet
  facet normal -3.59365e-08 0.0980167 0.995185
    outer loop
      vertex -13.205 -0.19509 5.01921
      vertex 13.205 0 5
      vertex -13.205 0 5
    endloop
  endfacet
  facet normal -3.59365e-08 0.0980167 0.995185
    outer loop
      vertex 13.205 0 5
      vertex -13.205 -0.19509 5.01921
      vertex 13.205 -0.585271 5.05764
    endloop
  endfacet
  facet normal 0 -0.95694 0.290285
    outer loop
      vertex -13.205 3.69552 7.46927
      vertex 13.205 3.92314 8.21964
      vertex -13.205 3.92314 8.21964
    endloop
  endfacet
  facet normal 0 -0.95694 0.290285
    outer loop
      vertex 13.205 3.92314 8.21964
      vertex -13.205 3.69552 7.46927
      vertex 13.205 3.69552 7.46927
    endloop
  endfacet
  facet normal 0 -0.881921 0.471396
    outer loop
      vertex -13.205 3.32588 6.77772
      vertex 13.205 3.69552 7.46927
      vertex -13.205 3.69552 7.46927
    endloop
  endfacet
  facet normal 0 -0.881921 0.471396
    outer loop
      vertex 13.205 3.69552 7.46927
      vertex -13.205 3.32588 6.77772
      vertex 13.205 3.32588 6.77772
    endloop
  endfacet
  facet normal 0 -0.77301 0.634394
    outer loop
      vertex -13.205 2.82843 6.17157
      vertex 13.205 3.32588 6.77772
      vertex -13.205 3.32588 6.77772
    endloop
  endfacet
  facet normal 0 -0.77301 0.634394
    outer loop
      vertex 13.205 3.32588 6.77772
      vertex -13.205 2.82843 6.17157
      vertex 13.205 2.82843 6.17157
    endloop
  endfacet
  facet normal -0 0.471396 0.881921
    outer loop
      vertex -13.205 -1.53073 5.30448
      vertex 13.205 -2.22228 5.67412
      vertex 13.205 -1.53073 5.30448
    endloop
  endfacet
  facet normal 0 0.471396 0.881921
    outer loop
      vertex 13.205 -2.22228 5.67412
      vertex -13.205 -1.53073 5.30448
      vertex -13.205 -2.22228 5.67412
    endloop
  endfacet
  facet normal 0 -0.471396 0.881921
    outer loop
      vertex -13.205 2.22228 5.67412
      vertex 13.205 1.53073 5.30448
      vertex 13.205 2.22228 5.67412
    endloop
  endfacet
  facet normal 0 -0.471396 0.881921
    outer loop
      vertex 13.205 1.53073 5.30448
      vertex -13.205 2.22228 5.67412
      vertex -13.205 1.53073 5.30448
    endloop
  endfacet
  facet normal 0 -0.290285 0.95694
    outer loop
      vertex -13.205 1.53073 5.30448
      vertex 13.205 0.780361 5.07686
      vertex 13.205 1.53073 5.30448
    endloop
  endfacet
  facet normal 0 -0.290285 0.95694
    outer loop
      vertex 13.205 0.780361 5.07686
      vertex -13.205 1.53073 5.30448
      vertex -13.205 0.780361 5.07686
    endloop
  endfacet
  facet normal 0 0.95694 0.290285
    outer loop
      vertex 13.205 -3.69552 7.46927
      vertex -13.205 -3.92314 8.21964
      vertex 13.205 -3.92314 8.21964
    endloop
  endfacet
  facet normal 0 0.95694 0.290285
    outer loop
      vertex -13.205 -3.92314 8.21964
      vertex 13.205 -3.69552 7.46927
      vertex -13.205 -3.69552 7.46927
    endloop
  endfacet
  facet normal 5.78147e-09 0.995185 0.0980179
    outer loop
      vertex 13.205 -3.92314 8.21964
      vertex -6.10407 -3.97045 8.7
      vertex 13.205 -3.94236 8.41473
    endloop
  endfacet
  facet normal 0 0.995185 0.0980177
    outer loop
      vertex -6.10407 -3.97045 8.7
      vertex 13.205 -3.92314 8.21964
      vertex -13.205 -3.92314 8.21964
    endloop
  endfacet
  facet normal 0 0.995185 0.0980177
    outer loop
      vertex -6.10407 -3.97045 8.7
      vertex -13.205 -3.92314 8.21964
      vertex -13.205 -3.97045 8.7
    endloop
  endfacet
  facet normal 0 0.881921 0.471396
    outer loop
      vertex 13.205 -3.32588 6.77772
      vertex -13.205 -3.69552 7.46927
      vertex 13.205 -3.69552 7.46927
    endloop
  endfacet
  facet normal 0 0.881921 0.471396
    outer loop
      vertex -13.205 -3.69552 7.46927
      vertex 13.205 -3.32588 6.77772
      vertex -13.205 -3.32588 6.77772
    endloop
  endfacet
  facet normal 0 0.77301 0.634394
    outer loop
      vertex 13.205 -2.82843 6.17157
      vertex -13.205 -3.32588 6.77772
      vertex 13.205 -3.32588 6.77772
    endloop
  endfacet
  facet normal 0 0.77301 0.634394
    outer loop
      vertex -13.205 -3.32588 6.77772
      vertex 13.205 -2.82843 6.17157
      vertex -13.205 -2.82843 6.17157
    endloop
  endfacet
  facet normal -0.866026 -0.5 0
    outer loop
      vertex 1.73205 6.75 0
      vertex 0.866025 8.25 8.7
      vertex 0.866025 8.25 0
    endloop
  endfacet
  facet normal -0.866026 -0.5 0
    outer loop
      vertex 0.866025 8.25 8.7
      vertex 1.73205 6.75 0
      vertex 1.73205 6.75 8.7
    endloop
  endfacet
  facet normal 0.866026 -0.5 0
    outer loop
      vertex -1.73205 6.75 8.7
      vertex -0.866025 8.25 0
      vertex -0.866025 8.25 8.7
    endloop
  endfacet
  facet normal 0.866026 -0.5 0
    outer loop
      vertex -0.866025 8.25 0
      vertex -1.73205 6.75 8.7
      vertex -1.73205 6.75 0
    endloop
  endfacet
  facet normal 0 -1 0
    outer loop
      vertex -0.866025 8.25 0
      vertex 0.866025 8.25 8.7
      vertex -0.866025 8.25 8.7
    endloop
  endfacet
  facet normal 0 -1 -0
    outer loop
      vertex 0.866025 8.25 8.7
      vertex -0.866025 8.25 0
      vertex 0.866025 8.25 0
    endloop
  endfacet
  facet normal -0.866026 0.5 0
    outer loop
      vertex 0.866025 5.25 0
      vertex 1.73205 6.75 8.7
      vertex 1.73205 6.75 0
    endloop
  endfacet
  facet normal -0.866026 0.5 0
    outer loop
      vertex 1.73205 6.75 8.7
      vertex 0.866025 5.25 0
      vertex 0.866025 5.25 8.7
    endloop
  endfacet
  facet normal 0 1 -0
    outer loop
      vertex 0.866025 5.25 0
      vertex -0.866025 5.25 8.7
      vertex 0.866025 5.25 8.7
    endloop
  endfacet
  facet normal 0 1 0
    outer loop
      vertex -0.866025 5.25 8.7
      vertex 0.866025 5.25 0
      vertex -0.866025 5.25 0
    endloop
  endfacet
  facet normal 0.866026 0.5 0
    outer loop
      vertex -0.866025 5.25 8.7
      vertex -1.73205 6.75 0
      vertex -1.73205 6.75 8.7
    endloop
  endfacet
  facet normal 0.866026 0.5 0
    outer loop
      vertex -1.73205 6.75 0
      vertex -0.866025 5.25 8.7
      vertex -0.866025 5.25 0
    endloop
  endfacet
  facet normal -0.866026 -0.5 0
    outer loop
      vertex 1.73205 -6.75 0
      vertex 0.866025 -5.25 8.7
      vertex 0.866025 -5.25 0
    endloop
  endfacet
  facet normal -0.866026 -0.5 0
    outer loop
      vertex 0.866025 -5.25 8.7
      vertex 1.73205 -6.75 0
      vertex 1.73205 -6.75 8.7
    endloop
  endfacet
  facet normal 0.866026 -0.5 0
    outer loop
      vertex -1.73205 -6.75 8.7
      vertex -0.866025 -5.25 0
      vertex -0.866025 -5.25 8.7
    endloop
  endfacet
  facet normal 0.866026 -0.5 0
    outer loop
      vertex -0.866025 -5.25 0
      vertex -1.73205 -6.75 8.7
      vertex -1.73205 -6.75 0
    endloop
  endfacet
  facet normal 0 -1 0
    outer loop
      vertex -0.866025 -5.25 0
      vertex 0.866025 -5.25 8.7
      vertex -0.866025 -5.25 8.7
    endloop
  endfacet
  facet normal 0 -1 -0
    outer loop
      vertex 0.866025 -5.25 8.7
      vertex -0.866025 -5.25 0
      vertex 0.866025 -5.25 0
    endloop
  endfacet
  facet normal 0.866026 0.5 0
    outer loop
      vertex -0.866025 -8.25 8.7
      vertex -1.73205 -6.75 0
      vertex -1.73205 -6.75 8.7
    endloop
  endfacet
  facet normal 0.866026 0.5 0
    outer loop
      vertex -1.73205 -6.75 0
      vertex -0.866025 -8.25 8.7
      vertex -0.866025 -8.25 0
    endloop
  endfacet
  facet normal -0.866026 0.5 0
    outer loop
      vertex 0.866025 -8.25 0
      vertex 1.73205 -6.75 8.7
      vertex 1.73205 -6.75 0
    endloop
  endfacet
  facet normal -0.866026 0.5 0
    outer loop
      vertex 1.73205 -6.75 8.7
      vertex 0.866025 -8.25 0
      vertex 0.866025 -8.25 8.7
    endloop
  endfacet
  facet normal 0 1 -0
    outer loop
      vertex 0.866025 -8.25 0
      vertex -0.866025 -8.25 8.7
      vertex 0.866025 -8.25 8.7
    endloop
  endfacet
  facet normal 0 1 0
    outer loop
      vertex -0.866025 -8.25 8.7
      vertex 0.866025 -8.25 0
      vertex -0.866025 -8.25 0
    endloop
  endfacet
  facet normal -0.992709 -0.120537 0
    outer loop
      vertex 6.75274 27.5 0
      vertex 6.56247 29.067 12.7
      vertex 6.56247 29.067 0
    endloop
  endfacet
  facet normal -0.992709 -0.120537 0
    outer loop
      vertex 6.56247 29.067 12.7
      vertex 6.75274 27.5 0
      vertex 6.75274 27.5 12.7
    endloop
  endfacet
  facet normal 0.992709 -0.120537 0
    outer loop
      vertex -6.34274 27.5 12.7
      vertex -6.15247 29.067 0
      vertex -6.15247 29.067 12.7
    endloop
  endfacet
  facet normal 0.992709 -0.120537 0
    outer loop
      vertex -6.15247 29.067 0
      vertex -6.34274 27.5 12.7
      vertex -6.34274 27.5 0
    endloop
  endfacet
  facet normal 0 -1 0
    outer loop
      vertex -0.584243 34 0
      vertex 0.994243 34 12.7
      vertex -0.584243 34 12.7
    endloop
  endfacet
  facet normal 0 -1 -0
    outer loop
      vertex 0.994243 34 12.7
      vertex -0.584243 34 0
      vertex 0.994243 34 0
    endloop
  endfacet
  facet normal 0 1 -0
    outer loop
      vertex 0.994243 21 0
      vertex -0.584243 21 12.7
      vertex 0.994243 21 12.7
    endloop
  endfacet
  facet normal 0 1 0
    outer loop
      vertex -0.584243 21 12.7
      vertex 0.994243 21 0
      vertex -0.584243 21 0
    endloop
  endfacet
  facet normal 0.663123 0.748511 -0
    outer loop
      vertex -3.51454 22.1113 0
      vertex -4.69605 23.158 12.7
      vertex -3.51454 22.1113 12.7
    endloop
  endfacet
  facet normal 0.663123 0.748511 0
    outer loop
      vertex -4.69605 23.158 12.7
      vertex -3.51454 22.1113 0
      vertex -4.69605 23.158 0
    endloop
  endfacet
  facet normal -0.663123 -0.748511 0
    outer loop
      vertex 3.92454 32.8887 0
      vertex 5.10605 31.842 12.7
      vertex 3.92454 32.8887 12.7
    endloop
  endfacet
  facet normal -0.663123 -0.748511 -0
    outer loop
      vertex 5.10605 31.842 12.7
      vertex 3.92454 32.8887 0
      vertex 5.10605 31.842 0
    endloop
  endfacet
  facet normal -0.935016 -0.354605 0
    outer loop
      vertex 6.56247 29.067 0
      vertex 6.00274 30.5429 12.7
      vertex 6.00274 30.5429 0
    endloop
  endfacet
  facet normal -0.935016 -0.354605 0
    outer loop
      vertex 6.00274 30.5429 12.7
      vertex 6.56247 29.067 0
      vertex 6.56247 29.067 12.7
    endloop
  endfacet
  facet normal 0.663123 -0.748511 0
    outer loop
      vertex -4.69605 31.842 0
      vertex -3.51454 32.8887 12.7
      vertex -4.69605 31.842 12.7
    endloop
  endfacet
  facet normal 0.663123 -0.748511 0
    outer loop
      vertex -3.51454 32.8887 12.7
      vertex -4.69605 31.842 0
      vertex -3.51454 32.8887 0
    endloop
  endfacet
  facet normal 0.464723 -0.885456 0
    outer loop
      vertex -3.51454 32.8887 0
      vertex -2.11686 33.6222 12.7
      vertex -3.51454 32.8887 12.7
    endloop
  endfacet
  facet normal 0.464723 -0.885456 0
    outer loop
      vertex -2.11686 33.6222 12.7
      vertex -3.51454 32.8887 0
      vertex -2.11686 33.6222 0
    endloop
  endfacet
  facet normal -0.822984 0.568065 0
    outer loop
      vertex 5.10605 23.158 0
      vertex 6.00274 24.4571 12.7
      vertex 6.00274 24.4571 0
    endloop
  endfacet
  facet normal -0.822984 0.568065 0
    outer loop
      vertex 6.00274 24.4571 12.7
      vertex 5.10605 23.158 0
      vertex 5.10605 23.158 12.7
    endloop
  endfacet
  facet normal -0.935016 0.354605 0
    outer loop
      vertex 6.00274 24.4571 0
      vertex 6.56247 25.933 12.7
      vertex 6.56247 25.933 0
    endloop
  endfacet
  facet normal -0.935016 0.354605 0
    outer loop
      vertex 6.56247 25.933 12.7
      vertex 6.00274 24.4571 0
      vertex 6.00274 24.4571 12.7
    endloop
  endfacet
  facet normal 0.464723 0.885456 -0
    outer loop
      vertex -2.11686 21.3778 0
      vertex -3.51454 22.1113 12.7
      vertex -2.11686 21.3778 12.7
    endloop
  endfacet
  facet normal 0.464723 0.885456 0
    outer loop
      vertex -3.51454 22.1113 12.7
      vertex -2.11686 21.3778 0
      vertex -3.51454 22.1113 0
    endloop
  endfacet
  facet normal -0.822984 -0.568065 0
    outer loop
      vertex 6.00274 30.5429 0
      vertex 5.10605 31.842 12.7
      vertex 5.10605 31.842 0
    endloop
  endfacet
  facet normal -0.822984 -0.568065 0
    outer loop
      vertex 5.10605 31.842 12.7
      vertex 6.00274 30.5429 0
      vertex 6.00274 30.5429 12.7
    endloop
  endfacet
  facet normal -0.239317 -0.970942 0
    outer loop
      vertex 0.994243 34 0
      vertex 2.52686 33.6222 12.7
      vertex 0.994243 34 12.7
    endloop
  endfacet
  facet normal -0.239317 -0.970942 -0
    outer loop
      vertex 2.52686 33.6222 12.7
      vertex 0.994243 34 0
      vertex 2.52686 33.6222 0
    endloop
  endfacet
  facet normal -0.464723 -0.885456 0
    outer loop
      vertex 2.52686 33.6222 0
      vertex 3.92454 32.8887 12.7
      vertex 2.52686 33.6222 12.7
    endloop
  endfacet
  facet normal -0.464723 -0.885456 -0
    outer loop
      vertex 3.92454 32.8887 12.7
      vertex 2.52686 33.6222 0
      vertex 3.92454 32.8887 0
    endloop
  endfacet
  facet normal 0.822984 -0.568065 0
    outer loop
      vertex -5.59274 30.5429 12.7
      vertex -4.69605 31.842 0
      vertex -4.69605 31.842 12.7
    endloop
  endfacet
  facet normal 0.822984 -0.568065 0
    outer loop
      vertex -4.69605 31.842 0
      vertex -5.59274 30.5429 12.7
      vertex -5.59274 30.5429 0
    endloop
  endfacet
  facet normal 0.935016 -0.354605 0
    outer loop
      vertex -6.15247 29.067 12.7
      vertex -5.59274 30.5429 0
      vertex -5.59274 30.5429 12.7
    endloop
  endfacet
  facet normal 0.935016 -0.354605 0
    outer loop
      vertex -5.59274 30.5429 0
      vertex -6.15247 29.067 12.7
      vertex -6.15247 29.067 0
    endloop
  endfacet
  facet normal 0.239317 -0.970942 0
    outer loop
      vertex -2.11686 33.6222 0
      vertex -0.584243 34 12.7
      vertex -2.11686 33.6222 12.7
    endloop
  endfacet
  facet normal 0.239317 -0.970942 0
    outer loop
      vertex -0.584243 34 12.7
      vertex -2.11686 33.6222 0
      vertex -0.584243 34 0
    endloop
  endfacet
  facet normal -0.992709 0.120537 0
    outer loop
      vertex 6.56247 25.933 0
      vertex 6.75274 27.5 12.7
      vertex 6.75274 27.5 0
    endloop
  endfacet
  facet normal -0.992709 0.120537 0
    outer loop
      vertex 6.75274 27.5 12.7
      vertex 6.56247 25.933 0
      vertex 6.56247 25.933 12.7
    endloop
  endfacet
  facet normal -0.239316 0.970942 0
    outer loop
      vertex 2.52686 21.3778 0
      vertex 0.994243 21 12.7
      vertex 2.52686 21.3778 12.7
    endloop
  endfacet
  facet normal -0.239316 0.970942 0
    outer loop
      vertex 0.994243 21 12.7
      vertex 2.52686 21.3778 0
      vertex 0.994243 21 0
    endloop
  endfacet
  facet normal -0.663123 0.748511 0
    outer loop
      vertex 5.10605 23.158 0
      vertex 3.92454 22.1113 12.7
      vertex 5.10605 23.158 12.7
    endloop
  endfacet
  facet normal -0.663123 0.748511 0
    outer loop
      vertex 3.92454 22.1113 12.7
      vertex 5.10605 23.158 0
      vertex 3.92454 22.1113 0
    endloop
  endfacet
  facet normal 0.239316 0.970942 -0
    outer loop
      vertex -0.584243 21 0
      vertex -2.11686 21.3778 12.7
      vertex -0.584243 21 12.7
    endloop
  endfacet
  facet normal 0.239316 0.970942 0
    outer loop
      vertex -2.11686 21.3778 12.7
      vertex -0.584243 21 0
      vertex -2.11686 21.3778 0
    endloop
  endfacet
  facet normal 0.822984 0.568065 0
    outer loop
      vertex -4.69605 23.158 12.7
      vertex -5.59274 24.4571 0
      vertex -5.59274 24.4571 12.7
    endloop
  endfacet
  facet normal 0.822984 0.568065 0
    outer loop
      vertex -5.59274 24.4571 0
      vertex -4.69605 23.158 12.7
      vertex -4.69605 23.158 0
    endloop
  endfacet
  facet normal 0.992709 0.120537 0
    outer loop
      vertex -6.15247 25.933 12.7
      vertex -6.34274 27.5 0
      vertex -6.34274 27.5 12.7
    endloop
  endfacet
  facet normal 0.992709 0.120537 0
    outer loop
      vertex -6.34274 27.5 0
      vertex -6.15247 25.933 12.7
      vertex -6.15247 25.933 0
    endloop
  endfacet
  facet normal -0.464723 0.885456 0
    outer loop
      vertex 3.92454 22.1113 0
      vertex 2.52686 21.3778 12.7
      vertex 3.92454 22.1113 12.7
    endloop
  endfacet
  facet normal -0.464723 0.885456 0
    outer loop
      vertex 2.52686 21.3778 12.7
      vertex 3.92454 22.1113 0
      vertex 2.52686 21.3778 0
    endloop
  endfacet
  facet normal 0.935016 0.354605 0
    outer loop
      vertex -5.59274 24.4571 12.7
      vertex -6.15247 25.933 0
      vertex -6.15247 25.933 12.7
    endloop
  endfacet
  facet normal 0.935016 0.354605 0
    outer loop
      vertex -6.15247 25.933 0
      vertex -5.59274 24.4571 12.7
      vertex -5.59274 24.4571 0
    endloop
  endfacet
  facet normal 0 0 1
    outer loop
      vertex 6.75274 27.5 12.7
      vertex 9.705 27.5 12.7
      vertex 9.52246 29.3534 12.7
    endloop
  endfacet
  facet normal 0 0 1
    outer loop
      vertex 6.56247 29.067 12.7
      vertex 9.52246 29.3534 12.7
      vertex 8.98186 31.1355 12.7
    endloop
  endfacet
  facet normal 0 0 1
    outer loop
      vertex 9.705 27.5 12.7
      vertex 6.75274 27.5 12.7
      vertex 9.52246 25.6466 12.7
    endloop
  endfacet
  facet normal 0 0 1
    outer loop
      vertex 6.00274 30.5429 12.7
      vertex 8.98186 31.1355 12.7
      vertex 8.10396 32.7779 12.7
    endloop
  endfacet
  facet normal -0 0 1
    outer loop
      vertex 6.56247 25.933 12.7
      vertex 9.52246 25.6466 12.7
      vertex 6.75274 27.5 12.7
    endloop
  endfacet
  facet normal 0 0 1
    outer loop
      vertex 5.10605 31.842 12.7
      vertex 8.10396 32.7779 12.7
      vertex 6.92251 34.2175 12.7
    endloop
  endfacet
  facet normal 0 0 1
    outer loop
      vertex 9.52246 25.6466 12.7
      vertex 6.56247 25.933 12.7
      vertex 8.98186 23.8645 12.7
    endloop
  endfacet
  facet normal -0 0 1
    outer loop
      vertex 6.00274 24.4571 12.7
      vertex 8.98186 23.8645 12.7
      vertex 6.56247 25.933 12.7
    endloop
  endfacet
  facet normal 0 0 1
    outer loop
      vertex 9.52246 29.3534 12.7
      vertex 6.56247 29.067 12.7
      vertex 6.75274 27.5 12.7
    endloop
  endfacet
  facet normal 0 0 1
    outer loop
      vertex 8.98186 31.1355 12.7
      vertex 6.00274 30.5429 12.7
      vertex 6.56247 29.067 12.7
    endloop
  endfacet
  facet normal 0 0 1
    outer loop
      vertex 3.92454 32.8887 12.7
      vertex 6.92251 34.2175 12.7
      vertex 5.48292 35.399 12.7
    endloop
  endfacet
  facet normal 0 0 1
    outer loop
      vertex 8.10396 32.7779 12.7
      vertex 5.10605 31.842 12.7
      vertex 6.00274 30.5429 12.7
    endloop
  endfacet
  facet normal 0 0 1
    outer loop
      vertex 6.92251 34.2175 12.7
      vertex 3.92454 32.8887 12.7
      vertex 5.10605 31.842 12.7
    endloop
  endfacet
  facet normal 0 0 1
    outer loop
      vertex 3.84049 36.2769 12.7
      vertex 3.92454 32.8887 12.7
      vertex 5.48292 35.399 12.7
    endloop
  endfacet
  facet normal 0 0 1
    outer loop
      vertex 3.84049 36.2769 12.7
      vertex 2.52686 33.6222 12.7
      vertex 3.92454 32.8887 12.7
    endloop
  endfacet
  facet normal 0 0 1
    outer loop
      vertex 2.05836 36.8175 12.7
      vertex 2.52686 33.6222 12.7
      vertex 3.84049 36.2769 12.7
    endloop
  endfacet
  facet normal 0 0 1
    outer loop
      vertex 2.05836 36.8175 12.7
      vertex 0.994243 34 12.7
      vertex 2.52686 33.6222 12.7
    endloop
  endfacet
  facet normal 0 0 1
    outer loop
      vertex 0.205 37 12.7
      vertex 0.994243 34 12.7
      vertex 2.05836 36.8175 12.7
    endloop
  endfacet
  facet normal 0 0 1
    outer loop
      vertex 0.205 37 12.7
      vertex -0.584243 34 12.7
      vertex 0.994243 34 12.7
    endloop
  endfacet
  facet normal -0 0 1
    outer loop
      vertex -1.64836 36.8175 12.7
      vertex -0.584243 34 12.7
      vertex 0.205 37 12.7
    endloop
  endfacet
  facet normal 0 0 1
    outer loop
      vertex -1.64836 36.8175 12.7
      vertex -2.11686 33.6222 12.7
      vertex -0.584243 34 12.7
    endloop
  endfacet
  facet normal -0 0 1
    outer loop
      vertex -3.43049 36.2769 12.7
      vertex -2.11686 33.6222 12.7
      vertex -1.64836 36.8175 12.7
    endloop
  endfacet
  facet normal 0 0 1
    outer loop
      vertex -3.43049 36.2769 12.7
      vertex -3.51454 32.8887 12.7
      vertex -2.11686 33.6222 12.7
    endloop
  endfacet
  facet normal -0 0 1
    outer loop
      vertex -5.07292 35.399 12.7
      vertex -3.51454 32.8887 12.7
      vertex -3.43049 36.2769 12.7
    endloop
  endfacet
  facet normal -0 0 1
    outer loop
      vertex -6.51251 34.2175 12.7
      vertex -3.51454 32.8887 12.7
      vertex -5.07292 35.399 12.7
    endloop
  endfacet
  facet normal 0 0 1
    outer loop
      vertex -3.51454 32.8887 12.7
      vertex -6.51251 34.2175 12.7
      vertex -4.69605 31.842 12.7
    endloop
  endfacet
  facet normal -0 0 1
    outer loop
      vertex -7.69396 32.7779 12.7
      vertex -4.69605 31.842 12.7
      vertex -6.51251 34.2175 12.7
    endloop
  endfacet
  facet normal -0 0 1
    outer loop
      vertex -8.57186 31.1355 12.7
      vertex -5.59274 30.5429 12.7
      vertex -7.69396 32.7779 12.7
    endloop
  endfacet
  facet normal 0 0 1
    outer loop
      vertex -4.69605 31.842 12.7
      vertex -7.69396 32.7779 12.7
      vertex -5.59274 30.5429 12.7
    endloop
  endfacet
  facet normal 0 0 1
    outer loop
      vertex 8.98186 23.8645 12.7
      vertex 6.00274 24.4571 12.7
      vertex 8.10396 22.2221 12.7
    endloop
  endfacet
  facet normal -0 0 1
    outer loop
      vertex 5.10605 23.158 12.7
      vertex 8.10396 22.2221 12.7
      vertex 6.00274 24.4571 12.7
    endloop
  endfacet
  facet normal 0 0 1
    outer loop
      vertex 8.10396 22.2221 12.7
      vertex 5.10605 23.158 12.7
      vertex 6.92251 20.7825 12.7
    endloop
  endfacet
  facet normal -0 0 1
    outer loop
      vertex 3.92454 22.1113 12.7
      vertex 6.92251 20.7825 12.7
      vertex 5.10605 23.158 12.7
    endloop
  endfacet
  facet normal 0 0 1
    outer loop
      vertex 6.92251 20.7825 12.7
      vertex 3.92454 22.1113 12.7
      vertex 5.48292 19.601 12.7
    endloop
  endfacet
  facet normal 0 0 1
    outer loop
      vertex 3.92454 22.1113 12.7
      vertex 3.84049 18.7231 12.7
      vertex 5.48292 19.601 12.7
    endloop
  endfacet
  facet normal -0 0 1
    outer loop
      vertex 2.52686 21.3778 12.7
      vertex 3.84049 18.7231 12.7
      vertex 3.92454 22.1113 12.7
    endloop
  endfacet
  facet normal 0 0 1
    outer loop
      vertex 2.52686 21.3778 12.7
      vertex 2.05836 18.1825 12.7
      vertex 3.84049 18.7231 12.7
    endloop
  endfacet
  facet normal -0 0 1
    outer loop
      vertex 0.994243 21 12.7
      vertex 2.05836 18.1825 12.7
      vertex 2.52686 21.3778 12.7
    endloop
  endfacet
  facet normal 0 0 1
    outer loop
      vertex 0.994243 21 12.7
      vertex 0.205 18 12.7
      vertex 2.05836 18.1825 12.7
    endloop
  endfacet
  facet normal -0 0 1
    outer loop
      vertex -0.584243 21 12.7
      vertex 0.205 18 12.7
      vertex 0.994243 21 12.7
    endloop
  endfacet
  facet normal 0 0 1
    outer loop
      vertex -0.584243 21 12.7
      vertex -1.64836 18.1825 12.7
      vertex 0.205 18 12.7
    endloop
  endfacet
  facet normal 0 0 1
    outer loop
      vertex -2.11686 21.3778 12.7
      vertex -1.64836 18.1825 12.7
      vertex -0.584243 21 12.7
    endloop
  endfacet
  facet normal 0 0 1
    outer loop
      vertex -2.11686 21.3778 12.7
      vertex -3.43049 18.7231 12.7
      vertex -1.64836 18.1825 12.7
    endloop
  endfacet
  facet normal 0 0 1
    outer loop
      vertex -3.51454 22.1113 12.7
      vertex -3.43049 18.7231 12.7
      vertex -2.11686 21.3778 12.7
    endloop
  endfacet
  facet normal 0 0 1
    outer loop
      vertex -6.51251 20.7825 12.7
      vertex -3.51454 22.1113 12.7
      vertex -4.69605 23.158 12.7
    endloop
  endfacet
  facet normal 0 0 1
    outer loop
      vertex -3.51454 22.1113 12.7
      vertex -5.07292 19.601 12.7
      vertex -3.43049 18.7231 12.7
    endloop
  endfacet
  facet normal 0 0 1
    outer loop
      vertex -7.69396 22.2221 12.7
      vertex -4.69605 23.158 12.7
      vertex -5.59274 24.4571 12.7
    endloop
  endfacet
  facet normal 0 0 1
    outer loop
      vertex -8.57186 23.8645 12.7
      vertex -5.59274 24.4571 12.7
      vertex -6.15247 25.933 12.7
    endloop
  endfacet
  facet normal 0 0 1
    outer loop
      vertex -3.51454 22.1113 12.7
      vertex -6.51251 20.7825 12.7
      vertex -5.07292 19.601 12.7
    endloop
  endfacet
  facet normal 0 0 1
    outer loop
      vertex -9.11246 25.6466 12.7
      vertex -6.15247 25.933 12.7
      vertex -6.34274 27.5 12.7
    endloop
  endfacet
  facet normal 0 0 1
    outer loop
      vertex -5.59274 30.5429 12.7
      vertex -8.57186 31.1355 12.7
      vertex -6.15247 29.067 12.7
    endloop
  endfacet
  facet normal -0 0 1
    outer loop
      vertex -9.11246 29.3534 12.7
      vertex -6.15247 29.067 12.7
      vertex -8.57186 31.1355 12.7
    endloop
  endfacet
  facet normal 0 0 1
    outer loop
      vertex -4.69605 23.158 12.7
      vertex -7.69396 22.2221 12.7
      vertex -6.51251 20.7825 12.7
    endloop
  endfacet
  facet normal 0 0 1
    outer loop
      vertex -6.15247 29.067 12.7
      vertex -9.11246 29.3534 12.7
      vertex -6.34274 27.5 12.7
    endloop
  endfacet
  facet normal 0 0 1
    outer loop
      vertex -5.59274 24.4571 12.7
      vertex -8.57186 23.8645 12.7
      vertex -7.69396 22.2221 12.7
    endloop
  endfacet
  facet normal 0 0 1
    outer loop
      vertex -9.295 27.5 12.7
      vertex -6.34274 27.5 12.7
      vertex -9.11246 29.3534 12.7
    endloop
  endfacet
  facet normal 0 0 1
    outer loop
      vertex -6.15247 25.933 12.7
      vertex -9.11246 25.6466 12.7
      vertex -8.57186 23.8645 12.7
    endloop
  endfacet
  facet normal 0 0 1
    outer loop
      vertex -6.34274 27.5 12.7
      vertex -9.295 27.5 12.7
      vertex -9.11246 25.6466 12.7
    endloop
  endfacet
  facet normal -0.471397 -0.881921 0
    outer loop
      vertex 3.84049 36.2769 12.7
      vertex 5.48292 35.399 19.7
      vertex 3.84049 36.2769 19.7
    endloop
  endfacet
  facet normal -0.471397 -0.881921 -0
    outer loop
      vertex 5.48292 35.399 19.7
      vertex 3.84049 36.2769 12.7
      vertex 5.48292 35.399 12.7
    endloop
  endfacet
  facet normal -0.995185 0.0980171 0
    outer loop
      vertex 9.52246 25.6466 12.7
      vertex 9.705 27.5 19.7
      vertex 9.705 27.5 12.7
    endloop
  endfacet
  facet normal -0.995185 0.0980171 0
    outer loop
      vertex 9.705 27.5 19.7
      vertex 9.52246 25.6466 12.7
      vertex 9.52246 25.6466 19.7
    endloop
  endfacet
  facet normal 0.0980167 0.995185 -0
    outer loop
      vertex 0.205 18 12.7
      vertex -1.64836 18.1825 19.7
      vertex 0.205 18 19.7
    endloop
  endfacet
  facet normal 0.0980167 0.995185 0
    outer loop
      vertex -1.64836 18.1825 19.7
      vertex 0.205 18 12.7
      vertex -1.64836 18.1825 12.7
    endloop
  endfacet
  facet normal 0.471397 -0.881921 0
    outer loop
      vertex -5.07292 35.399 12.7
      vertex -3.43049 36.2769 19.7
      vertex -5.07292 35.399 19.7
    endloop
  endfacet
  facet normal 0.471397 -0.881921 0
    outer loop
      vertex -3.43049 36.2769 19.7
      vertex -5.07292 35.399 12.7
      vertex -3.43049 36.2769 12.7
    endloop
  endfacet
  facet normal 0.95694 -0.290285 0
    outer loop
      vertex -9.11246 29.3534 19.7
      vertex -8.57186 31.1355 12.7
      vertex -8.57186 31.1355 19.7
    endloop
  endfacet
  facet normal 0.95694 -0.290285 0
    outer loop
      vertex -8.57186 31.1355 12.7
      vertex -9.11246 29.3534 19.7
      vertex -9.11246 29.3534 12.7
    endloop
  endfacet
  facet normal -0.77301 0.634394 0
    outer loop
      vertex 6.92251 20.7825 12.7
      vertex 8.10396 22.2221 19.7
      vertex 8.10396 22.2221 12.7
    endloop
  endfacet
  facet normal -0.77301 0.634394 0
    outer loop
      vertex 8.10396 22.2221 19.7
      vertex 6.92251 20.7825 12.7
      vertex 6.92251 20.7825 19.7
    endloop
  endfacet
  facet normal 0.77301 0.634394 0
    outer loop
      vertex -6.51251 20.7825 19.7
      vertex -7.69396 22.2221 12.7
      vertex -7.69396 22.2221 19.7
    endloop
  endfacet
  facet normal 0.77301 0.634394 0
    outer loop
      vertex -7.69396 22.2221 12.7
      vertex -6.51251 20.7825 19.7
      vertex -6.51251 20.7825 12.7
    endloop
  endfacet
  facet normal -0.881921 -0.471397 0
    outer loop
      vertex 8.98186 31.1355 12.7
      vertex 8.10396 32.7779 19.7
      vertex 8.10396 32.7779 12.7
    endloop
  endfacet
  facet normal -0.881921 -0.471397 0
    outer loop
      vertex 8.10396 32.7779 19.7
      vertex 8.98186 31.1355 12.7
      vertex 8.98186 31.1355 19.7
    endloop
  endfacet
  facet normal -0.773011 -0.634393 0
    outer loop
      vertex 8.10396 32.7779 12.7
      vertex 6.92251 34.2175 19.7
      vertex 6.92251 34.2175 12.7
    endloop
  endfacet
  facet normal -0.773011 -0.634393 0
    outer loop
      vertex 6.92251 34.2175 19.7
      vertex 8.10396 32.7779 12.7
      vertex 8.10396 32.7779 19.7
    endloop
  endfacet
  facet normal -0.634393 -0.773011 0
    outer loop
      vertex 5.48292 35.399 12.7
      vertex 6.92251 34.2175 19.7
      vertex 5.48292 35.399 19.7
    endloop
  endfacet
  facet normal -0.634393 -0.773011 -0
    outer loop
      vertex 6.92251 34.2175 19.7
      vertex 5.48292 35.399 12.7
      vertex 6.92251 34.2175 12.7
    endloop
  endfacet
  facet normal -0.290284 -0.956941 0
    outer loop
      vertex 2.05836 36.8175 12.7
      vertex 3.84049 36.2769 19.7
      vertex 2.05836 36.8175 19.7
    endloop
  endfacet
  facet normal -0.290284 -0.956941 -0
    outer loop
      vertex 3.84049 36.2769 19.7
      vertex 2.05836 36.8175 12.7
      vertex 3.84049 36.2769 12.7
    endloop
  endfacet
  facet normal 0.0980177 -0.995185 0
    outer loop
      vertex -1.64836 36.8175 12.7
      vertex 0.205 37 19.7
      vertex -1.64836 36.8175 19.7
    endloop
  endfacet
  facet normal 0.0980177 -0.995185 0
    outer loop
      vertex 0.205 37 19.7
      vertex -1.64836 36.8175 12.7
      vertex 0.205 37 12.7
    endloop
  endfacet
  facet normal -0.0980177 -0.995185 0
    outer loop
      vertex 0.205 37 12.7
      vertex 2.05836 36.8175 19.7
      vertex 0.205 37 19.7
    endloop
  endfacet
  facet normal -0.0980177 -0.995185 -0
    outer loop
      vertex 2.05836 36.8175 19.7
      vertex 0.205 37 12.7
      vertex 2.05836 36.8175 12.7
    endloop
  endfacet
  facet normal 0.995185 0.0980166 0
    outer loop
      vertex -9.11246 25.6466 19.7
      vertex -9.295 27.5 12.7
      vertex -9.295 27.5 19.7
    endloop
  endfacet
  facet normal 0.995185 0.0980166 0
    outer loop
      vertex -9.295 27.5 12.7
      vertex -9.11246 25.6466 19.7
      vertex -9.11246 25.6466 12.7
    endloop
  endfacet
  facet normal 0.881921 -0.471397 0
    outer loop
      vertex -8.57186 31.1355 19.7
      vertex -7.69396 32.7779 12.7
      vertex -7.69396 32.7779 19.7
    endloop
  endfacet
  facet normal 0.881921 -0.471397 0
    outer loop
      vertex -7.69396 32.7779 12.7
      vertex -8.57186 31.1355 19.7
      vertex -8.57186 31.1355 12.7
    endloop
  endfacet
  facet normal 0.634393 -0.773011 0
    outer loop
      vertex -6.51251 34.2175 12.7
      vertex -5.07292 35.399 19.7
      vertex -6.51251 34.2175 19.7
    endloop
  endfacet
  facet normal 0.634393 -0.773011 0
    outer loop
      vertex -5.07292 35.399 19.7
      vertex -6.51251 34.2175 12.7
      vertex -5.07292 35.399 12.7
    endloop
  endfacet
  facet normal 0.290284 -0.956941 0
    outer loop
      vertex -3.43049 36.2769 12.7
      vertex -1.64836 36.8175 19.7
      vertex -3.43049 36.2769 19.7
    endloop
  endfacet
  facet normal 0.290284 -0.956941 0
    outer loop
      vertex -1.64836 36.8175 19.7
      vertex -3.43049 36.2769 12.7
      vertex -1.64836 36.8175 12.7
    endloop
  endfacet
  facet normal 0.773011 -0.634393 0
    outer loop
      vertex -7.69396 32.7779 19.7
      vertex -6.51251 34.2175 12.7
      vertex -6.51251 34.2175 19.7
    endloop
  endfacet
  facet normal 0.773011 -0.634393 0
    outer loop
      vertex -6.51251 34.2175 12.7
      vertex -7.69396 32.7779 19.7
      vertex -7.69396 32.7779 12.7
    endloop
  endfacet
  facet normal -0.995185 -0.0980172 0
    outer loop
      vertex 9.705 27.5 12.7
      vertex 9.52246 29.3534 19.7
      vertex 9.52246 29.3534 12.7
    endloop
  endfacet
  facet normal -0.995185 -0.0980172 0
    outer loop
      vertex 9.52246 29.3534 19.7
      vertex 9.705 27.5 12.7
      vertex 9.705 27.5 19.7
    endloop
  endfacet
  facet normal -0.290285 0.95694 0
    outer loop
      vertex 3.84049 18.7231 12.7
      vertex 2.05836 18.1825 19.7
      vertex 3.84049 18.7231 19.7
    endloop
  endfacet
  facet normal -0.290285 0.95694 0
    outer loop
      vertex 2.05836 18.1825 19.7
      vertex 3.84049 18.7231 12.7
      vertex 2.05836 18.1825 12.7
    endloop
  endfacet
  facet normal -0.881921 0.471397 0
    outer loop
      vertex 8.10396 22.2221 12.7
      vertex 8.98186 23.8645 19.7
      vertex 8.98186 23.8645 12.7
    endloop
  endfacet
  facet normal -0.881921 0.471397 0
    outer loop
      vertex 8.98186 23.8645 19.7
      vertex 8.10396 22.2221 12.7
      vertex 8.10396 22.2221 19.7
    endloop
  endfacet
  facet normal -0.95694 0.290285 0
    outer loop
      vertex 8.98186 23.8645 12.7
      vertex 9.52246 25.6466 19.7
      vertex 9.52246 25.6466 12.7
    endloop
  endfacet
  facet normal -0.95694 0.290285 0
    outer loop
      vertex 9.52246 25.6466 19.7
      vertex 8.98186 23.8645 12.7
      vertex 8.98186 23.8645 19.7
    endloop
  endfacet
  facet normal -0.471396 0.881921 0
    outer loop
      vertex 5.48292 19.601 12.7
      vertex 3.84049 18.7231 19.7
      vertex 5.48292 19.601 19.7
    endloop
  endfacet
  facet normal -0.471396 0.881921 0
    outer loop
      vertex 3.84049 18.7231 19.7
      vertex 5.48292 19.601 12.7
      vertex 3.84049 18.7231 12.7
    endloop
  endfacet
  facet normal -0.634394 0.77301 0
    outer loop
      vertex 6.92251 20.7825 12.7
      vertex 5.48292 19.601 19.7
      vertex 6.92251 20.7825 19.7
    endloop
  endfacet
  facet normal -0.634394 0.77301 0
    outer loop
      vertex 5.48292 19.601 19.7
      vertex 6.92251 20.7825 12.7
      vertex 5.48292 19.601 12.7
    endloop
  endfacet
  facet normal -0.0980167 0.995185 0
    outer loop
      vertex 2.05836 18.1825 12.7
      vertex 0.205 18 19.7
      vertex 2.05836 18.1825 19.7
    endloop
  endfacet
  facet normal -0.0980167 0.995185 0
    outer loop
      vertex 0.205 18 19.7
      vertex 2.05836 18.1825 12.7
      vertex 0.205 18 12.7
    endloop
  endfacet
  facet normal 0.290285 0.95694 -0
    outer loop
      vertex -1.64836 18.1825 12.7
      vertex -3.43049 18.7231 19.7
      vertex -1.64836 18.1825 19.7
    endloop
  endfacet
  facet normal 0.290285 0.95694 0
    outer loop
      vertex -3.43049 18.7231 19.7
      vertex -1.64836 18.1825 12.7
      vertex -3.43049 18.7231 12.7
    endloop
  endfacet
  facet normal 0.471396 0.881921 -0
    outer loop
      vertex -3.43049 18.7231 12.7
      vertex -5.07292 19.601 19.7
      vertex -3.43049 18.7231 19.7
    endloop
  endfacet
  facet normal 0.471396 0.881921 0
    outer loop
      vertex -5.07292 19.601 19.7
      vertex -3.43049 18.7231 12.7
      vertex -5.07292 19.601 12.7
    endloop
  endfacet
  facet normal 0.95694 0.290285 0
    outer loop
      vertex -8.57186 23.8645 19.7
      vertex -9.11246 25.6466 12.7
      vertex -9.11246 25.6466 19.7
    endloop
  endfacet
  facet normal 0.95694 0.290285 0
    outer loop
      vertex -9.11246 25.6466 12.7
      vertex -8.57186 23.8645 19.7
      vertex -8.57186 23.8645 12.7
    endloop
  endfacet
  facet normal -0.95694 -0.290285 0
    outer loop
      vertex 9.52246 29.3534 12.7
      vertex 8.98186 31.1355 19.7
      vertex 8.98186 31.1355 12.7
    endloop
  endfacet
  facet normal -0.95694 -0.290285 0
    outer loop
      vertex 8.98186 31.1355 19.7
      vertex 9.52246 29.3534 12.7
      vertex 9.52246 29.3534 19.7
    endloop
  endfacet
  facet normal 0.995185 -0.0980167 0
    outer loop
      vertex -9.295 27.5 19.7
      vertex -9.11246 29.3534 12.7
      vertex -9.11246 29.3534 19.7
    endloop
  endfacet
  facet normal 0.995185 -0.0980167 0
    outer loop
      vertex -9.11246 29.3534 12.7
      vertex -9.295 27.5 19.7
      vertex -9.295 27.5 12.7
    endloop
  endfacet
  facet normal 0.881921 0.471397 0
    outer loop
      vertex -7.69396 22.2221 19.7
      vertex -8.57186 23.8645 12.7
      vertex -8.57186 23.8645 19.7
    endloop
  endfacet
  facet normal 0.881921 0.471397 0
    outer loop
      vertex -8.57186 23.8645 12.7
      vertex -7.69396 22.2221 19.7
      vertex -7.69396 22.2221 12.7
    endloop
  endfacet
  facet normal 0.634394 0.77301 -0
    outer loop
      vertex -5.07292 19.601 12.7
      vertex -6.51251 20.7825 19.7
      vertex -5.07292 19.601 19.7
    endloop
  endfacet
  facet normal 0.634394 0.77301 0
    outer loop
      vertex -6.51251 20.7825 19.7
      vertex -5.07292 19.601 12.7
      vertex -6.51251 20.7825 12.7
    endloop
  endfacet
endsolid OpenSCAD_Model
