solid OpenSCAD_Model
  facet normal 0.999391 0.0349026 0
    outer loop
      vertex 4 0 4.05
      vertex 3.99026 0.279025 0
      vertex 3.99026 0.279025 4.05
    endloop
  endfacet
  facet normal 0.999391 0.0349026 0
    outer loop
      vertex 3.99026 0.279025 0
      vertex 4 0 4.05
      vertex 4 0 0
    endloop
  endfacet
  facet normal -0.999391 0.0349026 0
    outer loop
      vertex -4 0 0
      vertex -3.99026 0.279025 4.05
      vertex -3.99026 0.279025 0
    endloop
  endfacet
  facet normal -0.999391 0.0349026 0
    outer loop
      vertex -3.99026 0.279025 4.05
      vertex -4 0 0
      vertex -4 0 4.05
    endloop
  endfacet
  facet normal 0 1 -0
    outer loop
      vertex 0.139598 3.99756 0
      vertex -0.139598 3.99756 4.05
      vertex 0.139598 3.99756 4.05
    endloop
  endfacet
  facet normal 0 1 0
    outer loop
      vertex -0.139598 3.99756 4.05
      vertex 0.139598 3.99756 0
      vertex -0.139598 3.99756 0
    endloop
  endfacet
  facet normal 0 -1 0
    outer loop
      vertex -0.139598 -3.99756 0
      vertex 0.139598 -3.99756 4.05
      vertex -0.139598 -3.99756 4.05
    endloop
  endfacet
  facet normal 0 -1 -0
    outer loop
      vertex 0.139598 -3.99756 4.05
      vertex -0.139598 -3.99756 0
      vertex 0.139598 -3.99756 0
    endloop
  endfacet
  facet normal 0.69466 0.719339 -0
    outer loop
      vertex 2.87736 2.77863 0
      vertex 2.67652 2.97258 4.05
      vertex 2.87736 2.77863 4.05
    endloop
  endfacet
  facet normal 0.69466 0.719339 0
    outer loop
      vertex 2.67652 2.97258 4.05
      vertex 2.87736 2.77863 0
      vertex 2.67652 2.97258 0
    endloop
  endfacet
  facet normal -0.69466 0.719339 0
    outer loop
      vertex -2.67652 2.97258 0
      vertex -2.87736 2.77863 4.05
      vertex -2.67652 2.97258 4.05
    endloop
  endfacet
  facet normal -0.69466 0.719339 0
    outer loop
      vertex -2.87736 2.77863 4.05
      vertex -2.67652 2.97258 0
      vertex -2.87736 2.77863 0
    endloop
  endfacet
  facet normal -0.406735 0.913546 0
    outer loop
      vertex -1.49843 3.70873 0
      vertex -1.75348 3.59518 4.05
      vertex -1.49843 3.70873 4.05
    endloop
  endfacet
  facet normal -0.406735 0.913546 0
    outer loop
      vertex -1.75348 3.59518 4.05
      vertex -1.49843 3.70873 0
      vertex -1.75348 3.59518 0
    endloop
  endfacet
  facet normal 0.829039 -0.559191 0
    outer loop
      vertex 3.23607 -2.35114 4.05
      vertex 3.39219 -2.11968 0
      vertex 3.39219 -2.11968 4.05
    endloop
  endfacet
  facet normal 0.829039 -0.559191 0
    outer loop
      vertex 3.39219 -2.11968 0
      vertex 3.23607 -2.35114 4.05
      vertex 3.23607 -2.35114 0
    endloop
  endfacet
  facet normal 0.927184 0.374606 0
    outer loop
      vertex 3.75877 1.36808 4.05
      vertex 3.65418 1.62695 0
      vertex 3.65418 1.62695 4.05
    endloop
  endfacet
  facet normal 0.927184 0.374606 0
    outer loop
      vertex 3.65418 1.62695 0
      vertex 3.75877 1.36808 4.05
      vertex 3.75877 1.36808 0
    endloop
  endfacet
  facet normal 0.342023 0.939691 -0
    outer loop
      vertex 1.49843 3.70873 0
      vertex 1.23607 3.80423 4.05
      vertex 1.49843 3.70873 4.05
    endloop
  endfacet
  facet normal 0.342023 0.939691 0
    outer loop
      vertex 1.23607 3.80423 4.05
      vertex 1.49843 3.70873 0
      vertex 1.23607 3.80423 0
    endloop
  endfacet
  facet normal 0.529919 0.848048 -0
    outer loop
      vertex 2.23677 3.31615 0
      vertex 2 3.4641 4.05
      vertex 2.23677 3.31615 4.05
    endloop
  endfacet
  facet normal 0.529919 0.848048 0
    outer loop
      vertex 2 3.4641 4.05
      vertex 2.23677 3.31615 0
      vertex 2 3.4641 0
    endloop
  endfacet
  facet normal -0.898793 0.438372 0
    outer loop
      vertex -3.65418 1.62695 0
      vertex -3.53179 1.87789 4.05
      vertex -3.53179 1.87789 0
    endloop
  endfacet
  facet normal -0.898793 0.438372 0
    outer loop
      vertex -3.53179 1.87789 4.05
      vertex -3.65418 1.62695 0
      vertex -3.65418 1.62695 4.05
    endloop
  endfacet
  facet normal -0.207913 0.978147 0
    outer loop
      vertex -0.694592 3.93923 0
      vertex -0.967687 3.88118 4.05
      vertex -0.694592 3.93923 4.05
    endloop
  endfacet
  facet normal -0.207913 0.978147 0
    outer loop
      vertex -0.967687 3.88118 4.05
      vertex -0.694592 3.93923 0
      vertex -0.967687 3.88118 0
    endloop
  endfacet
  facet normal 0.970295 -0.241923 0
    outer loop
      vertex 3.84505 -1.10255 4.05
      vertex 3.91259 -0.831646 0
      vertex 3.91259 -0.831646 4.05
    endloop
  endfacet
  facet normal 0.970295 -0.241923 0
    outer loop
      vertex 3.91259 -0.831646 0
      vertex 3.84505 -1.10255 4.05
      vertex 3.84505 -1.10255 0
    endloop
  endfacet
  facet normal 0.275636 -0.961262 0
    outer loop
      vertex 0.967687 -3.88118 0
      vertex 1.23607 -3.80423 4.05
      vertex 0.967687 -3.88118 4.05
    endloop
  endfacet
  facet normal 0.275636 -0.961262 0
    outer loop
      vertex 1.23607 -3.80423 4.05
      vertex 0.967687 -3.88118 0
      vertex 1.23607 -3.80423 0
    endloop
  endfacet
  facet normal 0.207913 -0.978147 0
    outer loop
      vertex 0.694592 -3.93923 0
      vertex 0.967687 -3.88118 4.05
      vertex 0.694592 -3.93923 4.05
    endloop
  endfacet
  facet normal 0.207913 -0.978147 0
    outer loop
      vertex 0.967687 -3.88118 4.05
      vertex 0.694592 -3.93923 0
      vertex 0.967687 -3.88118 0
    endloop
  endfacet
  facet normal 0.984808 0.173649 0
    outer loop
      vertex 3.96107 0.556692 4.05
      vertex 3.91259 0.831646 0
      vertex 3.91259 0.831646 4.05
    endloop
  endfacet
  facet normal 0.984808 0.173649 0
    outer loop
      vertex 3.91259 0.831646 0
      vertex 3.96107 0.556692 4.05
      vertex 3.96107 0.556692 0
    endloop
  endfacet
  facet normal 0.994522 0.104526 0
    outer loop
      vertex 3.99026 0.279025 4.05
      vertex 3.96107 0.556692 0
      vertex 3.96107 0.556692 4.05
    endloop
  endfacet
  facet normal 0.994522 0.104526 0
    outer loop
      vertex 3.96107 0.556692 0
      vertex 3.99026 0.279025 4.05
      vertex 3.99026 0.279025 0
    endloop
  endfacet
  facet normal 0.829039 0.559191 0
    outer loop
      vertex 3.39219 2.11968 4.05
      vertex 3.23607 2.35114 0
      vertex 3.23607 2.35114 4.05
    endloop
  endfacet
  facet normal 0.829039 0.559191 0
    outer loop
      vertex 3.23607 2.35114 0
      vertex 3.39219 2.11968 4.05
      vertex 3.39219 2.11968 0
    endloop
  endfacet
  facet normal 0.78801 0.615663 0
    outer loop
      vertex 3.23607 2.35114 4.05
      vertex 3.06418 2.57115 0
      vertex 3.06418 2.57115 4.05
    endloop
  endfacet
  facet normal 0.78801 0.615663 0
    outer loop
      vertex 3.06418 2.57115 0
      vertex 3.23607 2.35114 4.05
      vertex 3.23607 2.35114 0
    endloop
  endfacet
  facet normal 0.866026 0.5 0
    outer loop
      vertex 3.53179 1.87789 4.05
      vertex 3.39219 2.11968 0
      vertex 3.39219 2.11968 4.05
    endloop
  endfacet
  facet normal 0.866026 0.5 0
    outer loop
      vertex 3.39219 2.11968 0
      vertex 3.53179 1.87789 4.05
      vertex 3.53179 1.87789 0
    endloop
  endfacet
  facet normal 0.139173 0.990268 -0
    outer loop
      vertex 0.694592 3.93923 0
      vertex 0.418114 3.97809 4.05
      vertex 0.694592 3.93923 4.05
    endloop
  endfacet
  facet normal 0.139173 0.990268 0
    outer loop
      vertex 0.418114 3.97809 4.05
      vertex 0.694592 3.93923 0
      vertex 0.418114 3.97809 0
    endloop
  endfacet
  facet normal 0.0697538 0.997564 -0
    outer loop
      vertex 0.418114 3.97809 0
      vertex 0.139598 3.99756 4.05
      vertex 0.418114 3.97809 4.05
    endloop
  endfacet
  facet normal 0.0697538 0.997564 0
    outer loop
      vertex 0.139598 3.99756 4.05
      vertex 0.418114 3.97809 0
      vertex 0.139598 3.99756 0
    endloop
  endfacet
  facet normal 0.469471 0.882948 -0
    outer loop
      vertex 2 3.4641 0
      vertex 1.75348 3.59518 4.05
      vertex 2 3.4641 4.05
    endloop
  endfacet
  facet normal 0.469471 0.882948 0
    outer loop
      vertex 1.75348 3.59518 4.05
      vertex 2 3.4641 0
      vertex 1.75348 3.59518 0
    endloop
  endfacet
  facet normal 0.587786 0.809016 -0
    outer loop
      vertex 2.46265 3.15204 0
      vertex 2.23677 3.31615 4.05
      vertex 2.46265 3.15204 4.05
    endloop
  endfacet
  facet normal 0.587786 0.809016 0
    outer loop
      vertex 2.23677 3.31615 4.05
      vertex 2.46265 3.15204 0
      vertex 2.23677 3.31615 0
    endloop
  endfacet
  facet normal -0.970295 0.241923 0
    outer loop
      vertex -3.91259 0.831646 0
      vertex -3.84505 1.10255 4.05
      vertex -3.84505 1.10255 0
    endloop
  endfacet
  facet normal -0.970295 0.241923 0
    outer loop
      vertex -3.84505 1.10255 4.05
      vertex -3.91259 0.831646 0
      vertex -3.91259 0.831646 4.05
    endloop
  endfacet
  facet normal -0.78801 0.615663 0
    outer loop
      vertex -3.23607 2.35114 0
      vertex -3.06418 2.57115 4.05
      vertex -3.06418 2.57115 0
    endloop
  endfacet
  facet normal -0.78801 0.615663 0
    outer loop
      vertex -3.06418 2.57115 4.05
      vertex -3.23607 2.35114 0
      vertex -3.23607 2.35114 4.05
    endloop
  endfacet
  facet normal -0.743144 0.669131 0
    outer loop
      vertex -3.06418 2.57115 0
      vertex -2.87736 2.77863 4.05
      vertex -2.87736 2.77863 0
    endloop
  endfacet
  facet normal -0.743144 0.669131 0
    outer loop
      vertex -2.87736 2.77863 4.05
      vertex -3.06418 2.57115 0
      vertex -3.06418 2.57115 4.05
    endloop
  endfacet
  facet normal -0.829039 0.559191 0
    outer loop
      vertex -3.39219 2.11968 0
      vertex -3.23607 2.35114 4.05
      vertex -3.23607 2.35114 0
    endloop
  endfacet
  facet normal -0.829039 0.559191 0
    outer loop
      vertex -3.23607 2.35114 4.05
      vertex -3.39219 2.11968 0
      vertex -3.39219 2.11968 4.05
    endloop
  endfacet
  facet normal -0.927184 0.374606 0
    outer loop
      vertex -3.75877 1.36808 0
      vertex -3.65418 1.62695 4.05
      vertex -3.65418 1.62695 0
    endloop
  endfacet
  facet normal -0.927184 0.374606 0
    outer loop
      vertex -3.65418 1.62695 4.05
      vertex -3.75877 1.36808 0
      vertex -3.75877 1.36808 4.05
    endloop
  endfacet
  facet normal -0.984808 0.173649 0
    outer loop
      vertex -3.96107 0.556692 0
      vertex -3.91259 0.831646 4.05
      vertex -3.91259 0.831646 0
    endloop
  endfacet
  facet normal -0.984808 0.173649 0
    outer loop
      vertex -3.91259 0.831646 4.05
      vertex -3.96107 0.556692 0
      vertex -3.96107 0.556692 4.05
    endloop
  endfacet
  facet normal -0.529917 0.848049 0
    outer loop
      vertex -2 3.4641 0
      vertex -2.23677 3.31615 4.05
      vertex -2 3.4641 4.05
    endloop
  endfacet
  facet normal -0.529917 0.848049 0
    outer loop
      vertex -2.23677 3.31615 4.05
      vertex -2 3.4641 0
      vertex -2.23677 3.31615 0
    endloop
  endfacet
  facet normal -0.469473 0.882947 0
    outer loop
      vertex -1.75348 3.59518 0
      vertex -2 3.4641 4.05
      vertex -1.75348 3.59518 4.05
    endloop
  endfacet
  facet normal -0.469473 0.882947 0
    outer loop
      vertex -2 3.4641 4.05
      vertex -1.75348 3.59518 0
      vertex -2 3.4641 0
    endloop
  endfacet
  facet normal -0.275636 0.961262 0
    outer loop
      vertex -0.967687 3.88118 0
      vertex -1.23607 3.80423 4.05
      vertex -0.967687 3.88118 4.05
    endloop
  endfacet
  facet normal -0.275636 0.961262 0
    outer loop
      vertex -1.23607 3.80423 4.05
      vertex -0.967687 3.88118 0
      vertex -1.23607 3.80423 0
    endloop
  endfacet
  facet normal -0.0697538 0.997564 0
    outer loop
      vertex -0.139598 3.99756 0
      vertex -0.418114 3.97809 4.05
      vertex -0.139598 3.99756 4.05
    endloop
  endfacet
  facet normal -0.0697538 0.997564 0
    outer loop
      vertex -0.418114 3.97809 4.05
      vertex -0.139598 3.99756 0
      vertex -0.418114 3.97809 0
    endloop
  endfacet
  facet normal -0.898793 -0.438372 0
    outer loop
      vertex -3.53179 -1.87789 0
      vertex -3.65418 -1.62695 4.05
      vertex -3.65418 -1.62695 0
    endloop
  endfacet
  facet normal -0.898793 -0.438372 0
    outer loop
      vertex -3.65418 -1.62695 4.05
      vertex -3.53179 -1.87789 0
      vertex -3.53179 -1.87789 4.05
    endloop
  endfacet
  facet normal 0.951057 0.309016 0
    outer loop
      vertex 3.84505 1.10255 4.05
      vertex 3.75877 1.36808 0
      vertex 3.75877 1.36808 4.05
    endloop
  endfacet
  facet normal 0.951057 0.309016 0
    outer loop
      vertex 3.75877 1.36808 0
      vertex 3.84505 1.10255 4.05
      vertex 3.84505 1.10255 0
    endloop
  endfacet
  facet normal 0.970295 0.241923 0
    outer loop
      vertex 3.91259 0.831646 4.05
      vertex 3.84505 1.10255 0
      vertex 3.84505 1.10255 4.05
    endloop
  endfacet
  facet normal 0.970295 0.241923 0
    outer loop
      vertex 3.84505 1.10255 0
      vertex 3.91259 0.831646 4.05
      vertex 3.91259 0.831646 0
    endloop
  endfacet
  facet normal 0.743144 0.669131 0
    outer loop
      vertex 3.06418 2.57115 4.05
      vertex 2.87736 2.77863 0
      vertex 2.87736 2.77863 4.05
    endloop
  endfacet
  facet normal 0.743144 0.669131 0
    outer loop
      vertex 2.87736 2.77863 0
      vertex 3.06418 2.57115 4.05
      vertex 3.06418 2.57115 0
    endloop
  endfacet
  facet normal 0.898793 0.438372 0
    outer loop
      vertex 3.65418 1.62695 4.05
      vertex 3.53179 1.87789 0
      vertex 3.53179 1.87789 4.05
    endloop
  endfacet
  facet normal 0.898793 0.438372 0
    outer loop
      vertex 3.53179 1.87789 0
      vertex 3.65418 1.62695 4.05
      vertex 3.65418 1.62695 0
    endloop
  endfacet
  facet normal 0.207913 0.978147 -0
    outer loop
      vertex 0.967687 3.88118 0
      vertex 0.694592 3.93923 4.05
      vertex 0.967687 3.88118 4.05
    endloop
  endfacet
  facet normal 0.207913 0.978147 0
    outer loop
      vertex 0.694592 3.93923 4.05
      vertex 0.967687 3.88118 0
      vertex 0.694592 3.93923 0
    endloop
  endfacet
  facet normal 0.275636 0.961262 -0
    outer loop
      vertex 1.23607 3.80423 0
      vertex 0.967687 3.88118 4.05
      vertex 1.23607 3.80423 4.05
    endloop
  endfacet
  facet normal 0.275636 0.961262 0
    outer loop
      vertex 0.967687 3.88118 4.05
      vertex 1.23607 3.80423 0
      vertex 0.967687 3.88118 0
    endloop
  endfacet
  facet normal 0.406735 0.913546 -0
    outer loop
      vertex 1.75348 3.59518 0
      vertex 1.49843 3.70873 4.05
      vertex 1.75348 3.59518 4.05
    endloop
  endfacet
  facet normal 0.406735 0.913546 0
    outer loop
      vertex 1.49843 3.70873 4.05
      vertex 1.75348 3.59518 0
      vertex 1.49843 3.70873 0
    endloop
  endfacet
  facet normal 0.642787 0.766045 -0
    outer loop
      vertex 2.67652 2.97258 0
      vertex 2.46265 3.15204 4.05
      vertex 2.67652 2.97258 4.05
    endloop
  endfacet
  facet normal 0.642787 0.766045 0
    outer loop
      vertex 2.46265 3.15204 4.05
      vertex 2.67652 2.97258 0
      vertex 2.46265 3.15204 0
    endloop
  endfacet
  facet normal -0.866026 0.5 0
    outer loop
      vertex -3.53179 1.87789 0
      vertex -3.39219 2.11968 4.05
      vertex -3.39219 2.11968 0
    endloop
  endfacet
  facet normal -0.866026 0.5 0
    outer loop
      vertex -3.39219 2.11968 4.05
      vertex -3.53179 1.87789 0
      vertex -3.53179 1.87789 4.05
    endloop
  endfacet
  facet normal -0.951057 0.309016 0
    outer loop
      vertex -3.84505 1.10255 0
      vertex -3.75877 1.36808 4.05
      vertex -3.75877 1.36808 0
    endloop
  endfacet
  facet normal -0.951057 0.309016 0
    outer loop
      vertex -3.75877 1.36808 4.05
      vertex -3.84505 1.10255 0
      vertex -3.84505 1.10255 4.05
    endloop
  endfacet
  facet normal -0.994522 0.104526 0
    outer loop
      vertex -3.99026 0.279025 0
      vertex -3.96107 0.556692 4.05
      vertex -3.96107 0.556692 0
    endloop
  endfacet
  facet normal -0.994522 0.104526 0
    outer loop
      vertex -3.96107 0.556692 4.05
      vertex -3.99026 0.279025 0
      vertex -3.99026 0.279025 4.05
    endloop
  endfacet
  facet normal 0 0 1
    outer loop
      vertex 2.62866 0 4.05
      vertex 4 0 4.05
      vertex 3.99026 0.279025 4.05
    endloop
  endfacet
  facet normal 0 0 1
    outer loop
      vertex 2.62866 0 4.05
      vertex 3.99026 0.279025 4.05
      vertex 3.96107 0.556692 4.05
    endloop
  endfacet
  facet normal 0 0 1
    outer loop
      vertex 4 0 4.05
      vertex 2.62866 0 4.05
      vertex 3.99026 -0.279025 4.05
    endloop
  endfacet
  facet normal 0 0 1
    outer loop
      vertex 2.62866 0 4.05
      vertex 3.96107 0.556692 4.05
      vertex 3.91259 0.831646 4.05
    endloop
  endfacet
  facet normal 0 0 1
    outer loop
      vertex 3.99026 -0.279025 4.05
      vertex 2.62866 0 4.05
      vertex 3.96107 -0.556692 4.05
    endloop
  endfacet
  facet normal 0 0 1
    outer loop
      vertex 2.62866 0 4.05
      vertex 3.91259 0.831646 4.05
      vertex 3.84505 1.10255 4.05
    endloop
  endfacet
  facet normal 0 0 1
    outer loop
      vertex 3.96107 -0.556692 4.05
      vertex 2.62866 0 4.05
      vertex 3.91259 -0.831646 4.05
    endloop
  endfacet
  facet normal 0 0 1
    outer loop
      vertex 2.62866 0 4.05
      vertex 3.84505 1.10255 4.05
      vertex 3.75877 1.36808 4.05
    endloop
  endfacet
  facet normal 0 0 1
    outer loop
      vertex 3.91259 -0.831646 4.05
      vertex 2.62866 0 4.05
      vertex 3.84505 -1.10255 4.05
    endloop
  endfacet
  facet normal -0 0 1
    outer loop
      vertex 2.12663 1.54508 4.05
      vertex 3.75877 1.36808 4.05
      vertex 3.65418 1.62695 4.05
    endloop
  endfacet
  facet normal 0 0 1
    outer loop
      vertex 3.84505 -1.10255 4.05
      vertex 2.62866 0 4.05
      vertex 3.75877 -1.36808 4.05
    endloop
  endfacet
  facet normal 0 0 1
    outer loop
      vertex 2.12663 1.54508 4.05
      vertex 3.65418 1.62695 4.05
      vertex 3.53179 1.87789 4.05
    endloop
  endfacet
  facet normal 0 0 1
    outer loop
      vertex 2.12663 -1.54508 4.05
      vertex 3.75877 -1.36808 4.05
      vertex 2.62866 0 4.05
    endloop
  endfacet
  facet normal 0 0 1
    outer loop
      vertex 2.12663 1.54508 4.05
      vertex 3.53179 1.87789 4.05
      vertex 3.39219 2.11968 4.05
    endloop
  endfacet
  facet normal 0 0 1
    outer loop
      vertex 3.75877 -1.36808 4.05
      vertex 2.12663 -1.54508 4.05
      vertex 3.65418 -1.62695 4.05
    endloop
  endfacet
  facet normal 0 0 1
    outer loop
      vertex 2.12663 1.54508 4.05
      vertex 3.39219 2.11968 4.05
      vertex 3.23607 2.35114 4.05
    endloop
  endfacet
  facet normal 0 0 1
    outer loop
      vertex 3.65418 -1.62695 4.05
      vertex 2.12663 -1.54508 4.05
      vertex 3.53179 -1.87789 4.05
    endloop
  endfacet
  facet normal 0 0 1
    outer loop
      vertex 2.12663 1.54508 4.05
      vertex 3.23607 2.35114 4.05
      vertex 3.06418 2.57115 4.05
    endloop
  endfacet
  facet normal 0 0 1
    outer loop
      vertex 3.53179 -1.87789 4.05
      vertex 2.12663 -1.54508 4.05
      vertex 3.39219 -2.11968 4.05
    endloop
  endfacet
  facet normal 0 0 1
    outer loop
      vertex 2.12663 1.54508 4.05
      vertex 3.06418 2.57115 4.05
      vertex 2.87736 2.77863 4.05
    endloop
  endfacet
  facet normal 0 0 1
    outer loop
      vertex 3.39219 -2.11968 4.05
      vertex 2.12663 -1.54508 4.05
      vertex 3.23607 -2.35114 4.05
    endloop
  endfacet
  facet normal 0 0 1
    outer loop
      vertex 2.12663 1.54508 4.05
      vertex 2.87736 2.77863 4.05
      vertex 2.67652 2.97258 4.05
    endloop
  endfacet
  facet normal 0 0 1
    outer loop
      vertex 3.23607 -2.35114 4.05
      vertex 2.12663 -1.54508 4.05
      vertex 3.06418 -2.57115 4.05
    endloop
  endfacet
  facet normal 0 0 1
    outer loop
      vertex 3.06418 -2.57115 4.05
      vertex 2.12663 -1.54508 4.05
      vertex 2.87736 -2.77863 4.05
    endloop
  endfacet
  facet normal 0 0 1
    outer loop
      vertex 2.12663 1.54508 4.05
      vertex 2.67652 2.97258 4.05
      vertex 2.46265 3.15204 4.05
    endloop
  endfacet
  facet normal 0 0 1
    outer loop
      vertex 2.12663 1.54508 4.05
      vertex 2.46265 3.15204 4.05
      vertex 2.23677 3.31615 4.05
    endloop
  endfacet
  facet normal 0 0 1
    outer loop
      vertex 3.75877 1.36808 4.05
      vertex 2.12663 1.54508 4.05
      vertex 2.62866 0 4.05
    endloop
  endfacet
  facet normal 0 0 1
    outer loop
      vertex 0.812299 2.5 4.05
      vertex 2.23677 3.31615 4.05
      vertex 2 3.4641 4.05
    endloop
  endfacet
  facet normal 0 0 1
    outer loop
      vertex 0.812299 2.5 4.05
      vertex 2 3.4641 4.05
      vertex 1.75348 3.59518 4.05
    endloop
  endfacet
  facet normal 0 0 1
    outer loop
      vertex 0.812299 2.5 4.05
      vertex 1.75348 3.59518 4.05
      vertex 1.49843 3.70873 4.05
    endloop
  endfacet
  facet normal 0 0 1
    outer loop
      vertex 0.812299 2.5 4.05
      vertex 1.49843 3.70873 4.05
      vertex 1.23607 3.80423 4.05
    endloop
  endfacet
  facet normal 0 0 1
    outer loop
      vertex 0.812299 2.5 4.05
      vertex 1.23607 3.80423 4.05
      vertex 0.967687 3.88118 4.05
    endloop
  endfacet
  facet normal 0 0 1
    outer loop
      vertex 2.23677 3.31615 4.05
      vertex 0.812299 2.5 4.05
      vertex 2.12663 1.54508 4.05
    endloop
  endfacet
  facet normal 0 0 1
    outer loop
      vertex 0.694592 3.93923 4.05
      vertex 0.812299 2.5 4.05
      vertex 0.967687 3.88118 4.05
    endloop
  endfacet
  facet normal 0 0 1
    outer loop
      vertex 0.418114 3.97809 4.05
      vertex 0.812299 2.5 4.05
      vertex 0.694592 3.93923 4.05
    endloop
  endfacet
  facet normal 0 0 1
    outer loop
      vertex 0.139598 3.99756 4.05
      vertex 0.812299 2.5 4.05
      vertex 0.418114 3.97809 4.05
    endloop
  endfacet
  facet normal -0 0 1
    outer loop
      vertex -0.139598 3.99756 4.05
      vertex 0.812299 2.5 4.05
      vertex 0.139598 3.99756 4.05
    endloop
  endfacet
  facet normal 0 0 1
    outer loop
      vertex -0.812299 2.5 4.05
      vertex -0.139598 3.99756 4.05
      vertex -0.418114 3.97809 4.05
    endloop
  endfacet
  facet normal 0 0 1
    outer loop
      vertex -0.812299 2.5 4.05
      vertex -0.418114 3.97809 4.05
      vertex -0.694592 3.93923 4.05
    endloop
  endfacet
  facet normal 0 0 1
    outer loop
      vertex -0.139598 3.99756 4.05
      vertex -0.812299 2.5 4.05
      vertex 0.812299 2.5 4.05
    endloop
  endfacet
  facet normal -0 0 1
    outer loop
      vertex -0.967687 3.88118 4.05
      vertex -0.812299 2.5 4.05
      vertex -0.694592 3.93923 4.05
    endloop
  endfacet
  facet normal -0 0 1
    outer loop
      vertex -1.23607 3.80423 4.05
      vertex -0.812299 2.5 4.05
      vertex -0.967687 3.88118 4.05
    endloop
  endfacet
  facet normal -0 0 1
    outer loop
      vertex -1.49843 3.70873 4.05
      vertex -0.812299 2.5 4.05
      vertex -1.23607 3.80423 4.05
    endloop
  endfacet
  facet normal -0 0 1
    outer loop
      vertex -1.75348 3.59518 4.05
      vertex -0.812299 2.5 4.05
      vertex -1.49843 3.70873 4.05
    endloop
  endfacet
  facet normal -0 0 1
    outer loop
      vertex -2 3.4641 4.05
      vertex -0.812299 2.5 4.05
      vertex -1.75348 3.59518 4.05
    endloop
  endfacet
  facet normal -0 0 1
    outer loop
      vertex -2.23677 3.31615 4.05
      vertex -0.812299 2.5 4.05
      vertex -2 3.4641 4.05
    endloop
  endfacet
  facet normal 0 0 1
    outer loop
      vertex -0.812299 2.5 4.05
      vertex -2.23677 3.31615 4.05
      vertex -2.12663 1.54508 4.05
    endloop
  endfacet
  facet normal -0 0 1
    outer loop
      vertex -2.46265 3.15204 4.05
      vertex -2.12663 1.54508 4.05
      vertex -2.23677 3.31615 4.05
    endloop
  endfacet
  facet normal -0 0 1
    outer loop
      vertex -2.67652 2.97258 4.05
      vertex -2.12663 1.54508 4.05
      vertex -2.46265 3.15204 4.05
    endloop
  endfacet
  facet normal -0 0 1
    outer loop
      vertex -2.87736 2.77863 4.05
      vertex -2.12663 1.54508 4.05
      vertex -2.67652 2.97258 4.05
    endloop
  endfacet
  facet normal 0 0 1
    outer loop
      vertex 2.87736 -2.77863 4.05
      vertex 2.12663 -1.54508 4.05
      vertex 2.67652 -2.97258 4.05
    endloop
  endfacet
  facet normal 0 0 1
    outer loop
      vertex 2.67652 -2.97258 4.05
      vertex 2.12663 -1.54508 4.05
      vertex 2.46265 -3.15204 4.05
    endloop
  endfacet
  facet normal 0 0 1
    outer loop
      vertex 2.46265 -3.15204 4.05
      vertex 2.12663 -1.54508 4.05
      vertex 2.23677 -3.31615 4.05
    endloop
  endfacet
  facet normal -0 0 1
    outer loop
      vertex 0.812299 -2.5 4.05
      vertex 2.23677 -3.31615 4.05
      vertex 2.12663 -1.54508 4.05
    endloop
  endfacet
  facet normal 0 0 1
    outer loop
      vertex 2.23677 -3.31615 4.05
      vertex 0.812299 -2.5 4.05
      vertex 2 -3.4641 4.05
    endloop
  endfacet
  facet normal 0 0 1
    outer loop
      vertex 2 -3.4641 4.05
      vertex 0.812299 -2.5 4.05
      vertex 1.75348 -3.59518 4.05
    endloop
  endfacet
  facet normal 0 0 1
    outer loop
      vertex 1.75348 -3.59518 4.05
      vertex 0.812299 -2.5 4.05
      vertex 1.49843 -3.70873 4.05
    endloop
  endfacet
  facet normal 0 0 1
    outer loop
      vertex 1.49843 -3.70873 4.05
      vertex 0.812299 -2.5 4.05
      vertex 1.23607 -3.80423 4.05
    endloop
  endfacet
  facet normal 0 0 1
    outer loop
      vertex 1.23607 -3.80423 4.05
      vertex 0.812299 -2.5 4.05
      vertex 0.967687 -3.88118 4.05
    endloop
  endfacet
  facet normal 0 0 1
    outer loop
      vertex 0.812299 -2.5 4.05
      vertex 0.694592 -3.93923 4.05
      vertex 0.967687 -3.88118 4.05
    endloop
  endfacet
  facet normal 0 0 1
    outer loop
      vertex 0.812299 -2.5 4.05
      vertex 0.418114 -3.97809 4.05
      vertex 0.694592 -3.93923 4.05
    endloop
  endfacet
  facet normal 0 0 1
    outer loop
      vertex 0.812299 -2.5 4.05
      vertex 0.139598 -3.99756 4.05
      vertex 0.418114 -3.97809 4.05
    endloop
  endfacet
  facet normal 0 0 1
    outer loop
      vertex 0.812299 -2.5 4.05
      vertex -0.139598 -3.99756 4.05
      vertex 0.139598 -3.99756 4.05
    endloop
  endfacet
  facet normal -0 0 1
    outer loop
      vertex -0.812299 -2.5 4.05
      vertex -0.139598 -3.99756 4.05
      vertex 0.812299 -2.5 4.05
    endloop
  endfacet
  facet normal 0 0 1
    outer loop
      vertex -0.139598 -3.99756 4.05
      vertex -0.812299 -2.5 4.05
      vertex -0.418114 -3.97809 4.05
    endloop
  endfacet
  facet normal 0 0 1
    outer loop
      vertex -0.418114 -3.97809 4.05
      vertex -0.812299 -2.5 4.05
      vertex -0.694592 -3.93923 4.05
    endloop
  endfacet
  facet normal 0 0 1
    outer loop
      vertex -0.812299 -2.5 4.05
      vertex -0.967687 -3.88118 4.05
      vertex -0.694592 -3.93923 4.05
    endloop
  endfacet
  facet normal 0 0 1
    outer loop
      vertex -0.812299 -2.5 4.05
      vertex -1.23607 -3.80423 4.05
      vertex -0.967687 -3.88118 4.05
    endloop
  endfacet
  facet normal 0 0 1
    outer loop
      vertex -0.812299 -2.5 4.05
      vertex -1.49843 -3.70873 4.05
      vertex -1.23607 -3.80423 4.05
    endloop
  endfacet
  facet normal 0 0 1
    outer loop
      vertex -0.812299 -2.5 4.05
      vertex -1.75348 -3.59518 4.05
      vertex -1.49843 -3.70873 4.05
    endloop
  endfacet
  facet normal 0 0 1
    outer loop
      vertex -0.812299 -2.5 4.05
      vertex -2 -3.4641 4.05
      vertex -1.75348 -3.59518 4.05
    endloop
  endfacet
  facet normal 0 0 1
    outer loop
      vertex -2.23677 -3.31615 4.05
      vertex -0.812299 -2.5 4.05
      vertex -2.12663 -1.54508 4.05
    endloop
  endfacet
  facet normal 0 0 1
    outer loop
      vertex -0.812299 -2.5 4.05
      vertex -2.23677 -3.31615 4.05
      vertex -2 -3.4641 4.05
    endloop
  endfacet
  facet normal 0 0 1
    outer loop
      vertex -2.12663 -1.54508 4.05
      vertex -2.46265 -3.15204 4.05
      vertex -2.23677 -3.31615 4.05
    endloop
  endfacet
  facet normal -0 0 1
    outer loop
      vertex -3.75877 -1.36808 4.05
      vertex -2.12663 -1.54508 4.05
      vertex -2.62866 0 4.05
    endloop
  endfacet
  facet normal 0 0 1
    outer loop
      vertex -2.12663 -1.54508 4.05
      vertex -2.67652 -2.97258 4.05
      vertex -2.46265 -3.15204 4.05
    endloop
  endfacet
  facet normal -0 0 1
    outer loop
      vertex -3.06418 2.57115 4.05
      vertex -2.12663 1.54508 4.05
      vertex -2.87736 2.77863 4.05
    endloop
  endfacet
  facet normal -0 0 1
    outer loop
      vertex -3.23607 2.35114 4.05
      vertex -2.12663 1.54508 4.05
      vertex -3.06418 2.57115 4.05
    endloop
  endfacet
  facet normal 0 0 1
    outer loop
      vertex -2.12663 -1.54508 4.05
      vertex -2.87736 -2.77863 4.05
      vertex -2.67652 -2.97258 4.05
    endloop
  endfacet
  facet normal -0 0 1
    outer loop
      vertex -3.39219 2.11968 4.05
      vertex -2.12663 1.54508 4.05
      vertex -3.23607 2.35114 4.05
    endloop
  endfacet
  facet normal 0 0 1
    outer loop
      vertex -2.12663 -1.54508 4.05
      vertex -3.06418 -2.57115 4.05
      vertex -2.87736 -2.77863 4.05
    endloop
  endfacet
  facet normal -0 0 1
    outer loop
      vertex -3.53179 1.87789 4.05
      vertex -2.12663 1.54508 4.05
      vertex -3.39219 2.11968 4.05
    endloop
  endfacet
  facet normal 0 0 1
    outer loop
      vertex -2.12663 -1.54508 4.05
      vertex -3.23607 -2.35114 4.05
      vertex -3.06418 -2.57115 4.05
    endloop
  endfacet
  facet normal -0 0 1
    outer loop
      vertex -3.65418 1.62695 4.05
      vertex -2.12663 1.54508 4.05
      vertex -3.53179 1.87789 4.05
    endloop
  endfacet
  facet normal 0 0 1
    outer loop
      vertex -2.12663 -1.54508 4.05
      vertex -3.39219 -2.11968 4.05
      vertex -3.23607 -2.35114 4.05
    endloop
  endfacet
  facet normal 0 0 1
    outer loop
      vertex -3.75877 1.36808 4.05
      vertex -2.12663 1.54508 4.05
      vertex -3.65418 1.62695 4.05
    endloop
  endfacet
  facet normal 0 0 1
    outer loop
      vertex -2.12663 -1.54508 4.05
      vertex -3.53179 -1.87789 4.05
      vertex -3.39219 -2.11968 4.05
    endloop
  endfacet
  facet normal 0 0 1
    outer loop
      vertex -2.12663 1.54508 4.05
      vertex -3.75877 1.36808 4.05
      vertex -2.62866 0 4.05
    endloop
  endfacet
  facet normal 0 0 1
    outer loop
      vertex -2.12663 -1.54508 4.05
      vertex -3.65418 -1.62695 4.05
      vertex -3.53179 -1.87789 4.05
    endloop
  endfacet
  facet normal -0 0 1
    outer loop
      vertex -3.84505 1.10255 4.05
      vertex -2.62866 0 4.05
      vertex -3.75877 1.36808 4.05
    endloop
  endfacet
  facet normal 0 0 1
    outer loop
      vertex -2.12663 -1.54508 4.05
      vertex -3.75877 -1.36808 4.05
      vertex -3.65418 -1.62695 4.05
    endloop
  endfacet
  facet normal -0 0 1
    outer loop
      vertex -3.91259 0.831646 4.05
      vertex -2.62866 0 4.05
      vertex -3.84505 1.10255 4.05
    endloop
  endfacet
  facet normal 0 0 1
    outer loop
      vertex -2.62866 0 4.05
      vertex -3.84505 -1.10255 4.05
      vertex -3.75877 -1.36808 4.05
    endloop
  endfacet
  facet normal -0 0 1
    outer loop
      vertex -3.96107 0.556692 4.05
      vertex -2.62866 0 4.05
      vertex -3.91259 0.831646 4.05
    endloop
  endfacet
  facet normal 0 0 1
    outer loop
      vertex -2.62866 0 4.05
      vertex -3.91259 -0.831646 4.05
      vertex -3.84505 -1.10255 4.05
    endloop
  endfacet
  facet normal -0 0 1
    outer loop
      vertex -3.99026 0.279025 4.05
      vertex -2.62866 0 4.05
      vertex -3.96107 0.556692 4.05
    endloop
  endfacet
  facet normal 0 0 1
    outer loop
      vertex -2.62866 0 4.05
      vertex -3.96107 -0.556692 4.05
      vertex -3.91259 -0.831646 4.05
    endloop
  endfacet
  facet normal 0 0 1
    outer loop
      vertex -4 0 4.05
      vertex -2.62866 0 4.05
      vertex -3.99026 0.279025 4.05
    endloop
  endfacet
  facet normal 0 0 1
    outer loop
      vertex -2.62866 0 4.05
      vertex -3.99026 -0.279025 4.05
      vertex -3.96107 -0.556692 4.05
    endloop
  endfacet
  facet normal 0 0 1
    outer loop
      vertex -2.62866 0 4.05
      vertex -4 0 4.05
      vertex -3.99026 -0.279025 4.05
    endloop
  endfacet
  facet normal -0.587786 0.809016 0
    outer loop
      vertex -2.23677 3.31615 0
      vertex -2.46265 3.15204 4.05
      vertex -2.23677 3.31615 4.05
    endloop
  endfacet
  facet normal -0.587786 0.809016 0
    outer loop
      vertex -2.46265 3.15204 4.05
      vertex -2.23677 3.31615 0
      vertex -2.46265 3.15204 0
    endloop
  endfacet
  facet normal -0.642787 0.766045 0
    outer loop
      vertex -2.46265 3.15204 0
      vertex -2.67652 2.97258 4.05
      vertex -2.46265 3.15204 4.05
    endloop
  endfacet
  facet normal -0.642787 0.766045 0
    outer loop
      vertex -2.67652 2.97258 4.05
      vertex -2.46265 3.15204 0
      vertex -2.67652 2.97258 0
    endloop
  endfacet
  facet normal -0.342023 0.939691 0
    outer loop
      vertex -1.23607 3.80423 0
      vertex -1.49843 3.70873 4.05
      vertex -1.23607 3.80423 4.05
    endloop
  endfacet
  facet normal -0.342023 0.939691 0
    outer loop
      vertex -1.49843 3.70873 4.05
      vertex -1.23607 3.80423 0
      vertex -1.49843 3.70873 0
    endloop
  endfacet
  facet normal -0.139173 0.990268 0
    outer loop
      vertex -0.418114 3.97809 0
      vertex -0.694592 3.93923 4.05
      vertex -0.418114 3.97809 4.05
    endloop
  endfacet
  facet normal -0.139173 0.990268 0
    outer loop
      vertex -0.694592 3.93923 4.05
      vertex -0.418114 3.97809 0
      vertex -0.694592 3.93923 0
    endloop
  endfacet
  facet normal 0.999391 -0.0349026 0
    outer loop
      vertex 3.99026 -0.279025 4.05
      vertex 4 0 0
      vertex 4 0 4.05
    endloop
  endfacet
  facet normal 0.999391 -0.0349026 0
    outer loop
      vertex 4 0 0
      vertex 3.99026 -0.279025 4.05
      vertex 3.99026 -0.279025 0
    endloop
  endfacet
  facet normal 0.927184 -0.374606 0
    outer loop
      vertex 3.65418 -1.62695 4.05
      vertex 3.75877 -1.36808 0
      vertex 3.75877 -1.36808 4.05
    endloop
  endfacet
  facet normal 0.927184 -0.374606 0
    outer loop
      vertex 3.75877 -1.36808 0
      vertex 3.65418 -1.62695 4.05
      vertex 3.65418 -1.62695 0
    endloop
  endfacet
  facet normal 0.984808 -0.173649 0
    outer loop
      vertex 3.91259 -0.831646 4.05
      vertex 3.96107 -0.556692 0
      vertex 3.96107 -0.556692 4.05
    endloop
  endfacet
  facet normal 0.984808 -0.173649 0
    outer loop
      vertex 3.96107 -0.556692 0
      vertex 3.91259 -0.831646 4.05
      vertex 3.91259 -0.831646 0
    endloop
  endfacet
  facet normal 0.994522 -0.104526 0
    outer loop
      vertex 3.96107 -0.556692 4.05
      vertex 3.99026 -0.279025 0
      vertex 3.99026 -0.279025 4.05
    endloop
  endfacet
  facet normal 0.994522 -0.104526 0
    outer loop
      vertex 3.99026 -0.279025 0
      vertex 3.96107 -0.556692 4.05
      vertex 3.96107 -0.556692 0
    endloop
  endfacet
  facet normal 0.78801 -0.615663 0
    outer loop
      vertex 3.06418 -2.57115 4.05
      vertex 3.23607 -2.35114 0
      vertex 3.23607 -2.35114 4.05
    endloop
  endfacet
  facet normal 0.78801 -0.615663 0
    outer loop
      vertex 3.23607 -2.35114 0
      vertex 3.06418 -2.57115 4.05
      vertex 3.06418 -2.57115 0
    endloop
  endfacet
  facet normal -0.275636 -0.961262 0
    outer loop
      vertex -1.23607 -3.80423 0
      vertex -0.967687 -3.88118 4.05
      vertex -1.23607 -3.80423 4.05
    endloop
  endfacet
  facet normal -0.275636 -0.961262 -0
    outer loop
      vertex -0.967687 -3.88118 4.05
      vertex -1.23607 -3.80423 0
      vertex -0.967687 -3.88118 0
    endloop
  endfacet
  facet normal -0.927184 -0.374606 0
    outer loop
      vertex -3.65418 -1.62695 0
      vertex -3.75877 -1.36808 4.05
      vertex -3.75877 -1.36808 0
    endloop
  endfacet
  facet normal -0.927184 -0.374606 0
    outer loop
      vertex -3.75877 -1.36808 4.05
      vertex -3.65418 -1.62695 0
      vertex -3.65418 -1.62695 4.05
    endloop
  endfacet
  facet normal 0 0 -1
    outer loop
      vertex 2.62866 0 0
      vertex 4 0 0
      vertex 3.99026 -0.279025 0
    endloop
  endfacet
  facet normal 0 0 -1
    outer loop
      vertex 2.62866 0 0
      vertex 3.99026 -0.279025 0
      vertex 3.96107 -0.556692 0
    endloop
  endfacet
  facet normal 0 0 -1
    outer loop
      vertex 4 0 0
      vertex 2.62866 0 0
      vertex 3.99026 0.279025 0
    endloop
  endfacet
  facet normal 0 0 -1
    outer loop
      vertex 2.62866 0 0
      vertex 3.96107 -0.556692 0
      vertex 3.91259 -0.831646 0
    endloop
  endfacet
  facet normal -0 0 -1
    outer loop
      vertex 3.99026 0.279025 0
      vertex 2.62866 0 0
      vertex 3.96107 0.556692 0
    endloop
  endfacet
  facet normal 0 0 -1
    outer loop
      vertex 2.62866 0 0
      vertex 3.91259 -0.831646 0
      vertex 3.84505 -1.10255 0
    endloop
  endfacet
  facet normal -0 0 -1
    outer loop
      vertex 3.96107 0.556692 0
      vertex 2.62866 0 0
      vertex 3.91259 0.831646 0
    endloop
  endfacet
  facet normal 0 0 -1
    outer loop
      vertex 2.62866 0 0
      vertex 3.84505 -1.10255 0
      vertex 3.75877 -1.36808 0
    endloop
  endfacet
  facet normal -0 0 -1
    outer loop
      vertex 3.91259 0.831646 0
      vertex 2.62866 0 0
      vertex 3.84505 1.10255 0
    endloop
  endfacet
  facet normal 0 0 -1
    outer loop
      vertex 2.12663 -1.54508 0
      vertex 3.75877 -1.36808 0
      vertex 3.65418 -1.62695 0
    endloop
  endfacet
  facet normal -0 0 -1
    outer loop
      vertex 3.84505 1.10255 0
      vertex 2.62866 0 0
      vertex 3.75877 1.36808 0
    endloop
  endfacet
  facet normal 0 0 -1
    outer loop
      vertex 2.12663 -1.54508 0
      vertex 3.65418 -1.62695 0
      vertex 3.53179 -1.87789 0
    endloop
  endfacet
  facet normal 0 0 -1
    outer loop
      vertex 2.12663 1.54508 0
      vertex 3.75877 1.36808 0
      vertex 2.62866 0 0
    endloop
  endfacet
  facet normal 0 0 -1
    outer loop
      vertex 2.12663 -1.54508 0
      vertex 3.53179 -1.87789 0
      vertex 3.39219 -2.11968 0
    endloop
  endfacet
  facet normal 0 0 -1
    outer loop
      vertex 3.75877 1.36808 0
      vertex 2.12663 1.54508 0
      vertex 3.65418 1.62695 0
    endloop
  endfacet
  facet normal 0 0 -1
    outer loop
      vertex 2.12663 -1.54508 0
      vertex 3.39219 -2.11968 0
      vertex 3.23607 -2.35114 0
    endloop
  endfacet
  facet normal -0 0 -1
    outer loop
      vertex 3.65418 1.62695 0
      vertex 2.12663 1.54508 0
      vertex 3.53179 1.87789 0
    endloop
  endfacet
  facet normal 0 0 -1
    outer loop
      vertex 2.12663 -1.54508 0
      vertex 3.23607 -2.35114 0
      vertex 3.06418 -2.57115 0
    endloop
  endfacet
  facet normal -0 0 -1
    outer loop
      vertex 3.53179 1.87789 0
      vertex 2.12663 1.54508 0
      vertex 3.39219 2.11968 0
    endloop
  endfacet
  facet normal 0 0 -1
    outer loop
      vertex 2.12663 -1.54508 0
      vertex 3.06418 -2.57115 0
      vertex 2.87736 -2.77863 0
    endloop
  endfacet
  facet normal -0 0 -1
    outer loop
      vertex 3.39219 2.11968 0
      vertex 2.12663 1.54508 0
      vertex 3.23607 2.35114 0
    endloop
  endfacet
  facet normal 0 0 -1
    outer loop
      vertex 2.12663 -1.54508 0
      vertex 2.87736 -2.77863 0
      vertex 2.67652 -2.97258 0
    endloop
  endfacet
  facet normal -0 0 -1
    outer loop
      vertex 3.23607 2.35114 0
      vertex 2.12663 1.54508 0
      vertex 3.06418 2.57115 0
    endloop
  endfacet
  facet normal -0 0 -1
    outer loop
      vertex 3.06418 2.57115 0
      vertex 2.12663 1.54508 0
      vertex 2.87736 2.77863 0
    endloop
  endfacet
  facet normal 0 0 -1
    outer loop
      vertex 2.12663 -1.54508 0
      vertex 2.67652 -2.97258 0
      vertex 2.46265 -3.15204 0
    endloop
  endfacet
  facet normal 0 0 -1
    outer loop
      vertex 2.12663 -1.54508 0
      vertex 2.46265 -3.15204 0
      vertex 2.23677 -3.31615 0
    endloop
  endfacet
  facet normal -0 0 -1
    outer loop
      vertex 3.75877 -1.36808 0
      vertex 2.12663 -1.54508 0
      vertex 2.62866 0 0
    endloop
  endfacet
  facet normal 0 0 -1
    outer loop
      vertex 0.812299 -2.5 0
      vertex 2.23677 -3.31615 0
      vertex 2 -3.4641 0
    endloop
  endfacet
  facet normal 0 0 -1
    outer loop
      vertex 0.812299 -2.5 0
      vertex 2 -3.4641 0
      vertex 1.75348 -3.59518 0
    endloop
  endfacet
  facet normal 0 0 -1
    outer loop
      vertex 0.812299 -2.5 0
      vertex 1.75348 -3.59518 0
      vertex 1.49843 -3.70873 0
    endloop
  endfacet
  facet normal 0 0 -1
    outer loop
      vertex 0.812299 -2.5 0
      vertex 1.49843 -3.70873 0
      vertex 1.23607 -3.80423 0
    endloop
  endfacet
  facet normal 0 0 -1
    outer loop
      vertex 0.812299 -2.5 0
      vertex 1.23607 -3.80423 0
      vertex 0.967687 -3.88118 0
    endloop
  endfacet
  facet normal 0 0 -1
    outer loop
      vertex 2.23677 -3.31615 0
      vertex 0.812299 -2.5 0
      vertex 2.12663 -1.54508 0
    endloop
  endfacet
  facet normal 0 0 -1
    outer loop
      vertex 0.694592 -3.93923 0
      vertex 0.812299 -2.5 0
      vertex 0.967687 -3.88118 0
    endloop
  endfacet
  facet normal 0 0 -1
    outer loop
      vertex 0.418114 -3.97809 0
      vertex 0.812299 -2.5 0
      vertex 0.694592 -3.93923 0
    endloop
  endfacet
  facet normal 0 0 -1
    outer loop
      vertex 0.139598 -3.99756 0
      vertex 0.812299 -2.5 0
      vertex 0.418114 -3.97809 0
    endloop
  endfacet
  facet normal 0 0 -1
    outer loop
      vertex -0.139598 -3.99756 0
      vertex 0.812299 -2.5 0
      vertex 0.139598 -3.99756 0
    endloop
  endfacet
  facet normal 0 0 -1
    outer loop
      vertex -0.812299 -2.5 0
      vertex -0.139598 -3.99756 0
      vertex -0.418114 -3.97809 0
    endloop
  endfacet
  facet normal 0 0 -1
    outer loop
      vertex -0.812299 -2.5 0
      vertex -0.418114 -3.97809 0
      vertex -0.694592 -3.93923 0
    endloop
  endfacet
  facet normal 0 0 -1
    outer loop
      vertex -0.139598 -3.99756 0
      vertex -0.812299 -2.5 0
      vertex 0.812299 -2.5 0
    endloop
  endfacet
  facet normal 0 0 -1
    outer loop
      vertex -0.967687 -3.88118 0
      vertex -0.812299 -2.5 0
      vertex -0.694592 -3.93923 0
    endloop
  endfacet
  facet normal 0 0 -1
    outer loop
      vertex -1.23607 -3.80423 0
      vertex -0.812299 -2.5 0
      vertex -0.967687 -3.88118 0
    endloop
  endfacet
  facet normal 0 0 -1
    outer loop
      vertex -1.49843 -3.70873 0
      vertex -0.812299 -2.5 0
      vertex -1.23607 -3.80423 0
    endloop
  endfacet
  facet normal 0 0 -1
    outer loop
      vertex -1.75348 -3.59518 0
      vertex -0.812299 -2.5 0
      vertex -1.49843 -3.70873 0
    endloop
  endfacet
  facet normal 0 0 -1
    outer loop
      vertex -2 -3.4641 0
      vertex -0.812299 -2.5 0
      vertex -1.75348 -3.59518 0
    endloop
  endfacet
  facet normal 0 0 -1
    outer loop
      vertex -2.23677 -3.31615 0
      vertex -0.812299 -2.5 0
      vertex -2 -3.4641 0
    endloop
  endfacet
  facet normal -0 0 -1
    outer loop
      vertex -0.812299 -2.5 0
      vertex -2.23677 -3.31615 0
      vertex -2.12663 -1.54508 0
    endloop
  endfacet
  facet normal 0 0 -1
    outer loop
      vertex -2.46265 -3.15204 0
      vertex -2.12663 -1.54508 0
      vertex -2.23677 -3.31615 0
    endloop
  endfacet
  facet normal 0 0 -1
    outer loop
      vertex -2.67652 -2.97258 0
      vertex -2.12663 -1.54508 0
      vertex -2.46265 -3.15204 0
    endloop
  endfacet
  facet normal 0 0 -1
    outer loop
      vertex -2.87736 -2.77863 0
      vertex -2.12663 -1.54508 0
      vertex -2.67652 -2.97258 0
    endloop
  endfacet
  facet normal -0 0 -1
    outer loop
      vertex 2.87736 2.77863 0
      vertex 2.12663 1.54508 0
      vertex 2.67652 2.97258 0
    endloop
  endfacet
  facet normal -0 0 -1
    outer loop
      vertex 2.67652 2.97258 0
      vertex 2.12663 1.54508 0
      vertex 2.46265 3.15204 0
    endloop
  endfacet
  facet normal -0 0 -1
    outer loop
      vertex 2.46265 3.15204 0
      vertex 2.12663 1.54508 0
      vertex 2.23677 3.31615 0
    endloop
  endfacet
  facet normal 0 0 -1
    outer loop
      vertex 0.812299 2.5 0
      vertex 2.23677 3.31615 0
      vertex 2.12663 1.54508 0
    endloop
  endfacet
  facet normal -0 0 -1
    outer loop
      vertex 2.23677 3.31615 0
      vertex 0.812299 2.5 0
      vertex 2 3.4641 0
    endloop
  endfacet
  facet normal -0 0 -1
    outer loop
      vertex 2 3.4641 0
      vertex 0.812299 2.5 0
      vertex 1.75348 3.59518 0
    endloop
  endfacet
  facet normal -0 0 -1
    outer loop
      vertex 1.75348 3.59518 0
      vertex 0.812299 2.5 0
      vertex 1.49843 3.70873 0
    endloop
  endfacet
  facet normal -0 0 -1
    outer loop
      vertex 1.49843 3.70873 0
      vertex 0.812299 2.5 0
      vertex 1.23607 3.80423 0
    endloop
  endfacet
  facet normal -0 0 -1
    outer loop
      vertex 1.23607 3.80423 0
      vertex 0.812299 2.5 0
      vertex 0.967687 3.88118 0
    endloop
  endfacet
  facet normal 0 0 -1
    outer loop
      vertex 0.812299 2.5 0
      vertex 0.694592 3.93923 0
      vertex 0.967687 3.88118 0
    endloop
  endfacet
  facet normal 0 0 -1
    outer loop
      vertex 0.812299 2.5 0
      vertex 0.418114 3.97809 0
      vertex 0.694592 3.93923 0
    endloop
  endfacet
  facet normal 0 0 -1
    outer loop
      vertex 0.812299 2.5 0
      vertex 0.139598 3.99756 0
      vertex 0.418114 3.97809 0
    endloop
  endfacet
  facet normal 0 0 -1
    outer loop
      vertex 0.812299 2.5 0
      vertex -0.139598 3.99756 0
      vertex 0.139598 3.99756 0
    endloop
  endfacet
  facet normal 0 0 -1
    outer loop
      vertex -0.812299 2.5 0
      vertex -0.139598 3.99756 0
      vertex 0.812299 2.5 0
    endloop
  endfacet
  facet normal 0 0 -1
    outer loop
      vertex -0.139598 3.99756 0
      vertex -0.812299 2.5 0
      vertex -0.418114 3.97809 0
    endloop
  endfacet
  facet normal 0 0 -1
    outer loop
      vertex -0.418114 3.97809 0
      vertex -0.812299 2.5 0
      vertex -0.694592 3.93923 0
    endloop
  endfacet
  facet normal 0 0 -1
    outer loop
      vertex -0.812299 2.5 0
      vertex -0.967687 3.88118 0
      vertex -0.694592 3.93923 0
    endloop
  endfacet
  facet normal 0 0 -1
    outer loop
      vertex -0.812299 2.5 0
      vertex -1.23607 3.80423 0
      vertex -0.967687 3.88118 0
    endloop
  endfacet
  facet normal 0 0 -1
    outer loop
      vertex -0.812299 2.5 0
      vertex -1.49843 3.70873 0
      vertex -1.23607 3.80423 0
    endloop
  endfacet
  facet normal 0 0 -1
    outer loop
      vertex -0.812299 2.5 0
      vertex -1.75348 3.59518 0
      vertex -1.49843 3.70873 0
    endloop
  endfacet
  facet normal 0 0 -1
    outer loop
      vertex -0.812299 2.5 0
      vertex -2 3.4641 0
      vertex -1.75348 3.59518 0
    endloop
  endfacet
  facet normal 0 0 -1
    outer loop
      vertex -2.23677 3.31615 0
      vertex -0.812299 2.5 0
      vertex -2.12663 1.54508 0
    endloop
  endfacet
  facet normal 0 0 -1
    outer loop
      vertex -0.812299 2.5 0
      vertex -2.23677 3.31615 0
      vertex -2 3.4641 0
    endloop
  endfacet
  facet normal 0 0 -1
    outer loop
      vertex -2.12663 1.54508 0
      vertex -2.46265 3.15204 0
      vertex -2.23677 3.31615 0
    endloop
  endfacet
  facet normal 0 0 -1
    outer loop
      vertex -3.75877 1.36808 0
      vertex -2.12663 1.54508 0
      vertex -2.62866 0 0
    endloop
  endfacet
  facet normal 0 0 -1
    outer loop
      vertex -2.12663 1.54508 0
      vertex -2.67652 2.97258 0
      vertex -2.46265 3.15204 0
    endloop
  endfacet
  facet normal 0 0 -1
    outer loop
      vertex -3.06418 -2.57115 0
      vertex -2.12663 -1.54508 0
      vertex -2.87736 -2.77863 0
    endloop
  endfacet
  facet normal 0 0 -1
    outer loop
      vertex -3.23607 -2.35114 0
      vertex -2.12663 -1.54508 0
      vertex -3.06418 -2.57115 0
    endloop
  endfacet
  facet normal 0 0 -1
    outer loop
      vertex -2.12663 1.54508 0
      vertex -2.87736 2.77863 0
      vertex -2.67652 2.97258 0
    endloop
  endfacet
  facet normal 0 0 -1
    outer loop
      vertex -3.39219 -2.11968 0
      vertex -2.12663 -1.54508 0
      vertex -3.23607 -2.35114 0
    endloop
  endfacet
  facet normal 0 0 -1
    outer loop
      vertex -2.12663 1.54508 0
      vertex -3.06418 2.57115 0
      vertex -2.87736 2.77863 0
    endloop
  endfacet
  facet normal 0 0 -1
    outer loop
      vertex -3.53179 -1.87789 0
      vertex -2.12663 -1.54508 0
      vertex -3.39219 -2.11968 0
    endloop
  endfacet
  facet normal 0 0 -1
    outer loop
      vertex -2.12663 1.54508 0
      vertex -3.23607 2.35114 0
      vertex -3.06418 2.57115 0
    endloop
  endfacet
  facet normal 0 0 -1
    outer loop
      vertex -3.65418 -1.62695 0
      vertex -2.12663 -1.54508 0
      vertex -3.53179 -1.87789 0
    endloop
  endfacet
  facet normal 0 0 -1
    outer loop
      vertex -2.12663 1.54508 0
      vertex -3.39219 2.11968 0
      vertex -3.23607 2.35114 0
    endloop
  endfacet
  facet normal 0 0 -1
    outer loop
      vertex -3.75877 -1.36808 0
      vertex -2.12663 -1.54508 0
      vertex -3.65418 -1.62695 0
    endloop
  endfacet
  facet normal 0 0 -1
    outer loop
      vertex -2.12663 1.54508 0
      vertex -3.53179 1.87789 0
      vertex -3.39219 2.11968 0
    endloop
  endfacet
  facet normal 0 0 -1
    outer loop
      vertex -2.12663 -1.54508 0
      vertex -3.75877 -1.36808 0
      vertex -2.62866 0 0
    endloop
  endfacet
  facet normal 0 0 -1
    outer loop
      vertex -2.12663 1.54508 0
      vertex -3.65418 1.62695 0
      vertex -3.53179 1.87789 0
    endloop
  endfacet
  facet normal 0 0 -1
    outer loop
      vertex -3.84505 -1.10255 0
      vertex -2.62866 0 0
      vertex -3.75877 -1.36808 0
    endloop
  endfacet
  facet normal -0 0 -1
    outer loop
      vertex -2.12663 1.54508 0
      vertex -3.75877 1.36808 0
      vertex -3.65418 1.62695 0
    endloop
  endfacet
  facet normal 0 0 -1
    outer loop
      vertex -3.91259 -0.831646 0
      vertex -2.62866 0 0
      vertex -3.84505 -1.10255 0
    endloop
  endfacet
  facet normal 0 0 -1
    outer loop
      vertex -2.62866 0 0
      vertex -3.84505 1.10255 0
      vertex -3.75877 1.36808 0
    endloop
  endfacet
  facet normal 0 0 -1
    outer loop
      vertex -3.96107 -0.556692 0
      vertex -2.62866 0 0
      vertex -3.91259 -0.831646 0
    endloop
  endfacet
  facet normal 0 0 -1
    outer loop
      vertex -2.62866 0 0
      vertex -3.91259 0.831646 0
      vertex -3.84505 1.10255 0
    endloop
  endfacet
  facet normal 0 0 -1
    outer loop
      vertex -3.99026 -0.279025 0
      vertex -2.62866 0 0
      vertex -3.96107 -0.556692 0
    endloop
  endfacet
  facet normal 0 0 -1
    outer loop
      vertex -2.62866 0 0
      vertex -3.96107 0.556692 0
      vertex -3.91259 0.831646 0
    endloop
  endfacet
  facet normal 0 0 -1
    outer loop
      vertex -4 0 0
      vertex -2.62866 0 0
      vertex -3.99026 -0.279025 0
    endloop
  endfacet
  facet normal 0 0 -1
    outer loop
      vertex -2.62866 0 0
      vertex -3.99026 0.279025 0
      vertex -3.96107 0.556692 0
    endloop
  endfacet
  facet normal 0 0 -1
    outer loop
      vertex -2.62866 0 0
      vertex -4 0 0
      vertex -3.99026 0.279025 0
    endloop
  endfacet
  facet normal 0.406735 -0.913546 0
    outer loop
      vertex 1.49843 -3.70873 0
      vertex 1.75348 -3.59518 4.05
      vertex 1.49843 -3.70873 4.05
    endloop
  endfacet
  facet normal 0.406735 -0.913546 0
    outer loop
      vertex 1.75348 -3.59518 4.05
      vertex 1.49843 -3.70873 0
      vertex 1.75348 -3.59518 0
    endloop
  endfacet
  facet normal 0.342023 -0.939691 0
    outer loop
      vertex 1.23607 -3.80423 0
      vertex 1.49843 -3.70873 4.05
      vertex 1.23607 -3.80423 4.05
    endloop
  endfacet
  facet normal 0.342023 -0.939691 0
    outer loop
      vertex 1.49843 -3.70873 4.05
      vertex 1.23607 -3.80423 0
      vertex 1.49843 -3.70873 0
    endloop
  endfacet
  facet normal 0.951057 -0.309016 0
    outer loop
      vertex 3.75877 -1.36808 4.05
      vertex 3.84505 -1.10255 0
      vertex 3.84505 -1.10255 4.05
    endloop
  endfacet
  facet normal 0.951057 -0.309016 0
    outer loop
      vertex 3.84505 -1.10255 0
      vertex 3.75877 -1.36808 4.05
      vertex 3.75877 -1.36808 0
    endloop
  endfacet
  facet normal 0.69466 -0.719339 0
    outer loop
      vertex 2.67652 -2.97258 0
      vertex 2.87736 -2.77863 4.05
      vertex 2.67652 -2.97258 4.05
    endloop
  endfacet
  facet normal 0.69466 -0.719339 0
    outer loop
      vertex 2.87736 -2.77863 4.05
      vertex 2.67652 -2.97258 0
      vertex 2.87736 -2.77863 0
    endloop
  endfacet
  facet normal 0.743144 -0.669131 0
    outer loop
      vertex 2.87736 -2.77863 4.05
      vertex 3.06418 -2.57115 0
      vertex 3.06418 -2.57115 4.05
    endloop
  endfacet
  facet normal 0.743144 -0.669131 0
    outer loop
      vertex 3.06418 -2.57115 0
      vertex 2.87736 -2.77863 4.05
      vertex 2.87736 -2.77863 0
    endloop
  endfacet
  facet normal 0.587786 -0.809016 0
    outer loop
      vertex 2.23677 -3.31615 0
      vertex 2.46265 -3.15204 4.05
      vertex 2.23677 -3.31615 4.05
    endloop
  endfacet
  facet normal 0.587786 -0.809016 0
    outer loop
      vertex 2.46265 -3.15204 4.05
      vertex 2.23677 -3.31615 0
      vertex 2.46265 -3.15204 0
    endloop
  endfacet
  facet normal 0.642787 -0.766045 0
    outer loop
      vertex 2.46265 -3.15204 0
      vertex 2.67652 -2.97258 4.05
      vertex 2.46265 -3.15204 4.05
    endloop
  endfacet
  facet normal 0.642787 -0.766045 0
    outer loop
      vertex 2.67652 -2.97258 4.05
      vertex 2.46265 -3.15204 0
      vertex 2.67652 -2.97258 0
    endloop
  endfacet
  facet normal -0.0697538 -0.997564 0
    outer loop
      vertex -0.418114 -3.97809 0
      vertex -0.139598 -3.99756 4.05
      vertex -0.418114 -3.97809 4.05
    endloop
  endfacet
  facet normal -0.0697538 -0.997564 -0
    outer loop
      vertex -0.139598 -3.99756 4.05
      vertex -0.418114 -3.97809 0
      vertex -0.139598 -3.99756 0
    endloop
  endfacet
  facet normal -0.78801 -0.615663 0
    outer loop
      vertex -3.06418 -2.57115 0
      vertex -3.23607 -2.35114 4.05
      vertex -3.23607 -2.35114 0
    endloop
  endfacet
  facet normal -0.78801 -0.615663 0
    outer loop
      vertex -3.23607 -2.35114 4.05
      vertex -3.06418 -2.57115 0
      vertex -3.06418 -2.57115 4.05
    endloop
  endfacet
  facet normal -0.984808 -0.173649 0
    outer loop
      vertex -3.91259 -0.831646 0
      vertex -3.96107 -0.556692 4.05
      vertex -3.96107 -0.556692 0
    endloop
  endfacet
  facet normal -0.984808 -0.173649 0
    outer loop
      vertex -3.96107 -0.556692 4.05
      vertex -3.91259 -0.831646 0
      vertex -3.91259 -0.831646 4.05
    endloop
  endfacet
  facet normal 0.139173 -0.990268 0
    outer loop
      vertex 0.418114 -3.97809 0
      vertex 0.694592 -3.93923 4.05
      vertex 0.418114 -3.97809 4.05
    endloop
  endfacet
  facet normal 0.139173 -0.990268 0
    outer loop
      vertex 0.694592 -3.93923 4.05
      vertex 0.418114 -3.97809 0
      vertex 0.694592 -3.93923 0
    endloop
  endfacet
  facet normal 0.0697538 -0.997564 0
    outer loop
      vertex 0.139598 -3.99756 0
      vertex 0.418114 -3.97809 4.05
      vertex 0.139598 -3.99756 4.05
    endloop
  endfacet
  facet normal 0.0697538 -0.997564 0
    outer loop
      vertex 0.418114 -3.97809 4.05
      vertex 0.139598 -3.99756 0
      vertex 0.418114 -3.97809 0
    endloop
  endfacet
  facet normal 0.898793 -0.438372 0
    outer loop
      vertex 3.53179 -1.87789 4.05
      vertex 3.65418 -1.62695 0
      vertex 3.65418 -1.62695 4.05
    endloop
  endfacet
  facet normal 0.898793 -0.438372 0
    outer loop
      vertex 3.65418 -1.62695 0
      vertex 3.53179 -1.87789 4.05
      vertex 3.53179 -1.87789 0
    endloop
  endfacet
  facet normal 0.866026 -0.5 0
    outer loop
      vertex 3.39219 -2.11968 4.05
      vertex 3.53179 -1.87789 0
      vertex 3.53179 -1.87789 4.05
    endloop
  endfacet
  facet normal 0.866026 -0.5 0
    outer loop
      vertex 3.53179 -1.87789 0
      vertex 3.39219 -2.11968 4.05
      vertex 3.39219 -2.11968 0
    endloop
  endfacet
  facet normal 0.529919 -0.848048 0
    outer loop
      vertex 2 -3.4641 0
      vertex 2.23677 -3.31615 4.05
      vertex 2 -3.4641 4.05
    endloop
  endfacet
  facet normal 0.529919 -0.848048 0
    outer loop
      vertex 2.23677 -3.31615 4.05
      vertex 2 -3.4641 0
      vertex 2.23677 -3.31615 0
    endloop
  endfacet
  facet normal 0.469471 -0.882948 0
    outer loop
      vertex 1.75348 -3.59518 0
      vertex 2 -3.4641 4.05
      vertex 1.75348 -3.59518 4.05
    endloop
  endfacet
  facet normal 0.469471 -0.882948 0
    outer loop
      vertex 2 -3.4641 4.05
      vertex 1.75348 -3.59518 0
      vertex 2 -3.4641 0
    endloop
  endfacet
  facet normal -0.139173 -0.990268 0
    outer loop
      vertex -0.694592 -3.93923 0
      vertex -0.418114 -3.97809 4.05
      vertex -0.694592 -3.93923 4.05
    endloop
  endfacet
  facet normal -0.139173 -0.990268 -0
    outer loop
      vertex -0.418114 -3.97809 4.05
      vertex -0.694592 -3.93923 0
      vertex -0.418114 -3.97809 0
    endloop
  endfacet
  facet normal -0.207913 -0.978147 0
    outer loop
      vertex -0.967687 -3.88118 0
      vertex -0.694592 -3.93923 4.05
      vertex -0.967687 -3.88118 4.05
    endloop
  endfacet
  facet normal -0.207913 -0.978147 -0
    outer loop
      vertex -0.694592 -3.93923 4.05
      vertex -0.967687 -3.88118 0
      vertex -0.694592 -3.93923 0
    endloop
  endfacet
  facet normal -0.642787 -0.766045 0
    outer loop
      vertex -2.67652 -2.97258 0
      vertex -2.46265 -3.15204 4.05
      vertex -2.67652 -2.97258 4.05
    endloop
  endfacet
  facet normal -0.642787 -0.766045 -0
    outer loop
      vertex -2.46265 -3.15204 4.05
      vertex -2.67652 -2.97258 0
      vertex -2.46265 -3.15204 0
    endloop
  endfacet
  facet normal -0.469471 -0.882948 0
    outer loop
      vertex -2 -3.4641 0
      vertex -1.75348 -3.59518 4.05
      vertex -2 -3.4641 4.05
    endloop
  endfacet
  facet normal -0.469471 -0.882948 -0
    outer loop
      vertex -1.75348 -3.59518 4.05
      vertex -2 -3.4641 0
      vertex -1.75348 -3.59518 0
    endloop
  endfacet
  facet normal -0.529919 -0.848048 0
    outer loop
      vertex -2.23677 -3.31615 0
      vertex -2 -3.4641 4.05
      vertex -2.23677 -3.31615 4.05
    endloop
  endfacet
  facet normal -0.529919 -0.848048 -0
    outer loop
      vertex -2 -3.4641 4.05
      vertex -2.23677 -3.31615 0
      vertex -2 -3.4641 0
    endloop
  endfacet
  facet normal -0.829039 -0.559191 0
    outer loop
      vertex -3.23607 -2.35114 0
      vertex -3.39219 -2.11968 4.05
      vertex -3.39219 -2.11968 0
    endloop
  endfacet
  facet normal -0.829039 -0.559191 0
    outer loop
      vertex -3.39219 -2.11968 4.05
      vertex -3.23607 -2.35114 0
      vertex -3.23607 -2.35114 4.05
    endloop
  endfacet
  facet normal -0.866026 -0.5 0
    outer loop
      vertex -3.39219 -2.11968 0
      vertex -3.53179 -1.87789 4.05
      vertex -3.53179 -1.87789 0
    endloop
  endfacet
  facet normal -0.866026 -0.5 0
    outer loop
      vertex -3.53179 -1.87789 4.05
      vertex -3.39219 -2.11968 0
      vertex -3.39219 -2.11968 4.05
    endloop
  endfacet
  facet normal -0.743144 -0.669131 0
    outer loop
      vertex -2.87736 -2.77863 0
      vertex -3.06418 -2.57115 4.05
      vertex -3.06418 -2.57115 0
    endloop
  endfacet
  facet normal -0.743144 -0.669131 0
    outer loop
      vertex -3.06418 -2.57115 4.05
      vertex -2.87736 -2.77863 0
      vertex -2.87736 -2.77863 4.05
    endloop
  endfacet
  facet normal -0.69466 -0.719339 0
    outer loop
      vertex -2.87736 -2.77863 0
      vertex -2.67652 -2.97258 4.05
      vertex -2.87736 -2.77863 4.05
    endloop
  endfacet
  facet normal -0.69466 -0.719339 -0
    outer loop
      vertex -2.67652 -2.97258 4.05
      vertex -2.87736 -2.77863 0
      vertex -2.67652 -2.97258 0
    endloop
  endfacet
  facet normal -0.951057 -0.309016 0
    outer loop
      vertex -3.75877 -1.36808 0
      vertex -3.84505 -1.10255 4.05
      vertex -3.84505 -1.10255 0
    endloop
  endfacet
  facet normal -0.951057 -0.309016 0
    outer loop
      vertex -3.84505 -1.10255 4.05
      vertex -3.75877 -1.36808 0
      vertex -3.75877 -1.36808 4.05
    endloop
  endfacet
  facet normal -0.970295 -0.241923 0
    outer loop
      vertex -3.84505 -1.10255 0
      vertex -3.91259 -0.831646 4.05
      vertex -3.91259 -0.831646 0
    endloop
  endfacet
  facet normal -0.970295 -0.241923 0
    outer loop
      vertex -3.91259 -0.831646 4.05
      vertex -3.84505 -1.10255 0
      vertex -3.84505 -1.10255 4.05
    endloop
  endfacet
  facet normal -0.994522 -0.104526 0
    outer loop
      vertex -3.96107 -0.556692 0
      vertex -3.99026 -0.279025 4.05
      vertex -3.99026 -0.279025 0
    endloop
  endfacet
  facet normal -0.994522 -0.104526 0
    outer loop
      vertex -3.99026 -0.279025 4.05
      vertex -3.96107 -0.556692 0
      vertex -3.96107 -0.556692 4.05
    endloop
  endfacet
  facet normal -0.999391 -0.0349026 0
    outer loop
      vertex -3.99026 -0.279025 0
      vertex -4 0 4.05
      vertex -4 0 0
    endloop
  endfacet
  facet normal -0.999391 -0.0349026 0
    outer loop
      vertex -4 0 4.05
      vertex -3.99026 -0.279025 0
      vertex -3.99026 -0.279025 4.05
    endloop
  endfacet
  facet normal -0.406735 -0.913546 0
    outer loop
      vertex -1.75348 -3.59518 0
      vertex -1.49843 -3.70873 4.05
      vertex -1.75348 -3.59518 4.05
    endloop
  endfacet
  facet normal -0.406735 -0.913546 -0
    outer loop
      vertex -1.49843 -3.70873 4.05
      vertex -1.75348 -3.59518 0
      vertex -1.49843 -3.70873 0
    endloop
  endfacet
  facet normal -0.342023 -0.939691 0
    outer loop
      vertex -1.49843 -3.70873 0
      vertex -1.23607 -3.80423 4.05
      vertex -1.49843 -3.70873 4.05
    endloop
  endfacet
  facet normal -0.342023 -0.939691 -0
    outer loop
      vertex -1.23607 -3.80423 4.05
      vertex -1.49843 -3.70873 0
      vertex -1.23607 -3.80423 0
    endloop
  endfacet
  facet normal -0.587786 -0.809016 0
    outer loop
      vertex -2.46265 -3.15204 0
      vertex -2.23677 -3.31615 4.05
      vertex -2.46265 -3.15204 4.05
    endloop
  endfacet
  facet normal -0.587786 -0.809016 -0
    outer loop
      vertex -2.23677 -3.31615 4.05
      vertex -2.46265 -3.15204 0
      vertex -2.23677 -3.31615 0
    endloop
  endfacet
  facet normal -0.951057 -0.309017 0
    outer loop
      vertex 2.62866 0 0
      vertex 2.12663 1.54508 4.05
      vertex 2.12663 1.54508 0
    endloop
  endfacet
  facet normal -0.951057 -0.309017 0
    outer loop
      vertex 2.12663 1.54508 4.05
      vertex 2.62866 0 0
      vertex 2.62866 0 4.05
    endloop
  endfacet
  facet normal 0.951057 -0.309017 0
    outer loop
      vertex -2.62866 0 4.05
      vertex -2.12663 1.54508 0
      vertex -2.12663 1.54508 4.05
    endloop
  endfacet
  facet normal 0.951057 -0.309017 0
    outer loop
      vertex -2.12663 1.54508 0
      vertex -2.62866 0 4.05
      vertex -2.62866 0 0
    endloop
  endfacet
  facet normal 0 -1 0
    outer loop
      vertex -0.812299 2.5 0
      vertex 0.812299 2.5 4.05
      vertex -0.812299 2.5 4.05
    endloop
  endfacet
  facet normal 0 -1 -0
    outer loop
      vertex 0.812299 2.5 4.05
      vertex -0.812299 2.5 0
      vertex 0.812299 2.5 0
    endloop
  endfacet
  facet normal -0.587785 -0.809017 0
    outer loop
      vertex 0.812299 2.5 0
      vertex 2.12663 1.54508 4.05
      vertex 0.812299 2.5 4.05
    endloop
  endfacet
  facet normal -0.587785 -0.809017 -0
    outer loop
      vertex 2.12663 1.54508 4.05
      vertex 0.812299 2.5 0
      vertex 2.12663 1.54508 0
    endloop
  endfacet
  facet normal 0.587785 -0.809017 0
    outer loop
      vertex -2.12663 1.54508 0
      vertex -0.812299 2.5 4.05
      vertex -2.12663 1.54508 4.05
    endloop
  endfacet
  facet normal 0.587785 -0.809017 0
    outer loop
      vertex -0.812299 2.5 4.05
      vertex -2.12663 1.54508 0
      vertex -0.812299 2.5 0
    endloop
  endfacet
  facet normal 0.951057 0.309017 0
    outer loop
      vertex -2.12663 -1.54508 4.05
      vertex -2.62866 0 0
      vertex -2.62866 0 4.05
    endloop
  endfacet
  facet normal 0.951057 0.309017 0
    outer loop
      vertex -2.62866 0 0
      vertex -2.12663 -1.54508 4.05
      vertex -2.12663 -1.54508 0
    endloop
  endfacet
  facet normal -0.587785 0.809017 0
    outer loop
      vertex 2.12663 -1.54508 0
      vertex 0.812299 -2.5 4.05
      vertex 2.12663 -1.54508 4.05
    endloop
  endfacet
  facet normal -0.587785 0.809017 0
    outer loop
      vertex 0.812299 -2.5 4.05
      vertex 2.12663 -1.54508 0
      vertex 0.812299 -2.5 0
    endloop
  endfacet
  facet normal 0.587785 0.809017 -0
    outer loop
      vertex -0.812299 -2.5 0
      vertex -2.12663 -1.54508 4.05
      vertex -0.812299 -2.5 4.05
    endloop
  endfacet
  facet normal 0.587785 0.809017 0
    outer loop
      vertex -2.12663 -1.54508 4.05
      vertex -0.812299 -2.5 0
      vertex -2.12663 -1.54508 0
    endloop
  endfacet
  facet normal -0.951057 0.309017 0
    outer loop
      vertex 2.12663 -1.54508 0
      vertex 2.62866 0 4.05
      vertex 2.62866 0 0
    endloop
  endfacet
  facet normal -0.951057 0.309017 0
    outer loop
      vertex 2.62866 0 4.05
      vertex 2.12663 -1.54508 0
      vertex 2.12663 -1.54508 4.05
    endloop
  endfacet
  facet normal 0 1 -0
    outer loop
      vertex 0.812299 -2.5 0
      vertex -0.812299 -2.5 4.05
      vertex 0.812299 -2.5 4.05
    endloop
  endfacet
  facet normal 0 1 0
    outer loop
      vertex -0.812299 -2.5 4.05
      vertex 0.812299 -2.5 0
      vertex -0.812299 -2.5 0
    endloop
  endfacet
endsolid OpenSCAD_Model
