solid OpenSCAD_Model
  facet normal -1 0 0
    outer loop
      vertex -10 46 0
      vertex -10 26 6
      vertex -10 46 6
    endloop
  endfacet
  facet normal -1 0 0
    outer loop
      vertex -10 26 6
      vertex -10 20 6
      vertex -10 26 26
    endloop
  endfacet
  facet normal -1 0 0
    outer loop
      vertex -10 46 0
      vertex -10 20 6
      vertex -10 26 6
    endloop
  endfacet
  facet normal -1 0 0
    outer loop
      vertex -10 0 0
      vertex -10 20 6
      vertex -10 46 0
    endloop
  endfacet
  facet normal -1 -0 0
    outer loop
      vertex -10 20 6
      vertex -10 0 0
      vertex -10 0 6
    endloop
  endfacet
  facet normal -1 -0 0
    outer loop
      vertex -10 26 26
      vertex -10 20 6
      vertex -10 20 26
    endloop
  endfacet
  facet normal -0 0 1
    outer loop
      vertex -10 20 6
      vertex 10 0 6
      vertex 10 20 6
    endloop
  endfacet
  facet normal 0 0 1
    outer loop
      vertex 10 0 6
      vertex -10 20 6
      vertex -10 0 6
    endloop
  endfacet
  facet normal 0 0 1
    outer loop
      vertex 10 46 6
      vertex 2.16478 36 6
      vertex 10 26 6
    endloop
  endfacet
  facet normal 0 0 1
    outer loop
      vertex 10 46 6
      vertex 1.53073 37.5307 6
      vertex 2.16478 36 6
    endloop
  endfacet
  facet normal 0 0 1
    outer loop
      vertex 10 46 6
      vertex 0 38.1648 6
      vertex 1.53073 37.5307 6
    endloop
  endfacet
  facet normal -0 0 1
    outer loop
      vertex -10 46 6
      vertex 0 38.1648 6
      vertex 10 46 6
    endloop
  endfacet
  facet normal 0 0 1
    outer loop
      vertex -1.53073 37.5307 6
      vertex -10 46 6
      vertex -2.16478 36 6
    endloop
  endfacet
  facet normal 0 0 1
    outer loop
      vertex 0 38.1648 6
      vertex -10 46 6
      vertex -1.53073 37.5307 6
    endloop
  endfacet
  facet normal -0 0 1
    outer loop
      vertex 1.53073 34.4693 6
      vertex 10 26 6
      vertex 2.16478 36 6
    endloop
  endfacet
  facet normal -0 0 1
    outer loop
      vertex 0 33.8352 6
      vertex 10 26 6
      vertex 1.53073 34.4693 6
    endloop
  endfacet
  facet normal 0 0 1
    outer loop
      vertex -10 26 6
      vertex 0 33.8352 6
      vertex -1.53073 34.4693 6
    endloop
  endfacet
  facet normal 0 0 1
    outer loop
      vertex -10 26 6
      vertex -2.16478 36 6
      vertex -10 46 6
    endloop
  endfacet
  facet normal 0 0 1
    outer loop
      vertex 0 33.8352 6
      vertex -10 26 6
      vertex 10 26 6
    endloop
  endfacet
  facet normal 0 0 1
    outer loop
      vertex -2.16478 36 6
      vertex -10 26 6
      vertex -1.53073 34.4693 6
    endloop
  endfacet
  facet normal 1 0 0
    outer loop
      vertex 10 26 26
      vertex 10 20 26
      vertex 10 26 6
    endloop
  endfacet
  facet normal 1 -0 0
    outer loop
      vertex 10 26 6
      vertex 10 46 0
      vertex 10 46 6
    endloop
  endfacet
  facet normal 1 0 0
    outer loop
      vertex 10 20 6
      vertex 10 26 6
      vertex 10 20 26
    endloop
  endfacet
  facet normal 1 -0 0
    outer loop
      vertex 10 20 6
      vertex 10 46 0
      vertex 10 26 6
    endloop
  endfacet
  facet normal 1 0 0
    outer loop
      vertex 10 0 0
      vertex 10 20 6
      vertex 10 0 6
    endloop
  endfacet
  facet normal 1 0 0
    outer loop
      vertex 10 20 6
      vertex 10 0 0
      vertex 10 46 0
    endloop
  endfacet
  facet normal 0 1 -0
    outer loop
      vertex 10 46 0
      vertex -10 46 6
      vertex 10 46 6
    endloop
  endfacet
  facet normal 0 1 0
    outer loop
      vertex -10 46 6
      vertex 10 46 0
      vertex -10 46 0
    endloop
  endfacet
  facet normal 0 0 -1
    outer loop
      vertex 1.53073 34.4693 0
      vertex 10 46 0
      vertex 10 0 0
    endloop
  endfacet
  facet normal 0 0 -1
    outer loop
      vertex 10 46 0
      vertex 1.53073 34.4693 0
      vertex 2.16478 36 0
    endloop
  endfacet
  facet normal 0 0 -1
    outer loop
      vertex 10 0 0
      vertex 0 33.8352 0
      vertex 1.53073 34.4693 0
    endloop
  endfacet
  facet normal 0 0 -1
    outer loop
      vertex -10 0 0
      vertex 0 33.8352 0
      vertex 10 0 0
    endloop
  endfacet
  facet normal -0 0 -1
    outer loop
      vertex 0 33.8352 0
      vertex -10 0 0
      vertex -1.53073 34.4693 0
    endloop
  endfacet
  facet normal 0 0 -1
    outer loop
      vertex -10 46 0
      vertex -1.53073 34.4693 0
      vertex -10 0 0
    endloop
  endfacet
  facet normal 0 0 -1
    outer loop
      vertex 1.53073 37.5307 0
      vertex 10 46 0
      vertex 2.16478 36 0
    endloop
  endfacet
  facet normal 0 0 -1
    outer loop
      vertex 0 38.1648 0
      vertex 10 46 0
      vertex 1.53073 37.5307 0
    endloop
  endfacet
  facet normal 0 0 -1
    outer loop
      vertex -10 46 0
      vertex 0 38.1648 0
      vertex -1.53073 37.5307 0
    endloop
  endfacet
  facet normal 0 0 -1
    outer loop
      vertex 0 38.1648 0
      vertex -10 46 0
      vertex 10 46 0
    endloop
  endfacet
  facet normal 0 0 -1
    outer loop
      vertex -2.16478 36 0
      vertex -10 46 0
      vertex -1.53073 37.5307 0
    endloop
  endfacet
  facet normal 0 0 -1
    outer loop
      vertex -1.53073 34.4693 0
      vertex -10 46 0
      vertex -2.16478 36 0
    endloop
  endfacet
  facet normal 0 -1 0
    outer loop
      vertex -10 0 0
      vertex 10 0 6
      vertex -10 0 6
    endloop
  endfacet
  facet normal 0 -1 -0
    outer loop
      vertex 10 0 6
      vertex -10 0 0
      vertex 10 0 0
    endloop
  endfacet
  facet normal -0 0 1
    outer loop
      vertex -10 26 26
      vertex 10 20 26
      vertex 10 26 26
    endloop
  endfacet
  facet normal 0 0 1
    outer loop
      vertex 10 20 26
      vertex -10 26 26
      vertex -10 20 26
    endloop
  endfacet
  facet normal 0 -1 0
    outer loop
      vertex -10 20 26
      vertex -0.828426 20 18
      vertex 10 20 26
    endloop
  endfacet
  facet normal 0 -1 0
    outer loop
      vertex -10 20 26
      vertex -1.43868 20 17.3893
      vertex -0.828426 20 18
    endloop
  endfacet
  facet normal 0 -1 0
    outer loop
      vertex -10 20 26
      vertex -1.53209 20 17.2856
      vertex -1.43868 20 17.3893
    endloop
  endfacet
  facet normal 0 -1 0
    outer loop
      vertex -10 20 26
      vertex -1.61803 20 17.1756
      vertex -1.53209 20 17.2856
    endloop
  endfacet
  facet normal 0 -1 0
    outer loop
      vertex -10 20 26
      vertex -1.6961 20 17.0598
      vertex -1.61803 20 17.1756
    endloop
  endfacet
  facet normal 0 -1 0
    outer loop
      vertex -10 20 26
      vertex -1.76589 20 16.9389
      vertex -1.6961 20 17.0598
    endloop
  endfacet
  facet normal 0 -1 0
    outer loop
      vertex -10 20 26
      vertex -1.82709 20 16.8135
      vertex -1.76589 20 16.9389
    endloop
  endfacet
  facet normal 0 -1 0
    outer loop
      vertex -10 20 26
      vertex -1.87938 20 16.684
      vertex -1.82709 20 16.8135
    endloop
  endfacet
  facet normal 0 -1 0
    outer loop
      vertex -10 20 26
      vertex -1.92252 20 16.5513
      vertex -1.87938 20 16.684
    endloop
  endfacet
  facet normal 0 -1 0
    outer loop
      vertex -10 20 26
      vertex -1.9563 20 16.4158
      vertex -1.92252 20 16.5513
    endloop
  endfacet
  facet normal 0 -1 0
    outer loop
      vertex -10 20 26
      vertex -1.98054 20 16.2783
      vertex -1.9563 20 16.4158
    endloop
  endfacet
  facet normal 0 -1 0
    outer loop
      vertex -10 20 26
      vertex -1.99513 20 16.1395
      vertex -1.98054 20 16.2783
    endloop
  endfacet
  facet normal 0 -1 0
    outer loop
      vertex -10 20 26
      vertex -2 20 16
      vertex -1.99513 20 16.1395
    endloop
  endfacet
  facet normal 0 -1 0
    outer loop
      vertex -10 20 6
      vertex -2 20 16
      vertex -10 20 26
    endloop
  endfacet
  facet normal 0 -1 -0
    outer loop
      vertex -2 20 16
      vertex -10 20 6
      vertex -1.99513 20 15.8605
    endloop
  endfacet
  facet normal 0 -1 -0
    outer loop
      vertex -1.99513 20 15.8605
      vertex -10 20 6
      vertex -1.98054 20 15.7217
    endloop
  endfacet
  facet normal 0 -1 -0
    outer loop
      vertex -1.98054 20 15.7217
      vertex -10 20 6
      vertex -1.9563 20 15.5842
    endloop
  endfacet
  facet normal 0 -1 -0
    outer loop
      vertex -1.9563 20 15.5842
      vertex -10 20 6
      vertex -1.92252 20 15.4487
    endloop
  endfacet
  facet normal 0 -1 -0
    outer loop
      vertex -1.92252 20 15.4487
      vertex -10 20 6
      vertex -1.87938 20 15.316
    endloop
  endfacet
  facet normal 0 -1 -0
    outer loop
      vertex -1.87938 20 15.316
      vertex -10 20 6
      vertex -1.82709 20 15.1865
    endloop
  endfacet
  facet normal 0 -1 -0
    outer loop
      vertex -1.82709 20 15.1865
      vertex -10 20 6
      vertex -1.76589 20 15.0611
    endloop
  endfacet
  facet normal 0 -1 -0
    outer loop
      vertex -1.76589 20 15.0611
      vertex -10 20 6
      vertex -1.6961 20 14.9402
    endloop
  endfacet
  facet normal 0 -1 -0
    outer loop
      vertex -0.0697985 20 14.0012
      vertex -10 20 6
      vertex 0.0697985 20 14.0012
    endloop
  endfacet
  facet normal 0 -1 -0
    outer loop
      vertex -0.209057 20 14.011
      vertex -10 20 6
      vertex -0.0697985 20 14.0012
    endloop
  endfacet
  facet normal 0 -1 -0
    outer loop
      vertex -0.347296 20 14.0304
      vertex -10 20 6
      vertex -0.209057 20 14.011
    endloop
  endfacet
  facet normal 0 -1 -0
    outer loop
      vertex -0.483843 20 14.0594
      vertex -10 20 6
      vertex -0.347296 20 14.0304
    endloop
  endfacet
  facet normal 0 -1 -0
    outer loop
      vertex -0.618033 20 14.0979
      vertex -10 20 6
      vertex -0.483843 20 14.0594
    endloop
  endfacet
  facet normal 0 -1 -0
    outer loop
      vertex -0.749212 20 14.1456
      vertex -10 20 6
      vertex -0.618033 20 14.0979
    endloop
  endfacet
  facet normal 0 -1 -0
    outer loop
      vertex -0.876741 20 14.2024
      vertex -10 20 6
      vertex -0.749212 20 14.1456
    endloop
  endfacet
  facet normal 0 -1 -0
    outer loop
      vertex -1 20 14.2679
      vertex -10 20 6
      vertex -0.876741 20 14.2024
    endloop
  endfacet
  facet normal 0 -1 -0
    outer loop
      vertex -1.11839 20 14.3419
      vertex -10 20 6
      vertex -1 20 14.2679
    endloop
  endfacet
  facet normal 0 -1 -0
    outer loop
      vertex -1.23132 20 14.424
      vertex -10 20 6
      vertex -1.11839 20 14.3419
    endloop
  endfacet
  facet normal 0 -1 -0
    outer loop
      vertex -1.33826 20 14.5137
      vertex -10 20 6
      vertex -1.23132 20 14.424
    endloop
  endfacet
  facet normal 0 -1 -0
    outer loop
      vertex -1.43868 20 14.6107
      vertex -10 20 6
      vertex -1.33826 20 14.5137
    endloop
  endfacet
  facet normal 0 -1 -0
    outer loop
      vertex -1.53209 20 14.7144
      vertex -10 20 6
      vertex -1.43868 20 14.6107
    endloop
  endfacet
  facet normal 0 -1 -0
    outer loop
      vertex -1.61803 20 14.8244
      vertex -10 20 6
      vertex -1.53209 20 14.7144
    endloop
  endfacet
  facet normal 0 -1 -0
    outer loop
      vertex -1.6961 20 14.9402
      vertex -10 20 6
      vertex -1.61803 20 14.8244
    endloop
  endfacet
  facet normal 0 -1 0
    outer loop
      vertex 0.828426 20 18
      vertex 10 20 26
      vertex -0.828426 20 18
    endloop
  endfacet
  facet normal 0 -1 0
    outer loop
      vertex 1.43868 20 17.3893
      vertex 10 20 26
      vertex 0.828426 20 18
    endloop
  endfacet
  facet normal 0 -1 0
    outer loop
      vertex 1.53209 20 17.2856
      vertex 10 20 26
      vertex 1.43868 20 17.3893
    endloop
  endfacet
  facet normal 0 -1 0
    outer loop
      vertex 1.61803 20 17.1756
      vertex 10 20 26
      vertex 1.53209 20 17.2856
    endloop
  endfacet
  facet normal 0 -1 0
    outer loop
      vertex 1.6961 20 17.0598
      vertex 10 20 26
      vertex 1.61803 20 17.1756
    endloop
  endfacet
  facet normal 0 -1 0
    outer loop
      vertex 1.76589 20 16.9389
      vertex 10 20 26
      vertex 1.6961 20 17.0598
    endloop
  endfacet
  facet normal 0 -1 0
    outer loop
      vertex 1.82709 20 16.8135
      vertex 10 20 26
      vertex 1.76589 20 16.9389
    endloop
  endfacet
  facet normal 0 -1 0
    outer loop
      vertex 1.87938 20 16.684
      vertex 10 20 26
      vertex 1.82709 20 16.8135
    endloop
  endfacet
  facet normal 0 -1 0
    outer loop
      vertex 1.92252 20 16.5513
      vertex 10 20 26
      vertex 1.87938 20 16.684
    endloop
  endfacet
  facet normal 0 -1 0
    outer loop
      vertex 1.9563 20 16.4158
      vertex 10 20 26
      vertex 1.92252 20 16.5513
    endloop
  endfacet
  facet normal 0 -1 0
    outer loop
      vertex 1.98054 20 16.2783
      vertex 10 20 26
      vertex 1.9563 20 16.4158
    endloop
  endfacet
  facet normal 0 -1 0
    outer loop
      vertex 1.99513 20 16.1395
      vertex 10 20 26
      vertex 1.98054 20 16.2783
    endloop
  endfacet
  facet normal 0 -1 0
    outer loop
      vertex 2 20 16
      vertex 10 20 26
      vertex 1.99513 20 16.1395
    endloop
  endfacet
  facet normal 0 -1 0
    outer loop
      vertex 10 20 6
      vertex 2 20 16
      vertex 1.99513 20 15.8605
    endloop
  endfacet
  facet normal 0 -1 0
    outer loop
      vertex 10 20 6
      vertex 1.99513 20 15.8605
      vertex 1.98054 20 15.7217
    endloop
  endfacet
  facet normal 0 -1 0
    outer loop
      vertex 10 20 6
      vertex 1.98054 20 15.7217
      vertex 1.9563 20 15.5842
    endloop
  endfacet
  facet normal 0 -1 0
    outer loop
      vertex 10 20 6
      vertex 1.9563 20 15.5842
      vertex 1.92252 20 15.4487
    endloop
  endfacet
  facet normal 0 -1 0
    outer loop
      vertex 10 20 6
      vertex 1.92252 20 15.4487
      vertex 1.87938 20 15.316
    endloop
  endfacet
  facet normal 0 -1 0
    outer loop
      vertex 10 20 6
      vertex 1.87938 20 15.316
      vertex 1.82709 20 15.1865
    endloop
  endfacet
  facet normal 0 -1 0
    outer loop
      vertex 10 20 6
      vertex 1.82709 20 15.1865
      vertex 1.76589 20 15.0611
    endloop
  endfacet
  facet normal 0 -1 0
    outer loop
      vertex 10 20 6
      vertex 1.76589 20 15.0611
      vertex 1.6961 20 14.9402
    endloop
  endfacet
  facet normal 0 -1 0
    outer loop
      vertex 10 20 6
      vertex 1.6961 20 14.9402
      vertex 1.61803 20 14.8244
    endloop
  endfacet
  facet normal 0 -1 0
    outer loop
      vertex 10 20 6
      vertex 0.0697985 20 14.0012
      vertex -10 20 6
    endloop
  endfacet
  facet normal 0 -1 0
    outer loop
      vertex 0.0697985 20 14.0012
      vertex 10 20 6
      vertex 0.209057 20 14.011
    endloop
  endfacet
  facet normal 0 -1 0
    outer loop
      vertex 0.209057 20 14.011
      vertex 10 20 6
      vertex 0.347296 20 14.0304
    endloop
  endfacet
  facet normal 0 -1 0
    outer loop
      vertex 0.347296 20 14.0304
      vertex 10 20 6
      vertex 0.483843 20 14.0594
    endloop
  endfacet
  facet normal 0 -1 0
    outer loop
      vertex 0.483843 20 14.0594
      vertex 10 20 6
      vertex 0.618033 20 14.0979
    endloop
  endfacet
  facet normal 0 -1 0
    outer loop
      vertex 0.618033 20 14.0979
      vertex 10 20 6
      vertex 0.749212 20 14.1456
    endloop
  endfacet
  facet normal 0 -1 0
    outer loop
      vertex 0.749212 20 14.1456
      vertex 10 20 6
      vertex 0.876741 20 14.2024
    endloop
  endfacet
  facet normal 0 -1 0
    outer loop
      vertex 0.876741 20 14.2024
      vertex 10 20 6
      vertex 1 20 14.2679
    endloop
  endfacet
  facet normal 0 -1 0
    outer loop
      vertex 1 20 14.2679
      vertex 10 20 6
      vertex 1.11839 20 14.3419
    endloop
  endfacet
  facet normal 0 -1 0
    outer loop
      vertex 2 20 16
      vertex 10 20 6
      vertex 10 20 26
    endloop
  endfacet
  facet normal 0 -1 0
    outer loop
      vertex 1.53209 20 14.7144
      vertex 10 20 6
      vertex 1.61803 20 14.8244
    endloop
  endfacet
  facet normal 0 -1 0
    outer loop
      vertex 1.43868 20 14.6107
      vertex 10 20 6
      vertex 1.53209 20 14.7144
    endloop
  endfacet
  facet normal 0 -1 0
    outer loop
      vertex 1.33826 20 14.5137
      vertex 10 20 6
      vertex 1.43868 20 14.6107
    endloop
  endfacet
  facet normal 0 -1 0
    outer loop
      vertex 1.23132 20 14.424
      vertex 10 20 6
      vertex 1.33826 20 14.5137
    endloop
  endfacet
  facet normal 0 -1 0
    outer loop
      vertex 1.11839 20 14.3419
      vertex 10 20 6
      vertex 1.23132 20 14.424
    endloop
  endfacet
  facet normal 0 1 0
    outer loop
      vertex 10 26 26
      vertex 0.828426 26 18
      vertex -10 26 26
    endloop
  endfacet
  facet normal 0 1 0
    outer loop
      vertex 10 26 26
      vertex 1.43868 26 17.3893
      vertex 0.828426 26 18
    endloop
  endfacet
  facet normal 0 1 0
    outer loop
      vertex 10 26 26
      vertex 1.53209 26 17.2856
      vertex 1.43868 26 17.3893
    endloop
  endfacet
  facet normal 0 1 0
    outer loop
      vertex 10 26 26
      vertex 1.61803 26 17.1756
      vertex 1.53209 26 17.2856
    endloop
  endfacet
  facet normal 0 1 0
    outer loop
      vertex 10 26 26
      vertex 1.6961 26 17.0598
      vertex 1.61803 26 17.1756
    endloop
  endfacet
  facet normal 0 1 0
    outer loop
      vertex 10 26 26
      vertex 1.76589 26 16.9389
      vertex 1.6961 26 17.0598
    endloop
  endfacet
  facet normal 0 1 0
    outer loop
      vertex 10 26 26
      vertex 1.82709 26 16.8135
      vertex 1.76589 26 16.9389
    endloop
  endfacet
  facet normal 0 1 0
    outer loop
      vertex 10 26 26
      vertex 1.87938 26 16.684
      vertex 1.82709 26 16.8135
    endloop
  endfacet
  facet normal 0 1 0
    outer loop
      vertex 10 26 26
      vertex 1.92252 26 16.5513
      vertex 1.87938 26 16.684
    endloop
  endfacet
  facet normal 0 1 0
    outer loop
      vertex 10 26 26
      vertex 1.9563 26 16.4158
      vertex 1.92252 26 16.5513
    endloop
  endfacet
  facet normal 0 1 0
    outer loop
      vertex 10 26 26
      vertex 1.98054 26 16.2783
      vertex 1.9563 26 16.4158
    endloop
  endfacet
  facet normal 0 1 0
    outer loop
      vertex 10 26 26
      vertex 1.99513 26 16.1395
      vertex 1.98054 26 16.2783
    endloop
  endfacet
  facet normal 0 1 0
    outer loop
      vertex 10 26 26
      vertex 2 26 16
      vertex 1.99513 26 16.1395
    endloop
  endfacet
  facet normal 0 1 -0
    outer loop
      vertex 10 26 6
      vertex 2 26 16
      vertex 10 26 26
    endloop
  endfacet
  facet normal 0 1 0
    outer loop
      vertex 2 26 16
      vertex 10 26 6
      vertex 1.99513 26 15.8605
    endloop
  endfacet
  facet normal 0 1 0
    outer loop
      vertex 1.99513 26 15.8605
      vertex 10 26 6
      vertex 1.98054 26 15.7217
    endloop
  endfacet
  facet normal 0 1 0
    outer loop
      vertex 1.98054 26 15.7217
      vertex 10 26 6
      vertex 1.9563 26 15.5842
    endloop
  endfacet
  facet normal 0 1 0
    outer loop
      vertex 1.9563 26 15.5842
      vertex 10 26 6
      vertex 1.92252 26 15.4487
    endloop
  endfacet
  facet normal 0 1 0
    outer loop
      vertex 1.92252 26 15.4487
      vertex 10 26 6
      vertex 1.87938 26 15.316
    endloop
  endfacet
  facet normal 0 1 0
    outer loop
      vertex 1.87938 26 15.316
      vertex 10 26 6
      vertex 1.82709 26 15.1865
    endloop
  endfacet
  facet normal 0 1 0
    outer loop
      vertex 1.82709 26 15.1865
      vertex 10 26 6
      vertex 1.76589 26 15.0611
    endloop
  endfacet
  facet normal 0 1 0
    outer loop
      vertex 1.76589 26 15.0611
      vertex 10 26 6
      vertex 1.6961 26 14.9402
    endloop
  endfacet
  facet normal 0 1 0
    outer loop
      vertex 0.0697985 26 14.0012
      vertex 10 26 6
      vertex -0.0697985 26 14.0012
    endloop
  endfacet
  facet normal 0 1 0
    outer loop
      vertex 0.209057 26 14.011
      vertex 10 26 6
      vertex 0.0697985 26 14.0012
    endloop
  endfacet
  facet normal 0 1 0
    outer loop
      vertex 0.347296 26 14.0304
      vertex 10 26 6
      vertex 0.209057 26 14.011
    endloop
  endfacet
  facet normal 0 1 0
    outer loop
      vertex 0.483843 26 14.0594
      vertex 10 26 6
      vertex 0.347296 26 14.0304
    endloop
  endfacet
  facet normal 0 1 0
    outer loop
      vertex 0.618033 26 14.0979
      vertex 10 26 6
      vertex 0.483843 26 14.0594
    endloop
  endfacet
  facet normal 0 1 0
    outer loop
      vertex 0.749212 26 14.1456
      vertex 10 26 6
      vertex 0.618033 26 14.0979
    endloop
  endfacet
  facet normal 0 1 0
    outer loop
      vertex 0.876741 26 14.2024
      vertex 10 26 6
      vertex 0.749212 26 14.1456
    endloop
  endfacet
  facet normal 0 1 0
    outer loop
      vertex 1 26 14.2679
      vertex 10 26 6
      vertex 0.876741 26 14.2024
    endloop
  endfacet
  facet normal 0 1 0
    outer loop
      vertex 1.11839 26 14.3419
      vertex 10 26 6
      vertex 1 26 14.2679
    endloop
  endfacet
  facet normal 0 1 0
    outer loop
      vertex 1.23132 26 14.424
      vertex 10 26 6
      vertex 1.11839 26 14.3419
    endloop
  endfacet
  facet normal 0 1 0
    outer loop
      vertex 1.33826 26 14.5137
      vertex 10 26 6
      vertex 1.23132 26 14.424
    endloop
  endfacet
  facet normal 0 1 0
    outer loop
      vertex 1.43868 26 14.6107
      vertex 10 26 6
      vertex 1.33826 26 14.5137
    endloop
  endfacet
  facet normal 0 1 0
    outer loop
      vertex 1.53209 26 14.7144
      vertex 10 26 6
      vertex 1.43868 26 14.6107
    endloop
  endfacet
  facet normal 0 1 0
    outer loop
      vertex 1.61803 26 14.8244
      vertex 10 26 6
      vertex 1.53209 26 14.7144
    endloop
  endfacet
  facet normal 0 1 0
    outer loop
      vertex 1.6961 26 14.9402
      vertex 10 26 6
      vertex 1.61803 26 14.8244
    endloop
  endfacet
  facet normal 0 1 -0
    outer loop
      vertex -0.828426 26 18
      vertex -10 26 26
      vertex 0.828426 26 18
    endloop
  endfacet
  facet normal 0 1 -0
    outer loop
      vertex -1.43868 26 17.3893
      vertex -10 26 26
      vertex -0.828426 26 18
    endloop
  endfacet
  facet normal 0 1 -0
    outer loop
      vertex -1.53209 26 17.2856
      vertex -10 26 26
      vertex -1.43868 26 17.3893
    endloop
  endfacet
  facet normal 0 1 -0
    outer loop
      vertex -1.61803 26 17.1756
      vertex -10 26 26
      vertex -1.53209 26 17.2856
    endloop
  endfacet
  facet normal 0 1 -0
    outer loop
      vertex -1.6961 26 17.0598
      vertex -10 26 26
      vertex -1.61803 26 17.1756
    endloop
  endfacet
  facet normal 0 1 -0
    outer loop
      vertex -1.76589 26 16.9389
      vertex -10 26 26
      vertex -1.6961 26 17.0598
    endloop
  endfacet
  facet normal 0 1 -0
    outer loop
      vertex -1.82709 26 16.8135
      vertex -10 26 26
      vertex -1.76589 26 16.9389
    endloop
  endfacet
  facet normal 0 1 -0
    outer loop
      vertex -1.87938 26 16.684
      vertex -10 26 26
      vertex -1.82709 26 16.8135
    endloop
  endfacet
  facet normal 0 1 -0
    outer loop
      vertex -1.92252 26 16.5513
      vertex -10 26 26
      vertex -1.87938 26 16.684
    endloop
  endfacet
  facet normal 0 1 -0
    outer loop
      vertex -1.9563 26 16.4158
      vertex -10 26 26
      vertex -1.92252 26 16.5513
    endloop
  endfacet
  facet normal 0 1 -0
    outer loop
      vertex -1.98054 26 16.2783
      vertex -10 26 26
      vertex -1.9563 26 16.4158
    endloop
  endfacet
  facet normal 0 1 -0
    outer loop
      vertex -1.99513 26 16.1395
      vertex -10 26 26
      vertex -1.98054 26 16.2783
    endloop
  endfacet
  facet normal 0 1 -0
    outer loop
      vertex -2 26 16
      vertex -10 26 26
      vertex -1.99513 26 16.1395
    endloop
  endfacet
  facet normal 0 1 0
    outer loop
      vertex -10 26 6
      vertex -2 26 16
      vertex -1.99513 26 15.8605
    endloop
  endfacet
  facet normal 0 1 0
    outer loop
      vertex -10 26 6
      vertex -1.99513 26 15.8605
      vertex -1.98054 26 15.7217
    endloop
  endfacet
  facet normal 0 1 0
    outer loop
      vertex -10 26 6
      vertex -1.98054 26 15.7217
      vertex -1.9563 26 15.5842
    endloop
  endfacet
  facet normal 0 1 0
    outer loop
      vertex -10 26 6
      vertex -1.9563 26 15.5842
      vertex -1.92252 26 15.4487
    endloop
  endfacet
  facet normal 0 1 0
    outer loop
      vertex -10 26 6
      vertex -1.92252 26 15.4487
      vertex -1.87938 26 15.316
    endloop
  endfacet
  facet normal 0 1 0
    outer loop
      vertex -10 26 6
      vertex -1.87938 26 15.316
      vertex -1.82709 26 15.1865
    endloop
  endfacet
  facet normal 0 1 0
    outer loop
      vertex -10 26 6
      vertex -1.82709 26 15.1865
      vertex -1.76589 26 15.0611
    endloop
  endfacet
  facet normal 0 1 0
    outer loop
      vertex -10 26 6
      vertex -1.76589 26 15.0611
      vertex -1.6961 26 14.9402
    endloop
  endfacet
  facet normal 0 1 0
    outer loop
      vertex -10 26 6
      vertex -1.6961 26 14.9402
      vertex -1.61803 26 14.8244
    endloop
  endfacet
  facet normal 0 1 0
    outer loop
      vertex -10 26 6
      vertex -0.0697985 26 14.0012
      vertex 10 26 6
    endloop
  endfacet
  facet normal 0 1 0
    outer loop
      vertex -0.0697985 26 14.0012
      vertex -10 26 6
      vertex -0.209057 26 14.011
    endloop
  endfacet
  facet normal 0 1 0
    outer loop
      vertex -0.209057 26 14.011
      vertex -10 26 6
      vertex -0.347296 26 14.0304
    endloop
  endfacet
  facet normal 0 1 0
    outer loop
      vertex -0.347296 26 14.0304
      vertex -10 26 6
      vertex -0.483843 26 14.0594
    endloop
  endfacet
  facet normal 0 1 0
    outer loop
      vertex -0.483843 26 14.0594
      vertex -10 26 6
      vertex -0.618033 26 14.0979
    endloop
  endfacet
  facet normal 0 1 0
    outer loop
      vertex -0.618033 26 14.0979
      vertex -10 26 6
      vertex -0.749212 26 14.1456
    endloop
  endfacet
  facet normal 0 1 0
    outer loop
      vertex -0.749212 26 14.1456
      vertex -10 26 6
      vertex -0.876741 26 14.2024
    endloop
  endfacet
  facet normal 0 1 0
    outer loop
      vertex -0.876741 26 14.2024
      vertex -10 26 6
      vertex -0.999999 26 14.2679
    endloop
  endfacet
  facet normal 0 1 0
    outer loop
      vertex -0.999999 26 14.2679
      vertex -10 26 6
      vertex -1.11839 26 14.3419
    endloop
  endfacet
  facet normal 0 1 0
    outer loop
      vertex -2 26 16
      vertex -10 26 6
      vertex -10 26 26
    endloop
  endfacet
  facet normal 0 1 0
    outer loop
      vertex -1.53209 26 14.7144
      vertex -10 26 6
      vertex -1.61803 26 14.8244
    endloop
  endfacet
  facet normal 0 1 0
    outer loop
      vertex -1.43868 26 14.6107
      vertex -10 26 6
      vertex -1.53209 26 14.7144
    endloop
  endfacet
  facet normal 0 1 0
    outer loop
      vertex -1.33826 26 14.5137
      vertex -10 26 6
      vertex -1.43868 26 14.6107
    endloop
  endfacet
  facet normal 0 1 0
    outer loop
      vertex -1.23132 26 14.424
      vertex -10 26 6
      vertex -1.33826 26 14.5137
    endloop
  endfacet
  facet normal 0 1 0
    outer loop
      vertex -1.11839 26 14.3419
      vertex -10 26 6
      vertex -1.23132 26 14.424
    endloop
  endfacet
  facet normal -0.923879 -0.382684 0
    outer loop
      vertex 2.16478 36 0
      vertex 1.53073 37.5307 6
      vertex 1.53073 37.5307 0
    endloop
  endfacet
  facet normal -0.923879 -0.382684 0
    outer loop
      vertex 1.53073 37.5307 6
      vertex 2.16478 36 0
      vertex 2.16478 36 6
    endloop
  endfacet
  facet normal 0.382684 -0.923879 0
    outer loop
      vertex -1.53073 37.5307 0
      vertex 0 38.1648 6
      vertex -1.53073 37.5307 6
    endloop
  endfacet
  facet normal 0.382684 -0.923879 0
    outer loop
      vertex 0 38.1648 6
      vertex -1.53073 37.5307 0
      vertex 0 38.1648 0
    endloop
  endfacet
  facet normal -0.382684 -0.923879 0
    outer loop
      vertex 0 38.1648 0
      vertex 1.53073 37.5307 6
      vertex 0 38.1648 6
    endloop
  endfacet
  facet normal -0.382684 -0.923879 -0
    outer loop
      vertex 1.53073 37.5307 6
      vertex 0 38.1648 0
      vertex 1.53073 37.5307 0
    endloop
  endfacet
  facet normal 0.923879 -0.382684 0
    outer loop
      vertex -2.16478 36 6
      vertex -1.53073 37.5307 0
      vertex -1.53073 37.5307 6
    endloop
  endfacet
  facet normal 0.923879 -0.382684 0
    outer loop
      vertex -1.53073 37.5307 0
      vertex -2.16478 36 6
      vertex -2.16478 36 0
    endloop
  endfacet
  facet normal -0.92388 0.382683 0
    outer loop
      vertex 1.53073 34.4693 0
      vertex 2.16478 36 6
      vertex 2.16478 36 0
    endloop
  endfacet
  facet normal -0.92388 0.382683 0
    outer loop
      vertex 2.16478 36 6
      vertex 1.53073 34.4693 0
      vertex 1.53073 34.4693 6
    endloop
  endfacet
  facet normal 0.382682 0.92388 -0
    outer loop
      vertex 0 33.8352 0
      vertex -1.53073 34.4693 6
      vertex 0 33.8352 6
    endloop
  endfacet
  facet normal 0.382682 0.92388 0
    outer loop
      vertex -1.53073 34.4693 6
      vertex 0 33.8352 0
      vertex -1.53073 34.4693 0
    endloop
  endfacet
  facet normal 0.92388 0.382683 0
    outer loop
      vertex -1.53073 34.4693 6
      vertex -2.16478 36 0
      vertex -2.16478 36 6
    endloop
  endfacet
  facet normal 0.92388 0.382683 0
    outer loop
      vertex -2.16478 36 0
      vertex -1.53073 34.4693 6
      vertex -1.53073 34.4693 0
    endloop
  endfacet
  facet normal -0.382682 0.92388 0
    outer loop
      vertex 1.53073 34.4693 0
      vertex 0 33.8352 6
      vertex 1.53073 34.4693 6
    endloop
  endfacet
  facet normal -0.382682 0.92388 0
    outer loop
      vertex 0 33.8352 6
      vertex 1.53073 34.4693 0
      vertex 0 33.8352 0
    endloop
  endfacet
  facet normal 0.999391 0 -0.034903
    outer loop
      vertex -1.99513 26 16.1395
      vertex -1.99513 20 16.1395
      vertex -2 20 16
    endloop
  endfacet
  facet normal 0.999391 -1.58849e-07 -0.0348962
    outer loop
      vertex -2 26 16
      vertex -1.99513 26 16.1395
      vertex -2 20 16
    endloop
  endfacet
  facet normal 0 0 -1
    outer loop
      vertex -0.828426 20 18
      vertex 0.828426 26 18
      vertex 0.828426 20 18
    endloop
  endfacet
  facet normal -0 0 -1
    outer loop
      vertex 0.828426 26 18
      vertex -0.828426 20 18
      vertex -0.828426 26 18
    endloop
  endfacet
  facet normal -0.707356 0 -0.706857
    outer loop
      vertex 1.43868 20 17.3893
      vertex 0.828426 26 18
      vertex 1.43868 26 17.3893
    endloop
  endfacet
  facet normal -0.707356 -0 -0.706857
    outer loop
      vertex 0.828426 26 18
      vertex 1.43868 20 17.3893
      vertex 0.828426 20 18
    endloop
  endfacet
  facet normal -0.951058 0 0.309013
    outer loop
      vertex 1.87938 20 15.316
      vertex 1.92252 26 15.4487
      vertex 1.87938 26 15.316
    endloop
  endfacet
  facet normal -0.951058 0 0.309013
    outer loop
      vertex 1.92252 26 15.4487
      vertex 1.87938 20 15.316
      vertex 1.92252 20 15.4487
    endloop
  endfacet
  facet normal 0.829043 0 -0.559185
    outer loop
      vertex -1.61803 20 17.1756
      vertex -1.6961 26 17.0598
      vertex -1.61803 26 17.1756
    endloop
  endfacet
  facet normal 0.829043 0 -0.559185
    outer loop
      vertex -1.6961 26 17.0598
      vertex -1.61803 20 17.1756
      vertex -1.6961 20 17.0598
    endloop
  endfacet
  facet normal 0.707356 0 -0.706857
    outer loop
      vertex -0.828426 20 18
      vertex -1.43868 26 17.3893
      vertex -0.828426 26 18
    endloop
  endfacet
  facet normal 0.707356 0 -0.706857
    outer loop
      vertex -1.43868 26 17.3893
      vertex -0.828426 20 18
      vertex -1.43868 20 17.3893
    endloop
  endfacet
  facet normal -0.999391 0 -0.034903
    outer loop
      vertex 2 20 16
      vertex 1.99513 26 16.1395
      vertex 2 26 16
    endloop
  endfacet
  facet normal -0.999391 -0 -0.034903
    outer loop
      vertex 1.99513 26 16.1395
      vertex 2 20 16
      vertex 1.99513 20 16.1395
    endloop
  endfacet
  facet normal -0.951059 0 -0.309011
    outer loop
      vertex 1.92252 20 16.5513
      vertex 1.87938 26 16.684
      vertex 1.92252 26 16.5513
    endloop
  endfacet
  facet normal -0.951059 -0 -0.309011
    outer loop
      vertex 1.87938 26 16.684
      vertex 1.92252 20 16.5513
      vertex 1.87938 20 16.684
    endloop
  endfacet
  facet normal 0.139173 0 0.990268
    outer loop
      vertex -0.347296 26 14.0304
      vertex -0.209057 20 14.011
      vertex -0.209057 26 14.011
    endloop
  endfacet
  facet normal 0.139173 0 0.990268
    outer loop
      vertex -0.209057 20 14.011
      vertex -0.347296 26 14.0304
      vertex -0.347296 20 14.0304
    endloop
  endfacet
  facet normal -0.829039 0 0.559191
    outer loop
      vertex 1.61803 20 14.8244
      vertex 1.6961 26 14.9402
      vertex 1.61803 26 14.8244
    endloop
  endfacet
  facet normal -0.829039 0 0.559191
    outer loop
      vertex 1.6961 26 14.9402
      vertex 1.61803 20 14.8244
      vertex 1.6961 20 14.9402
    endloop
  endfacet
  facet normal 0.970294 0 -0.241928
    outer loop
      vertex -1.92252 20 16.5513
      vertex -1.9563 26 16.4158
      vertex -1.92252 26 16.5513
    endloop
  endfacet
  facet normal 0.970294 0 -0.241928
    outer loop
      vertex -1.9563 26 16.4158
      vertex -1.92252 20 16.5513
      vertex -1.9563 20 16.4158
    endloop
  endfacet
  facet normal 0.743141 0 -0.669135
    outer loop
      vertex -1.43868 20 17.3893
      vertex -1.53209 26 17.2856
      vertex -1.43868 26 17.3893
    endloop
  endfacet
  facet normal 0.743141 0 -0.669135
    outer loop
      vertex -1.53209 26 17.2856
      vertex -1.43868 20 17.3893
      vertex -1.53209 20 17.2856
    endloop
  endfacet
  facet normal -0.984808 0 -0.173647
    outer loop
      vertex 1.98054 20 16.2783
      vertex 1.9563 26 16.4158
      vertex 1.98054 26 16.2783
    endloop
  endfacet
  facet normal -0.984808 -0 -0.173647
    outer loop
      vertex 1.9563 26 16.4158
      vertex 1.98054 20 16.2783
      vertex 1.9563 20 16.4158
    endloop
  endfacet
  facet normal -0.970294 0 -0.241928
    outer loop
      vertex 1.9563 20 16.4158
      vertex 1.92252 26 16.5513
      vertex 1.9563 26 16.4158
    endloop
  endfacet
  facet normal -0.970294 -0 -0.241928
    outer loop
      vertex 1.92252 26 16.5513
      vertex 1.9563 20 16.4158
      vertex 1.92252 20 16.5513
    endloop
  endfacet
  facet normal -0.994522 0 -0.104528
    outer loop
      vertex 1.99513 20 16.1395
      vertex 1.98054 26 16.2783
      vertex 1.99513 26 16.1395
    endloop
  endfacet
  facet normal -0.994522 -0 -0.104528
    outer loop
      vertex 1.98054 26 16.2783
      vertex 1.99513 20 16.1395
      vertex 1.98054 20 16.2783
    endloop
  endfacet
  facet normal -0.866024 0 -0.500002
    outer loop
      vertex 1.76589 20 16.9389
      vertex 1.6961 26 17.0598
      vertex 1.76589 26 16.9389
    endloop
  endfacet
  facet normal -0.866024 -0 -0.500002
    outer loop
      vertex 1.6961 26 17.0598
      vertex 1.76589 20 16.9389
      vertex 1.6961 20 17.0598
    endloop
  endfacet
  facet normal -0.927183 0 -0.37461
    outer loop
      vertex 1.87938 20 16.684
      vertex 1.82709 26 16.8135
      vertex 1.87938 26 16.684
    endloop
  endfacet
  facet normal -0.927183 -0 -0.37461
    outer loop
      vertex 1.82709 26 16.8135
      vertex 1.87938 20 16.684
      vertex 1.82709 20 16.8135
    endloop
  endfacet
  facet normal -0.898794 0 -0.438371
    outer loop
      vertex 1.82709 20 16.8135
      vertex 1.76589 26 16.9389
      vertex 1.82709 26 16.8135
    endloop
  endfacet
  facet normal -0.898794 -0 -0.438371
    outer loop
      vertex 1.76589 26 16.9389
      vertex 1.82709 20 16.8135
      vertex 1.76589 20 16.9389
    endloop
  endfacet
  facet normal -0.743141 0 -0.669135
    outer loop
      vertex 1.53209 20 17.2856
      vertex 1.43868 26 17.3893
      vertex 1.53209 26 17.2856
    endloop
  endfacet
  facet normal -0.743141 -0 -0.669135
    outer loop
      vertex 1.43868 26 17.3893
      vertex 1.53209 20 17.2856
      vertex 1.43868 20 17.3893
    endloop
  endfacet
  facet normal -0.829043 0 -0.559185
    outer loop
      vertex 1.6961 20 17.0598
      vertex 1.61803 26 17.1756
      vertex 1.6961 26 17.0598
    endloop
  endfacet
  facet normal -0.829043 -0 -0.559185
    outer loop
      vertex 1.61803 26 17.1756
      vertex 1.6961 20 17.0598
      vertex 1.61803 20 17.1756
    endloop
  endfacet
  facet normal -0 0 1
    outer loop
      vertex -0.0697985 26 14.0012
      vertex 0.0697985 20 14.0012
      vertex 0.0697985 26 14.0012
    endloop
  endfacet
  facet normal 0 0 1
    outer loop
      vertex 0.0697985 20 14.0012
      vertex -0.0697985 26 14.0012
      vertex -0.0697985 20 14.0012
    endloop
  endfacet
  facet normal -0.342023 0 0.939691
    outer loop
      vertex 0.618033 26 14.0979
      vertex 0.749212 20 14.1456
      vertex 0.749212 26 14.1456
    endloop
  endfacet
  facet normal -0.342023 0 0.939691
    outer loop
      vertex 0.749212 20 14.1456
      vertex 0.618033 26 14.0979
      vertex 0.618033 20 14.0979
    endloop
  endfacet
  facet normal -0.275633 0 0.961263
    outer loop
      vertex 0.483843 26 14.0594
      vertex 0.618033 20 14.0979
      vertex 0.618033 26 14.0979
    endloop
  endfacet
  facet normal -0.275633 0 0.961263
    outer loop
      vertex 0.618033 20 14.0979
      vertex 0.483843 26 14.0594
      vertex 0.483843 20 14.0594
    endloop
  endfacet
  facet normal -0.52992 0 0.848047
    outer loop
      vertex 1 26 14.2679
      vertex 1.11839 20 14.3419
      vertex 1.11839 26 14.3419
    endloop
  endfacet
  facet normal -0.52992 0 0.848047
    outer loop
      vertex 1.11839 20 14.3419
      vertex 1 26 14.2679
      vertex 1 20 14.2679
    endloop
  endfacet
  facet normal -0.587784 0 0.809018
    outer loop
      vertex 1.11839 26 14.3419
      vertex 1.23132 20 14.424
      vertex 1.23132 26 14.424
    endloop
  endfacet
  facet normal -0.587784 0 0.809018
    outer loop
      vertex 1.23132 20 14.424
      vertex 1.11839 26 14.3419
      vertex 1.11839 20 14.3419
    endloop
  endfacet
  facet normal -0.999391 0 0.0349025
    outer loop
      vertex 1.99513 20 15.8605
      vertex 2 26 16
      vertex 1.99513 26 15.8605
    endloop
  endfacet
  facet normal -0.999391 0 0.0349025
    outer loop
      vertex 2 26 16
      vertex 1.99513 20 15.8605
      vertex 2 20 16
    endloop
  endfacet
  facet normal -0.970295 0 0.241926
    outer loop
      vertex 1.92252 20 15.4487
      vertex 1.9563 26 15.5842
      vertex 1.92252 26 15.4487
    endloop
  endfacet
  facet normal -0.970295 0 0.241926
    outer loop
      vertex 1.9563 26 15.5842
      vertex 1.92252 20 15.4487
      vertex 1.9563 20 15.5842
    endloop
  endfacet
  facet normal -0.994522 0 0.104529
    outer loop
      vertex 1.98054 20 15.7217
      vertex 1.99513 26 15.8605
      vertex 1.98054 26 15.7217
    endloop
  endfacet
  facet normal -0.994522 0 0.104529
    outer loop
      vertex 1.99513 26 15.8605
      vertex 1.98054 20 15.7217
      vertex 1.99513 20 15.8605
    endloop
  endfacet
  facet normal -0.866024 0 0.500002
    outer loop
      vertex 1.6961 20 14.9402
      vertex 1.76589 26 15.0611
      vertex 1.6961 26 14.9402
    endloop
  endfacet
  facet normal -0.866024 0 0.500002
    outer loop
      vertex 1.76589 26 15.0611
      vertex 1.6961 20 14.9402
      vertex 1.76589 20 15.0611
    endloop
  endfacet
  facet normal 0.994522 0 -0.104528
    outer loop
      vertex -1.98054 20 16.2783
      vertex -1.99513 26 16.1395
      vertex -1.98054 26 16.2783
    endloop
  endfacet
  facet normal 0.994522 0 -0.104528
    outer loop
      vertex -1.99513 26 16.1395
      vertex -1.98054 20 16.2783
      vertex -1.99513 20 16.1395
    endloop
  endfacet
  facet normal 0.984808 0 -0.173647
    outer loop
      vertex -1.9563 20 16.4158
      vertex -1.98054 26 16.2783
      vertex -1.9563 26 16.4158
    endloop
  endfacet
  facet normal 0.984808 0 -0.173647
    outer loop
      vertex -1.98054 26 16.2783
      vertex -1.9563 20 16.4158
      vertex -1.98054 20 16.2783
    endloop
  endfacet
  facet normal 0.927183 0 -0.37461
    outer loop
      vertex -1.82709 20 16.8135
      vertex -1.87938 26 16.684
      vertex -1.82709 26 16.8135
    endloop
  endfacet
  facet normal 0.927183 0 -0.37461
    outer loop
      vertex -1.87938 26 16.684
      vertex -1.82709 20 16.8135
      vertex -1.87938 20 16.684
    endloop
  endfacet
  facet normal 0.866024 0 -0.500002
    outer loop
      vertex -1.6961 20 17.0598
      vertex -1.76589 26 16.9389
      vertex -1.6961 26 17.0598
    endloop
  endfacet
  facet normal 0.866024 0 -0.500002
    outer loop
      vertex -1.76589 26 16.9389
      vertex -1.6961 20 17.0598
      vertex -1.76589 20 16.9389
    endloop
  endfacet
  facet normal 0.898794 0 -0.438371
    outer loop
      vertex -1.76589 20 16.9389
      vertex -1.82709 26 16.8135
      vertex -1.76589 26 16.9389
    endloop
  endfacet
  facet normal 0.898794 0 -0.438371
    outer loop
      vertex -1.82709 26 16.8135
      vertex -1.76589 20 16.9389
      vertex -1.82709 20 16.8135
    endloop
  endfacet
  facet normal 0.78801 0 -0.615663
    outer loop
      vertex -1.53209 20 17.2856
      vertex -1.61803 26 17.1756
      vertex -1.53209 26 17.2856
    endloop
  endfacet
  facet normal 0.78801 0 -0.615663
    outer loop
      vertex -1.61803 26 17.1756
      vertex -1.53209 20 17.2856
      vertex -1.61803 20 17.1756
    endloop
  endfacet
  facet normal -0.78801 0 -0.615663
    outer loop
      vertex 1.61803 20 17.1756
      vertex 1.53209 26 17.2856
      vertex 1.61803 26 17.1756
    endloop
  endfacet
  facet normal -0.78801 -0 -0.615663
    outer loop
      vertex 1.53209 26 17.2856
      vertex 1.61803 20 17.1756
      vertex 1.53209 20 17.2856
    endloop
  endfacet
  facet normal 0.069757 0 0.997564
    outer loop
      vertex -0.209057 26 14.011
      vertex -0.0697985 20 14.0012
      vertex -0.0697985 26 14.0012
    endloop
  endfacet
  facet normal 0.069757 0 0.997564
    outer loop
      vertex -0.0697985 20 14.0012
      vertex -0.209057 26 14.011
      vertex -0.209057 20 14.011
    endloop
  endfacet
  facet normal 0.587784 0 0.809018
    outer loop
      vertex -1.23132 26 14.424
      vertex -1.11839 20 14.3419
      vertex -1.11839 26 14.3419
    endloop
  endfacet
  facet normal 0.587784 0 0.809018
    outer loop
      vertex -1.11839 20 14.3419
      vertex -1.23132 26 14.424
      vertex -1.23132 20 14.424
    endloop
  endfacet
  facet normal 0.207913 0 0.978147
    outer loop
      vertex -0.483843 26 14.0594
      vertex -0.347296 20 14.0304
      vertex -0.347296 26 14.0304
    endloop
  endfacet
  facet normal 0.207913 0 0.978147
    outer loop
      vertex -0.347296 20 14.0304
      vertex -0.483843 26 14.0594
      vertex -0.483843 20 14.0594
    endloop
  endfacet
  facet normal 0.529917 -8.42281e-08 0.848049
    outer loop
      vertex -1 20 14.2679
      vertex -0.999999 26 14.2679
      vertex -1.11839 26 14.3419
    endloop
  endfacet
  facet normal 0.46947 -0 0.882948
    outer loop
      vertex -0.876741 20 14.2024
      vertex -0.876741 26 14.2024
      vertex -1 20 14.2679
    endloop
  endfacet
  facet normal 0.743144 -0 0.669131
    outer loop
      vertex -1.53209 20 14.7144
      vertex -1.43868 26 14.6107
      vertex -1.53209 26 14.7144
    endloop
  endfacet
  facet normal 0.743144 0 0.669131
    outer loop
      vertex -1.43868 26 14.6107
      vertex -1.53209 20 14.7144
      vertex -1.43868 20 14.6107
    endloop
  endfacet
  facet normal 0.866024 -0 0.500002
    outer loop
      vertex -1.76589 20 15.0611
      vertex -1.6961 26 14.9402
      vertex -1.76589 26 15.0611
    endloop
  endfacet
  facet normal 0.866024 0 0.500002
    outer loop
      vertex -1.6961 26 14.9402
      vertex -1.76589 20 15.0611
      vertex -1.6961 20 14.9402
    endloop
  endfacet
  facet normal 0.999391 -1.58849e-07 0.0348957
    outer loop
      vertex -1.99513 26 15.8605
      vertex -2 26 16
      vertex -2 20 16
    endloop
  endfacet
  facet normal 0.970295 -0 0.241926
    outer loop
      vertex -1.9563 20 15.5842
      vertex -1.92252 26 15.4487
      vertex -1.9563 26 15.5842
    endloop
  endfacet
  facet normal 0.970295 0 0.241926
    outer loop
      vertex -1.92252 26 15.4487
      vertex -1.9563 20 15.5842
      vertex -1.92252 20 15.4487
    endloop
  endfacet
  facet normal -0.139173 0 0.990268
    outer loop
      vertex 0.209057 26 14.011
      vertex 0.347296 20 14.0304
      vertex 0.347296 26 14.0304
    endloop
  endfacet
  facet normal -0.139173 0 0.990268
    outer loop
      vertex 0.347296 20 14.0304
      vertex 0.209057 26 14.011
      vertex 0.209057 20 14.011
    endloop
  endfacet
  facet normal -0.207913 0 0.978147
    outer loop
      vertex 0.347296 26 14.0304
      vertex 0.483843 20 14.0594
      vertex 0.483843 26 14.0594
    endloop
  endfacet
  facet normal -0.207913 0 0.978147
    outer loop
      vertex 0.483843 20 14.0594
      vertex 0.347296 26 14.0304
      vertex 0.347296 20 14.0304
    endloop
  endfacet
  facet normal -0.069757 0 0.997564
    outer loop
      vertex 0.0697985 26 14.0012
      vertex 0.209057 20 14.011
      vertex 0.209057 26 14.011
    endloop
  endfacet
  facet normal -0.069757 0 0.997564
    outer loop
      vertex 0.209057 20 14.011
      vertex 0.0697985 26 14.0012
      vertex 0.0697985 20 14.0012
    endloop
  endfacet
  facet normal -0.406738 0 0.913545
    outer loop
      vertex 0.749212 26 14.1456
      vertex 0.876741 20 14.2024
      vertex 0.876741 26 14.2024
    endloop
  endfacet
  facet normal -0.406738 0 0.913545
    outer loop
      vertex 0.876741 20 14.2024
      vertex 0.749212 26 14.1456
      vertex 0.749212 20 14.1456
    endloop
  endfacet
  facet normal -0.46947 0 0.882948
    outer loop
      vertex 0.876741 26 14.2024
      vertex 1 20 14.2679
      vertex 1 26 14.2679
    endloop
  endfacet
  facet normal -0.46947 0 0.882948
    outer loop
      vertex 1 20 14.2679
      vertex 0.876741 26 14.2024
      vertex 0.876741 20 14.2024
    endloop
  endfacet
  facet normal -0.694658 0 0.71934
    outer loop
      vertex 1.33826 26 14.5137
      vertex 1.43868 20 14.6107
      vertex 1.43868 26 14.6107
    endloop
  endfacet
  facet normal -0.694658 0 0.71934
    outer loop
      vertex 1.43868 20 14.6107
      vertex 1.33826 26 14.5137
      vertex 1.33826 20 14.5137
    endloop
  endfacet
  facet normal -0.642789 0 0.766044
    outer loop
      vertex 1.23132 26 14.424
      vertex 1.33826 20 14.5137
      vertex 1.33826 26 14.5137
    endloop
  endfacet
  facet normal -0.642789 0 0.766044
    outer loop
      vertex 1.33826 20 14.5137
      vertex 1.23132 26 14.424
      vertex 1.23132 20 14.424
    endloop
  endfacet
  facet normal -0.984808 0 0.173645
    outer loop
      vertex 1.9563 20 15.5842
      vertex 1.98054 26 15.7217
      vertex 1.9563 26 15.5842
    endloop
  endfacet
  facet normal -0.984808 0 0.173645
    outer loop
      vertex 1.98054 26 15.7217
      vertex 1.9563 20 15.5842
      vertex 1.98054 20 15.7217
    endloop
  endfacet
  facet normal -0.927183 0 0.37461
    outer loop
      vertex 1.82709 20 15.1865
      vertex 1.87938 26 15.316
      vertex 1.82709 26 15.1865
    endloop
  endfacet
  facet normal -0.927183 0 0.37461
    outer loop
      vertex 1.87938 26 15.316
      vertex 1.82709 20 15.1865
      vertex 1.87938 20 15.316
    endloop
  endfacet
  facet normal -0.898795 0 0.438368
    outer loop
      vertex 1.76589 20 15.0611
      vertex 1.82709 26 15.1865
      vertex 1.76589 26 15.0611
    endloop
  endfacet
  facet normal -0.898795 0 0.438368
    outer loop
      vertex 1.82709 26 15.1865
      vertex 1.76589 20 15.0611
      vertex 1.82709 20 15.1865
    endloop
  endfacet
  facet normal -0.743144 0 0.669131
    outer loop
      vertex 1.43868 20 14.6107
      vertex 1.53209 26 14.7144
      vertex 1.43868 26 14.6107
    endloop
  endfacet
  facet normal -0.743144 0 0.669131
    outer loop
      vertex 1.53209 26 14.7144
      vertex 1.43868 20 14.6107
      vertex 1.53209 20 14.7144
    endloop
  endfacet
  facet normal 0.951059 0 -0.309011
    outer loop
      vertex -1.87938 20 16.684
      vertex -1.92252 26 16.5513
      vertex -1.87938 26 16.684
    endloop
  endfacet
  facet normal 0.951059 0 -0.309011
    outer loop
      vertex -1.92252 26 16.5513
      vertex -1.87938 20 16.684
      vertex -1.92252 20 16.5513
    endloop
  endfacet
  facet normal 0.694658 0 0.71934
    outer loop
      vertex -1.43868 26 14.6107
      vertex -1.33826 20 14.5137
      vertex -1.33826 26 14.5137
    endloop
  endfacet
  facet normal 0.694658 0 0.71934
    outer loop
      vertex -1.33826 20 14.5137
      vertex -1.43868 26 14.6107
      vertex -1.43868 20 14.6107
    endloop
  endfacet
  facet normal 0.642789 0 0.766044
    outer loop
      vertex -1.33826 26 14.5137
      vertex -1.23132 20 14.424
      vertex -1.23132 26 14.424
    endloop
  endfacet
  facet normal 0.642789 0 0.766044
    outer loop
      vertex -1.23132 20 14.424
      vertex -1.33826 26 14.5137
      vertex -1.33826 20 14.5137
    endloop
  endfacet
  facet normal 0.52992 0 0.848047
    outer loop
      vertex -1 20 14.2679
      vertex -1.11839 26 14.3419
      vertex -1.11839 20 14.3419
    endloop
  endfacet
  facet normal 0.342023 0 0.939691
    outer loop
      vertex -0.749212 26 14.1456
      vertex -0.618033 20 14.0979
      vertex -0.618033 26 14.0979
    endloop
  endfacet
  facet normal 0.342023 0 0.939691
    outer loop
      vertex -0.618033 20 14.0979
      vertex -0.749212 26 14.1456
      vertex -0.749212 20 14.1456
    endloop
  endfacet
  facet normal 0.275633 0 0.961263
    outer loop
      vertex -0.618033 26 14.0979
      vertex -0.483843 20 14.0594
      vertex -0.483843 26 14.0594
    endloop
  endfacet
  facet normal 0.275633 0 0.961263
    outer loop
      vertex -0.483843 20 14.0594
      vertex -0.618033 26 14.0979
      vertex -0.618033 20 14.0979
    endloop
  endfacet
  facet normal 0.829039 -0 0.559191
    outer loop
      vertex -1.6961 20 14.9402
      vertex -1.61803 26 14.8244
      vertex -1.6961 26 14.9402
    endloop
  endfacet
  facet normal 0.829039 0 0.559191
    outer loop
      vertex -1.61803 26 14.8244
      vertex -1.6961 20 14.9402
      vertex -1.61803 20 14.8244
    endloop
  endfacet
  facet normal 0.78801 -0 0.615663
    outer loop
      vertex -1.61803 20 14.8244
      vertex -1.53209 26 14.7144
      vertex -1.61803 26 14.8244
    endloop
  endfacet
  facet normal 0.78801 0 0.615663
    outer loop
      vertex -1.53209 26 14.7144
      vertex -1.61803 20 14.8244
      vertex -1.53209 20 14.7144
    endloop
  endfacet
  facet normal 0.999391 -0 0.0349025
    outer loop
      vertex -1.99513 20 15.8605
      vertex -1.99513 26 15.8605
      vertex -2 20 16
    endloop
  endfacet
  facet normal 0.951058 -0 0.309013
    outer loop
      vertex -1.92252 20 15.4487
      vertex -1.87938 26 15.316
      vertex -1.92252 26 15.4487
    endloop
  endfacet
  facet normal 0.951058 0 0.309013
    outer loop
      vertex -1.87938 26 15.316
      vertex -1.92252 20 15.4487
      vertex -1.87938 20 15.316
    endloop
  endfacet
  facet normal -0.78801 0 0.615663
    outer loop
      vertex 1.53209 20 14.7144
      vertex 1.61803 26 14.8244
      vertex 1.53209 26 14.7144
    endloop
  endfacet
  facet normal -0.78801 0 0.615663
    outer loop
      vertex 1.61803 26 14.8244
      vertex 1.53209 20 14.7144
      vertex 1.61803 20 14.8244
    endloop
  endfacet
  facet normal 0.469473 -7.46207e-08 0.882947
    outer loop
      vertex -0.876741 26 14.2024
      vertex -0.999999 26 14.2679
      vertex -1 20 14.2679
    endloop
  endfacet
  facet normal 0.406738 0 0.913545
    outer loop
      vertex -0.876741 26 14.2024
      vertex -0.749212 20 14.1456
      vertex -0.749212 26 14.1456
    endloop
  endfacet
  facet normal 0.406738 0 0.913545
    outer loop
      vertex -0.749212 20 14.1456
      vertex -0.876741 26 14.2024
      vertex -0.876741 20 14.2024
    endloop
  endfacet
  facet normal 0.927183 -0 0.37461
    outer loop
      vertex -1.87938 20 15.316
      vertex -1.82709 26 15.1865
      vertex -1.87938 26 15.316
    endloop
  endfacet
  facet normal 0.927183 0 0.37461
    outer loop
      vertex -1.82709 26 15.1865
      vertex -1.87938 20 15.316
      vertex -1.82709 20 15.1865
    endloop
  endfacet
  facet normal 0.898795 -0 0.438368
    outer loop
      vertex -1.82709 20 15.1865
      vertex -1.76589 26 15.0611
      vertex -1.82709 26 15.1865
    endloop
  endfacet
  facet normal 0.898795 0 0.438368
    outer loop
      vertex -1.76589 26 15.0611
      vertex -1.82709 20 15.1865
      vertex -1.76589 20 15.0611
    endloop
  endfacet
  facet normal 0.994522 -0 0.104529
    outer loop
      vertex -1.99513 20 15.8605
      vertex -1.98054 26 15.7217
      vertex -1.99513 26 15.8605
    endloop
  endfacet
  facet normal 0.994522 0 0.104529
    outer loop
      vertex -1.98054 26 15.7217
      vertex -1.99513 20 15.8605
      vertex -1.98054 20 15.7217
    endloop
  endfacet
  facet normal 0.984808 -0 0.173645
    outer loop
      vertex -1.98054 20 15.7217
      vertex -1.9563 26 15.5842
      vertex -1.98054 26 15.7217
    endloop
  endfacet
  facet normal 0.984808 0 0.173645
    outer loop
      vertex -1.9563 26 15.5842
      vertex -1.98054 20 15.7217
      vertex -1.9563 20 15.5842
    endloop
  endfacet
endsolid OpenSCAD_Model
