solid OpenSCAD_Model
  facet normal -1 0 0
    outer loop
      vertex -12.5 0 0
      vertex -12.5 3 6
      vertex -12.5 3 0
    endloop
  endfacet
  facet normal -1 -0 0
    outer loop
      vertex -12.5 3 6
      vertex -12.5 0 0
      vertex -12.5 0 6
    endloop
  endfacet
  facet normal 0 0 1
    outer loop
      vertex 12.5 3 6
      vertex 7 0 6
      vertex 12.5 0 6
    endloop
  endfacet
  facet normal 0 0 1
    outer loop
      vertex 3.76792 -5.56072 6
      vertex 7 0 6
      vertex 4.07836 -4 6
    endloop
  endfacet
  facet normal 0 0 1
    outer loop
      vertex 7 0 6
      vertex 3.76792 -2.43928 6
      vertex 4.07836 -4 6
    endloop
  endfacet
  facet normal 0 0 1
    outer loop
      vertex 7 0 6
      vertex 2.88384 -1.11616 6
      vertex 3.76792 -2.43928 6
    endloop
  endfacet
  facet normal 0 0 1
    outer loop
      vertex 1.56072 -0.232082 6
      vertex 7 0 6
      vertex 12.5 3 6
    endloop
  endfacet
  facet normal 0 0 1
    outer loop
      vertex 7 0 6
      vertex 1.56072 -0.232082 6
      vertex 2.88384 -1.11616 6
    endloop
  endfacet
  facet normal 0 0 1
    outer loop
      vertex 12.5 3 6
      vertex 0 0.0783644 6
      vertex 1.56072 -0.232082 6
    endloop
  endfacet
  facet normal -0 0 1
    outer loop
      vertex -12.5 3 6
      vertex 0 0.0783644 6
      vertex 12.5 3 6
    endloop
  endfacet
  facet normal 0 0 1
    outer loop
      vertex -3.76792 -2.43928 6
      vertex -7 0 6
      vertex -4.07836 -4 6
    endloop
  endfacet
  facet normal 0 0 1
    outer loop
      vertex -2.88384 -1.11616 6
      vertex -7 0 6
      vertex -3.76792 -2.43928 6
    endloop
  endfacet
  facet normal 0 0 1
    outer loop
      vertex -1.56072 -0.232082 6
      vertex -7 0 6
      vertex -2.88384 -1.11616 6
    endloop
  endfacet
  facet normal 0 0 1
    outer loop
      vertex 0 0.0783644 6
      vertex -12.5 3 6
      vertex -1.56072 -0.232082 6
    endloop
  endfacet
  facet normal 0 0 1
    outer loop
      vertex -1.56072 -0.232082 6
      vertex -12.5 3 6
      vertex -7 0 6
    endloop
  endfacet
  facet normal 0 0 1
    outer loop
      vertex -7 0 6
      vertex -12.5 3 6
      vertex -12.5 0 6
    endloop
  endfacet
  facet normal 0 0 1
    outer loop
      vertex 7 0 6
      vertex 3.76792 -5.56072 6
      vertex 7 -18 6
    endloop
  endfacet
  facet normal -0 0 1
    outer loop
      vertex 3.5 -5.96169 6
      vertex 7 -18 6
      vertex 3.76792 -5.56072 6
    endloop
  endfacet
  facet normal 0 0 1
    outer loop
      vertex 7 -18 6
      vertex 3.5 -5.96169 6
      vertex 3.5 -18 6
    endloop
  endfacet
  facet normal 0 0 1
    outer loop
      vertex -7 -18 6
      vertex -3.5 -5.96169 6
      vertex -3.76792 -5.56072 6
    endloop
  endfacet
  facet normal 0 0 1
    outer loop
      vertex -7 0 6
      vertex -3.76792 -5.56072 6
      vertex -4.07836 -4 6
    endloop
  endfacet
  facet normal 0 0 1
    outer loop
      vertex -3.76792 -5.56072 6
      vertex -7 0 6
      vertex -7 -18 6
    endloop
  endfacet
  facet normal 0 0 1
    outer loop
      vertex -3.5 -5.96169 6
      vertex -7 -18 6
      vertex -3.5 -18 6
    endloop
  endfacet
  facet normal 1 -0 0
    outer loop
      vertex 12.5 0 6
      vertex 12.5 3 0
      vertex 12.5 3 6
    endloop
  endfacet
  facet normal 1 0 0
    outer loop
      vertex 12.5 3 0
      vertex 12.5 0 6
      vertex 12.5 0 0
    endloop
  endfacet
  facet normal 0 1 -0
    outer loop
      vertex 8.41747 3 4.125
      vertex -8.63397 3 4.5
      vertex 8.63397 3 4.5
    endloop
  endfacet
  facet normal 0 1 0
    outer loop
      vertex -7.76795 3 3
      vertex 8.41747 3 4.125
      vertex 7.76795 3 3
    endloop
  endfacet
  facet normal 0 1 0
    outer loop
      vertex 8.41747 3 4.125
      vertex -7.76795 3 3
      vertex -8.63397 3 4.5
    endloop
  endfacet
  facet normal 0 1 0
    outer loop
      vertex 8.63397 3 1.5
      vertex -7.76795 3 3
      vertex 7.76795 3 3
    endloop
  endfacet
  facet normal 0 1 0
    outer loop
      vertex -7.76795 3 3
      vertex 8.63397 3 1.5
      vertex -8.63397 3 1.5
    endloop
  endfacet
  facet normal 0 1 0
    outer loop
      vertex 9.06699 3 4.5
      vertex 12.5 3 6
      vertex 10.366 3 4.5
    endloop
  endfacet
  facet normal 0 1 0
    outer loop
      vertex 12.5 3 6
      vertex 11.232 3 3
      vertex 10.366 3 4.5
    endloop
  endfacet
  facet normal 0 1 0
    outer loop
      vertex 12.5 3 0
      vertex 8.63397 3 1.5
      vertex 10.366 3 1.5
    endloop
  endfacet
  facet normal 0 1 0
    outer loop
      vertex 8.63397 3 1.5
      vertex 12.5 3 0
      vertex -8.63397 3 1.5
    endloop
  endfacet
  facet normal 0 1 0
    outer loop
      vertex -12.5 3 0
      vertex -8.63397 3 1.5
      vertex 12.5 3 0
    endloop
  endfacet
  facet normal 0 1 0
    outer loop
      vertex 11.232 3 3
      vertex 12.5 3 0
      vertex 10.366 3 1.5
    endloop
  endfacet
  facet normal 0 1 -0
    outer loop
      vertex 12.5 3 0
      vertex 11.232 3 3
      vertex 12.5 3 6
    endloop
  endfacet
  facet normal 0 1 0
    outer loop
      vertex 8.63397 3 4.5
      vertex 12.5 3 6
      vertex 9.06699 3 4.5
    endloop
  endfacet
  facet normal 0 1 0
    outer loop
      vertex 12.5 3 6
      vertex 8.63397 3 4.5
      vertex -12.5 3 6
    endloop
  endfacet
  facet normal 0 1 -0
    outer loop
      vertex -8.63397 3 4.5
      vertex -12.5 3 6
      vertex 8.63397 3 4.5
    endloop
  endfacet
  facet normal 0 1 -0
    outer loop
      vertex -9.93301 3 4.5
      vertex -12.5 3 6
      vertex -8.63397 3 4.5
    endloop
  endfacet
  facet normal 0 1 -0
    outer loop
      vertex -10.366 3 4.5
      vertex -12.5 3 6
      vertex -9.93301 3 4.5
    endloop
  endfacet
  facet normal 0 1 -0
    outer loop
      vertex -10.5825 3 4.125
      vertex -12.5 3 6
      vertex -10.366 3 4.5
    endloop
  endfacet
  facet normal 0 1 -0
    outer loop
      vertex -11.232 3 3
      vertex -12.5 3 6
      vertex -10.5825 3 4.125
    endloop
  endfacet
  facet normal 0 1 0
    outer loop
      vertex -11.232 3 3
      vertex -12.5 3 0
      vertex -12.5 3 6
    endloop
  endfacet
  facet normal 0 1 0
    outer loop
      vertex -10.366 3 1.5
      vertex -12.5 3 0
      vertex -11.232 3 3
    endloop
  endfacet
  facet normal 0 1 0
    outer loop
      vertex -8.63397 3 1.5
      vertex -12.5 3 0
      vertex -10.366 3 1.5
    endloop
  endfacet
  facet normal 0 0 -1
    outer loop
      vertex -7 -18 0
      vertex -3.5 -5.96169 0
      vertex -3.5 -18 0
    endloop
  endfacet
  facet normal -0 0 -1
    outer loop
      vertex -3.5 -5.96169 0
      vertex -7 -18 0
      vertex -3.76792 -5.56072 0
    endloop
  endfacet
  facet normal 0 0 -1
    outer loop
      vertex -7 0 0
      vertex -3.76792 -5.56072 0
      vertex -7 -18 0
    endloop
  endfacet
  facet normal 0 0 -1
    outer loop
      vertex 3.76792 -5.56072 0
      vertex 7 0 0
      vertex 7 -18 0
    endloop
  endfacet
  facet normal 0 0 -1
    outer loop
      vertex 7 0 0
      vertex 3.76792 -5.56072 0
      vertex 4.07836 -4 0
    endloop
  endfacet
  facet normal 0 0 -1
    outer loop
      vertex 3.5 -5.96169 0
      vertex 7 -18 0
      vertex 3.5 -18 0
    endloop
  endfacet
  facet normal 0 0 -1
    outer loop
      vertex 7 -18 0
      vertex 3.5 -5.96169 0
      vertex 3.76792 -5.56072 0
    endloop
  endfacet
  facet normal 0 0 -1
    outer loop
      vertex 7 0 0
      vertex 12.5 3 0
      vertex 12.5 0 0
    endloop
  endfacet
  facet normal 0 0 -1
    outer loop
      vertex 3.76792 -2.43928 0
      vertex 7 0 0
      vertex 4.07836 -4 0
    endloop
  endfacet
  facet normal 0 0 -1
    outer loop
      vertex 2.88384 -1.11616 0
      vertex 7 0 0
      vertex 3.76792 -2.43928 0
    endloop
  endfacet
  facet normal 0 0 -1
    outer loop
      vertex 1.56072 -0.232082 0
      vertex 7 0 0
      vertex 2.88384 -1.11616 0
    endloop
  endfacet
  facet normal -0 0 -1
    outer loop
      vertex 7 0 0
      vertex 1.56072 -0.232082 0
      vertex 12.5 3 0
    endloop
  endfacet
  facet normal 0 0 -1
    outer loop
      vertex 0 0.0783644 0
      vertex 12.5 3 0
      vertex 1.56072 -0.232082 0
    endloop
  endfacet
  facet normal 0 0 -1
    outer loop
      vertex -12.5 3 0
      vertex 0 0.0783644 0
      vertex -1.56072 -0.232082 0
    endloop
  endfacet
  facet normal 0 0 -1
    outer loop
      vertex -3.76792 -5.56072 0
      vertex -7 0 0
      vertex -4.07836 -4 0
    endloop
  endfacet
  facet normal 0 0 -1
    outer loop
      vertex -4.07836 -4 0
      vertex -7 0 0
      vertex -3.76792 -2.43928 0
    endloop
  endfacet
  facet normal 0 0 -1
    outer loop
      vertex -7 0 0
      vertex -2.88384 -1.11616 0
      vertex -3.76792 -2.43928 0
    endloop
  endfacet
  facet normal 0 0 -1
    outer loop
      vertex -7 0 0
      vertex -1.56072 -0.232082 0
      vertex -2.88384 -1.11616 0
    endloop
  endfacet
  facet normal 0 0 -1
    outer loop
      vertex -12.5 3 0
      vertex -1.56072 -0.232082 0
      vertex -7 0 0
    endloop
  endfacet
  facet normal 0 0 -1
    outer loop
      vertex -12.5 3 0
      vertex -7 0 0
      vertex -12.5 0 0
    endloop
  endfacet
  facet normal 0 0 -1
    outer loop
      vertex 0 0.0783644 0
      vertex -12.5 3 0
      vertex 12.5 3 0
    endloop
  endfacet
  facet normal 0 -1 0
    outer loop
      vertex -10.366 0 4.5
      vertex -7 0 6
      vertex -12.5 0 6
    endloop
  endfacet
  facet normal 0 -1 0
    outer loop
      vertex -7 0 6
      vertex -10.366 0 4.5
      vertex -8.63397 0 4.5
    endloop
  endfacet
  facet normal 0 -1 0
    outer loop
      vertex -12.5 0 6
      vertex -11.232 0 3
      vertex -10.366 0 4.5
    endloop
  endfacet
  facet normal 0 -1 0
    outer loop
      vertex -7 0 0
      vertex -10.366 0 1.5
      vertex -12.5 0 0
    endloop
  endfacet
  facet normal 0 -1 -0
    outer loop
      vertex -11.232 0 3
      vertex -12.5 0 0
      vertex -10.366 0 1.5
    endloop
  endfacet
  facet normal 0 -1 0
    outer loop
      vertex -12.5 0 0
      vertex -11.232 0 3
      vertex -12.5 0 6
    endloop
  endfacet
  facet normal 0 -1 0
    outer loop
      vertex -7.76795 0 3
      vertex -7 0 6
      vertex -8.63397 0 4.5
    endloop
  endfacet
  facet normal 0 -1 0
    outer loop
      vertex -7.76795 0 3
      vertex -7 0 0
      vertex -7 0 6
    endloop
  endfacet
  facet normal 0 -1 0
    outer loop
      vertex -8.63397 0 1.5
      vertex -7 0 0
      vertex -7.76795 0 3
    endloop
  endfacet
  facet normal 0 -1 0
    outer loop
      vertex -10.366 0 1.5
      vertex -7 0 0
      vertex -8.63397 0 1.5
    endloop
  endfacet
  facet normal 0 -1 0
    outer loop
      vertex 7 0 6
      vertex 10.366 0 4.5
      vertex 12.5 0 6
    endloop
  endfacet
  facet normal 0 -1 0
    outer loop
      vertex 7 0 6
      vertex 8.63397 0 4.5
      vertex 10.366 0 4.5
    endloop
  endfacet
  facet normal 0 -1 0
    outer loop
      vertex 7 0 6
      vertex 7.76795 0 3
      vertex 8.63397 0 4.5
    endloop
  endfacet
  facet normal 0 -1 -0
    outer loop
      vertex 8.63397 0 1.5
      vertex 7 0 0
      vertex 10.366 0 1.5
    endloop
  endfacet
  facet normal 0 -1 -0
    outer loop
      vertex 7.76795 0 3
      vertex 7 0 0
      vertex 8.63397 0 1.5
    endloop
  endfacet
  facet normal 0 -1 0
    outer loop
      vertex 7 0 0
      vertex 7.76795 0 3
      vertex 7 0 6
    endloop
  endfacet
  facet normal 0 -1 0
    outer loop
      vertex 11.232 0 3
      vertex 12.5 0 6
      vertex 10.366 0 4.5
    endloop
  endfacet
  facet normal 0 -1 0
    outer loop
      vertex 11.232 0 3
      vertex 12.5 0 0
      vertex 12.5 0 6
    endloop
  endfacet
  facet normal 0 -1 0
    outer loop
      vertex 10.366 0 1.5
      vertex 12.5 0 0
      vertex 11.232 0 3
    endloop
  endfacet
  facet normal 0 -1 0
    outer loop
      vertex 12.5 0 0
      vertex 10.366 0 1.5
      vertex 7 0 0
    endloop
  endfacet
  facet normal -1 0 0
    outer loop
      vertex 3.5 -5.96169 0
      vertex 3.5 -13.2679 3
      vertex 3.5 -5.96169 6
    endloop
  endfacet
  facet normal -1 0 0
    outer loop
      vertex 3.5 -5.96169 0
      vertex 3.5 -14.134 1.5
      vertex 3.5 -13.2679 3
    endloop
  endfacet
  facet normal -1 0 0
    outer loop
      vertex 3.5 -18 0
      vertex 3.5 -14.134 1.5
      vertex 3.5 -5.96169 0
    endloop
  endfacet
  facet normal -1 -0 0
    outer loop
      vertex 3.5 -15.866 1.5
      vertex 3.5 -18 0
      vertex 3.5 -16.732 3
    endloop
  endfacet
  facet normal -1 -0 0
    outer loop
      vertex 3.5 -14.134 1.5
      vertex 3.5 -18 0
      vertex 3.5 -15.866 1.5
    endloop
  endfacet
  facet normal -1 0 0
    outer loop
      vertex 3.5 -14.134 4.5
      vertex 3.5 -5.96169 6
      vertex 3.5 -13.2679 3
    endloop
  endfacet
  facet normal -1 0 0
    outer loop
      vertex 3.5 -18 6
      vertex 3.5 -14.134 4.5
      vertex 3.5 -15.866 4.5
    endloop
  endfacet
  facet normal -1 0 0
    outer loop
      vertex 3.5 -14.134 4.5
      vertex 3.5 -18 6
      vertex 3.5 -5.96169 6
    endloop
  endfacet
  facet normal -1 0 0
    outer loop
      vertex 3.5 -16.732 3
      vertex 3.5 -18 6
      vertex 3.5 -15.866 4.5
    endloop
  endfacet
  facet normal -1 0 0
    outer loop
      vertex 3.5 -18 6
      vertex 3.5 -16.732 3
      vertex 3.5 -18 0
    endloop
  endfacet
  facet normal 1 0 0
    outer loop
      vertex 7 0 6
      vertex 7 -13.2679 3
      vertex 7 0 0
    endloop
  endfacet
  facet normal 1 0 0
    outer loop
      vertex 7 0 6
      vertex 7 -14.134 4.5
      vertex 7 -13.2679 3
    endloop
  endfacet
  facet normal 1 -0 0
    outer loop
      vertex 7 -18 6
      vertex 7 -14.134 4.5
      vertex 7 0 6
    endloop
  endfacet
  facet normal 1 0 0
    outer loop
      vertex 7 -15.866 4.5
      vertex 7 -18 6
      vertex 7 -16.732 3
    endloop
  endfacet
  facet normal 1 0 0
    outer loop
      vertex 7 -14.134 4.5
      vertex 7 -18 6
      vertex 7 -15.866 4.5
    endloop
  endfacet
  facet normal 1 -0 0
    outer loop
      vertex 7 -14.134 1.5
      vertex 7 0 0
      vertex 7 -13.2679 3
    endloop
  endfacet
  facet normal 1 0 0
    outer loop
      vertex 7 -18 0
      vertex 7 -14.134 1.5
      vertex 7 -15.866 1.5
    endloop
  endfacet
  facet normal 1 0 0
    outer loop
      vertex 7 -14.134 1.5
      vertex 7 -18 0
      vertex 7 0 0
    endloop
  endfacet
  facet normal 1 0 0
    outer loop
      vertex 7 -16.732 3
      vertex 7 -18 0
      vertex 7 -15.866 1.5
    endloop
  endfacet
  facet normal 1 0 0
    outer loop
      vertex 7 -18 0
      vertex 7 -16.732 3
      vertex 7 -18 6
    endloop
  endfacet
  facet normal 0 -1 0
    outer loop
      vertex 3.5 -18 0
      vertex 7 -18 6
      vertex 3.5 -18 6
    endloop
  endfacet
  facet normal 0 -1 -0
    outer loop
      vertex 7 -18 6
      vertex 3.5 -18 0
      vertex 7 -18 0
    endloop
  endfacet
  facet normal -1 0 0
    outer loop
      vertex -7 0 0
      vertex -7 -13.2679 3
      vertex -7 0 6
    endloop
  endfacet
  facet normal -1 0 0
    outer loop
      vertex -7 0 0
      vertex -7 -14.134 1.5
      vertex -7 -13.2679 3
    endloop
  endfacet
  facet normal -1 0 0
    outer loop
      vertex -7 -18 0
      vertex -7 -14.134 1.5
      vertex -7 0 0
    endloop
  endfacet
  facet normal -1 -0 0
    outer loop
      vertex -7 -15.866 1.5
      vertex -7 -18 0
      vertex -7 -16.732 3
    endloop
  endfacet
  facet normal -1 -0 0
    outer loop
      vertex -7 -14.134 1.5
      vertex -7 -18 0
      vertex -7 -15.866 1.5
    endloop
  endfacet
  facet normal -1 0 0
    outer loop
      vertex -7 -14.134 4.5
      vertex -7 0 6
      vertex -7 -13.2679 3
    endloop
  endfacet
  facet normal -1 0 0
    outer loop
      vertex -7 -18 6
      vertex -7 -14.134 4.5
      vertex -7 -15.866 4.5
    endloop
  endfacet
  facet normal -1 0 0
    outer loop
      vertex -7 -14.134 4.5
      vertex -7 -18 6
      vertex -7 0 6
    endloop
  endfacet
  facet normal -1 0 0
    outer loop
      vertex -7 -16.732 3
      vertex -7 -18 6
      vertex -7 -15.866 4.5
    endloop
  endfacet
  facet normal -1 0 0
    outer loop
      vertex -7 -18 6
      vertex -7 -16.732 3
      vertex -7 -18 0
    endloop
  endfacet
  facet normal 1 0 0
    outer loop
      vertex -3.5 -5.96169 6
      vertex -3.5 -13.2679 3
      vertex -3.5 -5.96169 0
    endloop
  endfacet
  facet normal 1 0 0
    outer loop
      vertex -3.5 -5.96169 6
      vertex -3.5 -14.134 4.5
      vertex -3.5 -13.2679 3
    endloop
  endfacet
  facet normal 1 -0 0
    outer loop
      vertex -3.5 -18 6
      vertex -3.5 -14.134 4.5
      vertex -3.5 -5.96169 6
    endloop
  endfacet
  facet normal 1 0 0
    outer loop
      vertex -3.5 -15.866 4.5
      vertex -3.5 -18 6
      vertex -3.5 -16.732 3
    endloop
  endfacet
  facet normal 1 0 0
    outer loop
      vertex -3.5 -14.134 4.5
      vertex -3.5 -18 6
      vertex -3.5 -15.866 4.5
    endloop
  endfacet
  facet normal 1 -0 0
    outer loop
      vertex -3.5 -14.134 1.5
      vertex -3.5 -5.96169 0
      vertex -3.5 -13.2679 3
    endloop
  endfacet
  facet normal 1 0 0
    outer loop
      vertex -3.5 -18 0
      vertex -3.5 -14.134 1.5
      vertex -3.5 -15.866 1.5
    endloop
  endfacet
  facet normal 1 0 0
    outer loop
      vertex -3.5 -14.134 1.5
      vertex -3.5 -18 0
      vertex -3.5 -5.96169 0
    endloop
  endfacet
  facet normal 1 0 0
    outer loop
      vertex -3.5 -16.732 3
      vertex -3.5 -18 0
      vertex -3.5 -15.866 1.5
    endloop
  endfacet
  facet normal 1 0 0
    outer loop
      vertex -3.5 -18 0
      vertex -3.5 -16.732 3
      vertex -3.5 -18 6
    endloop
  endfacet
  facet normal 0 -1 0
    outer loop
      vertex -7 -18 0
      vertex -3.5 -18 6
      vertex -7 -18 6
    endloop
  endfacet
  facet normal 0 -1 -0
    outer loop
      vertex -3.5 -18 6
      vertex -7 -18 0
      vertex -3.5 -18 0
    endloop
  endfacet
  facet normal -0.980785 -0.195091 0
    outer loop
      vertex 4.07836 -4 0
      vertex 3.76792 -2.43928 6
      vertex 3.76792 -2.43928 0
    endloop
  endfacet
  facet normal -0.980785 -0.195091 0
    outer loop
      vertex 3.76792 -2.43928 6
      vertex 4.07836 -4 0
      vertex 4.07836 -4 6
    endloop
  endfacet
  facet normal 0.980785 -0.195091 0
    outer loop
      vertex -4.07836 -4 6
      vertex -3.76792 -2.43928 0
      vertex -3.76792 -2.43928 6
    endloop
  endfacet
  facet normal 0.980785 -0.195091 0
    outer loop
      vertex -3.76792 -2.43928 0
      vertex -4.07836 -4 6
      vertex -4.07836 -4 0
    endloop
  endfacet
  facet normal 0.19509 -0.980785 0
    outer loop
      vertex -1.56072 -0.232082 0
      vertex 0 0.0783644 6
      vertex -1.56072 -0.232082 6
    endloop
  endfacet
  facet normal 0.19509 -0.980785 0
    outer loop
      vertex 0 0.0783644 6
      vertex -1.56072 -0.232082 0
      vertex 0 0.0783644 0
    endloop
  endfacet
  facet normal 0.55557 -0.83147 0
    outer loop
      vertex -2.88384 -1.11616 0
      vertex -1.56072 -0.232082 6
      vertex -2.88384 -1.11616 6
    endloop
  endfacet
  facet normal 0.55557 -0.83147 0
    outer loop
      vertex -1.56072 -0.232082 6
      vertex -2.88384 -1.11616 0
      vertex -1.56072 -0.232082 0
    endloop
  endfacet
  facet normal -0.55557 -0.83147 0
    outer loop
      vertex 1.56072 -0.232082 0
      vertex 2.88384 -1.11616 6
      vertex 1.56072 -0.232082 6
    endloop
  endfacet
  facet normal -0.55557 -0.83147 -0
    outer loop
      vertex 2.88384 -1.11616 6
      vertex 1.56072 -0.232082 0
      vertex 2.88384 -1.11616 0
    endloop
  endfacet
  facet normal -0.83147 -0.55557 0
    outer loop
      vertex 3.76792 -2.43928 0
      vertex 2.88384 -1.11616 6
      vertex 2.88384 -1.11616 0
    endloop
  endfacet
  facet normal -0.83147 -0.55557 0
    outer loop
      vertex 2.88384 -1.11616 6
      vertex 3.76792 -2.43928 0
      vertex 3.76792 -2.43928 6
    endloop
  endfacet
  facet normal -0.19509 -0.980785 0
    outer loop
      vertex 0 0.0783644 0
      vertex 1.56072 -0.232082 6
      vertex 0 0.0783644 6
    endloop
  endfacet
  facet normal -0.19509 -0.980785 -0
    outer loop
      vertex 1.56072 -0.232082 6
      vertex 0 0.0783644 0
      vertex 1.56072 -0.232082 0
    endloop
  endfacet
  facet normal 0.83147 -0.55557 0
    outer loop
      vertex -3.76792 -2.43928 6
      vertex -2.88384 -1.11616 0
      vertex -2.88384 -1.11616 6
    endloop
  endfacet
  facet normal 0.83147 -0.55557 0
    outer loop
      vertex -2.88384 -1.11616 0
      vertex -3.76792 -2.43928 6
      vertex -3.76792 -2.43928 0
    endloop
  endfacet
  facet normal 0.980785 0.195091 0
    outer loop
      vertex -3.76792 -5.56072 6
      vertex -4.07836 -4 0
      vertex -4.07836 -4 6
    endloop
  endfacet
  facet normal 0.980785 0.195091 0
    outer loop
      vertex -4.07836 -4 0
      vertex -3.76792 -5.56072 6
      vertex -3.76792 -5.56072 0
    endloop
  endfacet
  facet normal -0.83147 0.55557 0
    outer loop
      vertex 3.5 -5.96169 0
      vertex 3.76792 -5.56072 6
      vertex 3.76792 -5.56072 0
    endloop
  endfacet
  facet normal -0.83147 0.55557 0
    outer loop
      vertex 3.76792 -5.56072 6
      vertex 3.5 -5.96169 0
      vertex 3.5 -5.96169 6
    endloop
  endfacet
  facet normal 0.83147 0.55557 0
    outer loop
      vertex -3.5 -5.96169 6
      vertex -3.76792 -5.56072 0
      vertex -3.76792 -5.56072 6
    endloop
  endfacet
  facet normal 0.83147 0.55557 0
    outer loop
      vertex -3.76792 -5.56072 0
      vertex -3.5 -5.96169 6
      vertex -3.5 -5.96169 0
    endloop
  endfacet
  facet normal -0.980785 0.195091 0
    outer loop
      vertex 3.76792 -5.56072 0
      vertex 4.07836 -4 6
      vertex 4.07836 -4 0
    endloop
  endfacet
  facet normal -0.980785 0.195091 0
    outer loop
      vertex 4.07836 -4 6
      vertex 3.76792 -5.56072 0
      vertex 3.76792 -5.56072 6
    endloop
  endfacet
  facet normal -0.866026 0 0.5
    outer loop
      vertex 10.366 0 1.5
      vertex 11.232 3 3
      vertex 10.366 3 1.5
    endloop
  endfacet
  facet normal -0.866026 0 0.5
    outer loop
      vertex 11.232 3 3
      vertex 10.366 0 1.5
      vertex 11.232 0 3
    endloop
  endfacet
  facet normal 0.866026 -0 0.5
    outer loop
      vertex 7.76795 0 3
      vertex 8.63397 3 1.5
      vertex 7.76795 3 3
    endloop
  endfacet
  facet normal 0.866026 0 0.5
    outer loop
      vertex 8.63397 3 1.5
      vertex 7.76795 0 3
      vertex 8.63397 0 1.5
    endloop
  endfacet
  facet normal -0 0 1
    outer loop
      vertex 8.63397 3 1.5
      vertex 10.366 0 1.5
      vertex 10.366 3 1.5
    endloop
  endfacet
  facet normal 0 0 1
    outer loop
      vertex 10.366 0 1.5
      vertex 8.63397 3 1.5
      vertex 8.63397 0 1.5
    endloop
  endfacet
  facet normal 0.866026 0 -0.5
    outer loop
      vertex 7.76795 3 3
      vertex 8.41747 3 4.125
      vertex 7.76795 0 3
    endloop
  endfacet
  facet normal -0.866026 0 -0.5
    outer loop
      vertex 11.232 0 3
      vertex 10.366 3 4.5
      vertex 11.232 3 3
    endloop
  endfacet
  facet normal -0.866026 -0 -0.5
    outer loop
      vertex 10.366 3 4.5
      vertex 11.232 0 3
      vertex 10.366 0 4.5
    endloop
  endfacet
  facet normal 5.50604e-07 2.38419e-07 -1
    outer loop
      vertex 8.63397 0 4.5
      vertex 9.06699 3 4.5
      vertex 10.366 0 4.5
    endloop
  endfacet
  facet normal 0 3.17891e-07 -1
    outer loop
      vertex 9.06699 3 4.5
      vertex 8.63397 0 4.5
      vertex 8.63397 3 4.5
    endloop
  endfacet
  facet normal 0.866025 1.58946e-07 -0.5
    outer loop
      vertex 8.63397 0 4.5
      vertex 8.41747 3 4.125
      vertex 8.63397 3 4.5
    endloop
  endfacet
  facet normal 0.866025 1.29857e-07 -0.5
    outer loop
      vertex 8.41747 3 4.125
      vertex 8.63397 0 4.5
      vertex 7.76795 0 3
    endloop
  endfacet
  facet normal -0 -0 -1
    outer loop
      vertex 10.366 3 4.5
      vertex 10.366 0 4.5
      vertex 9.06699 3 4.5
    endloop
  endfacet
  facet normal -0.866026 0 0.5
    outer loop
      vertex -8.63397 0 1.5
      vertex -7.76795 3 3
      vertex -8.63397 3 1.5
    endloop
  endfacet
  facet normal -0.866026 0 0.5
    outer loop
      vertex -7.76795 3 3
      vertex -8.63397 0 1.5
      vertex -7.76795 0 3
    endloop
  endfacet
  facet normal 0.866026 -0 0.5
    outer loop
      vertex -11.232 0 3
      vertex -10.366 3 1.5
      vertex -11.232 3 3
    endloop
  endfacet
  facet normal 0.866026 0 0.5
    outer loop
      vertex -10.366 3 1.5
      vertex -11.232 0 3
      vertex -10.366 0 1.5
    endloop
  endfacet
  facet normal -0 0 1
    outer loop
      vertex -10.366 3 1.5
      vertex -8.63397 0 1.5
      vertex -8.63397 3 1.5
    endloop
  endfacet
  facet normal 0 0 1
    outer loop
      vertex -8.63397 0 1.5
      vertex -10.366 3 1.5
      vertex -10.366 0 1.5
    endloop
  endfacet
  facet normal 0.866026 0 -0.5
    outer loop
      vertex -11.232 3 3
      vertex -10.5825 3 4.125
      vertex -11.232 0 3
    endloop
  endfacet
  facet normal 5.50604e-07 2.38419e-07 -1
    outer loop
      vertex -10.366 0 4.5
      vertex -9.93301 3 4.5
      vertex -8.63397 0 4.5
    endloop
  endfacet
  facet normal 0 3.17891e-07 -1
    outer loop
      vertex -9.93301 3 4.5
      vertex -10.366 0 4.5
      vertex -10.366 3 4.5
    endloop
  endfacet
  facet normal 0.866025 1.58946e-07 -0.5
    outer loop
      vertex -10.366 0 4.5
      vertex -10.5825 3 4.125
      vertex -10.366 3 4.5
    endloop
  endfacet
  facet normal 0.866025 1.29857e-07 -0.5
    outer loop
      vertex -10.5825 3 4.125
      vertex -10.366 0 4.5
      vertex -11.232 0 3
    endloop
  endfacet
  facet normal -0 -0 -1
    outer loop
      vertex -8.63397 3 4.5
      vertex -8.63397 0 4.5
      vertex -9.93301 3 4.5
    endloop
  endfacet
  facet normal -0.866026 0 -0.5
    outer loop
      vertex -7.76795 0 3
      vertex -8.63397 3 4.5
      vertex -7.76795 3 3
    endloop
  endfacet
  facet normal -0.866026 -0 -0.5
    outer loop
      vertex -8.63397 3 4.5
      vertex -7.76795 0 3
      vertex -8.63397 0 4.5
    endloop
  endfacet
  facet normal 0 -0.866026 -0.5
    outer loop
      vertex -7 -13.2679 3
      vertex -3.5 -14.134 4.5
      vertex -7 -14.134 4.5
    endloop
  endfacet
  facet normal 0 -0.866026 -0.5
    outer loop
      vertex -3.5 -14.134 4.5
      vertex -7 -13.2679 3
      vertex -3.5 -13.2679 3
    endloop
  endfacet
  facet normal 0 -0.866026 -0.5
    outer loop
      vertex 3.5 -13.2679 3
      vertex 7 -14.134 4.5
      vertex 3.5 -14.134 4.5
    endloop
  endfacet
  facet normal 0 -0.866026 -0.5
    outer loop
      vertex 7 -14.134 4.5
      vertex 3.5 -13.2679 3
      vertex 7 -13.2679 3
    endloop
  endfacet
  facet normal 0 0.866026 -0.5
    outer loop
      vertex -3.5 -16.732 3
      vertex -7 -15.866 4.5
      vertex -3.5 -15.866 4.5
    endloop
  endfacet
  facet normal 0 0.866026 -0.5
    outer loop
      vertex -7 -15.866 4.5
      vertex -3.5 -16.732 3
      vertex -7 -16.732 3
    endloop
  endfacet
  facet normal 0 0.866026 -0.5
    outer loop
      vertex 7 -16.732 3
      vertex 3.5 -15.866 4.5
      vertex 7 -15.866 4.5
    endloop
  endfacet
  facet normal 0 0.866026 -0.5
    outer loop
      vertex 3.5 -15.866 4.5
      vertex 7 -16.732 3
      vertex 3.5 -16.732 3
    endloop
  endfacet
  facet normal 0 0 -1
    outer loop
      vertex -7 -15.866 4.5
      vertex -3.5 -14.134 4.5
      vertex -3.5 -15.866 4.5
    endloop
  endfacet
  facet normal -0 0 -1
    outer loop
      vertex -3.5 -14.134 4.5
      vertex -7 -15.866 4.5
      vertex -7 -14.134 4.5
    endloop
  endfacet
  facet normal 0 0 -1
    outer loop
      vertex 3.5 -15.866 4.5
      vertex 7 -14.134 4.5
      vertex 7 -15.866 4.5
    endloop
  endfacet
  facet normal -0 0 -1
    outer loop
      vertex 7 -14.134 4.5
      vertex 3.5 -15.866 4.5
      vertex 3.5 -14.134 4.5
    endloop
  endfacet
  facet normal 0 0.866026 0.5
    outer loop
      vertex -3.5 -15.866 1.5
      vertex -7 -16.732 3
      vertex -3.5 -16.732 3
    endloop
  endfacet
  facet normal 0 0.866026 0.5
    outer loop
      vertex -7 -16.732 3
      vertex -3.5 -15.866 1.5
      vertex -7 -15.866 1.5
    endloop
  endfacet
  facet normal 0 0.866026 0.5
    outer loop
      vertex 7 -15.866 1.5
      vertex 3.5 -16.732 3
      vertex 7 -16.732 3
    endloop
  endfacet
  facet normal 0 0.866026 0.5
    outer loop
      vertex 3.5 -16.732 3
      vertex 7 -15.866 1.5
      vertex 3.5 -15.866 1.5
    endloop
  endfacet
  facet normal 0 -0.866026 0.5
    outer loop
      vertex -7 -14.134 1.5
      vertex -3.5 -13.2679 3
      vertex -7 -13.2679 3
    endloop
  endfacet
  facet normal 0 -0.866026 0.5
    outer loop
      vertex -3.5 -13.2679 3
      vertex -7 -14.134 1.5
      vertex -3.5 -14.134 1.5
    endloop
  endfacet
  facet normal 0 -0.866026 0.5
    outer loop
      vertex 3.5 -14.134 1.5
      vertex 7 -13.2679 3
      vertex 3.5 -13.2679 3
    endloop
  endfacet
  facet normal 0 -0.866026 0.5
    outer loop
      vertex 7 -13.2679 3
      vertex 3.5 -14.134 1.5
      vertex 7 -14.134 1.5
    endloop
  endfacet
  facet normal -0 0 1
    outer loop
      vertex -7 -14.134 1.5
      vertex -3.5 -15.866 1.5
      vertex -3.5 -14.134 1.5
    endloop
  endfacet
  facet normal 0 0 1
    outer loop
      vertex -3.5 -15.866 1.5
      vertex -7 -14.134 1.5
      vertex -7 -15.866 1.5
    endloop
  endfacet
  facet normal -0 0 1
    outer loop
      vertex 3.5 -14.134 1.5
      vertex 7 -15.866 1.5
      vertex 7 -14.134 1.5
    endloop
  endfacet
  facet normal 0 0 1
    outer loop
      vertex 7 -15.866 1.5
      vertex 3.5 -14.134 1.5
      vertex 3.5 -15.866 1.5
    endloop
  endfacet
endsolid OpenSCAD_Model
