solid OpenSCAD_Model
  facet normal 0 0.766044 0.642788
    outer loop
      vertex 27.5 -7.05988 9.14326
      vertex -27.5 -7.35922 9.5
      vertex 27.5 -7.35922 9.5
    endloop
  endfacet
  facet normal 0 0.766044 0.642788
    outer loop
      vertex -27.5 -7.35922 9.5
      vertex 27.5 -7.05988 9.14326
      vertex -27.5 -7.05988 9.14326
    endloop
  endfacet
  facet normal -0 0.766044 0.642788
    outer loop
      vertex 27.5 -7.35922 9.5
      vertex 30.5 -7.4861 9.65122
      vertex 30.5 -7.35922 9.5
    endloop
  endfacet
  facet normal 0 0.766044 0.642788
    outer loop
      vertex 30.5 -7.4861 9.65122
      vertex 27.5 -7.35922 9.5
      vertex -30.5 -7.4861 9.65122
    endloop
  endfacet
  facet normal -0 0.766044 0.642788
    outer loop
      vertex -27.5 -7.35922 9.5
      vertex -30.5 -7.4861 9.65122
      vertex 27.5 -7.35922 9.5
    endloop
  endfacet
  facet normal 0 0.766044 0.642788
    outer loop
      vertex -30.5 -7.4861 9.65122
      vertex -27.5 -7.35922 9.5
      vertex -30.5 -7.35922 9.5
    endloop
  endfacet
  facet normal 0 -0.882948 0.469471
    outer loop
      vertex -30.5 8.53854 11.3355
      vertex 0 8.38289 11.0427
      vertex 30.5 8.53854 11.3355
    endloop
  endfacet
  facet normal 5.95504e-09 -0.882948 0.469471
    outer loop
      vertex -30.5 8.53854 11.3355
      vertex -27.5 8.24255 10.7788
      vertex 0 8.38289 11.0427
    endloop
  endfacet
  facet normal 3.27254e-08 -0.882948 0.469471
    outer loop
      vertex -27.5 8.24255 10.7788
      vertex -30.5 8.53854 11.3355
      vertex -30.5 8.22724 10.75
    endloop
  endfacet
  facet normal -2.81544e-08 -0.882946 0.469474
    outer loop
      vertex 0 8.38289 11.0427
      vertex -27.5 8.24255 10.7788
      vertex -27.5 8.22724 10.75
    endloop
  endfacet
  facet normal 0 -0.961262 0.275638
    outer loop
      vertex -30.5 9.03504 12.5643
      vertex 30.5 9.21781 13.2017
      vertex -30.5 9.21781 13.2017
    endloop
  endfacet
  facet normal 0 -0.961262 0.275638
    outer loop
      vertex 30.5 9.21781 13.2017
      vertex -30.5 9.03504 12.5643
      vertex 30.5 9.03504 12.5643
    endloop
  endfacet
  facet normal 0 0.939693 0.342019
    outer loop
      vertex 30.5 -8.80825 11.9412
      vertex -30.5 -9.03504 12.5643
      vertex 30.5 -9.03504 12.5643
    endloop
  endfacet
  facet normal 0 0.939693 0.342019
    outer loop
      vertex -30.5 -9.03504 12.5643
      vertex 30.5 -8.80825 11.9412
      vertex -30.5 -8.80825 11.9412
    endloop
  endfacet
  facet normal 0 0.997564 0.0697564
    outer loop
      vertex 30.5 -9.44796 14.507
      vertex -30.5 -9.48243 15
      vertex 30.5 -9.48243 15
    endloop
  endfacet
  facet normal 0 0.997564 0.0697564
    outer loop
      vertex -30.5 -9.48243 15
      vertex 30.5 -9.44796 14.507
      vertex -30.5 -9.44796 14.507
    endloop
  endfacet
  facet normal 0 -0.997564 0.0697564
    outer loop
      vertex -30.5 9.44796 14.507
      vertex 30.5 9.48243 15
      vertex -30.5 9.48243 15
    endloop
  endfacet
  facet normal 0 -0.997564 0.0697564
    outer loop
      vertex 30.5 9.48243 15
      vertex -30.5 9.44796 14.507
      vertex 30.5 9.44796 14.507
    endloop
  endfacet
  facet normal 0 0.848043 0.529928
    outer loop
      vertex -27.5 -8.22724 10.75
      vertex -27.5 -8.20996 10.7223
      vertex -30.5 -8.22724 10.75
    endloop
  endfacet
  facet normal 0 0.848048 0.529919
    outer loop
      vertex 30.5 -8.22724 10.75
      vertex 0 -8.05155 10.4688
      vertex 0 -8.22724 10.75
    endloop
  endfacet
  facet normal 4.97364e-09 0.848048 0.529919
    outer loop
      vertex 0 -8.05155 10.4688
      vertex 30.5 -8.22724 10.75
      vertex 30.5 -7.87586 10.1877
    endloop
  endfacet
  facet normal -2.81544e-08 0.882946 0.469474
    outer loop
      vertex 0 -8.38289 11.0427
      vertex -27.5 -8.22724 10.75
      vertex -27.5 -8.24255 10.7788
    endloop
  endfacet
  facet normal 0 0.882948 0.469471
    outer loop
      vertex 0 -8.38289 11.0427
      vertex -30.5 -8.53854 11.3355
      vertex 30.5 -8.53854 11.3355
    endloop
  endfacet
  facet normal 5.95504e-09 0.882948 0.469471
    outer loop
      vertex -27.5 -8.24255 10.7788
      vertex -30.5 -8.53854 11.3355
      vertex 0 -8.38289 11.0427
    endloop
  endfacet
  facet normal 3.27254e-08 0.882948 0.469471
    outer loop
      vertex -30.5 -8.53854 11.3355
      vertex -27.5 -8.24255 10.7788
      vertex -30.5 -8.22724 10.75
    endloop
  endfacet
  facet normal 0 -0.766044 0.642788
    outer loop
      vertex -27.5 7.05988 9.14326
      vertex 27.5 7.35922 9.5
      vertex -27.5 7.35922 9.5
    endloop
  endfacet
  facet normal 0 -0.766044 0.642788
    outer loop
      vertex 27.5 7.35922 9.5
      vertex -27.5 7.05988 9.14326
      vertex 27.5 7.05988 9.14326
    endloop
  endfacet
  facet normal 0 -0.766044 0.642788
    outer loop
      vertex -27.5 7.35922 9.5
      vertex -30.5 7.4861 9.65122
      vertex -30.5 7.35922 9.5
    endloop
  endfacet
  facet normal 0 -0.766044 0.642788
    outer loop
      vertex -30.5 7.4861 9.65122
      vertex -27.5 7.35922 9.5
      vertex 30.5 7.4861 9.65122
    endloop
  endfacet
  facet normal 0 -0.766044 0.642788
    outer loop
      vertex 27.5 7.35922 9.5
      vertex 30.5 7.4861 9.65122
      vertex -27.5 7.35922 9.5
    endloop
  endfacet
  facet normal 0 -0.766044 0.642788
    outer loop
      vertex 30.5 7.4861 9.65122
      vertex 27.5 7.35922 9.5
      vertex 30.5 7.35922 9.5
    endloop
  endfacet
  facet normal 0 -0.990268 0.139174
    outer loop
      vertex -30.5 9.35567 13.8503
      vertex 30.5 9.44796 14.507
      vertex -30.5 9.44796 14.507
    endloop
  endfacet
  facet normal 0 -0.990268 0.139174
    outer loop
      vertex 30.5 9.44796 14.507
      vertex -30.5 9.35567 13.8503
      vertex 30.5 9.35567 13.8503
    endloop
  endfacet
  facet normal 0 -0.978148 0.207911
    outer loop
      vertex -30.5 9.21781 13.2017
      vertex 30.5 9.35567 13.8503
      vertex -30.5 9.35567 13.8503
    endloop
  endfacet
  facet normal 0 -0.978148 0.207911
    outer loop
      vertex 30.5 9.35567 13.8503
      vertex -30.5 9.21781 13.2017
      vertex 30.5 9.21781 13.2017
    endloop
  endfacet
  facet normal 0 0.882946 0.469474
    outer loop
      vertex -27.5 -8.24255 10.7788
      vertex -27.5 -8.22724 10.75
      vertex -30.5 -8.22724 10.75
    endloop
  endfacet
  facet normal -1.46794e-08 0.882948 0.469472
    outer loop
      vertex 30.5 -8.22724 10.75
      vertex 0 -8.38289 11.0427
      vertex 30.5 -8.53854 11.3355
    endloop
  endfacet
  facet normal 0 0.882947 0.469473
    outer loop
      vertex 0 -8.38289 11.0427
      vertex 30.5 -8.22724 10.75
      vertex 0 -8.22724 10.75
    endloop
  endfacet
  facet normal 0 0.961262 0.275638
    outer loop
      vertex 30.5 -9.03504 12.5643
      vertex -30.5 -9.21781 13.2017
      vertex 30.5 -9.21781 13.2017
    endloop
  endfacet
  facet normal 0 0.961262 0.275638
    outer loop
      vertex -30.5 -9.21781 13.2017
      vertex 30.5 -9.03504 12.5643
      vertex -30.5 -9.03504 12.5643
    endloop
  endfacet
  facet normal 0 0.990268 0.139174
    outer loop
      vertex 30.5 -9.35567 13.8503
      vertex -30.5 -9.44796 14.507
      vertex 30.5 -9.44796 14.507
    endloop
  endfacet
  facet normal 0 0.990268 0.139174
    outer loop
      vertex -30.5 -9.44796 14.507
      vertex 30.5 -9.35567 13.8503
      vertex -30.5 -9.35567 13.8503
    endloop
  endfacet
  facet normal 0 0.913545 0.406738
    outer loop
      vertex 30.5 -8.53854 11.3355
      vertex -30.5 -8.80825 11.9412
      vertex 30.5 -8.80825 11.9412
    endloop
  endfacet
  facet normal 0 0.913545 0.406738
    outer loop
      vertex -30.5 -8.80825 11.9412
      vertex 30.5 -8.53854 11.3355
      vertex -30.5 -8.53854 11.3355
    endloop
  endfacet
  facet normal -1 0 0
    outer loop
      vertex -30.5 8.53854 11.3355
      vertex -30.5 22 15
      vertex -30.5 22 0
    endloop
  endfacet
  facet normal -1 -0 0
    outer loop
      vertex -30.5 22 15
      vertex -30.5 9.44796 14.507
      vertex -30.5 9.48243 15
    endloop
  endfacet
  facet normal -1 0 0
    outer loop
      vertex -30.5 22 15
      vertex -30.5 9.35567 13.8503
      vertex -30.5 9.44796 14.507
    endloop
  endfacet
  facet normal -1 0 0
    outer loop
      vertex -30.5 22 15
      vertex -30.5 9.21781 13.2017
      vertex -30.5 9.35567 13.8503
    endloop
  endfacet
  facet normal -1 0 0
    outer loop
      vertex -30.5 22 15
      vertex -30.5 9.03504 12.5643
      vertex -30.5 9.21781 13.2017
    endloop
  endfacet
  facet normal -1 0 0
    outer loop
      vertex -30.5 22 15
      vertex -30.5 8.80825 11.9412
      vertex -30.5 9.03504 12.5643
    endloop
  endfacet
  facet normal -1 0 0
    outer loop
      vertex -30.5 22 15
      vertex -30.5 8.53854 11.3355
      vertex -30.5 8.80825 11.9412
    endloop
  endfacet
  facet normal -1 0 0
    outer loop
      vertex -30.5 22 0
      vertex -30.5 8.22724 10.75
      vertex -30.5 8.53854 11.3355
    endloop
  endfacet
  facet normal -1 0 0
    outer loop
      vertex -30.5 22 0
      vertex -30.5 7.87586 10.1877
      vertex -30.5 8.22724 10.75
    endloop
  endfacet
  facet normal -1 0 0
    outer loop
      vertex -30.5 22 0
      vertex -30.5 7.4861 9.65122
      vertex -30.5 7.87586 10.1877
    endloop
  endfacet
  facet normal -1 0 0
    outer loop
      vertex -30.5 22 0
      vertex -30.5 7.35922 9.5
      vertex -30.5 7.4861 9.65122
    endloop
  endfacet
  facet normal -1 0 0
    outer loop
      vertex -30.5 22 0
      vertex -30.5 -7.35922 9.5
      vertex -30.5 7.35922 9.5
    endloop
  endfacet
  facet normal -1 0 0
    outer loop
      vertex -30.5 -22 0
      vertex -30.5 -7.35922 9.5
      vertex -30.5 22 0
    endloop
  endfacet
  facet normal -1 0 0
    outer loop
      vertex -30.5 -22 0
      vertex -30.5 -7.4861 9.65122
      vertex -30.5 -7.35922 9.5
    endloop
  endfacet
  facet normal -1 0 0
    outer loop
      vertex -30.5 -22 0
      vertex -30.5 -7.87586 10.1877
      vertex -30.5 -7.4861 9.65122
    endloop
  endfacet
  facet normal -1 0 0
    outer loop
      vertex -30.5 -22 0
      vertex -30.5 -8.22724 10.75
      vertex -30.5 -7.87586 10.1877
    endloop
  endfacet
  facet normal -1 0 0
    outer loop
      vertex -30.5 -22 0
      vertex -30.5 -8.53854 11.3355
      vertex -30.5 -8.22724 10.75
    endloop
  endfacet
  facet normal -1 0 0
    outer loop
      vertex -30.5 -22 15
      vertex -30.5 -8.53854 11.3355
      vertex -30.5 -22 0
    endloop
  endfacet
  facet normal -1 0 0
    outer loop
      vertex -30.5 -8.53854 11.3355
      vertex -30.5 -22 15
      vertex -30.5 -8.80825 11.9412
    endloop
  endfacet
  facet normal -1 0 0
    outer loop
      vertex -30.5 -8.80825 11.9412
      vertex -30.5 -22 15
      vertex -30.5 -9.03504 12.5643
    endloop
  endfacet
  facet normal -1 0 0
    outer loop
      vertex -30.5 -9.03504 12.5643
      vertex -30.5 -22 15
      vertex -30.5 -9.21781 13.2017
    endloop
  endfacet
  facet normal -1 0 0
    outer loop
      vertex -30.5 -9.21781 13.2017
      vertex -30.5 -22 15
      vertex -30.5 -9.35567 13.8503
    endloop
  endfacet
  facet normal -1 0 0
    outer loop
      vertex -30.5 -9.35567 13.8503
      vertex -30.5 -22 15
      vertex -30.5 -9.44796 14.507
    endloop
  endfacet
  facet normal -1 0 0
    outer loop
      vertex -30.5 -9.44796 14.507
      vertex -30.5 -22 15
      vertex -30.5 -9.48243 15
    endloop
  endfacet
  facet normal 1 0 0
    outer loop
      vertex 30.5 9.44796 14.507
      vertex 30.5 22 15
      vertex 30.5 9.48243 15
    endloop
  endfacet
  facet normal 1 0 0
    outer loop
      vertex 30.5 9.35567 13.8503
      vertex 30.5 22 15
      vertex 30.5 9.44796 14.507
    endloop
  endfacet
  facet normal 1 0 0
    outer loop
      vertex 30.5 9.21781 13.2017
      vertex 30.5 22 15
      vertex 30.5 9.35567 13.8503
    endloop
  endfacet
  facet normal 1 0 0
    outer loop
      vertex 30.5 9.03504 12.5643
      vertex 30.5 22 15
      vertex 30.5 9.21781 13.2017
    endloop
  endfacet
  facet normal 1 0 0
    outer loop
      vertex 30.5 8.80825 11.9412
      vertex 30.5 22 15
      vertex 30.5 9.03504 12.5643
    endloop
  endfacet
  facet normal 1 0 0
    outer loop
      vertex 30.5 8.53854 11.3355
      vertex 30.5 22 15
      vertex 30.5 8.80825 11.9412
    endloop
  endfacet
  facet normal 1 0 0
    outer loop
      vertex 30.5 22 15
      vertex 30.5 8.53854 11.3355
      vertex 30.5 22 0
    endloop
  endfacet
  facet normal 1 -0 0
    outer loop
      vertex 30.5 8.22724 10.75
      vertex 30.5 22 0
      vertex 30.5 8.53854 11.3355
    endloop
  endfacet
  facet normal 1 -0 0
    outer loop
      vertex 30.5 7.87586 10.1877
      vertex 30.5 22 0
      vertex 30.5 8.22724 10.75
    endloop
  endfacet
  facet normal 1 -0 0
    outer loop
      vertex 30.5 7.4861 9.65122
      vertex 30.5 22 0
      vertex 30.5 7.87586 10.1877
    endloop
  endfacet
  facet normal 1 -0 0
    outer loop
      vertex 30.5 7.35922 9.5
      vertex 30.5 22 0
      vertex 30.5 7.4861 9.65122
    endloop
  endfacet
  facet normal 1 -0 0
    outer loop
      vertex 30.5 -7.35922 9.5
      vertex 30.5 22 0
      vertex 30.5 7.35922 9.5
    endloop
  endfacet
  facet normal 1 -0 0
    outer loop
      vertex 30.5 -22 15
      vertex 30.5 -9.44796 14.507
      vertex 30.5 -9.48243 15
    endloop
  endfacet
  facet normal 1 0 0
    outer loop
      vertex 30.5 -22 15
      vertex 30.5 -9.35567 13.8503
      vertex 30.5 -9.44796 14.507
    endloop
  endfacet
  facet normal 1 0 0
    outer loop
      vertex 30.5 -22 15
      vertex 30.5 -9.21781 13.2017
      vertex 30.5 -9.35567 13.8503
    endloop
  endfacet
  facet normal 1 0 0
    outer loop
      vertex 30.5 -22 15
      vertex 30.5 -9.03504 12.5643
      vertex 30.5 -9.21781 13.2017
    endloop
  endfacet
  facet normal 1 0 0
    outer loop
      vertex 30.5 -22 15
      vertex 30.5 -8.80825 11.9412
      vertex 30.5 -9.03504 12.5643
    endloop
  endfacet
  facet normal 1 0 0
    outer loop
      vertex 30.5 -22 15
      vertex 30.5 -8.53854 11.3355
      vertex 30.5 -8.80825 11.9412
    endloop
  endfacet
  facet normal 1 0 0
    outer loop
      vertex 30.5 -22 0
      vertex 30.5 -8.53854 11.3355
      vertex 30.5 -22 15
    endloop
  endfacet
  facet normal 1 0 0
    outer loop
      vertex 30.5 -8.53854 11.3355
      vertex 30.5 -22 0
      vertex 30.5 -8.22724 10.75
    endloop
  endfacet
  facet normal 1 0 0
    outer loop
      vertex 30.5 -8.22724 10.75
      vertex 30.5 -22 0
      vertex 30.5 -7.87586 10.1877
    endloop
  endfacet
  facet normal 1 0 0
    outer loop
      vertex 30.5 -7.87586 10.1877
      vertex 30.5 -22 0
      vertex 30.5 -7.4861 9.65122
    endloop
  endfacet
  facet normal 1 0 0
    outer loop
      vertex 30.5 -7.35922 9.5
      vertex 30.5 -22 0
      vertex 30.5 22 0
    endloop
  endfacet
  facet normal 1 0 0
    outer loop
      vertex 30.5 -7.4861 9.65122
      vertex 30.5 -22 0
      vertex 30.5 -7.35922 9.5
    endloop
  endfacet
  facet normal 0 0.809017 0.587785
    outer loop
      vertex 30.5 -7.4861 9.65122
      vertex -30.5 -7.87586 10.1877
      vertex 30.5 -7.87586 10.1877
    endloop
  endfacet
  facet normal 0 0.809017 0.587785
    outer loop
      vertex -30.5 -7.87586 10.1877
      vertex 30.5 -7.4861 9.65122
      vertex -30.5 -7.4861 9.65122
    endloop
  endfacet
  facet normal -7.92506e-09 0.848048 0.529919
    outer loop
      vertex -30.5 -7.87586 10.1877
      vertex -27.5 -8.20996 10.7223
      vertex 0 -8.05155 10.4688
    endloop
  endfacet
  facet normal -0 0.848049 0.529918
    outer loop
      vertex -30.5 -7.87586 10.1877
      vertex 0 -8.05155 10.4688
      vertex 30.5 -7.87586 10.1877
    endloop
  endfacet
  facet normal -1.11036e-07 0.848048 0.529919
    outer loop
      vertex -27.5 -8.20996 10.7223
      vertex -30.5 -7.87586 10.1877
      vertex -30.5 -8.22724 10.75
    endloop
  endfacet
  facet normal 1.08444e-07 0.848043 0.529928
    outer loop
      vertex -27.5 -8.22724 10.75
      vertex 0 -8.05155 10.4688
      vertex -27.5 -8.20996 10.7223
    endloop
  endfacet
  facet normal 0 -0.939693 0.342019
    outer loop
      vertex -30.5 8.80825 11.9412
      vertex 30.5 9.03504 12.5643
      vertex -30.5 9.03504 12.5643
    endloop
  endfacet
  facet normal 0 -0.939693 0.342019
    outer loop
      vertex 30.5 9.03504 12.5643
      vertex -30.5 8.80825 11.9412
      vertex 30.5 8.80825 11.9412
    endloop
  endfacet
  facet normal 0 -0.913545 0.406738
    outer loop
      vertex -30.5 8.53854 11.3355
      vertex 30.5 8.80825 11.9412
      vertex -30.5 8.80825 11.9412
    endloop
  endfacet
  facet normal 0 -0.913545 0.406738
    outer loop
      vertex 30.5 8.80825 11.9412
      vertex -30.5 8.53854 11.3355
      vertex 30.5 8.53854 11.3355
    endloop
  endfacet
  facet normal 0 -0.848043 0.529928
    outer loop
      vertex -27.5 8.20996 10.7223
      vertex -27.5 8.22724 10.75
      vertex -30.5 8.22724 10.75
    endloop
  endfacet
  facet normal 0 -0.848048 0.529919
    outer loop
      vertex 0 8.05155 10.4688
      vertex 30.5 8.22724 10.75
      vertex 0 8.22724 10.75
    endloop
  endfacet
  facet normal 4.97364e-09 -0.848048 0.529919
    outer loop
      vertex 30.5 8.22724 10.75
      vertex 0 8.05155 10.4688
      vertex 30.5 7.87586 10.1877
    endloop
  endfacet
  facet normal -2.9359e-08 -0.882947 0.469473
    outer loop
      vertex 0 8.22724 10.75
      vertex 30.5 8.53854 11.3355
      vertex 0 8.38289 11.0427
    endloop
  endfacet
  facet normal 0 -0.882948 0.469472
    outer loop
      vertex 30.5 8.53854 11.3355
      vertex 0 8.22724 10.75
      vertex 30.5 8.22724 10.75
    endloop
  endfacet
  facet normal 0 -0.882946 0.469474
    outer loop
      vertex -27.5 8.22724 10.75
      vertex -27.5 8.24255 10.7788
      vertex -30.5 8.22724 10.75
    endloop
  endfacet
  facet normal -1.11036e-07 -0.848048 0.529919
    outer loop
      vertex -30.5 7.87586 10.1877
      vertex -27.5 8.20996 10.7223
      vertex -30.5 8.22724 10.75
    endloop
  endfacet
  facet normal -7.92506e-09 -0.848048 0.529919
    outer loop
      vertex -27.5 8.20996 10.7223
      vertex -30.5 7.87586 10.1877
      vertex 0 8.05155 10.4688
    endloop
  endfacet
  facet normal 0 -0.848049 0.529918
    outer loop
      vertex 0 8.05155 10.4688
      vertex -30.5 7.87586 10.1877
      vertex 30.5 7.87586 10.1877
    endloop
  endfacet
  facet normal 1.08444e-07 -0.848043 0.529928
    outer loop
      vertex -27.5 8.22724 10.75
      vertex -27.5 8.20996 10.7223
      vertex 0 8.05155 10.4688
    endloop
  endfacet
  facet normal 0 -0.809017 0.587785
    outer loop
      vertex -30.5 7.4861 9.65122
      vertex 30.5 7.87586 10.1877
      vertex -30.5 7.87586 10.1877
    endloop
  endfacet
  facet normal 0 -0.809017 0.587785
    outer loop
      vertex 30.5 7.87586 10.1877
      vertex -30.5 7.4861 9.65122
      vertex 30.5 7.4861 9.65122
    endloop
  endfacet
  facet normal 0 0.978148 0.207911
    outer loop
      vertex 30.5 -9.21781 13.2017
      vertex -30.5 -9.35567 13.8503
      vertex 30.5 -9.35567 13.8503
    endloop
  endfacet
  facet normal 0 0.978148 0.207911
    outer loop
      vertex -30.5 -9.35567 13.8503
      vertex 30.5 -9.21781 13.2017
      vertex -30.5 -9.21781 13.2017
    endloop
  endfacet
  facet normal -0 0 1
    outer loop
      vertex -30.5 7.35922 9.5
      vertex -27.5 -7.35922 9.5
      vertex -27.5 7.35922 9.5
    endloop
  endfacet
  facet normal 0 0 1
    outer loop
      vertex -27.5 -7.35922 9.5
      vertex -30.5 7.35922 9.5
      vertex -30.5 -7.35922 9.5
    endloop
  endfacet
  facet normal -0 0 1
    outer loop
      vertex 27.5 7.35922 9.5
      vertex 30.5 -7.35922 9.5
      vertex 30.5 7.35922 9.5
    endloop
  endfacet
  facet normal 0 0 1
    outer loop
      vertex 30.5 -7.35922 9.5
      vertex 27.5 7.35922 9.5
      vertex 27.5 -7.35922 9.5
    endloop
  endfacet
  facet normal 0 0 1
    outer loop
      vertex 30.5 -9.48243 15
      vertex 26.232 -18.1754 15
      vertex 30.5 -22 15
    endloop
  endfacet
  facet normal 0 0 1
    outer loop
      vertex 30.5 -9.48243 15
      vertex 25.366 -16.6754 15
      vertex 26.232 -18.1754 15
    endloop
  endfacet
  facet normal 0 0 1
    outer loop
      vertex 30.5 -9.48243 15
      vertex 23.634 -16.6754 15
      vertex 25.366 -16.6754 15
    endloop
  endfacet
  facet normal 0 0 1
    outer loop
      vertex 23.634 -16.6754 15
      vertex -22.7679 -18.1754 15
      vertex 22.7679 -18.1754 15
    endloop
  endfacet
  facet normal 0 0 1
    outer loop
      vertex -23.634 -16.6754 15
      vertex 23.634 -16.6754 15
      vertex 30.5 -9.48243 15
    endloop
  endfacet
  facet normal 0 0 1
    outer loop
      vertex 23.634 -16.6754 15
      vertex -23.634 -16.6754 15
      vertex -22.7679 -18.1754 15
    endloop
  endfacet
  facet normal -0 0 1
    outer loop
      vertex -30.5 -9.48243 15
      vertex -23.634 -16.6754 15
      vertex 30.5 -9.48243 15
    endloop
  endfacet
  facet normal 0 0 1
    outer loop
      vertex -25.366 -16.6754 15
      vertex -30.5 -9.48243 15
      vertex -26.232 -18.1754 15
    endloop
  endfacet
  facet normal 0 0 1
    outer loop
      vertex -23.634 -16.6754 15
      vertex -30.5 -9.48243 15
      vertex -25.366 -16.6754 15
    endloop
  endfacet
  facet normal -0 0 1
    outer loop
      vertex 25.366 -19.6754 15
      vertex 30.5 -22 15
      vertex 26.232 -18.1754 15
    endloop
  endfacet
  facet normal -0 0 1
    outer loop
      vertex 23.634 -19.6754 15
      vertex 30.5 -22 15
      vertex 25.366 -19.6754 15
    endloop
  endfacet
  facet normal -0 0 1
    outer loop
      vertex -22.7679 -18.1754 15
      vertex 23.634 -19.6754 15
      vertex 22.7679 -18.1754 15
    endloop
  endfacet
  facet normal 0 0 1
    outer loop
      vertex -23.634 -19.6754 15
      vertex 23.634 -19.6754 15
      vertex -22.7679 -18.1754 15
    endloop
  endfacet
  facet normal 0 0 1
    outer loop
      vertex 23.634 -19.6754 15
      vertex -23.634 -19.6754 15
      vertex 30.5 -22 15
    endloop
  endfacet
  facet normal 0 0 1
    outer loop
      vertex -30.5 -22 15
      vertex -23.634 -19.6754 15
      vertex -25.366 -19.6754 15
    endloop
  endfacet
  facet normal 0 0 1
    outer loop
      vertex -23.634 -19.6754 15
      vertex -30.5 -22 15
      vertex 30.5 -22 15
    endloop
  endfacet
  facet normal 0 0 1
    outer loop
      vertex -26.232 -18.1754 15
      vertex -30.5 -22 15
      vertex -25.366 -19.6754 15
    endloop
  endfacet
  facet normal 0 0 1
    outer loop
      vertex -30.5 -22 15
      vertex -26.232 -18.1754 15
      vertex -30.5 -9.48243 15
    endloop
  endfacet
  facet normal 0 0 1
    outer loop
      vertex 30.5 22 15
      vertex 26.232 18.1754 15
      vertex 30.5 9.48243 15
    endloop
  endfacet
  facet normal 0 0 1
    outer loop
      vertex 30.5 22 15
      vertex 25.366 19.6754 15
      vertex 26.232 18.1754 15
    endloop
  endfacet
  facet normal 0 0 1
    outer loop
      vertex 30.5 22 15
      vertex 23.634 19.6754 15
      vertex 25.366 19.6754 15
    endloop
  endfacet
  facet normal 0 0 1
    outer loop
      vertex 23.634 19.6754 15
      vertex -22.7679 18.1754 15
      vertex 22.7679 18.1754 15
    endloop
  endfacet
  facet normal 0 0 1
    outer loop
      vertex -23.634 19.6754 15
      vertex 23.634 19.6754 15
      vertex 30.5 22 15
    endloop
  endfacet
  facet normal 0 0 1
    outer loop
      vertex 23.634 19.6754 15
      vertex -23.634 19.6754 15
      vertex -22.7679 18.1754 15
    endloop
  endfacet
  facet normal -0 0 1
    outer loop
      vertex -30.5 22 15
      vertex -23.634 19.6754 15
      vertex 30.5 22 15
    endloop
  endfacet
  facet normal 0 0 1
    outer loop
      vertex -25.366 19.6754 15
      vertex -30.5 22 15
      vertex -26.232 18.1754 15
    endloop
  endfacet
  facet normal 0 0 1
    outer loop
      vertex -23.634 19.6754 15
      vertex -30.5 22 15
      vertex -25.366 19.6754 15
    endloop
  endfacet
  facet normal -0 0 1
    outer loop
      vertex 25.366 16.6754 15
      vertex 30.5 9.48243 15
      vertex 26.232 18.1754 15
    endloop
  endfacet
  facet normal -0 0 1
    outer loop
      vertex 23.634 16.6754 15
      vertex 30.5 9.48243 15
      vertex 25.366 16.6754 15
    endloop
  endfacet
  facet normal -0 0 1
    outer loop
      vertex -22.7679 18.1754 15
      vertex 23.634 16.6754 15
      vertex 22.7679 18.1754 15
    endloop
  endfacet
  facet normal 0 0 1
    outer loop
      vertex -23.634 16.6754 15
      vertex 23.634 16.6754 15
      vertex -22.7679 18.1754 15
    endloop
  endfacet
  facet normal 0 0 1
    outer loop
      vertex 23.634 16.6754 15
      vertex -23.634 16.6754 15
      vertex 30.5 9.48243 15
    endloop
  endfacet
  facet normal 0 0 1
    outer loop
      vertex -30.5 9.48243 15
      vertex -23.634 16.6754 15
      vertex -25.366 16.6754 15
    endloop
  endfacet
  facet normal 0 0 1
    outer loop
      vertex -30.5 9.48243 15
      vertex -26.232 18.1754 15
      vertex -30.5 22 15
    endloop
  endfacet
  facet normal 0 0 1
    outer loop
      vertex -23.634 16.6754 15
      vertex -30.5 9.48243 15
      vertex 30.5 9.48243 15
    endloop
  endfacet
  facet normal 0 0 1
    outer loop
      vertex -26.232 18.1754 15
      vertex -30.5 9.48243 15
      vertex -25.366 16.6754 15
    endloop
  endfacet
  facet normal 0 0 -1
    outer loop
      vertex -23.634 16.6754 0
      vertex 23.634 16.6754 0
      vertex -23.634 -16.6754 0
    endloop
  endfacet
  facet normal 0 0 -1
    outer loop
      vertex 23.634 16.6754 0
      vertex -23.634 16.6754 0
      vertex -22.7679 18.1754 0
    endloop
  endfacet
  facet normal 0 0 -1
    outer loop
      vertex -25.366 -16.6754 0
      vertex -23.634 16.6754 0
      vertex -23.634 -16.6754 0
    endloop
  endfacet
  facet normal 0 0 -1
    outer loop
      vertex -25.366 -16.6754 0
      vertex -25.366 16.6754 0
      vertex -23.634 16.6754 0
    endloop
  endfacet
  facet normal 0 0 -1
    outer loop
      vertex -30.5 -22 0
      vertex -25.366 -16.6754 0
      vertex -26.232 -18.1754 0
    endloop
  endfacet
  facet normal -0 0 -1
    outer loop
      vertex -25.366 -16.6754 0
      vertex -30.5 -22 0
      vertex -25.366 16.6754 0
    endloop
  endfacet
  facet normal 0 0 -1
    outer loop
      vertex 25.366 16.6754 0
      vertex 30.5 22 0
      vertex 25.366 -16.6754 0
    endloop
  endfacet
  facet normal 0 0 -1
    outer loop
      vertex 30.5 22 0
      vertex 25.366 16.6754 0
      vertex 26.232 18.1754 0
    endloop
  endfacet
  facet normal 0 0 -1
    outer loop
      vertex 23.634 -16.6754 0
      vertex 25.366 16.6754 0
      vertex 25.366 -16.6754 0
    endloop
  endfacet
  facet normal 0 0 -1
    outer loop
      vertex 23.634 -16.6754 0
      vertex 23.634 16.6754 0
      vertex 25.366 16.6754 0
    endloop
  endfacet
  facet normal 0 0 -1
    outer loop
      vertex -22.7679 -18.1754 0
      vertex 23.634 -16.6754 0
      vertex 22.7679 -18.1754 0
    endloop
  endfacet
  facet normal 0 0 -1
    outer loop
      vertex -23.634 -16.6754 0
      vertex 23.634 -16.6754 0
      vertex -22.7679 -18.1754 0
    endloop
  endfacet
  facet normal 0 0 -1
    outer loop
      vertex 25.366 -16.6754 0
      vertex 30.5 -22 0
      vertex 26.232 -18.1754 0
    endloop
  endfacet
  facet normal 0 0 -1
    outer loop
      vertex 30.5 -22 0
      vertex 25.366 -19.6754 0
      vertex 26.232 -18.1754 0
    endloop
  endfacet
  facet normal 0 0 -1
    outer loop
      vertex 30.5 -22 0
      vertex 23.634 -19.6754 0
      vertex 25.366 -19.6754 0
    endloop
  endfacet
  facet normal 0 0 -1
    outer loop
      vertex 23.634 -16.6754 0
      vertex -23.634 -16.6754 0
      vertex 23.634 16.6754 0
    endloop
  endfacet
  facet normal 0 0 -1
    outer loop
      vertex 23.634 -19.6754 0
      vertex -22.7679 -18.1754 0
      vertex 22.7679 -18.1754 0
    endloop
  endfacet
  facet normal 0 0 -1
    outer loop
      vertex -23.634 -19.6754 0
      vertex 23.634 -19.6754 0
      vertex 30.5 -22 0
    endloop
  endfacet
  facet normal 0 0 -1
    outer loop
      vertex 23.634 -19.6754 0
      vertex -23.634 -19.6754 0
      vertex -22.7679 -18.1754 0
    endloop
  endfacet
  facet normal 0 0 -1
    outer loop
      vertex -30.5 -22 0
      vertex -23.634 -19.6754 0
      vertex 30.5 -22 0
    endloop
  endfacet
  facet normal 0 0 -1
    outer loop
      vertex -30.5 22 0
      vertex -25.366 16.6754 0
      vertex -30.5 -22 0
    endloop
  endfacet
  facet normal -0 0 -1
    outer loop
      vertex -25.366 -19.6754 0
      vertex -30.5 -22 0
      vertex -26.232 -18.1754 0
    endloop
  endfacet
  facet normal -0 0 -1
    outer loop
      vertex -23.634 -19.6754 0
      vertex -30.5 -22 0
      vertex -25.366 -19.6754 0
    endloop
  endfacet
  facet normal 0 0 -1
    outer loop
      vertex 30.5 -22 0
      vertex 25.366 -16.6754 0
      vertex 30.5 22 0
    endloop
  endfacet
  facet normal 0 0 -1
    outer loop
      vertex 25.366 19.6754 0
      vertex 30.5 22 0
      vertex 26.232 18.1754 0
    endloop
  endfacet
  facet normal 0 0 -1
    outer loop
      vertex 23.634 19.6754 0
      vertex 30.5 22 0
      vertex 25.366 19.6754 0
    endloop
  endfacet
  facet normal 0 0 -1
    outer loop
      vertex 23.634 16.6754 0
      vertex -22.7679 18.1754 0
      vertex 22.7679 18.1754 0
    endloop
  endfacet
  facet normal 0 0 -1
    outer loop
      vertex 22.7679 18.1754 0
      vertex -22.7679 18.1754 0
      vertex 23.634 19.6754 0
    endloop
  endfacet
  facet normal 0 0 -1
    outer loop
      vertex -23.634 19.6754 0
      vertex 23.634 19.6754 0
      vertex -22.7679 18.1754 0
    endloop
  endfacet
  facet normal 0 0 -1
    outer loop
      vertex 23.634 19.6754 0
      vertex -23.634 19.6754 0
      vertex 30.5 22 0
    endloop
  endfacet
  facet normal 0 0 -1
    outer loop
      vertex -30.5 22 0
      vertex -23.634 19.6754 0
      vertex -25.366 19.6754 0
    endloop
  endfacet
  facet normal 0 0 -1
    outer loop
      vertex -23.634 19.6754 0
      vertex -30.5 22 0
      vertex 30.5 22 0
    endloop
  endfacet
  facet normal 0 0 -1
    outer loop
      vertex -26.232 18.1754 0
      vertex -30.5 22 0
      vertex -25.366 19.6754 0
    endloop
  endfacet
  facet normal 0 0 -1
    outer loop
      vertex -25.366 16.6754 0
      vertex -30.5 22 0
      vertex -26.232 18.1754 0
    endloop
  endfacet
  facet normal 0 -1 0
    outer loop
      vertex -30.5 -22 0
      vertex 30.5 -22 15
      vertex -30.5 -22 15
    endloop
  endfacet
  facet normal 0 -1 -0
    outer loop
      vertex 30.5 -22 15
      vertex -30.5 -22 0
      vertex 30.5 -22 0
    endloop
  endfacet
  facet normal 0 1 -0
    outer loop
      vertex 30.5 22 0
      vertex -30.5 22 15
      vertex 30.5 22 15
    endloop
  endfacet
  facet normal 0 1 0
    outer loop
      vertex -30.5 22 15
      vertex 30.5 22 0
      vertex -30.5 22 0
    endloop
  endfacet
  facet normal 0 -0.0349 0.999391
    outer loop
      vertex 27.5 0.662686 6.02314
      vertex -27.5 0.662686 6.02314
      vertex -27.5 0 6
    endloop
  endfacet
  facet normal 1 0 0
    outer loop
      vertex -27.5 0 6
      vertex -27.5 0.662686 6.02314
      vertex -27.5 5.58396 7.81434
    endloop
  endfacet
  facet normal -1.7329e-08 -0.0348986 0.999391
    outer loop
      vertex 27.5 0 6
      vertex 27.5 0.662686 6.02314
      vertex -27.5 0 6
    endloop
  endfacet
  facet normal 1 0 0
    outer loop
      vertex -27.5 2.61855 6.36801
      vertex -27.5 3.24919 6.57292
      vertex -27.5 5.58396 7.81434
    endloop
  endfacet
  facet normal 1 0 -0
    outer loop
      vertex -27.5 0 6
      vertex -27.5 5.58396 7.81434
      vertex -27.5 -5.58396 7.81434
    endloop
  endfacet
  facet normal 1 0 0
    outer loop
      vertex -27.5 1.97516 6.2076
      vertex -27.5 2.61855 6.36801
      vertex -27.5 5.58396 7.81434
    endloop
  endfacet
  facet normal -0 0.309017 0.951057
    outer loop
      vertex -27.5 -2.61855 6.36801
      vertex 27.5 -3.24919 6.57292
      vertex 27.5 -2.61855 6.36801
    endloop
  endfacet
  facet normal 0 0.309017 0.951057
    outer loop
      vertex 27.5 -3.24919 6.57292
      vertex -27.5 -2.61855 6.36801
      vertex -27.5 -3.24919 6.57292
    endloop
  endfacet
  facet normal 0 -0.104529 0.994522
    outer loop
      vertex -27.5 1.32214 6.09245
      vertex 27.5 0.662686 6.02314
      vertex 27.5 1.32214 6.09245
    endloop
  endfacet
  facet normal 0 -0.104529 0.994522
    outer loop
      vertex 27.5 0.662686 6.02314
      vertex -27.5 1.32214 6.09245
      vertex -27.5 0.662686 6.02314
    endloop
  endfacet
  facet normal -0 0.559192 0.829038
    outer loop
      vertex -27.5 -5.03423 7.44354
      vertex 27.5 -5.58396 7.81434
      vertex 27.5 -5.03423 7.44354
    endloop
  endfacet
  facet normal 0 0.559192 0.829038
    outer loop
      vertex 27.5 -5.58396 7.81434
      vertex -27.5 -5.03423 7.44354
      vertex -27.5 -5.58396 7.81434
    endloop
  endfacet
  facet normal 1 -0 -0
    outer loop
      vertex -27.5 -0.662686 6.02314
      vertex -27.5 0 6
      vertex -27.5 -5.58396 7.81434
    endloop
  endfacet
  facet normal 1 -0 -0
    outer loop
      vertex -27.5 -1.97516 6.2076
      vertex -27.5 -1.32214 6.09245
      vertex -27.5 -5.58396 7.81434
    endloop
  endfacet
  facet normal 1 0 0
    outer loop
      vertex -27.5 0.662686 6.02314
      vertex -27.5 1.32214 6.09245
      vertex -27.5 5.58396 7.81434
    endloop
  endfacet
  facet normal 1 0 0
    outer loop
      vertex -27.5 1.32214 6.09245
      vertex -27.5 1.97516 6.2076
      vertex -27.5 5.58396 7.81434
    endloop
  endfacet
  facet normal 0 -0.309017 0.951057
    outer loop
      vertex -27.5 3.24919 6.57292
      vertex 27.5 2.61855 6.36801
      vertex 27.5 3.24919 6.57292
    endloop
  endfacet
  facet normal 0 -0.309017 0.951057
    outer loop
      vertex 27.5 2.61855 6.36801
      vertex -27.5 3.24919 6.57292
      vertex -27.5 2.61855 6.36801
    endloop
  endfacet
  facet normal 1 0 0
    outer loop
      vertex -27.5 3.24919 6.57292
      vertex -27.5 3.864 6.82132
      vertex -27.5 5.58396 7.81434
    endloop
  endfacet
  facet normal 1 0 0
    outer loop
      vertex -27.5 4.45998 7.112
      vertex -27.5 5.03423 7.44354
      vertex -27.5 5.58396 7.81434
    endloop
  endfacet
  facet normal 0 -0.615662 0.78801
    outer loop
      vertex -27.5 6.10648 8.22258
      vertex 27.5 5.58396 7.81434
      vertex 27.5 6.10648 8.22258
    endloop
  endfacet
  facet normal 0 -0.615662 0.78801
    outer loop
      vertex 27.5 5.58396 7.81434
      vertex -27.5 6.10648 8.22258
      vertex -27.5 5.58396 7.81434
    endloop
  endfacet
  facet normal -1.7329e-08 0.0348986 0.999391
    outer loop
      vertex 27.5 -0.662686 6.02314
      vertex 27.5 0 6
      vertex -27.5 0 6
    endloop
  endfacet
  facet normal 0 -0.241921 0.970296
    outer loop
      vertex -27.5 2.61855 6.36801
      vertex 27.5 1.97516 6.2076
      vertex 27.5 2.61855 6.36801
    endloop
  endfacet
  facet normal 0 -0.241921 0.970296
    outer loop
      vertex 27.5 1.97516 6.2076
      vertex -27.5 2.61855 6.36801
      vertex -27.5 1.97516 6.2076
    endloop
  endfacet
  facet normal 1 0 0
    outer loop
      vertex -27.5 3.864 6.82132
      vertex -27.5 4.45998 7.112
      vertex -27.5 5.58396 7.81434
    endloop
  endfacet
  facet normal 0 -0.438371 0.898794
    outer loop
      vertex -27.5 4.45998 7.112
      vertex 27.5 3.864 6.82132
      vertex 27.5 4.45998 7.112
    endloop
  endfacet
  facet normal 0 -0.438371 0.898794
    outer loop
      vertex 27.5 3.864 6.82132
      vertex -27.5 4.45998 7.112
      vertex -27.5 3.864 6.82132
    endloop
  endfacet
  facet normal 0 -0.71934 0.694658
    outer loop
      vertex -27.5 6.59925 8.66627
      vertex 27.5 7.05988 9.14326
      vertex -27.5 7.05988 9.14326
    endloop
  endfacet
  facet normal 0 -0.71934 0.694658
    outer loop
      vertex 27.5 7.05988 9.14326
      vertex -27.5 6.59925 8.66627
      vertex 27.5 6.59925 8.66627
    endloop
  endfacet
  facet normal 0 0.0349 0.999391
    outer loop
      vertex 27.5 -0.662686 6.02314
      vertex -27.5 0 6
      vertex -27.5 -0.662686 6.02314
    endloop
  endfacet
  facet normal 1 -0 -0
    outer loop
      vertex -27.5 -1.32214 6.09245
      vertex -27.5 -0.662686 6.02314
      vertex -27.5 -5.58396 7.81434
    endloop
  endfacet
  facet normal 1 -0 -0
    outer loop
      vertex -27.5 -3.24919 6.57292
      vertex -27.5 -2.61855 6.36801
      vertex -27.5 -5.58396 7.81434
    endloop
  endfacet
  facet normal -0 0.615662 0.78801
    outer loop
      vertex -27.5 -5.58396 7.81434
      vertex 27.5 -6.10648 8.22258
      vertex 27.5 -5.58396 7.81434
    endloop
  endfacet
  facet normal 0 0.615662 0.78801
    outer loop
      vertex 27.5 -6.10648 8.22258
      vertex -27.5 -5.58396 7.81434
      vertex -27.5 -6.10648 8.22258
    endloop
  endfacet
  facet normal 0 -0.374607 0.927184
    outer loop
      vertex -27.5 3.864 6.82132
      vertex 27.5 3.24919 6.57292
      vertex 27.5 3.864 6.82132
    endloop
  endfacet
  facet normal 0 -0.374607 0.927184
    outer loop
      vertex 27.5 3.24919 6.57292
      vertex -27.5 3.864 6.82132
      vertex -27.5 3.24919 6.57292
    endloop
  endfacet
  facet normal 0 -0.173648 0.984808
    outer loop
      vertex -27.5 1.97516 6.2076
      vertex 27.5 1.32214 6.09245
      vertex 27.5 1.97516 6.2076
    endloop
  endfacet
  facet normal 0 -0.173648 0.984808
    outer loop
      vertex 27.5 1.32214 6.09245
      vertex -27.5 1.97516 6.2076
      vertex -27.5 1.32214 6.09245
    endloop
  endfacet
  facet normal 0 -0.559192 0.829038
    outer loop
      vertex -27.5 5.58396 7.81434
      vertex 27.5 5.03423 7.44354
      vertex 27.5 5.58396 7.81434
    endloop
  endfacet
  facet normal 0 -0.559192 0.829038
    outer loop
      vertex 27.5 5.03423 7.44354
      vertex -27.5 5.58396 7.81434
      vertex -27.5 5.03423 7.44354
    endloop
  endfacet
  facet normal 0 -0.5 0.866026
    outer loop
      vertex -27.5 5.03423 7.44354
      vertex 27.5 4.45998 7.112
      vertex 27.5 5.03423 7.44354
    endloop
  endfacet
  facet normal 0 -0.5 0.866026
    outer loop
      vertex 27.5 4.45998 7.112
      vertex -27.5 5.03423 7.44354
      vertex -27.5 4.45998 7.112
    endloop
  endfacet
  facet normal -1.62809e-08 -0.882947 0.469473
    outer loop
      vertex 0 8.22724 10.75
      vertex 0 8.38289 11.0427
      vertex -27.5 8.22724 10.75
    endloop
  endfacet
  facet normal -1.83771e-08 0.848048 0.529919
    outer loop
      vertex 0 -8.22724 10.75
      vertex 0 -8.05155 10.4688
      vertex -27.5 -8.22724 10.75
    endloop
  endfacet
  facet normal -0 0.241921 0.970296
    outer loop
      vertex -27.5 -1.97516 6.2076
      vertex 27.5 -2.61855 6.36801
      vertex 27.5 -1.97516 6.2076
    endloop
  endfacet
  facet normal 0 0.241921 0.970296
    outer loop
      vertex 27.5 -2.61855 6.36801
      vertex -27.5 -1.97516 6.2076
      vertex -27.5 -2.61855 6.36801
    endloop
  endfacet
  facet normal 1 -0 -0
    outer loop
      vertex -27.5 -5.03423 7.44354
      vertex -27.5 -4.45998 7.112
      vertex -27.5 -5.58396 7.81434
    endloop
  endfacet
  facet normal -0 0.5 0.866026
    outer loop
      vertex -27.5 -4.45998 7.112
      vertex 27.5 -5.03423 7.44354
      vertex 27.5 -4.45998 7.112
    endloop
  endfacet
  facet normal 0 0.5 0.866026
    outer loop
      vertex 27.5 -5.03423 7.44354
      vertex -27.5 -4.45998 7.112
      vertex -27.5 -5.03423 7.44354
    endloop
  endfacet
  facet normal 1 -0 -0
    outer loop
      vertex -27.5 -2.61855 6.36801
      vertex -27.5 -1.97516 6.2076
      vertex -27.5 -5.58396 7.81434
    endloop
  endfacet
  facet normal -0 0.669131 0.743145
    outer loop
      vertex -27.5 -6.10648 8.22258
      vertex 27.5 -6.59925 8.66627
      vertex 27.5 -6.10648 8.22258
    endloop
  endfacet
  facet normal 0 0.669131 0.743145
    outer loop
      vertex 27.5 -6.59925 8.66627
      vertex -27.5 -6.10648 8.22258
      vertex -27.5 -6.59925 8.66627
    endloop
  endfacet
  facet normal 0 -0.669131 0.743145
    outer loop
      vertex -27.5 6.59925 8.66627
      vertex 27.5 6.10648 8.22258
      vertex 27.5 6.59925 8.66627
    endloop
  endfacet
  facet normal 0 -0.669131 0.743145
    outer loop
      vertex 27.5 6.10648 8.22258
      vertex -27.5 6.59925 8.66627
      vertex -27.5 6.10648 8.22258
    endloop
  endfacet
  facet normal -1.62809e-08 0.882947 0.469473
    outer loop
      vertex 0 -8.38289 11.0427
      vertex 0 -8.22724 10.75
      vertex -27.5 -8.22724 10.75
    endloop
  endfacet
  facet normal 1 0 0
    outer loop
      vertex -27.5 7.35922 9.5
      vertex -27.5 6.59925 8.66627
      vertex -27.5 7.05988 9.14326
    endloop
  endfacet
  facet normal 1 0 0
    outer loop
      vertex -27.5 7.35922 9.5
      vertex -27.5 6.10648 8.22258
      vertex -27.5 6.59925 8.66627
    endloop
  endfacet
  facet normal 1 0 0
    outer loop
      vertex -27.5 7.35922 9.5
      vertex -27.5 5.58396 7.81434
      vertex -27.5 6.10648 8.22258
    endloop
  endfacet
  facet normal 1 0 0
    outer loop
      vertex -27.5 7.35922 9.5
      vertex -27.5 -5.58396 7.81434
      vertex -27.5 5.58396 7.81434
    endloop
  endfacet
  facet normal 1 0 0
    outer loop
      vertex -27.5 7.35922 9.5
      vertex -27.5 -6.10648 8.22258
      vertex -27.5 -5.58396 7.81434
    endloop
  endfacet
  facet normal 1 0 0
    outer loop
      vertex -27.5 7.35922 9.5
      vertex -27.5 -6.59925 8.66627
      vertex -27.5 -6.10648 8.22258
    endloop
  endfacet
  facet normal 1 -0 0
    outer loop
      vertex -27.5 -7.35922 9.5
      vertex -27.5 -6.59925 8.66627
      vertex -27.5 7.35922 9.5
    endloop
  endfacet
  facet normal 1 0 0
    outer loop
      vertex -27.5 -6.59925 8.66627
      vertex -27.5 -7.35922 9.5
      vertex -27.5 -7.05988 9.14326
    endloop
  endfacet
  facet normal -0 0.104529 0.994522
    outer loop
      vertex -27.5 -0.662686 6.02314
      vertex 27.5 -1.32214 6.09245
      vertex 27.5 -0.662686 6.02314
    endloop
  endfacet
  facet normal 0 0.104529 0.994522
    outer loop
      vertex 27.5 -1.32214 6.09245
      vertex -27.5 -0.662686 6.02314
      vertex -27.5 -1.32214 6.09245
    endloop
  endfacet
  facet normal -1.83771e-08 -0.848048 0.529919
    outer loop
      vertex 0 8.05155 10.4688
      vertex 0 8.22724 10.75
      vertex -27.5 8.22724 10.75
    endloop
  endfacet
  facet normal -1 0 0
    outer loop
      vertex 27.5 6.59925 8.66627
      vertex 27.5 7.35922 9.5
      vertex 27.5 7.05988 9.14326
    endloop
  endfacet
  facet normal -1 0 0
    outer loop
      vertex 27.5 6.10648 8.22258
      vertex 27.5 7.35922 9.5
      vertex 27.5 6.59925 8.66627
    endloop
  endfacet
  facet normal -1 0 0
    outer loop
      vertex 27.5 5.58396 7.81434
      vertex 27.5 7.35922 9.5
      vertex 27.5 6.10648 8.22258
    endloop
  endfacet
  facet normal -1 0 0
    outer loop
      vertex 27.5 5.03423 7.44354
      vertex 27.5 7.35922 9.5
      vertex 27.5 5.58396 7.81434
    endloop
  endfacet
  facet normal -1 0 0
    outer loop
      vertex 27.5 4.45998 7.112
      vertex 27.5 7.35922 9.5
      vertex 27.5 5.03423 7.44354
    endloop
  endfacet
  facet normal -1 0 0
    outer loop
      vertex 27.5 3.864 6.82132
      vertex 27.5 7.35922 9.5
      vertex 27.5 4.45998 7.112
    endloop
  endfacet
  facet normal -1 0 0
    outer loop
      vertex 27.5 3.24919 6.57292
      vertex 27.5 7.35922 9.5
      vertex 27.5 3.864 6.82132
    endloop
  endfacet
  facet normal -1 0 0
    outer loop
      vertex 27.5 2.61855 6.36801
      vertex 27.5 7.35922 9.5
      vertex 27.5 3.24919 6.57292
    endloop
  endfacet
  facet normal -1 0 0
    outer loop
      vertex 27.5 1.97516 6.2076
      vertex 27.5 7.35922 9.5
      vertex 27.5 2.61855 6.36801
    endloop
  endfacet
  facet normal -1 0 0
    outer loop
      vertex 27.5 1.32214 6.09245
      vertex 27.5 7.35922 9.5
      vertex 27.5 1.97516 6.2076
    endloop
  endfacet
  facet normal -1 0 0
    outer loop
      vertex 27.5 0.662686 6.02314
      vertex 27.5 7.35922 9.5
      vertex 27.5 1.32214 6.09245
    endloop
  endfacet
  facet normal -1 0 0
    outer loop
      vertex 27.5 0 6
      vertex 27.5 7.35922 9.5
      vertex 27.5 0.662686 6.02314
    endloop
  endfacet
  facet normal -1 0 0
    outer loop
      vertex 27.5 -0.662686 6.02314
      vertex 27.5 7.35922 9.5
      vertex 27.5 0 6
    endloop
  endfacet
  facet normal -1 0 0
    outer loop
      vertex 27.5 -1.32214 6.09245
      vertex 27.5 7.35922 9.5
      vertex 27.5 -0.662686 6.02314
    endloop
  endfacet
  facet normal -1 0 0
    outer loop
      vertex 27.5 -1.97516 6.2076
      vertex 27.5 7.35922 9.5
      vertex 27.5 -1.32214 6.09245
    endloop
  endfacet
  facet normal -1 0 0
    outer loop
      vertex 27.5 -2.61855 6.36801
      vertex 27.5 7.35922 9.5
      vertex 27.5 -1.97516 6.2076
    endloop
  endfacet
  facet normal -1 0 0
    outer loop
      vertex 27.5 -3.24919 6.57292
      vertex 27.5 7.35922 9.5
      vertex 27.5 -2.61855 6.36801
    endloop
  endfacet
  facet normal -1 0 0
    outer loop
      vertex 27.5 -3.864 6.82132
      vertex 27.5 7.35922 9.5
      vertex 27.5 -3.24919 6.57292
    endloop
  endfacet
  facet normal -1 0 0
    outer loop
      vertex 27.5 -4.45998 7.112
      vertex 27.5 7.35922 9.5
      vertex 27.5 -3.864 6.82132
    endloop
  endfacet
  facet normal -1 0 0
    outer loop
      vertex 27.5 -5.03423 7.44354
      vertex 27.5 7.35922 9.5
      vertex 27.5 -4.45998 7.112
    endloop
  endfacet
  facet normal -1 0 0
    outer loop
      vertex 27.5 -5.58396 7.81434
      vertex 27.5 7.35922 9.5
      vertex 27.5 -5.03423 7.44354
    endloop
  endfacet
  facet normal -1 0 0
    outer loop
      vertex 27.5 -6.10648 8.22258
      vertex 27.5 7.35922 9.5
      vertex 27.5 -5.58396 7.81434
    endloop
  endfacet
  facet normal -1 0 0
    outer loop
      vertex 27.5 -6.59925 8.66627
      vertex 27.5 7.35922 9.5
      vertex 27.5 -6.10648 8.22258
    endloop
  endfacet
  facet normal -1 0 0
    outer loop
      vertex 27.5 -7.35922 9.5
      vertex 27.5 -6.59925 8.66627
      vertex 27.5 -7.05988 9.14326
    endloop
  endfacet
  facet normal -1 0 0
    outer loop
      vertex 27.5 -6.59925 8.66627
      vertex 27.5 -7.35922 9.5
      vertex 27.5 7.35922 9.5
    endloop
  endfacet
  facet normal -0 0.374607 0.927184
    outer loop
      vertex -27.5 -3.24919 6.57292
      vertex 27.5 -3.864 6.82132
      vertex 27.5 -3.24919 6.57292
    endloop
  endfacet
  facet normal 0 0.374607 0.927184
    outer loop
      vertex 27.5 -3.864 6.82132
      vertex -27.5 -3.24919 6.57292
      vertex -27.5 -3.864 6.82132
    endloop
  endfacet
  facet normal -0 0.173648 0.984808
    outer loop
      vertex -27.5 -1.32214 6.09245
      vertex 27.5 -1.97516 6.2076
      vertex 27.5 -1.32214 6.09245
    endloop
  endfacet
  facet normal 0 0.173648 0.984808
    outer loop
      vertex 27.5 -1.97516 6.2076
      vertex -27.5 -1.32214 6.09245
      vertex -27.5 -1.97516 6.2076
    endloop
  endfacet
  facet normal 0 0.71934 0.694658
    outer loop
      vertex 27.5 -6.59925 8.66627
      vertex -27.5 -7.05988 9.14326
      vertex 27.5 -7.05988 9.14326
    endloop
  endfacet
  facet normal 0 0.71934 0.694658
    outer loop
      vertex -27.5 -7.05988 9.14326
      vertex 27.5 -6.59925 8.66627
      vertex -27.5 -6.59925 8.66627
    endloop
  endfacet
  facet normal -0 0.438371 0.898794
    outer loop
      vertex -27.5 -3.864 6.82132
      vertex 27.5 -4.45998 7.112
      vertex 27.5 -3.864 6.82132
    endloop
  endfacet
  facet normal 0 0.438371 0.898794
    outer loop
      vertex 27.5 -4.45998 7.112
      vertex -27.5 -3.864 6.82132
      vertex -27.5 -4.45998 7.112
    endloop
  endfacet
  facet normal 1 -0 -0
    outer loop
      vertex -27.5 -4.45998 7.112
      vertex -27.5 -3.864 6.82132
      vertex -27.5 -5.58396 7.81434
    endloop
  endfacet
  facet normal 1 -0 -0
    outer loop
      vertex -27.5 -3.864 6.82132
      vertex -27.5 -3.24919 6.57292
      vertex -27.5 -5.58396 7.81434
    endloop
  endfacet
  facet normal -0.866025 -0.5 0
    outer loop
      vertex 26.232 18.1754 0
      vertex 25.366 19.6754 15
      vertex 25.366 19.6754 0
    endloop
  endfacet
  facet normal -0.866025 -0.5 0
    outer loop
      vertex 25.366 19.6754 15
      vertex 26.232 18.1754 0
      vertex 26.232 18.1754 15
    endloop
  endfacet
  facet normal 0.866025 -0.5 0
    outer loop
      vertex 22.7679 18.1754 15
      vertex 23.634 19.6754 0
      vertex 23.634 19.6754 15
    endloop
  endfacet
  facet normal 0.866025 -0.5 0
    outer loop
      vertex 23.634 19.6754 0
      vertex 22.7679 18.1754 15
      vertex 22.7679 18.1754 0
    endloop
  endfacet
  facet normal 0 -1 0
    outer loop
      vertex 23.634 19.6754 0
      vertex 25.366 19.6754 15
      vertex 23.634 19.6754 15
    endloop
  endfacet
  facet normal 0 -1 -0
    outer loop
      vertex 25.366 19.6754 15
      vertex 23.634 19.6754 0
      vertex 25.366 19.6754 0
    endloop
  endfacet
  facet normal -0.866025 0.5 0
    outer loop
      vertex 25.366 16.6754 0
      vertex 26.232 18.1754 15
      vertex 26.232 18.1754 0
    endloop
  endfacet
  facet normal -0.866025 0.5 0
    outer loop
      vertex 26.232 18.1754 15
      vertex 25.366 16.6754 0
      vertex 25.366 16.6754 15
    endloop
  endfacet
  facet normal 0 1 -0
    outer loop
      vertex 25.366 16.6754 0
      vertex 23.634 16.6754 15
      vertex 25.366 16.6754 15
    endloop
  endfacet
  facet normal 0 1 0
    outer loop
      vertex 23.634 16.6754 15
      vertex 25.366 16.6754 0
      vertex 23.634 16.6754 0
    endloop
  endfacet
  facet normal 0.866025 0.5 0
    outer loop
      vertex 23.634 16.6754 15
      vertex 22.7679 18.1754 0
      vertex 22.7679 18.1754 15
    endloop
  endfacet
  facet normal 0.866025 0.5 0
    outer loop
      vertex 22.7679 18.1754 0
      vertex 23.634 16.6754 15
      vertex 23.634 16.6754 0
    endloop
  endfacet
  facet normal -0.866025 -0.5 0
    outer loop
      vertex 26.232 -18.1754 0
      vertex 25.366 -16.6754 15
      vertex 25.366 -16.6754 0
    endloop
  endfacet
  facet normal -0.866025 -0.5 0
    outer loop
      vertex 25.366 -16.6754 15
      vertex 26.232 -18.1754 0
      vertex 26.232 -18.1754 15
    endloop
  endfacet
  facet normal 0.866025 -0.5 0
    outer loop
      vertex 22.7679 -18.1754 15
      vertex 23.634 -16.6754 0
      vertex 23.634 -16.6754 15
    endloop
  endfacet
  facet normal 0.866025 -0.5 0
    outer loop
      vertex 23.634 -16.6754 0
      vertex 22.7679 -18.1754 15
      vertex 22.7679 -18.1754 0
    endloop
  endfacet
  facet normal 0 -1 0
    outer loop
      vertex 23.634 -16.6754 0
      vertex 25.366 -16.6754 15
      vertex 23.634 -16.6754 15
    endloop
  endfacet
  facet normal 0 -1 -0
    outer loop
      vertex 25.366 -16.6754 15
      vertex 23.634 -16.6754 0
      vertex 25.366 -16.6754 0
    endloop
  endfacet
  facet normal 0 1 -0
    outer loop
      vertex 25.366 -19.6754 0
      vertex 23.634 -19.6754 15
      vertex 25.366 -19.6754 15
    endloop
  endfacet
  facet normal 0 1 0
    outer loop
      vertex 23.634 -19.6754 15
      vertex 25.366 -19.6754 0
      vertex 23.634 -19.6754 0
    endloop
  endfacet
  facet normal 0.866025 0.5 0
    outer loop
      vertex 23.634 -19.6754 15
      vertex 22.7679 -18.1754 0
      vertex 22.7679 -18.1754 15
    endloop
  endfacet
  facet normal 0.866025 0.5 0
    outer loop
      vertex 22.7679 -18.1754 0
      vertex 23.634 -19.6754 15
      vertex 23.634 -19.6754 0
    endloop
  endfacet
  facet normal -0.866025 0.5 0
    outer loop
      vertex 25.366 -19.6754 0
      vertex 26.232 -18.1754 15
      vertex 26.232 -18.1754 0
    endloop
  endfacet
  facet normal -0.866025 0.5 0
    outer loop
      vertex 26.232 -18.1754 15
      vertex 25.366 -19.6754 0
      vertex 25.366 -19.6754 15
    endloop
  endfacet
  facet normal -0.866025 -0.5 0
    outer loop
      vertex -22.7679 18.1754 0
      vertex -23.634 19.6754 15
      vertex -23.634 19.6754 0
    endloop
  endfacet
  facet normal -0.866025 -0.5 0
    outer loop
      vertex -23.634 19.6754 15
      vertex -22.7679 18.1754 0
      vertex -22.7679 18.1754 15
    endloop
  endfacet
  facet normal 0.866025 -0.5 0
    outer loop
      vertex -26.232 18.1754 15
      vertex -25.366 19.6754 0
      vertex -25.366 19.6754 15
    endloop
  endfacet
  facet normal 0.866025 -0.5 0
    outer loop
      vertex -25.366 19.6754 0
      vertex -26.232 18.1754 15
      vertex -26.232 18.1754 0
    endloop
  endfacet
  facet normal 0 -1 0
    outer loop
      vertex -25.366 19.6754 0
      vertex -23.634 19.6754 15
      vertex -25.366 19.6754 15
    endloop
  endfacet
  facet normal 0 -1 -0
    outer loop
      vertex -23.634 19.6754 15
      vertex -25.366 19.6754 0
      vertex -23.634 19.6754 0
    endloop
  endfacet
  facet normal 0.866025 0.5 0
    outer loop
      vertex -25.366 16.6754 15
      vertex -26.232 18.1754 0
      vertex -26.232 18.1754 15
    endloop
  endfacet
  facet normal 0.866025 0.5 0
    outer loop
      vertex -26.232 18.1754 0
      vertex -25.366 16.6754 15
      vertex -25.366 16.6754 0
    endloop
  endfacet
  facet normal -0.866025 0.5 0
    outer loop
      vertex -23.634 16.6754 0
      vertex -22.7679 18.1754 15
      vertex -22.7679 18.1754 0
    endloop
  endfacet
  facet normal -0.866025 0.5 0
    outer loop
      vertex -22.7679 18.1754 15
      vertex -23.634 16.6754 0
      vertex -23.634 16.6754 15
    endloop
  endfacet
  facet normal 0 1 -0
    outer loop
      vertex -23.634 16.6754 0
      vertex -25.366 16.6754 15
      vertex -23.634 16.6754 15
    endloop
  endfacet
  facet normal 0 1 0
    outer loop
      vertex -25.366 16.6754 15
      vertex -23.634 16.6754 0
      vertex -25.366 16.6754 0
    endloop
  endfacet
  facet normal -0.866025 -0.5 0
    outer loop
      vertex -22.7679 -18.1754 0
      vertex -23.634 -16.6754 15
      vertex -23.634 -16.6754 0
    endloop
  endfacet
  facet normal -0.866025 -0.5 0
    outer loop
      vertex -23.634 -16.6754 15
      vertex -22.7679 -18.1754 0
      vertex -22.7679 -18.1754 15
    endloop
  endfacet
  facet normal 0.866025 -0.5 0
    outer loop
      vertex -26.232 -18.1754 15
      vertex -25.366 -16.6754 0
      vertex -25.366 -16.6754 15
    endloop
  endfacet
  facet normal 0.866025 -0.5 0
    outer loop
      vertex -25.366 -16.6754 0
      vertex -26.232 -18.1754 15
      vertex -26.232 -18.1754 0
    endloop
  endfacet
  facet normal 0 -1 0
    outer loop
      vertex -25.366 -16.6754 0
      vertex -23.634 -16.6754 15
      vertex -25.366 -16.6754 15
    endloop
  endfacet
  facet normal 0 -1 -0
    outer loop
      vertex -23.634 -16.6754 15
      vertex -25.366 -16.6754 0
      vertex -23.634 -16.6754 0
    endloop
  endfacet
  facet normal 0 1 -0
    outer loop
      vertex -23.634 -19.6754 0
      vertex -25.366 -19.6754 15
      vertex -23.634 -19.6754 15
    endloop
  endfacet
  facet normal 0 1 0
    outer loop
      vertex -25.366 -19.6754 15
      vertex -23.634 -19.6754 0
      vertex -25.366 -19.6754 0
    endloop
  endfacet
  facet normal 0.866025 0.5 0
    outer loop
      vertex -25.366 -19.6754 15
      vertex -26.232 -18.1754 0
      vertex -26.232 -18.1754 15
    endloop
  endfacet
  facet normal 0.866025 0.5 0
    outer loop
      vertex -26.232 -18.1754 0
      vertex -25.366 -19.6754 15
      vertex -25.366 -19.6754 0
    endloop
  endfacet
  facet normal -0.866025 0.5 0
    outer loop
      vertex -23.634 -19.6754 0
      vertex -22.7679 -18.1754 15
      vertex -22.7679 -18.1754 0
    endloop
  endfacet
  facet normal -0.866025 0.5 0
    outer loop
      vertex -22.7679 -18.1754 15
      vertex -23.634 -19.6754 0
      vertex -23.634 -19.6754 15
    endloop
  endfacet
endsolid OpenSCAD_Model
